<svg width="6" height="6" viewBox="0 0 6 6" fill="none" xmlns="http://www.w3.org/2000/svg">
<path fill-rule="evenodd" clip-rule="evenodd" d="M3.70842 4.90848C3.72693 4.9607 3.73985 5.02166 3.76566 5.14358L3.82767 5.43646C3.89203 5.7404 4.16818 5.9586 4.4885 5.9586C4.96081 5.9586 5.28691 5.50057 5.11904 5.07295L3.52225 1.00523C3.50305 0.956313 3.49345 0.931857 3.48341 0.910022C3.34821 0.615986 3.05461 0.419868 2.72283 0.401964C2.69819 0.400635 2.67118 0.400635 2.61715 0.400635C2.56298 0.400635 2.5359 0.400635 2.5112 0.40197C2.17866 0.419954 1.88456 0.616953 1.74982 0.911991C1.73982 0.933897 1.73026 0.95844 1.71115 1.00753L0.125572 5.07887C-0.0400529 5.50415 0.284404 5.9586 0.75366 5.9586C1.07313 5.9586 1.34834 5.74053 1.41164 5.43721L1.47293 5.14358C1.4979 5.02393 1.51038 4.96411 1.52824 4.91283C1.63685 4.60097 1.91992 4.37666 2.25703 4.33534C2.31246 4.32854 2.37547 4.32854 2.50148 4.32854H2.73415C2.86262 4.32854 2.92686 4.32854 2.9834 4.33561C3.31789 4.37745 3.59892 4.59949 3.70842 4.90848ZM2.62486 3.90926C2.9848 3.90926 3.27658 3.62663 3.27658 3.27798C3.27658 2.92933 2.9848 2.6467 2.62486 2.6467C2.26492 2.6467 1.97313 2.92933 1.97313 3.27798C1.97313 3.62663 2.26492 3.90926 2.62486 3.90926Z" fill="black"/>
</svg>
