<svg width="331" height="331" viewBox="0 0 331 331" fill="none" xmlns="http://www.w3.org/2000/svg">
<circle cx="165.454" cy="165.404" r="165.404" fill="#0C0C0C"/>
<path fill-rule="evenodd" clip-rule="evenodd" d="M201.148 222.243C201.756 223.96 202.181 225.964 203.029 229.972L205.068 239.601C207.184 249.594 216.263 256.767 226.794 256.767C242.322 256.767 253.043 241.709 247.524 227.65L195.027 93.9176C194.396 92.3095 194.08 91.5055 193.75 90.7876C189.305 81.1208 179.653 74.6731 168.745 74.0845C167.935 74.0408 167.047 74.0408 165.271 74.0408C163.49 74.0408 162.599 74.0408 161.787 74.0847C150.854 74.6759 141.186 81.1526 136.756 90.8524C136.427 91.5726 136.112 92.3795 135.484 93.9932L83.356 227.845C77.9109 241.827 88.5779 256.767 104.005 256.767C114.508 256.767 123.556 249.598 125.638 239.626L127.652 229.972C128.473 226.039 128.884 224.072 129.471 222.386C133.042 212.133 142.348 204.759 153.431 203.4C155.253 203.177 157.325 203.177 161.468 203.177H169.117C173.341 203.177 175.453 203.177 177.311 203.409C188.308 204.785 197.547 212.084 201.148 222.243ZM165.524 189.392C177.357 189.392 186.95 180.1 186.95 168.638C186.95 157.176 177.357 147.883 165.524 147.883C153.69 147.883 144.097 157.176 144.097 168.638C144.097 180.1 153.69 189.392 165.524 189.392Z" fill="white"/>
</svg>
