<svg width="331" height="332" viewBox="0 0 331 332" fill="none" xmlns="http://www.w3.org/2000/svg">
<circle cx="165.454" cy="166.212" r="165.404" fill="white"/>
<path fill-rule="evenodd" clip-rule="evenodd" d="M201.148 223.051C201.756 224.768 202.181 226.772 203.029 230.78L205.068 240.409C207.184 250.402 216.263 257.575 226.794 257.575C242.322 257.575 253.043 242.517 247.524 228.458L195.027 94.7258C194.396 93.1176 194.08 92.3136 193.75 91.5957C189.305 81.9289 179.653 75.4812 168.745 74.8926C167.935 74.8489 167.047 74.8489 165.271 74.8489C163.49 74.8489 162.599 74.8489 161.787 74.8928C150.854 75.484 141.186 81.9607 136.756 91.6605C136.427 92.3807 136.112 93.1876 135.484 94.8013L83.356 228.653C77.9109 242.635 88.5779 257.575 104.005 257.575C114.508 257.575 123.556 250.406 125.638 240.434L127.652 230.78C128.473 226.847 128.884 224.88 129.471 223.194C133.042 212.941 142.348 205.567 153.431 204.208C155.253 203.985 157.325 203.985 161.468 203.985H169.117C173.341 203.985 175.453 203.985 177.311 204.217C188.308 205.593 197.547 212.893 201.148 223.051ZM165.524 190.2C177.357 190.2 186.95 180.908 186.95 169.446C186.95 157.984 177.357 148.692 165.524 148.692C153.69 148.692 144.097 157.984 144.097 169.446C144.097 180.908 153.69 190.2 165.524 190.2Z" fill="#0C0C0C"/>
</svg>
