<svg width="248" height="285" viewBox="0 0 248 285" fill="none" xmlns="http://www.w3.org/2000/svg">
<path fill-rule="evenodd" clip-rule="evenodd" d="M176.868 231.016C177.77 233.689 178.399 236.81 179.656 243.052L182.675 258.048C185.809 273.609 199.257 284.781 214.855 284.781C237.855 284.781 253.735 261.33 245.56 239.436L167.803 31.1736C166.868 28.6693 166.4 27.4172 165.911 26.2992C159.328 11.2449 145.031 1.20391 128.874 0.287251C127.674 0.219177 126.359 0.219177 123.728 0.219177C121.09 0.219177 119.771 0.219177 118.569 0.287549C102.375 1.20831 88.0538 11.2944 81.4924 26.4001C81.0055 27.5216 80.5397 28.7782 79.609 31.2913L2.3978 239.74C-5.66748 261.513 10.1323 284.781 32.9832 284.781C48.5401 284.781 61.9418 273.616 65.0244 258.086L68.0087 243.052C69.2247 236.927 69.8325 233.864 70.7022 231.238C75.991 215.271 89.7755 203.787 106.191 201.671C108.891 201.324 111.959 201.324 118.095 201.324H129.425C135.681 201.324 138.81 201.324 141.563 201.686C157.851 203.828 171.536 215.196 176.868 231.016ZM124.103 179.857C141.631 179.857 155.839 165.386 155.839 147.536C155.839 129.686 141.631 115.215 124.103 115.215C106.575 115.215 92.3664 129.686 92.3664 147.536C92.3664 165.386 106.575 179.857 124.103 179.857Z" fill="white"/>
</svg>
