<svg width="513" height="513" viewBox="0 0 513 513" fill="none" xmlns="http://www.w3.org/2000/svg">
<g clip-path="url(#clip0_1208_4368)">
<path fill-rule="evenodd" clip-rule="evenodd" d="M307.642 339.904C308.515 342.426 309.124 345.37 310.342 351.257L313.268 365.4C316.304 380.077 329.333 390.614 344.445 390.614C366.728 390.614 382.113 368.496 374.193 347.846L298.859 151.422C297.953 149.06 297.5 147.879 297.026 146.824C290.648 132.626 276.796 123.155 261.143 122.291C259.98 122.227 258.706 122.227 256.157 122.227C253.601 122.227 252.324 122.227 251.159 122.291C235.469 123.159 221.594 132.672 215.237 146.919C214.766 147.977 214.314 149.162 213.413 151.533L138.607 348.132C130.793 368.669 146.101 390.614 168.24 390.614C183.312 390.614 196.296 380.083 199.282 365.436L202.174 351.257C203.352 345.479 203.941 342.591 204.783 340.115C209.907 325.055 223.262 314.224 239.167 312.228C241.782 311.9 244.755 311.9 250.7 311.9H261.677C267.738 311.9 270.769 311.9 273.436 312.241C289.217 314.262 302.475 324.984 307.642 339.904ZM256.52 291.654C273.502 291.654 287.268 278.006 287.268 261.17C287.268 244.334 273.502 230.686 256.52 230.686C239.539 230.686 225.773 244.334 225.773 261.17C225.773 278.006 239.539 291.654 256.52 291.654Z" fill="white"/>
</g>
<defs>
<clipPath id="clip0_1208_4368">
<rect width="274.633" height="274.633" fill="white" transform="translate(119.105 119.104)"/>
</clipPath>
</defs>
</svg>
