<svg width="725" height="500" viewBox="0 0 725 500" fill="none" xmlns="http://www.w3.org/2000/svg">
<g clip-path="url(#clip0_251_2)">
<rect width="725" height="500" fill="#EFEFEF"/>
<path d="M195.761 211.279C195.663 211.182 195.505 211.182 195.407 211.279L193.816 212.87C193.719 212.968 193.719 213.126 193.816 213.224C193.914 213.321 194.072 213.321 194.17 213.224L195.584 211.81L196.998 213.224C197.096 213.321 197.254 213.321 197.352 213.224C197.449 213.126 197.449 212.968 197.352 212.87L195.761 211.279ZM195.407 447.295C195.505 447.392 195.663 447.392 195.761 447.295L197.352 445.704C197.449 445.606 197.449 445.448 197.352 445.35C197.254 445.253 197.096 445.253 196.998 445.35L195.584 446.764L194.17 445.35C194.072 445.253 193.914 445.253 193.816 445.35C193.719 445.448 193.719 445.606 193.816 445.704L195.407 447.295ZM195.334 211.456L195.334 447.118H195.834L195.834 211.456H195.334Z" fill="#1B5FE1"/>
<path d="M87.7287 297.115C87.7287 297.253 87.8406 297.365 87.9787 297.365L90.2287 297.365C90.3667 297.365 90.4787 297.253 90.4787 297.115C90.4787 296.977 90.3667 296.865 90.2287 296.865L88.2287 296.865L88.2287 294.865C88.2287 294.727 88.1167 294.615 87.9787 294.615C87.8406 294.615 87.7287 294.727 87.7287 294.865L87.7287 297.115ZM130.417 254.323L87.8019 296.938L88.1554 297.292L130.771 254.677L130.417 254.323Z" fill="#1B5FE1"/>
<path d="M1183.69 317.448L-324.043 316.825" stroke="#1B5FE1" stroke-width="0.5" stroke-dasharray="12 12"/>
<path d="M1183.69 447.067L-324.043 446.444" stroke="#1B5FE1" stroke-width="0.5"/>
<path d="M1183.69 79.2454L-324.043 78.6229" stroke="#1B5FE1" stroke-width="0.5"/>
<path d="M1184.75 210.515L-324.042 209.892" stroke="#1B5FE1" stroke-width="0.5"/>
<path d="M177.172 195.738L179.217 192.469H180.541L177.846 196.699L180.605 201H179.27L177.172 197.672L175.062 201H173.732L176.498 196.699L173.797 192.469H175.115L177.172 195.738ZM185.803 195.427C186.283 194.838 186.908 194.543 187.678 194.543C189.018 194.543 189.693 195.299 189.705 196.81V201H188.621V196.804C188.617 196.347 188.512 196.01 188.305 195.791C188.102 195.572 187.783 195.463 187.35 195.463C186.998 195.463 186.689 195.556 186.424 195.744C186.158 195.931 185.951 196.177 185.803 196.482V201H184.719V192H185.803V195.427ZM193.959 201.117C193.1 201.117 192.4 200.836 191.861 200.273C191.322 199.707 191.053 198.951 191.053 198.006V197.806C191.053 197.177 191.172 196.617 191.41 196.125C191.652 195.629 191.988 195.242 192.418 194.965C192.852 194.683 193.32 194.543 193.824 194.543C194.648 194.543 195.289 194.814 195.746 195.357C196.203 195.9 196.432 196.677 196.432 197.689V198.14H192.137C192.152 198.765 192.334 199.271 192.682 199.658C193.033 200.041 193.479 200.232 194.018 200.232C194.4 200.232 194.725 200.154 194.99 199.998C195.256 199.842 195.488 199.635 195.688 199.377L196.35 199.892C195.818 200.709 195.021 201.117 193.959 201.117ZM193.824 195.433C193.387 195.433 193.02 195.594 192.723 195.914C192.426 196.23 192.242 196.676 192.172 197.25H195.348V197.168C195.316 196.617 195.168 196.191 194.902 195.89C194.637 195.586 194.277 195.433 193.824 195.433ZM198.869 201H197.785V194.66H198.869V201ZM197.697 192.978C197.697 192.802 197.75 192.654 197.855 192.533C197.965 192.412 198.125 192.351 198.336 192.351C198.547 192.351 198.707 192.412 198.816 192.533C198.926 192.654 198.98 192.802 198.98 192.978C198.98 193.154 198.926 193.301 198.816 193.418C198.707 193.535 198.547 193.594 198.336 193.594C198.125 193.594 197.965 193.535 197.855 193.418C197.75 193.301 197.697 193.154 197.697 192.978ZM200.352 197.777C200.352 196.789 200.58 196.004 201.037 195.422C201.494 194.836 202.1 194.543 202.854 194.543C203.627 194.543 204.23 194.816 204.664 195.363L204.717 194.66H205.707V200.847C205.707 201.668 205.463 202.314 204.975 202.787C204.49 203.26 203.838 203.496 203.018 203.496C202.561 203.496 202.113 203.398 201.676 203.203C201.238 203.008 200.904 202.74 200.674 202.4L201.236 201.75C201.701 202.324 202.27 202.611 202.941 202.611C203.469 202.611 203.879 202.463 204.172 202.166C204.469 201.869 204.617 201.451 204.617 200.912V200.367C204.184 200.867 203.592 201.117 202.842 201.117C202.1 201.117 201.498 200.818 201.037 200.22C200.58 199.623 200.352 198.808 200.352 197.777ZM201.441 197.9C201.441 198.615 201.588 199.177 201.881 199.588C202.174 199.994 202.584 200.197 203.111 200.197C203.795 200.197 204.297 199.886 204.617 199.265V196.371C204.285 195.765 203.787 195.463 203.123 195.463C202.596 195.463 202.184 195.668 201.887 196.078C201.59 196.488 201.441 197.095 201.441 197.9ZM208.432 195.427C208.912 194.838 209.537 194.543 210.307 194.543C211.646 194.543 212.322 195.299 212.334 196.81V201H211.25V196.804C211.246 196.347 211.141 196.01 210.934 195.791C210.73 195.572 210.412 195.463 209.979 195.463C209.627 195.463 209.318 195.556 209.053 195.744C208.787 195.931 208.58 196.177 208.432 196.482V201H207.348V192H208.432V195.427ZM215.428 193.125V194.66H216.611V195.498H215.428V199.429C215.428 199.683 215.48 199.875 215.586 200.004C215.691 200.129 215.871 200.191 216.125 200.191C216.25 200.191 216.422 200.168 216.641 200.121V201C216.355 201.078 216.078 201.117 215.809 201.117C215.324 201.117 214.959 200.97 214.713 200.677C214.467 200.385 214.344 199.969 214.344 199.429V195.498H213.189V194.66H214.344V193.125H215.428Z" fill="#1B5FE1"/>
<path d="M465.742 443V434.469H468.531C469.457 434.469 470.152 434.66 470.617 435.043C471.086 435.426 471.32 435.992 471.32 436.742C471.32 437.141 471.207 437.494 470.98 437.803C470.754 438.107 470.445 438.344 470.055 438.512C470.516 438.641 470.879 438.887 471.145 439.25C471.414 439.609 471.549 440.039 471.549 440.539C471.549 441.305 471.301 441.906 470.805 442.344C470.309 442.781 469.607 443 468.701 443H465.742ZM466.867 439.01V442.08H468.725C469.248 442.08 469.66 441.945 469.961 441.676C470.266 441.402 470.418 441.027 470.418 440.551C470.418 439.523 469.859 439.01 468.742 439.01H466.867ZM466.867 438.107H468.566C469.059 438.107 469.451 437.984 469.744 437.738C470.041 437.492 470.189 437.158 470.189 436.736C470.189 436.268 470.053 435.928 469.779 435.717C469.506 435.502 469.09 435.395 468.531 435.395H466.867V438.107ZM476.963 443C476.9 442.875 476.85 442.652 476.811 442.332C476.307 442.855 475.705 443.117 475.006 443.117C474.381 443.117 473.867 442.941 473.465 442.59C473.066 442.234 472.867 441.785 472.867 441.242C472.867 440.582 473.117 440.07 473.617 439.707C474.121 439.34 474.828 439.156 475.738 439.156H476.793V438.658C476.793 438.279 476.68 437.979 476.453 437.756C476.227 437.529 475.893 437.416 475.451 437.416C475.064 437.416 474.74 437.514 474.479 437.709C474.217 437.904 474.086 438.141 474.086 438.418H472.996C472.996 438.102 473.107 437.797 473.33 437.504C473.557 437.207 473.861 436.973 474.244 436.801C474.631 436.629 475.055 436.543 475.516 436.543C476.246 436.543 476.818 436.727 477.232 437.094C477.646 437.457 477.861 437.959 477.877 438.6V441.518C477.877 442.1 477.951 442.562 478.1 442.906V443H476.963ZM475.164 442.174C475.504 442.174 475.826 442.086 476.131 441.91C476.436 441.734 476.656 441.506 476.793 441.225V439.924H475.943C474.615 439.924 473.951 440.312 473.951 441.09C473.951 441.43 474.064 441.695 474.291 441.887C474.518 442.078 474.809 442.174 475.164 442.174ZM483.268 441.318C483.268 441.025 483.156 440.799 482.934 440.639C482.715 440.475 482.33 440.334 481.779 440.217C481.232 440.1 480.797 439.959 480.473 439.795C480.152 439.631 479.914 439.436 479.758 439.209C479.605 438.982 479.529 438.713 479.529 438.4C479.529 437.881 479.748 437.441 480.186 437.082C480.627 436.723 481.189 436.543 481.873 436.543C482.592 436.543 483.174 436.729 483.619 437.1C484.068 437.471 484.293 437.945 484.293 438.523H483.203C483.203 438.227 483.076 437.971 482.822 437.756C482.572 437.541 482.256 437.434 481.873 437.434C481.479 437.434 481.17 437.52 480.947 437.691C480.725 437.863 480.613 438.088 480.613 438.365C480.613 438.627 480.717 438.824 480.924 438.957C481.131 439.09 481.504 439.217 482.043 439.338C482.586 439.459 483.025 439.604 483.361 439.771C483.697 439.939 483.945 440.143 484.105 440.381C484.27 440.615 484.352 440.902 484.352 441.242C484.352 441.809 484.125 442.264 483.672 442.607C483.219 442.947 482.631 443.117 481.908 443.117C481.4 443.117 480.951 443.027 480.561 442.848C480.17 442.668 479.863 442.418 479.641 442.098C479.422 441.773 479.312 441.424 479.312 441.049H480.396C480.416 441.412 480.561 441.701 480.83 441.916C481.104 442.127 481.463 442.232 481.908 442.232C482.318 442.232 482.646 442.15 482.893 441.986C483.143 441.818 483.268 441.596 483.268 441.318ZM488.395 443.117C487.535 443.117 486.836 442.836 486.297 442.273C485.758 441.707 485.488 440.951 485.488 440.006V439.807C485.488 439.178 485.607 438.617 485.846 438.125C486.088 437.629 486.424 437.242 486.854 436.965C487.287 436.684 487.756 436.543 488.26 436.543C489.084 436.543 489.725 436.814 490.182 437.357C490.639 437.9 490.867 438.678 490.867 439.689V440.141H486.572C486.588 440.766 486.77 441.271 487.117 441.658C487.469 442.041 487.914 442.232 488.453 442.232C488.836 442.232 489.16 442.154 489.426 441.998C489.691 441.842 489.924 441.635 490.123 441.377L490.785 441.893C490.254 442.709 489.457 443.117 488.395 443.117ZM488.26 437.434C487.822 437.434 487.455 437.594 487.158 437.914C486.861 438.23 486.678 438.676 486.607 439.25H489.783V439.168C489.752 438.617 489.604 438.191 489.338 437.891C489.072 437.586 488.713 437.434 488.26 437.434ZM493.305 443H492.221V434H493.305V443ZM496.223 443H495.139V436.66H496.223V443ZM495.051 434.979C495.051 434.803 495.104 434.654 495.209 434.533C495.318 434.412 495.479 434.352 495.689 434.352C495.9 434.352 496.061 434.412 496.17 434.533C496.279 434.654 496.334 434.803 496.334 434.979C496.334 435.154 496.279 435.301 496.17 435.418C496.061 435.535 495.9 435.594 495.689 435.594C495.479 435.594 495.318 435.535 495.209 435.418C495.104 435.301 495.051 435.154 495.051 434.979ZM498.988 436.66L499.023 437.457C499.508 436.848 500.141 436.543 500.922 436.543C502.262 436.543 502.938 437.299 502.949 438.811V443H501.865V438.805C501.861 438.348 501.756 438.01 501.549 437.791C501.346 437.572 501.027 437.463 500.594 437.463C500.242 437.463 499.934 437.557 499.668 437.744C499.402 437.932 499.195 438.178 499.047 438.482V443H497.963V436.66H498.988ZM507.215 443.117C506.355 443.117 505.656 442.836 505.117 442.273C504.578 441.707 504.309 440.951 504.309 440.006V439.807C504.309 439.178 504.428 438.617 504.666 438.125C504.908 437.629 505.244 437.242 505.674 436.965C506.107 436.684 506.576 436.543 507.08 436.543C507.904 436.543 508.545 436.814 509.002 437.357C509.459 437.9 509.688 438.678 509.688 439.689V440.141H505.393C505.408 440.766 505.59 441.271 505.938 441.658C506.289 442.041 506.734 442.232 507.273 442.232C507.656 442.232 507.98 442.154 508.246 441.998C508.512 441.842 508.744 441.635 508.943 441.377L509.605 441.893C509.074 442.709 508.277 443.117 507.215 443.117ZM507.08 437.434C506.643 437.434 506.275 437.594 505.979 437.914C505.682 438.23 505.498 438.676 505.428 439.25H508.604V439.168C508.572 438.617 508.424 438.191 508.158 437.891C507.893 437.586 507.533 437.434 507.08 437.434Z" fill="#1B5FE1"/>
<mask id="path-9-inside-1_251_2" fill="white">
<path fill-rule="evenodd" clip-rule="evenodd" d="M-68.1561 408.427L0.385148 408.427C17.603 409.414 52.0388 400.532 52.0388 357.105C52.0388 313.678 17.603 304.795 0.38516 305.782L-13.5217 305.782L-13.5217 265.316L0.385162 265.316C31.1787 265.974 92.7657 285.253 92.7657 357.105C92.7657 428.956 32.5031 446.919 2.37183 446.919L-68.1561 446.919L-100.936 446.919L-103.916 446.919L-103.916 79.7658L-100.693 79.7658L-100.693 79.5516L92.6855 79.5515L92.6855 116.981L-68.1561 116.981L-68.1561 408.427ZM92.7656 188.333L54.334 188.333L-12.9346 188.333L-12.9356 225.837L0.384172 225.837L54.334 225.837L92.7656 225.837L92.7656 188.333Z"/>
</mask>
<path fill-rule="evenodd" clip-rule="evenodd" d="M-68.1561 408.427L0.385148 408.427C17.603 409.414 52.0388 400.532 52.0388 357.105C52.0388 313.678 17.603 304.795 0.38516 305.782L-13.5217 305.782L-13.5217 265.316L0.385162 265.316C31.1787 265.974 92.7657 285.253 92.7657 357.105C92.7657 428.956 32.5031 446.919 2.37183 446.919L-68.1561 446.919L-100.936 446.919L-103.916 446.919L-103.916 79.7658L-100.693 79.7658L-100.693 79.5516L92.6855 79.5515L92.6855 116.981L-68.1561 116.981L-68.1561 408.427ZM92.7656 188.333L54.334 188.333L-12.9346 188.333L-12.9356 225.837L0.384172 225.837L54.334 225.837L92.7656 225.837L92.7656 188.333Z" fill="#EFEFEF"/>
<path d="M0.385051 408.427L0.499508 406.431L0.442326 406.427L0.385051 406.427L0.385051 408.427ZM-68.1562 408.427L-70.1562 408.427L-70.1562 410.427L-68.1562 410.427L-68.1562 408.427ZM52.0387 357.105L50.0387 357.105L50.0387 357.105L52.0387 357.105ZM0.385063 305.782L0.385063 307.782L0.442338 307.782L0.49952 307.779L0.385063 305.782ZM-13.5218 305.782L-15.5218 305.782L-15.5218 307.782L-13.5218 307.782L-13.5218 305.782ZM-13.5217 265.316L-13.5217 263.316L-15.5217 263.316L-15.5217 265.316L-13.5217 265.316ZM0.385065 265.316L0.42779 263.317L0.40643 263.316L0.385065 263.316L0.385065 265.316ZM92.7656 357.105L94.7656 357.105L92.7656 357.105ZM-103.916 446.919L-105.916 446.919L-105.916 448.919L-103.916 448.919L-103.916 446.919ZM-103.916 79.7658L-103.916 77.7658L-105.916 77.7658L-105.916 79.7658L-103.916 79.7658ZM-100.693 79.7658L-100.693 81.7658L-98.6927 81.7658L-98.6927 79.7658L-100.693 79.7658ZM-100.693 79.5516L-100.693 77.5516L-102.693 77.5516L-102.693 79.5516L-100.693 79.5516ZM92.6854 79.5515L94.6854 79.5515L94.6854 77.5515L92.6854 77.5515L92.6854 79.5515ZM92.6854 116.981L92.6854 118.981L94.6854 118.981L94.6854 116.981L92.6854 116.981ZM-68.1562 116.981L-68.1562 114.981L-70.1562 114.981L-70.1562 116.981L-68.1562 116.981ZM54.3339 188.332L54.3339 186.332L54.3339 186.332L54.3339 188.332ZM92.7655 188.333L94.7655 188.333L94.7655 186.333L92.7655 186.333L92.7655 188.333ZM-12.9347 188.333L-12.9347 186.333L-14.9347 186.333L-14.9347 188.332L-12.9347 188.333ZM-12.9357 225.837L-14.9357 225.837L-14.9357 227.837L-12.9357 227.837L-12.9357 225.837ZM0.384075 225.837L0.384065 227.837L0.384077 227.837L0.384075 225.837ZM54.3339 225.837L54.3339 223.837L54.3339 223.837L54.3339 225.837ZM92.7655 225.837L92.7655 227.837L94.7654 227.837L94.7655 225.837L92.7655 225.837ZM0.385051 406.427L-68.1562 406.427L-68.1562 410.427L0.385051 410.427L0.385051 406.427ZM50.0387 357.105C50.0387 378.203 41.718 390.652 31.5224 397.782C21.2128 404.992 8.77349 406.905 0.499508 406.431L0.270594 410.424C9.2145 410.937 22.602 408.902 33.8148 401.06C45.1416 393.139 54.0387 379.433 54.0387 357.105L50.0387 357.105ZM0.49952 307.779C8.7735 307.305 21.2128 309.217 31.5224 316.427C41.718 323.557 50.0387 336.006 50.0387 357.105L54.0387 357.105C54.0387 334.777 45.1416 321.071 33.8148 313.149C22.6021 305.308 9.21451 303.273 0.270606 303.786L0.49952 307.779ZM-13.5218 307.782L0.385063 307.782L0.385063 303.782L-13.5218 303.782L-13.5218 307.782ZM-15.5217 265.316L-15.5218 305.782L-11.5218 305.782L-11.5217 265.316L-15.5217 265.316ZM0.385065 263.316L-13.5217 263.316L-13.5217 267.316L0.385065 267.316L0.385065 263.316ZM94.7656 357.105C94.7656 320.506 79.0349 297.132 59.293 282.891C39.6485 268.72 16.1345 263.652 0.42779 263.317L0.34234 267.316C15.4291 267.638 38.1054 272.539 56.9528 286.135C75.7028 299.661 90.7656 321.852 90.7656 357.105L94.7656 357.105ZM2.37173 448.919C17.7548 448.919 40.787 444.35 60.0316 430.583C79.3788 416.742 94.7656 393.688 94.7656 357.105L90.7656 357.105C90.7656 392.373 76.0211 414.226 57.7042 427.33C39.2847 440.507 17.1199 444.919 2.37173 444.919L2.37173 448.919ZM-68.1562 448.919L2.37173 448.919L2.37173 444.919L-68.1562 444.919L-68.1562 448.919ZM-100.936 448.919L-68.1562 448.919L-68.1562 444.919L-100.936 444.919L-100.936 448.919ZM-103.916 448.919L-100.936 448.919L-100.936 444.919L-103.916 444.919L-103.916 448.919ZM-105.916 79.7658L-105.916 446.919L-101.916 446.919L-101.916 79.7658L-105.916 79.7658ZM-100.693 77.7658L-103.916 77.7658L-103.916 81.7658L-100.693 81.7658L-100.693 77.7658ZM-102.693 79.5516L-102.693 79.7658L-98.6927 79.7658L-98.6927 79.5516L-102.693 79.5516ZM92.6854 77.5515L-100.693 77.5516L-100.693 81.5516L92.6854 81.5515L92.6854 77.5515ZM94.6854 116.981L94.6854 79.5515L90.6854 79.5515L90.6854 116.981L94.6854 116.981ZM-68.1562 118.981L92.6854 118.981L92.6854 114.981L-68.1562 114.981L-68.1562 118.981ZM-66.1562 408.427L-66.1562 116.981L-70.1562 116.981L-70.1562 408.427L-66.1562 408.427ZM54.3339 190.332L92.7655 190.333L92.7655 186.333L54.3339 186.332L54.3339 190.332ZM-12.9347 190.333L54.3339 190.332L54.3339 186.332L-12.9347 186.333L-12.9347 190.333ZM-10.9357 225.837L-10.9347 188.333L-14.9347 188.332L-14.9357 225.837L-10.9357 225.837ZM0.384084 223.837L-12.9356 223.837L-12.9357 227.837L0.384065 227.837L0.384084 223.837ZM54.3339 223.837L0.384072 223.837L0.384077 227.837L54.3339 227.837L54.3339 223.837ZM92.7655 223.837L54.3339 223.837L54.3339 227.837L92.7655 227.837L92.7655 223.837ZM90.7655 188.333L90.7655 225.837L94.7655 225.837L94.7655 188.333L90.7655 188.333Z" fill="#181818" mask="url(#path-9-inside-1_251_2)"/>
<path d="M467.195 215.469L469.984 222.43L472.773 215.469H474.232V224H473.107V220.678L473.213 217.092L470.412 224H469.551L466.756 217.109L466.867 220.678V224H465.742V215.469H467.195ZM478.68 224.117C477.82 224.117 477.121 223.836 476.582 223.273C476.043 222.707 475.773 221.951 475.773 221.006V220.807C475.773 220.178 475.893 219.617 476.131 219.125C476.373 218.629 476.709 218.242 477.139 217.965C477.572 217.684 478.041 217.543 478.545 217.543C479.369 217.543 480.01 217.814 480.467 218.357C480.924 218.9 481.152 219.678 481.152 220.689V221.141H476.857C476.873 221.766 477.055 222.271 477.402 222.658C477.754 223.041 478.199 223.232 478.738 223.232C479.121 223.232 479.445 223.154 479.711 222.998C479.977 222.842 480.209 222.635 480.408 222.377L481.07 222.893C480.539 223.709 479.742 224.117 478.68 224.117ZM478.545 218.434C478.107 218.434 477.74 218.594 477.443 218.914C477.146 219.23 476.963 219.676 476.893 220.25H480.068V220.168C480.037 219.617 479.889 219.191 479.623 218.891C479.357 218.586 478.998 218.434 478.545 218.434ZM482.148 220.777C482.148 219.805 482.379 219.023 482.84 218.434C483.301 217.84 483.904 217.543 484.65 217.543C485.393 217.543 485.98 217.797 486.414 218.305V215H487.498V224H486.502L486.449 223.32C486.016 223.852 485.412 224.117 484.639 224.117C483.904 224.117 483.305 223.816 482.84 223.215C482.379 222.613 482.148 221.828 482.148 220.859V220.777ZM483.232 220.9C483.232 221.619 483.381 222.182 483.678 222.588C483.975 222.994 484.385 223.197 484.908 223.197C485.596 223.197 486.098 222.889 486.414 222.271V219.359C486.09 218.762 485.592 218.463 484.92 218.463C484.389 218.463 483.975 218.668 483.678 219.078C483.381 219.488 483.232 220.096 483.232 220.9ZM490.363 224H489.279V217.66H490.363V224ZM489.191 215.979C489.191 215.803 489.244 215.654 489.35 215.533C489.459 215.412 489.619 215.352 489.83 215.352C490.041 215.352 490.201 215.412 490.311 215.533C490.42 215.654 490.475 215.803 490.475 215.979C490.475 216.154 490.42 216.301 490.311 216.418C490.201 216.535 490.041 216.594 489.83 216.594C489.619 216.594 489.459 216.535 489.35 216.418C489.244 216.301 489.191 216.154 489.191 215.979ZM496.018 224C495.955 223.875 495.904 223.652 495.865 223.332C495.361 223.855 494.76 224.117 494.061 224.117C493.436 224.117 492.922 223.941 492.52 223.59C492.121 223.234 491.922 222.785 491.922 222.242C491.922 221.582 492.172 221.07 492.672 220.707C493.176 220.34 493.883 220.156 494.793 220.156H495.848V219.658C495.848 219.279 495.734 218.979 495.508 218.756C495.281 218.529 494.947 218.416 494.506 218.416C494.119 218.416 493.795 218.514 493.533 218.709C493.271 218.904 493.141 219.141 493.141 219.418H492.051C492.051 219.102 492.162 218.797 492.385 218.504C492.611 218.207 492.916 217.973 493.299 217.801C493.686 217.629 494.109 217.543 494.57 217.543C495.301 217.543 495.873 217.727 496.287 218.094C496.701 218.457 496.916 218.959 496.932 219.6V222.518C496.932 223.1 497.006 223.562 497.154 223.906V224H496.018ZM494.219 223.174C494.559 223.174 494.881 223.086 495.186 222.91C495.49 222.734 495.711 222.506 495.848 222.225V220.924H494.998C493.67 220.924 493.006 221.312 493.006 222.09C493.006 222.43 493.119 222.695 493.346 222.887C493.572 223.078 493.863 223.174 494.219 223.174ZM499.656 217.66L499.691 218.457C500.176 217.848 500.809 217.543 501.59 217.543C502.93 217.543 503.605 218.299 503.617 219.811V224H502.533V219.805C502.529 219.348 502.424 219.01 502.217 218.791C502.014 218.572 501.695 218.463 501.262 218.463C500.91 218.463 500.602 218.557 500.336 218.744C500.07 218.932 499.863 219.178 499.715 219.482V224H498.631V217.66H499.656Z" fill="#1B5FE1"/>
<path d="M121.764 247.458V250.798H120.639V242.267H123.785C124.719 242.267 125.449 242.505 125.977 242.981C126.508 243.458 126.773 244.089 126.773 244.874C126.773 245.702 126.514 246.341 125.994 246.79C125.479 247.235 124.738 247.458 123.773 247.458H121.764ZM121.764 246.538H123.785C124.387 246.538 124.848 246.397 125.168 246.116C125.488 245.831 125.648 245.421 125.648 244.886C125.648 244.378 125.488 243.972 125.168 243.667C124.848 243.362 124.408 243.204 123.85 243.192H121.764V246.538ZM131.883 250.798C131.82 250.673 131.77 250.45 131.73 250.13C131.227 250.653 130.625 250.915 129.926 250.915C129.301 250.915 128.787 250.739 128.385 250.388C127.986 250.032 127.787 249.583 127.787 249.04C127.787 248.38 128.037 247.868 128.537 247.505C129.041 247.138 129.748 246.954 130.658 246.954H131.713V246.456C131.713 246.077 131.6 245.776 131.373 245.554C131.146 245.327 130.812 245.214 130.371 245.214C129.984 245.214 129.66 245.312 129.398 245.507C129.137 245.702 129.006 245.938 129.006 246.216H127.916C127.916 245.899 128.027 245.595 128.25 245.302C128.477 245.005 128.781 244.771 129.164 244.599C129.551 244.427 129.975 244.341 130.436 244.341C131.166 244.341 131.738 244.524 132.152 244.892C132.566 245.255 132.781 245.757 132.797 246.397V249.315C132.797 249.897 132.871 250.36 133.02 250.704V250.798H131.883ZM130.084 249.972C130.424 249.972 130.746 249.884 131.051 249.708C131.355 249.532 131.576 249.304 131.713 249.022V247.722H130.863C129.535 247.722 128.871 248.11 128.871 248.888C128.871 249.228 128.984 249.493 129.211 249.685C129.438 249.876 129.729 249.972 130.084 249.972ZM135.674 250.798H134.59V241.798H135.674V250.798ZM138.434 244.458L138.463 245.161C138.928 244.614 139.555 244.341 140.344 244.341C141.23 244.341 141.834 244.681 142.154 245.36C142.365 245.056 142.639 244.81 142.975 244.622C143.314 244.435 143.715 244.341 144.176 244.341C145.566 244.341 146.273 245.077 146.297 246.55V250.798H145.213V246.614C145.213 246.161 145.109 245.823 144.902 245.601C144.695 245.374 144.348 245.261 143.859 245.261C143.457 245.261 143.123 245.382 142.857 245.624C142.592 245.862 142.438 246.185 142.395 246.591V250.798H141.305V246.644C141.305 245.722 140.854 245.261 139.951 245.261C139.24 245.261 138.754 245.563 138.492 246.169V250.798H137.408V244.458H138.434Z" fill="#1B5FE1"/>
<path d="M622.156 89.3849C622.156 89.2468 622.044 89.1349 621.906 89.1349L619.656 89.1349C619.518 89.1349 619.406 89.2468 619.406 89.3849C619.406 89.523 619.518 89.6349 619.656 89.6349L621.656 89.6349L621.656 91.6349C621.656 91.773 621.768 91.8849 621.906 91.8849C622.044 91.8849 622.156 91.773 622.156 91.6349L622.156 89.3849ZM579.468 132.177L622.083 89.5617L621.729 89.2081L579.114 131.823L579.468 132.177Z" fill="#1B5FE1"/>
<path d="M547.494 123.767V132.298H546.363V123.767H547.494ZM550.471 127.312V132.298H549.387V125.958H550.412L550.471 127.312ZM550.213 128.888L549.762 128.87C549.766 128.437 549.83 128.036 549.955 127.669C550.08 127.298 550.256 126.976 550.482 126.702C550.709 126.429 550.979 126.218 551.291 126.069C551.607 125.917 551.957 125.841 552.34 125.841C552.652 125.841 552.934 125.884 553.184 125.97C553.434 126.052 553.646 126.185 553.822 126.368C554.002 126.552 554.139 126.79 554.232 127.083C554.326 127.372 554.373 127.726 554.373 128.144V132.298H553.283V128.132C553.283 127.8 553.234 127.534 553.137 127.335C553.039 127.132 552.896 126.985 552.709 126.896C552.521 126.802 552.291 126.755 552.018 126.755C551.748 126.755 551.502 126.812 551.279 126.925C551.061 127.038 550.871 127.194 550.711 127.394C550.555 127.593 550.432 127.821 550.342 128.079C550.256 128.333 550.213 128.603 550.213 128.888ZM560.016 131.067V123.298H561.105V132.298H560.109L560.016 131.067ZM555.75 129.198V129.075C555.75 128.591 555.809 128.151 555.926 127.757C556.047 127.358 556.217 127.017 556.436 126.731C556.658 126.446 556.922 126.228 557.227 126.075C557.535 125.919 557.879 125.841 558.258 125.841C558.656 125.841 559.004 125.911 559.301 126.052C559.602 126.188 559.855 126.39 560.062 126.655C560.273 126.917 560.439 127.233 560.561 127.604C560.682 127.976 560.766 128.396 560.812 128.864V129.403C560.77 129.868 560.686 130.286 560.561 130.657C560.439 131.028 560.273 131.345 560.062 131.606C559.855 131.868 559.602 132.069 559.301 132.21C559 132.347 558.648 132.415 558.246 132.415C557.875 132.415 557.535 132.335 557.227 132.175C556.922 132.015 556.658 131.79 556.436 131.501C556.217 131.212 556.047 130.872 555.926 130.481C555.809 130.087 555.75 129.659 555.75 129.198ZM556.84 129.075V129.198C556.84 129.515 556.871 129.812 556.934 130.089C557 130.366 557.102 130.61 557.238 130.821C557.375 131.032 557.549 131.198 557.76 131.319C557.971 131.437 558.223 131.495 558.516 131.495C558.875 131.495 559.17 131.419 559.4 131.267C559.635 131.114 559.822 130.913 559.963 130.663C560.104 130.413 560.213 130.142 560.291 129.849V128.437C560.244 128.222 560.176 128.015 560.086 127.815C560 127.612 559.887 127.433 559.746 127.276C559.609 127.116 559.439 126.989 559.236 126.896C559.037 126.802 558.801 126.755 558.527 126.755C558.23 126.755 557.975 126.817 557.76 126.942C557.549 127.063 557.375 127.231 557.238 127.446C557.102 127.657 557 127.903 556.934 128.185C556.871 128.462 556.84 128.759 556.84 129.075ZM565.424 132.415C564.982 132.415 564.582 132.341 564.223 132.192C563.867 132.04 563.561 131.827 563.303 131.554C563.049 131.28 562.854 130.956 562.717 130.581C562.58 130.206 562.512 129.796 562.512 129.351V129.104C562.512 128.589 562.588 128.13 562.74 127.728C562.893 127.321 563.1 126.978 563.361 126.696C563.623 126.415 563.92 126.202 564.252 126.058C564.584 125.913 564.928 125.841 565.283 125.841C565.736 125.841 566.127 125.919 566.455 126.075C566.787 126.231 567.059 126.45 567.27 126.731C567.48 127.009 567.637 127.337 567.738 127.716C567.84 128.091 567.891 128.501 567.891 128.946V129.433H563.156V128.548H566.807V128.466C566.791 128.185 566.732 127.911 566.631 127.646C566.533 127.38 566.377 127.161 566.162 126.989C565.947 126.817 565.654 126.731 565.283 126.731C565.037 126.731 564.811 126.784 564.604 126.89C564.396 126.991 564.219 127.144 564.07 127.347C563.922 127.55 563.807 127.798 563.725 128.091C563.643 128.384 563.602 128.722 563.602 129.104V129.351C563.602 129.651 563.643 129.935 563.725 130.2C563.811 130.462 563.934 130.692 564.094 130.892C564.258 131.091 564.455 131.247 564.686 131.36C564.92 131.474 565.186 131.53 565.482 131.53C565.865 131.53 566.189 131.452 566.455 131.296C566.721 131.14 566.953 130.931 567.152 130.669L567.809 131.19C567.672 131.397 567.498 131.595 567.287 131.782C567.076 131.97 566.816 132.122 566.508 132.239C566.203 132.356 565.842 132.415 565.424 132.415ZM569.889 125.958L571.277 128.267L572.684 125.958H573.955L571.881 129.087L574.02 132.298H572.766L571.301 129.919L569.836 132.298H568.576L570.709 129.087L568.641 125.958H569.889ZM547.412 137.767V146.298H546.281V137.767H547.412ZM550.986 141.604V142.53H547.166V141.604H550.986ZM551.566 137.767V138.692H547.166V137.767H551.566ZM553.928 139.958V146.298H552.838V139.958H553.928ZM552.756 138.276C552.756 138.101 552.809 137.952 552.914 137.831C553.023 137.71 553.184 137.649 553.395 137.649C553.602 137.649 553.76 137.71 553.869 137.831C553.982 137.952 554.039 138.101 554.039 138.276C554.039 138.444 553.982 138.589 553.869 138.71C553.76 138.827 553.602 138.886 553.395 138.886C553.184 138.886 553.023 138.827 552.914 138.71C552.809 138.589 552.756 138.444 552.756 138.276ZM556.752 141.312V146.298H555.668V139.958H556.693L556.752 141.312ZM556.494 142.888L556.043 142.87C556.047 142.437 556.111 142.036 556.236 141.669C556.361 141.298 556.537 140.976 556.764 140.702C556.99 140.429 557.26 140.218 557.572 140.069C557.889 139.917 558.238 139.841 558.621 139.841C558.934 139.841 559.215 139.884 559.465 139.97C559.715 140.052 559.928 140.185 560.104 140.368C560.283 140.552 560.42 140.79 560.514 141.083C560.607 141.372 560.654 141.726 560.654 142.144V146.298H559.564V142.132C559.564 141.8 559.516 141.534 559.418 141.335C559.32 141.132 559.178 140.985 558.99 140.896C558.803 140.802 558.572 140.755 558.299 140.755C558.029 140.755 557.783 140.812 557.561 140.925C557.342 141.038 557.152 141.194 556.992 141.394C556.836 141.593 556.713 141.821 556.623 142.079C556.537 142.333 556.494 142.603 556.494 142.888ZM566.408 139.958H567.393V146.163C567.393 146.722 567.279 147.198 567.053 147.593C566.826 147.987 566.51 148.286 566.104 148.489C565.701 148.696 565.236 148.8 564.709 148.8C564.49 148.8 564.232 148.765 563.936 148.694C563.643 148.628 563.354 148.513 563.068 148.349C562.787 148.188 562.551 147.972 562.359 147.698L562.928 147.054C563.193 147.374 563.471 147.597 563.76 147.722C564.053 147.847 564.342 147.909 564.627 147.909C564.971 147.909 565.268 147.845 565.518 147.716C565.768 147.587 565.961 147.396 566.098 147.142C566.238 146.892 566.309 146.583 566.309 146.216V141.353L566.408 139.958ZM562.043 143.198V143.075C562.043 142.591 562.1 142.151 562.213 141.757C562.33 141.358 562.496 141.017 562.711 140.731C562.93 140.446 563.193 140.228 563.502 140.075C563.811 139.919 564.158 139.841 564.545 139.841C564.943 139.841 565.291 139.911 565.588 140.052C565.889 140.188 566.143 140.39 566.35 140.655C566.561 140.917 566.727 141.233 566.848 141.604C566.969 141.976 567.053 142.396 567.1 142.864V143.403C567.057 143.868 566.973 144.286 566.848 144.657C566.727 145.028 566.561 145.345 566.35 145.606C566.143 145.868 565.889 146.069 565.588 146.21C565.287 146.347 564.936 146.415 564.533 146.415C564.154 146.415 563.811 146.335 563.502 146.175C563.197 146.015 562.936 145.79 562.717 145.501C562.498 145.212 562.33 144.872 562.213 144.481C562.1 144.087 562.043 143.659 562.043 143.198ZM563.127 143.075V143.198C563.127 143.515 563.158 143.812 563.221 144.089C563.287 144.366 563.387 144.61 563.52 144.821C563.656 145.032 563.83 145.198 564.041 145.319C564.252 145.437 564.504 145.495 564.797 145.495C565.156 145.495 565.453 145.419 565.688 145.267C565.922 145.114 566.107 144.913 566.244 144.663C566.385 144.413 566.494 144.142 566.572 143.849V142.437C566.529 142.222 566.463 142.015 566.373 141.815C566.287 141.612 566.174 141.433 566.033 141.276C565.896 141.116 565.727 140.989 565.523 140.896C565.32 140.802 565.082 140.755 564.809 140.755C564.512 140.755 564.256 140.817 564.041 140.942C563.83 141.063 563.656 141.231 563.52 141.446C563.387 141.657 563.287 141.903 563.221 142.185C563.158 142.462 563.127 142.759 563.127 143.075ZM571.67 146.415C571.229 146.415 570.828 146.341 570.469 146.192C570.113 146.04 569.807 145.827 569.549 145.554C569.295 145.28 569.1 144.956 568.963 144.581C568.826 144.206 568.758 143.796 568.758 143.351V143.104C568.758 142.589 568.834 142.13 568.986 141.728C569.139 141.321 569.346 140.978 569.607 140.696C569.869 140.415 570.166 140.202 570.498 140.058C570.83 139.913 571.174 139.841 571.529 139.841C571.982 139.841 572.373 139.919 572.701 140.075C573.033 140.231 573.305 140.45 573.516 140.731C573.727 141.009 573.883 141.337 573.984 141.716C574.086 142.091 574.137 142.501 574.137 142.946V143.433H569.402V142.548H573.053V142.466C573.037 142.185 572.979 141.911 572.877 141.646C572.779 141.38 572.623 141.161 572.408 140.989C572.193 140.817 571.9 140.731 571.529 140.731C571.283 140.731 571.057 140.784 570.85 140.89C570.643 140.991 570.465 141.144 570.316 141.347C570.168 141.55 570.053 141.798 569.971 142.091C569.889 142.384 569.848 142.722 569.848 143.104V143.351C569.848 143.651 569.889 143.935 569.971 144.2C570.057 144.462 570.18 144.692 570.34 144.892C570.504 145.091 570.701 145.247 570.932 145.36C571.166 145.474 571.432 145.53 571.729 145.53C572.111 145.53 572.436 145.452 572.701 145.296C572.967 145.14 573.199 144.931 573.398 144.669L574.055 145.19C573.918 145.397 573.744 145.595 573.533 145.782C573.322 145.97 573.062 146.122 572.754 146.239C572.449 146.356 572.088 146.415 571.67 146.415ZM576.486 140.954V146.298H575.402V139.958H576.457L576.486 140.954ZM578.467 139.923L578.461 140.931C578.371 140.911 578.285 140.899 578.203 140.896C578.125 140.888 578.035 140.884 577.934 140.884C577.684 140.884 577.463 140.923 577.271 141.001C577.08 141.079 576.918 141.188 576.785 141.329C576.652 141.47 576.547 141.638 576.469 141.833C576.395 142.024 576.346 142.235 576.322 142.466L576.018 142.642C576.018 142.259 576.055 141.899 576.129 141.563C576.207 141.228 576.326 140.931 576.486 140.673C576.646 140.411 576.85 140.208 577.096 140.063C577.346 139.915 577.643 139.841 577.986 139.841C578.064 139.841 578.154 139.851 578.256 139.87C578.357 139.886 578.428 139.903 578.467 139.923Z" fill="#1B5FE1"/>
<path d="M401.809 61H402.866V57.8125H404.775C406.807 57.8125 407.724 56.5767 407.724 55.0341C407.724 53.4915 406.807 52.2727 404.758 52.2727H401.809V61ZM402.866 56.875V53.2102H404.724C406.143 53.2102 406.684 53.9858 406.684 55.0341C406.684 56.0824 406.143 56.875 404.741 56.875H402.866ZM410.775 57.0625C410.775 55.9205 411.504 55.2727 412.497 55.2727C413.443 55.2727 414.014 55.8693 414.014 56.9091V61H415.02V56.8409C415.02 55.1577 414.125 54.3693 412.787 54.3693C411.755 54.3693 411.167 54.7997 410.861 55.4773H410.775V52.2727H409.77V61H410.775V57.0625ZM419.999 61.1364C421.771 61.1364 422.964 59.7898 422.964 57.7614C422.964 55.7159 421.771 54.3693 419.999 54.3693C418.226 54.3693 417.033 55.7159 417.033 57.7614C417.033 59.7898 418.226 61.1364 419.999 61.1364ZM419.999 60.233C418.652 60.233 418.038 59.0739 418.038 57.7614C418.038 56.4489 418.652 55.2727 419.999 55.2727C421.345 55.2727 421.959 56.4489 421.959 57.7614C421.959 59.0739 421.345 60.233 419.999 60.233ZM425.985 57.0625C425.985 55.9205 426.693 55.2727 427.656 55.2727C428.589 55.2727 429.156 55.8821 429.156 56.9091V61H430.161V56.8409C430.161 55.1705 429.271 54.3693 427.946 54.3693C426.957 54.3693 426.343 54.8125 426.036 55.4773H425.951V54.4545H424.98V61H425.985V57.0625ZM435.223 61.1364C436.553 61.1364 437.525 60.4716 437.831 59.483L436.86 59.2102C436.604 59.892 436.012 60.233 435.223 60.233C434.043 60.233 433.229 59.4702 433.182 58.0682H437.934V57.642C437.934 55.2045 436.485 54.3693 435.121 54.3693C433.348 54.3693 432.172 55.767 432.172 57.7784C432.172 59.7898 433.331 61.1364 435.223 61.1364ZM433.182 57.1989C433.25 56.1804 433.971 55.2727 435.121 55.2727C436.212 55.2727 436.911 56.0909 436.911 57.1989H433.182ZM442.79 54.4545H441.392V52.8864H440.387V54.4545H439.398V55.3068H440.387V59.3977C440.387 60.5398 441.307 61.0852 442.159 61.0852C442.534 61.0852 442.773 61.017 442.909 60.9659L442.705 60.0625C442.62 60.0795 442.483 60.1136 442.262 60.1136C441.819 60.1136 441.392 59.9773 441.392 59.125V55.3068H442.79V54.4545ZM444.783 61H445.789V54.4545H444.783V61ZM445.294 53.3636C445.686 53.3636 446.01 53.0568 446.01 52.6818C446.01 52.3068 445.686 52 445.294 52C444.902 52 444.578 52.3068 444.578 52.6818C444.578 53.0568 444.902 53.3636 445.294 53.3636ZM450.77 61.1364C452.218 61.1364 453.173 60.25 453.343 59.0909H452.338C452.15 59.8068 451.554 60.233 450.77 60.233C449.576 60.233 448.809 59.2443 448.809 57.7273C448.809 56.2443 449.593 55.2727 450.77 55.2727C451.656 55.2727 452.184 55.8182 452.338 56.4148H453.343C453.173 55.1875 452.133 54.3693 450.753 54.3693C448.98 54.3693 447.804 55.767 447.804 57.7614C447.804 59.7216 448.929 61.1364 450.77 61.1364ZM407.025 65.4545H405.934L404.127 70.6705H404.059L402.252 65.4545H401.161L403.581 72H404.604L407.025 65.4545ZM410.559 72.1534C411.701 72.1534 412.298 71.5398 412.502 71.1136H412.553V72H413.559V67.6875C413.559 65.608 411.974 65.3693 411.139 65.3693C410.15 65.3693 409.025 65.7102 408.514 66.9034L409.468 67.2443C409.69 66.767 410.214 66.2557 411.173 66.2557C412.097 66.2557 412.553 66.7457 412.553 67.5852V67.6193C412.553 68.1051 412.059 68.0625 410.866 68.2159C409.651 68.3736 408.326 68.642 408.326 70.142C408.326 71.4205 409.315 72.1534 410.559 72.1534ZM410.712 71.25C409.911 71.25 409.332 70.892 409.332 70.1932C409.332 69.4261 410.031 69.1875 410.815 69.0852C411.241 69.0341 412.383 68.9148 412.553 68.7102V69.6307C412.553 70.4489 411.906 71.25 410.712 71.25ZM416.88 63.2727H415.875V72H416.88V63.2727ZM423.327 69.3239C423.327 70.5511 422.39 71.1136 421.64 71.1136C420.805 71.1136 420.208 70.5 420.208 69.5455V65.4545H419.202V69.6136C419.202 71.2841 420.089 72.0852 421.316 72.0852C422.305 72.0852 422.952 71.5568 423.259 70.892H423.327V72H424.333V65.4545H423.327V69.3239ZM429.399 72.1364C430.729 72.1364 431.7 71.4716 432.007 70.483L431.036 70.2102C430.78 70.892 430.188 71.233 429.399 71.233C428.219 71.233 427.405 70.4702 427.358 69.0682H432.109V68.642C432.109 66.2045 430.661 65.3693 429.297 65.3693C427.524 65.3693 426.348 66.767 426.348 68.7784C426.348 70.7898 427.507 72.1364 429.399 72.1364ZM427.358 68.1989C427.426 67.1804 428.146 66.2727 429.297 66.2727C430.388 66.2727 431.087 67.0909 431.087 68.1989H427.358Z" fill="#1B5FE1"/>
<path d="M234.167 134.798L235.045 132.326H238.573L239.451 134.798H240.559L237.354 126.071H236.263L233.059 134.798H234.167ZM235.377 131.389L236.775 127.451H236.843L238.241 131.389H235.377ZM246.898 129.718C246.583 128.789 245.875 128.167 244.58 128.167C243.199 128.167 242.177 128.951 242.177 130.059C242.177 130.963 242.713 131.568 243.915 131.849L245.006 132.105C245.667 132.258 245.978 132.573 245.978 133.025C245.978 133.588 245.381 134.048 244.444 134.048C243.621 134.048 243.106 133.694 242.927 132.991L241.972 133.23C242.206 134.342 243.123 134.934 244.461 134.934C245.982 134.934 247.017 134.103 247.017 132.974C247.017 132.062 246.446 131.487 245.279 131.201L244.307 130.963C243.532 130.771 243.182 130.511 243.182 130.008C243.182 129.446 243.779 129.036 244.58 129.036C245.458 129.036 245.82 129.522 245.995 129.974L246.898 129.718ZM251.67 134.934C253.119 134.934 254.074 134.048 254.244 132.889H253.239C253.051 133.605 252.454 134.031 251.67 134.031C250.477 134.031 249.71 133.042 249.71 131.525C249.71 130.042 250.494 129.071 251.67 129.071C252.557 129.071 253.085 129.616 253.239 130.213H254.244C254.074 128.985 253.034 128.167 251.653 128.167C249.881 128.167 248.704 129.565 248.704 131.559C248.704 133.519 249.829 134.934 251.67 134.934ZM258.939 134.934C260.268 134.934 261.24 134.269 261.547 133.281L260.575 133.008C260.319 133.69 259.727 134.031 258.939 134.031C257.758 134.031 256.944 133.268 256.898 131.866H261.649V131.44C261.649 129.002 260.2 128.167 258.836 128.167C257.064 128.167 255.888 129.565 255.888 131.576C255.888 133.588 257.047 134.934 258.939 134.934ZM256.898 130.997C256.966 129.978 257.686 129.071 258.836 129.071C259.927 129.071 260.626 129.889 260.626 130.997H256.898ZM264.664 130.86C264.664 129.718 265.372 129.071 266.335 129.071C267.268 129.071 267.835 129.68 267.835 130.707V134.798H268.841V130.639C268.841 128.968 267.95 128.167 266.625 128.167C265.636 128.167 265.022 128.61 264.716 129.275H264.63V128.252H263.659V134.798H264.664V130.86ZM273.63 134.934C274.891 134.934 275.317 134.15 275.539 133.792H275.658V134.798H276.63V126.071H275.624V129.292H275.539C275.317 128.951 274.925 128.167 273.647 128.167C271.994 128.167 270.852 129.48 270.852 131.542C270.852 133.622 271.994 134.934 273.63 134.934ZM273.766 134.031C272.505 134.031 271.857 132.923 271.857 131.525C271.857 130.144 272.488 129.071 273.766 129.071C274.994 129.071 275.641 130.059 275.641 131.525C275.641 133.008 274.977 134.031 273.766 134.031ZM281.836 134.934C283.165 134.934 284.137 134.269 284.444 133.281L283.472 133.008C283.216 133.69 282.624 134.031 281.836 134.031C280.655 134.031 279.841 133.268 279.795 131.866H284.546V131.44C284.546 129.002 283.097 128.167 281.734 128.167C279.961 128.167 278.785 129.565 278.785 131.576C278.785 133.588 279.944 134.934 281.836 134.934ZM279.795 130.997C279.863 129.978 280.583 129.071 281.734 129.071C282.824 129.071 283.523 129.889 283.523 130.997H279.795ZM286.556 134.798H287.562V130.656C287.562 129.769 288.26 129.122 289.215 129.122C289.483 129.122 289.76 129.173 289.829 129.19V128.167C289.714 128.159 289.449 128.15 289.3 128.15C288.516 128.15 287.834 128.593 287.596 129.241H287.527V128.252H286.556V134.798Z" fill="#1B5FE1"/>
<path fill-rule="evenodd" clip-rule="evenodd" d="M383.212 103.651H452.649L375.588 166.617L383.212 187.997H497.682V163.898H417.002L494.063 100.932L486.439 79.5518H383.212V103.651ZM520.828 185C526.903 185 531.828 180.299 531.828 174.5C531.828 168.701 526.903 164 520.828 164C514.753 164 509.828 168.701 509.828 174.5C509.828 180.299 514.753 185 520.828 185ZM316.385 356.084L316.385 80.1025H352.533L352.533 328.973L382.836 306.246L404.525 335.164L352.533 374.158V447.611H316.385V401.27L270.517 435.67L248.828 406.752L316.385 356.084Z" fill="#181818"/>
<path d="M473.002 103C473.002 103.138 472.89 103.25 472.752 103.25L470.502 103.25C470.364 103.25 470.252 103.138 470.252 103C470.252 102.862 470.364 102.75 470.502 102.75L472.502 102.75L472.502 100.75C472.502 100.612 472.614 100.5 472.752 100.5C472.89 100.5 473.002 100.612 473.002 100.75L473.002 103ZM437.929 67.8232L472.929 102.823L472.575 103.177L437.575 68.1768L437.929 67.8232Z" fill="#1B5FE1"/>
<path d="M327.002 167C327.002 167.138 326.89 167.25 326.752 167.25L324.502 167.25C324.364 167.25 324.252 167.138 324.252 167C324.252 166.862 324.364 166.75 324.502 166.75L326.502 166.75L326.502 164.75C326.502 164.612 326.614 164.5 326.752 164.5C326.89 164.5 327.002 164.612 327.002 164.75L327.002 167ZM291.929 131.823L326.929 166.823L326.575 167.177L291.575 132.177L291.929 131.823Z" fill="#1B5FE1"/>
<path d="M400.503 313.777C400.491 313.915 400.594 314.036 400.731 314.047L402.973 314.234C403.111 314.245 403.232 314.143 403.243 314.005C403.255 313.868 403.153 313.747 403.015 313.736L401.022 313.569L401.188 311.576C401.199 311.439 401.097 311.318 400.96 311.306C400.822 311.295 400.701 311.397 400.69 311.535L400.503 313.777ZM439.59 280.607L400.59 313.607L400.913 313.989L439.913 280.989L439.59 280.607Z" fill="#1B5FE1"/>
<path d="M445.331 276.008H448.076V283.798H449.133V276.008H451.877V275.071H445.331V276.008ZM454.857 279.86C454.857 278.718 455.586 278.071 456.579 278.071C457.525 278.071 458.096 278.667 458.096 279.707V283.798H459.102V279.639C459.102 277.956 458.207 277.167 456.869 277.167C455.837 277.167 455.249 277.598 454.943 278.275H454.857V275.071H453.852V283.798H454.857V279.86ZM465.546 281.122C465.546 282.349 464.609 282.911 463.859 282.911C463.024 282.911 462.427 282.298 462.427 281.343V277.252H461.421V281.411C461.421 283.082 462.308 283.883 463.535 283.883C464.524 283.883 465.171 283.355 465.478 282.69H465.546V283.798H466.552V277.252H465.546V281.122ZM468.874 283.798H469.88V279.707C469.88 278.748 470.579 278.071 471.363 278.071C472.126 278.071 472.658 278.569 472.658 279.315V283.798H473.681V279.536C473.681 278.693 474.209 278.071 475.13 278.071C475.846 278.071 476.459 278.45 476.459 279.417V283.798H477.465V279.417C477.465 277.879 476.638 277.167 475.471 277.167C474.533 277.167 473.847 277.598 473.51 278.275H473.442C473.118 277.576 472.547 277.167 471.687 277.167C470.834 277.167 470.204 277.576 469.931 278.275H469.846V277.252H468.874V283.798ZM479.92 283.798H480.892V282.792H481.011C481.233 283.15 481.659 283.934 482.92 283.934C484.557 283.934 485.699 282.622 485.699 280.542C485.699 278.48 484.557 277.167 482.903 277.167C481.625 277.167 481.233 277.951 481.011 278.292H480.926V275.071H479.92V283.798ZM480.909 280.525C480.909 279.059 481.557 278.071 482.784 278.071C484.062 278.071 484.693 279.144 484.693 280.525C484.693 281.923 484.045 283.031 482.784 283.031C481.574 283.031 480.909 282.008 480.909 280.525Z" fill="#1B5FE1"/>
<path fill-rule="evenodd" clip-rule="evenodd" d="M630.365 80.8789L671.578 80.8789V412.795H733.783C744.518 412.618 760.946 409.103 774.229 399.604C786.722 390.67 797.367 375.89 797.367 350.133C797.367 324.213 786.524 306.983 773.048 295.417C759.579 283.857 743.3 277.9 732.479 275.955H703.44V242.364H735.26L736.589 242.573C752.619 245.097 775.818 253.299 795.345 270.058C815.391 287.262 831.367 313.408 831.367 350.133C831.367 387.021 815.194 411.777 794.164 426.815C773.974 441.254 750.245 446.154 734.16 446.384L734.037 446.386H630.367L630.365 80.8789Z" fill="#EFEFEF" stroke="#181818" stroke-width="2"/>
</g>
<defs>
<clipPath id="clip0_251_2">
<rect width="725" height="500" fill="white"/>
</clipPath>
</defs>
</svg>
