<svg width="42" height="28" viewBox="0 0 42 28" fill="none" xmlns="http://www.w3.org/2000/svg">
<path d="M2.59527 27.8688C1.32509 27.8688 0.29541 26.8391 0.29541 25.569V25.569C0.29541 24.2988 1.32509 23.2691 2.59527 23.2691H22.905C24.1752 23.2691 25.2048 24.2988 25.2048 25.569V25.569C25.2048 26.8391 24.1752 27.8688 22.905 27.8688H2.59527ZM2.59527 16.3695C1.32509 16.3695 0.29541 15.3398 0.29541 14.0697V14.0697C0.29541 12.7995 1.32509 11.7698 2.59527 11.7698H39.393C40.6632 11.7698 41.6929 12.7995 41.6929 14.0697V14.0697C41.6929 15.3398 40.6632 16.3695 39.393 16.3695H2.59527ZM2.59527 4.87023C1.32509 4.87023 0.29541 3.84054 0.29541 2.57037V2.57037C0.29541 1.30019 1.32509 0.270508 2.59527 0.270508H39.393C40.6632 0.270508 41.6929 1.30019 41.6929 2.57037V2.57037C41.6929 3.84054 40.6632 4.87023 39.393 4.87023H2.59527Z" fill="white"/>
</svg>
