<svg width="2160" height="1304" viewBox="0 0 2160 1304" fill="none" xmlns="http://www.w3.org/2000/svg">
<rect width="2160" height="1304" fill="#1C1C1C"/>
<path fill-rule="evenodd" clip-rule="evenodd" d="M1065.95 336.277H1203.06L1050.9 460.608L1065.95 502.825H1291.98V455.24H1132.67L1284.83 330.909L1269.78 288.692H1065.95V336.277ZM1337.68 496.907C1349.68 496.907 1359.4 487.624 1359.4 476.174C1359.4 464.723 1349.68 455.441 1337.68 455.441C1325.69 455.441 1315.96 464.723 1315.96 476.174C1315.96 487.624 1325.69 496.907 1337.68 496.907ZM933.992 834.727L933.992 289.779L1005.37 361.648L1005.37 781.194L1065.21 736.316L1108.03 793.418L1005.37 870.416V1015.45H933.992V923.949L843.424 991.875L800.598 934.773L933.992 834.727Z" fill="white"/>
</svg>
