<svg width="332" height="331" viewBox="0 0 332 331" fill="none" xmlns="http://www.w3.org/2000/svg">
<circle cx="166.262" cy="165.404" r="165.404" fill="white"/>
<rect x="74.0137" y="83.3132" width="16.6812" height="88.3132" rx="8.34058" transform="rotate(-45 74.0137 83.3132)" fill="#0C0C0C"/>
<rect x="136.461" y="71.5181" width="16.6812" height="88.3132" rx="8.34058" transform="rotate(45 136.461 71.5181)" fill="#0C0C0C"/>
<rect x="184.268" y="83.3132" width="16.6812" height="88.3132" rx="8.34058" transform="rotate(-45 184.268 83.3132)" fill="#0C0C0C"/>
<rect x="246.715" y="71.5181" width="16.6812" height="88.3132" rx="8.34058" transform="rotate(45 246.715 71.5181)" fill="#0C0C0C"/>
<path fill-rule="evenodd" clip-rule="evenodd" d="M67.4463 193.397C71.8646 193.397 75.3971 196.992 75.9224 201.379C80.5448 239.985 118.305 271.515 166.262 271.515C214.219 271.515 251.98 239.985 256.602 201.379C257.127 196.992 260.66 193.397 265.078 193.397V193.397C269.496 193.397 273.118 196.994 272.703 201.392C268.076 250.457 221.237 287.515 166.262 287.515C111.287 287.515 64.448 250.457 59.8212 201.392C59.4064 196.994 63.028 193.397 67.4463 193.397V193.397Z" fill="#0C0C0C"/>
</svg>
