<svg width="331" height="331" viewBox="0 0 331 331" fill="none" xmlns="http://www.w3.org/2000/svg">
<circle cx="165.454" cy="165.404" r="165.404" fill="#0C0C0C"/>
<rect x="73.2056" y="83.3132" width="16.6812" height="88.3132" rx="8.34058" transform="rotate(-45 73.2056 83.3132)" fill="white"/>
<rect x="135.653" y="71.5181" width="16.6812" height="88.3132" rx="8.34058" transform="rotate(45 135.653 71.5181)" fill="white"/>
<rect x="183.46" y="83.3132" width="16.6812" height="88.3132" rx="8.34058" transform="rotate(-45 183.46 83.3132)" fill="white"/>
<rect x="245.907" y="71.5181" width="16.6812" height="88.3132" rx="8.34058" transform="rotate(45 245.907 71.5181)" fill="white"/>
<path fill-rule="evenodd" clip-rule="evenodd" d="M66.6382 193.397C71.0565 193.397 74.589 196.992 75.1143 201.379C79.7367 239.985 117.497 271.515 165.454 271.515C213.411 271.515 251.171 239.985 255.794 201.379C256.319 196.992 259.852 193.397 264.27 193.397V193.397C268.688 193.397 272.31 196.994 271.895 201.392C267.268 250.457 220.429 287.515 165.454 287.515C110.479 287.515 63.6398 250.457 59.0131 201.392C58.5983 196.994 62.2199 193.397 66.6382 193.397V193.397Z" fill="white"/>
</svg>
