<svg width="425" height="257" viewBox="0 0 425 257" fill="none" xmlns="http://www.w3.org/2000/svg">
<g clip-path="url(#clip0_212_636)">
<rect width="425" height="257" fill="url(#paint0_linear_212_636)"/>
<rect x="-1.86816" y="-46.6572" width="428.737" height="336.563" fill="#FFD541"/>
<path d="M90.7039 87.2191L74.9629 25.8271L116.331 15.2204L119.074 25.922L90.6867 33.2007L94.4374 47.8293L120.697 41.0963L123.441 51.7979L97.1814 58.5309L100.94 73.1894L129.448 65.88L132.191 76.5816L90.7039 87.2191Z" fill="black"/>
<path d="M221.138 57.4901L237.976 -3.61035L262.082 3.03243C266.696 4.30398 270.407 6.2146 273.214 8.76429C276.046 11.2996 277.904 14.3045 278.786 17.7792C279.695 21.2394 279.593 24.9883 278.48 29.0259C277.362 33.0834 275.525 36.3328 272.969 38.7742C270.418 41.1958 267.269 42.7246 263.52 43.3607C259.79 44.0022 255.579 43.6763 250.885 42.3828L234.745 37.9351L237.606 27.5528L251.658 31.425C254.124 32.1046 256.266 32.331 258.083 32.1042C259.9 31.8774 261.393 31.1974 262.561 30.0641C263.749 28.9364 264.62 27.3681 265.174 25.3592C265.733 23.3305 265.796 21.5077 265.365 19.8907C264.953 18.2792 264.02 16.888 262.567 15.717C261.138 14.5317 259.181 13.5965 256.695 12.9114L247.983 10.5108L234.057 61.0499L221.138 57.4901ZM261.797 38.7773L269.321 70.7674L255.06 66.8377L247.865 34.938L261.797 38.7773Z" fill="black"/>
<path d="M336.038 -6.01261L349.729 55.869L336.645 58.7634L322.955 -3.11816L336.038 -6.01261Z" fill="black"/>
<path d="M6.37868 112.237L-14.4423 103.796L9.36914 45.0615L30.3622 53.5723C36.2701 55.9674 40.8792 59.205 44.1894 63.2852C47.5074 67.3463 49.426 72.031 49.9454 77.3395C50.4838 82.6557 49.5167 88.3634 47.0441 94.4625C44.5637 100.581 41.2754 105.37 37.1792 108.829C33.1022 112.296 28.436 114.334 23.1807 114.942C17.9446 115.557 12.3439 114.656 6.37868 112.237ZM2.28921 98.1907L10.176 101.388C13.8469 102.876 17.1982 103.478 20.2299 103.193C23.2885 102.897 26.0068 101.628 28.3849 99.3867C30.7898 97.1337 32.8797 93.8181 34.6547 89.4397C36.4142 85.0996 37.2116 81.2933 37.0467 78.0208C36.901 74.756 35.8394 71.9659 33.8618 69.6504C31.8843 67.3349 29.06 65.433 25.3891 63.9448L17.4737 60.7358L2.28921 98.1907Z" fill="black"/>
<path d="M61.1604 4.64198L38.7166 5.66211L35.8389 -57.6504L58.4681 -58.679C64.8365 -58.9684 70.3762 -57.9501 75.0874 -55.624C79.7976 -53.3186 83.4965 -49.8622 86.1842 -45.2551C88.8925 -40.6488 90.396 -35.0585 90.6948 -28.484C90.9946 -21.889 90.0053 -16.1647 87.727 -11.3112C85.4694 -6.45855 82.0795 -2.65938 77.5576 0.0863656C73.0563 2.83117 67.5906 4.34971 61.1604 4.64198ZM51.5812 -6.41552L60.0826 -6.80193C64.0396 -6.98179 67.3362 -7.8338 69.9724 -9.35797C72.6282 -10.9037 74.5688 -13.1913 75.7941 -16.2209C77.0391 -19.2721 77.5544 -23.1574 77.3399 -27.877C77.1272 -32.5554 76.263 -36.3471 74.7473 -39.2521C73.2522 -42.158 71.1228 -44.2504 68.3593 -45.5291C65.5957 -46.8078 62.2354 -47.3573 58.2784 -47.1774L49.7461 -46.7896L51.5812 -6.41552Z" fill="black"/>
<path d="M50.0076 171.799L81.7598 116.948L118.719 138.344L113.185 147.905L87.8216 133.223L80.2557 146.293L103.717 159.874L98.1821 169.435L74.7207 155.854L67.1393 168.95L92.6093 183.695L87.0744 193.256L50.0076 171.799Z" fill="black"/>
<path d="M145.292 103.704L145.324 92.6562L197.376 92.8075L197.343 103.855L177.94 103.799L177.788 156.129L164.543 156.09L164.695 103.76L145.292 103.704Z" fill="black"/>
<path d="M206.474 221.883L223.312 160.782L247.418 167.425C252.032 168.697 255.743 170.607 258.55 173.157C261.382 175.692 263.239 178.697 264.122 182.172C265.031 185.632 264.928 189.381 263.816 193.418C262.698 197.476 260.861 200.725 258.305 203.167C255.754 205.588 252.605 207.117 248.855 207.753C245.126 208.395 240.915 208.069 236.221 206.775L220.081 202.328L222.942 191.945L236.993 195.818C239.46 196.497 241.602 196.724 243.419 196.497C245.236 196.27 246.729 195.59 247.897 194.457C249.085 193.329 249.956 191.761 250.51 189.752C251.069 187.723 251.132 185.9 250.701 184.283C250.289 182.672 249.356 181.281 247.902 180.11C246.474 178.924 244.517 177.989 242.031 177.304L233.319 174.903L219.393 225.442L206.474 221.883ZM247.133 203.17L254.657 235.16L240.396 231.23L233.201 199.331L247.133 203.17Z" fill="black"/>
<path d="M306.263 145.425C300.359 149.018 294.655 150.956 289.151 151.238C283.658 151.538 278.65 150.432 274.126 147.92C269.631 145.415 265.93 141.775 263.024 136.999C260.096 132.187 258.56 127.205 258.418 122.05C258.276 116.896 259.6 111.948 262.39 107.207C265.18 102.466 269.519 98.3043 275.405 94.722C281.309 91.1289 287.007 89.1823 292.5 88.8824C297.993 88.5824 302.987 89.685 307.482 92.19C311.995 94.6844 315.716 98.3371 318.644 103.148C321.55 107.924 323.075 112.89 323.217 118.044C323.387 123.205 322.078 128.156 319.287 132.897C316.508 137.656 312.166 141.832 306.263 145.425ZM299.2 133.82C303.024 131.492 305.901 128.957 307.829 126.213C309.769 123.487 310.79 120.68 310.892 117.792C310.994 114.905 310.203 112.077 308.519 109.31C306.835 106.543 304.687 104.542 302.075 103.306C299.463 102.07 296.496 101.678 293.173 102.131C289.86 102.601 286.292 104 282.468 106.327C278.643 108.655 275.761 111.181 273.822 113.907C271.893 116.651 270.878 119.467 270.776 122.355C270.674 125.242 271.464 128.07 273.148 130.837C274.832 133.604 276.98 135.605 279.592 136.841C282.204 138.077 285.166 138.46 288.479 137.99C291.802 137.537 295.375 136.147 299.2 133.82Z" fill="black"/>
<path d="M354.021 152.09L352.283 215.444L338.888 215.077L340.626 151.723L354.021 152.09Z" fill="black"/>
<path d="M377.089 54.7017L381.517 44.5801L429.204 65.4427L424.776 75.5643L407 67.7873L386.025 115.73L373.891 110.421L394.865 62.4786L377.089 54.7017Z" fill="black"/>
<path d="M45.3113 272.233L23.0017 274.887L15.5137 211.953L38.0076 209.277C44.3379 208.524 49.9372 209.135 54.8054 211.111C59.6713 213.067 63.6125 216.244 66.629 220.643C69.666 225.04 71.5733 230.506 72.3509 237.041C73.1309 243.596 72.5618 249.377 70.6436 254.384C68.7458 259.389 65.6422 263.425 61.3326 266.493C57.0434 269.559 51.703 271.472 45.3113 272.233ZM34.9511 261.903L43.4017 260.898C47.3351 260.43 50.5607 259.34 53.0787 257.627C55.6147 255.892 57.3832 253.469 58.3843 250.358C59.4035 247.224 59.634 243.312 59.0758 238.62C58.5225 233.97 57.384 230.251 55.6604 227.464C53.9573 224.675 51.681 222.744 48.8316 221.67C45.9821 220.596 42.5907 220.293 38.6573 220.761L30.176 221.771L34.9511 261.903Z" fill="black"/>
<path d="M130.303 220.869L135.415 211.075L181.559 235.16L176.447 244.954L159.246 235.976L135.032 282.367L123.29 276.238L147.504 229.847L130.303 220.869Z" fill="black"/>
<path d="M326.656 235.968C331.554 240.844 334.797 245.92 336.385 251.198C337.987 256.461 338.108 261.588 336.748 266.58C335.388 271.543 332.735 276.006 328.791 279.968C324.817 283.96 320.345 286.64 315.373 288.008C310.402 289.375 305.281 289.27 300.011 287.692C294.741 286.114 289.664 282.894 284.781 278.033C279.883 273.157 276.633 268.087 275.031 262.825C273.429 257.562 273.308 252.449 274.668 247.486C276.014 242.508 278.673 238.024 282.647 234.032C286.591 230.07 291.049 227.405 296.021 226.037C300.992 224.64 306.113 224.73 311.383 226.308C316.667 227.872 321.758 231.092 326.656 235.968ZM317.072 245.596C313.899 242.437 310.75 240.249 307.626 239.03C304.516 237.797 301.546 237.476 298.717 238.066C295.889 238.656 293.332 240.099 291.046 242.394C288.761 244.69 287.33 247.253 286.753 250.084C286.176 252.916 286.504 255.891 287.736 259.01C288.983 262.115 291.193 265.246 294.366 268.405C297.538 271.563 300.68 273.759 303.79 274.992C306.915 276.21 309.891 276.524 312.72 275.934C315.549 275.345 318.106 273.902 320.391 271.606C322.676 269.311 324.107 266.747 324.684 263.916C325.262 261.085 324.927 258.117 323.68 255.012C322.447 251.893 320.245 248.754 317.072 245.596Z" fill="black"/>
<path d="M170.651 -22.7216L184.341 39.16L171.258 42.0545L157.567 -19.8271L170.651 -22.7216Z" fill="black"/>
<path d="M372.581 220.793L368.951 210.358L418.113 193.255L421.743 203.69L403.417 210.065L420.611 259.49L408.102 263.842L390.907 214.417L372.581 220.793Z" fill="black"/>
</g>
<defs>
<linearGradient id="paint0_linear_212_636" x1="212.5" y1="0" x2="212.5" y2="257" gradientUnits="userSpaceOnUse">
<stop stop-color="#131313"/>
<stop offset="0.0001" stop-color="#0E0E0E"/>
<stop offset="1" stop-color="#131313"/>
</linearGradient>
<clipPath id="clip0_212_636">
<rect width="425" height="257" fill="white"/>
</clipPath>
</defs>
</svg>
