<svg width="2160" height="1280" viewBox="0 0 2160 1280" fill="none" xmlns="http://www.w3.org/2000/svg">
<g clip-path="url(#clip0_667_1700)">
<rect width="2160" height="1280" fill="#F2F0EB"/>
<path fill-rule="evenodd" clip-rule="evenodd" d="M1481.72 762.091C1475.71 745.431 1477.46 726.456 1487.51 711.871C1523.55 659.559 1538.35 592.862 1522.95 526.078C1498.78 421.243 1407.82 349.174 1305.37 344.456C1279.16 343.249 1255.73 322.432 1250.24 296.781C1250.03 295.76 1249.8 294.74 1249.56 293.719C1225.42 189.008 1120.97 123.693 1016.25 147.834C968.649 158.81 929.186 186.386 902.57 223.04C882.804 250.261 835.426 262.531 805.219 247.724C764.458 227.745 716.828 221.119 669.147 232.112C558.906 257.528 490.142 367.5 515.558 477.741C516.595 482.24 517.773 486.669 519.086 491.026C523.715 506.385 521.049 523.187 512.46 536.736C489.82 572.451 480.924 616.858 491.175 661.319C499.341 696.737 518.415 726.805 544.031 748.792C571.408 772.29 590.157 834.465 587.816 870.467C587.096 881.546 587.958 892.915 590.58 904.289C605.054 967.068 667.679 1006.23 730.458 991.753V991.753C744.776 988.452 760.43 991.452 770.823 1001.84C853.314 1084.29 975.149 1123.69 1097.18 1095.55C1166.35 1079.61 1225.97 1044.17 1271.57 996.392C1282.41 985.035 1298.28 980.017 1313.93 981.324C1330.43 982.703 1347.43 981.583 1364.43 977.662C1452.64 957.326 1507.66 869.334 1487.33 781.126C1485.82 774.593 1483.94 768.242 1481.72 762.091Z" fill="#F2F0EB"/>
<path d="M860.078 203.521L794.22 863.277C793.913 866.359 796.333 869.033 799.43 869.033H931.147C934.244 869.033 936.664 866.359 936.357 863.277L870.498 203.521C869.871 197.233 860.706 197.233 860.078 203.521Z" fill="#508664" stroke="black" stroke-width="3.37016"/>
<path d="M756.048 653.718L733.129 883.31C732.822 886.392 735.242 889.066 738.339 889.066H784.176C787.274 889.066 789.694 886.392 789.386 883.31L766.468 653.718C765.84 647.43 756.675 647.43 756.048 653.718Z" fill="#508664" stroke="black" stroke-width="3.37016"/>
<path d="M1029.4 438.563L950.956 956.23C950.476 959.398 952.929 962.251 956.133 962.251H1053.49C1056.43 962.251 1058.79 959.831 1058.72 956.892L1052.34 685.253L1052.34 685.23L1039.81 439.081C1039.49 432.777 1030.35 432.322 1029.4 438.563Z" fill="#508664" stroke="black" stroke-width="3.37016"/>
<path d="M683.675 438.563L762.122 956.23C762.602 959.398 760.149 962.251 756.945 962.251H659.589C656.65 962.251 654.286 959.831 654.355 956.892L660.736 685.253L660.737 685.23L673.269 439.081C673.59 432.777 682.729 432.322 683.675 438.563Z" fill="#508664" stroke="black" stroke-width="3.37016"/>
<path d="M769.057 900.349H857.336C860.515 900.349 862.96 897.539 862.522 894.391L828.49 649.968C828.448 649.667 828.38 649.372 828.287 649.083L768.151 462.541C766.226 456.57 757.34 458.42 757.958 464.663L776.137 648.46C776.179 648.885 776.189 649.313 776.168 649.739L763.828 894.85C763.678 897.841 766.062 900.349 769.057 900.349Z" fill="#508664" stroke="black" stroke-width="3.37016"/>
<path d="M997.583 900.348H838.211C835.032 900.348 832.587 897.539 833.025 894.39L891.242 476.268C891.284 475.968 891.351 475.672 891.444 475.384L1006.64 118.056C1008.56 112.085 1017.45 113.935 1016.83 120.178L981.759 474.76C981.717 475.186 981.707 475.613 981.728 476.04L1002.81 894.849C1002.96 897.84 1000.58 900.348 997.583 900.348Z" fill="#508664" stroke="black" stroke-width="3.37016"/>
<mask id="path-8-inside-1_667_1700" fill="white">
<path d="M588.403 837.843C588.403 916.052 618.599 991.058 672.35 1046.36C726.101 1101.66 799.002 1132.73 875.017 1132.73C951.032 1132.73 1023.93 1101.66 1077.68 1046.36C1131.43 991.058 1161.63 916.052 1161.63 837.843L875.017 837.843H588.403Z"/>
</mask>
<path d="M588.403 837.843C588.403 916.052 618.599 991.058 672.35 1046.36C726.101 1101.66 799.002 1132.73 875.017 1132.73C951.032 1132.73 1023.93 1101.66 1077.68 1046.36C1131.43 991.058 1161.63 916.052 1161.63 837.843L875.017 837.843H588.403Z" fill="white"/>
<path d="M588.403 837.843H585.033V834.473H588.403V837.843ZM672.35 1046.36L669.933 1048.71L672.35 1046.36ZM875.017 1132.73L875.017 1129.36L875.017 1132.73ZM1161.63 837.843L1161.63 834.473L1165 834.473L1165 837.843L1161.63 837.843ZM875.017 837.843L875.017 834.473H875.017L875.017 837.843ZM591.773 837.843C591.773 915.189 621.637 989.348 674.767 1044.01L669.933 1048.71C615.562 992.768 585.033 916.916 585.033 837.843H591.773ZM674.767 1044.01C727.893 1098.67 799.927 1129.36 875.017 1129.36L875.017 1136.1C798.077 1136.1 724.308 1104.65 669.933 1048.71L674.767 1044.01ZM875.017 1129.36C950.106 1129.36 1022.14 1098.67 1075.27 1044.01L1080.1 1048.71C1025.73 1104.65 951.957 1136.1 875.017 1136.1L875.017 1129.36ZM1075.27 1044.01C1128.4 989.348 1158.26 915.189 1158.26 837.843L1165 837.843C1165 916.916 1134.47 992.768 1080.1 1048.71L1075.27 1044.01ZM1161.63 841.213L875.017 841.213L875.017 834.473L1161.63 834.473L1161.63 841.213ZM875.017 841.213H588.403V834.473H875.017V841.213Z" fill="black" mask="url(#path-8-inside-1_667_1700)"/>
<mask id="path-10-inside-2_667_1700" fill="white">
<path fill-rule="evenodd" clip-rule="evenodd" d="M1278.96 472.321C1285.15 473.536 1291.16 469.498 1292.37 463.303L1293.03 459.967C1294.24 453.772 1290.2 447.765 1284.01 446.551L1236.26 437.192C1230.06 435.977 1224.06 440.015 1222.84 446.21L1222.19 449.546C1220.97 455.741 1225.01 461.748 1231.21 462.962L1278.96 472.321ZM1261.48 457.192C1262.22 454.423 1260.57 451.577 1257.8 450.835L1240.13 446.1C1237.36 445.358 1234.52 447.001 1233.78 449.77C1233.03 452.539 1234.68 455.385 1237.45 456.127L1255.12 460.862C1257.89 461.604 1260.73 459.961 1261.48 457.192Z"/>
</mask>
<path fill-rule="evenodd" clip-rule="evenodd" d="M1278.96 472.321C1285.15 473.536 1291.16 469.498 1292.37 463.303L1293.03 459.967C1294.24 453.772 1290.2 447.765 1284.01 446.551L1236.26 437.192C1230.06 435.977 1224.06 440.015 1222.84 446.21L1222.19 449.546C1220.97 455.741 1225.01 461.748 1231.21 462.962L1278.96 472.321ZM1261.48 457.192C1262.22 454.423 1260.57 451.577 1257.8 450.835L1240.13 446.1C1237.36 445.358 1234.52 447.001 1233.78 449.77C1233.03 452.539 1234.68 455.385 1237.45 456.127L1255.12 460.862C1257.89 461.604 1260.73 459.961 1261.48 457.192Z" fill="white"/>
<path d="M1292.37 463.303L1295.68 463.951L1295.68 463.951L1292.37 463.303ZM1278.96 472.321L1278.31 475.629L1278.31 475.629L1278.96 472.321ZM1293.03 459.967L1289.72 459.318L1293.03 459.967ZM1284.01 446.551L1283.36 449.858L1283.36 449.858L1284.01 446.551ZM1236.26 437.192L1235.61 440.499L1235.61 440.499L1236.26 437.192ZM1222.84 446.21L1226.15 446.858L1226.15 446.858L1222.84 446.21ZM1222.19 449.546L1225.49 450.195L1225.49 450.195L1222.19 449.546ZM1231.21 462.962L1230.56 466.269L1230.56 466.269L1231.21 462.962ZM1257.8 450.835L1258.68 447.579L1258.68 447.579L1257.8 450.835ZM1261.48 457.192L1264.73 458.064L1264.73 458.064L1261.48 457.192ZM1240.13 446.1L1241.01 442.844L1241.01 442.844L1240.13 446.1ZM1237.45 456.127L1236.57 459.383L1236.57 459.383L1237.45 456.127ZM1255.12 460.862L1255.99 457.607L1255.99 457.607L1255.12 460.862ZM1295.68 463.951C1294.11 471.973 1286.33 477.201 1278.31 475.629L1279.61 469.014C1283.97 469.87 1288.21 467.023 1289.07 462.655L1295.68 463.951ZM1296.33 460.615L1295.68 463.951L1289.07 462.655L1289.72 459.318L1296.33 460.615ZM1284.66 443.244C1292.68 444.816 1297.91 452.593 1296.33 460.615L1289.72 459.318C1290.58 454.95 1287.73 450.715 1283.36 449.858L1284.66 443.244ZM1236.91 433.884L1284.66 443.244L1283.36 449.858L1235.61 440.499L1236.91 433.884ZM1219.53 445.562C1221.11 437.54 1228.88 432.312 1236.91 433.884L1235.61 440.499C1231.24 439.643 1227 442.49 1226.15 446.858L1219.53 445.562ZM1218.88 448.898L1219.53 445.562L1226.15 446.858L1225.49 450.195L1218.88 448.898ZM1230.56 466.269C1222.54 464.697 1217.31 456.92 1218.88 448.898L1225.49 450.195C1224.64 454.563 1227.49 458.798 1231.85 459.655L1230.56 466.269ZM1278.31 475.629L1230.56 466.269L1231.85 459.655L1279.61 469.014L1278.31 475.629ZM1258.68 447.579C1263.24 448.803 1265.95 453.497 1264.73 458.064L1258.22 456.32C1258.48 455.348 1257.9 454.35 1256.93 454.09L1258.68 447.579ZM1241.01 442.844L1258.68 447.579L1256.93 454.09L1239.26 449.355L1241.01 442.844ZM1230.52 448.898C1231.74 444.331 1236.44 441.621 1241.01 442.844L1239.26 449.355C1238.29 449.095 1237.29 449.671 1237.03 450.642L1230.52 448.898ZM1236.57 459.383C1232.01 458.159 1229.3 453.465 1230.52 448.898L1237.03 450.642C1236.77 451.613 1237.35 452.612 1238.32 452.872L1236.57 459.383ZM1254.25 464.117L1236.57 459.383L1238.32 452.872L1255.99 457.607L1254.25 464.117ZM1264.73 458.064C1263.51 462.631 1258.81 465.341 1254.25 464.117L1255.99 457.607C1256.96 457.867 1257.96 457.291 1258.22 456.32L1264.73 458.064Z" fill="black" mask="url(#path-10-inside-2_667_1700)"/>
<rect x="-1.68508" y="1.68508" width="208.198" height="566.364" rx="5.42792" transform="matrix(-1 0 0 1 1389.4 456.817)" fill="white" stroke="black" stroke-width="3.37016"/>
<path d="M1269.02 865.399H1035.95C1032.29 865.399 1029.33 868.36 1029.33 872.013V1049.67C1029.33 1068.38 1044.5 1083.55 1063.21 1083.55H1241.75C1260.46 1083.55 1275.63 1068.38 1275.63 1049.67V872.013C1275.63 868.36 1272.67 865.399 1269.02 865.399Z" fill="white" stroke="black" stroke-width="3.37016"/>
<mask id="path-14-inside-3_667_1700" fill="white">
<path fill-rule="evenodd" clip-rule="evenodd" d="M1045.78 880.326C1045.78 880.317 1045.78 880.31 1045.77 880.31C1045 880.31 1044.23 880.321 1043.46 880.343H1041.35C1041.32 880.343 1041.3 880.363 1041.3 880.389V880.389C1041.3 880.413 1041.28 880.434 1041.26 880.435C1032.08 880.945 1023.04 883 1014.53 886.526C1004.62 890.63 995.62 896.646 988.036 904.23C980.452 911.814 974.437 920.817 970.332 930.725C966.228 940.634 964.116 951.254 964.116 961.979C964.116 972.703 966.228 983.323 970.332 993.232C974.437 1003.14 980.452 1012.14 988.036 1019.73C995.62 1027.31 1004.62 1033.33 1014.53 1037.43C1023.3 1041.06 1032.62 1043.13 1042.08 1043.56C1042.1 1043.56 1042.12 1043.58 1042.12 1043.6V1043.6C1042.12 1043.63 1042.14 1043.64 1042.16 1043.64H1044.99C1045.25 1043.65 1045.52 1043.65 1045.78 1043.65C1045.78 1043.65 1045.78 1043.65 1045.78 1043.65V1043.65C1045.78 1043.64 1045.79 1043.64 1045.79 1043.64H1048.74C1050.37 1043.64 1051.69 1042.32 1051.69 1040.69V1020.26C1051.69 1016.25 1048.44 1013 1044.43 1013V1013C1038.19 1012.83 1032.03 1011.52 1026.25 1009.13C1020.06 1006.57 1014.43 1002.81 1009.7 998.068C1004.96 993.328 1001.2 987.702 998.632 981.51C996.067 975.318 994.747 968.681 994.747 961.979C994.747 955.276 996.067 948.639 998.632 942.447C1001.2 936.255 1004.96 930.629 1009.7 925.89C1014.43 921.15 1020.06 917.391 1026.25 914.826C1031.17 912.79 1036.36 911.539 1041.65 911.109V911.109C1047.64 911.109 1052.5 906.249 1052.5 900.254V883.702C1052.5 881.847 1051 880.343 1049.14 880.343H1045.8C1045.79 880.343 1045.78 880.335 1045.78 880.326V880.326Z"/>
</mask>
<path fill-rule="evenodd" clip-rule="evenodd" d="M1045.78 880.326C1045.78 880.317 1045.78 880.31 1045.77 880.31C1045 880.31 1044.23 880.321 1043.46 880.343H1041.35C1041.32 880.343 1041.3 880.363 1041.3 880.389V880.389C1041.3 880.413 1041.28 880.434 1041.26 880.435C1032.08 880.945 1023.04 883 1014.53 886.526C1004.62 890.63 995.62 896.646 988.036 904.23C980.452 911.814 974.437 920.817 970.332 930.725C966.228 940.634 964.116 951.254 964.116 961.979C964.116 972.703 966.228 983.323 970.332 993.232C974.437 1003.14 980.452 1012.14 988.036 1019.73C995.62 1027.31 1004.62 1033.33 1014.53 1037.43C1023.3 1041.06 1032.62 1043.13 1042.08 1043.56C1042.1 1043.56 1042.12 1043.58 1042.12 1043.6V1043.6C1042.12 1043.63 1042.14 1043.64 1042.16 1043.64H1044.99C1045.25 1043.65 1045.52 1043.65 1045.78 1043.65C1045.78 1043.65 1045.78 1043.65 1045.78 1043.65V1043.65C1045.78 1043.64 1045.79 1043.64 1045.79 1043.64H1048.74C1050.37 1043.64 1051.69 1042.32 1051.69 1040.69V1020.26C1051.69 1016.25 1048.44 1013 1044.43 1013V1013C1038.19 1012.83 1032.03 1011.52 1026.25 1009.13C1020.06 1006.57 1014.43 1002.81 1009.7 998.068C1004.96 993.328 1001.2 987.702 998.632 981.51C996.067 975.318 994.747 968.681 994.747 961.979C994.747 955.276 996.067 948.639 998.632 942.447C1001.2 936.255 1004.96 930.629 1009.7 925.89C1014.43 921.15 1020.06 917.391 1026.25 914.826C1031.17 912.79 1036.36 911.539 1041.65 911.109V911.109C1047.64 911.109 1052.5 906.249 1052.5 900.254V883.702C1052.5 881.847 1051 880.343 1049.14 880.343H1045.8C1045.79 880.343 1045.78 880.335 1045.78 880.326V880.326Z" fill="white"/>
<path d="M1043.46 880.343L1043.56 883.711L1043.51 883.713H1043.46V880.343ZM1014.53 886.526L1015.82 889.64L1015.82 889.64L1014.53 886.526ZM970.332 930.725L967.219 929.435L967.219 929.435L970.332 930.725ZM970.332 993.232L967.219 994.522L967.219 994.522L970.332 993.232ZM1014.53 1037.43L1015.82 1034.32L1015.82 1034.32L1014.53 1037.43ZM1044.99 1043.64V1040.27H1045.01L1045.02 1040.27L1044.99 1043.64ZM1026.25 1009.13L1024.96 1012.24L1024.96 1012.24L1026.25 1009.13ZM1009.7 925.89L1012.08 928.273L1012.08 928.273L1009.7 925.89ZM1026.25 914.826L1027.54 917.94L1027.54 917.94L1026.25 914.826ZM1045.78 1043.65L1045.78 1047.02L1045.78 1043.65ZM1041.26 880.435L1041.45 883.8L1041.26 880.435ZM1042.08 1043.56L1041.93 1046.93L1042.08 1043.56ZM1043.37 876.974C1044.17 876.951 1044.97 876.94 1045.77 876.939L1045.77 883.68C1045.03 883.68 1044.29 883.69 1043.56 883.711L1043.37 876.974ZM1041.35 876.972H1043.46V883.713H1041.35V876.972ZM1013.24 883.413C1022.1 879.741 1031.52 877.601 1041.07 877.07L1041.45 883.8C1032.65 884.288 1023.98 886.26 1015.82 889.64L1013.24 883.413ZM985.653 901.847C993.549 893.95 1002.92 887.686 1013.24 883.413L1015.82 889.64C1006.32 893.575 997.69 899.342 990.419 906.613L985.653 901.847ZM967.219 929.435C971.492 919.118 977.756 909.743 985.653 901.847L990.419 906.613C983.148 913.884 977.381 922.515 973.446 932.015L967.219 929.435ZM960.745 961.979C960.745 950.811 962.945 939.753 967.219 929.435L973.446 932.015C969.511 941.515 967.486 951.696 967.486 961.979H960.745ZM967.219 994.522C962.945 984.204 960.745 973.146 960.745 961.979H967.486C967.486 972.261 969.511 982.443 973.446 991.942L967.219 994.522ZM985.653 1022.11C977.756 1014.21 971.492 1004.84 967.219 994.522L973.446 991.942C977.381 1001.44 983.148 1010.07 990.419 1017.34L985.653 1022.11ZM1013.24 1040.54C1002.92 1036.27 993.549 1030.01 985.653 1022.11L990.419 1017.34C997.69 1024.61 1006.32 1030.38 1015.82 1034.32L1013.24 1040.54ZM1041.93 1046.93C1032.08 1046.48 1022.37 1044.33 1013.24 1040.54L1015.82 1034.32C1024.23 1037.8 1033.16 1039.79 1042.23 1040.2L1041.93 1046.93ZM1042.16 1040.27H1044.99V1047.01H1042.16V1040.27ZM1045.78 1047.02C1045.51 1047.02 1045.23 1047.02 1044.96 1047.01L1045.02 1040.27C1045.28 1040.28 1045.53 1040.28 1045.78 1040.28L1045.78 1047.02ZM1045.79 1040.27H1048.74V1047.01H1045.79V1040.27ZM1048.32 1040.69V1020.26H1055.06V1040.69H1048.32ZM1027.54 1006.02C1032.94 1008.25 1038.69 1009.47 1044.52 1009.63L1044.34 1016.37C1037.69 1016.19 1031.12 1014.79 1024.96 1012.24L1027.54 1006.02ZM1012.08 995.684C1016.5 1000.11 1021.76 1003.62 1027.54 1006.02L1024.96 1012.24C1018.36 1009.51 1012.36 1005.5 1007.31 1000.45L1012.08 995.684ZM1001.75 980.22C1004.14 986.003 1007.65 991.258 1012.08 995.684L1007.31 1000.45C1002.26 995.398 998.253 989.401 995.518 982.799L1001.75 980.22ZM998.117 961.979C998.117 968.238 999.35 974.437 1001.75 980.22L995.518 982.799C992.784 976.198 991.377 969.123 991.377 961.979H998.117ZM1001.75 943.737C999.35 949.52 998.117 955.719 998.117 961.979H991.377C991.377 954.834 992.784 947.759 995.518 941.158L1001.75 943.737ZM1012.08 928.273C1007.65 932.699 1004.14 937.954 1001.75 943.737L995.518 941.158C998.253 934.557 1002.26 928.559 1007.31 923.506L1012.08 928.273ZM1027.54 917.94C1021.76 920.335 1016.5 923.846 1012.08 928.273L1007.31 923.506C1012.36 918.454 1018.36 914.447 1024.96 911.712L1027.54 917.94ZM1041.92 914.468C1036.99 914.869 1032.13 916.038 1027.54 917.94L1024.96 911.712C1030.2 909.542 1035.74 908.208 1041.38 907.75L1041.92 914.468ZM1055.87 883.702V900.254H1049.13V883.702H1055.87ZM1045.8 876.972H1049.14V883.713H1045.8V876.972ZM1045.8 883.713C1043.93 883.713 1042.41 882.196 1042.41 880.326H1049.15C1049.15 878.474 1047.65 876.972 1045.8 876.972V883.713ZM1049.13 883.702C1049.13 883.699 1049.13 883.698 1049.13 883.701C1049.13 883.703 1049.14 883.705 1049.14 883.707C1049.14 883.711 1049.14 883.711 1049.14 883.71C1049.14 883.708 1049.14 883.709 1049.14 883.711C1049.14 883.711 1049.14 883.712 1049.15 883.713C1049.15 883.713 1049.15 883.713 1049.14 883.713V876.972C1052.86 876.972 1055.87 879.985 1055.87 883.702H1049.13ZM1048.32 1020.26C1048.32 1018.11 1046.58 1016.37 1044.43 1016.37V1009.63C1050.3 1009.63 1055.06 1014.39 1055.06 1020.26H1048.32ZM1041.65 907.739C1045.78 907.739 1049.13 904.387 1049.13 900.254H1055.87C1055.87 908.11 1049.51 914.479 1041.65 914.479V907.739ZM1048.74 1040.27C1048.51 1040.27 1048.32 1040.46 1048.32 1040.69H1055.06C1055.06 1044.18 1052.23 1047.01 1048.74 1047.01V1040.27ZM1042.41 1043.65C1042.41 1041.78 1043.92 1040.27 1045.79 1040.27V1047.01C1047.65 1047.01 1049.15 1045.51 1049.15 1043.65H1042.41ZM1045.78 1040.28C1043.92 1040.28 1042.41 1041.79 1042.41 1043.65H1049.15C1049.15 1045.51 1047.65 1047.02 1045.78 1047.02L1045.78 1040.28ZM1044.67 880.389C1044.67 882.204 1043.25 883.7 1041.45 883.8L1041.07 877.07C1039.31 877.168 1037.93 878.623 1037.93 880.389H1044.67ZM1045.77 876.939C1047.64 876.939 1049.15 878.456 1049.15 880.326H1042.41C1042.41 882.178 1043.92 883.68 1045.77 883.68L1045.77 876.939ZM1045.49 1043.6C1045.49 1041.76 1044 1040.27 1042.16 1040.27V1047.01C1040.28 1047.01 1038.75 1045.49 1038.75 1043.6H1045.49ZM1041.35 883.713C1043.18 883.713 1044.67 882.225 1044.67 880.389H1037.93C1037.93 878.502 1039.46 876.972 1041.35 876.972V883.713ZM1042.23 1040.2C1044.05 1040.28 1045.49 1041.78 1045.49 1043.6H1038.75C1038.75 1045.39 1040.15 1046.85 1041.93 1046.93L1042.23 1040.2Z" fill="black" mask="url(#path-14-inside-3_667_1700)"/>
<mask id="path-16-inside-4_667_1700" fill="white">
<rect x="1319.06" y="565.946" width="57.0466" height="18.9482" rx="2.8921"/>
</mask>
<rect x="1319.06" y="565.946" width="57.0466" height="18.9482" rx="2.8921" fill="white" stroke="black" stroke-width="6.74032" mask="url(#path-16-inside-4_667_1700)"/>
<path fill-rule="evenodd" clip-rule="evenodd" d="M1311.63 636.341H1438.89H1449.39H1576.65L1532.44 1078.4H1449.39H1438.89H1355.84L1311.63 636.341Z" fill="white"/>
<path d="M1311.63 636.341V634.656H1309.77L1309.96 636.508L1311.63 636.341ZM1576.65 636.341L1578.33 636.508L1578.51 634.656H1576.65V636.341ZM1532.44 1078.4V1080.09H1533.97L1534.12 1078.57L1532.44 1078.4ZM1355.84 1078.4L1354.16 1078.57L1354.32 1080.09H1355.84V1078.4ZM1438.89 634.656H1311.63V638.026H1438.89V634.656ZM1438.89 638.026H1449.39V634.656H1438.89V638.026ZM1449.39 638.026H1576.65V634.656H1449.39V638.026ZM1574.97 636.173L1530.77 1078.24L1534.12 1078.57L1578.33 636.508L1574.97 636.173ZM1532.44 1076.72H1449.39V1080.09H1532.44V1076.72ZM1449.39 1076.72H1438.89V1080.09H1449.39V1076.72ZM1355.84 1080.09H1438.89V1076.72H1355.84V1080.09ZM1309.96 636.508L1354.16 1078.57L1357.52 1078.24L1313.31 636.173L1309.96 636.508Z" fill="black"/>
<path d="M1316.24 575.419L1311.63 611.587H1576.64L1570.07 583.311L1316.24 575.419Z" fill="white" stroke="black" stroke-width="3.37016"/>
<path d="M1307.1 636.34L1311.9 621.938H1577.68L1581.17 636.34H1307.1Z" fill="white" stroke="black" stroke-width="3.37016"/>
<rect x="1308.37" y="611.765" width="271.535" height="9.58184" rx="4.79092" fill="white" stroke="black" stroke-width="3.37016"/>
<path fill-rule="evenodd" clip-rule="evenodd" d="M1318.82 764.393H1438.91H1448.08H1568.17L1554.59 916.458H1448.08H1438.91H1332.4L1318.82 764.393Z" fill="#E3BE63"/>
<path d="M1318.82 764.393V762.707H1316.98L1317.14 764.542L1318.82 764.393ZM1568.17 764.393L1569.85 764.542L1570.01 762.707H1568.17V764.393ZM1554.59 916.458V918.143H1556.13L1556.27 916.608L1554.59 916.458ZM1332.4 916.458L1330.72 916.608L1330.86 918.143H1332.4V916.458ZM1438.91 762.707H1318.82V766.078H1438.91V762.707ZM1438.91 766.078H1448.08V762.707H1438.91V766.078ZM1448.08 766.078H1568.17V762.707H1448.08V766.078ZM1566.49 764.243L1552.91 916.308L1556.27 916.608L1569.85 764.542L1566.49 764.243ZM1554.59 914.773H1448.08V918.143H1554.59V914.773ZM1448.08 914.773H1438.91V918.143H1448.08V914.773ZM1332.4 918.143H1438.91V914.773H1332.4V918.143ZM1317.14 764.542L1330.72 916.608L1334.08 916.308L1320.5 764.243L1317.14 764.542Z" fill="black"/>
<circle cx="1444.14" cy="840.479" r="56.0579" transform="rotate(95.6645 1444.14 840.479)" fill="#508664" stroke="black" stroke-width="3.37016"/>
<mask id="mask0_667_1700" style="mask-type:alpha" maskUnits="userSpaceOnUse" x="1394" y="792" width="100" height="100">
<circle cx="1444.14" cy="841.751" r="49.6025" transform="rotate(95.6645 1444.14 841.751)" fill="white"/>
</mask>
<g mask="url(#mask0_667_1700)">
<path d="M1443.21 792.635C1443.27 792.507 1443.46 792.509 1443.51 792.638L1446.03 798.401L1452.52 798.755C1452.67 798.762 1452.73 798.938 1452.63 799.037L1447.79 803.673L1451.49 813.368L1443.14 807.289L1434.01 814.38L1438.85 803.673L1433.78 799.05C1433.67 798.95 1433.74 798.768 1433.89 798.765L1440.42 798.595L1443.21 792.635Z" fill="white"/>
<path d="M1444.13 815.677C1437.1 815.677 1428 819.003 1424.47 820.496L1423.48 816.821L1421.83 813.355L1419.6 809.814L1420.95 809.665L1423.48 810.171L1427.66 811.807L1427.51 810.498L1427.02 808.534L1425.45 805.094H1427.23L1429.61 805.931L1433.93 808.364L1439.85 811.677L1447.64 811.604L1450.81 809.059L1456.64 805.861L1461.12 804.843L1459.59 809.464L1459.27 811.604L1463.43 810.012L1465.62 809.464H1467.1C1467.1 809.464 1462.96 815.546 1462.6 820.193C1459.33 818.701 1451.15 815.677 1444.13 815.677Z" fill="white"/>
<path d="M1439.74 845.974C1438.02 845.974 1437.22 848.061 1436.27 849.491L1434.18 852.653C1433.16 853.895 1432.54 855.485 1432.54 857.219C1432.54 859.47 1433.98 862.053 1435.95 863.87C1436.63 864.497 1437.17 865.268 1437.62 866.079C1437.68 866.188 1437.74 866.295 1437.81 866.401C1439.05 868.409 1439.84 871.127 1439.84 873.488C1439.84 874.064 1439.48 874.787 1439.1 875.545C1438.39 876.954 1437.63 878.411 1436.81 879.754C1435.44 881.975 1434.61 884.611 1434.61 886.901C1434.61 892.05 1438.78 896.223 1443.93 896.223C1449.08 896.223 1453.25 892.05 1453.25 886.901C1453.25 884.903 1452.62 882.641 1451.55 880.622C1450.69 879 1449.85 877.268 1448.94 875.675C1448.47 874.857 1448.02 874.078 1448.02 873.488C1448.02 871.126 1448.82 868.406 1450.06 866.395C1450.09 866.345 1450.12 866.294 1450.15 866.242C1450.55 865.551 1451.03 864.9 1451.62 864.353C1453.64 862.465 1455.09 859.613 1455.09 857.219C1455.09 855.716 1454.63 854.321 1453.84 853.167C1453.84 853.161 1453.84 853.154 1453.85 853.156C1453.85 853.157 1453.86 853.15 1453.85 853.145L1449.92 847.208C1449.56 846.477 1448.81 845.974 1447.94 845.974C1447.88 845.974 1447.81 845.977 1447.75 845.982C1446.51 846.088 1445.18 846.774 1443.93 846.774C1442.6 846.774 1441.14 846.025 1439.82 845.976C1439.79 845.975 1439.76 845.974 1439.74 845.974Z" fill="white"/>
<path d="M1484.85 814.025C1483.62 823.005 1492.5 834.273 1492.5 834.273C1492.5 834.273 1489.73 835.689 1486.73 834.749C1481.88 833.227 1483.84 831.668 1474.68 831.375C1473.54 828.646 1468.32 824.185 1465.24 822.161C1465.88 819.49 1473.59 820.136 1477.9 823.305C1478.52 819.901 1478.46 818.769 1480.28 816.733C1481.77 815.063 1484 812.618 1484.85 814.025Z" fill="white"/>
<path d="M1402.04 814.025C1403.28 823.005 1394.4 834.273 1394.4 834.273C1394.4 834.273 1397.17 835.689 1400.16 834.749C1405.02 833.227 1403.06 831.668 1412.21 831.375C1413.36 828.646 1418.58 824.185 1421.66 822.161C1421.02 819.49 1413.31 820.136 1409 823.305C1408.38 819.901 1408.44 818.769 1406.62 816.733C1405.13 815.063 1402.89 812.618 1402.04 814.025Z" fill="white"/>
<path fill-rule="evenodd" clip-rule="evenodd" d="M1444.93 817.748L1444.93 817.75L1444.93 817.752C1446.54 817.69 1449.58 818.205 1451.84 820.753C1452.26 821.318 1453.07 822.605 1452.95 823.24C1452.73 824.343 1451.48 824.171 1450.12 823.985C1449.17 823.854 1448.16 823.716 1447.43 824.007C1446.64 824.319 1446 824.806 1445.88 825.542C1445.73 826.491 1445.65 827.493 1445.61 828.294C1445.56 829.148 1445.57 830.658 1446.41 830.49C1446.43 830.486 1446.46 830.48 1446.48 830.473C1446.69 830.407 1446.9 830.319 1447.11 830.231C1447.53 830.056 1447.94 829.882 1448.39 829.882C1448.66 829.882 1448.92 829.924 1449.18 830.008L1449.73 830.189C1450.07 830.301 1450.43 830.34 1450.79 830.305L1451.12 830.273C1451.43 830.242 1451.73 830.116 1451.96 829.911C1452.21 829.703 1452.53 829.549 1452.82 829.687C1453.31 829.921 1453.84 830.62 1453.79 832.29C1453.74 834.268 1452.64 837.157 1451.9 838.821C1451.7 839.249 1451.47 839.656 1451.17 840.02C1449.91 841.562 1447.48 843.838 1444.94 844.094C1444.94 844.095 1444.93 844.1 1444.93 844.106C1444.93 844.112 1444.93 844.117 1444.92 844.117H1442.13C1442.13 844.117 1442.13 844.115 1442.13 844.113C1442.13 844.11 1442.13 844.108 1442.12 844.108C1439.53 843.939 1437.01 841.589 1435.72 840.013C1435.43 839.653 1435.19 839.252 1435 838.828C1434.26 837.166 1433.16 834.271 1433.1 832.29C1433.06 830.62 1433.59 829.921 1434.08 829.687C1434.37 829.549 1434.69 829.703 1434.93 829.911C1435.17 830.116 1435.47 830.242 1435.78 830.273L1436.11 830.305C1436.47 830.34 1436.82 830.301 1437.16 830.189L1437.72 830.008C1437.97 829.924 1438.24 829.882 1438.51 829.882C1438.96 829.882 1439.37 830.056 1439.79 830.231C1440 830.319 1440.2 830.407 1440.42 830.473C1440.44 830.48 1440.46 830.486 1440.49 830.49C1441.32 830.658 1441.34 829.148 1441.29 828.294C1441.25 827.493 1441.16 826.491 1441.01 825.542C1440.9 824.806 1440.26 824.319 1439.47 824.007C1438.73 823.716 1437.73 823.854 1436.78 823.985C1435.42 824.171 1434.17 824.343 1433.95 823.24C1433.82 822.605 1434.64 821.318 1435.06 820.753C1437.4 818.119 1440.57 817.658 1442.12 817.761C1442.12 817.761 1442.13 817.758 1442.13 817.754C1442.13 817.75 1442.13 817.748 1442.13 817.748H1444.93ZM1443.28 833.723L1443.89 833.531C1444.12 833.458 1444.37 833.447 1444.61 833.501L1444.72 833.527C1444.92 833.571 1445.09 833.673 1445.23 833.819L1445.41 834.015C1445.47 834.074 1445.5 834.153 1445.5 834.235C1445.5 834.347 1445.44 834.451 1445.35 834.509L1445.1 834.658C1445.05 834.691 1444.99 834.718 1444.93 834.738L1443.86 835.088C1443.62 835.166 1443.37 835.206 1443.12 835.206C1442.82 835.206 1442.52 835.149 1442.24 835.039L1441.4 834.708L1440.69 834.474C1440.58 834.439 1440.51 834.339 1440.51 834.226C1440.51 834.151 1440.54 834.079 1440.6 834.03L1440.92 833.749C1441.16 833.538 1441.48 833.433 1441.8 833.458L1442.02 833.475C1442.17 833.486 1442.32 833.537 1442.44 833.621C1442.59 833.718 1442.76 833.77 1442.93 833.77H1442.98C1443.08 833.77 1443.18 833.755 1443.28 833.723ZM1439.03 837.037L1447.67 837.138C1447.22 838.15 1445.36 840.453 1443.27 840.453C1441.17 840.453 1439.03 837.687 1439.03 837.037Z" fill="white"/>
<path d="M1433.65 827.259V826.509C1433.65 826.056 1434.01 825.688 1434.47 825.688H1434.85C1435.29 825.682 1436.43 825.711 1437.46 825.869C1438.29 825.998 1438.99 826.615 1439.38 827.075C1439.53 827.253 1439.59 827.52 1439.43 827.686C1439.32 827.801 1439.16 827.855 1438.94 827.71C1438.57 827.467 1437.02 827.289 1436.15 827.218C1436.04 827.209 1435.93 827.223 1435.82 827.263C1435.41 827.423 1434.79 827.731 1434.68 828.035C1434.58 828.298 1434.2 828.078 1433.9 827.83C1433.73 827.692 1433.65 827.478 1433.65 827.259Z" fill="white"/>
<path d="M1452.92 827.259V826.509C1452.92 826.056 1452.55 825.688 1452.1 825.688H1451.72C1451.27 825.682 1450.13 825.711 1449.11 825.869C1448.28 825.998 1447.58 826.615 1447.19 827.075C1447.04 827.253 1446.97 827.52 1447.14 827.686C1447.25 827.801 1447.41 827.855 1447.63 827.71C1447.99 827.467 1449.55 827.289 1450.42 827.218C1450.53 827.209 1450.64 827.223 1450.74 827.263C1451.16 827.423 1451.78 827.731 1451.89 828.035C1451.98 828.298 1452.36 828.078 1452.67 827.83C1452.84 827.692 1452.92 827.478 1452.92 827.259Z" fill="white"/>
<path d="M1397.2 839.363C1394.8 839.363 1393.02 838.047 1392.44 837.389V842.198C1393.55 842.971 1395.06 842.671 1397.2 842.671C1398.92 842.671 1403.1 840.295 1404.98 839.107L1406.82 838.677C1407.68 838.906 1409.4 838.822 1409.4 836.658C1409.4 834.494 1405.79 835.442 1403.99 836.187C1402.73 837.246 1399.61 839.363 1397.2 839.363Z" fill="white"/>
<path d="M1489.69 839.363C1492.1 839.363 1493.87 838.047 1494.46 837.389V842.198C1493.35 842.971 1491.84 842.671 1489.69 842.671C1487.98 842.671 1483.8 840.295 1481.92 839.107L1480.08 838.677C1479.22 838.906 1477.5 838.822 1477.5 836.658C1477.5 834.494 1481.11 835.442 1482.91 836.187C1484.17 837.246 1487.29 839.363 1489.69 839.363Z" fill="white"/>
<path d="M1397.8 846.665C1396.67 847.524 1393.94 847.023 1392.72 846.665L1393.4 851.01C1394.34 851.281 1396.73 850.559 1397.8 850.164C1399.06 849.035 1402.58 847.586 1404.18 847.003L1406.26 846.665L1406.66 843.617H1404.18C1402.52 844.275 1398.93 845.807 1397.8 846.665Z" fill="white"/>
<path d="M1489.1 846.665C1490.23 847.524 1492.95 847.023 1494.18 846.665L1493.5 851.01C1492.55 851.281 1490.17 850.559 1489.1 850.164C1487.83 849.035 1484.32 847.586 1482.72 847.003L1480.63 846.665L1480.24 843.617H1482.72C1484.38 844.275 1487.97 845.807 1489.1 846.665Z" fill="white"/>
<path d="M1421.55 834.723C1420.45 828.756 1422.82 824.233 1424.14 822.718C1423.39 822.718 1422.1 824.07 1421.55 824.746C1419.47 827.393 1419.02 831.466 1419.05 833.171C1419.1 834.096 1419.37 836.668 1420.15 839.56C1420.92 842.451 1420.61 845.041 1420.35 845.974C1419.79 847.221 1418.36 850.108 1417.09 851.676C1415.83 853.244 1414.87 856.775 1414.55 858.344L1411.44 860.635C1411.06 860.805 1410.13 861.231 1409.46 861.577C1408.79 861.923 1407.46 861.721 1406.89 861.577C1406.7 862.575 1407.12 864.165 1407.34 864.835C1407.06 864.794 1405.8 865.005 1405.21 865.115L1400.57 867.609L1402.2 870.435L1404.21 869.086C1405.42 868.088 1407.43 868.008 1408.29 868.093C1408.74 869.987 1409.51 870.833 1409.84 871.02C1411.12 871.692 1414.12 870.18 1415.46 869.34L1419.89 865.726C1417.65 862.957 1417.09 858.837 1417.09 857.123C1417.43 855.485 1418.8 851.452 1421.55 848.418C1424.3 845.384 1423.49 841.248 1422.74 839.56L1421.55 834.723Z" fill="white"/>
<path d="M1465.51 834.723C1466.61 828.756 1464.24 824.233 1462.92 822.718C1463.67 822.718 1464.96 824.07 1465.51 824.746C1467.59 827.393 1468.04 831.466 1468 833.171C1467.96 834.096 1467.68 836.668 1466.91 839.56C1466.14 842.451 1466.45 845.041 1466.71 845.974C1467.27 847.221 1468.7 850.108 1469.96 851.676C1471.23 853.244 1472.19 856.775 1472.51 858.344L1475.61 860.635C1476 860.805 1476.93 861.231 1477.6 861.577C1478.27 861.923 1479.59 861.721 1480.17 861.577C1480.35 862.575 1479.94 864.165 1479.71 864.835C1480 864.794 1481.26 865.005 1481.85 865.115L1486.48 867.609L1484.85 870.435L1482.84 869.086C1481.64 868.088 1479.63 868.008 1478.77 868.093C1478.32 869.987 1477.55 870.833 1477.22 871.02C1475.93 871.692 1472.93 870.18 1471.59 869.34L1467.16 865.726C1469.4 862.957 1469.96 858.837 1469.96 857.123C1469.62 855.485 1468.26 851.452 1465.51 848.418C1462.76 845.384 1463.57 841.248 1464.31 839.56L1465.51 834.723Z" fill="white"/>
<path d="M1423.71 874.646C1424.35 873.079 1423.44 870.943 1422.91 870.071L1422.1 874.34C1421.77 875.24 1420.82 877.41 1419.64 878.89C1418.45 880.37 1417.27 882.99 1416.83 884.115L1418.64 885.573C1418.32 883.866 1420 880.944 1420.88 879.696C1421.56 878.665 1423.07 876.213 1423.71 874.646Z" fill="white"/>
<path d="M1463.14 874.646C1462.5 873.079 1463.4 870.943 1463.94 870.071L1464.75 874.34C1465.07 875.24 1466.02 877.41 1467.21 878.89C1468.39 880.37 1469.57 882.99 1470.02 884.115L1468.21 885.573C1468.52 883.866 1466.84 880.944 1465.97 879.696C1465.29 878.665 1463.78 876.213 1463.14 874.646Z" fill="white"/>
<path d="M1412.76 879.723L1411.71 880.528L1409.18 878.032L1411.26 877.147C1411.91 876.871 1412.66 877.084 1413.07 877.658C1413.54 878.318 1413.4 879.231 1412.76 879.723Z" fill="white"/>
<path d="M1406.72 875.426L1404.37 872.93L1407.27 871.646L1408.72 871.477C1409.19 871.422 1409.66 871.591 1409.99 871.935L1410.13 872.073C1410.32 872.27 1410.42 872.533 1410.42 872.806C1410.42 873.29 1410.1 873.711 1409.63 873.831L1408.55 874.105L1406.72 875.426Z" fill="white"/>
<path d="M1399.62 853.17C1398.36 854.032 1395.82 854.554 1394.7 854.707L1395.66 858.016C1396.43 858.016 1397.47 857.631 1397.89 857.439C1398.79 857.054 1400.85 856.077 1401.89 855.246C1402.94 854.415 1404.82 854.131 1405.62 854.092V851.169C1403.97 851.092 1401.2 852.092 1399.62 853.17Z" fill="white"/>
<path d="M1400.2 860.4C1399.65 860.923 1397.92 861.285 1397.12 861.4L1398.7 864.671C1399.78 864.17 1402.08 862.993 1402.66 862.286C1403.25 861.578 1405.34 861.144 1406.32 861.016C1406.38 859.939 1405.98 858.747 1405.78 858.285C1403.93 857.631 1400.89 859.747 1400.2 860.4Z" fill="white"/>
<path d="M1474.02 879.723L1475.07 880.528L1477.6 878.032L1475.52 877.147C1474.87 876.871 1474.12 877.084 1473.71 877.658C1473.24 878.318 1473.38 879.231 1474.02 879.723Z" fill="white"/>
<path d="M1480.06 875.426L1482.41 872.93L1479.51 871.646L1478.06 871.477C1477.59 871.422 1477.11 871.591 1476.78 871.935L1476.65 872.073C1476.46 872.27 1476.35 872.533 1476.35 872.806C1476.35 873.29 1476.68 873.711 1477.15 873.831L1478.23 874.105L1480.06 875.426Z" fill="white"/>
<path d="M1487.15 853.17C1488.42 854.032 1490.96 854.554 1492.08 854.707L1491.12 858.016C1490.35 858.016 1489.31 857.631 1488.89 857.439C1487.99 857.054 1485.93 856.077 1484.88 855.246C1483.84 854.415 1481.96 854.131 1481.15 854.092V851.169C1482.81 851.092 1485.58 852.092 1487.15 853.17Z" fill="white"/>
<path d="M1486.58 860.4C1487.13 860.923 1488.86 861.285 1489.66 861.4L1488.08 864.671C1487 864.17 1484.7 862.993 1484.12 862.286C1483.53 861.578 1481.44 861.144 1480.46 861.016C1480.4 859.939 1480.79 858.747 1481 858.285C1482.85 857.631 1485.89 859.747 1486.58 860.4Z" fill="white"/>
<path d="M1430.64 831.757C1429.01 826.412 1432.25 821.158 1434.07 819.2C1432.92 819.89 1430.31 822.159 1428.99 825.711C1427.67 829.263 1428.67 833.251 1429.33 834.801C1429.76 835.605 1430.85 837.922 1431.7 840.763C1432.54 843.605 1432.05 846.401 1431.7 847.444L1428.44 851.757C1427.64 853.237 1426.07 856.678 1426.24 858.606C1426.41 860.535 1428.06 862.877 1428.86 863.807C1430.1 865.203 1432.73 868.61 1433.3 871.08C1433.88 873.549 1432.75 876.252 1432.12 877.295C1431.27 878.648 1429.35 881.887 1428.44 884.018C1427.53 886.149 1427.84 888.627 1428.1 889.599L1431.74 890.53C1430.32 888.737 1431.01 884.991 1431.53 883.342L1434.4 877.887C1434.93 876.901 1435.97 874.319 1435.97 871.883C1435.97 869.448 1434.19 866.64 1433.3 865.541L1430.55 862.158C1428.66 859.418 1429.12 856.394 1429.58 855.224C1430 854.364 1431.34 851.934 1433.3 849.093C1435.26 846.252 1434.85 842.807 1434.4 841.44C1433.82 840.439 1432.26 837.102 1430.64 831.757Z" fill="white"/>
<path d="M1456.6 831.757C1458.22 826.412 1454.99 821.158 1453.17 819.2C1454.31 819.89 1456.93 822.159 1458.25 825.711C1459.57 829.263 1458.57 833.251 1457.91 834.801C1457.47 835.605 1456.39 837.922 1455.54 840.763C1454.69 843.605 1455.19 846.401 1455.54 847.444L1458.79 851.757C1459.6 853.237 1461.16 856.678 1460.99 858.606C1460.82 860.535 1459.18 862.877 1458.37 863.807C1457.13 865.203 1454.51 868.61 1453.93 871.08C1453.36 873.549 1454.48 876.252 1455.12 877.295C1455.96 878.648 1457.88 881.887 1458.79 884.018C1459.71 886.149 1459.4 888.627 1459.13 889.599L1455.5 890.53C1456.92 888.737 1456.23 884.991 1455.71 883.342L1452.83 877.887C1452.31 876.901 1451.27 874.319 1451.27 871.883C1451.27 869.448 1453.04 866.64 1453.93 865.541L1456.68 862.158C1458.57 859.418 1458.12 856.394 1457.65 855.224C1457.23 854.364 1455.89 851.934 1453.93 849.093C1451.97 846.252 1452.38 842.807 1452.83 841.44C1453.41 840.439 1454.97 837.102 1456.6 831.757Z" fill="white"/>
<path d="M1425.74 831.866C1425.15 827.368 1428.09 822.19 1429.63 820.164C1427.11 821.277 1425.55 824.187 1425.09 825.503C1424.15 826.98 1423.71 830.549 1423.61 832.149C1423.75 833.115 1424.28 835.643 1425.26 838.029C1426.48 841.011 1426.62 842.886 1426.68 844.107C1426.72 845.084 1426.01 846.881 1425.65 847.657L1422.39 851.861C1421.66 852.912 1420.18 855.536 1420.09 857.626C1420 859.717 1421 861.868 1421.51 862.682L1425.88 868.277C1426.32 869.12 1427.23 871.134 1427.39 872.452C1427.54 873.77 1426.73 875.709 1426.31 876.514C1425.88 877.186 1424.64 879.138 1423.1 881.57C1421.55 884.001 1421.39 886.256 1421.51 887.08L1424.66 888.5C1424.11 886.796 1424.89 883.946 1425.34 882.734L1427.76 878.928C1428.3 878.067 1429.48 875.792 1429.91 873.588C1430.35 871.384 1429.2 869.016 1428.58 868.107L1425.91 864.926C1425 864.036 1423.11 861.631 1422.84 859.132C1422.57 856.632 1423.85 853.868 1424.52 852.798L1427.5 848.424C1429.64 846.265 1429.53 843.113 1429.2 841.806C1428.77 840.377 1427.73 837.285 1427.05 836.353C1426.36 835.421 1425.89 832.974 1425.74 831.866Z" fill="white"/>
<path d="M1461.44 831.866C1462.03 827.368 1459.1 822.19 1457.55 820.164C1460.08 821.277 1461.63 824.187 1462.1 825.503C1463.03 826.98 1463.47 830.549 1463.58 832.149C1463.43 833.115 1462.9 835.643 1461.93 838.029C1460.71 841.011 1460.56 842.886 1460.51 844.107C1460.46 845.084 1461.17 846.881 1461.53 847.657L1464.8 851.861C1465.53 852.912 1467.01 855.536 1467.1 857.626C1467.19 859.717 1466.19 861.868 1465.68 862.682L1461.3 868.277C1460.87 869.12 1459.96 871.134 1459.8 872.452C1459.64 873.77 1460.45 875.709 1460.88 876.514C1461.3 877.186 1462.54 879.138 1464.09 881.57C1465.63 884.001 1465.79 886.256 1465.68 887.08L1462.52 888.5C1463.07 886.796 1462.3 883.946 1461.84 882.734L1459.43 878.928C1458.89 878.067 1457.7 875.792 1457.27 873.588C1456.84 871.384 1457.98 869.016 1458.6 868.107L1461.27 864.926C1462.18 864.036 1464.07 861.631 1464.34 859.132C1464.61 856.632 1463.34 853.868 1462.67 852.798L1459.68 848.424C1457.55 846.265 1457.66 843.113 1457.98 841.806C1458.42 840.377 1459.46 837.285 1460.14 836.353C1460.82 835.421 1461.29 832.974 1461.44 831.866Z" fill="white"/>
</g>
<path d="M598.775 967.008L695.851 889.874C757.7 1017.55 894.872 1090.73 1035.36 1071L1103.08 1061.49L1341.67 998.231C1482.42 960.915 1632.52 992.238 1746.6 1082.73L1697.85 1174.47C1574.32 1099.42 1423.99 1082.69 1286.99 1128.73L1189.38 1161.53C1155.76 1172.83 1121.32 1181.54 1086.37 1187.57C911.735 1217.71 734.903 1147.68 628.257 1006.14L598.775 967.008Z" fill="#508664" stroke="black" stroke-width="3.37016"/>
<path d="M1698.72 1174.94L1714.26 1059.73C1845.26 1153.11 2022.98 1145.48 2145.49 1041.22L2189.42 1003.83L2349.4 828.065C2451.53 715.858 2604.74 664.957 2753.71 693.738L2758.59 797.512C2614.06 796.003 2476.23 858.321 2381.9 967.825L2279.92 1086.2L2258.15 1107.24C2107.82 1252.42 1879.34 1280.07 1698.72 1174.94Z" fill="#508664" stroke="black" stroke-width="3.37016"/>
<path d="M1701.25 1174.15L1688.17 1166.27L1692.33 1142.47L1709.45 1058.18L1717.25 1064.39L1701.25 1174.15Z" fill="#508664"/>
<path d="M640.897 1035.26L609.409 1003.61L704.935 908.559L736.469 940.25C722.461 982.569 690.186 1016.38 648.523 1032.34L640.897 1035.26Z" fill="#508664" stroke="black" stroke-width="3.37016"/>
<path fill-rule="evenodd" clip-rule="evenodd" d="M506.968 876.26C492.439 866.005 466.452 851.846 439.7 839.344C423.201 831.633 400.562 823.127 384.583 817.384C371.959 812.847 358.286 812.342 345.274 815.605C323.439 821.08 319.91 850.623 339.84 861.087L351.231 867.068C354.607 868.84 358.095 870.374 361.685 871.658C373.961 876.049 404.589 886.96 425.726 894.122C441.879 899.596 458.408 907.152 470.92 912.87C473.555 914.075 476.012 915.198 478.249 916.203C514.594 954.307 587.654 997.63 604.908 1003.8L615.609 1000.34C680.282 979.466 723.031 917.945 720.042 850.051L649.555 763.521L613.569 790.603L552.714 823.873L506.968 876.26Z" fill="#978172"/>
<path d="M506.968 876.26L505.997 877.637L507.238 878.513L508.237 877.368L506.968 876.26ZM439.7 839.344L438.986 840.87L438.986 840.87L439.7 839.344ZM384.583 817.384L384.013 818.97L384.014 818.97L384.583 817.384ZM345.274 815.605L344.864 813.97L344.864 813.97L345.274 815.605ZM339.84 861.087L340.624 859.595L340.624 859.595L339.84 861.087ZM351.231 867.068L350.447 868.56L350.447 868.56L351.231 867.068ZM361.685 871.658L361.118 873.245L361.118 873.245L361.685 871.658ZM425.726 894.122L425.185 895.718L425.185 895.718L425.726 894.122ZM470.92 912.87L470.219 914.403L470.219 914.403L470.92 912.87ZM478.249 916.203L479.468 915.04L479.241 914.801L478.939 914.666L478.249 916.203ZM604.908 1003.8L604.341 1005.38L604.88 1005.58L605.426 1005.4L604.908 1003.8ZM615.609 1000.34L616.127 1001.95L616.127 1001.95L615.609 1000.34ZM720.042 850.051L721.725 849.977L721.701 849.42L721.348 848.987L720.042 850.051ZM649.555 763.521L650.862 762.457L649.838 761.2L648.542 762.175L649.555 763.521ZM613.569 790.603L614.377 792.081L614.485 792.023L614.582 791.949L613.569 790.603ZM552.714 823.873L551.906 822.394L551.642 822.538L551.445 822.764L552.714 823.873ZM507.94 874.883C493.289 864.543 467.198 850.335 440.413 837.817L438.986 840.87C465.706 853.358 491.588 867.467 505.997 877.637L507.94 874.883ZM440.413 837.817C423.838 830.071 401.136 821.542 385.153 815.799L384.014 818.97C399.988 824.711 422.563 833.195 438.986 840.87L440.413 837.817ZM385.153 815.799C372.2 811.144 358.185 810.63 344.864 813.97L345.683 817.239C358.387 814.054 371.718 814.551 384.013 818.97L385.153 815.799ZM344.864 813.97C321.528 819.822 317.756 851.395 339.057 862.579L340.624 859.595C322.063 849.85 325.349 822.338 345.683 817.239L344.864 813.97ZM339.057 862.579L350.447 868.56L352.014 865.576L340.624 859.595L339.057 862.579ZM350.447 868.56C353.892 870.368 357.453 871.934 361.118 873.245L362.253 870.072C358.738 868.815 355.321 867.312 352.014 865.576L350.447 868.56ZM361.118 873.245C373.392 877.635 404.033 888.55 425.185 895.718L426.267 892.526C405.145 885.369 374.529 874.462 362.253 870.072L361.118 873.245ZM425.185 895.718C441.244 901.16 457.696 908.679 470.219 914.403L471.62 911.338C459.121 905.624 442.515 898.032 426.267 892.526L425.185 895.718ZM470.219 914.403C472.853 915.607 475.315 916.732 477.559 917.74L478.939 914.666C476.708 913.663 474.257 912.543 471.62 911.338L470.219 914.403ZM477.03 917.366C495.335 936.558 522.814 956.998 547.814 973.386C572.776 989.749 595.504 1002.23 604.341 1005.38L605.475 1002.21C597.057 999.202 574.628 986.933 549.661 970.567C524.732 954.225 497.507 933.952 479.468 915.04L477.03 917.366ZM605.426 1005.4L616.127 1001.95L615.092 998.74L604.39 1002.19L605.426 1005.4ZM616.127 1001.95C681.522 980.836 724.748 918.629 721.725 849.977L718.358 850.126C721.314 917.261 679.043 978.095 615.092 998.74L616.127 1001.95ZM721.348 848.987L650.862 762.457L648.249 764.585L718.735 851.116L721.348 848.987ZM648.542 762.175L612.556 789.256L614.582 791.949L650.569 764.868L648.542 762.175ZM612.761 789.124L551.906 822.394L553.523 825.351L614.377 792.081L612.761 789.124ZM551.445 822.764L505.699 875.152L508.237 877.368L553.984 824.981L551.445 822.764Z" fill="black"/>
<path d="M417.988 719.779C440.407 735.962 462.161 757.664 470.269 763.425L488.973 750.532C488.973 750.532 509.376 737.99 502.327 728.496C491.919 714.476 470.353 692.261 447.453 671.532C433.952 659.31 414.816 644.522 401.233 634.334C390.5 626.285 377.581 621.781 364.185 621.073C341.705 619.884 329.644 647.083 345.616 662.946L354.743 672.012C357.449 674.698 360.332 677.191 363.385 679.474C373.827 687.28 399.892 706.716 417.988 719.779Z" fill="#978172" stroke="black" stroke-width="3.37016"/>
<path d="M375.856 751.863C402.001 760.86 429.108 775.332 438.536 778.498L452.705 760.741C452.705 760.741 468.602 742.828 459.106 735.782C445.083 725.377 418.008 710.36 390.087 697.15C373.624 689.362 351.026 680.749 335.074 674.932C322.471 670.336 308.801 669.766 295.774 672.967C273.913 678.34 270.245 707.866 290.126 718.424L301.489 724.458C304.856 726.246 308.337 727.797 311.921 729.098C324.176 733.546 354.753 744.601 375.856 751.863Z" fill="#978172" stroke="black" stroke-width="3.37016"/>
<path d="M377.218 817.835C404.022 824.621 432.241 836.783 441.901 839.152L454.54 820.276C454.54 820.276 468.888 801.1 458.838 794.87C443.996 785.67 415.764 772.962 386.839 762.126C369.784 755.737 346.546 749.039 330.165 744.571C317.223 741.042 303.553 741.613 290.837 745.889C269.501 753.066 268.307 782.795 288.999 791.659L300.825 796.724C304.33 798.226 307.928 799.481 311.608 800.478C324.191 803.889 355.583 812.357 377.218 817.835Z" fill="#978172" stroke="black" stroke-width="3.37016"/>
<path d="M584.818 829.111C590.694 849.163 612.746 890.327 653.944 894.567" stroke="black" stroke-width="3.37016"/>
<path fill-rule="evenodd" clip-rule="evenodd" d="M412.644 606.627L659.17 843.956C663.19 847.826 663.666 854.097 660.276 858.53L582.033 960.848C581.665 961.329 581.265 961.771 580.839 962.174C574.83 967.844 562.58 968.472 556.009 963.464V963.464L282.642 755.101C276.878 750.708 275.906 742.41 280.499 736.803L385.889 608.132C385.922 608.092 385.956 608.051 385.989 608.011C391.82 601.093 406.126 600.352 412.644 606.627V606.627Z" fill="#C4C4C4"/>
<path d="M659.17 843.956L660.339 842.742L660.339 842.742L659.17 843.956ZM660.276 858.53L661.615 859.554L661.615 859.554L660.276 858.53ZM582.033 960.848L580.694 959.825L580.694 959.825L582.033 960.848ZM282.642 755.101L281.621 756.441L282.642 755.101ZM280.499 736.803L279.195 735.735L279.195 735.735L280.499 736.803ZM385.889 608.132L387.193 609.2L387.193 609.2L385.889 608.132ZM385.989 608.011L384.701 606.926L385.989 608.011ZM580.839 962.174L579.682 960.948L580.839 962.174ZM660.339 842.742L413.812 605.413L411.475 607.84L658.001 845.17L660.339 842.742ZM661.615 859.554C665.525 854.44 664.976 847.206 660.339 842.742L658.001 845.17C661.404 848.446 661.807 853.754 658.938 857.507L661.615 859.554ZM583.372 961.872L661.615 859.554L658.938 857.507L580.694 959.825L583.372 961.872ZM581.995 963.4C582.488 962.935 582.948 962.425 583.372 961.872L580.694 959.825C580.382 960.233 580.043 960.608 579.682 960.948L581.995 963.4ZM281.621 756.441L554.988 964.804L557.031 962.124L283.664 753.761L281.621 756.441ZM279.195 735.735C273.998 742.08 275.098 751.47 281.621 756.441L283.664 753.761C278.658 749.946 277.814 742.74 281.802 737.871L279.195 735.735ZM384.585 607.065L279.195 735.735L281.802 737.871L387.193 609.2L384.585 607.065ZM384.701 606.926C384.662 606.972 384.624 607.018 384.585 607.065L387.193 609.2C387.221 609.166 387.249 609.131 387.278 609.097L384.701 606.926ZM387.278 609.097C389.797 606.109 394.319 604.305 399.146 604.054C403.974 603.804 408.659 605.129 411.475 607.84L413.812 605.413C410.11 601.849 404.384 600.408 398.971 600.689C393.559 600.97 388.013 602.996 384.701 606.926L387.278 609.097ZM579.682 960.948C577.048 963.435 572.907 964.915 568.548 965.141C564.188 965.366 559.913 964.321 557.031 962.124L554.988 964.804C558.676 967.615 563.811 968.76 568.722 968.506C573.632 968.252 578.621 966.584 581.995 963.4L579.682 960.948Z" fill="black"/>
<path d="M657.72 844.413L412.641 606.685C408.03 602.212 400.579 602.638 396.508 607.609L289.946 737.71C286.009 742.516 286.843 749.628 291.783 753.394L566.6 962.861C571.438 966.549 578.352 965.598 582.015 960.742L658.84 858.901C662.175 854.481 661.694 848.268 657.72 844.413Z" fill="#C4C4C4" stroke="black" stroke-width="3.37016"/>
<path d="M647.725 843.511L413.477 619.97C408.852 615.556 401.448 616.014 397.401 620.964L302.772 736.737C298.838 741.55 299.682 748.666 304.634 752.425L565.73 950.643C570.58 954.324 577.499 953.355 581.15 948.483L648.93 858.034C652.263 853.586 651.746 847.348 647.725 843.511Z" fill="white" stroke="black" stroke-width="3.37016"/>
<path d="M655.65 840.639L653.038 773.148C648.91 758.184 629.836 728.676 586.567 730.35C576.995 730.721 568.73 731.962 561.631 733.774C545.202 737.967 535.018 745.216 529.334 751.798C526.372 755.228 524.632 758.477 523.865 761.018C520.68 774.412 520.884 801.225 547.184 801.319C573.484 801.412 592.941 791.369 599.382 786.336L655.65 840.639Z" fill="#978172"/>
<path d="M561.631 733.774C568.73 731.962 576.995 730.721 586.567 730.35C629.836 728.676 648.91 758.184 653.038 773.148L655.65 840.639L599.382 786.336C592.941 791.369 573.484 801.412 547.184 801.319C520.884 801.225 520.68 774.412 523.865 761.018C524.632 758.477 526.372 755.228 529.334 751.798M561.631 733.774C566.841 744.172 573.326 766.233 557.596 771.286C541.866 776.339 532.2 760.4 529.334 751.798M561.631 733.774C545.202 737.967 535.018 745.216 529.334 751.798" stroke="black" stroke-width="3.37016"/>
<path d="M665.973 848.424L702.014 831.903L661.629 782.453L652.884 770.659L647.376 763.528L634.45 816.759L665.973 848.424Z" fill="#978172"/>
<path d="M405.369 723.909L435.868 733.587C438.484 734.417 441.344 733.751 443.325 731.852L466.421 709.706C469.036 707.199 473.381 709.035 473.406 712.657L473.627 744.654C473.646 747.398 475.162 749.913 477.581 751.21L505.78 766.332C508.972 768.044 508.569 772.744 505.132 773.887L474.769 783.984C472.165 784.85 470.242 787.07 469.756 789.771L464.088 821.263C463.446 824.828 458.852 825.897 456.703 822.981L437.717 797.225C436.088 795.016 433.383 793.873 430.664 794.245L398.962 798.586C395.373 799.078 392.937 795.038 395.046 792.093L413.674 766.077C415.272 763.846 415.523 760.92 414.329 758.449L400.404 729.64C398.827 726.379 401.916 722.813 405.369 723.909Z" fill="#E3BE63" stroke="black" stroke-width="3.37016"/>
<rect x="0.163447" y="2.76105" width="133.053" height="28.3052" transform="matrix(-0.664085 0.747657 0.747657 0.664085 773.673 981.67)" fill="#E3BE63" stroke="black" stroke-width="3.91155"/>
<circle cx="32.9735" cy="32.9735" r="31.0177" transform="matrix(-0.920531 0.39067 0.39067 0.920531 759.008 1000.09)" fill="white" stroke="black" stroke-width="3.91155"/>
<path d="M755.432 1028.68L738.124 1048.03L724.877 1047.95" stroke="black" stroke-width="3.91155" stroke-linecap="round"/>
<path d="M787.004 1001.38L771.974 1018.22" stroke="white" stroke-width="3.00907" stroke-linecap="round"/>
<path d="M722.449 1075.79L707.42 1092.63" stroke="white" stroke-width="3.00907" stroke-linecap="round"/>
</g>
<defs>
<clipPath id="clip0_667_1700">
<rect width="2160" height="1280" fill="white"/>
</clipPath>
</defs>
</svg>
