<svg width="2160" height="1280" viewBox="0 0 2160 1280" fill="none" xmlns="http://www.w3.org/2000/svg">
<rect width="2160" height="1280" fill="#F7F7F7"/>
<circle cx="314" cy="730" r="33" fill="#3A7AF2"/>
<circle cx="478" cy="640" r="33" fill="#3A7AF2"/>
<circle cx="478" cy="552" r="33" fill="#3A7AF2"/>
<circle cx="569" cy="640" r="33" fill="#3A7AF2"/>
<circle cx="569" cy="552" r="33" fill="#3A7AF2"/>
<circle cx="1242" cy="640" r="33" fill="#3A7AF2"/>
<circle cx="1242" cy="552" r="33" fill="#3A7AF2"/>
<circle cx="1333" cy="640" r="33" fill="#3A7AF2"/>
<circle cx="1759" cy="552" r="33" fill="#E84236"/>
<circle cx="1846" cy="640" r="33" fill="#E84236"/>
<circle cx="1333" cy="552" r="33" fill="#3A7AF2"/>
<circle cx="823" cy="640" r="33" fill="#E84236"/>
<circle cx="735" cy="552" r="33" fill="#E84236"/>
<circle cx="735" cy="730" r="33" fill="#E84236"/>
<circle cx="1078" cy="640" r="33" fill="#FBB405"/>
<circle cx="995" cy="552" r="33" fill="#FBB405"/>
<circle cx="995" cy="730" r="33" fill="#FBB405"/>
<circle cx="1502" cy="640" r="33" fill="#2D9E49"/>
<circle cx="1502" cy="552" r="33" fill="#2D9E49"/>
<circle cx="1502" cy="730" r="33" fill="#2D9E49"/>
</svg>
