<svg width="1486" height="991" viewBox="0 0 1486 991" fill="none" xmlns="http://www.w3.org/2000/svg">
<rect width="1485.81" height="990.658" fill="#131313"/>
<path fill-rule="evenodd" clip-rule="evenodd" d="M795.54 588.059C796.437 590.591 797.063 593.547 798.314 599.458L801.321 613.657C804.441 628.393 817.83 638.972 833.36 638.972C856.259 638.972 872.069 616.766 863.93 596.033L786.514 398.819C785.583 396.448 785.117 395.262 784.631 394.203C778.076 379.948 763.841 370.439 747.755 369.571C746.561 369.507 745.251 369.507 742.632 369.507C740.006 369.507 738.693 369.507 737.495 369.572C721.373 370.443 707.114 379.995 700.581 394.299C700.097 395.361 699.633 396.551 698.706 398.931L621.833 596.321C613.803 616.939 629.534 638.972 652.285 638.972C667.773 638.972 681.116 628.399 684.185 613.694L687.157 599.458C688.367 593.657 688.973 590.757 689.838 588.27C695.104 573.15 708.828 562.276 725.172 560.272C727.86 559.942 730.914 559.943 737.024 559.943H748.304C754.533 559.943 757.648 559.943 760.389 560.285C776.606 562.314 790.23 573.079 795.54 588.059ZM743.005 539.615C760.456 539.615 774.603 525.912 774.603 509.008C774.603 492.105 760.456 478.402 743.005 478.402C725.555 478.402 711.408 492.105 711.408 509.008C711.408 525.912 725.555 539.615 743.005 539.615Z" fill="white"/>
</svg>
