<svg width="1433" height="604" viewBox="0 0 1433 604" fill="none" xmlns="http://www.w3.org/2000/svg">
<g clip-path="url(#clip0_768_2425)">
<mask id="mask0_768_2425" style="mask-type:luminance" maskUnits="userSpaceOnUse" x="0" y="0" width="1433" height="604">
<path d="M1432.79 0.170898H0.781616V603.177H1432.79V0.170898Z" fill="white"/>
</mask>
<g mask="url(#mask0_768_2425)">
<path d="M1432.79 0.170898H0.781616V603.177H1432.79V0.170898Z" fill="#211D4F"/>
<g style="mix-blend-mode:overlay">
<path d="M1.6194 0.171875L1.61938 602.185" stroke="white" stroke-opacity="0.49" stroke-width="1.11054"/>
<path d="M75.1374 0.171875L75.1373 602.185" stroke="white" stroke-opacity="0.49" stroke-width="1.11054"/>
<path d="M148.656 0.171875V602.185" stroke="white" stroke-opacity="0.49" stroke-width="1.11054"/>
<path d="M222.174 0.171875V602.185" stroke="white" stroke-opacity="0.49" stroke-width="1.11054"/>
<path d="M295.692 0.171875V602.185" stroke="white" stroke-opacity="0.49" stroke-width="1.11054"/>
<path d="M369.209 0.171875V602.185" stroke="white" stroke-opacity="0.49" stroke-width="1.11054"/>
<path d="M442.728 0.171875V602.185" stroke="white" stroke-opacity="0.49" stroke-width="1.11054"/>
<path d="M516.245 0.171875V602.185" stroke="white" stroke-opacity="0.49" stroke-width="1.11054"/>
<path d="M589.764 0.171875V602.185" stroke="white" stroke-opacity="0.49" stroke-width="1.11054"/>
<path d="M663.283 0.171875V602.185" stroke="white" stroke-opacity="0.49" stroke-width="1.11054"/>
<path d="M736.8 0.171875V602.185" stroke="white" stroke-opacity="0.49" stroke-width="1.11054"/>
<path d="M810.319 0.171875V602.185" stroke="white" stroke-opacity="0.49" stroke-width="1.11054"/>
<path d="M883.836 0.171875V602.185" stroke="white" stroke-opacity="0.49" stroke-width="1.11054"/>
<path d="M957.355 0.171875V602.185" stroke="white" stroke-opacity="0.49" stroke-width="1.11054"/>
<path d="M1030.88 0.171875V602.185" stroke="white" stroke-opacity="0.49" stroke-width="1.11054"/>
<path d="M1104.4 0.171875V602.185" stroke="white" stroke-opacity="0.49" stroke-width="1.11054"/>
<path d="M1177.9 0.171875V602.185" stroke="white" stroke-opacity="0.49" stroke-width="1.11054"/>
<path d="M1251.42 0.171875V602.185" stroke="white" stroke-opacity="0.49" stroke-width="1.11054"/>
<path d="M1324.94 0.171875V602.185" stroke="white" stroke-opacity="0.49" stroke-width="1.11054"/>
<path d="M1398.46 0.171875V602.185" stroke="white" stroke-opacity="0.49" stroke-width="1.11054"/>
</g>
<g style="mix-blend-mode:overlay">
<path d="M1432.79 1.41997L0.78418 1.41992" stroke="white" stroke-opacity="0.49" stroke-width="1.65968"/>
<path d="M1432.79 74.8614L0.78418 74.8613" stroke="white" stroke-opacity="0.49" stroke-width="1.65968"/>
<path d="M1432.79 148.306H0.78418" stroke="white" stroke-opacity="0.49" stroke-width="1.65968"/>
<path d="M1432.79 221.747H0.78418" stroke="white" stroke-opacity="0.49" stroke-width="1.65968"/>
<path d="M1432.79 295.188H0.78418" stroke="white" stroke-opacity="0.49" stroke-width="1.65968"/>
<path d="M1432.79 368.63H0.78418" stroke="white" stroke-opacity="0.49" stroke-width="1.65968"/>
<path d="M1432.79 442.073H0.78418" stroke="white" stroke-opacity="0.49" stroke-width="1.65968"/>
<path d="M1432.79 515.515H0.78418" stroke="white" stroke-opacity="0.49" stroke-width="1.65968"/>
</g>
<path d="M936.335 389.119C935.116 365.923 932.393 342.832 930.033 319.715C927.31 293.096 924.535 266.475 921.293 239.907C919.634 226.338 917.611 212.794 915.432 199.277C915.277 194.14 915.095 189.132 914.758 185.915C914.032 179.04 905.267 171.308 896.189 168.973C887.113 166.638 880.682 164.848 878.037 163.784C875.392 162.72 870.334 160.384 868.13 159.763C865.925 159.14 862.321 156.908 859.364 152.134C857.004 148.32 856.33 142.353 856.304 139.862C857.678 138.513 861.075 134.88 863.695 131.092C866.963 126.319 868.441 123.257 869.401 120.403C870.153 118.12 871.398 116.771 871.942 116.382C872.331 116.252 873.498 115.656 875.106 114.487C877.103 113.009 876.999 108.027 877.31 106.652C877.621 105.277 878.685 103.046 878.892 99.128C879.048 95.9887 875.806 95.7033 874.147 95.9627C874.043 94.6914 873.809 91.552 873.732 89.191C873.627 86.2332 872.357 78.0864 868.13 69.0834C864.759 61.8965 856.875 57.6155 853.374 56.3961C853.504 54.4502 853.062 49.8061 850.106 46.6667C846.423 42.7489 839.655 41.4776 834.702 45.7066C830.734 49.1055 830.319 54.2427 830.578 56.3961C828.218 57.1485 822.616 59.7171 819.09 64.1278C814.655 69.6282 811.18 77.8789 810.869 84.6506C810.609 90.0731 810.557 94.3801 810.557 95.859C809.65 95.5995 807.523 95.392 806.33 96.4817C804.852 97.8568 805.604 102.19 806.33 104.213C807.056 106.211 807.186 109.194 807.393 110.57C807.601 111.945 808.353 113.217 809.832 114.28C811.024 115.136 813.125 117.108 814.059 117.99C814.525 119.183 816.108 122.998 818.804 128.679C821.501 134.362 825.91 138.513 827.777 139.888C827.207 142.768 825.832 149.28 824.821 152.16C823.55 155.767 819.349 158.309 816.185 159.243C813.021 160.204 807.109 163.576 802.907 165.703C798.68 167.831 791.73 166.975 781.071 171.619C770.413 176.263 769.142 187.913 769.142 197.954C769.142 198.213 769.142 198.421 769.142 198.68C766.963 212.197 764.94 225.742 763.28 239.337C760.04 265.905 757.264 292.524 754.541 319.144C752.181 342.262 749.459 365.379 748.239 388.548C747.409 404.141 749.51 419.631 765.822 428.089C767.456 428.945 769.193 429.568 771.45 430.371C773.239 430.994 774.924 429.153 774.095 427.414C770.205 419.241 764.5 413.118 763.722 405.594C763.462 402.921 764.655 401.728 766.445 404.193C768.597 407.565 770.75 410.965 772.902 414.338C773.395 415.116 774.355 415.505 775.262 415.246L775.521 415.168C776.558 414.882 777.207 413.871 777.052 412.807C775.858 404.4 772.565 397.889 768.934 390.727C761.543 376.198 766.808 359.619 770.257 345.194C773.447 331.831 778.192 318.807 780.474 305.316C782.913 291.124 784.053 276.698 785.61 262.35C786.31 259.47 788.281 253.398 788.773 247.951C789.37 241.438 791.133 229.996 791.937 225.093C792.118 225.715 792.56 227.376 793.026 229.451C793.52 232.046 793.883 234.667 793.909 235.237C795.542 261.727 797.85 288.165 798.446 314.682C798.654 323.867 795.646 333.466 792.508 342.288C780.631 375.705 781.927 409.693 785.895 444.149C790.849 487.01 799.069 530.132 792.326 573.201C787.244 605.736 795.179 636.17 799.302 667.486C801.455 683.884 806.201 700.8 797.176 717.223C795.62 720.077 797.254 727.834 799.614 729.054C805.059 731.856 811.958 733.179 818.079 732.661C820.361 732.479 823.732 725.603 823.81 721.738C823.992 709.673 823.265 697.583 822.15 685.544C816.548 625.921 820.024 566.689 828.685 507.585C832.005 484.935 834.702 462.207 837.839 439.505C838.281 436.236 839.344 433.044 840.252 429.853C840.433 429.256 840.847 428.763 841.392 428.504C841.652 428.66 841.937 428.763 842.274 428.789H842.56C843.467 428.893 844.193 429.515 844.452 430.371C845.36 433.589 846.397 436.754 846.865 440.024C850.002 462.699 852.699 485.454 856.019 508.104C864.68 567.207 868.156 626.441 862.554 686.063C861.413 698.076 860.687 710.192 860.895 722.256C860.946 726.122 864.317 732.998 866.626 733.179C872.746 733.673 879.644 732.375 885.09 729.573C887.45 728.354 889.084 720.596 887.528 717.742C878.529 701.319 883.249 684.402 885.402 668.005C889.525 636.689 897.46 606.255 892.378 573.72C885.635 530.65 893.855 487.556 898.809 444.668C902.777 410.212 904.073 376.224 892.196 342.806C889.058 333.959 886.05 324.36 886.257 315.2C886.879 288.711 889.162 262.246 890.796 235.756C890.847 234.926 891.6 229.763 892.404 226.597C892.949 230.23 893.907 236.82 894.426 241.905C895.023 247.664 898.368 258.847 898.731 262.635H899.094C900.676 277.061 901.817 291.565 904.255 305.834C906.564 319.326 911.309 332.351 914.473 345.712C917.922 360.138 923.187 376.717 915.796 391.247C912.165 398.407 908.872 404.919 907.678 413.325C907.523 414.389 908.172 415.402 909.209 415.687L909.467 415.764C910.375 415.998 911.335 415.635 911.828 414.856C913.98 411.484 916.133 408.085 918.285 404.712C920.074 402.247 921.267 403.415 921.008 406.113C920.256 413.637 914.525 419.76 910.635 427.933C909.831 429.645 911.491 431.514 913.28 430.891C915.536 430.086 917.274 429.464 918.908 428.607C935.194 420.123 937.294 404.66 936.49 389.067L936.335 389.119Z" fill="#394D89"/>
<path d="M555.434 110.142C555.785 112.687 560.119 115.811 562.243 117.054C562.389 118.883 563.143 123.637 564.988 128.026C566.833 132.415 570.296 135.048 571.796 135.816C571.65 138.157 570.589 143.957 567.514 148.434C563.67 154.03 558.838 156.444 554.445 158.089C550.053 159.735 544.89 161.161 539.509 163.904C534.129 166.647 522.048 168.293 510.736 175.315C499.424 182.337 497.009 198.026 495.911 209.766C494.812 221.507 491.847 225.457 488.113 243.56C485.126 258.043 486.868 272.563 488.113 277.134H520.375C520.558 276.402 521.828 272.219 523.585 264.407C525.343 256.594 527.758 244.182 528.747 238.952C529.552 243.487 531.383 253.501 532.261 257.275C533.14 261.049 534.912 272.489 535.79 277.134H644.608C644.352 276.549 644.3 273.689 646.145 266.93C647.991 260.172 650.722 244.657 651.856 237.745C651.966 238.367 652.273 240.312 652.625 243.122C653.065 246.632 655.041 253.434 656.908 260.566C658.402 266.272 658.996 274.574 659.107 277.134H691.862C692.741 274.355 694.445 264.889 693.478 251.459C692.271 234.673 686.56 219.202 684.253 202.745C681.947 186.287 675.028 176.632 662.838 171.584C650.648 166.538 639.116 162.478 636.261 161.381C633.406 160.283 631.649 159.186 626.707 158.419C621.765 157.651 615.396 150.409 612.101 146.569C609.465 143.496 608.807 138.12 608.807 135.816C609.465 135.377 611.266 133.972 613.199 131.866C615.616 129.233 617.043 124.954 617.592 120.894C618.142 116.835 619.788 115.737 622.534 113.762C625.28 111.787 625.829 108.605 625.938 106.082C626.048 103.559 627.257 100.486 627.146 96.9756C627.059 94.1668 624.035 94.123 622.534 94.4521C622.497 93.3915 622.446 90.7436 622.534 88.637C622.643 86.0038 623.193 73.4958 622.974 67.7905C622.754 62.0851 621.216 57.4769 616.933 53.0882C612.65 48.6993 608.916 45.298 598.812 43.762C588.709 42.2259 578.935 43.4328 572.346 45.7369C565.757 48.041 565.098 51.552 564.109 53.9658C563.121 56.3797 562.023 57.5866 560.375 58.1351C558.728 58.6838 557.959 61.2073 557.3 66.1446C556.642 71.082 557.52 83.4802 557.959 87.3204C558.31 90.3925 558.106 93.2818 557.959 94.3424C557.337 94.1961 555.719 94.123 554.225 95.0007C552.359 96.0979 554.225 102.462 554.774 103.998C555.323 105.534 554.994 106.96 555.434 110.142Z" fill="#394D89"/>
<path d="M694.017 290.141C695.289 286.456 694.547 267.746 694.017 258.852L692.073 242.036L686.91 223.414L684.33 207.37H590.111V425.182C591.628 425.182 592.873 426.38 592.917 427.894C593.072 433.303 593.194 441.593 592.829 445.545C592.529 448.773 594.437 461.783 596.365 473.542C597.92 483.029 598.672 492.635 598.405 502.244L598.062 514.651C597.836 522.86 599.049 531.046 601.648 538.836L601.791 539.262C604.487 547.341 605.638 555.854 605.187 564.359C604.919 569.395 604.091 574.386 602.717 579.238L600.591 586.757C598.685 593.492 597.719 600.458 597.719 607.457C597.719 611.517 598.045 615.57 598.691 619.577L600.946 633.544C602.415 642.645 603.233 651.841 603.177 661.059C603.107 672.701 602.789 685.441 601.885 687.748C600.969 690.085 601.072 694.643 601.403 698.362C601.642 701.06 601.825 703.768 601.707 706.475L600.954 723.641C600.856 725.876 601.826 728.025 603.569 729.431C604.824 730.443 606.388 730.995 608.001 730.995H637.763C639.75 730.995 641.562 729.861 642.428 728.074C643.233 726.411 643.09 724.444 642.053 722.915L634.166 711.289C630.724 706.215 628.907 700.199 629.326 694.086C630.438 677.812 633.686 652.035 641.012 632.556C649.997 608.671 648.379 577.606 646.446 565.06C646.144 559.028 645.359 545.734 644.634 540.812C643.91 535.891 646.869 520.787 648.439 513.849C650.854 501.665 656.083 469.771 657.677 439.67C659.114 412.536 655.361 380.993 652.704 364.782C652.187 361.623 651.191 358.572 649.829 355.673L648.296 352.41C645.207 345.837 644.225 338.451 644.653 331.203C645.288 320.455 645.445 305.836 645.419 294.843C645.406 289.322 645.919 283.818 647.03 278.41L652.851 250.061C654.972 266.945 657.896 281.419 659.094 286.545C661.603 293.181 666.689 307.393 666.963 311.152C667.236 314.912 665.993 325.934 665.338 330.975V355.24L674.085 390.325C674.177 390.692 674.227 391.068 674.237 391.445L674.603 405.916C674.635 407.168 674.211 408.389 673.41 409.352L668.774 414.929C668.029 415.825 667.611 416.944 667.57 418.109C667.449 421.58 667.17 427.129 666.691 430.857C666.118 435.327 664.157 438.595 663.248 439.67C662.938 441.628 663.249 445.545 666.979 445.545C670.708 445.545 673.362 440.434 674.222 437.879L674.62 430.004C674.641 429.58 674.793 429.173 675.056 428.839L675.107 428.773C675.923 427.734 677.507 427.761 678.286 428.828C678.535 429.168 678.669 429.58 678.669 430.002V443.044C678.669 444.624 677.944 446.112 676.733 447.127C673.707 449.664 669.268 453.648 666.691 456.865C664.412 459.711 665.174 461.668 666.458 462.787C667.398 463.606 668.763 463.485 669.919 463.017L677.43 459.971C677.824 459.812 678.197 459.605 678.54 459.353L691.882 449.605C692.932 448.837 693.655 447.703 693.905 446.426L697.291 429.201C697.356 428.873 697.389 428.539 697.389 428.205V414.587C697.389 414.21 697.347 413.834 697.266 413.465L696.084 408.149C695.32 398.62 695.766 377.495 696.084 368.126C696.613 364.419 697.992 354.339 699.263 343.665C700.535 332.992 697.143 318.677 695.289 312.854C694.334 306.818 692.745 293.826 694.017 290.141Z" fill="#394D89"/>
<path d="M486.206 290.141C484.933 286.456 485.676 267.746 486.206 258.852L488.149 242.036L493.312 223.414L495.893 207.37H593.926L593.39 425.182H589.94C588.519 425.182 587.352 426.303 587.311 427.722C587.153 433.126 587.024 441.55 587.394 445.545C587.693 448.773 585.786 461.783 583.858 473.542C582.303 483.029 581.551 492.635 581.817 502.244L582.16 514.651C582.387 522.86 581.173 531.046 578.574 538.836L578.432 539.262C575.737 547.341 574.584 555.854 575.036 564.359C575.304 569.395 576.132 574.386 577.505 579.238L579.632 586.757C581.537 593.492 582.504 600.458 582.504 607.457C582.504 611.517 582.179 615.57 581.531 619.577L579.277 633.544C577.807 642.645 576.991 651.841 577.045 661.059C577.116 672.701 577.434 685.441 578.337 687.748C579.253 690.085 579.15 694.643 578.82 698.362C578.581 701.06 578.397 703.768 578.516 706.475L579.269 723.641C579.366 725.876 578.396 728.025 576.653 729.431C575.398 730.443 573.835 730.995 572.222 730.995H542.46C540.473 730.995 538.661 729.861 537.795 728.074C536.99 726.41 537.132 724.444 538.17 722.915L546.057 711.289C549.498 706.215 551.315 700.199 550.897 694.086C549.784 677.812 546.538 652.035 539.21 632.556C530.226 608.671 531.845 577.606 533.777 565.06C534.078 559.028 534.864 545.734 535.588 540.812C536.313 535.891 533.354 520.787 531.784 513.849C529.368 501.665 524.14 469.771 522.545 439.67C521.108 412.536 524.863 380.993 527.519 364.782C528.036 361.623 529.031 358.572 530.393 355.673L531.926 352.41C535.015 345.837 535.998 338.451 535.57 331.203C534.934 320.455 534.778 305.836 534.804 294.843C534.817 289.322 534.303 283.818 533.193 278.41L527.373 250.061C525.251 266.945 522.326 281.419 521.128 286.545C518.619 293.181 513.534 307.393 513.26 311.152C512.986 314.912 514.229 325.934 514.885 330.975V355.24L506.138 390.325C506.047 390.692 505.996 391.068 505.986 391.445L505.619 405.916C505.587 407.168 506.012 408.389 506.812 409.352L511.448 414.929C512.193 415.825 512.612 416.944 512.653 418.109C512.774 421.58 513.052 427.129 513.531 430.857C514.105 435.327 516.066 438.595 516.974 439.67C517.285 441.628 516.974 445.545 513.244 445.545C509.514 445.545 506.861 440.434 506 437.879L505.603 430.004C505.581 429.58 505.429 429.173 505.167 428.839L505.116 428.773C504.3 427.734 502.716 427.761 501.937 428.828C501.688 429.168 501.554 429.58 501.554 430.002V443.044C501.554 444.624 502.278 446.112 503.49 447.127C506.516 449.664 510.955 453.648 513.531 456.865C515.81 459.711 515.048 461.668 513.765 462.787C512.825 463.606 511.46 463.485 510.304 463.017L502.793 459.971C502.398 459.812 502.025 459.605 501.682 459.353L488.341 449.605C487.29 448.837 486.567 447.703 486.317 446.426L482.931 429.201C482.867 428.873 482.834 428.539 482.834 428.205V414.587C482.834 414.21 482.875 413.834 482.957 413.465L484.139 408.149C484.902 398.62 484.457 377.495 484.139 368.126C483.609 364.419 482.232 354.339 480.96 343.665C479.688 332.992 483.08 318.677 484.934 312.854C485.888 306.818 487.478 293.826 486.206 290.141Z" fill="#394D89"/>
<path d="M621.235 244.926C629.064 244.926 635.41 238.586 635.41 230.766C635.41 222.945 629.064 216.605 621.235 216.605C613.407 216.605 607.061 222.945 607.061 230.766C607.061 238.586 613.407 244.926 621.235 244.926Z" stroke="#03E9CA" stroke-width="4.17649"/>
<path d="M604.165 204.842V196.172H607.199C607.804 196.172 608.303 196.277 608.696 196.486C609.088 196.691 609.381 196.97 609.573 197.319C609.765 197.667 609.861 198.052 609.861 198.476C609.861 198.848 609.794 199.155 609.661 199.399C609.532 199.641 609.359 199.833 609.144 199.974C608.932 200.115 608.702 200.219 608.454 200.288V200.372C608.719 200.389 608.986 200.482 609.254 200.651C609.523 200.82 609.748 201.063 609.929 201.379C610.11 201.695 610.199 202.082 610.199 202.54C610.199 202.974 610.101 203.365 609.903 203.712C609.705 204.059 609.393 204.334 608.966 204.537C608.539 204.74 607.984 204.842 607.301 204.842H604.165ZM605.216 203.911H607.301C607.987 203.911 608.475 203.778 608.763 203.513C609.054 203.245 609.2 202.92 609.2 202.54C609.2 202.246 609.125 201.974 608.975 201.726C608.825 201.476 608.612 201.275 608.335 201.125C608.058 200.973 607.731 200.897 607.352 200.897H605.216V203.911ZM605.216 199.983H607.165C607.482 199.983 607.767 199.92 608.021 199.796C608.279 199.672 608.482 199.497 608.632 199.271C608.784 199.046 608.861 198.78 608.861 198.476C608.861 198.094 608.727 197.771 608.462 197.506C608.196 197.238 607.776 197.104 607.199 197.104H605.216V199.983ZM611.791 204.842V198.34H612.757V199.322H612.824C612.944 199 613.159 198.739 613.469 198.539C613.78 198.339 614.13 198.238 614.52 198.238C614.594 198.238 614.685 198.239 614.795 198.242C614.906 198.245 614.989 198.249 615.045 198.255V199.271C615.011 199.262 614.934 199.25 614.812 199.233C614.694 199.214 614.568 199.204 614.435 199.204C614.119 199.204 613.836 199.269 613.587 199.402C613.342 199.533 613.147 199.712 613.002 199.944C612.861 200.172 612.791 200.434 612.791 200.728V204.842H611.791ZM618.762 204.978C618.135 204.978 617.594 204.839 617.138 204.562C616.687 204.283 616.338 203.894 616.092 203.394C615.85 202.892 615.727 202.308 615.727 201.642C615.727 200.976 615.85 200.389 616.092 199.88C616.338 199.37 616.68 198.972 617.118 198.687C617.558 198.399 618.072 198.255 618.66 198.255C618.999 198.255 619.334 198.312 619.664 198.425C619.995 198.537 620.296 198.721 620.567 198.974C620.839 199.226 621.055 199.559 621.216 199.974C621.377 200.389 621.457 200.9 621.457 201.507V201.93H616.439V201.066H620.44C620.44 200.699 620.366 200.372 620.219 200.084C620.076 199.796 619.869 199.568 619.601 199.402C619.335 199.236 619.022 199.152 618.66 199.152C618.262 199.152 617.917 199.251 617.627 199.449C617.338 199.644 617.116 199.897 616.96 200.211C616.805 200.524 616.728 200.86 616.728 201.218V201.795C616.728 202.285 616.812 202.702 616.982 203.043C617.154 203.382 617.393 203.64 617.698 203.817C618.004 203.993 618.358 204.081 618.762 204.081C619.025 204.081 619.262 204.044 619.473 203.97C619.688 203.894 619.873 203.781 620.029 203.631C620.184 203.479 620.305 203.29 620.389 203.064L621.356 203.335C621.253 203.662 621.082 203.95 620.843 204.199C620.602 204.444 620.306 204.636 619.953 204.775C619.6 204.91 619.203 204.978 618.762 204.978ZM624.894 204.994C624.481 204.994 624.107 204.917 623.77 204.762C623.434 204.604 623.168 204.377 622.97 204.081C622.772 203.781 622.673 203.42 622.673 202.997C622.673 202.624 622.747 202.322 622.893 202.091C623.04 201.856 623.237 201.672 623.483 201.54C623.729 201.407 624 201.309 624.296 201.244C624.596 201.176 624.897 201.122 625.199 201.083C625.594 201.033 625.915 200.994 626.161 200.969C626.41 200.94 626.591 200.894 626.703 200.829C626.819 200.764 626.877 200.651 626.877 200.49V200.457C626.877 200.039 626.763 199.714 626.534 199.483C626.308 199.251 625.964 199.135 625.504 199.135C625.026 199.135 624.652 199.241 624.381 199.449C624.109 199.658 623.92 199.88 623.809 200.118L622.859 199.779C623.029 199.384 623.255 199.077 623.538 198.856C623.823 198.634 624.134 198.478 624.47 198.39C624.81 198.301 625.143 198.255 625.47 198.255C625.68 198.255 625.919 198.281 626.191 198.332C626.464 198.379 626.729 198.48 626.983 198.632C627.24 198.785 627.454 199.014 627.623 199.322C627.793 199.63 627.877 200.041 627.877 200.558V204.842H626.877V203.961H626.826C626.759 204.102 626.645 204.253 626.487 204.414C626.329 204.575 626.118 204.712 625.856 204.826C625.593 204.938 625.272 204.994 624.894 204.994ZM625.046 204.097C625.442 204.097 625.775 204.02 626.047 203.864C626.32 203.709 626.527 203.508 626.665 203.263C626.806 203.018 626.877 202.759 626.877 202.488V201.574C626.834 201.625 626.742 201.671 626.598 201.714C626.456 201.753 626.292 201.789 626.105 201.819C625.922 201.848 625.742 201.873 625.567 201.896C625.395 201.916 625.255 201.933 625.148 201.947C624.888 201.98 624.645 202.035 624.419 202.112C624.196 202.185 624.015 202.296 623.877 202.446C623.742 202.593 623.673 202.793 623.673 203.047C623.673 203.394 623.802 203.657 624.059 203.835C624.319 204.01 624.648 204.097 625.046 204.097ZM634.314 199.796L633.415 200.05C633.358 199.9 633.275 199.755 633.165 199.614C633.057 199.47 632.91 199.352 632.724 199.258C632.537 199.165 632.299 199.118 632.008 199.118C631.61 199.118 631.277 199.211 631.012 199.394C630.749 199.574 630.618 199.805 630.618 200.084C630.618 200.332 630.709 200.528 630.89 200.672C631.07 200.816 631.352 200.936 631.737 201.033L632.702 201.269C633.285 201.41 633.719 201.627 634.004 201.917C634.29 202.205 634.432 202.575 634.432 203.03C634.432 203.403 634.324 203.736 634.11 204.03C633.898 204.323 633.601 204.554 633.22 204.723C632.839 204.893 632.395 204.978 631.889 204.978C631.226 204.978 630.676 204.834 630.241 204.545C629.806 204.258 629.53 203.837 629.415 203.285L630.364 203.047C630.454 203.397 630.625 203.659 630.877 203.835C631.13 204.01 631.462 204.097 631.872 204.097C632.339 204.097 632.708 203.998 632.983 203.8C633.259 203.601 633.398 203.36 633.398 203.081C633.398 202.856 633.319 202.666 633.161 202.514C633.003 202.359 632.759 202.243 632.432 202.167L631.347 201.913C630.75 201.772 630.313 201.553 630.033 201.256C629.756 200.957 629.618 200.584 629.618 200.135C629.618 199.768 629.721 199.443 629.927 199.161C630.136 198.879 630.42 198.657 630.779 198.496C631.14 198.336 631.55 198.255 632.008 198.255C632.652 198.255 633.158 198.396 633.525 198.678C633.895 198.96 634.157 199.333 634.314 199.796ZM638.768 198.34V199.187H635.394V198.34H638.768ZM636.378 196.782H637.378V202.98C637.378 203.262 637.419 203.474 637.501 203.615C637.586 203.753 637.693 203.846 637.823 203.894C637.956 203.939 638.095 203.961 638.243 203.961C638.353 203.961 638.443 203.956 638.514 203.944C638.585 203.93 638.641 203.92 638.683 203.911L638.887 204.809C638.819 204.834 638.724 204.859 638.603 204.884C638.481 204.913 638.327 204.927 638.141 204.927C637.859 204.927 637.581 204.866 637.311 204.745C637.042 204.624 636.818 204.438 636.64 204.19C636.465 203.941 636.378 203.628 636.378 203.25V196.782Z" fill="white"/>
<path d="M847.531 204.842V196.172H850.565C851.17 196.172 851.669 196.277 852.062 196.486C852.453 196.691 852.746 196.97 852.939 197.319C853.131 197.667 853.226 198.052 853.226 198.476C853.226 198.848 853.161 199.155 853.027 199.399C852.897 199.641 852.725 199.833 852.51 199.974C852.298 200.115 852.069 200.219 851.82 200.288V200.372C852.086 200.389 852.352 200.482 852.621 200.651C852.889 200.82 853.114 201.063 853.295 201.379C853.475 201.695 853.565 202.082 853.565 202.54C853.565 202.974 853.467 203.365 853.269 203.712C853.071 204.059 852.759 204.334 852.332 204.537C851.906 204.74 851.351 204.842 850.667 204.842H847.531ZM848.582 203.911H850.667C851.354 203.911 851.841 203.778 852.129 203.513C852.42 203.245 852.566 202.92 852.566 202.54C852.566 202.246 852.49 201.974 852.341 201.726C852.191 201.476 851.978 201.275 851.701 201.125C851.424 200.973 851.096 200.897 850.718 200.897H848.582V203.911ZM848.582 199.983H850.531C850.847 199.983 851.133 199.92 851.387 199.796C851.645 199.672 851.848 199.497 851.998 199.271C852.15 199.046 852.227 198.78 852.227 198.476C852.227 198.094 852.094 197.771 851.828 197.506C851.562 197.238 851.142 197.104 850.565 197.104H848.582V199.983ZM855.156 204.842V198.34H856.123V199.322H856.191C856.31 199 856.524 198.739 856.835 198.539C857.145 198.339 857.496 198.238 857.886 198.238C857.96 198.238 858.051 198.239 858.162 198.242C858.272 198.245 858.355 198.249 858.411 198.255V199.271C858.377 199.262 858.3 199.25 858.179 199.233C858.059 199.214 857.934 199.204 857.802 199.204C857.484 199.204 857.202 199.269 856.953 199.402C856.708 199.533 856.513 199.712 856.369 199.944C856.227 200.172 856.157 200.434 856.157 200.728V204.842H855.156ZM862.127 204.978C861.501 204.978 860.96 204.839 860.505 204.562C860.053 204.283 859.704 203.894 859.458 203.394C859.215 202.892 859.093 202.308 859.093 201.642C859.093 200.976 859.215 200.389 859.458 199.88C859.704 199.37 860.046 198.972 860.484 198.687C860.924 198.399 861.438 198.255 862.026 198.255C862.365 198.255 862.7 198.312 863.03 198.425C863.361 198.537 863.662 198.721 863.933 198.974C864.204 199.226 864.421 199.559 864.582 199.974C864.743 200.389 864.823 200.9 864.823 201.507V201.93H859.805V201.066H863.806C863.806 200.699 863.733 200.372 863.585 200.084C863.441 199.796 863.235 199.568 862.967 199.402C862.701 199.236 862.388 199.152 862.026 199.152C861.628 199.152 861.283 199.251 860.992 199.449C860.704 199.644 860.483 199.897 860.327 200.211C860.171 200.524 860.094 200.86 860.094 201.218V201.795C860.094 202.285 860.178 202.702 860.348 203.043C860.52 203.382 860.759 203.64 861.064 203.817C861.37 203.993 861.724 204.081 862.127 204.081C862.391 204.081 862.628 204.044 862.84 203.97C863.054 203.894 863.239 203.781 863.395 203.631C863.551 203.479 863.671 203.29 863.755 203.064L864.721 203.335C864.62 203.662 864.449 203.95 864.209 204.199C863.968 204.444 863.672 204.636 863.319 204.775C862.966 204.91 862.569 204.978 862.127 204.978ZM868.26 204.994C867.848 204.994 867.473 204.917 867.137 204.762C866.8 204.604 866.534 204.377 866.336 204.081C866.138 203.781 866.04 203.42 866.04 202.997C866.04 202.624 866.113 202.322 866.259 202.091C866.407 201.856 866.603 201.672 866.849 201.54C867.095 201.407 867.365 201.309 867.663 201.244C867.962 201.176 868.262 201.122 868.565 201.083C868.96 201.033 869.282 200.994 869.527 200.969C869.776 200.94 869.957 200.894 870.069 200.829C870.186 200.764 870.243 200.651 870.243 200.49V200.457C870.243 200.039 870.129 199.714 869.9 199.483C869.673 199.251 869.33 199.135 868.87 199.135C868.392 199.135 868.019 199.241 867.747 199.449C867.476 199.658 867.285 199.88 867.175 200.118L866.226 199.779C866.396 199.384 866.621 199.077 866.904 198.856C867.189 198.634 867.499 198.478 867.836 198.39C868.175 198.301 868.509 198.255 868.836 198.255C869.045 198.255 869.286 198.281 869.557 198.332C869.831 198.379 870.095 198.48 870.349 198.632C870.606 198.785 870.819 199.014 870.989 199.322C871.158 199.63 871.244 200.041 871.244 200.558V204.842H870.243V203.961H870.192C870.125 204.102 870.011 204.253 869.853 204.414C869.695 204.575 869.484 204.712 869.222 204.826C868.959 204.938 868.638 204.994 868.26 204.994ZM868.412 204.097C868.808 204.097 869.141 204.02 869.413 203.864C869.686 203.709 869.893 203.508 870.031 203.263C870.173 203.018 870.243 202.759 870.243 202.488V201.574C870.2 201.625 870.108 201.671 869.964 201.714C869.823 201.753 869.658 201.789 869.472 201.819C869.289 201.848 869.109 201.873 868.933 201.896C868.761 201.916 868.621 201.933 868.514 201.947C868.254 201.98 868.012 202.035 867.785 202.112C867.562 202.185 867.381 202.296 867.243 202.446C867.108 202.593 867.039 202.793 867.039 203.047C867.039 203.394 867.168 203.657 867.425 203.835C867.685 204.01 868.014 204.097 868.412 204.097ZM877.68 199.796L876.781 200.05C876.724 199.9 876.641 199.755 876.531 199.614C876.424 199.47 876.277 199.352 876.091 199.258C875.904 199.165 875.665 199.118 875.374 199.118C874.976 199.118 874.644 199.211 874.378 199.394C874.116 199.574 873.984 199.805 873.984 200.084C873.984 200.332 874.075 200.528 874.255 200.672C874.436 200.816 874.718 200.936 875.103 201.033L876.069 201.269C876.65 201.41 877.085 201.627 877.369 201.917C877.655 202.205 877.798 202.575 877.798 203.03C877.798 203.403 877.691 203.736 877.476 204.03C877.264 204.323 876.968 204.554 876.586 204.723C876.205 204.893 875.761 204.978 875.255 204.978C874.591 204.978 874.042 204.834 873.606 204.545C873.172 204.258 872.896 203.837 872.78 203.285L873.73 203.047C873.82 203.397 873.991 203.659 874.243 203.835C874.496 204.01 874.829 204.097 875.238 204.097C875.705 204.097 876.075 203.998 876.348 203.8C876.626 203.601 876.764 203.36 876.764 203.081C876.764 202.856 876.685 202.666 876.526 202.514C876.368 202.359 876.125 202.243 875.798 202.167L874.713 201.913C874.117 201.772 873.679 201.553 873.4 201.256C873.122 200.957 872.984 200.584 872.984 200.135C872.984 199.768 873.087 199.443 873.293 199.161C873.502 198.879 873.786 198.657 874.145 198.496C874.506 198.336 874.916 198.255 875.374 198.255C876.018 198.255 876.524 198.396 876.891 198.678C877.261 198.96 877.524 199.333 877.68 199.796ZM882.134 198.34V199.187H878.761V198.34H882.134ZM879.744 196.782H880.745V202.98C880.745 203.262 880.785 203.474 880.867 203.615C880.951 203.753 881.059 203.846 881.189 203.894C881.322 203.939 881.462 203.961 881.609 203.961C881.719 203.961 881.81 203.956 881.88 203.944C881.951 203.93 882.007 203.92 882.049 203.911L882.253 204.809C882.185 204.834 882.09 204.859 881.969 204.884C881.847 204.913 881.693 204.927 881.507 204.927C881.225 204.927 880.947 204.866 880.676 204.745C880.408 204.624 880.185 204.438 880.007 204.19C879.832 203.941 879.744 203.628 879.744 203.25V196.782Z" fill="white"/>
<path d="M864.602 244.928C872.43 244.928 878.777 238.588 878.777 230.768C878.777 222.947 872.43 216.607 864.602 216.607C856.773 216.607 850.427 222.947 850.427 230.768C850.427 238.588 856.773 244.928 864.602 244.928Z" stroke="#03E9CA" stroke-width="4.17649"/>
</g>
</g>
<defs>
<clipPath id="clip0_768_2425">
<rect width="1433" height="604" fill="white"/>
</clipPath>
</defs>
</svg>
