<svg width="2160" height="1338" viewBox="0 0 2160 1338" fill="none" xmlns="http://www.w3.org/2000/svg">
<rect width="2160" height="1338" fill="#EEF4FE"/>
<path d="M409.422 320.153C434.004 320.153 453.931 300.226 453.931 275.645C453.931 251.064 434.004 231.137 409.422 231.137C384.841 231.137 364.914 251.064 364.914 275.645C364.914 300.226 384.841 320.153 409.422 320.153Z" fill="#F72E3F"/>
<path d="M409.637 275.529C416.08 275.529 421.302 270.307 421.302 263.864C421.302 257.422 416.08 252.199 409.637 252.199C403.195 252.199 397.972 257.422 397.972 263.864C397.972 270.307 403.195 275.529 409.637 275.529Z" stroke="#211D4F" stroke-width="8.18694" stroke-miterlimit="10"/>
<path d="M432.839 309.533C432.83 303.187 430.306 297.104 425.819 292.617C421.332 288.13 415.248 285.606 408.903 285.597C402.551 285.597 396.46 288.118 391.966 292.606C387.471 297.093 384.942 303.182 384.933 309.533" stroke="#211D4F" stroke-width="8.18694" stroke-miterlimit="10"/>
<path d="M357.961 397.94C380.282 397.94 398.376 379.846 398.376 357.525C398.376 335.205 380.282 317.11 357.961 317.11C335.641 317.11 317.547 335.205 317.547 357.525C317.547 379.846 335.641 397.94 357.961 397.94Z" stroke="#211D4F" stroke-width="8.18694"/>
<path d="M358.176 357.408C364.619 357.408 369.841 352.185 369.841 345.743C369.841 339.3 364.619 334.078 358.176 334.078C351.734 334.078 346.511 339.3 346.511 345.743C346.511 352.185 351.734 357.408 358.176 357.408Z" stroke="#211D4F" stroke-width="8.18694" stroke-miterlimit="10"/>
<path d="M381.378 391.411C381.369 385.066 378.845 378.983 374.358 374.496C369.871 370.009 363.787 367.484 357.442 367.476C351.09 367.476 344.999 369.996 340.505 374.484C336.011 378.972 333.482 385.06 333.473 391.411" stroke="#211D4F" stroke-width="8.18694" stroke-miterlimit="10"/>
<path d="M307.405 320.153C331.986 320.153 351.913 300.226 351.913 275.645C351.913 251.064 331.986 231.137 307.405 231.137C282.824 231.137 262.897 251.064 262.897 275.645C262.897 300.226 282.824 320.153 307.405 320.153Z" fill="#F72E3F"/>
<path d="M307.62 275.529C314.063 275.529 319.285 270.307 319.285 263.864C319.285 257.422 314.063 252.199 307.62 252.199C301.178 252.199 295.955 257.422 295.955 263.864C295.955 270.307 301.178 275.529 307.62 275.529Z" stroke="#211D4F" stroke-width="8.18694" stroke-miterlimit="10"/>
<path d="M330.822 309.533C330.813 303.187 328.288 297.104 323.801 292.617C319.314 288.13 313.231 285.606 306.886 285.597C300.534 285.597 294.443 288.118 289.949 292.606C285.455 297.093 282.925 303.182 282.917 309.533" stroke="#211D4F" stroke-width="8.18694" stroke-miterlimit="10"/>
<path d="M274.239 652.776H295.845" stroke="#211D4F" stroke-width="8.18694" stroke-miterlimit="10"/>
<path d="M288.63 713.718H301.372" stroke="#211D4F" stroke-width="8.18694" stroke-miterlimit="10"/>
<path d="M295.839 680.478H321.323" stroke="#211D4F" stroke-width="8.18694" stroke-miterlimit="10"/>
<path fill-rule="evenodd" clip-rule="evenodd" d="M315.79 595.715C315.79 595.715 308.034 576.879 301.94 576.879C295.846 576.879 287.536 595.715 287.536 595.715C274.794 590.729 263.159 591.837 263.159 591.837C263.159 591.837 264.267 609.565 272.577 618.429C278.672 624.523 295.292 626.185 301.386 626.185C307.48 626.185 322.438 625.631 329.64 618.429C337.95 609.565 339.058 591.837 339.058 591.837C339.058 591.837 327.978 590.175 315.79 595.715Z" fill="#211D4F"/>
<path fill-rule="evenodd" clip-rule="evenodd" d="M417.725 630.039C417.725 630.039 444.871 630.593 445.425 602.339C445.425 602.339 417.725 601.231 417.725 630.039Z" fill="#211D4F"/>
<path fill-rule="evenodd" clip-rule="evenodd" d="M271.466 626.186H329.082C334.622 626.186 335.177 632.834 322.988 680.478C313.57 718.704 306.922 745.296 301.382 745.296C297.504 745.296 288.64 718.15 279.776 681.032C272.02 648.345 266.48 626.186 271.466 626.186Z" stroke="#211D4F" stroke-width="8.18694" stroke-miterlimit="10" stroke-linejoin="round"/>
<path fill-rule="evenodd" clip-rule="evenodd" d="M406.077 656.631C406.077 656.631 417.711 643.335 434.332 646.105C453.722 649.429 463.14 671.036 462.032 686.548C462.032 686.548 459.262 735.854 406.077 735.854C352.893 735.854 350.677 688.763 350.677 688.763C347.907 665.496 363.973 646.659 383.363 646.105C391.119 646.105 398.875 649.429 406.077 656.631Z" fill="#F72E3F" stroke="#211D4F" stroke-width="8.18694" stroke-miterlimit="10"/>
<path d="M412.182 602.339C412.182 602.339 390.022 620.067 407.75 655.523" stroke="#211D4F" stroke-width="8.18694" stroke-miterlimit="10"/>
<path d="M440.977 687.101C440.977 687.101 435.991 712.031 412.169 714.247" stroke="#211D4F" stroke-width="8.18694" stroke-miterlimit="10"/>
<g clip-path="url(#clip0_6_536)">
<path d="M345.11 1002.88L305.9 956.746H384.319L345.11 1002.88Z" fill="#F72E3F"/>
<path d="M346.382 1004.52C345.708 1005.29 344.511 1005.29 343.838 1004.52L275.732 926.682C274.776 925.589 275.552 923.879 277.004 923.879L413.216 923.879C414.668 923.879 415.444 925.589 414.488 926.682L346.382 1004.52Z" stroke="#211D4F" stroke-width="7.32632"/>
<path d="M304.783 1081.87H385.571" stroke="#211D4F" stroke-width="7.32632"/>
<path d="M345.614 1080.18V1057.28" stroke="#211D4F" stroke-width="7.32632"/>
<path d="M345.614 1020.69V1003.51" stroke="#211D4F" stroke-width="7.32632"/>
<path d="M316.946 1038.61H396.92" stroke="#211D4F" stroke-width="13.8249"/>
<path d="M404.339 1038.61H411.008" stroke="#F72E3F" stroke-width="13.8249"/>
<path d="M417.673 1038.61H424.342" stroke="#F72E3F" stroke-width="13.8249"/>
<path d="M410.663 1020.2C401.026 1020.2 400.047 1013.02 401.522 1008.88C402.998 1004.75 408.15 997.649 408.15 993.65" stroke="#211D4F" stroke-width="7.4962"/>
<path d="M424.574 1020.2C414.937 1020.2 413.957 1013.02 415.433 1008.88C416.908 1004.75 422.061 997.649 422.061 993.65" stroke="#211D4F" stroke-width="7.4962"/>
<path d="M267.484 1038.61H313.903" stroke="#211D4F" stroke-width="13.8249"/>
</g>
<path d="M874.313 318.636C874.313 298.289 857.819 281.795 837.472 281.795C817.125 281.795 800.631 298.289 800.631 318.636" stroke="#211D4F" stroke-width="28.0695"/>
<path d="M874.313 318.637C874.313 308.599 870.299 299.498 863.787 292.854" stroke="#F72E3F" stroke-width="28.0695"/>
<path d="M757.988 262.035C757.406 248.082 768.562 236.452 782.527 236.452H892.418C906.383 236.452 917.538 248.082 916.957 262.035L912.279 374.314C911.731 387.469 900.906 397.852 887.739 397.852H787.205C774.039 397.852 763.214 387.469 762.666 374.314L757.988 262.035Z" stroke="#211D4F" stroke-width="7.01738" stroke-linejoin="round"/>
<path d="M838.221 317.558L873.308 300.015" stroke="#211D4F" stroke-width="7.01738"/>
<path d="M838.222 324.575C842.097 324.575 845.239 321.433 845.239 317.557C845.239 313.682 842.097 310.54 838.222 310.54C834.346 310.54 831.204 313.682 831.204 317.557C831.204 321.433 834.346 324.575 838.222 324.575Z" fill="#211D4F"/>
<path d="M849.828 573.164L853.505 570.59M849.828 573.164L868.411 599.712C870.631 602.883 874.487 604.48 878.299 603.807L910.211 598.175C910.665 598.095 911.06 598.49 910.98 598.944L905.348 630.857C904.675 634.668 906.273 638.525 909.443 640.744L935.992 659.327C936.369 659.591 936.369 660.15 935.992 660.415L909.443 678.998C906.273 681.217 904.675 685.074 905.348 688.885L910.98 720.798C911.06 721.252 910.665 721.647 910.211 721.567L878.299 715.935C874.487 715.262 870.631 716.859 868.411 720.03L849.828 746.578C849.564 746.956 849.005 746.956 848.74 746.578L830.158 720.03C827.938 716.859 824.082 715.262 820.27 715.935L788.358 721.567C787.904 721.647 787.508 721.252 787.588 720.798L793.221 688.885C793.893 685.074 792.296 681.217 789.125 678.997L762.577 660.415C762.2 660.15 762.2 659.591 762.577 659.327M849.828 573.164C849.564 572.786 849.005 572.786 848.74 573.164L830.158 599.712C827.938 602.883 824.082 604.48 820.27 603.807L788.358 598.175C787.904 598.095 787.508 598.49 787.588 598.944L793.221 630.857C793.893 634.668 792.296 638.525 789.125 640.744L762.577 659.327M762.577 659.327L759.997 655.642" stroke="#211D4F" stroke-width="9.29318"/>
<path d="M848.951 708.42C874.653 708.42 895.488 687.585 895.488 661.883C895.488 636.181 874.653 615.346 848.951 615.346C823.25 615.346 802.414 636.181 802.414 661.883C802.414 687.585 823.25 708.42 848.951 708.42Z" fill="#F72E3F"/>
<g clip-path="url(#clip1_6_536)">
<path d="M791.213 1012.62C803.486 1012.62 813.435 1002.67 813.435 990.4C813.435 978.128 803.486 968.179 791.213 968.179C778.94 968.179 768.991 978.128 768.991 990.4C768.991 1002.67 778.94 1012.62 791.213 1012.62Z" stroke="#211D4F" stroke-width="8.18694"/>
<path d="M778.055 1070.52C790.328 1070.52 800.277 1060.57 800.277 1048.29C800.277 1036.02 790.328 1026.07 778.055 1026.07C765.783 1026.07 755.834 1036.02 755.834 1048.29C755.834 1060.57 765.783 1070.52 778.055 1070.52Z" fill="#F72E3F" stroke="#F72E3F" stroke-width="8.18694"/>
<path d="M878.053 1012.62C890.326 1012.62 900.275 1002.67 900.275 990.4C900.275 978.128 890.326 968.179 878.053 968.179C865.78 968.179 855.831 978.128 855.831 990.4C855.831 1002.67 865.78 1012.62 878.053 1012.62Z" fill="#F72E3F" stroke="#F72E3F" stroke-width="8.18694"/>
<path d="M833.317 965.255C845.59 965.255 855.539 955.306 855.539 943.033C855.539 930.761 845.59 920.812 833.317 920.812C821.044 920.812 811.095 930.761 811.095 943.033C811.095 955.306 821.044 965.255 833.317 965.255Z" fill="#F72E3F" stroke="#F72E3F" stroke-width="8.18694"/>
<path d="M891.21 1070.52C903.483 1070.52 913.432 1060.57 913.432 1048.29C913.432 1036.02 903.483 1026.07 891.21 1026.07C878.938 1026.07 868.989 1036.02 868.989 1048.29C868.989 1060.57 878.938 1070.52 891.21 1070.52Z" stroke="#211D4F" stroke-width="8.18694"/>
<path d="M833.317 1010.21L880.684 989.159" stroke="#211D4F" stroke-width="8.18694"/>
<path d="M833.317 1049.46H891.21" stroke="#211D4F" stroke-width="8.18694"/>
<path d="M833.317 1010.21L789.166 989.231" stroke="#211D4F" stroke-width="8.18694"/>
<path d="M833.317 1049.46L775.424 1049.46" stroke="#211D4F" stroke-width="8.18694"/>
<path d="M833.975 1085.14V937.771" stroke="#211D4F" stroke-width="8.18694"/>
</g>
<path d="M1248.36 245.307C1242.77 240.25 1233.83 244.219 1233.83 251.76V376.55C1233.83 381.354 1237.72 385.249 1242.53 385.249H1279.8C1284.61 385.249 1288.5 381.354 1288.5 376.55V285.462C1288.5 283.003 1287.46 280.659 1285.64 279.01L1248.36 245.307Z" fill="#F72E3F"/>
<path d="M1245.56 247.873C1242.59 245.268 1237.93 247.382 1237.93 251.339V376.551C1237.93 379.095 1239.99 381.157 1242.53 381.157H1385.63C1389.88 381.157 1391.86 375.886 1388.66 373.086L1245.56 247.873Z" stroke="#211D4F" stroke-width="8.18694"/>
<path d="M1312.3 362.852L1315.84 356.712L1319.39 362.852L1334.84 389.617L1338.38 395.757H1331.29H1300.39H1293.3L1296.84 389.617L1312.3 362.852Z" fill="#211D4F" stroke="#FFCA6A" stroke-width="8.18694"/>
<path d="M1238.51 700.088C1238.51 700.088 1238.51 686.641 1262.22 677.44C1285.22 668.594 1280.97 658.685 1280.97 658.685L1250.54 651.962C1250.54 651.962 1264.69 627.898 1264.69 603.836C1264.69 590.035 1276.02 576.941 1295.48 576.941C1314.94 576.941 1328.04 586.142 1328.04 603.836C1328.04 631.083 1342.54 651.962 1342.54 651.962L1311.76 658.685C1311.76 658.685 1309.99 670.009 1327.33 677.44C1352.81 688.057 1352.81 700.088 1352.81 700.088H1238.51Z" stroke="#211D4F" stroke-width="8.18694" stroke-miterlimit="10" stroke-linecap="round" stroke-linejoin="round"/>
<path d="M1283.81 580.48C1283.81 580.48 1295.84 619.76 1328.04 604.19" stroke="#211D4F" stroke-width="8.18694" stroke-miterlimit="10" stroke-linecap="round" stroke-linejoin="round"/>
<path d="M1281.32 659.04C1281.32 650.547 1260.44 637.454 1264.34 614.453C1264.34 614.453 1288.05 605.96 1283.8 580.835" stroke="#211D4F" stroke-width="8.18694" stroke-miterlimit="10" stroke-linecap="round" stroke-linejoin="round"/>
<path d="M1311.73 659.04C1311.73 650.547 1332.26 636.746 1328.72 613.744" stroke="#211D4F" stroke-width="8.18694" stroke-miterlimit="10" stroke-linecap="round" stroke-linejoin="round"/>
<path d="M1347.99 670.664C1349.78 667.513 1354.32 667.513 1356.12 670.664L1375.35 704.446L1394.66 738.367C1396.44 741.485 1394.19 745.36 1390.6 745.36H1352.05H1313.5C1309.91 745.36 1307.66 741.485 1309.43 738.367L1328.75 704.446L1347.99 670.664Z" fill="#F72E3F"/>
<path d="M1356.62 732.083C1356.62 734.343 1354.79 736.176 1352.53 736.176C1350.27 736.176 1348.44 734.343 1348.44 732.083C1348.44 729.822 1350.27 727.989 1352.53 727.989C1354.79 727.989 1356.62 729.822 1356.62 732.083Z" fill="#211D4F"/>
<path d="M1352.53 685.884V720.971" stroke="#211D4F" stroke-width="8.18694"/>
<path d="M1286.84 1016.54L1309.64 993.841L1274.46 957.844L1251.02 980.707C1241.4 990.324 1241.4 1005.92 1251.02 1015.53L1252.02 1016.54C1261.64 1026.15 1277.23 1026.15 1286.84 1016.54Z" fill="#F72E3F"/>
<path d="M1330.82 937.741L1329.82 936.737C1320.2 927.12 1304.61 927.12 1295 936.737L1251.02 980.711C1241.4 990.328 1241.4 1005.92 1251.02 1015.54L1252.03 1016.54C1261.64 1026.16 1277.23 1026.16 1286.85 1016.54L1330.82 972.565C1340.44 962.949 1340.44 947.357 1330.82 937.741Z" stroke="#211D4F" stroke-width="7.01738" stroke-miterlimit="10"/>
<path d="M1379.55 1013.58C1362.77 996.799 1335.28 998.543 1320.08 1012.23L1379.53 1074.35C1396.32 1057.56 1396.33 1030.35 1379.55 1013.58Z" fill="#F72E3F"/>
<path d="M1348.69 1087.74C1372.42 1087.74 1391.66 1068.5 1391.66 1044.77C1391.66 1021.04 1372.42 1001.8 1348.69 1001.8C1324.96 1001.8 1305.72 1021.04 1305.72 1044.77C1305.72 1068.5 1324.96 1087.74 1348.69 1087.74Z" stroke="#211D4F" stroke-width="7.01738" stroke-miterlimit="10"/>
<path d="M1698.63 240.804H1888.67" stroke="#211D4F" stroke-width="9.29318"/>
<path d="M1698.63 424.209H1888.67" stroke="#211D4F" stroke-width="9.29318"/>
<path d="M1751.36 289.808C1751.66 289.065 1751.81 288.767 1752.11 288.767C1752.55 288.767 1752.55 288.916 1753 289.957L1768.76 331.144C1769.06 331.888 1769.06 332.036 1769.06 332.185C1769.06 332.631 1768.76 332.928 1768.17 332.928H1734.56C1733.82 332.928 1733.52 332.482 1733.52 332.036C1733.52 331.888 1733.52 331.59 1733.82 330.995L1751.36 289.808ZM1800.73 367.573C1798.2 365.046 1796.57 361.774 1793.74 354.489L1761.33 269.883C1760.88 268.843 1760.29 268.396 1759.1 268.396H1754.34C1753.3 268.396 1752.7 268.694 1752.11 269.883L1715.68 351.812C1714.19 355.381 1711.96 359.841 1709.73 363.113C1704.82 370.547 1700.22 369.952 1700.22 373.224C1700.22 375.008 1701.85 375.751 1704.68 375.751H1725.34C1727.87 375.751 1729.66 374.859 1729.66 372.926C1729.66 369.209 1722.82 371.142 1722.82 362.964C1722.82 358.503 1725.05 351.961 1729.21 341.999C1729.66 341.106 1730.25 340.66 1731.29 340.66H1770.25C1771.88 340.66 1772.63 341.106 1773.07 342.296L1778.13 355.381C1780.06 360.585 1780.81 363.41 1780.81 365.343C1780.81 370.696 1774.56 369.655 1774.56 373.075C1774.56 374.711 1775.9 375.751 1778.28 375.751H1802.96C1806.08 375.751 1807.12 374.711 1807.12 373.075C1807.12 370.547 1804 370.696 1800.73 367.573ZM1858.8 336.348C1858.8 345.418 1858.65 351.961 1855.68 358.206C1852.11 365.492 1845.42 368.763 1839.62 368.763C1831.74 368.763 1827.72 363.41 1827.72 357.462C1827.72 353.299 1829.81 348.69 1835.16 345.121C1842.3 340.363 1852.11 337.835 1857.31 333.821C1857.91 333.374 1858.06 333.226 1858.35 333.226C1858.65 333.226 1858.8 333.523 1858.8 333.821V336.348ZM1877.98 366.681C1875.01 366.681 1873.22 364.302 1873.22 359.098C1873.22 347.203 1873.67 333.523 1873.67 321.925C1873.67 307.205 1863.86 296.499 1844.82 296.499C1836.35 296.499 1824.3 298.581 1820.29 303.785C1818.5 306.015 1817.76 310.773 1817.76 314.639C1817.76 318.505 1818.36 321.925 1821.92 321.925C1825.2 321.925 1825.64 319.249 1828.62 315.086C1832.33 309.881 1836.94 304.082 1845.86 304.082C1853.89 304.082 1858.8 309.138 1858.8 316.275C1858.8 324.304 1852.26 328.616 1846.31 331.293C1838.13 335.159 1828.91 336.794 1821.18 341.999C1814.94 346.013 1811.96 352.258 1811.96 358.206C1811.96 368.466 1820.74 377.387 1835.16 377.387C1844.38 377.387 1853.6 373.521 1858.95 365.492C1859.25 365.046 1859.25 364.897 1859.54 364.897C1859.84 364.897 1859.84 365.343 1859.84 365.64C1860.73 374.413 1866.23 377.387 1871.14 377.387C1877.68 377.387 1882.29 371.885 1882.29 369.06C1882.29 367.573 1881.1 366.681 1879.77 366.681H1877.98Z" fill="#F72E3F"/>
<path d="M1746.98 712.571C1714.24 717.25 1700.53 726.883 1700.53 750.274" stroke="#211D4F" stroke-width="8.18694"/>
<path d="M1759.01 635.654C1726.26 635.654 1714.56 619.28 1714.56 586.532" stroke="#211D4F" stroke-width="8.18694"/>
<path d="M1734.57 714.881C1733.75 715.102 1733.28 715.185 1733.28 715.185C1733.28 715.185 1733.73 715.043 1734.57 714.881C1740.08 713.4 1761.34 705.721 1761.34 675.42C1761.34 675.42 1770.37 714.908 1782.07 738.3C1759.93 712.133 1739.76 713.884 1734.57 714.881Z" fill="#211D4F"/>
<path d="M1733.28 715.184L1732.04 711.281C1729.99 711.931 1728.79 714.065 1729.3 716.159C1729.82 718.253 1731.87 719.59 1733.99 719.215L1733.28 715.184ZM1761.34 675.419L1765.33 674.505L1757.24 675.419H1761.34ZM1782.07 738.299L1778.95 740.943L1785.73 736.468L1782.07 738.299ZM1733.28 715.184C1733.99 719.215 1733.99 719.215 1733.99 719.215C1733.99 719.214 1733.99 719.214 1733.99 719.214C1734 719.214 1734 719.213 1734 719.213C1734.01 719.212 1734.01 719.211 1734.01 719.21C1734.03 719.208 1734.04 719.206 1734.05 719.204C1734.08 719.198 1734.11 719.192 1734.16 719.183C1734.24 719.167 1734.35 719.143 1734.49 719.113C1734.77 719.052 1735.16 718.961 1735.63 718.833L1733.51 710.927C1733.16 711.02 1732.9 711.081 1732.74 711.116C1732.66 711.134 1732.6 711.145 1732.57 711.151C1732.56 711.154 1732.55 711.156 1732.55 711.156C1732.55 711.156 1732.55 711.156 1732.55 711.156C1732.55 711.155 1732.56 711.154 1732.56 711.154C1732.56 711.154 1732.56 711.154 1732.56 711.154C1732.56 711.154 1732.56 711.153 1732.56 711.153C1732.56 711.153 1732.57 711.152 1733.28 715.184ZM1735.63 718.833C1738.76 717.991 1746.19 715.445 1752.88 708.878C1759.69 702.201 1765.43 691.646 1765.43 675.419H1757.24C1757.24 689.492 1752.35 697.927 1747.15 703.036C1741.83 708.254 1735.88 710.288 1733.51 710.927L1735.63 718.833ZM1761.34 675.419C1757.35 676.332 1757.35 676.332 1757.35 676.333C1757.35 676.335 1757.35 676.339 1757.35 676.342C1757.35 676.347 1757.35 676.355 1757.35 676.365C1757.36 676.386 1757.36 676.416 1757.37 676.456C1757.39 676.534 1757.42 676.65 1757.45 676.801C1757.53 677.103 1757.63 677.546 1757.77 678.116C1758.04 679.257 1758.44 680.907 1758.96 682.959C1760 687.062 1761.51 692.776 1763.39 699.23C1767.12 712.072 1772.39 728.087 1778.41 740.129L1785.73 736.468C1780.06 725.118 1774.96 709.693 1771.25 696.943C1769.4 690.601 1767.92 684.981 1766.9 680.949C1766.39 678.933 1765.99 677.317 1765.73 676.206C1765.59 675.651 1765.49 675.223 1765.43 674.934C1765.39 674.79 1765.37 674.681 1765.35 674.609C1765.34 674.573 1765.34 674.547 1765.33 674.529C1765.33 674.52 1765.33 674.514 1765.33 674.51C1765.33 674.51 1765.33 674.508 1765.33 674.51C1765.33 674.51 1765.33 674.505 1765.33 674.505C1765.33 674.505 1765.33 674.505 1761.34 675.419ZM1785.2 735.654C1761.98 708.219 1740.25 709.62 1733.8 710.86L1735.34 718.9C1739.27 718.146 1757.88 716.043 1778.95 740.943L1785.2 735.654ZM1733.8 710.86C1733.29 710.957 1732.89 711.052 1732.59 711.127C1732.44 711.165 1732.32 711.198 1732.23 711.224C1732.19 711.237 1732.15 711.248 1732.12 711.258C1732.1 711.263 1732.09 711.267 1732.07 711.271C1732.07 711.273 1732.06 711.275 1732.06 711.276C1732.06 711.277 1732.05 711.278 1732.05 711.279C1732.05 711.278 1732.05 711.279 1732.05 711.279C1732.05 711.279 1732.04 711.281 1732.04 711.281C1732.04 711.28 1732.04 711.281 1732.04 711.281C1732.04 711.281 1732.04 711.281 1733.28 715.184C1734.51 719.087 1734.51 719.087 1734.51 719.087C1734.51 719.087 1734.51 719.088 1734.51 719.089C1734.5 719.089 1734.5 719.09 1734.5 719.09C1734.5 719.091 1734.49 719.092 1734.49 719.093C1734.49 719.095 1734.48 719.096 1734.48 719.097C1734.48 719.098 1734.48 719.096 1734.49 719.093C1734.51 719.088 1734.55 719.076 1734.62 719.058C1734.76 719.022 1735 718.965 1735.34 718.9L1733.8 710.86Z" fill="#211D4F"/>
<path d="M1798.77 663.725C1770.7 657.487 1761.35 675.421 1761.35 675.421V698.812C1761.35 708.168 1770.7 747.933 1812.81 747.933C1854.91 747.933 1864.27 710.507 1864.27 691.794V675.421C1826.84 698.812 1826.84 669.962 1798.77 663.725Z" fill="#F72E3F"/>
<path d="M1864.85 640.333C1864.85 611.589 1841.55 588.287 1812.81 588.287C1784.06 588.287 1760.76 611.589 1760.76 640.333V696.472C1760.76 725.216 1784.06 748.517 1812.81 748.517C1841.55 748.517 1864.85 725.216 1864.85 696.472V640.333Z" stroke="#211D4F" stroke-width="8.18694"/>
<path d="M1777.39 728.944C1777.39 728.944 1765.7 668.429 1765.7 682.162C1765.7 693.857 1761.02 703.214 1754 710.232C1754 710.232 1768.04 714.909 1777.39 728.944Z" fill="#F72E3F"/>
<defs>
<clipPath id="clip0_6_536">
<rect width="166.064" height="166.064" fill="white" transform="translate(261.826 919.843)"/>
</clipPath>
<clipPath id="clip1_6_536">
<rect width="168.417" height="173.095" fill="white" transform="translate(750.669 916.554)"/>
</clipPath>
</defs>
</svg>
