<svg width="2160" height="1786" viewBox="0 0 2160 1786" fill="none" xmlns="http://www.w3.org/2000/svg">
<rect width="2160" height="1786" fill="#EEF4FE"/>
<g clip-path="url(#clip0_6_536)">
<path d="M606.268 377.024C643.338 377.024 673.389 346.972 673.389 309.902C673.389 272.831 643.338 242.78 606.268 242.78C569.197 242.78 539.146 272.831 539.146 309.902C539.146 346.972 569.197 377.024 606.268 377.024Z" fill="#F72E3F"/>
<path d="M606.592 309.728C616.308 309.728 624.184 301.852 624.184 292.136C624.184 282.42 616.308 274.544 606.592 274.544C596.876 274.544 589 282.42 589 292.136C589 301.852 596.876 309.728 606.592 309.728Z" stroke="#211D4F" stroke-width="12.3465" stroke-miterlimit="10"/>
<path d="M641.582 361.007C641.568 351.438 637.761 342.264 630.995 335.497C624.228 328.73 615.054 324.923 605.485 324.91C595.906 324.91 586.719 328.712 579.942 335.48C573.164 342.248 569.35 351.429 569.337 361.007" stroke="#211D4F" stroke-width="12.3465" stroke-miterlimit="10"/>
<path d="M528.661 494.332C562.322 494.332 589.609 467.044 589.609 433.383C589.609 399.722 562.322 372.435 528.661 372.435C495 372.435 467.712 399.722 467.712 433.383C467.712 467.044 495 494.332 528.661 494.332Z" stroke="#211D4F" stroke-width="12.3465"/>
<path d="M528.985 433.207C538.701 433.207 546.577 425.331 546.577 415.615C546.577 405.899 538.701 398.023 528.985 398.023C519.269 398.023 511.394 405.899 511.394 415.615C511.394 425.331 519.269 433.207 528.985 433.207Z" stroke="#211D4F" stroke-width="12.3465" stroke-miterlimit="10"/>
<path d="M563.975 484.486C563.961 474.917 560.154 465.743 553.388 458.976C546.621 452.209 537.447 448.402 527.878 448.389C518.299 448.389 509.112 452.19 502.335 458.958C495.557 465.726 491.743 474.908 491.73 484.486" stroke="#211D4F" stroke-width="12.3465" stroke-miterlimit="10"/>
<path d="M452.418 377.024C489.489 377.024 519.54 346.972 519.54 309.902C519.54 272.831 489.489 242.78 452.418 242.78C415.348 242.78 385.296 272.831 385.296 309.902C385.296 346.972 415.348 377.024 452.418 377.024Z" fill="#F72E3F"/>
<path d="M452.742 309.728C462.458 309.728 470.334 301.852 470.334 292.136C470.334 282.42 462.458 274.544 452.742 274.544C443.027 274.544 435.151 282.42 435.151 292.136C435.151 301.852 443.027 309.728 452.742 309.728Z" stroke="#211D4F" stroke-width="12.3465" stroke-miterlimit="10"/>
<path d="M487.732 361.007C487.719 351.438 483.911 342.264 477.145 335.497C470.378 328.73 461.204 324.923 451.635 324.91C442.056 324.91 432.87 328.712 426.092 335.48C419.315 342.248 415.5 351.429 415.487 361.007" stroke="#211D4F" stroke-width="12.3465" stroke-miterlimit="10"/>
</g>
<path d="M402.4 878.645H434.984" stroke="#211D4F" stroke-width="12.3465" stroke-miterlimit="10"/>
<path d="M424.103 970.549H443.319" stroke="#211D4F" stroke-width="12.3465" stroke-miterlimit="10"/>
<path d="M434.975 920.421H473.408" stroke="#211D4F" stroke-width="12.3465" stroke-miterlimit="10"/>
<path fill-rule="evenodd" clip-rule="evenodd" d="M465.063 792.592C465.063 792.592 453.366 764.185 444.176 764.185C434.986 764.185 422.454 792.592 422.454 792.592C403.237 785.073 385.692 786.743 385.692 786.743C385.692 786.743 387.363 813.479 399.896 826.847C409.086 836.037 434.15 838.543 443.341 838.543C452.531 838.543 475.089 837.708 485.95 826.847C498.482 813.479 500.153 786.743 500.153 786.743C500.153 786.743 483.444 784.237 465.063 792.592Z" fill="#211D4F"/>
<path fill-rule="evenodd" clip-rule="evenodd" d="M618.789 844.354C618.789 844.354 659.728 845.19 660.563 802.581C660.563 802.581 618.789 800.91 618.789 844.354Z" fill="#211D4F"/>
<path fill-rule="evenodd" clip-rule="evenodd" d="M398.219 838.544H485.109C493.464 838.544 494.3 848.57 475.919 920.421C461.715 978.069 451.69 1018.17 443.335 1018.17C437.487 1018.17 424.119 977.234 410.751 921.257C399.055 871.963 390.7 838.544 398.219 838.544Z" stroke="#211D4F" stroke-width="12.3465" stroke-miterlimit="10" stroke-linejoin="round"/>
<path fill-rule="evenodd" clip-rule="evenodd" d="M601.223 884.458C601.223 884.458 618.768 864.407 643.833 868.584C673.075 873.597 687.277 906.181 685.607 929.575C685.607 929.575 681.429 1003.93 601.223 1003.93C521.017 1003.93 517.675 932.916 517.675 932.916C513.498 897.827 537.727 869.42 566.968 868.584C578.665 868.584 590.362 873.597 601.223 884.458Z" fill="#F72E3F" stroke="#211D4F" stroke-width="12.3465" stroke-miterlimit="10"/>
<path d="M610.43 802.581C610.43 802.581 577.011 829.317 603.746 882.787" stroke="#211D4F" stroke-width="12.3465" stroke-miterlimit="10"/>
<path d="M653.855 930.409C653.855 930.409 646.336 968.006 610.41 971.347" stroke="#211D4F" stroke-width="12.3465" stroke-miterlimit="10"/>
<g clip-path="url(#clip1_6_536)">
<path d="M509.28 1406.62L450.149 1337.06H568.411L509.28 1406.62Z" fill="#F72E3F"/>
<path d="M511.198 1409.1C510.182 1410.26 508.377 1410.26 507.362 1409.1L404.653 1291.72C403.211 1290.07 404.381 1287.49 406.571 1287.49L611.989 1287.49C614.179 1287.49 615.35 1290.07 613.907 1291.72L511.198 1409.1Z" stroke="#211D4F" stroke-width="11.0487"/>
<path d="M448.464 1525.75H570.298" stroke="#211D4F" stroke-width="11.0487"/>
<path d="M510.041 1523.2V1488.66" stroke="#211D4F" stroke-width="11.0487"/>
<path d="M510.041 1433.49V1407.58" stroke="#211D4F" stroke-width="11.0487"/>
<path d="M466.806 1460.52H587.413" stroke="#211D4F" stroke-width="20.8491"/>
<path d="M598.601 1460.52H608.66" stroke="#F72E3F" stroke-width="20.8491"/>
<path d="M618.71 1460.52H628.768" stroke="#F72E3F" stroke-width="20.8491"/>
<path d="M608.139 1432.75C593.606 1432.75 592.129 1421.92 594.354 1415.68C596.579 1409.45 604.35 1398.74 604.35 1392.71" stroke="#211D4F" stroke-width="11.3049"/>
<path d="M629.117 1432.75C614.584 1432.75 613.107 1421.92 615.332 1415.68C617.557 1409.45 625.328 1398.74 625.328 1392.71" stroke="#211D4F" stroke-width="11.3049"/>
<path d="M392.213 1460.52H462.218" stroke="#211D4F" stroke-width="20.8491"/>
</g>
<path d="M1135.95 374.736C1135.95 344.051 1111.07 319.177 1080.39 319.177C1049.7 319.177 1024.83 344.051 1024.83 374.736" stroke="#211D4F" stroke-width="42.331"/>
<path d="M1135.95 374.737C1135.95 359.598 1129.89 345.874 1120.07 335.854" stroke="#F72E3F" stroke-width="42.331"/>
<path d="M960.519 289.378C959.642 268.334 976.465 250.796 997.526 250.796H1163.25C1184.31 250.796 1201.13 268.334 1200.26 289.378L1193.2 458.702C1192.38 478.541 1176.05 494.199 1156.19 494.199H1004.58C984.725 494.199 968.4 478.541 967.574 458.702L960.519 289.378Z" stroke="#211D4F" stroke-width="10.5828" stroke-linejoin="round"/>
<path d="M1081.52 373.11L1134.43 346.653" stroke="#211D4F" stroke-width="10.5828"/>
<path d="M1081.52 383.692C1087.36 383.692 1092.1 378.954 1092.1 373.109C1092.1 367.264 1087.36 362.526 1081.52 362.526C1075.67 362.526 1070.93 367.264 1070.93 373.109C1070.93 378.954 1075.67 383.692 1081.52 383.692Z" fill="#211D4F"/>
<path d="M1099.02 758.583L1104.57 754.701M1099.02 758.583L1127.05 798.619C1130.39 803.401 1136.21 805.81 1141.96 804.796L1190.08 796.302C1190.77 796.181 1191.36 796.777 1191.24 797.462L1182.75 845.588C1181.74 851.337 1184.14 857.152 1188.93 860.499L1228.96 888.524C1229.53 888.922 1229.53 889.765 1228.96 890.164L1188.93 918.189C1184.14 921.536 1181.74 927.352 1182.75 933.1L1191.24 981.226C1191.36 981.911 1190.77 982.507 1190.08 982.386L1141.96 973.893C1136.21 972.878 1130.39 975.287 1127.05 980.069L1099.02 1020.1C1098.62 1020.67 1097.78 1020.67 1097.38 1020.1L1069.36 980.069C1066.01 975.287 1060.19 972.878 1054.45 973.893L1006.32 982.386C1005.63 982.507 1005.04 981.911 1005.16 981.226L1013.65 933.1C1014.67 927.352 1012.26 921.536 1007.48 918.188L967.44 890.164C966.871 889.765 966.871 888.922 967.44 888.524M1099.02 758.583C1098.62 758.013 1097.78 758.013 1097.38 758.583L1069.36 798.619C1066.01 803.401 1060.19 805.81 1054.45 804.796L1006.32 796.302C1005.63 796.181 1005.04 796.777 1005.16 797.462L1013.65 845.588C1014.67 851.337 1012.26 857.152 1007.48 860.499L967.44 888.524M967.44 888.524L963.55 882.966" stroke="#211D4F" stroke-width="14.0148"/>
<path d="M1097.7 962.56C1136.46 962.56 1167.88 931.138 1167.88 892.378C1167.88 853.618 1136.46 822.196 1097.7 822.196C1058.94 822.196 1027.52 853.618 1027.52 892.378C1027.52 931.138 1058.94 962.56 1097.7 962.56Z" fill="#F72E3F"/>
<g clip-path="url(#clip2_6_536)">
<path d="M1010.63 1421.32C1029.13 1421.32 1044.14 1406.32 1044.14 1387.81C1044.14 1369.3 1029.13 1354.3 1010.63 1354.3C992.117 1354.3 977.113 1369.3 977.113 1387.81C977.113 1406.32 992.117 1421.32 1010.63 1421.32Z" stroke="#211D4F" stroke-width="12.3465"/>
<path d="M990.782 1508.63C1009.29 1508.63 1024.29 1493.62 1024.29 1475.12C1024.29 1456.61 1009.29 1441.6 990.782 1441.6C972.274 1441.6 957.27 1456.61 957.27 1475.12C957.27 1493.62 972.274 1508.63 990.782 1508.63Z" fill="#F72E3F" stroke="#F72E3F" stroke-width="12.3465"/>
<path d="M1141.59 1421.32C1160.09 1421.32 1175.1 1406.32 1175.1 1387.81C1175.1 1369.3 1160.09 1354.3 1141.59 1354.3C1123.08 1354.3 1108.07 1369.3 1108.07 1387.81C1108.07 1406.32 1123.08 1421.32 1141.59 1421.32Z" fill="#F72E3F" stroke="#F72E3F" stroke-width="12.3465"/>
<path d="M1074.12 1349.89C1092.63 1349.89 1107.63 1334.88 1107.63 1316.37C1107.63 1297.87 1092.63 1282.86 1074.12 1282.86C1055.61 1282.86 1040.61 1297.87 1040.61 1316.37C1040.61 1334.88 1055.61 1349.89 1074.12 1349.89Z" fill="#F72E3F" stroke="#F72E3F" stroke-width="12.3465"/>
<path d="M1161.43 1508.63C1179.94 1508.63 1194.94 1493.62 1194.94 1475.12C1194.94 1456.61 1179.94 1441.6 1161.43 1441.6C1142.92 1441.6 1127.92 1456.61 1127.92 1475.12C1127.92 1493.62 1142.92 1508.63 1161.43 1508.63Z" stroke="#211D4F" stroke-width="12.3465"/>
<path d="M1074.12 1417.68L1145.56 1385.94" stroke="#211D4F" stroke-width="12.3465"/>
<path d="M1074.12 1476.88H1161.43" stroke="#211D4F" stroke-width="12.3465"/>
<path d="M1074.12 1417.69L1007.54 1386.04" stroke="#211D4F" stroke-width="12.3465"/>
<path d="M1074.12 1476.88L986.814 1476.88" stroke="#211D4F" stroke-width="12.3465"/>
<path d="M1075.11 1530.68V1308.44" stroke="#211D4F" stroke-width="12.3465"/>
</g>
<path d="M1528.63 264.151C1520.19 256.524 1506.71 262.51 1506.71 273.881V462.074C1506.71 469.319 1512.58 475.193 1519.83 475.193H1576.04C1583.29 475.193 1589.16 469.319 1589.16 462.074V324.707C1589.16 320.999 1587.59 317.463 1584.84 314.976L1528.63 264.151Z" fill="#F72E3F"/>
<path d="M1524.41 268.019C1519.92 264.09 1512.89 267.279 1512.89 273.246V462.076C1512.89 465.912 1516 469.021 1519.83 469.021H1735.64C1742.05 469.021 1745.04 461.072 1740.21 456.85L1524.41 268.019Z" stroke="#211D4F" stroke-width="12.3465"/>
<path d="M1625.05 441.417L1630.39 432.157L1635.74 441.417L1659.04 481.78L1664.39 491.04H1653.7H1607.09H1596.4L1601.74 481.78L1625.05 441.417Z" fill="#211D4F" stroke="#FFCA6A" stroke-width="12.3465"/>
<path d="M1513.77 949.995C1513.77 949.995 1513.77 929.715 1549.52 915.84C1584.21 902.498 1577.8 887.556 1577.8 887.556L1531.91 877.416C1531.91 877.416 1553.26 841.127 1553.26 804.838C1553.26 784.025 1570.33 764.28 1599.68 764.28C1629.04 764.28 1648.78 778.155 1648.78 804.838C1648.78 845.93 1670.66 877.416 1670.66 877.416L1624.23 887.556C1624.23 887.556 1621.57 904.633 1647.71 915.84C1686.14 931.85 1686.14 949.995 1686.14 949.995H1513.77Z" stroke="#211D4F" stroke-width="12.3465" stroke-miterlimit="10" stroke-linecap="round" stroke-linejoin="round"/>
<path d="M1582.08 769.617C1582.08 769.617 1600.23 828.854 1648.79 805.372" stroke="#211D4F" stroke-width="12.3465" stroke-miterlimit="10" stroke-linecap="round" stroke-linejoin="round"/>
<path d="M1578.34 888.091C1578.34 875.283 1546.85 855.538 1552.72 820.85C1552.72 820.85 1588.48 808.042 1582.07 770.152" stroke="#211D4F" stroke-width="12.3465" stroke-miterlimit="10" stroke-linecap="round" stroke-linejoin="round"/>
<path d="M1624.19 888.091C1624.19 875.283 1655.15 854.47 1649.81 819.781" stroke="#211D4F" stroke-width="12.3465" stroke-miterlimit="10" stroke-linecap="round" stroke-linejoin="round"/>
<path d="M1678.87 905.621C1681.58 900.868 1688.43 900.869 1691.13 905.622L1720.13 956.567L1749.26 1007.72C1751.94 1012.42 1748.54 1018.27 1743.13 1018.27H1685H1626.86C1621.45 1018.27 1618.05 1012.42 1620.73 1007.72L1649.86 956.567L1678.87 905.621Z" fill="#F72E3F"/>
<path d="M1691.89 998.245C1691.89 1001.65 1689.13 1004.42 1685.72 1004.42C1682.31 1004.42 1679.55 1001.65 1679.55 998.245C1679.55 994.835 1682.31 992.072 1685.72 992.072C1689.13 992.072 1691.89 994.835 1691.89 998.245Z" fill="#211D4F"/>
<path d="M1685.72 928.573V981.487" stroke="#211D4F" stroke-width="12.3465"/>
<path d="M1586.66 1427.22L1621.05 1393L1567.99 1338.71L1532.63 1373.19C1518.13 1387.69 1518.13 1411.21 1532.63 1425.71L1534.14 1427.22C1548.65 1441.72 1572.16 1441.72 1586.66 1427.22Z" fill="#F72E3F"/>
<path d="M1652.99 1308.39L1651.47 1306.88C1636.97 1292.38 1613.46 1292.38 1598.96 1306.88L1532.64 1373.2C1518.14 1387.7 1518.14 1411.21 1532.64 1425.71L1534.15 1427.23C1548.66 1441.73 1572.17 1441.73 1586.67 1427.23L1652.99 1360.91C1667.49 1346.41 1667.49 1322.9 1652.99 1308.39Z" stroke="#211D4F" stroke-width="10.5828" stroke-miterlimit="10"/>
<path d="M1726.47 1422.76C1701.17 1397.46 1659.71 1400.09 1636.78 1420.73L1726.43 1514.41C1751.75 1489.09 1751.77 1448.06 1726.47 1422.76Z" fill="#F72E3F"/>
<path d="M1679.93 1534.61C1715.72 1534.61 1744.73 1505.59 1744.73 1469.8C1744.73 1434.02 1715.72 1405 1679.93 1405C1644.14 1405 1615.13 1434.02 1615.13 1469.8C1615.13 1505.59 1644.14 1534.61 1679.93 1534.61Z" stroke="#211D4F" stroke-width="10.5828" stroke-miterlimit="10"/>
<defs>
<clipPath id="clip0_6_536">
<rect width="296.317" height="261.041" fill="white" transform="translate(383.681 242.534)"/>
</clipPath>
<clipPath id="clip1_6_536">
<rect width="250.438" height="250.438" fill="white" transform="translate(383.681 1281.4)"/>
</clipPath>
<clipPath id="clip2_6_536">
<rect width="253.986" height="261.041" fill="white" transform="translate(949.481 1276.44)"/>
</clipPath>
</defs>
</svg>
