<svg width="168" height="238" viewBox="0 0 168 238" fill="none" xmlns="http://www.w3.org/2000/svg">
<path fill-rule="evenodd" clip-rule="evenodd" d="M74.7073 233.936C105.247 233.936 130.003 209.179 130.003 178.64C130.003 177.634 129.977 176.635 129.924 175.643C129.822 173.743 131.066 171.999 132.928 171.606L137.001 170.746C137.011 170.744 137.016 170.734 137.013 170.725V170.725C137.01 170.716 137.015 170.707 137.024 170.704C141.956 169.299 145.568 164.76 145.568 159.377C145.568 152.873 140.296 147.6 133.792 147.6C132.217 147.6 130.714 147.909 129.341 148.47C129.327 148.476 129.312 148.469 129.307 148.455V148.455C129.302 148.441 129.286 148.434 129.272 148.44L125.797 150.086C124.152 150.865 122.194 150.234 121.207 148.704C111.364 133.446 94.2155 123.344 74.7073 123.344C44.1681 123.344 19.4111 148.101 19.4111 178.64C19.4111 209.179 44.1681 233.936 74.7073 233.936Z" fill="white"/>
<path d="M125.797 150.086L127.356 153.378L125.797 150.086ZM121.207 148.704L118.146 150.679L121.207 148.704ZM137.024 170.704L136.026 167.201L137.024 170.704ZM129.272 148.44L130.831 151.733L129.272 148.44ZM137.001 170.746L136.249 167.182L137.001 170.746ZM129.341 148.47L130.718 151.843L129.341 148.47ZM129.924 175.643L126.286 175.837L129.924 175.643ZM126.361 178.64C126.361 207.167 103.235 230.293 74.7073 230.293V237.579C107.258 237.579 133.646 211.191 133.646 178.64H126.361ZM126.286 175.837C126.336 176.765 126.361 177.699 126.361 178.64H133.646C133.646 177.57 133.618 176.506 133.561 175.449L126.286 175.837ZM133.68 175.17L137.753 174.31L136.249 167.182L132.176 168.042L133.68 175.17ZM138.022 174.207C144.478 172.369 149.211 166.43 149.211 159.377H141.925C141.925 163.089 139.435 166.23 136.026 167.201L138.022 174.207ZM149.211 159.377C149.211 150.861 142.308 143.957 133.792 143.957V151.243C138.284 151.243 141.925 154.885 141.925 159.377H149.211ZM133.792 143.957C131.736 143.957 129.766 144.362 127.963 145.098L130.718 151.843C131.662 151.457 132.697 151.243 133.792 151.243V143.957ZM127.713 145.148L124.238 146.794L127.356 153.378L130.831 151.733L127.713 145.148ZM74.7073 126.987C92.9265 126.987 108.945 136.417 118.146 150.679L124.268 146.73C113.783 130.475 95.5044 119.701 74.7073 119.701V126.987ZM23.0539 178.64C23.0539 150.113 46.1799 126.987 74.7073 126.987V119.701C42.1562 119.701 15.7684 146.089 15.7684 178.64H23.0539ZM74.7073 230.293C46.1799 230.293 23.0539 207.167 23.0539 178.64H15.7684C15.7684 211.191 42.1562 237.579 74.7073 237.579V230.293ZM124.238 146.794C124.245 146.79 124.256 146.786 124.268 146.783C124.28 146.78 124.291 146.779 124.301 146.778C124.321 146.777 124.329 146.78 124.326 146.779C124.322 146.778 124.313 146.774 124.301 146.765C124.29 146.757 124.279 146.746 124.268 146.73L118.146 150.679C120.052 153.633 123.941 154.996 127.356 153.378L124.238 146.794ZM140.456 169.534C141.141 171.517 140.009 173.642 138.022 174.207L136.026 167.201C134.021 167.772 132.879 169.915 133.57 171.916L140.456 169.534ZM132.749 147.264C132.035 145.2 129.687 144.213 127.713 145.148L130.831 151.733C128.885 152.655 126.569 151.682 125.865 149.647L132.749 147.264ZM137.753 174.31C139.908 173.856 141.175 171.615 140.456 169.534L133.57 171.916C132.857 169.853 134.114 167.633 136.249 167.182L137.753 174.31ZM127.963 145.098C129.881 144.315 132.069 145.299 132.749 147.264L125.865 149.647C126.554 151.639 128.773 152.637 130.718 151.843L127.963 145.098ZM133.561 175.449C133.556 175.351 133.586 175.269 133.625 175.216C133.643 175.192 133.658 175.18 133.664 175.176C133.668 175.174 133.671 175.172 133.68 175.17L132.176 168.042C128.427 168.833 126.096 172.28 126.286 175.837L133.561 175.449Z" fill="black"/>
<mask id="path-3-inside-1_919_1546" fill="white">
<path fill-rule="evenodd" clip-rule="evenodd" d="M163.591 68.4744C163.591 106.257 132.962 136.885 95.1803 136.885C94.1233 136.885 93.0719 136.861 92.0265 136.814C63.0768 145.275 37.6832 163.038 19.8019 187.398L18.9799 188.518C13.8084 185.532 12.2208 182.624 9.96793 178.497C9.22517 177.137 8.41009 175.644 7.37042 173.972C3.17738 167.229 0.712007 159.556 0.192683 151.632C-0.32664 143.709 1.11611 135.78 4.39315 128.547C5.88939 125.245 7.74693 122.134 9.92354 119.269C7.69355 115.541 6.38067 111.335 6.09629 106.996C5.80163 102.5 6.62023 98.0014 8.47959 93.8977C10.339 89.794 13.1817 86.2122 16.756 83.4696C19.9315 81.0329 23.5975 79.3254 27.4932 78.4601C27.0165 75.2005 26.7697 71.8663 26.7697 68.4744C26.7697 30.6923 57.3982 0.0637512 95.1803 0.0637512C132.962 0.0637512 163.591 30.6923 163.591 68.4744Z"/>
</mask>
<path fill-rule="evenodd" clip-rule="evenodd" d="M163.591 68.4744C163.591 106.257 132.962 136.885 95.1803 136.885C94.1233 136.885 93.0719 136.861 92.0265 136.814C63.0768 145.275 37.6832 163.038 19.8019 187.398L18.9799 188.518C13.8084 185.532 12.2208 182.624 9.96793 178.497C9.22517 177.137 8.41009 175.644 7.37042 173.972C3.17738 167.229 0.712007 159.556 0.192683 151.632C-0.32664 143.709 1.11611 135.78 4.39315 128.547C5.88939 125.245 7.74693 122.134 9.92354 119.269C7.69355 115.541 6.38067 111.335 6.09629 106.996C5.80163 102.5 6.62023 98.0014 8.47959 93.8977C10.339 89.794 13.1817 86.2122 16.756 83.4696C19.9315 81.0329 23.5975 79.3254 27.4932 78.4601C27.0165 75.2005 26.7697 71.8663 26.7697 68.4744C26.7697 30.6923 57.3982 0.0637512 95.1803 0.0637512C132.962 0.0637512 163.591 30.6923 163.591 68.4744Z" fill="white"/>
<path d="M92.0265 136.814L92.3568 129.536L91.1461 129.481L89.9827 129.821L92.0265 136.814ZM19.8019 187.398L13.9288 183.087L13.9288 183.087L19.8019 187.398ZM18.9799 188.518L15.3371 194.827L20.9903 198.091L24.853 192.829L18.9799 188.518ZM9.96793 178.497L16.3626 175.006L16.3626 175.006L9.96793 178.497ZM7.37042 173.972L1.18351 177.819L1.18352 177.819L7.37042 173.972ZM0.192683 151.632L-7.07727 152.109L-7.07727 152.109L0.192683 151.632ZM4.39315 128.547L-2.243 125.54L-2.243 125.54L4.39315 128.547ZM9.92354 119.269L15.7252 123.676L18.7038 119.754L16.1757 115.529L9.92354 119.269ZM6.09629 106.996L-1.17367 107.472L-1.17367 107.472L6.09629 106.996ZM8.47959 93.8977L15.1157 96.9045L15.1157 96.9045L8.47959 93.8977ZM16.756 83.4696L12.3208 77.6896L12.3208 77.6896L16.756 83.4696ZM27.4932 78.4601L29.0729 85.5723L35.6818 84.1044L34.7021 77.4058L27.4932 78.4601ZM95.1803 144.171C136.986 144.171 170.877 110.28 170.877 68.4744H156.305C156.305 102.233 128.939 129.6 95.1803 129.6V144.171ZM91.6962 144.092C92.8516 144.144 94.0131 144.171 95.1803 144.171V129.6C94.2335 129.6 93.2922 129.578 92.3568 129.536L91.6962 144.092ZM25.6751 191.709C42.6083 168.64 66.6556 151.819 94.0704 143.807L89.9827 129.821C59.498 138.73 32.7581 157.435 13.9288 183.087L25.6751 191.709ZM24.853 192.829L25.6751 191.709L13.9288 183.087L13.1067 184.206L24.853 192.829ZM3.57323 181.988C4.64028 183.943 5.91332 186.32 7.74529 188.554C9.69154 190.928 12.085 192.949 15.3371 194.827L22.6226 182.208C20.7033 181.1 19.7171 180.174 19.0135 179.316C18.1956 178.318 17.5484 177.178 16.3626 175.006L3.57323 181.988ZM1.18352 177.819C2.10145 179.295 2.82728 180.622 3.57324 181.988L16.3626 175.006C15.6231 173.651 14.7187 171.992 13.5573 170.124L1.18352 177.819ZM-7.07727 152.109C-6.47959 161.228 -3.64222 170.058 1.18351 177.819L13.5573 170.124C9.99698 164.399 7.9036 157.884 7.46264 151.156L-7.07727 152.109ZM-2.243 125.54C-6.01451 133.864 -7.67496 142.99 -7.07727 152.109L7.46264 151.156C7.02168 144.428 8.24674 137.695 11.0293 131.554L-2.243 125.54ZM4.12187 114.862C1.61685 118.16 -0.520995 121.74 -2.243 125.54L11.0293 131.554C12.2998 128.75 13.877 126.109 15.7252 123.676L4.12187 114.862ZM16.1757 115.529C14.5387 112.792 13.575 109.704 13.3662 106.519L-1.17367 107.472C-0.813662 112.965 0.84836 118.29 3.67139 123.009L16.1757 115.529ZM13.3662 106.519C13.1499 103.219 13.7509 99.9169 15.1157 96.9045L1.84344 90.8909C-0.51039 96.086 -1.54669 101.781 -1.17367 107.472L13.3662 106.519ZM15.1157 96.9045C16.4806 93.8922 18.5674 91.2629 21.1911 89.2496L12.3208 77.6896C7.79598 81.1616 4.19728 85.6959 1.84344 90.8909L15.1157 96.9045ZM21.1911 89.2496C23.5222 87.4609 26.2132 86.2075 29.0729 85.5723L25.9135 71.3479C20.9818 72.4433 16.3409 74.6048 12.3208 77.6896L21.1911 89.2496ZM19.4841 68.4744C19.4841 72.2203 19.7567 75.9068 20.2843 79.5144L34.7021 77.4058C34.2763 74.4942 34.0552 71.5124 34.0552 68.4744H19.4841ZM95.1803 -7.22181C53.3744 -7.22181 19.4841 26.6686 19.4841 68.4744H34.0552C34.0552 34.716 61.4219 7.34931 95.1803 7.34931V-7.22181ZM170.877 68.4744C170.877 26.6685 136.986 -7.22181 95.1803 -7.22181V7.34931C128.939 7.34931 156.305 34.716 156.305 68.4744H170.877Z" fill="black" mask="url(#path-3-inside-1_919_1546)"/>
<circle cx="97.4812" cy="154.595" r="8.37575" fill="black"/>
<circle cx="159.535" cy="151.368" r="8.37575" fill="black"/>
</svg>
