<svg width="1806" height="2208" viewBox="0 0 1806 2208" fill="none" xmlns="http://www.w3.org/2000/svg">
<rect x="0.570374" width="1804.86" height="2207.72" fill="#131F24"/>
<path d="M715.668 1729.16C715.668 1522.37 883.306 1354.73 1090.1 1354.73C1296.89 1354.73 1464.53 1522.37 1464.53 1729.16V2207.72H715.668V1729.16Z" fill="#C86902"/>
<rect x="707.265" y="809.145" width="771.838" height="474.952" rx="237.476" fill="#FFCBA3"/>
<path d="M1090.49 1252.48C1159.03 1252.48 1214.59 1308.04 1214.59 1376.58L1214.59 1693.96L966.396 1693.96L966.396 1376.58C966.396 1308.04 1021.96 1252.48 1090.49 1252.48Z" fill="white"/>
<rect x="1214.59" y="1057.88" width="441.482" height="248.193" rx="124.097" transform="rotate(90 1214.59 1057.88)" fill="#FFCBA3"/>
<circle cx="685.379" cy="1047.09" r="66.3586" fill="#FFCBA3"/>
<circle cx="32.9095" cy="32.9095" r="32.9095" transform="matrix(1 0 0 -1 658.929 1142.79)" fill="#C86902"/>
<mask id="mask0_285_799" style="mask-type:alpha" maskUnits="userSpaceOnUse" x="707" y="809" width="773" height="476">
<rect x="707.265" y="809.146" width="771.838" height="474.952" rx="237.476" fill="#FFCBA3"/>
</mask>
<g mask="url(#mask0_285_799)">
<path d="M1093.18 1201.76H1103.76C1142.78 1201.76 1180.5 1187.68 1209.97 1162.1V1162.1" stroke="white" stroke-width="65.7863" stroke-linecap="round" stroke-linejoin="round"/>
<path d="M883.618 816.466C786.221 816.466 707.265 895.421 707.265 992.818V1025.26H768.07C831.885 1025.26 883.618 973.524 883.618 909.709V816.466Z" fill="#D6C5B9"/>
<path d="M1296.34 816.466C1393.74 816.466 1472.69 895.421 1472.69 992.818V1025.26H1411.89C1348.07 1025.26 1296.34 973.524 1296.34 909.709V816.466Z" fill="#D6C5B9"/>
</g>
<rect x="917.66" y="865.138" width="151.381" height="222.253" rx="75.6906" fill="white"/>
<rect x="981.271" y="966.478" width="70.1006" height="75.0721" rx="35.0503" fill="#3D3D3D"/>
<path d="M917.66 940.828C917.66 899.026 951.548 865.138 993.35 865.138C1035.15 865.138 1069.04 899.026 1069.04 940.828V948.546H917.66V940.828Z" fill="#E99B5F"/>
<rect width="151.381" height="222.253" rx="75.6906" transform="matrix(-1 0 0 1 1264.64 865.138)" fill="white"/>
<rect width="70.1006" height="75.0721" rx="35.0503" transform="matrix(-1 0 0 1 1201.03 966.478)" fill="#3D3D3D"/>
<path d="M1264.64 940.828C1264.64 899.026 1230.75 865.138 1188.95 865.138C1147.14 865.138 1113.26 899.026 1113.26 940.828V948.546H1264.64V940.828Z" fill="#E99B5F"/>
<circle cx="1498.95" cy="1047.09" r="66.3586" fill="#FFCBA3"/>
<path d="M669.718 809.144C669.718 690.774 765.676 594.815 884.046 594.815H1076.32C1194.69 594.815 1290.65 690.774 1290.65 809.144H669.718Z" fill="#3D3D3D"/>
<path d="M669.718 808.933H1019.93L1019.93 840.889C1019.93 937.598 941.534 1016 844.825 1016C748.116 1016 669.718 937.598 669.718 840.888L669.718 808.933Z" fill="#3D3D3D"/>
<path d="M1121.08 1095.24C1121.08 1112.35 1107.21 1126.22 1090.1 1126.22C1072.99 1126.22 1059.12 1112.35 1059.12 1095.24C1059.12 1078.13 1090.1 1033.55 1090.1 1033.55C1090.1 1033.55 1121.08 1078.13 1121.08 1095.24Z" fill="#EFA678"/>
<rect x="966.397" y="1693.96" width="248.193" height="513.76" fill="#744007"/>
<path d="M1067.2 1903.99C1061.88 1903.99 1057.57 1908.31 1057.57 1913.62C1057.57 1918.94 1061.88 1923.25 1067.2 1923.25V1903.99ZM1116.14 1923.25C1121.46 1923.25 1125.77 1918.94 1125.77 1913.62C1125.77 1908.31 1121.46 1903.99 1116.14 1903.99V1923.25ZM1082.04 2197.92V2207.55H1101.3V2197.92H1082.04ZM1067.2 1923.25H1091.67V1903.99H1067.2V1923.25ZM1091.67 1923.25H1116.14V1903.99H1091.67V1923.25ZM1082.04 1913.62V2197.92H1101.3V1913.62H1082.04Z" fill="#603303"/>
<path d="M551.581 1280.12L436.394 1330.05L466.664 1399.89C471.468 1410.97 484.347 1416.06 495.43 1411.26L570.481 1378.73C581.565 1373.92 586.655 1361.04 581.851 1349.96L551.581 1280.12Z" fill="#FFCBA3"/>
<rect width="52.2324" height="201.312" rx="26.1162" transform="matrix(-0.925545 0.378638 0.369831 0.929099 419.698 1019.65)" fill="#FFCBA3"/>
<rect width="54.3286" height="216.789" rx="27.1643" transform="matrix(-0.968336 0.249651 0.221912 0.975067 500.667 1033.42)" fill="#FFCBA3"/>
<path d="M510.08 1145.82L404.426 1191.62C369.145 1206.91 356.764 1250.72 378.821 1282.21L401.602 1314.75C415.507 1334.6 441.461 1341.94 463.702 1332.3L555.178 1292.65C563.799 1288.91 567.758 1278.89 564.021 1270.27L510.08 1145.82Z" fill="#FFCBA3"/>
<rect width="52.9364" height="193.889" rx="26.4682" transform="matrix(-0.67042 0.741982 0.708745 0.705464 304.752 1122.7)" fill="#FFCBA3"/>
<rect width="54.1328" height="188.528" rx="27.0664" transform="matrix(-0.834932 0.550352 0.53232 0.846543 351.367 1055.76)" fill="#FFCBA3"/>
<path d="M621.625 1207.92C630.774 1195.51 628.128 1178.03 615.713 1168.88C603.299 1159.73 585.818 1162.37 576.669 1174.79L511.794 1262.81C509.79 1265.53 510.37 1269.36 513.089 1271.36L548.198 1297.24C550.917 1299.24 554.746 1298.66 556.75 1295.94L621.625 1207.92Z" fill="#FFCBA3"/>
<path d="M932.523 1857.06L719.58 1938.1V1996.99C719.58 2028.9 745.447 2054.77 777.354 2054.77H874.749C906.657 2054.77 932.523 2028.9 932.523 1996.99V1857.06Z" fill="#B45E00"/>
<path d="M927.187 1645.9C966.991 1610.64 970.669 1549.78 935.403 1509.98C900.137 1470.17 839.281 1466.49 799.478 1501.76L927.187 1645.9ZM672.582 1742.83L583.275 1778.83C594.974 1807.86 620.048 1829.39 650.508 1836.56C680.968 1843.73 713.014 1835.66 736.436 1814.91L672.582 1742.83ZM799.478 1501.76L608.727 1670.76L736.436 1814.91L927.187 1645.9L799.478 1501.76ZM761.889 1706.84L596.269 1295.96L417.655 1367.96L583.275 1778.83L761.889 1706.84Z" fill="#C86902"/>
<path d="M1433.45 1968.11L1471.39 1927.3L1402.96 1798.08L1296.59 1875.61L1433.45 1968.11Z" fill="#FFCBA3"/>
<path d="M1248.46 1857.06L1461.41 1938.1V1997C1461.41 2028.9 1435.54 2054.77 1403.63 2054.77H1306.24C1274.33 2054.77 1248.46 2028.9 1248.46 1997V1857.06Z" fill="#B45E00"/>
<path d="M1321.16 1915.84C1304.69 1927.54 1281.84 1923.67 1270.14 1907.19C1258.44 1890.72 1262.31 1867.87 1278.79 1856.17L1321.16 1915.84ZM1278.79 1856.17L1398.28 1771.32L1440.65 1830.99L1321.16 1915.84L1278.79 1856.17Z" fill="#FFCBA3"/>
<path d="M1254.11 1638.66C1215.09 1602.54 1212.73 1541.61 1248.86 1502.59C1284.98 1463.56 1345.9 1461.21 1384.93 1497.33L1254.11 1638.66ZM1508.41 1742.84L1573.81 1672.17C1612.5 1707.99 1615.2 1768.25 1579.86 1807.38L1508.41 1742.84ZM1384.93 1497.33L1573.81 1672.17L1443 1813.5L1254.11 1638.66L1384.93 1497.33ZM1579.86 1807.38L1467.63 1931.64L1324.71 1802.55L1436.95 1678.29L1579.86 1807.38Z" fill="#C86902"/>
<path d="M172.11 324.57C174.683 318.55 181.545 315.685 187.549 318.263L204.703 325.428C210.707 328.009 213.566 334.887 210.993 340.906C208.42 346.926 201.558 349.791 195.554 347.211L178.4 340.046C172.396 337.467 169.537 330.589 172.11 324.57Z" fill="#F49000"/>
<path d="M365.094 254.349C359.376 251.483 352.23 253.776 349.369 259.508L340.793 276.132C337.934 281.864 340.221 289.029 345.938 291.895C351.656 294.762 358.804 292.469 361.663 286.736L370.242 270.113C373.1 264.38 370.813 257.215 365.094 254.349Z" fill="#F49000"/>
<path d="M365.952 118.781C363.95 111.616 355.66 108.75 349.656 112.762L310.774 139.131L297.621 102.731C296.193 98.7184 294.191 95.2791 291.331 92.1263C279.609 79.802 260.168 79.2288 247.874 90.6933C229.576 107.89 216.139 118.208 207.848 121.074C199.556 124.227 182.402 125.087 156.671 123.654C152.668 123.367 148.666 123.94 144.663 125.66C128.652 131.392 120.647 148.875 126.365 164.926L139.803 201.612L92.6284 206.485C85.4808 207.344 80.9063 215.083 84.0513 221.675C98.0606 253.489 130.94 272.979 166.392 269.826C188.406 306.513 233.865 323.996 275.607 308.804C317.348 293.615 341.079 250.91 334.216 208.491C363.093 188.141 375.387 152.315 365.952 118.781Z" fill="#58CC02"/>
<path d="M306.484 159.767L299.052 139.131C294.19 126.233 282.468 117.922 269.602 116.775C268.173 114.196 266.172 111.616 263.884 109.61C262.741 108.463 260.168 109.037 259.31 111.043L256.165 118.495H255.879C254.45 114.482 252.162 110.47 248.446 107.604C247.302 106.171 244.729 107.03 243.871 109.037L229.576 144.003C223.858 151.742 213.279 155.468 203.845 152.888L170.68 135.692C168.964 134.545 167.249 135.405 166.677 137.698C165.819 142.284 166.677 146.87 168.393 151.169H168.107L160.387 147.156C158.386 146.01 156.099 147.156 155.813 149.449C155.241 152.888 155.527 156.328 156.385 159.767C148.379 168.939 145.234 181.836 149.809 194.16L157.242 214.797C163.818 232.567 183.26 241.452 200.985 235.146L203.559 234.286C216.71 229.414 225.001 217.376 225.859 204.192C236.152 200.466 243.299 197.886 247.874 196.167C257.023 205.338 271.032 209.064 283.898 204.479L286.185 203.619C303.91 197.027 312.774 177.537 306.484 159.767Z" fill="#89E219"/>
<path d="M230.148 182.697C236.724 180.404 244.158 183.843 246.731 190.435L254.164 210.498C256.452 217.09 253.021 224.542 246.445 227.122C239.869 229.415 232.436 225.975 229.863 219.383L222.429 199.32C220.142 192.442 223.573 184.99 230.148 182.697Z" fill="#F49000"/>
<path d="M231.863 187.282C237.009 185.276 242.727 188.142 244.729 193.301L249.589 206.772C251.59 211.931 248.731 217.663 243.585 219.669C238.439 221.676 232.721 218.81 230.719 213.651L225.859 200.18C224.144 195.021 226.717 189.289 231.863 187.282Z" fill="#B66E28"/>
<path d="M217.282 199.033C215.853 190.721 220.713 182.41 229.576 178.97C237.295 176.104 246.73 179.543 250.733 186.709L251.019 187.569L235.294 196.74L217.568 199.893L217.282 199.033Z" fill="#FFC200"/>
<path d="M227.003 188.714C226.145 188.714 225.574 188.428 225.002 187.855C224.144 186.708 224.144 185.275 225.288 184.129C227.861 181.836 231.006 180.976 234.437 180.976C235.866 180.976 237.01 182.122 237.01 183.556C237.01 184.989 235.866 186.135 234.437 186.135C232.15 186.135 230.434 186.708 228.719 188.141C228.147 188.428 227.575 188.714 227.003 188.714Z" fill="#FFDE00"/>
<path d="M294.19 157.761L290.187 146.869C285.613 133.972 271.032 127.093 258.166 131.966C245.301 136.838 238.439 151.169 243.299 164.066L248.445 178.11C249.875 182.123 252.448 185.562 255.307 188.428C269.03 175.531 282.182 165.499 294.19 157.761Z" fill="white"/>
<path d="M213.566 203.62C214.137 199.607 213.851 195.308 212.136 191.295L206.99 177.251C202.415 164.354 187.834 157.475 174.969 162.348C162.103 167.22 155.241 181.55 160.102 194.448L164.104 205.053C178.113 203.046 194.982 202.186 213.566 203.62Z" fill="white"/>
<path d="M181.258 203.333C187.834 203.047 194.982 202.76 202.415 203.047C203.844 200.181 204.13 197.028 202.987 193.875L198.698 181.838C196.411 175.532 189.549 172.379 183.545 174.672C181.83 175.246 180.4 176.105 179.257 177.252C181.258 178.112 182.688 179.545 183.545 181.838C184.975 185.85 182.974 190.149 178.971 191.582C178.399 191.869 177.827 191.869 177.256 191.869L180.686 201.9C180.972 202.474 181.258 202.76 181.258 203.333Z" fill="#122431"/>
<path d="M263.313 181.263C268.745 176.391 274.177 172.091 279.324 168.079C279.324 167.506 279.038 166.646 278.752 166.073L274.463 154.035C272.176 147.729 265.314 144.577 259.31 146.87C257.309 147.729 255.593 148.876 254.45 150.309C256.165 151.169 257.595 152.602 258.167 154.608C259.596 158.621 257.595 162.92 253.592 164.353C253.306 164.353 253.306 164.353 253.02 164.353L256.451 174.098C257.595 177.537 260.168 180.117 263.313 181.263Z" fill="#122431"/>
<path d="M224.144 258.937L245.587 251.198C246.73 250.911 247.874 251.485 247.874 252.631C247.874 258.363 244.157 263.522 238.439 265.529C232.721 267.535 226.431 266.102 223 261.516C222.429 260.656 223 259.223 224.144 258.937Z" fill="#89E219"/>
<path d="M261.597 245.179L283.04 237.44C284.184 237.154 285.327 237.727 285.327 238.873C285.327 244.606 281.61 249.765 275.892 251.771C270.174 253.777 263.884 252.344 260.454 247.758C260.168 246.898 260.454 245.465 261.597 245.179Z" fill="#89E219"/>
<path d="M249.589 270.114L271.032 262.376C272.175 262.089 273.319 262.662 273.319 263.809C273.319 269.541 269.602 274.7 263.884 276.706C258.166 278.713 251.876 277.28 248.445 272.694C247.874 271.834 248.445 270.688 249.589 270.114Z" fill="#89E219"/>
</svg>
