<svg width="184" height="241" viewBox="0 0 184 241" fill="none" xmlns="http://www.w3.org/2000/svg">
<path fill-rule="evenodd" clip-rule="evenodd" d="M81.4167 228.55C110.304 228.55 133.722 205.132 133.722 176.245C133.722 175.294 133.697 174.349 133.647 173.41C133.551 171.613 134.727 169.963 136.488 169.592L140.341 168.778C140.351 168.776 140.356 168.767 140.353 168.758C140.35 168.75 140.355 168.741 140.363 168.738C145.029 167.41 148.446 163.116 148.446 158.024C148.446 151.871 143.458 146.884 137.306 146.884C135.816 146.884 134.394 147.177 133.095 147.707C133.083 147.713 133.068 147.706 133.064 147.693C133.059 147.679 133.043 147.673 133.031 147.679L129.744 149.236C128.188 149.973 126.335 149.376 125.402 147.929C116.091 133.495 99.8699 123.939 81.4167 123.939C52.5292 123.939 29.1112 147.357 29.1112 176.245C29.1112 205.132 52.5292 228.55 81.4167 228.55Z" fill="black"/>
<path d="M129.744 149.236L128.269 146.121L129.744 149.236ZM125.402 147.929L128.298 146.061L125.402 147.929ZM140.363 168.738L139.419 165.424L140.363 168.738ZM133.031 147.679L134.505 150.793L133.031 147.679ZM140.341 168.778L139.63 165.407L140.341 168.778ZM133.095 147.707L131.792 144.518L133.095 147.707ZM133.647 173.41L130.206 173.594L133.647 173.41ZM130.276 176.245C130.276 203.229 108.401 225.105 81.4167 225.105V231.996C112.207 231.996 137.168 207.036 137.168 176.245H130.276ZM130.206 173.594C130.253 174.471 130.276 175.355 130.276 176.245H137.168C137.168 175.233 137.141 174.226 137.088 173.226L130.206 173.594ZM137.2 172.963L141.053 172.15L139.63 165.407L135.777 166.22L137.2 172.963ZM141.307 172.052C147.414 170.313 151.891 164.696 151.891 158.024H145C145 161.536 142.644 164.506 139.419 165.424L141.307 172.052ZM151.891 158.024C151.891 149.968 145.361 143.438 137.306 143.438V150.33C141.555 150.33 145 153.775 145 158.024H151.891ZM137.306 143.438C135.362 143.438 133.498 143.821 131.792 144.518L134.399 150.897C135.291 150.533 136.271 150.33 137.306 150.33V143.438ZM131.556 144.565L128.269 146.121L131.219 152.35L134.505 150.793L131.556 144.565ZM81.4167 127.385C98.6506 127.385 113.803 136.305 122.506 149.797L128.298 146.061C118.379 130.685 101.089 120.494 81.4167 120.494V127.385ZM32.557 176.245C32.557 149.26 54.4322 127.385 81.4167 127.385V120.494C50.6261 120.494 25.6654 145.454 25.6654 176.245H32.557ZM81.4167 225.105C54.4322 225.105 32.557 203.229 32.557 176.245H25.6654C25.6654 207.036 50.6261 231.996 81.4167 231.996V225.105ZM128.269 146.121C128.276 146.118 128.285 146.114 128.297 146.112C128.308 146.109 128.319 146.107 128.328 146.106C128.347 146.105 128.355 146.108 128.352 146.107C128.348 146.106 128.339 146.103 128.328 146.094C128.318 146.087 128.307 146.076 128.298 146.061L122.506 149.797C124.309 152.591 127.988 153.88 131.219 152.35L128.269 146.121ZM143.609 167.631C144.258 169.507 143.187 171.517 141.307 172.052L139.419 165.424C137.523 165.965 136.442 167.993 137.097 169.885L143.609 167.631ZM136.32 146.566C135.644 144.614 133.423 143.681 131.556 144.565L134.505 150.793C132.664 151.665 130.474 150.745 129.807 148.82L136.32 146.566ZM141.053 172.15C143.091 171.72 144.29 169.6 143.609 167.631L137.097 169.885C136.421 167.934 137.61 165.833 139.63 165.407L141.053 172.15ZM131.792 144.518C133.607 143.776 135.677 144.708 136.32 146.566L129.807 148.82C130.46 150.704 132.559 151.649 134.399 150.897L131.792 144.518ZM137.088 173.226C137.083 173.134 137.111 173.056 137.148 173.007C137.165 172.984 137.179 172.973 137.185 172.969C137.189 172.966 137.191 172.965 137.2 172.963L135.777 166.22C132.231 166.968 130.026 170.23 130.206 173.594L137.088 173.226Z" fill="white"/>
<mask id="path-4-inside-1_404_484" fill="white">
<path fill-rule="evenodd" clip-rule="evenodd" d="M165.493 72.0376C165.493 107.776 136.521 136.748 100.783 136.748C99.7827 136.748 98.7882 136.726 97.7994 136.681C70.4154 144.684 46.3952 161.486 29.4811 184.529L28.7035 185.588C23.8117 182.764 22.31 180.013 20.179 176.11C19.4764 174.823 18.7054 173.41 17.722 171.829C13.7557 165.451 11.4237 158.193 10.9324 150.698C10.4412 143.203 11.8059 135.703 14.9057 128.861C16.321 125.738 18.0781 122.795 20.137 120.085C18.0277 116.559 16.7858 112.58 16.5168 108.476C16.2381 104.223 17.0125 99.9676 18.7713 96.0859C20.5301 92.2041 23.219 88.816 26.6 86.2217C29.6038 83.9169 33.0714 82.3017 36.7563 81.4832C36.3054 78.3999 36.0719 75.246 36.0719 72.0376C36.0719 36.2988 65.0439 7.32684 100.783 7.32684C136.521 7.32684 165.493 36.2988 165.493 72.0376Z"/>
</mask>
<path fill-rule="evenodd" clip-rule="evenodd" d="M165.493 72.0376C165.493 107.776 136.521 136.748 100.783 136.748C99.7827 136.748 98.7882 136.726 97.7994 136.681C70.4154 144.684 46.3952 161.486 29.4811 184.529L28.7035 185.588C23.8117 182.764 22.31 180.013 20.179 176.11C19.4764 174.823 18.7054 173.41 17.722 171.829C13.7557 165.451 11.4237 158.193 10.9324 150.698C10.4412 143.203 11.8059 135.703 14.9057 128.861C16.321 125.738 18.0781 122.795 20.137 120.085C18.0277 116.559 16.7858 112.58 16.5168 108.476C16.2381 104.223 17.0125 99.9676 18.7713 96.0859C20.5301 92.2041 23.219 88.816 26.6 86.2217C29.6038 83.9169 33.0714 82.3017 36.7563 81.4832C36.3054 78.3999 36.0719 75.246 36.0719 72.0376C36.0719 36.2988 65.0439 7.32684 100.783 7.32684C136.521 7.32684 165.493 36.2988 165.493 72.0376Z" fill="black"/>
<path d="M97.7994 136.681L98.1117 129.796L96.9665 129.744L95.8661 130.066L97.7994 136.681ZM29.4811 184.529L35.0366 188.607L35.0366 188.607L29.4811 184.529ZM28.7035 185.588L25.2577 191.556L30.6052 194.644L34.259 189.666L28.7035 185.588ZM20.179 176.11L14.1301 179.412H14.1301L20.179 176.11ZM17.722 171.829L11.8697 175.468H11.8697L17.722 171.829ZM10.9324 150.698L4.05566 151.149L10.9324 150.698ZM14.9057 128.861L8.62847 126.017L8.62847 126.017L14.9057 128.861ZM20.137 120.085L25.6249 124.253L28.4424 120.544L26.051 116.547L20.137 120.085ZM16.5168 108.476L9.64008 108.926L16.5168 108.476ZM18.7713 96.0859L25.0485 98.9301L25.0485 98.9301L18.7713 96.0859ZM26.6 86.2217L30.7953 91.6892L26.6 86.2217ZM36.7563 81.4832L38.2507 88.2108L44.502 86.8222L43.5753 80.4859L36.7563 81.4832ZM100.783 143.64C140.327 143.64 172.385 111.582 172.385 72.0376H158.602C158.602 103.97 132.715 129.857 100.783 129.857V143.64ZM97.487 143.565C98.5798 143.615 99.6785 143.64 100.783 143.64V129.857C99.887 129.857 98.9966 129.836 98.1117 129.796L97.487 143.565ZM35.0366 188.607C51.054 166.786 73.8006 150.875 99.7327 143.296L95.8661 130.066C67.0301 138.494 41.7365 156.187 23.9256 180.451L35.0366 188.607ZM34.259 189.666L35.0366 188.607L23.9257 180.451L23.148 181.51L34.259 189.666ZM14.1301 179.412C15.1395 181.261 16.3437 183.509 18.0766 185.623C19.9175 187.868 22.1815 189.78 25.2577 191.556L32.1493 179.62C30.3337 178.572 29.4009 177.696 28.7353 176.884C27.9616 175.941 27.3495 174.862 26.2278 172.807L14.1301 179.412ZM11.8697 175.468C12.738 176.864 13.4245 178.119 14.1301 179.412L26.2278 172.807C25.5282 171.526 24.6729 169.956 23.5743 168.19L11.8697 175.468ZM4.05566 151.149C4.62102 159.774 7.30493 168.127 11.8697 175.468L23.5743 168.19C20.2065 162.774 18.2263 156.611 17.8092 150.247L4.05566 151.149ZM8.62847 126.017C5.06094 133.891 3.4903 142.523 4.05566 151.149L17.8092 150.247C17.3921 143.883 18.5509 137.515 21.183 131.705L8.62847 126.017ZM14.6491 115.916C12.2796 119.036 10.2574 122.422 8.62847 126.017L21.1829 131.705C22.3847 129.053 23.8767 126.555 25.6249 124.253L14.6491 115.916ZM26.051 116.547C24.5027 113.959 23.5911 111.038 23.3936 108.025L9.64008 108.926C9.98062 114.122 11.5527 119.159 14.223 123.623L26.051 116.547ZM23.3936 108.025C23.189 104.903 23.7574 101.78 25.0485 98.9301L12.494 93.2417C10.2675 98.1557 9.28723 103.543 9.64008 108.926L23.3936 108.025ZM25.0485 98.9301C26.3396 96.0806 28.3134 93.5935 30.7953 91.6892L22.4047 80.7543C18.1246 84.0386 14.7205 88.3277 12.494 93.2417L25.0485 98.9301ZM30.7953 91.6892C33.0002 89.9972 35.5457 88.8116 38.2507 88.2108L35.262 74.7557C30.5971 75.7918 26.2073 77.8365 22.4047 80.7543L30.7953 91.6892ZM29.1804 72.0376C29.1804 75.5808 29.4383 79.068 29.9373 82.4805L43.5753 80.4859C43.1725 77.7318 42.9634 74.9112 42.9634 72.0376H29.1804ZM100.783 0.435321C61.2378 0.435321 29.1804 32.4927 29.1804 72.0376H42.9634C42.9634 40.1049 68.8499 14.2184 100.783 14.2184V0.435321ZM172.385 72.0376C172.385 32.4927 140.327 0.435321 100.783 0.435321V14.2184C132.715 14.2184 158.602 40.1049 158.602 72.0376H172.385Z" fill="white" mask="url(#path-4-inside-1_404_484)"/>
<circle cx="102.959" cy="153.5" r="7.92275" fill="white"/>
<circle cx="161.657" cy="150.448" r="7.92275" fill="white"/>
</svg>
