<svg width="63" height="89" viewBox="0 0 63 89" fill="none" xmlns="http://www.w3.org/2000/svg">
<path fill-rule="evenodd" clip-rule="evenodd" d="M27.7828 86.7746C39.0127 86.7746 48.1164 77.6709 48.1164 66.441C48.1164 66.0712 48.1065 65.7037 48.087 65.3388C48.0497 64.6402 48.5071 63.9988 49.1916 63.8544L50.6896 63.5382C50.6931 63.5375 50.6952 63.5338 50.694 63.5304C50.6929 63.5272 50.6948 63.5236 50.6981 63.5227C52.5118 63.0061 53.8399 61.3368 53.8399 59.3574C53.8399 56.9658 51.9011 55.027 49.5094 55.027C48.9303 55.027 48.3777 55.1406 47.8727 55.3469C47.8678 55.349 47.8621 55.3464 47.8604 55.3413C47.8585 55.3361 47.8526 55.3336 47.8475 55.3359L46.5697 55.9411C45.9647 56.2276 45.2448 55.9955 44.8819 55.4331C41.2623 49.8222 34.9564 46.1074 27.7828 46.1074C16.5529 46.1074 7.44922 55.2111 7.44922 66.441C7.44922 77.6709 16.5529 86.7746 27.7828 86.7746Z" fill="black"/>
<path d="M46.5697 55.9411L47.143 57.1517L46.5697 55.9411ZM44.8819 55.4331L46.0075 54.7069L44.8819 55.4331ZM50.6981 63.5227L51.065 64.811L50.6981 63.5227ZM47.8475 55.3359L47.2742 54.1253L47.8475 55.3359ZM50.6896 63.5382L50.413 62.2276L50.6896 63.5382ZM47.8727 55.3469L47.3661 54.1069L47.8727 55.3469ZM48.087 65.3388L49.4246 65.2674L48.087 65.3388ZM49.1916 63.8544L49.4682 65.165L49.1916 63.8544ZM46.7769 66.441C46.7769 76.9311 38.2729 85.4351 27.7828 85.4351V88.1141C39.7525 88.1141 49.4559 78.4107 49.4559 66.441H46.7769ZM46.7494 65.4103C46.7676 65.7514 46.7769 66.0951 46.7769 66.441H49.4559C49.4559 66.0474 49.4454 65.6561 49.4246 65.2674L46.7494 65.4103ZM49.4682 65.165L50.9662 64.8489L50.413 62.2276L48.915 62.5437L49.4682 65.165ZM51.065 64.811C53.439 64.1348 55.1794 61.9511 55.1794 59.3574H52.5003C52.5003 60.7226 51.5846 61.8774 50.3311 62.2344L51.065 64.811ZM55.1794 59.3574C55.1794 56.226 52.6409 53.6874 49.5094 53.6874V56.3665C51.1613 56.3665 52.5003 57.7056 52.5003 59.3574H55.1794ZM49.5094 53.6874C48.7536 53.6874 48.0291 53.836 47.3661 54.1069L48.3793 56.587C48.7262 56.4452 49.107 56.3665 49.5094 56.3665V53.6874ZM47.2742 54.1253L45.9964 54.7304L47.143 57.1517L48.4208 56.5466L47.2742 54.1253ZM27.7828 47.4469C34.4824 47.4469 40.3729 50.9145 43.7563 56.1592L46.0075 54.7069C42.1517 48.7299 35.4304 44.7679 27.7828 44.7679V47.4469ZM8.78875 66.441C8.78875 55.9509 17.2927 47.4469 27.7828 47.4469V44.7679C15.8131 44.7679 6.10969 54.4713 6.10969 66.441H8.78875ZM27.7828 85.4351C17.2927 85.4351 8.78875 76.9311 8.78875 66.441H6.10969C6.10969 78.4107 15.8131 88.1141 27.7828 88.1141V85.4351ZM45.9964 54.7304C45.999 54.7292 46.0027 54.7278 46.0072 54.7266C46.0116 54.7255 46.0158 54.7249 46.0195 54.7247C46.0267 54.7242 46.0297 54.7254 46.0286 54.725C46.0273 54.7246 46.0238 54.7232 46.0195 54.72C46.0155 54.717 46.0114 54.7129 46.0075 54.7069L43.7563 56.1592C44.457 57.2454 45.8871 57.7465 47.143 57.1517L45.9964 54.7304ZM51.9599 63.0923C52.2122 63.8214 51.7958 64.6028 51.065 64.811L50.3311 62.2344C49.5938 62.4444 49.1736 63.2329 49.4282 63.9685L51.9599 63.0923ZM49.1263 54.9034C48.8637 54.1444 48.0001 53.7816 47.2742 54.1253L48.4208 56.5466C47.705 56.8856 46.8534 56.5278 46.5944 55.7793L49.1263 54.9034ZM50.9662 64.8489C51.7585 64.6817 52.2248 63.8576 51.9599 63.0923L49.4282 63.9685C49.1657 63.2101 49.6278 62.3933 50.413 62.2276L50.9662 64.8489ZM47.3661 54.1069C48.0716 53.8187 48.8763 54.1809 49.1263 54.9034L46.5944 55.7793C46.8479 56.5119 47.664 56.8792 48.3793 56.587L47.3661 54.1069ZM49.4246 65.2674C49.4227 65.2314 49.4339 65.2012 49.4481 65.1819C49.4546 65.173 49.4601 65.1688 49.4624 65.1673C49.4639 65.1663 49.4651 65.1657 49.4682 65.165L48.915 62.5437C47.5368 62.8346 46.6795 64.1024 46.7494 65.4103L49.4246 65.2674Z" fill="white"/>
<mask id="path-3-inside-1_638_1244" fill="white">
<path fill-rule="evenodd" clip-rule="evenodd" d="M60.4673 25.9307C60.4673 39.8241 49.2045 51.0868 35.3112 51.0868C34.9226 51.0868 34.536 51.078 34.1516 51.0606C23.5061 54.1719 14.1683 60.7037 7.593 69.6614L7.2907 70.0732C5.38903 68.9753 4.80524 67.9059 3.97682 66.3885C3.70369 65.8881 3.40397 65.3391 3.02167 64.7243C1.47979 62.2448 0.573223 59.4233 0.382257 56.5097C0.19129 53.5961 0.721822 50.6804 1.92686 48.0208C2.47706 46.8065 3.16011 45.6627 3.96049 44.609C3.14046 43.2383 2.65767 41.6914 2.5531 40.0959C2.44474 38.4428 2.74576 36.7884 3.42949 35.2794C4.11322 33.7704 5.15855 32.4533 6.47289 31.4447C7.64062 30.5487 8.98868 29.9208 10.4212 29.6026C10.2459 28.404 10.1551 27.178 10.1551 25.9307C10.1551 12.0374 21.4179 0.774658 35.3112 0.774658C49.2045 0.774658 60.4673 12.0374 60.4673 25.9307Z"/>
</mask>
<path fill-rule="evenodd" clip-rule="evenodd" d="M60.4673 25.9307C60.4673 39.8241 49.2045 51.0868 35.3112 51.0868C34.9226 51.0868 34.536 51.078 34.1516 51.0606C23.5061 54.1719 14.1683 60.7037 7.593 69.6614L7.2907 70.0732C5.38903 68.9753 4.80524 67.9059 3.97682 66.3885C3.70369 65.8881 3.40397 65.3391 3.02167 64.7243C1.47979 62.2448 0.573223 59.4233 0.382257 56.5097C0.19129 53.5961 0.721822 50.6804 1.92686 48.0208C2.47706 46.8065 3.16011 45.6627 3.96049 44.609C3.14046 43.2383 2.65767 41.6914 2.5531 40.0959C2.44474 38.4428 2.74576 36.7884 3.42949 35.2794C4.11322 33.7704 5.15855 32.4533 6.47289 31.4447C7.64062 30.5487 8.98868 29.9208 10.4212 29.6026C10.2459 28.404 10.1551 27.178 10.1551 25.9307C10.1551 12.0374 21.4179 0.774658 35.3112 0.774658C49.2045 0.774658 60.4673 12.0374 60.4673 25.9307Z" fill="black"/>
<path d="M34.1516 51.0606L34.273 48.3843L33.8278 48.3641L33.4001 48.4891L34.1516 51.0606ZM7.593 69.6614L9.75267 71.2467L9.75268 71.2467L7.593 69.6614ZM7.2907 70.0732L5.95118 72.3933L8.02997 73.5935L9.45037 71.6585L7.2907 70.0732ZM3.97682 66.3885L1.62535 67.6722L1.62536 67.6722L3.97682 66.3885ZM3.02167 64.7243L5.29673 63.3096L5.29673 63.3096L3.02167 64.7243ZM0.382257 56.5097L-2.29106 56.6849V56.6849L0.382257 56.5097ZM1.92686 48.0208L-0.513396 46.9152H-0.513396L1.92686 48.0208ZM3.96049 44.609L6.09389 46.2295L7.18918 44.7875L6.25953 43.2336L3.96049 44.609ZM2.5531 40.0959L5.22642 39.9207L2.5531 40.0959ZM3.42949 35.2794L0.989235 34.1737L0.989234 34.1737L3.42949 35.2794ZM6.47289 31.4447L4.84198 29.3193H4.84198L6.47289 31.4447ZM10.4212 29.6026L11.0021 32.218L13.4323 31.6782L13.0721 29.215L10.4212 29.6026ZM35.3112 53.7659C50.6841 53.7659 63.1464 41.3037 63.1464 25.9307H57.7882C57.7882 38.3444 47.7249 48.4078 35.3112 48.4078V53.7659ZM34.0302 53.7369C34.455 53.7561 34.8821 53.7659 35.3112 53.7659V48.4078C34.9631 48.4078 34.617 48.3999 34.273 48.3843L34.0302 53.7369ZM9.75268 71.2467C15.9794 62.7639 24.8221 56.5784 34.9032 53.632L33.4001 48.4891C22.1901 51.7654 12.3573 58.6435 5.43333 68.0761L9.75268 71.2467ZM9.45037 71.6585L9.75267 71.2467L5.43334 68.0761L5.13104 68.4879L9.45037 71.6585ZM1.62536 67.6722C2.01773 68.3909 2.48586 69.265 3.15951 70.0867C3.87519 70.9596 4.7553 71.7029 5.95118 72.3933L8.63023 67.7531C7.92443 67.3456 7.56181 67.0052 7.30307 66.6896C7.0023 66.3227 6.76432 65.9034 6.32828 65.1047L1.62536 67.6722ZM0.746603 66.1391C1.08415 66.6819 1.35105 67.1697 1.62535 67.6722L6.32829 65.1047C6.05633 64.6066 5.7238 63.9964 5.29673 63.3096L0.746603 66.1391ZM-2.29106 56.6849C-2.07128 60.0381 -1.02792 63.2854 0.746606 66.1391L5.29673 63.3096C3.98751 61.2042 3.21773 58.8084 3.05558 56.3345L-2.29106 56.6849ZM-0.513396 46.9152C-1.90026 49.976 -2.51084 53.3317 -2.29106 56.6849L3.05558 56.3345C2.89342 53.8605 3.3439 51.3848 4.36712 49.1265L-0.513396 46.9152ZM1.8271 42.9885C0.90595 44.2012 0.119819 45.5176 -0.513396 46.9152L4.36711 49.1265C4.8343 48.0954 5.41428 47.1242 6.09389 46.2295L1.8271 42.9885ZM6.25953 43.2336C5.65758 42.2274 5.30318 41.0919 5.22642 39.9207L-0.120224 40.2711C0.0121618 42.2909 0.623339 44.2492 1.66146 45.9844L6.25953 43.2336ZM5.22642 39.9207C5.14688 38.7072 5.36785 37.4928 5.86974 36.3851L0.989234 34.1737C0.12368 36.0841 -0.257391 38.1784 -0.120224 40.2711L5.22642 39.9207ZM5.86974 36.3851C6.37164 35.2774 7.13898 34.3105 8.10379 33.5702L4.84198 29.3193C3.17811 30.596 1.85479 32.2634 0.989235 34.1737L5.86974 36.3851ZM8.10379 33.5702C8.96098 32.9124 9.95054 32.4515 11.0021 32.218L9.84032 26.9873C8.02681 27.3901 6.32026 28.185 4.84198 29.3193L8.10379 33.5702ZM7.47609 25.9307C7.47609 27.3081 7.57635 28.6638 7.77036 29.9903L13.0721 29.215C12.9155 28.1443 12.8342 27.0478 12.8342 25.9307H7.47609ZM35.3112 -1.9044C19.9383 -1.9044 7.47609 10.5578 7.47609 25.9307H12.8342C12.8342 13.517 22.8975 3.45371 35.3112 3.45371V-1.9044ZM63.1464 25.9307C63.1464 10.5578 50.6841 -1.9044 35.3112 -1.9044V3.45371C47.7249 3.45371 57.7882 13.517 57.7882 25.9307H63.1464Z" fill="white" mask="url(#path-3-inside-1_638_1244)"/>
<circle cx="36.1571" cy="57.5992" r="3.07994" fill="white"/>
<circle cx="58.9759" cy="56.4125" r="3.07994" fill="white"/>
</svg>
