<svg width="129" height="180" viewBox="0 0 129 180" fill="none" xmlns="http://www.w3.org/2000/svg">
<path fill-rule="evenodd" clip-rule="evenodd" d="M56.6617 177C79.6773 177 98.3351 158.342 98.3351 135.327C98.3351 134.57 98.3149 133.818 98.2751 133.071C98.1987 131.639 99.1363 130.324 100.539 130.028L103.609 129.38C103.617 129.379 103.621 129.371 103.618 129.363C103.616 129.356 103.62 129.348 103.627 129.346C107.345 128.287 110.067 124.866 110.067 120.809C110.067 115.908 106.093 111.934 101.191 111.934C100.004 111.934 98.8705 112.167 97.8351 112.591C97.8254 112.595 97.8143 112.59 97.8109 112.58C97.8074 112.57 97.7957 112.565 97.7859 112.569L95.1664 113.81C93.9267 114.397 92.4512 113.921 91.7077 112.769C84.2897 101.268 71.3649 93.6533 56.6617 93.6533C33.6461 93.6533 14.9883 112.311 14.9883 135.327C14.9883 158.342 33.6461 177 56.6617 177Z" fill="white"/>
<path d="M95.1664 113.81L93.9914 111.329L95.1664 113.81ZM91.7077 112.769L89.4006 114.257L91.7077 112.769ZM103.627 129.346L104.379 131.986L103.627 129.346ZM97.7859 112.569L98.9609 115.05L97.7859 112.569ZM103.609 129.38L104.176 132.067L103.609 129.38ZM97.8351 112.591L98.8739 115.132L97.8351 112.591ZM98.2751 133.071L101.017 132.925L98.2751 133.071ZM100.539 130.028L99.9725 127.342L100.539 130.028ZM95.5898 135.327C95.5898 156.826 78.1611 174.255 56.6617 174.255V179.746C81.1935 179.746 101.08 159.859 101.08 135.327H95.5898ZM95.5337 133.217C95.5709 133.915 95.5898 134.619 95.5898 135.327H101.08C101.08 134.521 101.059 133.72 101.017 132.925L95.5337 133.217ZM101.106 132.714L104.176 132.067L103.042 126.694L99.9725 127.342L101.106 132.714ZM104.379 131.986C109.245 130.601 112.812 126.125 112.812 120.809H107.321C107.321 123.607 105.444 125.974 102.875 126.706L104.379 131.986ZM112.812 120.809C112.812 114.392 107.609 109.189 101.191 109.189V114.68C104.577 114.68 107.321 117.424 107.321 120.809H112.812ZM101.191 109.189C99.6413 109.189 98.1557 109.494 96.7962 110.049L98.8739 115.132C99.5852 114.841 100.366 114.68 101.191 114.68V109.189ZM96.6109 110.088L93.9914 111.329L96.3414 116.291L98.9609 115.05L96.6109 110.088ZM56.6617 96.3987C70.3935 96.3987 82.4668 103.506 89.4006 114.257L94.0148 111.28C86.1126 99.0292 72.3364 90.908 56.6617 90.908V96.3987ZM17.7336 135.327C17.7336 113.827 35.1623 96.3987 56.6617 96.3987V90.908C32.1299 90.908 12.2429 110.795 12.2429 135.327H17.7336ZM56.6617 174.255C35.1623 174.255 17.7336 156.826 17.7336 135.327H12.2429C12.2429 159.859 32.1299 179.746 56.6617 179.746V174.255ZM93.9914 111.329C93.9968 111.326 94.0045 111.323 94.0137 111.321C94.0228 111.318 94.0314 111.317 94.0388 111.317C94.0537 111.316 94.0599 111.318 94.0577 111.317C94.0551 111.317 94.0479 111.314 94.0391 111.307C94.031 111.301 94.0226 111.293 94.0148 111.28L89.4006 114.257C90.8366 116.483 93.7674 117.51 96.3414 116.291L93.9914 111.329ZM106.213 128.465C106.73 129.959 105.876 131.56 104.379 131.986L102.875 126.706C101.364 127.136 100.502 128.753 101.024 130.261L106.213 128.465ZM100.405 111.682C99.8674 110.127 98.0981 109.384 96.6109 110.088L98.9609 115.05C97.4933 115.745 95.7473 115.012 95.2164 113.477L100.405 111.682ZM104.176 132.067C105.8 131.724 106.756 130.034 106.213 128.465L101.024 130.261C100.486 128.707 101.433 127.034 103.042 126.694L104.176 132.067ZM96.7962 110.049C98.2428 109.458 99.893 110.201 100.405 111.682L95.2164 113.477C95.7357 114.978 97.408 115.731 98.8739 115.132L96.7962 110.049ZM101.017 132.925C101.013 132.851 101.036 132.789 101.065 132.749C101.078 132.731 101.089 132.722 101.094 132.719C101.097 132.717 101.1 132.716 101.106 132.714L99.9725 127.342C97.1477 127.938 95.3907 130.537 95.5337 133.217L101.017 132.925Z" fill="black"/>
<mask id="path-3-inside-1_173_478" fill="white">
<path fill-rule="evenodd" clip-rule="evenodd" d="M123.651 52.3002C123.651 80.7744 100.568 103.857 72.0937 103.857C71.2974 103.857 70.5054 103.839 69.7179 103.803C47.9004 110.18 28.7629 123.567 15.2869 141.925L14.6674 142.77C10.7699 140.519 9.57342 138.328 7.8756 135.218C7.31582 134.192 6.70155 133.067 5.91802 131.807C2.75797 126.725 0.899966 120.943 0.508582 114.971C0.117199 109 1.20452 103.024 3.67423 97.5734C4.80203 95.0843 6.20221 92.7398 7.84292 90.5799C6.162 87.7705 5.17237 84.5999 4.95803 81.3297C4.73596 77.9416 5.3529 74.551 6.75419 71.4583C8.15548 68.3656 10.2979 65.6662 12.9916 63.5992C15.3843 61.7632 18.1465 60.4765 21.0817 59.8243C20.7226 57.3682 20.5366 54.8559 20.5366 52.3002C20.5366 23.826 43.6195 0.743164 72.0937 0.743164C100.568 0.743164 123.651 23.826 123.651 52.3002Z"/>
</mask>
<path fill-rule="evenodd" clip-rule="evenodd" d="M123.651 52.3002C123.651 80.7744 100.568 103.857 72.0937 103.857C71.2974 103.857 70.5054 103.839 69.7179 103.803C47.9004 110.18 28.7629 123.567 15.2869 141.925L14.6674 142.77C10.7699 140.519 9.57342 138.328 7.8756 135.218C7.31582 134.192 6.70155 133.067 5.91802 131.807C2.75797 126.725 0.899966 120.943 0.508582 114.971C0.117199 109 1.20452 103.024 3.67423 97.5734C4.80203 95.0843 6.20221 92.7398 7.84292 90.5799C6.162 87.7705 5.17237 84.5999 4.95803 81.3297C4.73596 77.9416 5.3529 74.551 6.75419 71.4583C8.15548 68.3656 10.2979 65.6662 12.9916 63.5992C15.3843 61.7632 18.1465 60.4765 21.0817 59.8243C20.7226 57.3682 20.5366 54.8559 20.5366 52.3002C20.5366 23.826 43.6195 0.743164 72.0937 0.743164C100.568 0.743164 123.651 23.826 123.651 52.3002Z" fill="white"/>
<path d="M69.7179 103.803L69.9667 98.3184L69.0543 98.2771L68.1776 98.5333L69.7179 103.803ZM15.2869 141.925L19.7131 145.175H19.7131L15.2869 141.925ZM14.6674 142.77L11.922 147.525L16.1825 149.984L19.0936 146.019L14.6674 142.77ZM7.8756 135.218L3.05629 137.849L3.0563 137.849L7.8756 135.218ZM5.91802 131.807L1.25531 134.707L1.25531 134.707L5.91802 131.807ZM3.67423 97.5734L8.6755 99.8395L8.6755 99.8395L3.67423 97.5734ZM7.84292 90.5799L12.2152 93.9012L14.4602 90.9457L12.5546 87.7608L7.84292 90.5799ZM4.95803 81.3297L-0.520904 81.6888L4.95803 81.3297ZM6.75419 71.4583L1.75292 69.1922H1.75292L6.75419 71.4583ZM12.9916 63.5992L9.64907 59.2432H9.64907L12.9916 63.5992ZM21.0817 59.8243L22.2728 65.1842L27.2527 64.0776L26.5146 59.0299L21.0817 59.8243ZM72.0937 109.348C103.6 109.348 129.141 83.8068 129.141 52.3002H118.16C118.16 77.742 97.5354 98.3666 72.0937 98.3666V109.348ZM69.4692 109.289C70.3394 109.328 71.2144 109.348 72.0937 109.348V98.3666C71.3804 98.3666 70.6713 98.3504 69.9667 98.3184L69.4692 109.289ZM19.7131 145.175C32.4746 127.789 50.5975 115.112 71.2583 109.074L68.1776 98.5333C45.2032 105.248 25.0511 119.345 10.8607 138.676L19.7131 145.175ZM19.0936 146.019L19.7131 145.175L10.8607 138.676L10.2411 139.52L19.0936 146.019ZM3.0563 137.849C3.86048 139.322 4.81989 141.113 6.20054 142.797C7.66731 144.586 9.4711 146.11 11.922 147.525L17.4127 138.014C15.9662 137.179 15.223 136.482 14.6927 135.835C14.0763 135.083 13.5885 134.224 12.6949 132.587L3.0563 137.849ZM1.25531 134.707C1.9471 135.819 2.49411 136.819 3.05629 137.849L12.6949 132.587C12.1375 131.566 11.456 130.315 10.5807 128.908L1.25531 134.707ZM-4.97035 115.33C-4.51991 122.203 -2.38155 128.858 1.25531 134.707L10.5807 128.908C7.8975 124.593 6.31984 119.682 5.98752 114.612L-4.97035 115.33ZM-1.32705 95.3074C-4.16941 101.581 -5.42079 108.458 -4.97035 115.33L5.98752 114.612C5.65519 109.542 6.57844 104.468 8.6755 99.8395L-1.32705 95.3074ZM3.47066 87.2586C1.5824 89.7443 -0.0290715 92.4427 -1.32705 95.3074L8.6755 99.8395C9.63313 97.7259 10.822 95.7352 12.2152 93.9012L3.47066 87.2586ZM12.5546 87.7608C11.3208 85.6985 10.5943 83.3711 10.437 80.9706L-0.520904 81.6888C-0.249557 85.8287 1.00324 89.8424 3.13119 93.399L12.5546 87.7608ZM10.437 80.9706C10.274 78.4835 10.7268 75.9946 11.7555 73.7243L1.75292 69.1922C-0.0210257 73.1074 -0.802026 77.3997 -0.520904 81.6888L10.437 80.9706ZM11.7555 73.7243C12.7841 71.4541 14.3567 69.4726 16.3341 67.9553L9.64907 59.2432C6.23899 61.8598 3.52686 65.2771 1.75292 69.1922L11.7555 73.7243ZM16.3341 67.9553C18.0905 66.6075 20.1181 65.663 22.2728 65.1842L19.8907 54.4643C16.1748 55.29 12.6781 56.9189 9.64907 59.2432L16.3341 67.9553ZM15.0459 52.3002C15.0459 55.1226 15.2513 57.9004 15.6488 60.6187L26.5146 59.0299C26.1939 56.836 26.0273 54.5892 26.0273 52.3002H15.0459ZM72.0937 -4.74753C40.5871 -4.74753 15.0459 20.7936 15.0459 52.3002H26.0273C26.0273 26.8585 46.6519 6.23385 72.0937 6.23385V-4.74753ZM129.141 52.3002C129.141 20.7936 103.6 -4.74753 72.0937 -4.74753V6.23385C97.5354 6.23385 118.16 26.8585 118.16 52.3002H129.141Z" fill="black" mask="url(#path-3-inside-1_173_478)"/>
<circle cx="73.827" cy="117.201" r="6.31231" fill="black"/>
<circle cx="121.92" cy="109.471" r="6.31231" fill="black"/>
</svg>
