<svg width="514" height="514" viewBox="0 0 514 514" fill="none" xmlns="http://www.w3.org/2000/svg">
<path fill-rule="evenodd" clip-rule="evenodd" d="M244.205 415.638C285.566 415.638 319.095 382.109 319.095 340.748C319.095 339.386 319.059 338.033 318.987 336.689C318.85 334.116 320.534 331.753 323.056 331.221L328.572 330.057C328.585 330.054 328.593 330.041 328.589 330.028V330.028C328.584 330.016 328.591 330.003 328.603 330C335.284 328.097 340.175 321.949 340.175 314.659C340.175 305.85 333.034 298.709 324.226 298.709C322.093 298.709 320.057 299.128 318.198 299.888C318.179 299.895 318.158 299.886 318.152 299.867V299.867C318.145 299.848 318.123 299.839 318.105 299.847L313.399 302.076C311.171 303.131 308.519 302.276 307.182 300.205C293.851 279.539 270.626 265.857 244.205 265.857C202.844 265.857 169.314 299.387 169.314 340.748C169.314 382.109 202.844 415.638 244.205 415.638Z" fill="black"/>
<path d="M307.182 300.205L303.401 302.644L307.182 300.205ZM328.603 330L329.836 334.328L328.603 330ZM318.105 299.847L320.031 303.914L318.105 299.847ZM328.572 330.057L327.643 325.654L328.572 330.057ZM318.198 299.888L316.496 295.722L318.198 299.888ZM318.987 336.689L314.493 336.929L318.987 336.689ZM323.056 331.221L322.126 326.818L323.056 331.221ZM314.595 340.748C314.595 379.623 283.08 411.138 244.205 411.138V420.138C288.051 420.138 323.595 384.594 323.595 340.748H314.595ZM314.493 336.929C314.561 338.193 314.595 339.466 314.595 340.748H323.595C323.595 339.306 323.557 337.873 323.481 336.449L314.493 336.929ZM323.985 335.624L329.502 334.46L327.643 325.654L322.126 326.818L323.985 335.624ZM329.836 334.328C338.398 331.889 344.675 324.013 344.675 314.659H335.675C335.675 319.886 332.169 324.306 327.371 325.672L329.836 334.328ZM344.675 314.659C344.675 303.365 335.52 294.209 324.226 294.209V303.209C330.549 303.209 335.675 308.335 335.675 314.659H344.675ZM324.226 294.209C321.499 294.209 318.886 294.745 316.496 295.722L319.899 304.054C321.228 303.511 322.686 303.209 324.226 303.209V294.209ZM316.179 295.78L311.473 298.009L315.325 306.143L320.031 303.914L316.179 295.78ZM244.205 270.357C269.034 270.357 290.863 283.209 303.401 302.644L310.964 297.765C296.839 275.87 272.218 261.357 244.205 261.357V270.357ZM173.814 340.748C173.814 301.872 205.329 270.357 244.205 270.357V261.357C200.359 261.357 164.814 296.902 164.814 340.748H173.814ZM244.205 411.138C205.329 411.138 173.814 379.623 173.814 340.748H164.814C164.814 384.594 200.359 420.138 244.205 420.138V411.138ZM311.473 298.009C311.435 298.027 311.379 298.042 311.278 298.011C311.168 297.977 311.048 297.896 310.964 297.765L303.401 302.644C305.872 306.475 310.91 308.234 315.325 306.143L311.473 298.009ZM332.841 328.557C333.688 331.005 332.29 333.629 329.836 334.328L327.371 325.672C324.893 326.378 323.481 329.027 324.336 331.499L332.841 328.557ZM322.404 298.396C321.522 295.844 318.619 294.625 316.179 295.78L320.031 303.914C317.628 305.052 314.769 303.851 313.899 301.339L322.404 298.396ZM329.502 334.46C332.164 333.898 333.731 331.129 332.841 328.557L324.336 331.499C323.455 328.953 325.007 326.21 327.643 325.654L329.502 334.46ZM316.496 295.722C318.864 294.755 321.565 295.97 322.404 298.396L313.899 301.339C314.752 303.801 317.495 305.036 319.899 304.054L316.496 295.722ZM323.481 336.449C323.468 336.215 323.54 336.005 323.651 335.854C323.755 335.712 323.871 335.648 323.985 335.624L322.126 326.818C317.275 327.842 314.247 332.309 314.493 336.929L323.481 336.449Z" fill="white"/>
<mask id="path-3-inside-1_1208_4354" fill="white">
<path fill-rule="evenodd" clip-rule="evenodd" d="M364.585 191.543C364.585 242.713 323.104 284.195 271.933 284.195C270.501 284.195 269.076 284.162 267.659 284.098C228.452 295.557 194.061 319.614 169.844 352.605L168.731 354.122C161.727 350.078 159.577 346.14 156.526 340.551C155.52 338.708 154.416 336.686 153.008 334.422C147.329 325.29 143.99 314.898 143.287 304.167C142.583 293.436 144.537 282.697 148.975 272.901C151.002 268.43 153.517 264.218 156.464 260.337C153.444 255.289 151.666 249.592 151.281 243.716C150.882 237.627 151.991 231.534 154.509 225.976C157.027 220.418 160.877 215.567 165.718 211.853C170.019 208.552 174.985 206.239 180.261 205.068C179.616 200.653 179.281 196.137 179.281 191.543C179.281 140.372 220.763 98.8906 271.933 98.8906C323.104 98.8906 364.585 140.372 364.585 191.543Z"/>
</mask>
<path fill-rule="evenodd" clip-rule="evenodd" d="M364.585 191.543C364.585 242.713 323.104 284.195 271.933 284.195C270.501 284.195 269.076 284.162 267.659 284.098C228.452 295.557 194.061 319.614 169.844 352.605L168.731 354.122C161.727 350.078 159.577 346.14 156.526 340.551C155.52 338.708 154.416 336.686 153.008 334.422C147.329 325.29 143.99 314.898 143.287 304.167C142.583 293.436 144.537 282.697 148.975 272.901C151.002 268.43 153.517 264.218 156.464 260.337C153.444 255.289 151.666 249.592 151.281 243.716C150.882 237.627 151.991 231.534 154.509 225.976C157.027 220.418 160.877 215.567 165.718 211.853C170.019 208.552 174.985 206.239 180.261 205.068C179.616 200.653 179.281 196.137 179.281 191.543C179.281 140.372 220.763 98.8906 271.933 98.8906C323.104 98.8906 364.585 140.372 364.585 191.543Z" fill="black"/>
<path d="M267.659 284.098L268.067 275.107L266.571 275.039L265.134 275.459L267.659 284.098ZM169.844 352.605L162.589 347.28L162.589 347.28L169.844 352.605ZM168.731 354.122L164.231 361.916L171.214 365.948L175.986 359.448L168.731 354.122ZM156.526 340.551L148.626 344.863L148.626 344.863L156.526 340.551ZM153.008 334.422L160.651 329.669L160.651 329.669L153.008 334.422ZM143.287 304.167L152.267 303.578L143.287 304.167ZM148.975 272.901L140.778 269.187L140.778 269.187L148.975 272.901ZM156.464 260.337L163.631 265.781L167.31 260.937L164.188 255.717L156.464 260.337ZM151.281 243.716L160.262 243.127L160.262 243.127L151.281 243.716ZM154.509 225.976L162.707 229.69L162.707 229.69L154.509 225.976ZM165.718 211.853L160.239 204.712L160.239 204.712L165.718 211.853ZM180.261 205.068L182.213 213.854L190.377 212.041L189.167 203.765L180.261 205.068ZM271.933 293.195C328.074 293.195 373.585 247.684 373.585 191.543H355.585C355.585 237.742 318.133 275.195 271.933 275.195V293.195ZM267.251 293.089C268.803 293.159 270.365 293.195 271.933 293.195V275.195C270.637 275.195 269.348 275.165 268.067 275.107L267.251 293.089ZM177.1 357.931C200.145 326.535 232.873 303.642 270.184 292.736L265.134 275.459C224.031 287.473 187.977 312.693 162.589 347.28L177.1 357.931ZM175.986 359.448L177.1 357.931L162.589 347.28L161.476 348.797L175.986 359.448ZM148.626 344.863C150.078 347.524 151.765 350.669 154.186 353.622C156.748 356.747 159.906 359.419 164.231 361.916L173.231 346.328C170.552 344.781 169.133 343.462 168.106 342.21C166.938 340.785 166.024 339.167 164.425 336.238L148.626 344.863ZM145.365 339.174C146.623 341.197 147.616 343.014 148.626 344.863L164.425 336.238C163.423 334.403 162.209 332.175 160.651 329.669L145.365 339.174ZM134.306 304.755C135.106 316.963 138.904 328.785 145.365 339.174L160.651 329.669C155.753 321.794 152.874 312.832 152.267 303.578L134.306 304.755ZM140.778 269.187C135.729 280.331 133.506 292.547 134.306 304.755L152.267 303.578C151.661 294.324 153.346 285.063 157.173 276.616L140.778 269.187ZM149.297 254.893C145.944 259.308 143.083 264.1 140.778 269.187L157.173 276.616C158.92 272.759 161.09 269.127 163.631 265.781L149.297 254.893ZM164.188 255.717C161.9 251.893 160.553 247.578 160.262 243.127L142.3 244.304C142.779 251.606 144.988 258.685 148.741 264.957L164.188 255.717ZM160.262 243.127C159.959 238.515 160.799 233.9 162.707 229.69L146.311 222.262C143.182 229.168 141.804 236.739 142.3 244.304L160.262 243.127ZM162.707 229.69C164.614 225.481 167.53 221.806 171.197 218.993L160.239 204.712C154.224 209.328 149.44 215.356 146.311 222.262L162.707 229.69ZM171.197 218.993C174.455 216.493 178.216 214.741 182.213 213.854L178.31 196.282C171.754 197.738 165.584 200.611 160.239 204.712L171.197 218.993ZM170.281 191.543C170.281 196.574 170.648 201.525 171.356 206.37L189.167 203.765C188.584 199.78 188.281 195.699 188.281 191.543H170.281ZM271.933 89.8906C215.793 89.8906 170.281 135.402 170.281 191.543H188.281C188.281 145.343 225.734 107.891 271.933 107.891V89.8906ZM373.585 191.543C373.585 135.402 328.074 89.8906 271.933 89.8906V107.891C318.133 107.891 355.585 145.343 355.585 191.543H373.585Z" fill="white" mask="url(#path-3-inside-1_1208_4354)"/>
<circle cx="275.048" cy="308.181" r="11.3437" fill="white"/>
<circle cx="359.091" cy="303.811" r="11.3437" fill="white"/>
</svg>
