<svg width="49" height="50" viewBox="0 0 49 50" fill="none" xmlns="http://www.w3.org/2000/svg">
<circle cx="24.1969" cy="24.1969" r="24.1969" transform="matrix(-1 0 0 1 48.936 0.721436)" fill="#51B6FF"/>
<path d="M26.2916 23.641C26.1045 23.8358 26.1045 24.1314 26.2916 24.3262C27.2896 25.3653 30.5438 28.4105 34.4041 28.4105C38.2645 28.4105 41.5187 25.3653 42.5167 24.3262C42.7038 24.1314 42.7038 23.8358 42.5167 23.641C41.5187 22.6019 38.2645 19.5566 34.4041 19.5566C30.5438 19.5566 27.2896 22.6019 26.2916 23.641Z" fill="white"/>
<path d="M19.1849 0.900146L21.7971 1.54631L21.1097 4.3922C19.1574 5.11628 15.2392 6.56167 15.1842 6.55068C15.1292 6.53968 13.9056 5.92284 13.3007 5.6158L12.0771 4.57093L11.5959 3.93851L11.4584 3.00363L12.2558 1.90377L14.3868 0.996384L15.7066 0.900146H19.1849Z" fill="#51B6FF"/>
<path d="M4.59705 23.641C4.40996 23.8358 4.40996 24.1314 4.59705 24.3262C5.59507 25.3653 8.84923 28.4105 12.7096 28.4105C16.57 28.4105 19.8241 25.3653 20.8221 24.3262C21.0092 24.1314 21.0092 23.8358 20.8221 23.641C19.8241 22.6019 16.57 19.5566 12.7096 19.5566C8.84923 19.5566 5.59507 22.6019 4.59705 23.641Z" fill="white"/>
<path d="M20.8919 1.25856C19.6896 0.99312 18.2202 0.645514 16.4925 0.736122C15.5348 0.786344 14.4123 0.959143 14.0632 1.0949C13.4579 1.33028 12.7858 1.61562 12.3077 2.07338C12.1002 2.27203 11.5944 2.64973 11.5471 2.9573C11.5348 3.0374 11.5311 3.12235 11.5345 3.21041C11.584 4.4983 12.7888 5.37134 13.9395 5.95184V5.95184C14.8958 6.43425 15.9546 6.67828 17.0255 6.66311L18.1674 6.64693C18.2538 6.64571 18.3395 6.63115 18.4214 6.60376V6.60376C19.028 6.40101 19.1934 5.62113 18.7215 5.18954L18.6054 5.08342C18.2379 4.74733 17.6709 4.75999 17.3187 5.11217L17.111 5.31992C16.822 5.60892 16.6929 6.02192 16.7842 6.42031C16.9115 6.97558 17.1157 7.75502 17.3399 8.17447C17.9217 9.26306 18.6576 9.9266 19.9012 9.6833C20.8628 9.49516 21.8801 9.22391 22.7215 8.71304C23.5786 8.19264 25.6853 5.42816 23.5273 5.42816C22.6701 5.42816 22.1253 5.46202 22.1253 6.39841C22.1253 6.8555 22.2694 7.41218 22.4255 7.84146C22.6078 8.3428 23.4908 8.65923 24.0128 8.71304C25.1947 8.8349 25.8413 8.71304 26.8449 7.84146C27.9942 6.84332 28.6159 6.11361 29.3036 4.91014" stroke="#282828" stroke-width="0.659916" stroke-linecap="round"/>
<circle cx="2.11723" cy="2.11723" r="2.11723" transform="matrix(-1 0 0 1 33.5383 21.8662)" fill="black"/>
<circle cx="2.11723" cy="2.11723" r="2.11723" transform="matrix(-1 0 0 1 11.4584 21.8662)" fill="black"/>
<path d="M20.4967 29.9502C20.0626 30.9268 19.3194 32.68 18.8975 33.6797C18.6925 34.1655 18.667 34.7083 18.8244 35.2116V35.2116C19.0558 35.9513 19.6539 36.5183 20.4048 36.7101L20.6852 36.7817C20.9079 36.8385 21.1368 36.8673 21.3666 36.8673H21.8909C22.4691 36.8673 23.0416 36.7528 23.5754 36.5306V36.5306C24.0954 36.314 24.5687 35.9993 24.9695 35.6036L25.1242 35.4509" stroke="black" stroke-width="0.659916" stroke-linecap="round"/>
</svg>
