<svg width="513" height="514" viewBox="0 0 513 514" fill="none" xmlns="http://www.w3.org/2000/svg">
<rect x="4.55176" y="206.987" width="503.843" height="100.556" rx="50.278" fill="black" stroke="white" stroke-width="9"/>
<path d="M59.4647 271.019V242.874H78.0995V247.78H65.4152V254.486H76.8627V259.392H65.4152V271.019H59.4647ZM88.4395 242.874V271.019H82.489V242.874H88.4395ZM112.385 251.971C112.192 251.303 111.922 250.712 111.574 250.199C111.226 249.676 110.8 249.237 110.296 248.879C109.801 248.513 109.233 248.234 108.592 248.041C107.959 247.849 107.259 247.753 106.489 247.753C105.051 247.753 103.786 248.11 102.696 248.824C101.615 249.539 100.772 250.579 100.167 251.944C99.5628 253.3 99.2605 254.958 99.2605 256.919C99.2605 258.879 99.5582 260.547 100.154 261.921C100.749 263.295 101.592 264.344 102.682 265.068C103.773 265.783 105.06 266.14 106.544 266.14C107.891 266.14 109.041 265.902 109.993 265.425C110.955 264.94 111.688 264.257 112.192 263.378C112.705 262.498 112.962 261.458 112.962 260.258L114.171 260.437H106.915V255.957H118.692V259.502C118.692 261.976 118.17 264.102 117.126 265.879C116.081 267.647 114.643 269.012 112.811 269.974C110.978 270.927 108.88 271.403 106.517 271.403C103.878 271.403 101.56 270.822 99.5628 269.658C97.5656 268.485 96.0081 266.823 94.8904 264.67C93.7818 262.507 93.2275 259.942 93.2275 256.974C93.2275 254.692 93.5574 252.659 94.217 250.872C94.8858 249.076 95.8203 247.556 97.0205 246.31C98.2206 245.064 99.6178 244.115 101.212 243.465C102.806 242.814 104.533 242.489 106.393 242.489C107.987 242.489 109.471 242.723 110.845 243.19C112.22 243.648 113.438 244.299 114.501 245.141C115.573 245.984 116.448 246.988 117.126 248.151C117.804 249.305 118.239 250.579 118.431 251.971H112.385ZM123.549 242.874H130.888L138.638 261.784H138.968L146.719 242.874H154.057V271.019H148.286V252.7H148.052L140.768 270.881H136.838L129.555 252.631H129.321V271.019H123.549V242.874ZM164.198 271.019H157.822L167.538 242.874H175.206L184.908 271.019H178.532L171.482 249.305H171.262L164.198 271.019ZM163.8 259.956H178.861V264.601H163.8V259.956ZM198.026 271.019V242.874H216.991V247.78H203.977V254.486H216.015V259.392H203.977V266.112H217.046V271.019H198.026ZM245.65 242.874V271.019H240.51L228.265 253.304H228.059V271.019H222.109V242.874H227.331L239.479 260.574H239.727V242.874H245.65ZM249.881 247.78V242.874H272.996V247.78H264.379V271.019H258.498V247.78H249.881ZM277.19 271.019V242.874H283.14V254.486H295.22V242.874H301.156V271.019H295.22V259.392H283.14V271.019H277.19ZM323.834 242.874H329.784V261.151C329.784 263.204 329.294 264.999 328.314 266.539C327.343 268.078 325.982 269.278 324.232 270.139C322.482 270.991 320.444 271.417 318.117 271.417C315.781 271.417 313.738 270.991 311.988 270.139C310.238 269.278 308.877 268.078 307.906 266.539C306.935 264.999 306.449 263.204 306.449 261.151V242.874H312.4V260.643C312.4 261.715 312.634 262.668 313.101 263.501C313.577 264.335 314.246 264.99 315.107 265.467C315.968 265.943 316.972 266.181 318.117 266.181C319.271 266.181 320.274 265.943 321.126 265.467C321.988 264.99 322.652 264.335 323.119 263.501C323.596 262.668 323.834 261.715 323.834 260.643V242.874ZM350.335 250.968C350.225 249.86 349.753 248.999 348.919 248.385C348.086 247.771 346.954 247.464 345.525 247.464C344.554 247.464 343.734 247.601 343.065 247.876C342.396 248.142 341.883 248.513 341.526 248.989C341.178 249.466 341.004 250.006 341.004 250.611C340.985 251.115 341.091 251.555 341.32 251.93C341.558 252.306 341.883 252.631 342.296 252.906C342.708 253.172 343.184 253.405 343.725 253.607C344.265 253.799 344.842 253.964 345.456 254.102L347.985 254.706C349.213 254.981 350.339 255.348 351.366 255.806C352.392 256.264 353.28 256.827 354.032 257.496C354.783 258.165 355.365 258.953 355.777 259.86C356.198 260.767 356.414 261.807 356.423 262.979C356.414 264.702 355.974 266.195 355.104 267.459C354.242 268.714 352.996 269.69 351.366 270.386C349.744 271.074 347.788 271.417 345.498 271.417C343.225 271.417 341.247 271.069 339.561 270.373C337.884 269.676 336.574 268.646 335.63 267.281C334.696 265.906 334.206 264.207 334.16 262.182H339.918C339.982 263.126 340.252 263.914 340.729 264.546C341.214 265.169 341.86 265.641 342.667 265.961C343.482 266.273 344.403 266.429 345.429 266.429C346.437 266.429 347.312 266.282 348.054 265.989C348.805 265.696 349.387 265.288 349.799 264.766C350.211 264.244 350.417 263.643 350.417 262.965C350.417 262.333 350.23 261.802 349.854 261.371C349.487 260.941 348.947 260.574 348.232 260.272C347.527 259.97 346.661 259.695 345.635 259.447L342.57 258.678C340.198 258.101 338.324 257.198 336.95 255.971C335.575 254.743 334.893 253.089 334.902 251.009C334.893 249.305 335.346 247.817 336.263 246.543C337.188 245.27 338.457 244.276 340.069 243.561C341.682 242.846 343.514 242.489 345.566 242.489C347.655 242.489 349.478 242.846 351.036 243.561C352.602 244.276 353.821 245.27 354.691 246.543C355.562 247.817 356.011 249.292 356.038 250.968H350.335ZM366.763 242.874V271.019H360.812V242.874H366.763ZM376.897 271.019H370.52L380.236 242.874H387.904L397.607 271.019H391.23L384.18 249.305H383.96L376.897 271.019ZM376.498 259.956H391.56V264.601H376.498V259.956ZM416.007 250.968C415.897 249.86 415.425 248.999 414.591 248.385C413.757 247.771 412.626 247.464 411.197 247.464C410.226 247.464 409.406 247.601 408.737 247.876C408.068 248.142 407.555 248.513 407.198 248.989C406.849 249.466 406.675 250.006 406.675 250.611C406.657 251.115 406.762 251.555 406.991 251.93C407.23 252.306 407.555 252.631 407.967 252.906C408.379 253.172 408.856 253.405 409.396 253.607C409.937 253.799 410.514 253.964 411.128 254.102L413.657 254.706C414.884 254.981 416.011 255.348 417.037 255.806C418.063 256.264 418.952 256.827 419.703 257.496C420.454 258.165 421.036 258.953 421.449 259.86C421.87 260.767 422.085 261.807 422.094 262.979C422.085 264.702 421.646 266.195 420.775 267.459C419.914 268.714 418.668 269.69 417.037 270.386C415.416 271.074 413.46 271.417 411.169 271.417C408.897 271.417 406.918 271.069 405.232 270.373C403.556 269.676 402.246 268.646 401.302 267.281C400.368 265.906 399.877 264.207 399.832 262.182H405.59C405.654 263.126 405.924 263.914 406.401 264.546C406.886 265.169 407.532 265.641 408.338 265.961C409.154 266.273 410.074 266.429 411.1 266.429C412.108 266.429 412.983 266.282 413.725 265.989C414.477 265.696 415.058 265.288 415.471 264.766C415.883 264.244 416.089 263.643 416.089 262.965C416.089 262.333 415.901 261.802 415.526 261.371C415.159 260.941 414.619 260.574 413.904 260.272C413.198 259.97 412.333 259.695 411.307 259.447L408.242 258.678C405.869 258.101 403.996 257.198 402.621 255.971C401.247 254.743 400.565 253.089 400.574 251.009C400.565 249.305 401.018 247.817 401.934 246.543C402.86 245.27 404.128 244.276 405.741 243.561C407.353 242.846 409.186 242.489 411.238 242.489C413.327 242.489 415.15 242.846 416.707 243.561C418.274 244.276 419.493 245.27 420.363 246.543C421.233 247.817 421.682 249.292 421.71 250.968H416.007ZM425.412 247.78V242.874H448.527V247.78H439.91V271.019H434.029V247.78H425.412Z" fill="white"/>
</svg>
