<svg width="298" height="429" viewBox="0 0 298 429" fill="none" xmlns="http://www.w3.org/2000/svg">
<mask id="mask0_1203_4353" style="mask-type:luminance" maskUnits="userSpaceOnUse" x="0" y="0" width="298" height="429">
<path d="M1.28125 0.509766H297.109V427.747H1.28125V0.509766Z" fill="white" stroke="white"/>
<path d="M218.397 147.547L218.397 148.545C252.808 150.405 280.14 178.945 280.14 213.821C280.14 249.896 250.894 279.193 214.82 279.193C178.865 279.193 149.694 250.091 149.501 214.18L148.501 214.183V214.185V279.693V345.618C148.501 381.693 119.256 410.937 83.1811 410.937C47.1062 410.937 17.8613 381.667 17.8613 345.591C17.8613 309.487 47.1296 280.193 83.2333 280.193V279.693V279.193C47.1294 279.193 17.8613 249.925 17.8613 213.821C17.8613 178.927 45.2015 150.417 79.6288 148.546V147.548C45.2015 145.677 17.8613 117.168 17.8613 82.2735C17.8613 46.1695 47.1294 16.9014 83.2333 16.9014H149.001H214.769C250.873 16.9014 280.141 46.1695 280.141 82.2735C280.141 117.16 252.813 145.665 218.397 147.547ZM209.734 148.644L209.696 147.646H149.001H148.501V148.146V213.456V213.459L149.501 213.461C149.686 179.26 176.154 151.234 209.734 148.644Z" fill="black" stroke="white"/>
</mask>
<g mask="url(#mask0_1203_4353)">
<mask id="path-3-outside-1_1203_4353" maskUnits="userSpaceOnUse" x="2.36133" y="1.40137" width="294" height="426" fill="black">
<rect fill="white" x="2.36133" y="1.40137" width="294" height="426"/>
<path d="M218.424 148.046L217.878 138.061L217.884 158.032L218.424 148.046ZM149.001 214.183L159.001 214.13L139.001 214.183H149.001ZM79.6017 148.047L80.1443 158.033V138.062L79.6017 148.047ZM149.001 148.146V138.146H139.001V148.146H149.001ZM209.696 148.146L210.465 158.116L209.696 138.146V148.146ZM149.001 213.459H139.001L159.001 213.513L149.001 213.459ZM83.2334 6.40137C41.3304 6.40137 7.36133 40.3705 7.36133 82.2735H27.3614C27.3614 51.4162 52.3761 26.4014 83.2334 26.4014V6.40137ZM149.001 6.40137H83.2334V26.4014H149.001V6.40137ZM214.769 6.40137H149.001V26.4014H214.769V6.40137ZM290.641 82.2735C290.641 40.3705 256.672 6.40137 214.769 6.40137V26.4014C245.626 26.4014 270.641 51.4162 270.641 82.2735H290.641ZM218.97 158.031C258.923 155.846 290.641 122.767 290.641 82.2735H270.641C270.641 112.087 247.284 136.453 217.878 138.061L218.97 158.031ZM290.64 213.821C290.64 173.346 258.924 140.221 218.963 138.061L217.884 158.032C247.274 159.62 270.64 184.012 270.64 213.821H290.64ZM214.82 289.693C256.704 289.693 290.64 255.685 290.64 213.821H270.64C270.64 244.66 245.638 269.693 214.82 269.693V289.693ZM139.001 214.237C139.226 255.911 173.074 289.693 214.82 289.693V269.693C184.105 269.693 159.166 244.826 159.001 214.13L139.001 214.237ZM159.001 279.693V214.183H139.001V279.693H159.001ZM159.001 345.618V279.693H139.001V345.618H159.001ZM83.1812 421.437C125.055 421.437 159.001 387.492 159.001 345.618H139.001C139.001 376.446 114.01 401.437 83.1812 401.437V421.437ZM7.36133 345.591C7.36133 387.46 41.3019 421.437 83.1812 421.437V401.437C52.3579 401.437 27.3614 376.425 27.3614 345.591H7.36133ZM83.2334 269.693C41.3253 269.693 7.36133 303.694 7.36133 345.591H27.3614C27.3614 314.729 52.3813 289.693 83.2334 289.693V269.693ZM7.36133 213.821C7.36133 255.724 41.3304 289.693 83.2334 289.693V269.693C52.3761 269.693 27.3614 244.678 27.3614 213.821H7.36133ZM79.0591 138.062C39.093 140.234 7.36133 173.318 7.36133 213.821H27.3614C27.3614 184.001 50.7284 159.631 80.1443 158.033L79.0591 138.062ZM7.36133 82.2735C7.36133 122.776 39.0929 155.861 79.0591 158.033L80.1443 138.062C50.7284 136.464 27.3614 112.094 27.3614 82.2735H7.36133ZM149.001 158.146H209.696V138.146H149.001V158.146ZM159.001 213.459V148.146H139.001V213.459H159.001ZM208.927 138.175C169.929 141.183 139.215 173.709 139.001 213.405L159.001 213.513C159.158 184.283 181.786 160.328 210.465 158.116L208.927 138.175Z"/>
</mask>
<path d="M218.424 148.046L217.878 138.061L217.884 158.032L218.424 148.046ZM149.001 214.183L159.001 214.13L139.001 214.183H149.001ZM79.6017 148.047L80.1443 158.033V138.062L79.6017 148.047ZM149.001 148.146V138.146H139.001V148.146H149.001ZM209.696 148.146L210.465 158.116L209.696 138.146V148.146ZM149.001 213.459H139.001L159.001 213.513L149.001 213.459ZM83.2334 6.40137C41.3304 6.40137 7.36133 40.3705 7.36133 82.2735H27.3614C27.3614 51.4162 52.3761 26.4014 83.2334 26.4014V6.40137ZM149.001 6.40137H83.2334V26.4014H149.001V6.40137ZM214.769 6.40137H149.001V26.4014H214.769V6.40137ZM290.641 82.2735C290.641 40.3705 256.672 6.40137 214.769 6.40137V26.4014C245.626 26.4014 270.641 51.4162 270.641 82.2735H290.641ZM218.97 158.031C258.923 155.846 290.641 122.767 290.641 82.2735H270.641C270.641 112.087 247.284 136.453 217.878 138.061L218.97 158.031ZM290.64 213.821C290.64 173.346 258.924 140.221 218.963 138.061L217.884 158.032C247.274 159.62 270.64 184.012 270.64 213.821H290.64ZM214.82 289.693C256.704 289.693 290.64 255.685 290.64 213.821H270.64C270.64 244.66 245.638 269.693 214.82 269.693V289.693ZM139.001 214.237C139.226 255.911 173.074 289.693 214.82 289.693V269.693C184.105 269.693 159.166 244.826 159.001 214.13L139.001 214.237ZM159.001 279.693V214.183H139.001V279.693H159.001ZM159.001 345.618V279.693H139.001V345.618H159.001ZM83.1812 421.437C125.055 421.437 159.001 387.492 159.001 345.618H139.001C139.001 376.446 114.01 401.437 83.1812 401.437V421.437ZM7.36133 345.591C7.36133 387.46 41.3019 421.437 83.1812 421.437V401.437C52.3579 401.437 27.3614 376.425 27.3614 345.591H7.36133ZM83.2334 269.693C41.3253 269.693 7.36133 303.694 7.36133 345.591H27.3614C27.3614 314.729 52.3813 289.693 83.2334 289.693V269.693ZM7.36133 213.821C7.36133 255.724 41.3304 289.693 83.2334 289.693V269.693C52.3761 269.693 27.3614 244.678 27.3614 213.821H7.36133ZM79.0591 138.062C39.093 140.234 7.36133 173.318 7.36133 213.821H27.3614C27.3614 184.001 50.7284 159.631 80.1443 158.033L79.0591 138.062ZM7.36133 82.2735C7.36133 122.776 39.0929 155.861 79.0591 158.033L80.1443 138.062C50.7284 136.464 27.3614 112.094 27.3614 82.2735H7.36133ZM149.001 158.146H209.696V138.146H149.001V158.146ZM159.001 213.459V148.146H139.001V213.459H159.001ZM208.927 138.175C169.929 141.183 139.215 173.709 139.001 213.405L159.001 213.513C159.158 184.283 181.786 160.328 210.465 158.116L208.927 138.175Z" fill="white"/>
<path d="M7.36133 84.7735H27.3614V79.7735H7.36133V84.7735ZM85.7334 26.4014V6.40137H80.7334V26.4014H85.7334ZM151.501 26.4014V6.40137H146.501V26.4014H151.501ZM217.269 26.4014V6.40137H212.269V26.4014H217.269ZM270.641 84.7735H290.641V79.7735H270.641V84.7735ZM270.64 216.321H290.64V211.321H270.64V216.321ZM212.32 269.693V289.693H217.32V269.693H212.32ZM139.001 282.193H159.001V277.193H139.001V282.193ZM139.001 348.118H159.001V343.118H139.001V348.118ZM80.6812 401.437V421.437H85.6812V401.437H80.6812ZM27.3614 343.091H7.36133V348.091H27.3614V343.091ZM85.7334 289.693V269.693H80.7334V289.693H85.7334ZM27.3614 211.321H7.36133V216.321H27.3614V211.321ZM218.424 148.046L223.417 148.316L223.431 148.044L223.417 147.773L218.424 148.046ZM217.878 138.061L217.605 133.068L212.877 133.327L212.878 138.062L217.878 138.061ZM217.884 158.032L212.884 158.033L212.885 162.769L217.614 163.024L217.884 158.032ZM149.001 214.183V219.183H149.014L149.027 219.183L149.001 214.183ZM159.001 214.13L164.001 214.103L163.974 209.117L158.988 209.13L159.001 214.13ZM139.001 214.183L138.988 209.183L134.001 209.196V214.183H139.001ZM79.6017 148.047L74.609 147.775L74.5943 148.047L74.609 148.318L79.6017 148.047ZM80.1443 158.033L80.4155 163.025L85.1443 162.769V158.033H80.1443ZM80.1443 138.062H85.1443V133.326L80.4155 133.069L80.1443 138.062ZM149.001 148.146V153.146H154.001V148.146H149.001ZM139.001 138.146V133.146H134.001V138.146H139.001ZM209.696 148.146H204.696V148.338L204.711 148.53L209.696 148.146ZM210.465 158.116L210.849 163.101L215.646 162.731L215.461 157.923L210.465 158.116ZM209.696 138.146L214.692 137.953L214.507 133.146H209.696V138.146ZM149.001 213.459L149.028 208.459L149.014 208.459H149.001V213.459ZM139.001 213.459H134.001V218.445L138.987 218.459L139.001 213.459ZM159.001 213.513L158.987 218.513L163.974 218.526L164.001 213.54L159.001 213.513ZM218.97 158.031L213.977 158.304L214.25 163.296L219.243 163.023L218.97 158.031ZM218.963 138.061L219.233 133.068L214.24 132.798L213.97 137.791L218.963 138.061ZM139.001 214.237L138.974 209.237L133.974 209.264L134.001 214.264L139.001 214.237ZM159.001 214.183H164.001V209.183H159.001V214.183ZM79.0591 138.062L84.0517 137.79L83.7804 132.798L78.7877 133.069L79.0591 138.062ZM79.0591 158.033L78.7877 163.025L83.7804 163.297L84.0517 158.304L79.0591 158.033ZM149.001 158.146H144.001V163.146H149.001V158.146ZM209.696 158.146V163.146H214.696V158.146H209.696ZM159.001 213.459V218.459H164.001V213.459H159.001ZM159.001 148.146H164.001V143.146H159.001V148.146ZM208.927 138.175L213.912 137.79L213.528 132.805L208.542 133.19L208.927 138.175ZM139.001 213.405L134.001 213.378L133.974 218.378L138.974 218.405L139.001 213.405ZM223.417 147.773L222.871 137.788L212.885 138.334L213.431 148.319L223.417 147.773ZM212.878 138.062L212.884 158.033L222.884 158.03L222.878 138.059L212.878 138.062ZM222.877 158.302L223.417 148.316L213.431 147.776L212.891 157.762L222.877 158.302ZM149.027 219.183L159.027 219.13L158.974 209.13L148.974 209.183L149.027 219.183ZM158.988 209.13L138.988 209.183L139.014 219.183L159.014 219.13L158.988 209.13ZM139.001 219.183H149.001V209.183H139.001V219.183ZM74.609 148.318L75.1516 158.304L85.1369 157.761L84.5943 147.775L74.609 148.318ZM85.1443 158.033V138.062H75.1443V158.033H85.1443ZM75.1516 137.79L74.609 147.775L84.5943 148.318L85.1369 138.333L75.1516 137.79ZM154.001 148.146V138.146H144.001V148.146H154.001ZM149.001 133.146H139.001V143.146H149.001V133.146ZM134.001 138.146V148.146H144.001V138.146H134.001ZM139.001 153.146H149.001V143.146H139.001V153.146ZM204.711 148.53L205.48 158.5L215.45 157.731L214.681 147.761L204.711 148.53ZM215.461 157.923L214.692 137.953L204.7 138.338L205.469 158.308L215.461 157.923ZM204.696 138.146V148.146H214.696V138.146H204.696ZM149.001 208.459H139.001V218.459H149.001V208.459ZM138.987 218.459L158.987 218.513L159.014 208.513L139.014 208.459L138.987 218.459ZM159.028 208.513L149.028 208.459L148.974 218.459L158.974 218.513L159.028 208.513ZM83.2334 1.40137C38.5689 1.40137 2.36133 37.609 2.36133 82.2735H12.3613C12.3613 43.1319 44.0918 11.4014 83.2334 11.4014V1.40137ZM32.3614 82.2735C32.3614 54.1776 55.1375 31.4014 83.2334 31.4014V21.4014C49.6146 21.4014 22.3614 48.6547 22.3614 82.2735H32.3614ZM149.001 1.40137H83.2334V11.4014H149.001V1.40137ZM83.2334 31.4014H149.001V21.4014H83.2334V31.4014ZM214.769 1.40137H149.001V11.4014H214.769V1.40137ZM149.001 31.4014H214.769V21.4014H149.001V31.4014ZM295.641 82.2735C295.641 37.609 259.433 1.40137 214.769 1.40137V11.4014C253.911 11.4014 285.641 43.1319 285.641 82.2735H295.641ZM214.769 31.4014C242.865 31.4014 265.641 54.1776 265.641 82.2735H275.641C275.641 48.6547 248.387 21.4014 214.769 21.4014V31.4014ZM219.243 163.023C261.832 160.694 295.641 125.437 295.641 82.2735H285.641C285.641 120.096 256.014 150.997 218.697 153.038L219.243 163.023ZM265.641 82.2735C265.641 109.418 244.373 131.604 217.605 133.068L218.151 143.053C250.195 141.301 275.641 114.756 275.641 82.2735H265.641ZM212.885 138.334L213.977 158.304L223.963 157.758L222.871 137.788L212.885 138.334ZM295.64 213.821C295.64 170.679 261.836 135.371 219.233 133.068L218.693 143.053C256.012 145.071 285.64 176.013 285.64 213.821H295.64ZM213.97 137.791L212.891 157.762L222.877 158.302L223.956 138.331L213.97 137.791ZM217.614 163.024C244.361 164.47 265.64 186.678 265.64 213.821H275.64C275.64 181.346 250.187 154.77 218.154 153.039L217.614 163.024ZM214.82 294.693C259.471 294.693 295.64 258.441 295.64 213.821H285.64C285.64 252.929 253.937 284.693 214.82 284.693V294.693ZM265.64 213.821C265.64 241.903 242.872 264.693 214.82 264.693V274.693C248.404 274.693 275.64 247.416 275.64 213.821H265.64ZM134.001 214.264C134.241 258.682 170.316 294.693 214.82 294.693V284.693C175.832 284.693 144.211 253.14 144.001 214.21L134.001 214.264ZM214.82 264.693C186.862 264.693 164.151 242.054 164.001 214.103L154.001 214.157C154.181 247.597 181.348 274.693 214.82 274.693V264.693ZM158.974 209.13L138.974 209.237L139.028 219.237L159.028 219.13L158.974 209.13ZM164.001 279.693V214.183H154.001V279.693H164.001ZM159.001 209.183H139.001V219.183H159.001V209.183ZM134.001 214.183V279.693H144.001V214.183H134.001ZM164.001 345.618V279.693H154.001V345.618H164.001ZM134.001 279.693V345.618H144.001V279.693H134.001ZM83.1812 426.437C127.816 426.437 164.001 390.253 164.001 345.618H154.001C154.001 384.73 122.294 416.437 83.1812 416.437V426.437ZM134.001 345.618C134.001 373.684 111.249 396.437 83.1812 396.437V406.437C116.771 406.437 144.001 379.207 144.001 345.618H134.001ZM2.36133 345.591C2.36133 390.218 38.5378 426.437 83.1812 426.437V416.437C44.066 416.437 12.3613 384.701 12.3613 345.591H2.36133ZM83.1812 396.437C55.1217 396.437 32.3614 373.666 32.3614 345.591H22.3614C22.3614 379.184 49.594 406.437 83.1812 406.437V396.437ZM83.2334 264.693C38.5611 264.693 2.36133 300.935 2.36133 345.591H12.3613C12.3613 306.452 44.0894 274.693 83.2334 274.693V264.693ZM32.3614 345.591C32.3614 317.488 55.1452 294.693 83.2334 294.693V284.693C49.6174 284.693 22.3614 311.97 22.3614 345.591H32.3614ZM2.36133 213.821C2.36133 258.485 38.569 294.693 83.2334 294.693V284.693C44.0918 284.693 12.3613 252.962 12.3613 213.821H2.36133ZM83.2334 264.693C55.1375 264.693 32.3614 241.916 32.3614 213.821H22.3614C22.3614 247.439 49.6146 274.693 83.2334 274.693V264.693ZM78.7877 133.069C36.1847 135.384 2.36133 170.647 2.36133 213.821H12.3613C12.3613 175.989 42.0013 145.083 79.3304 143.054L78.7877 133.069ZM32.3614 213.821C32.3614 186.671 53.638 164.48 80.4155 163.025L79.8731 153.04C47.8188 154.781 22.3614 181.331 22.3614 213.821H32.3614ZM85.1369 157.761L84.0517 137.79L74.0664 138.333L75.1516 158.304L85.1369 157.761ZM2.36133 82.2735C2.36133 125.447 36.1845 160.71 78.7877 163.025L79.3304 153.04C42.0012 151.011 12.3613 120.105 12.3613 82.2735H2.36133ZM84.0517 158.304L85.1369 138.333L75.1516 137.79L74.0664 157.761L84.0517 158.304ZM80.4155 133.069C53.638 131.614 32.3614 109.424 32.3614 82.2735H22.3614C22.3614 114.764 47.8188 141.313 79.8731 143.054L80.4155 133.069ZM149.001 163.146H209.696V153.146H149.001V163.146ZM214.696 158.146V138.146H204.696V158.146H214.696ZM209.696 133.146H149.001V143.146H209.696V133.146ZM144.001 138.146V158.146H154.001V138.146H144.001ZM164.001 213.459V148.146H154.001V213.459H164.001ZM159.001 143.146H139.001V153.146H159.001V143.146ZM134.001 148.146V213.459H144.001V148.146H134.001ZM139.001 218.459H159.001V208.459H139.001V218.459ZM208.542 133.19C166.965 136.397 134.229 171.065 134.001 213.378L144.001 213.432C144.201 176.353 172.893 145.969 209.311 143.16L208.542 133.19ZM138.974 218.405L158.974 218.513L159.028 208.513L139.028 208.405L138.974 218.405ZM164.001 213.54C164.144 186.925 184.751 165.114 210.849 163.101L210.08 153.131C178.821 155.542 154.172 181.64 154.001 213.486L164.001 213.54ZM215.45 157.731L213.912 137.79L203.942 138.559L205.48 158.5L215.45 157.731Z" fill="white" mask="url(#path-3-outside-1_1203_4353)"/>
</g>
<path d="M17.3613 82.2735C17.3613 45.8934 46.8532 16.4014 83.2333 16.4014H149.001V148.146H83.2333C46.8532 148.146 17.3613 118.654 17.3613 82.2735Z" fill="#F24E1E"/>
<path d="M17.3613 213.821C17.3613 177.441 46.8532 147.949 83.2333 147.949H149.001V279.693H83.2333C46.8532 279.693 17.3613 250.201 17.3613 213.821Z" fill="#A259FF"/>
<path d="M17.3613 345.591C17.3613 309.211 46.8532 279.693 83.2333 279.693H149.001V345.618C149.001 381.969 119.532 411.437 83.1811 411.437C46.8298 411.437 17.3613 381.943 17.3613 345.591Z" fill="#0ACF83"/>
<path d="M148.998 213.821C148.998 177.47 178.467 147.949 214.818 147.949C251.169 147.949 280.638 177.47 280.638 213.821C280.638 250.172 251.169 279.693 214.818 279.693C178.467 279.693 148.998 250.172 148.998 213.821Z" fill="#1ABCFE"/>
<path d="M280.64 82.2735C280.64 45.8934 251.148 16.4014 214.768 16.4014H149V148.146H214.768C251.148 148.146 280.64 118.654 280.64 82.2735Z" fill="#FF7262"/>
</svg>
