<svg width="607" height="374" viewBox="0 0 607 374" fill="none" xmlns="http://www.w3.org/2000/svg">
<path d="M606.066 0.127319H0.524353V373.756H606.066V0.127319Z" fill="#0C0C0C"/>
<path d="M107.128 217.898C111.717 217.898 115.437 214.178 115.437 209.589C115.437 205 111.717 201.279 107.128 201.279C102.539 201.279 98.8186 205 98.8186 209.589C98.8186 214.178 102.539 217.898 107.128 217.898Z" fill="#3A7AF2"/>
<path d="M215.312 217.898C219.901 217.898 223.621 214.178 223.621 209.589C223.621 205 219.901 201.279 215.312 201.279C210.723 201.279 207.003 205 207.003 209.589C207.003 214.178 210.723 217.898 215.312 217.898Z" fill="#E73B2E"/>
<path d="M281.459 217.898C286.049 217.898 289.769 214.178 289.769 209.589C289.769 205 286.049 201.279 281.459 201.279C276.87 201.279 273.15 205 273.15 209.589C273.15 214.178 276.87 217.898 281.459 217.898Z" fill="#FBB405"/>
<path d="M411.155 217.898C415.744 217.898 419.465 214.178 419.465 209.589C419.465 205 415.744 201.279 411.155 201.279C406.566 201.279 402.846 205 402.846 209.589C402.846 214.178 406.566 217.898 411.155 217.898Z" fill="#2D9E49"/>
<path d="M149.164 195.414C153.753 195.414 157.473 191.694 157.473 187.105C157.473 182.516 153.753 178.795 149.164 178.795C144.575 178.795 140.854 182.516 140.854 187.105C140.854 191.694 144.575 195.414 149.164 195.414Z" fill="#3A7AF2"/>
<path d="M149.164 172.604C153.753 172.604 157.473 168.884 157.473 164.295C157.473 159.706 153.753 155.985 149.164 155.985C144.575 155.985 140.854 159.706 140.854 164.295C140.854 168.884 144.575 172.604 149.164 172.604Z" fill="#3A7AF2"/>
<path d="M172.3 172.604C176.889 172.604 180.609 168.884 180.609 164.295C180.609 159.706 176.889 155.985 172.3 155.985C167.711 155.985 163.991 159.706 163.991 164.295C163.991 168.884 167.711 172.604 172.3 172.604Z" fill="#3A7AF2"/>
<path d="M215.312 172.604C219.901 172.604 223.621 168.884 223.621 164.295C223.621 159.706 219.901 155.985 215.312 155.985C210.723 155.985 207.003 159.706 207.003 164.295C207.003 168.884 210.723 172.604 215.312 172.604Z" fill="#E73B2E"/>
<path d="M281.459 172.604C286.049 172.604 289.769 168.884 289.769 164.295C289.769 159.706 286.049 155.985 281.459 155.985C276.87 155.985 273.15 159.706 273.15 164.295C273.15 168.884 276.87 172.604 281.459 172.604Z" fill="#FBB405"/>
<path d="M345.331 172.604C349.92 172.604 353.641 168.884 353.641 164.295C353.641 159.706 349.92 155.985 345.331 155.985C340.742 155.985 337.022 159.706 337.022 164.295C337.022 168.884 340.742 172.604 345.331 172.604Z" fill="#3A7AF2"/>
<path d="M368.468 172.604C373.057 172.604 376.777 168.884 376.777 164.295C376.777 159.706 373.057 155.985 368.468 155.985C363.878 155.985 360.158 159.706 360.158 164.295C360.158 168.884 363.878 172.604 368.468 172.604Z" fill="#3A7AF2"/>
<path d="M411.155 172.604C415.744 172.604 419.465 168.884 419.465 164.295C419.465 159.706 415.744 155.985 411.155 155.985C406.566 155.985 402.846 159.706 402.846 164.295C402.846 168.884 406.566 172.604 411.155 172.604Z" fill="#2D9E49"/>
<path d="M477.627 172.604C482.216 172.604 485.936 168.884 485.936 164.295C485.936 159.706 482.216 155.985 477.627 155.985C473.038 155.985 469.317 159.706 469.317 164.295C469.317 168.884 473.038 172.604 477.627 172.604Z" fill="#E84236"/>
<path d="M172.3 195.414C176.889 195.414 180.609 191.694 180.609 187.105C180.609 182.516 176.889 178.795 172.3 178.795C167.711 178.795 163.991 182.516 163.991 187.105C163.991 191.694 167.711 195.414 172.3 195.414Z" fill="#3A7AF2"/>
<path d="M237.471 195.414C242.06 195.414 245.781 191.694 245.781 187.105C245.781 182.516 242.06 178.795 237.471 178.795C232.882 178.795 229.162 182.516 229.162 187.105C229.162 191.694 232.882 195.414 237.471 195.414Z" fill="#E73B2E"/>
<path d="M302.643 195.414C307.232 195.414 310.953 191.694 310.953 187.105C310.953 182.516 307.232 178.795 302.643 178.795C298.054 178.795 294.334 182.516 294.334 187.105C294.334 191.694 298.054 195.414 302.643 195.414Z" fill="#FBB405"/>
<path d="M345.331 195.414C349.92 195.414 353.641 191.694 353.641 187.105C353.641 182.516 349.92 178.795 345.331 178.795C340.742 178.795 337.022 182.516 337.022 187.105C337.022 191.694 340.742 195.414 345.331 195.414Z" fill="#3A7AF2"/>
<path d="M368.468 195.414C373.057 195.414 376.777 191.694 376.777 187.105C376.777 182.516 373.057 178.795 368.468 178.795C363.878 178.795 360.158 182.516 360.158 187.105C360.158 191.694 363.878 195.414 368.468 195.414Z" fill="#3A7AF2"/>
<path d="M411.155 195.414C415.744 195.414 419.465 191.694 419.465 187.105C419.465 182.516 415.744 178.795 411.155 178.795C406.566 178.795 402.846 182.516 402.846 187.105C402.846 191.694 406.566 195.414 411.155 195.414Z" fill="#2D9E49"/>
<path d="M499.463 195.414C504.052 195.414 507.772 191.694 507.772 187.105C507.772 182.516 504.052 178.795 499.463 178.795C494.874 178.795 491.153 182.516 491.153 187.105C491.153 191.694 494.874 195.414 499.463 195.414Z" fill="#E84236"/>
</svg>
