<svg width="2160" height="1942" viewBox="0 0 2160 1942" fill="none" xmlns="http://www.w3.org/2000/svg">
<g clip-path="url(#clip0_107_1268)">
<rect width="2160" height="1942" fill="white"/>
<rect x="360.689" y="-64.5789" width="2.58755" height="2071.16" fill="#AECBFA" stroke="#AECBFA"/>
<rect x="719.477" y="-64.5789" width="2.58755" height="2071.16" fill="#AECBFA" stroke="#AECBFA"/>
<rect x="1078.26" y="-64.5789" width="2.58755" height="2071.16" fill="#AECBFA" stroke="#AECBFA"/>
<rect x="1438.64" y="-64.5789" width="2.58755" height="2071.16" fill="#AECBFA" stroke="#AECBFA"/>
<rect x="1797.42" y="-64.5789" width="2.58755" height="2071.16" fill="#AECBFA" stroke="#AECBFA"/>
<rect x="132.146" y="138.474" width="1895.75" height="1665.05" rx="70.3364" fill="#DCE6F9"/>
<path d="M917.923 1249.68C915.178 1249.68 912.759 1249.03 910.665 1247.73C908.599 1246.43 906.972 1244.6 905.784 1242.25C904.624 1239.88 904.044 1237.06 904.044 1233.81C904.044 1230.55 904.638 1227.74 905.826 1225.36C907.043 1222.98 908.698 1221.16 910.792 1219.88C912.886 1218.58 915.277 1217.93 917.965 1217.93C920.144 1217.93 922.139 1218.31 923.95 1219.08C925.789 1219.84 927.289 1220.97 928.449 1222.47C929.637 1223.94 930.33 1225.77 930.528 1227.95L925.944 1228.71C925.605 1226.9 924.77 1225.39 923.44 1224.17C922.11 1222.95 920.285 1222.35 917.965 1222.35C916.239 1222.35 914.669 1222.78 913.254 1223.66C911.867 1224.51 910.764 1225.8 909.943 1227.52C909.151 1229.22 908.755 1231.32 908.755 1233.81C908.755 1236.3 909.151 1238.39 909.943 1240.09C910.764 1241.79 911.867 1243.07 913.254 1243.95C914.64 1244.83 916.211 1245.27 917.965 1245.27C920.2 1245.27 922.011 1244.69 923.398 1243.53C924.784 1242.34 925.662 1240.78 926.029 1238.86L930.613 1239.37C930.076 1242.56 928.717 1245.08 926.539 1246.92C924.36 1248.76 921.488 1249.68 917.923 1249.68ZM948.735 1249.68C945.849 1249.68 943.316 1249 941.138 1247.64C938.959 1246.28 937.247 1244.42 936.002 1242.04C934.785 1239.66 934.177 1236.92 934.177 1233.81C934.177 1230.69 934.785 1227.95 936.002 1225.57C937.247 1223.17 938.959 1221.3 941.138 1219.97C943.316 1218.61 945.849 1217.93 948.735 1217.93C951.621 1217.93 954.154 1218.61 956.333 1219.97C958.511 1221.3 960.209 1223.17 961.426 1225.57C962.642 1227.95 963.251 1230.69 963.251 1233.81C963.251 1236.92 962.642 1239.66 961.426 1242.04C960.209 1244.42 958.511 1246.28 956.333 1247.64C954.154 1249 951.621 1249.68 948.735 1249.68ZM948.735 1245.27C950.631 1245.27 952.315 1244.83 953.786 1243.95C955.257 1243.04 956.417 1241.74 957.266 1240.04C958.143 1238.32 958.582 1236.24 958.582 1233.81C958.582 1231.37 958.143 1229.31 957.266 1227.61C956.417 1225.88 955.257 1224.58 953.786 1223.7C952.315 1222.8 950.631 1222.35 948.735 1222.35C946.839 1222.35 945.142 1222.8 943.642 1223.7C942.17 1224.58 941.01 1225.88 940.161 1227.61C939.313 1229.31 938.888 1231.37 938.888 1233.81C938.888 1236.24 939.313 1238.32 940.161 1240.04C941.01 1241.74 942.17 1243.04 943.642 1243.95C945.142 1244.83 946.839 1245.27 948.735 1245.27ZM969.07 1249V1218.61H974.545L987.958 1240.89H988.212L987.958 1235.08V1218.61H992.542V1249H987.703L973.654 1225.57H973.4L973.654 1231.43V1249H969.07ZM1006.62 1249V1223.02H997.364V1218.61H1020.5V1223.02H1011.24V1249H1006.62ZM1025.32 1249V1218.61H1044.59V1223.02H1029.94V1231.05H1043.27V1235.46H1029.94V1244.59H1044.59V1249H1025.32ZM1050.77 1249V1218.61H1056.24L1069.65 1240.89H1069.91L1069.65 1235.08V1218.61H1074.24V1249H1069.4L1055.35 1225.57H1055.1L1055.35 1231.43V1249H1050.77ZM1088.31 1249V1223.02H1079.06V1218.61H1102.19V1223.02H1092.94V1249H1088.31ZM1117.87 1249V1218.61H1122.5V1249H1117.87ZM1129.81 1249V1218.61H1139.91C1144.58 1218.61 1148.17 1219.94 1150.69 1222.6C1153.21 1225.23 1154.47 1228.97 1154.47 1233.81C1154.47 1238.64 1153.21 1242.39 1150.69 1245.05C1148.17 1247.68 1144.58 1249 1139.91 1249H1129.81ZM1134.44 1244.59H1139.78C1142.95 1244.59 1145.41 1243.72 1147.17 1242C1148.92 1240.27 1149.8 1237.54 1149.8 1233.81C1149.8 1230.07 1148.92 1227.34 1147.17 1225.61C1145.41 1223.89 1142.95 1223.02 1139.78 1223.02H1134.44V1244.59ZM1160.27 1249V1218.61H1179.54V1223.02H1164.9V1231.05H1178.23V1235.46H1164.9V1244.59H1179.54V1249H1160.27ZM1182.8 1249L1193.79 1218.61H1199.09L1210.13 1249H1205.04L1202.36 1241.19H1190.52L1187.85 1249H1182.8ZM1195.23 1227.57L1192.01 1236.86H1200.88L1197.65 1227.57L1196.59 1224.09H1196.33L1195.23 1227.57ZM1224.17 1249.68C1221.05 1249.68 1218.48 1248.89 1216.44 1247.3C1214.4 1245.69 1213.12 1243.38 1212.58 1240.38L1217.25 1239.37C1217.56 1241.12 1218.3 1242.55 1219.46 1243.65C1220.62 1244.73 1222.2 1245.27 1224.21 1245.27C1226.02 1245.27 1227.49 1244.86 1228.62 1244.03C1229.75 1243.21 1230.32 1242.11 1230.32 1240.72C1230.32 1239.28 1229.81 1238.21 1228.79 1237.5C1227.77 1236.76 1226.12 1236.04 1223.83 1235.33L1221.58 1234.61C1220.3 1234.24 1219.06 1233.73 1217.84 1233.08C1216.65 1232.43 1215.66 1231.57 1214.87 1230.5C1214.08 1229.39 1213.68 1227.98 1213.68 1226.25C1213.68 1224.69 1214.09 1223.29 1214.91 1222.05C1215.73 1220.78 1216.89 1219.77 1218.39 1219.04C1219.92 1218.3 1221.73 1217.93 1223.83 1217.93C1227.02 1217.93 1229.49 1218.71 1231.21 1220.27C1232.94 1221.79 1233.94 1223.73 1234.23 1226.08L1229.81 1226.76C1229.53 1225.4 1228.89 1224.31 1227.9 1223.49C1226.94 1222.67 1225.6 1222.26 1223.87 1222.26C1222.26 1222.26 1220.91 1222.61 1219.84 1223.32C1218.79 1224.03 1218.27 1224.95 1218.27 1226.08C1218.27 1227.21 1218.76 1228.15 1219.75 1228.88C1220.74 1229.59 1222.21 1230.24 1224.17 1230.83L1226.37 1231.51C1227.96 1231.99 1229.4 1232.6 1230.7 1233.34C1232 1234.05 1233.04 1234.98 1233.8 1236.14C1234.57 1237.3 1234.95 1238.8 1234.95 1240.64C1234.95 1242.62 1234.45 1244.28 1233.46 1245.6C1232.47 1246.93 1231.16 1247.95 1229.51 1248.66C1227.9 1249.34 1226.12 1249.68 1224.17 1249.68Z" fill="#606367"/>
<path d="M268.67 1391.68V1335.21H291.935C297.14 1335.21 301.346 1336.42 304.553 1338.84C307.76 1341.21 309.363 1344.65 309.363 1349.17C309.363 1352.12 308.627 1354.59 307.155 1356.58C305.736 1358.58 303.974 1360.11 301.871 1361.16V1361.79C304.763 1362.79 307.05 1364.42 308.733 1366.68C310.468 1368.94 311.335 1371.7 311.335 1374.96C311.335 1378.43 310.494 1381.43 308.811 1383.95C307.182 1386.42 305 1388.34 302.266 1389.71C299.532 1391.02 296.482 1391.68 293.117 1391.68H268.67ZM279.237 1357.29H291.619C293.932 1357.29 295.746 1356.74 297.061 1355.64C298.375 1354.48 299.032 1352.93 299.032 1350.99C299.032 1349.04 298.401 1347.52 297.14 1346.41C295.878 1345.31 294.143 1344.76 291.935 1344.76H279.237V1357.29ZM279.237 1382.06H292.644C295.273 1382.06 297.271 1381.32 298.638 1379.85C300.005 1378.33 300.688 1376.46 300.688 1374.25C300.688 1372.04 299.979 1370.2 298.559 1368.73C297.192 1367.21 295.142 1366.44 292.408 1366.44H279.237V1382.06ZM320.233 1391.68V1350.2H329.933V1355.56H330.564C331.458 1353.67 332.773 1352.09 334.508 1350.83C336.243 1349.57 338.372 1348.94 340.895 1348.94C341.894 1348.94 342.709 1348.99 343.34 1349.09C343.971 1349.2 344.523 1349.3 344.996 1349.41V1359.66C344.26 1359.35 343.419 1359.08 342.473 1358.87C341.526 1358.66 340.449 1358.56 339.239 1358.56C336.716 1358.56 334.639 1359.5 333.009 1361.4C331.379 1363.24 330.564 1365.79 330.564 1369.05V1391.68H320.233ZM369.176 1392.94C364.918 1392.94 361.211 1392.02 358.056 1390.18C354.954 1388.29 352.536 1385.69 350.801 1382.37C349.118 1379.06 348.277 1375.25 348.277 1370.94C348.277 1366.63 349.118 1362.82 350.801 1359.5C352.536 1356.19 354.954 1353.61 358.056 1351.77C361.211 1349.88 364.918 1348.94 369.176 1348.94C373.487 1348.94 377.194 1349.88 380.296 1351.77C383.398 1353.61 385.79 1356.19 387.473 1359.5C389.208 1362.82 390.075 1366.63 390.075 1370.94C390.075 1375.25 389.208 1379.06 387.473 1382.37C385.79 1385.69 383.398 1388.29 380.296 1390.18C377.194 1392.02 373.487 1392.94 369.176 1392.94ZM369.176 1383.32C372.278 1383.32 374.802 1382.27 376.747 1380.17C378.745 1378.06 379.744 1374.99 379.744 1370.94C379.744 1366.89 378.745 1363.81 376.747 1361.71C374.802 1359.61 372.278 1358.56 369.176 1358.56C366.074 1358.56 363.524 1359.61 361.526 1361.71C359.581 1363.81 358.608 1366.89 358.608 1370.94C358.608 1374.99 359.581 1378.06 361.526 1380.17C363.524 1382.27 366.074 1383.32 369.176 1383.32ZM405.335 1391.68L393.347 1350.2H404.862L411.092 1376.62H411.644L418.899 1350.2H429.309L436.644 1376.62H437.196L443.426 1350.2H454.782L442.716 1391.68H431.596L424.183 1364.87H423.631L416.376 1391.68H405.335ZM476.678 1392.94C471.316 1392.94 467.083 1391.71 463.981 1389.23C460.932 1386.71 459.065 1383.5 458.382 1379.61L468.24 1377.96C468.66 1379.85 469.607 1381.32 471.079 1382.37C472.551 1383.37 474.418 1383.87 476.678 1383.87C478.624 1383.87 480.306 1383.53 481.726 1382.85C483.198 1382.11 483.934 1380.98 483.934 1379.46C483.934 1378.09 483.25 1376.98 481.883 1376.14C480.516 1375.3 478.624 1374.67 476.205 1374.25L471.473 1373.38C468.108 1372.75 465.322 1371.44 463.114 1369.44C460.906 1367.44 459.801 1364.79 459.801 1361.47C459.801 1359 460.511 1356.82 461.931 1354.93C463.403 1353.04 465.348 1351.56 467.767 1350.51C470.238 1349.46 472.998 1348.94 476.047 1348.94C485.827 1348.94 491.452 1352.72 492.924 1360.29L483.855 1361.71C483.277 1360.08 482.33 1358.92 481.016 1358.24C479.701 1357.56 478.124 1357.22 476.284 1357.22C474.339 1357.22 472.761 1357.61 471.552 1358.4C470.395 1359.19 469.817 1360.11 469.817 1361.16C469.817 1362.26 470.29 1363.18 471.237 1363.92C472.183 1364.66 473.708 1365.23 475.811 1365.65L481.568 1366.84C485.616 1367.68 488.744 1369.07 490.953 1371.02C493.161 1372.91 494.265 1375.67 494.265 1379.3C494.265 1382.03 493.476 1384.42 491.899 1386.47C490.322 1388.52 488.192 1390.13 485.511 1391.29C482.882 1392.39 479.938 1392.94 476.678 1392.94ZM520.627 1392.94C516.474 1392.94 512.872 1392.05 509.823 1390.26C506.773 1388.47 504.407 1385.92 502.725 1382.61C501.043 1379.3 500.201 1375.41 500.201 1370.94C500.201 1366.42 501.069 1362.53 502.804 1359.27C504.591 1355.95 507.036 1353.4 510.138 1351.62C513.24 1349.83 516.763 1348.94 520.706 1348.94C527.278 1348.94 532.141 1350.72 535.296 1354.3C538.503 1357.87 540.107 1362.71 540.107 1368.81C540.107 1370.54 540.028 1372.04 539.87 1373.3H510.138C510.506 1376.77 511.689 1379.4 513.687 1381.19C515.685 1382.93 518.13 1383.79 521.021 1383.79C523.44 1383.79 525.385 1383.21 526.857 1382.06C528.382 1380.85 529.486 1379.4 530.17 1377.72L539.16 1380.17C537.898 1383.95 535.743 1387.03 532.693 1389.39C529.696 1391.76 525.674 1392.94 520.627 1392.94ZM520.785 1357.29C518.314 1357.29 516.184 1358.03 514.397 1359.5C512.609 1360.92 511.347 1363.08 510.611 1365.97H530.249C530.038 1363.34 529.118 1361.24 527.488 1359.66C525.911 1358.08 523.677 1357.29 520.785 1357.29ZM585.193 1392.31C581.145 1392.31 577.964 1391.13 575.651 1388.76C573.337 1386.34 572.181 1383.03 572.181 1378.82V1359.03H565.32V1350.2H572.181V1338.84H582.512V1350.2H591.976V1359.03H582.512V1377.25C582.512 1380.82 584.115 1382.61 587.323 1382.61C588.322 1382.61 589.163 1382.48 589.846 1382.22C590.582 1381.95 591.371 1381.58 592.212 1381.11V1390.97C591.161 1391.39 590.057 1391.71 588.9 1391.92C587.796 1392.18 586.56 1392.31 585.193 1392.31ZM600.89 1391.68V1350.2H610.591V1355.56H611.221C612.115 1353.67 613.43 1352.09 615.165 1350.83C616.9 1349.57 619.029 1348.94 621.553 1348.94C622.552 1348.94 623.367 1348.99 623.997 1349.09C624.628 1349.2 625.18 1349.3 625.654 1349.41V1359.66C624.918 1359.35 624.076 1359.08 623.13 1358.87C622.184 1358.66 621.106 1358.56 619.897 1358.56C617.373 1358.56 615.296 1359.5 613.666 1361.4C612.036 1363.24 611.221 1365.79 611.221 1369.05V1391.68H600.89ZM649.36 1392.94C645.207 1392.94 641.605 1392.05 638.556 1390.26C635.506 1388.47 633.141 1385.92 631.458 1382.61C629.776 1379.3 628.934 1375.41 628.934 1370.94C628.934 1366.42 629.802 1362.53 631.537 1359.27C633.325 1355.95 635.769 1353.4 638.871 1351.62C641.973 1349.83 645.496 1348.94 649.439 1348.94C656.011 1348.94 660.874 1350.72 664.029 1354.3C667.236 1357.87 668.84 1362.71 668.84 1368.81C668.84 1370.54 668.761 1372.04 668.603 1373.3H638.871C639.239 1376.77 640.422 1379.4 642.42 1381.19C644.418 1382.93 646.863 1383.79 649.755 1383.79C652.173 1383.79 654.118 1383.21 655.59 1382.06C657.115 1380.85 658.219 1379.4 658.903 1377.72L667.893 1380.17C666.631 1383.95 664.476 1387.03 661.426 1389.39C658.43 1391.76 654.408 1392.94 649.36 1392.94ZM649.518 1357.29C647.047 1357.29 644.918 1358.03 643.13 1359.5C641.342 1360.92 640.081 1363.08 639.344 1365.97H658.982C658.771 1363.34 657.851 1361.24 656.221 1359.66C654.644 1358.08 652.41 1357.29 649.518 1357.29ZM677.502 1391.68V1350.2H687.203V1355.24H687.834C689.043 1353.3 690.725 1351.77 692.881 1350.67C695.036 1349.51 697.455 1348.94 700.136 1348.94C704.921 1348.94 708.548 1350.38 711.02 1353.27C713.491 1356.11 714.726 1360.11 714.726 1365.26V1391.68H704.395V1366.68C704.395 1364.05 703.738 1362.05 702.423 1360.69C701.162 1359.27 699.374 1358.56 697.061 1358.56C694.222 1358.56 691.961 1359.61 690.278 1361.71C688.648 1363.81 687.834 1366.42 687.834 1369.52V1391.68H677.502ZM741.325 1392.94C737.908 1392.94 734.806 1392.1 732.02 1390.42C729.233 1388.74 727.025 1386.26 725.395 1383C723.765 1379.69 722.95 1375.67 722.95 1370.94C722.95 1366.15 723.791 1362.13 725.474 1358.87C727.156 1355.61 729.391 1353.14 732.177 1351.46C735.016 1349.78 738.092 1348.94 741.404 1348.94C744.506 1348.94 747.083 1349.51 749.133 1350.67C751.236 1351.77 752.787 1353.25 753.786 1355.09H754.417L753.786 1348.94V1330.48H764.117V1391.68H754.417V1386.87H753.786C752.682 1388.5 751.105 1389.92 749.054 1391.13C747.004 1392.34 744.427 1392.94 741.325 1392.94ZM743.849 1383.32C746.846 1383.32 749.343 1382.29 751.341 1380.24C753.392 1378.19 754.417 1375.09 754.417 1370.94C754.417 1366.78 753.392 1363.68 751.341 1361.63C749.343 1359.58 746.846 1358.56 743.849 1358.56C740.852 1358.56 738.329 1359.58 736.278 1361.63C734.28 1363.68 733.281 1366.78 733.281 1370.94C733.281 1375.09 734.28 1378.19 736.278 1380.24C738.329 1382.29 740.852 1383.32 743.849 1383.32ZM780.501 1343.1C778.66 1343.1 777.083 1342.44 775.769 1341.13C774.454 1339.81 773.797 1338.24 773.797 1336.4C773.797 1334.56 774.454 1332.98 775.769 1331.66C777.083 1330.35 778.66 1329.69 780.501 1329.69C782.341 1329.69 783.918 1330.35 785.232 1331.66C786.547 1332.98 787.204 1334.56 787.204 1336.4C787.204 1338.24 786.547 1339.81 785.232 1341.13C783.918 1342.44 782.341 1343.1 780.501 1343.1ZM775.296 1391.68V1350.2H785.627V1391.68H775.296ZM796.772 1391.68V1350.2H806.472V1355.24H807.103C808.312 1353.3 809.995 1351.77 812.15 1350.67C814.306 1349.51 816.724 1348.94 819.406 1348.94C824.19 1348.94 827.818 1350.38 830.289 1353.27C832.76 1356.11 833.996 1360.11 833.996 1365.26V1391.68H823.664V1366.68C823.664 1364.05 823.007 1362.05 821.693 1360.69C820.431 1359.27 818.643 1358.56 816.33 1358.56C813.491 1358.56 811.23 1359.61 809.548 1361.71C807.918 1363.81 807.103 1366.42 807.103 1369.52V1391.68H796.772ZM861.708 1409.98C856.135 1409.98 851.693 1408.71 848.38 1406.19C845.121 1403.67 843.07 1400.46 842.229 1396.57L852.56 1394.44C853.138 1396.33 854.164 1397.86 855.636 1399.01C857.16 1400.22 859.185 1400.83 861.708 1400.83C864.968 1400.83 867.492 1399.8 869.279 1397.75C871.067 1395.7 871.961 1392.78 871.961 1389V1385.84H871.33C869.858 1387.68 868.175 1389.08 866.282 1390.02C864.442 1390.92 862.05 1391.36 859.106 1391.36C855.951 1391.36 853.033 1390.52 850.352 1388.84C847.67 1387.11 845.515 1384.66 843.885 1381.51C842.255 1378.35 841.44 1374.57 841.44 1370.15C841.44 1365.73 842.255 1361.95 843.885 1358.79C845.515 1355.59 847.67 1353.14 850.352 1351.46C853.033 1349.78 855.951 1348.94 859.106 1348.94C864.679 1348.94 868.753 1350.78 871.33 1354.46H871.961V1350.2H881.819V1388.68C881.819 1395.25 880.057 1400.43 876.535 1404.22C873.012 1408.06 868.07 1409.98 861.708 1409.98ZM861.866 1381.9C864.653 1381.9 867.018 1380.9 868.964 1378.9C870.962 1376.91 871.961 1373.99 871.961 1370.15C871.961 1366.26 870.962 1363.34 868.964 1361.4C867.018 1359.4 864.653 1358.4 861.866 1358.4C859.132 1358.4 856.766 1359.4 854.768 1361.4C852.77 1363.34 851.771 1366.26 851.771 1370.15C851.771 1373.99 852.77 1376.91 854.768 1378.9C856.766 1380.9 859.132 1381.9 861.866 1381.9ZM927.494 1392.94C922.131 1392.94 917.899 1391.71 914.797 1389.23C911.747 1386.71 909.881 1383.5 909.197 1379.61L919.055 1377.96C919.476 1379.85 920.422 1381.32 921.894 1382.37C923.367 1383.37 925.233 1383.87 927.494 1383.87C929.439 1383.87 931.122 1383.53 932.541 1382.85C934.013 1382.11 934.749 1380.98 934.749 1379.46C934.749 1378.09 934.066 1376.98 932.699 1376.14C931.332 1375.3 929.439 1374.67 927.021 1374.25L922.289 1373.38C918.924 1372.75 916.137 1371.44 913.929 1369.44C911.721 1367.44 910.617 1364.79 910.617 1361.47C910.617 1359 911.327 1356.82 912.746 1354.93C914.218 1353.04 916.164 1351.56 918.582 1350.51C921.053 1349.46 923.813 1348.94 926.863 1348.94C936.642 1348.94 942.268 1352.72 943.74 1360.29L934.67 1361.71C934.092 1360.08 933.146 1358.92 931.831 1358.24C930.517 1357.56 928.94 1357.22 927.099 1357.22C925.154 1357.22 923.577 1357.61 922.368 1358.4C921.211 1359.19 920.633 1360.11 920.633 1361.16C920.633 1362.26 921.106 1363.18 922.052 1363.92C922.999 1364.66 924.523 1365.23 926.626 1365.65L932.383 1366.84C936.432 1367.68 939.56 1369.07 941.768 1371.02C943.976 1372.91 945.08 1375.67 945.08 1379.3C945.08 1382.03 944.292 1384.42 942.715 1386.47C941.137 1388.52 939.008 1390.13 936.327 1391.29C933.698 1392.39 930.753 1392.94 927.494 1392.94ZM971.443 1392.94C967.289 1392.94 963.688 1392.05 960.638 1390.26C957.589 1388.47 955.223 1385.92 953.54 1382.61C951.858 1379.3 951.017 1375.41 951.017 1370.94C951.017 1366.42 951.884 1362.53 953.619 1359.27C955.407 1355.95 957.852 1353.4 960.954 1351.62C964.056 1349.83 967.578 1348.94 971.521 1348.94C978.093 1348.94 982.957 1350.72 986.111 1354.3C989.318 1357.87 990.922 1362.71 990.922 1368.81C990.922 1370.54 990.843 1372.04 990.685 1373.3H960.954C961.322 1376.77 962.505 1379.4 964.503 1381.19C966.5 1382.93 968.945 1383.79 971.837 1383.79C974.255 1383.79 976.201 1383.21 977.673 1382.06C979.198 1380.85 980.302 1379.4 980.985 1377.72L989.976 1380.17C988.714 1383.95 986.558 1387.03 983.509 1389.39C980.512 1391.76 976.49 1392.94 971.443 1392.94ZM971.6 1357.29C969.129 1357.29 967 1358.03 965.212 1359.5C963.425 1360.92 962.163 1363.08 961.427 1365.97H981.064C980.854 1363.34 979.934 1361.24 978.304 1359.66C976.726 1358.08 974.492 1357.29 971.6 1357.29ZM1012.67 1392.94C1008.25 1392.94 1004.75 1391.73 1002.18 1389.31C999.602 1386.9 998.314 1383.66 998.314 1379.61C998.314 1376.83 999.023 1374.46 1000.44 1372.52C1001.86 1370.52 1003.78 1368.99 1006.2 1367.94C1008.67 1366.89 1011.41 1366.36 1014.4 1366.36C1016.35 1366.36 1018.21 1366.5 1020 1366.76C1021.84 1366.97 1023.71 1367.28 1025.6 1367.7V1364.39C1025.6 1362.24 1024.84 1360.5 1023.31 1359.19C1021.79 1357.87 1019.63 1357.22 1016.85 1357.22C1014.8 1357.22 1013.01 1357.74 1011.48 1358.79C1009.96 1359.79 1008.91 1361.21 1008.33 1363.05L999.339 1361.16C999.97 1358.37 1001.15 1356.09 1002.89 1354.3C1004.68 1352.51 1006.78 1351.17 1009.2 1350.28C1011.67 1349.38 1014.27 1348.94 1017 1348.94C1023.26 1348.94 1027.94 1350.35 1031.04 1353.19C1034.14 1356.03 1035.7 1360.19 1035.7 1365.65V1391.68H1025.6V1387.58H1024.97C1023.76 1389.05 1022.1 1390.31 1020 1391.36C1017.9 1392.42 1015.45 1392.94 1012.67 1392.94ZM1015.27 1384.9C1018.53 1384.9 1021.05 1383.95 1022.84 1382.06C1024.68 1380.11 1025.6 1377.88 1025.6 1375.35C1024.13 1374.88 1022.55 1374.51 1020.87 1374.25C1019.19 1373.94 1017.53 1373.78 1015.9 1373.78C1013.32 1373.78 1011.46 1374.33 1010.3 1375.43C1009.14 1376.48 1008.57 1377.85 1008.57 1379.53C1008.57 1381.11 1009.2 1382.4 1010.46 1383.4C1011.72 1384.4 1013.32 1384.9 1015.27 1384.9ZM1046.4 1391.68V1350.2H1056.1V1355.56H1056.73C1057.63 1353.67 1058.94 1352.09 1060.68 1350.83C1062.41 1349.57 1064.54 1348.94 1067.06 1348.94C1068.06 1348.94 1068.88 1348.99 1069.51 1349.09C1070.14 1349.2 1070.69 1349.3 1071.16 1349.41V1359.66C1070.43 1359.35 1069.59 1359.08 1068.64 1358.87C1067.69 1358.66 1066.62 1358.56 1065.41 1358.56C1062.88 1358.56 1060.81 1359.5 1059.18 1361.4C1057.55 1363.24 1056.73 1365.79 1056.73 1369.05V1391.68H1046.4ZM1094.79 1392.94C1090.8 1392.94 1087.27 1392.05 1084.22 1390.26C1081.17 1388.42 1078.78 1385.84 1077.05 1382.53C1075.31 1379.22 1074.45 1375.35 1074.45 1370.94C1074.45 1366.47 1075.31 1362.6 1077.05 1359.35C1078.84 1356.03 1081.28 1353.48 1084.38 1351.7C1087.48 1349.86 1091.09 1348.94 1095.19 1348.94C1100.02 1348.94 1104.15 1350.12 1107.57 1352.48C1110.99 1354.85 1113.11 1358.4 1113.96 1363.13L1103.86 1364.71C1103.34 1362.66 1102.28 1361.11 1100.71 1360.05C1099.13 1359 1097.21 1358.48 1094.95 1358.48C1092.22 1358.48 1089.82 1359.56 1087.77 1361.71C1085.78 1363.81 1084.78 1366.89 1084.78 1370.94C1084.78 1374.99 1085.75 1378.09 1087.69 1380.24C1089.69 1382.35 1092.11 1383.4 1094.95 1383.4C1099.58 1383.4 1102.57 1381.06 1103.94 1376.38L1113.88 1378.67C1112.88 1382.82 1110.78 1386.24 1107.57 1388.92C1104.36 1391.6 1100.1 1392.94 1094.79 1392.94ZM1122.32 1391.68V1330.48H1132.65V1348.94L1132.02 1355.72H1132.65C1133.7 1353.67 1135.36 1352.04 1137.62 1350.83C1139.93 1349.57 1142.43 1348.94 1145.11 1348.94C1150.11 1348.94 1153.89 1350.38 1156.47 1353.27C1159.04 1356.16 1160.33 1360.11 1160.33 1365.1V1391.68H1150V1366.76C1150 1364.08 1149.32 1362.05 1147.95 1360.69C1146.64 1359.27 1144.74 1358.56 1142.27 1358.56C1139.38 1358.56 1137.04 1359.63 1135.25 1361.79C1133.52 1363.95 1132.65 1366.71 1132.65 1370.07V1391.68H1122.32ZM1189.04 1392.94C1184.89 1392.94 1181.29 1392.05 1178.24 1390.26C1175.19 1388.47 1172.82 1385.92 1171.14 1382.61C1169.46 1379.3 1168.62 1375.41 1168.62 1370.94C1168.62 1366.42 1169.48 1362.53 1171.22 1359.27C1173.01 1355.95 1175.45 1353.4 1178.55 1351.62C1181.66 1349.83 1185.18 1348.94 1189.12 1348.94C1195.69 1348.94 1200.56 1350.72 1203.71 1354.3C1206.92 1357.87 1208.52 1362.71 1208.52 1368.81C1208.52 1370.54 1208.44 1372.04 1208.29 1373.3H1178.55C1178.92 1376.77 1180.1 1379.4 1182.1 1381.19C1184.1 1382.93 1186.55 1383.79 1189.44 1383.79C1191.86 1383.79 1193.8 1383.21 1195.27 1382.06C1196.8 1380.85 1197.9 1379.4 1198.58 1377.72L1207.58 1380.17C1206.31 1383.95 1204.16 1387.03 1201.11 1389.39C1198.11 1391.76 1194.09 1392.94 1189.04 1392.94ZM1189.2 1357.29C1186.73 1357.29 1184.6 1358.03 1182.81 1359.5C1181.02 1360.92 1179.76 1363.08 1179.03 1365.97H1198.66C1198.45 1363.34 1197.53 1361.24 1195.9 1359.66C1194.33 1358.08 1192.09 1357.29 1189.2 1357.29ZM1233.03 1392.94C1227.66 1392.94 1223.43 1391.71 1220.33 1389.23C1217.28 1386.71 1215.41 1383.5 1214.73 1379.61L1224.59 1377.96C1225.01 1379.85 1225.96 1381.32 1227.43 1382.37C1228.9 1383.37 1230.77 1383.87 1233.03 1383.87C1234.97 1383.87 1236.65 1383.53 1238.07 1382.85C1239.55 1382.11 1240.28 1380.98 1240.28 1379.46C1240.28 1378.09 1239.6 1376.98 1238.23 1376.14C1236.87 1375.3 1234.97 1374.67 1232.55 1374.25L1227.82 1373.38C1224.46 1372.75 1221.67 1371.44 1219.46 1369.44C1217.25 1367.44 1216.15 1364.79 1216.15 1361.47C1216.15 1359 1216.86 1356.82 1218.28 1354.93C1219.75 1353.04 1221.7 1351.56 1224.12 1350.51C1226.59 1349.46 1229.35 1348.94 1232.4 1348.94C1242.18 1348.94 1247.8 1352.72 1249.27 1360.29L1240.2 1361.71C1239.63 1360.08 1238.68 1358.92 1237.36 1358.24C1236.05 1357.56 1234.47 1357.22 1232.63 1357.22C1230.69 1357.22 1229.11 1357.61 1227.9 1358.4C1226.74 1359.19 1226.17 1360.11 1226.17 1361.16C1226.17 1362.26 1226.64 1363.18 1227.59 1363.92C1228.53 1364.66 1230.06 1365.23 1232.16 1365.65L1237.92 1366.84C1241.96 1367.68 1245.09 1369.07 1247.3 1371.02C1249.51 1372.91 1250.61 1375.67 1250.61 1379.3C1250.61 1382.03 1249.82 1384.42 1248.25 1386.47C1246.67 1388.52 1244.54 1390.13 1241.86 1391.29C1239.23 1392.39 1236.29 1392.94 1233.03 1392.94ZM1295.03 1392.31C1290.99 1392.31 1287.8 1391.13 1285.49 1388.76C1283.18 1386.34 1282.02 1383.03 1282.02 1378.82V1359.03H1275.16V1350.2H1282.02V1338.84H1292.35V1350.2H1301.82V1359.03H1292.35V1377.25C1292.35 1380.82 1293.96 1382.61 1297.16 1382.61C1298.16 1382.61 1299 1382.48 1299.69 1382.22C1300.42 1381.95 1301.21 1381.58 1302.05 1381.11V1390.97C1301 1391.39 1299.9 1391.71 1298.74 1391.92C1297.64 1392.18 1296.4 1392.31 1295.03 1392.31ZM1327.8 1392.94C1323.54 1392.94 1319.83 1392.02 1316.68 1390.18C1313.58 1388.29 1311.16 1385.69 1309.42 1382.37C1307.74 1379.06 1306.9 1375.25 1306.9 1370.94C1306.9 1366.63 1307.74 1362.82 1309.42 1359.5C1311.16 1356.19 1313.58 1353.61 1316.68 1351.77C1319.83 1349.88 1323.54 1348.94 1327.8 1348.94C1332.11 1348.94 1335.82 1349.88 1338.92 1351.77C1342.02 1353.61 1344.41 1356.19 1346.1 1359.5C1347.83 1362.82 1348.7 1366.63 1348.7 1370.94C1348.7 1375.25 1347.83 1379.06 1346.1 1382.37C1344.41 1385.69 1342.02 1388.29 1338.92 1390.18C1335.82 1392.02 1332.11 1392.94 1327.8 1392.94ZM1327.8 1383.32C1330.9 1383.32 1333.42 1382.27 1335.37 1380.17C1337.37 1378.06 1338.37 1374.99 1338.37 1370.94C1338.37 1366.89 1337.37 1363.81 1335.37 1361.71C1333.42 1359.61 1330.9 1358.56 1327.8 1358.56C1324.7 1358.56 1322.15 1359.61 1320.15 1361.71C1318.2 1363.81 1317.23 1366.89 1317.23 1370.94C1317.23 1374.99 1318.2 1378.06 1320.15 1380.17C1322.15 1382.27 1324.7 1383.32 1327.8 1383.32ZM1394.53 1409.98C1388.95 1409.98 1384.51 1408.71 1381.2 1406.19C1377.94 1403.67 1375.89 1400.46 1375.05 1396.57L1385.38 1394.44C1385.96 1396.33 1386.98 1397.86 1388.45 1399.01C1389.98 1400.22 1392 1400.83 1394.53 1400.83C1397.79 1400.83 1400.31 1399.8 1402.1 1397.75C1403.89 1395.7 1404.78 1392.78 1404.78 1389V1385.84H1404.15C1402.68 1387.68 1400.99 1389.08 1399.1 1390.02C1397.26 1390.92 1394.87 1391.36 1391.92 1391.36C1388.77 1391.36 1385.85 1390.52 1383.17 1388.84C1380.49 1387.11 1378.33 1384.66 1376.7 1381.51C1375.07 1378.35 1374.26 1374.57 1374.26 1370.15C1374.26 1365.73 1375.07 1361.95 1376.7 1358.79C1378.33 1355.59 1380.49 1353.14 1383.17 1351.46C1385.85 1349.78 1388.77 1348.94 1391.92 1348.94C1397.5 1348.94 1401.57 1350.78 1404.15 1354.46H1404.78V1350.2H1414.64V1388.68C1414.64 1395.25 1412.88 1400.43 1409.35 1404.22C1405.83 1408.06 1400.89 1409.98 1394.53 1409.98ZM1394.68 1381.9C1397.47 1381.9 1399.84 1380.9 1401.78 1378.9C1403.78 1376.91 1404.78 1373.99 1404.78 1370.15C1404.78 1366.26 1403.78 1363.34 1401.78 1361.4C1399.84 1359.4 1397.47 1358.4 1394.68 1358.4C1391.95 1358.4 1389.58 1359.4 1387.59 1361.4C1385.59 1363.34 1384.59 1366.26 1384.59 1370.15C1384.59 1373.99 1385.59 1376.91 1387.59 1378.9C1389.58 1380.9 1391.95 1381.9 1394.68 1381.9ZM1442.67 1392.94C1438.51 1392.94 1434.91 1392.05 1431.86 1390.26C1428.81 1388.47 1426.45 1385.92 1424.77 1382.61C1423.08 1379.3 1422.24 1375.41 1422.24 1370.94C1422.24 1366.42 1423.11 1362.53 1424.84 1359.27C1426.63 1355.95 1429.08 1353.4 1432.18 1351.62C1435.28 1349.83 1438.8 1348.94 1442.75 1348.94C1449.32 1348.94 1454.18 1350.72 1457.34 1354.3C1460.54 1357.87 1462.15 1362.71 1462.15 1368.81C1462.15 1370.54 1462.07 1372.04 1461.91 1373.3H1432.18C1432.55 1376.77 1433.73 1379.4 1435.73 1381.19C1437.72 1382.93 1440.17 1383.79 1443.06 1383.79C1445.48 1383.79 1447.43 1383.21 1448.9 1382.06C1450.42 1380.85 1451.53 1379.4 1452.21 1377.72L1461.2 1380.17C1459.94 1383.95 1457.78 1387.03 1454.73 1389.39C1451.74 1391.76 1447.71 1392.94 1442.67 1392.94ZM1442.82 1357.29C1440.35 1357.29 1438.22 1358.03 1436.44 1359.5C1434.65 1360.92 1433.39 1363.08 1432.65 1365.97H1452.29C1452.08 1363.34 1451.16 1361.24 1449.53 1359.66C1447.95 1358.08 1445.72 1357.29 1442.82 1357.29ZM1486.29 1392.31C1482.25 1392.31 1479.07 1391.13 1476.75 1388.76C1474.44 1386.34 1473.28 1383.03 1473.28 1378.82V1359.03H1466.42V1350.2H1473.28V1338.84H1483.61V1350.2H1493.08V1359.03H1483.61V1377.25C1483.61 1380.82 1485.22 1382.61 1488.42 1382.61C1489.42 1382.61 1490.26 1382.48 1490.95 1382.22C1491.68 1381.95 1492.47 1381.58 1493.31 1381.11V1390.97C1492.26 1391.39 1491.16 1391.71 1490 1391.92C1488.9 1392.18 1487.66 1392.31 1486.29 1392.31ZM1525.17 1409.5C1523.69 1409.5 1522.33 1409.37 1521.07 1409.11C1519.8 1408.85 1518.75 1408.53 1517.91 1408.16V1398.15C1518.59 1398.51 1519.57 1398.91 1520.83 1399.33C1522.14 1399.8 1523.54 1400.04 1525.01 1400.04C1526.69 1400.04 1528.08 1399.59 1529.19 1398.7C1530.35 1397.86 1531.5 1396.2 1532.66 1393.73L1534.16 1390.34L1517.04 1350.2H1528.79L1539.44 1376.46H1540.07L1550.4 1350.2H1561.84L1541.57 1397.91C1540.36 1400.75 1539.02 1403.01 1537.55 1404.69C1536.08 1406.43 1534.34 1407.66 1532.34 1408.4C1530.4 1409.13 1528.01 1409.5 1525.17 1409.5ZM1585.2 1392.94C1580.94 1392.94 1577.23 1392.02 1574.08 1390.18C1570.98 1388.29 1568.56 1385.69 1566.82 1382.37C1565.14 1379.06 1564.3 1375.25 1564.3 1370.94C1564.3 1366.63 1565.14 1362.82 1566.82 1359.5C1568.56 1356.19 1570.98 1353.61 1574.08 1351.77C1577.23 1349.88 1580.94 1348.94 1585.2 1348.94C1589.51 1348.94 1593.21 1349.88 1596.32 1351.77C1599.42 1353.61 1601.81 1356.19 1603.49 1359.5C1605.23 1362.82 1606.1 1366.63 1606.1 1370.94C1606.1 1375.25 1605.23 1379.06 1603.49 1382.37C1601.81 1385.69 1599.42 1388.29 1596.32 1390.18C1593.21 1392.02 1589.51 1392.94 1585.2 1392.94ZM1585.2 1383.32C1588.3 1383.32 1590.82 1382.27 1592.77 1380.17C1594.77 1378.06 1595.76 1374.99 1595.76 1370.94C1595.76 1366.89 1594.77 1363.81 1592.77 1361.71C1590.82 1359.61 1588.3 1358.56 1585.2 1358.56C1582.1 1358.56 1579.55 1359.61 1577.55 1361.71C1575.6 1363.81 1574.63 1366.89 1574.63 1370.94C1574.63 1374.99 1575.6 1378.06 1577.55 1380.17C1579.55 1382.27 1582.1 1383.32 1585.2 1383.32ZM1628.6 1392.94C1623.82 1392.94 1620.19 1391.5 1617.72 1388.6C1615.25 1385.71 1614.01 1381.72 1614.01 1376.62V1350.2H1624.34V1375.2C1624.34 1377.83 1624.97 1379.85 1626.24 1381.27C1627.55 1382.64 1629.36 1383.32 1631.68 1383.32C1634.52 1383.32 1636.75 1382.27 1638.38 1380.17C1640.06 1378.06 1640.9 1375.46 1640.9 1372.36V1350.2H1651.24V1391.68H1641.54V1386.63H1640.9C1639.75 1388.58 1638.07 1390.13 1635.86 1391.29C1633.7 1392.39 1631.28 1392.94 1628.6 1392.94ZM1662.38 1391.68V1350.2H1672.08V1355.56H1672.71C1673.6 1353.67 1674.92 1352.09 1676.65 1350.83C1678.39 1349.57 1680.52 1348.94 1683.04 1348.94C1684.04 1348.94 1684.85 1348.99 1685.49 1349.09C1686.12 1349.2 1686.67 1349.3 1687.14 1349.41V1359.66C1686.41 1359.35 1685.56 1359.08 1684.62 1358.87C1683.67 1358.66 1682.59 1358.56 1681.38 1358.56C1678.86 1358.56 1676.78 1359.5 1675.15 1361.4C1673.52 1363.24 1672.71 1365.79 1672.71 1369.05V1391.68H1662.38ZM1715.04 1391.68V1350.2H1724.74V1355.24H1725.37C1726.58 1353.3 1728.26 1351.77 1730.42 1350.67C1732.57 1349.51 1734.99 1348.94 1737.67 1348.94C1742.46 1348.94 1746.08 1350.38 1748.56 1353.27C1751.03 1356.11 1752.26 1360.11 1752.26 1365.26V1391.68H1741.93V1366.68C1741.93 1364.05 1741.27 1362.05 1739.96 1360.69C1738.7 1359.27 1736.91 1358.56 1734.6 1358.56C1731.76 1358.56 1729.5 1359.61 1727.81 1361.71C1726.18 1363.81 1725.37 1366.42 1725.37 1369.52V1391.68H1715.04ZM1780.99 1392.94C1776.84 1392.94 1773.24 1392.05 1770.19 1390.26C1767.14 1388.47 1764.77 1385.92 1763.09 1382.61C1761.41 1379.3 1760.56 1375.41 1760.56 1370.94C1760.56 1366.42 1761.43 1362.53 1763.17 1359.27C1764.95 1355.95 1767.4 1353.4 1770.5 1351.62C1773.6 1349.83 1777.13 1348.94 1781.07 1348.94C1787.64 1348.94 1792.5 1350.72 1795.66 1354.3C1798.87 1357.87 1800.47 1362.71 1800.47 1368.81C1800.47 1370.54 1800.39 1372.04 1800.23 1373.3H1770.5C1770.87 1376.77 1772.05 1379.4 1774.05 1381.19C1776.05 1382.93 1778.49 1383.79 1781.38 1383.79C1783.8 1383.79 1785.75 1383.21 1787.22 1382.06C1788.75 1380.85 1789.85 1379.4 1790.53 1377.72L1799.52 1380.17C1798.26 1383.95 1796.11 1387.03 1793.06 1389.39C1790.06 1391.76 1786.04 1392.94 1780.99 1392.94ZM1781.15 1357.29C1778.68 1357.29 1776.55 1358.03 1774.76 1359.5C1772.97 1360.92 1771.71 1363.08 1770.97 1365.97H1790.61C1790.4 1363.34 1789.48 1361.24 1787.85 1359.66C1786.27 1358.08 1784.04 1357.29 1781.15 1357.29ZM1804.18 1391.68L1818.3 1370.62L1804.18 1350.2H1816.33L1824.29 1362.26H1824.77L1832.18 1350.2H1844.72L1830.44 1370.62L1844.72 1391.68H1832.57L1824.61 1379.3H1824.14L1816.25 1391.68H1804.18ZM1868.2 1392.31C1864.15 1392.31 1860.97 1391.13 1858.66 1388.76C1856.34 1386.34 1855.19 1383.03 1855.19 1378.82V1359.03H1848.33V1350.2H1855.19V1338.84H1865.52V1350.2H1874.98V1359.03H1865.52V1377.25C1865.52 1380.82 1867.12 1382.61 1870.33 1382.61C1871.33 1382.61 1872.17 1382.48 1872.85 1382.22C1873.59 1381.95 1874.38 1381.58 1875.22 1381.11V1390.97C1874.17 1391.39 1873.06 1391.71 1871.91 1391.92C1870.8 1392.18 1869.57 1392.31 1868.2 1392.31ZM789.299 1491.94C786.197 1491.94 783.647 1491.36 781.649 1490.21C779.651 1489 778.074 1487.55 776.917 1485.87H776.287V1490.68H766.586V1429.48H776.917V1447.94L776.287 1454.09H776.917C777.864 1452.51 779.389 1451.09 781.492 1449.83C783.647 1448.57 786.25 1447.94 789.299 1447.94C792.822 1447.94 795.95 1448.8 798.684 1450.54C801.47 1452.22 803.679 1454.69 805.308 1457.95C806.938 1461.21 807.753 1465.21 807.753 1469.94C807.753 1474.62 806.938 1478.61 805.308 1481.93C803.679 1485.19 801.47 1487.68 798.684 1489.42C795.95 1491.1 792.822 1491.94 789.299 1491.94ZM786.854 1482.32C789.851 1482.32 792.348 1481.27 794.346 1479.17C796.397 1477.01 797.422 1473.93 797.422 1469.94C797.422 1465.94 796.397 1462.89 794.346 1460.79C792.348 1458.63 789.851 1457.56 786.854 1457.56C783.857 1457.56 781.334 1458.63 779.283 1460.79C777.285 1462.89 776.287 1465.94 776.287 1469.94C776.287 1473.93 777.285 1477.01 779.283 1479.17C781.334 1481.27 783.857 1482.32 786.854 1482.32ZM821.305 1442.1C819.465 1442.1 817.887 1441.44 816.573 1440.13C815.259 1438.81 814.601 1437.24 814.601 1435.4C814.601 1433.56 815.259 1431.98 816.573 1430.66C817.887 1429.35 819.465 1428.69 821.305 1428.69C823.145 1428.69 824.722 1429.35 826.037 1430.66C827.351 1431.98 828.008 1433.56 828.008 1435.4C828.008 1437.24 827.351 1438.81 826.037 1440.13C824.722 1441.44 823.145 1442.1 821.305 1442.1ZM816.1 1490.68V1449.2H826.431V1490.68H816.1ZM854.541 1508.98C848.968 1508.98 844.525 1507.71 841.213 1505.19C837.953 1502.67 835.903 1499.46 835.062 1495.57L845.393 1493.44C845.971 1495.33 846.997 1496.86 848.469 1498.01C849.993 1499.22 852.018 1499.83 854.541 1499.83C857.801 1499.83 860.325 1498.8 862.112 1496.75C863.9 1494.7 864.793 1491.78 864.793 1488V1484.84H864.163C862.69 1486.68 861.008 1488.08 859.115 1489.02C857.275 1489.92 854.883 1490.36 851.939 1490.36C848.784 1490.36 845.866 1489.52 843.185 1487.84C840.503 1486.11 838.348 1483.66 836.718 1480.51C835.088 1477.35 834.273 1473.57 834.273 1469.15C834.273 1464.73 835.088 1460.95 836.718 1457.79C838.348 1454.59 840.503 1452.14 843.185 1450.46C845.866 1448.78 848.784 1447.94 851.939 1447.94C857.512 1447.94 861.586 1449.78 864.163 1453.46H864.793V1449.2H874.651V1487.68C874.651 1494.25 872.89 1499.43 869.368 1503.22C865.845 1507.06 860.903 1508.98 854.541 1508.98ZM854.699 1480.9C857.485 1480.9 859.851 1479.9 861.797 1477.9C863.795 1475.91 864.793 1472.99 864.793 1469.15C864.793 1465.26 863.795 1462.34 861.797 1460.4C859.851 1458.4 857.485 1457.4 854.699 1457.4C851.965 1457.4 849.599 1458.4 847.601 1460.4C845.603 1462.34 844.604 1465.26 844.604 1469.15C844.604 1472.99 845.603 1475.91 847.601 1477.9C849.599 1479.9 851.965 1480.9 854.699 1480.9ZM922.771 1491.94C918.776 1491.94 915.253 1491.05 912.204 1489.26C909.154 1487.42 906.762 1484.84 905.027 1481.53C903.292 1478.22 902.425 1474.35 902.425 1469.94C902.425 1465.47 903.292 1461.6 905.027 1458.35C906.815 1455.03 909.259 1452.48 912.361 1450.7C915.463 1448.86 919.065 1447.94 923.166 1447.94C928.003 1447.94 932.13 1449.12 935.547 1451.48C938.965 1453.85 941.094 1457.4 941.935 1462.13L931.841 1463.71C931.315 1461.66 930.264 1460.11 928.686 1459.05C927.109 1458 925.19 1457.48 922.929 1457.48C920.195 1457.48 917.803 1458.56 915.753 1460.71C913.755 1462.81 912.756 1465.89 912.756 1469.94C912.756 1473.99 913.728 1477.09 915.674 1479.24C917.672 1481.35 920.09 1482.4 922.929 1482.4C927.556 1482.4 930.553 1480.06 931.92 1475.38L941.857 1477.67C940.858 1481.82 938.755 1485.24 935.547 1487.92C932.34 1490.6 928.082 1491.94 922.771 1491.94ZM968.368 1491.94C964.11 1491.94 960.403 1491.02 957.249 1489.18C954.147 1487.29 951.728 1484.69 949.993 1481.37C948.311 1478.06 947.469 1474.25 947.469 1469.94C947.469 1465.63 948.311 1461.82 949.993 1458.5C951.728 1455.19 954.147 1452.61 957.249 1450.77C960.403 1448.88 964.11 1447.94 968.368 1447.94C972.68 1447.94 976.386 1448.88 979.488 1450.77C982.59 1452.61 984.982 1455.19 986.665 1458.5C988.4 1461.82 989.267 1465.63 989.267 1469.94C989.267 1474.25 988.4 1478.06 986.665 1481.37C984.982 1484.69 982.59 1487.29 979.488 1489.18C976.386 1491.02 972.68 1491.94 968.368 1491.94ZM968.368 1482.32C971.47 1482.32 973.994 1481.27 975.939 1479.17C977.937 1477.06 978.936 1473.99 978.936 1469.94C978.936 1465.89 977.937 1462.81 975.939 1460.71C973.994 1458.61 971.47 1457.56 968.368 1457.56C965.266 1457.56 962.716 1458.61 960.719 1460.71C958.773 1462.81 957.801 1465.89 957.801 1469.94C957.801 1473.99 958.773 1477.06 960.719 1479.17C962.716 1481.27 965.266 1482.32 968.368 1482.32ZM997.193 1490.68V1449.2H1006.89V1454.24H1007.52C1008.73 1452.3 1010.42 1450.77 1012.57 1449.67C1014.73 1448.51 1017.15 1447.94 1019.83 1447.94C1024.61 1447.94 1028.24 1449.38 1030.71 1452.27C1033.18 1455.11 1034.42 1459.11 1034.42 1464.26V1490.68H1024.09V1465.68C1024.09 1463.05 1023.43 1461.05 1022.11 1459.69C1020.85 1458.27 1019.06 1457.56 1016.75 1457.56C1013.91 1457.56 1011.65 1458.61 1009.97 1460.71C1008.34 1462.81 1007.52 1465.42 1007.52 1468.52V1490.68H997.193ZM1059.8 1491.31C1055.75 1491.31 1052.57 1490.13 1050.26 1487.76C1047.95 1485.34 1046.79 1482.03 1046.79 1477.82V1458.03H1039.93V1449.2H1046.79V1437.84H1057.12V1449.2H1066.58V1458.03H1057.12V1476.25C1057.12 1479.82 1058.72 1481.61 1061.93 1481.61C1062.93 1481.61 1063.77 1481.48 1064.45 1481.22C1065.19 1480.95 1065.98 1480.58 1066.82 1480.11V1489.97C1065.77 1490.39 1064.67 1490.71 1063.51 1490.92C1062.4 1491.18 1061.17 1491.31 1059.8 1491.31ZM1092.09 1491.94C1087.94 1491.94 1084.34 1491.05 1081.29 1489.26C1078.24 1487.47 1075.87 1484.92 1074.19 1481.61C1072.51 1478.3 1071.67 1474.41 1071.67 1469.94C1071.67 1465.42 1072.54 1461.53 1074.27 1458.27C1076.06 1454.95 1078.5 1452.4 1081.6 1450.62C1084.71 1448.83 1088.23 1447.94 1092.17 1447.94C1098.74 1447.94 1103.61 1449.72 1106.76 1453.3C1109.97 1456.87 1111.57 1461.71 1111.57 1467.81C1111.57 1469.54 1111.49 1471.04 1111.34 1472.3H1081.6C1081.97 1475.77 1083.16 1478.4 1085.15 1480.19C1087.15 1481.93 1089.6 1482.79 1092.49 1482.79C1094.91 1482.79 1096.85 1482.21 1098.32 1481.06C1099.85 1479.85 1100.95 1478.4 1101.64 1476.72L1110.63 1479.17C1109.36 1482.95 1107.21 1486.03 1104.16 1488.39C1101.16 1490.76 1097.14 1491.94 1092.09 1491.94ZM1092.25 1456.29C1089.78 1456.29 1087.65 1457.03 1085.86 1458.5C1084.08 1459.92 1082.81 1462.08 1082.08 1464.97H1101.72C1101.5 1462.34 1100.58 1460.24 1098.95 1458.66C1097.38 1457.08 1095.14 1456.29 1092.25 1456.29ZM1120.24 1490.68V1449.2H1129.94V1454.24H1130.57C1131.78 1452.3 1133.46 1450.77 1135.61 1449.67C1137.77 1448.51 1140.19 1447.94 1142.87 1447.94C1147.65 1447.94 1151.28 1449.38 1153.75 1452.27C1156.22 1455.11 1157.46 1459.11 1157.46 1464.26V1490.68H1147.13V1465.68C1147.13 1463.05 1146.47 1461.05 1145.16 1459.69C1143.89 1458.27 1142.11 1457.56 1139.79 1457.56C1136.95 1457.56 1134.69 1458.61 1133.01 1460.71C1131.38 1462.81 1130.57 1465.42 1130.57 1468.52V1490.68H1120.24ZM1182.85 1491.31C1178.8 1491.31 1175.62 1490.13 1173.3 1487.76C1170.99 1485.34 1169.83 1482.03 1169.83 1477.82V1458.03H1162.97V1449.2H1169.83V1437.84H1180.16V1449.2H1189.63V1458.03H1180.16V1476.25C1180.16 1479.82 1181.77 1481.61 1184.97 1481.61C1185.97 1481.61 1186.81 1481.48 1187.5 1481.22C1188.23 1480.95 1189.02 1480.58 1189.86 1480.11V1489.97C1188.81 1490.39 1187.71 1490.71 1186.55 1490.92C1185.45 1491.18 1184.21 1491.31 1182.85 1491.31ZM1223.61 1442.1C1221.77 1442.1 1220.19 1441.44 1218.88 1440.13C1217.56 1438.81 1216.91 1437.24 1216.91 1435.4C1216.91 1433.56 1217.56 1431.98 1218.88 1430.66C1220.19 1429.35 1221.77 1428.69 1223.61 1428.69C1225.45 1428.69 1227.03 1429.35 1228.34 1430.66C1229.66 1431.98 1230.31 1433.56 1230.31 1435.4C1230.31 1437.24 1229.66 1438.81 1228.34 1440.13C1227.03 1441.44 1225.45 1442.1 1223.61 1442.1ZM1218.4 1490.68V1449.2H1228.74V1490.68H1218.4ZM1255.35 1491.94C1251.93 1491.94 1248.83 1491.1 1246.04 1489.42C1243.26 1487.74 1241.05 1485.26 1239.42 1482C1237.79 1478.69 1236.97 1474.67 1236.97 1469.94C1236.97 1465.15 1237.81 1461.13 1239.5 1457.87C1241.18 1454.61 1243.41 1452.14 1246.2 1450.46C1249.04 1448.78 1252.11 1447.94 1255.43 1447.94C1258.53 1447.94 1261.1 1448.51 1263.16 1449.67C1265.26 1450.77 1266.81 1452.25 1267.81 1454.09H1268.44L1267.81 1447.94V1429.48H1278.14V1490.68H1268.44V1485.87H1267.81C1266.7 1487.5 1265.13 1488.92 1263.08 1490.13C1261.03 1491.34 1258.45 1491.94 1255.35 1491.94ZM1257.87 1482.32C1260.87 1482.32 1263.37 1481.29 1265.36 1479.24C1267.41 1477.19 1268.44 1474.09 1268.44 1469.94C1268.44 1465.78 1267.41 1462.68 1265.36 1460.63C1263.37 1458.58 1260.87 1457.56 1257.87 1457.56C1254.87 1457.56 1252.35 1458.58 1250.3 1460.63C1248.3 1462.68 1247.3 1465.78 1247.3 1469.94C1247.3 1474.09 1248.3 1477.19 1250.3 1479.24C1252.35 1481.29 1254.87 1482.32 1257.87 1482.32ZM1306.83 1491.94C1302.68 1491.94 1299.08 1491.05 1296.03 1489.26C1292.98 1487.47 1290.62 1484.92 1288.93 1481.61C1287.25 1478.3 1286.41 1474.41 1286.41 1469.94C1286.41 1465.42 1287.28 1461.53 1289.01 1458.27C1290.8 1454.95 1293.24 1452.4 1296.35 1450.62C1299.45 1448.83 1302.97 1447.94 1306.91 1447.94C1313.49 1447.94 1318.35 1449.72 1321.5 1453.3C1324.71 1456.87 1326.31 1461.71 1326.31 1467.81C1326.31 1469.54 1326.24 1471.04 1326.08 1472.3H1296.35C1296.71 1475.77 1297.9 1478.4 1299.89 1480.19C1301.89 1481.93 1304.34 1482.79 1307.23 1482.79C1309.65 1482.79 1311.59 1482.21 1313.06 1481.06C1314.59 1479.85 1315.69 1478.4 1316.38 1476.72L1325.37 1479.17C1324.11 1482.95 1321.95 1486.03 1318.9 1488.39C1315.9 1490.76 1311.88 1491.94 1306.83 1491.94ZM1306.99 1456.29C1304.52 1456.29 1302.39 1457.03 1300.6 1458.5C1298.82 1459.92 1297.56 1462.08 1296.82 1464.97H1316.46C1316.25 1462.34 1315.33 1460.24 1313.7 1458.66C1312.12 1457.08 1309.88 1456.29 1306.99 1456.29ZM1348.06 1491.94C1343.64 1491.94 1340.15 1490.73 1337.57 1488.31C1334.99 1485.9 1333.71 1482.66 1333.71 1478.61C1333.71 1475.83 1334.42 1473.46 1335.84 1471.52C1337.25 1469.52 1339.17 1467.99 1341.59 1466.94C1344.06 1465.89 1346.8 1465.36 1349.79 1465.36C1351.74 1465.36 1353.61 1465.5 1355.39 1465.76C1357.23 1465.97 1359.1 1466.28 1360.99 1466.7V1463.39C1360.99 1461.24 1360.23 1459.5 1358.71 1458.19C1357.18 1456.87 1355.03 1456.22 1352.24 1456.22C1350.19 1456.22 1348.4 1456.74 1346.88 1457.79C1345.35 1458.79 1344.3 1460.21 1343.72 1462.05L1334.73 1460.16C1335.36 1457.37 1336.54 1455.09 1338.28 1453.3C1340.07 1451.51 1342.17 1450.17 1344.59 1449.28C1347.06 1448.38 1349.66 1447.94 1352.4 1447.94C1358.65 1447.94 1363.33 1449.35 1366.43 1452.19C1369.54 1455.03 1371.09 1459.19 1371.09 1464.65V1490.68H1360.99V1486.58H1360.36C1359.15 1488.05 1357.5 1489.31 1355.39 1490.36C1353.29 1491.42 1350.85 1491.94 1348.06 1491.94ZM1350.66 1483.9C1353.92 1483.9 1356.44 1482.95 1358.23 1481.06C1360.07 1479.11 1360.99 1476.88 1360.99 1474.35C1359.52 1473.88 1357.94 1473.51 1356.26 1473.25C1354.58 1472.94 1352.92 1472.78 1351.29 1472.78C1348.72 1472.78 1346.85 1473.33 1345.69 1474.43C1344.54 1475.48 1343.96 1476.85 1343.96 1478.53C1343.96 1480.11 1344.59 1481.4 1345.85 1482.4C1347.11 1483.4 1348.72 1483.9 1350.66 1483.9ZM1387.63 1491.15C1385.74 1491.15 1384.11 1490.5 1382.74 1489.18C1381.43 1487.81 1380.77 1486.18 1380.77 1484.29C1380.77 1482.4 1381.43 1480.8 1382.74 1479.48C1384.11 1478.17 1385.74 1477.51 1387.63 1477.51C1389.52 1477.51 1391.13 1478.17 1392.44 1479.48C1393.81 1480.8 1394.49 1482.4 1394.49 1484.29C1394.49 1486.18 1393.81 1487.81 1392.44 1489.18C1391.13 1490.5 1389.52 1491.15 1387.63 1491.15Z" fill="#3D4043"/>
<rect x="797.076" y="1576.7" width="544.922" height="111.274" rx="55.6372" fill="#B3CBF6"/>
<path d="M882.472 1649.88C878.961 1649.88 876.056 1648.98 873.758 1647.19C871.46 1645.38 870.008 1642.77 869.401 1639.39L874.668 1638.24C875.019 1640.22 875.849 1641.83 877.158 1643.08C878.466 1644.29 880.254 1644.9 882.52 1644.9C884.563 1644.9 886.223 1644.43 887.499 1643.51C888.776 1642.58 889.415 1641.34 889.415 1639.77C889.415 1638.15 888.84 1636.93 887.691 1636.13C886.542 1635.3 884.675 1634.49 882.089 1633.69L879.552 1632.88C878.115 1632.46 876.711 1631.89 875.338 1631.15C873.998 1630.42 872.88 1629.45 871.987 1628.23C871.093 1626.99 870.646 1625.39 870.646 1623.45C870.646 1621.69 871.109 1620.11 872.034 1618.71C872.96 1617.27 874.269 1616.14 875.961 1615.31C877.684 1614.48 879.727 1614.06 882.089 1614.06C885.696 1614.06 888.473 1614.94 890.42 1616.7C892.367 1618.42 893.5 1620.61 893.82 1623.25L888.84 1624.02C888.521 1622.49 887.803 1621.26 886.686 1620.33C885.6 1619.41 884.084 1618.95 882.137 1618.95C880.318 1618.95 878.801 1619.34 877.588 1620.14C876.407 1620.94 875.817 1621.98 875.817 1623.25C875.817 1624.53 876.376 1625.58 877.493 1626.41C878.61 1627.21 880.27 1627.95 882.472 1628.62L884.962 1629.38C886.749 1629.93 888.377 1630.61 889.846 1631.44C891.314 1632.24 892.479 1633.29 893.341 1634.6C894.203 1635.91 894.633 1637.6 894.633 1639.68C894.633 1641.91 894.075 1643.78 892.958 1645.28C891.841 1646.78 890.356 1647.93 888.505 1648.73C886.686 1649.49 884.675 1649.88 882.472 1649.88ZM910.683 1649.88C908.257 1649.88 906.135 1649.32 904.315 1648.2C902.528 1647.05 901.139 1645.49 900.15 1643.51C899.192 1641.5 898.713 1639.18 898.713 1636.57C898.713 1633.88 899.224 1631.54 900.245 1629.53C901.267 1627.52 902.671 1625.95 904.459 1624.83C906.278 1623.72 908.353 1623.16 910.683 1623.16C914.482 1623.16 917.354 1624.23 919.301 1626.37C921.28 1628.51 922.27 1631.43 922.27 1635.13C922.27 1636.05 922.222 1636.88 922.126 1637.62H903.741C903.9 1640.11 904.634 1642.01 905.943 1643.32C907.252 1644.62 908.896 1645.28 910.875 1645.28C912.63 1645.28 913.987 1644.9 914.944 1644.13C915.934 1643.33 916.652 1642.34 917.099 1641.16L921.6 1642.36C920.961 1644.53 919.748 1646.33 917.961 1647.77C916.173 1649.17 913.747 1649.88 910.683 1649.88ZM910.731 1627.52C909.007 1627.52 907.539 1628.04 906.326 1629.1C905.145 1630.15 904.363 1631.7 903.98 1633.74H917.195C917.099 1631.86 916.508 1630.36 915.423 1629.24C914.338 1628.09 912.774 1627.52 910.731 1627.52ZM938.264 1649.88C935.838 1649.88 933.716 1649.32 931.896 1648.2C930.109 1647.05 928.72 1645.49 927.731 1643.51C926.773 1641.5 926.294 1639.18 926.294 1636.57C926.294 1633.88 926.805 1631.54 927.826 1629.53C928.848 1627.52 930.252 1625.95 932.04 1624.83C933.859 1623.72 935.934 1623.16 938.264 1623.16C942.063 1623.16 944.935 1624.23 946.882 1626.37C948.861 1628.51 949.851 1631.43 949.851 1635.13C949.851 1636.05 949.803 1636.88 949.707 1637.62H931.322C931.481 1640.11 932.215 1642.01 933.524 1643.32C934.833 1644.62 936.477 1645.28 938.456 1645.28C940.211 1645.28 941.568 1644.9 942.525 1644.13C943.515 1643.33 944.233 1642.34 944.68 1641.16L949.181 1642.36C948.542 1644.53 947.329 1646.33 945.542 1647.77C943.754 1649.17 941.328 1649.88 938.264 1649.88ZM938.312 1627.52C936.588 1627.52 935.12 1628.04 933.907 1629.1C932.726 1630.15 931.944 1631.7 931.561 1633.74H944.776C944.68 1631.86 944.089 1630.36 943.004 1629.24C941.919 1628.09 940.355 1627.52 938.312 1627.52ZM976.09 1649.88C973.154 1649.88 970.712 1649.17 968.765 1647.77C966.849 1646.36 965.716 1644.45 965.365 1642.02L970.297 1641.21C970.552 1642.42 971.175 1643.41 972.164 1644.18C973.185 1644.94 974.494 1645.33 976.09 1645.33C977.463 1645.33 978.644 1645.06 979.633 1644.51C980.655 1643.94 981.165 1643.11 981.165 1642.02C981.165 1641.03 980.734 1640.24 979.873 1639.63C979.043 1639.02 977.846 1638.58 976.282 1638.29L973.265 1637.71C971.159 1637.33 969.435 1636.55 968.094 1635.37C966.754 1634.19 966.083 1632.58 966.083 1630.53C966.083 1629.06 966.514 1627.79 967.376 1626.7C968.238 1625.58 969.387 1624.72 970.823 1624.12C972.292 1623.48 973.904 1623.16 975.659 1623.16C978.277 1623.16 980.463 1623.72 982.219 1624.83C983.974 1625.95 985.06 1627.69 985.474 1630.05L980.83 1630.77C980.511 1629.56 979.889 1628.71 978.963 1628.23C978.069 1627.72 977 1627.47 975.755 1627.47C974.414 1627.47 973.313 1627.74 972.451 1628.28C971.59 1628.82 971.159 1629.53 971.159 1630.39C971.159 1631.22 971.478 1631.91 972.116 1632.45C972.786 1632.96 973.872 1633.37 975.372 1633.69L978.867 1634.41C981.229 1634.89 983.049 1635.72 984.325 1636.9C985.634 1638.08 986.288 1639.74 986.288 1641.88C986.288 1643.51 985.826 1644.93 984.9 1646.14C984.006 1647.32 982.793 1648.25 981.261 1648.92C979.729 1649.56 978.005 1649.88 976.09 1649.88ZM1001.84 1649.88C999.411 1649.88 997.288 1649.32 995.469 1648.2C993.681 1647.05 992.293 1645.49 991.303 1643.51C990.346 1641.5 989.867 1639.18 989.867 1636.57C989.867 1633.88 990.378 1631.54 991.399 1629.53C992.421 1627.52 993.825 1625.95 995.613 1624.83C997.432 1623.72 999.507 1623.16 1001.84 1623.16C1005.64 1623.16 1008.51 1624.23 1010.46 1626.37C1012.43 1628.51 1013.42 1631.43 1013.42 1635.13C1013.42 1636.05 1013.38 1636.88 1013.28 1637.62H994.894C995.054 1640.11 995.788 1642.01 997.097 1643.32C998.405 1644.62 1000.05 1645.28 1002.03 1645.28C1003.78 1645.28 1005.14 1644.9 1006.1 1644.13C1007.09 1643.33 1007.81 1642.34 1008.25 1641.16L1012.75 1642.36C1012.11 1644.53 1010.9 1646.33 1009.11 1647.77C1007.33 1649.17 1004.9 1649.88 1001.84 1649.88ZM1001.88 1627.52C1000.16 1627.52 998.693 1628.04 997.48 1629.1C996.299 1630.15 995.517 1631.7 995.134 1633.74H1008.35C1008.25 1631.86 1007.66 1630.36 1006.58 1629.24C1005.49 1628.09 1003.93 1627.52 1001.88 1627.52ZM1026.59 1649.88C1023.98 1649.88 1021.87 1649.16 1020.27 1647.72C1018.68 1646.28 1017.88 1644.35 1017.88 1641.93C1017.88 1640.24 1018.31 1638.82 1019.17 1637.67C1020.07 1636.49 1021.23 1635.59 1022.67 1634.99C1024.14 1634.38 1025.75 1634.08 1027.5 1634.08C1028.84 1634.08 1030.09 1634.16 1031.24 1634.31C1032.39 1634.47 1033.54 1634.71 1034.68 1635.03V1632.64C1034.68 1631.08 1034.14 1629.83 1033.06 1628.9C1031.97 1627.95 1030.54 1627.47 1028.75 1627.47C1027.31 1627.47 1026.08 1627.82 1025.06 1628.52C1024.07 1629.19 1023.39 1630.18 1023 1631.49L1018.45 1630.44C1018.96 1628.07 1020.18 1626.27 1022.09 1625.03C1024.04 1623.78 1026.27 1623.16 1028.8 1623.16C1032.34 1623.16 1035.04 1624 1036.89 1625.7C1038.74 1627.39 1039.66 1629.81 1039.66 1632.97V1649.11H1034.68V1646.19H1034.4C1033.66 1647.15 1032.64 1648.01 1031.33 1648.77C1030.06 1649.51 1028.48 1649.88 1026.59 1649.88ZM1027.74 1645.66C1029.85 1645.66 1031.52 1645.02 1032.77 1643.75C1034.05 1642.44 1034.68 1640.87 1034.68 1639.05C1032.55 1638.32 1030.42 1637.95 1028.32 1637.95C1026.66 1637.95 1025.36 1638.29 1024.44 1638.96C1023.51 1639.63 1023.05 1640.62 1023.05 1641.93C1023.05 1643.01 1023.48 1643.91 1024.34 1644.61C1025.24 1645.31 1026.37 1645.66 1027.74 1645.66ZM1046.14 1649.11V1623.93H1050.98V1627.32H1051.26C1051.77 1626.11 1052.6 1625.12 1053.75 1624.36C1054.9 1623.59 1056.21 1623.21 1057.68 1623.21C1058.28 1623.21 1058.78 1623.24 1059.16 1623.3C1059.55 1623.37 1059.88 1623.45 1060.17 1623.54V1628.76C1059.21 1628.31 1058.12 1628.09 1056.91 1628.09C1055.32 1628.09 1053.98 1628.73 1052.89 1630.01C1051.8 1631.28 1051.26 1632.88 1051.26 1634.79V1649.11H1046.14ZM1074.15 1649.88C1071.76 1649.88 1069.65 1649.33 1067.83 1648.25C1066.05 1647.13 1064.64 1645.57 1063.62 1643.56C1062.63 1641.54 1062.14 1639.2 1062.14 1636.52C1062.14 1633.8 1062.65 1631.46 1063.67 1629.48C1064.72 1627.47 1066.16 1625.92 1067.98 1624.83C1069.83 1623.72 1071.95 1623.16 1074.35 1623.16C1077.35 1623.16 1079.8 1623.91 1081.72 1625.41C1083.67 1626.91 1084.86 1628.97 1085.31 1631.59L1080.33 1632.4C1080.01 1631.03 1079.33 1629.94 1078.27 1629.14C1077.25 1628.31 1075.91 1627.9 1074.25 1627.9C1072.27 1627.9 1070.61 1628.65 1069.27 1630.15C1067.93 1631.62 1067.26 1633.74 1067.26 1636.52C1067.26 1639.29 1067.91 1641.43 1069.22 1642.93C1070.56 1644.4 1072.24 1645.14 1074.25 1645.14C1077.41 1645.14 1079.45 1643.56 1080.38 1640.4L1085.21 1641.54C1084.61 1644 1083.38 1646.01 1081.53 1647.58C1079.68 1649.11 1077.22 1649.88 1074.15 1649.88ZM1090.45 1649.11V1611.96H1095.58V1623.54L1095.29 1627.32H1095.58C1096.22 1626.14 1097.24 1625.15 1098.64 1624.36C1100.05 1623.56 1101.61 1623.16 1103.33 1623.16C1106.3 1623.16 1108.55 1624.04 1110.08 1625.79C1111.65 1627.55 1112.43 1629.86 1112.43 1632.73V1649.11H1107.31V1633.41C1107.31 1631.65 1106.83 1630.29 1105.87 1629.34C1104.91 1628.38 1103.6 1627.9 1101.94 1627.9C1100.7 1627.9 1099.6 1628.23 1098.64 1628.9C1097.68 1629.54 1096.93 1630.42 1096.39 1631.54C1095.85 1632.62 1095.58 1633.85 1095.58 1635.22V1649.11H1090.45ZM1140.27 1649.49C1138.07 1649.49 1136.31 1648.84 1135 1647.53C1133.7 1646.19 1133.04 1644.35 1133.04 1642.02V1628.43H1128.97V1623.93H1133.04V1617.03H1138.16V1623.93H1143.91V1628.43H1138.16V1641.11C1138.16 1643.48 1139.2 1644.66 1141.28 1644.66C1141.82 1644.66 1142.3 1644.59 1142.71 1644.47C1143.13 1644.31 1143.56 1644.1 1144.01 1643.84V1648.82C1143.49 1649.01 1142.94 1649.17 1142.33 1649.3C1141.75 1649.43 1141.07 1649.49 1140.27 1649.49ZM1149.21 1649.11V1623.93H1154.05V1627.32H1154.33C1154.84 1626.11 1155.67 1625.12 1156.82 1624.36C1157.97 1623.59 1159.28 1623.21 1160.75 1623.21C1161.36 1623.21 1161.85 1623.24 1162.23 1623.3C1162.62 1623.37 1162.95 1623.45 1163.24 1623.54V1628.76C1162.28 1628.31 1161.2 1628.09 1159.98 1628.09C1158.39 1628.09 1157.05 1628.73 1155.96 1630.01C1154.88 1631.28 1154.33 1632.88 1154.33 1634.79V1649.11H1149.21ZM1177.18 1649.88C1174.75 1649.88 1172.63 1649.32 1170.81 1648.2C1169.02 1647.05 1167.63 1645.49 1166.64 1643.51C1165.69 1641.5 1165.21 1639.18 1165.21 1636.57C1165.21 1633.88 1165.72 1631.54 1166.74 1629.53C1167.76 1627.52 1169.17 1625.95 1170.95 1624.83C1172.77 1623.72 1174.85 1623.16 1177.18 1623.16C1180.98 1623.16 1183.85 1624.23 1185.8 1626.37C1187.77 1628.51 1188.76 1631.43 1188.76 1635.13C1188.76 1636.05 1188.72 1636.88 1188.62 1637.62H1170.23C1170.39 1640.11 1171.13 1642.01 1172.44 1643.32C1173.75 1644.62 1175.39 1645.28 1177.37 1645.28C1179.12 1645.28 1180.48 1644.9 1181.44 1644.13C1182.43 1643.33 1183.15 1642.34 1183.59 1641.16L1188.09 1642.36C1187.46 1644.53 1186.24 1646.33 1184.46 1647.77C1182.67 1649.17 1180.24 1649.88 1177.18 1649.88ZM1177.23 1627.52C1175.5 1627.52 1174.03 1628.04 1172.82 1629.1C1171.64 1630.15 1170.86 1631.7 1170.47 1633.74H1183.69C1183.59 1631.86 1183 1630.36 1181.92 1629.24C1180.83 1628.09 1179.27 1627.52 1177.23 1627.52ZM1194.04 1649.11V1623.93H1198.87V1627.13H1199.16C1199.83 1625.95 1200.82 1624.99 1202.13 1624.26C1203.47 1623.53 1204.97 1623.16 1206.63 1623.16C1209.5 1623.16 1211.69 1624.02 1213.19 1625.74C1214.72 1627.44 1215.49 1629.77 1215.49 1632.73V1649.11H1210.32V1633.41C1210.32 1631.52 1209.86 1630.13 1208.93 1629.24C1208 1628.35 1206.77 1627.9 1205.24 1627.9C1203.36 1627.9 1201.88 1628.57 1200.79 1629.91C1199.7 1631.25 1199.16 1632.88 1199.16 1634.79V1649.11H1194.04ZM1231.71 1649.88C1229.51 1649.88 1227.56 1649.35 1225.87 1648.3C1224.21 1647.21 1222.9 1645.66 1221.95 1643.65C1220.99 1641.64 1220.51 1639.26 1220.51 1636.52C1220.51 1633.74 1220.99 1631.36 1221.95 1629.38C1222.9 1627.37 1224.23 1625.84 1225.92 1624.79C1227.61 1623.7 1229.54 1623.16 1231.71 1623.16C1233.6 1623.16 1235.19 1623.56 1236.5 1624.36C1237.84 1625.12 1238.83 1626.05 1239.47 1627.13H1239.76L1239.47 1623.54V1611.96H1244.59V1649.11H1239.76V1645.85H1239.47C1238.8 1646.94 1237.79 1647.88 1236.45 1648.68C1235.15 1649.48 1233.57 1649.88 1231.71 1649.88ZM1232.67 1645.14C1234.71 1645.14 1236.41 1644.42 1237.75 1642.98C1239.09 1641.51 1239.76 1639.36 1239.76 1636.52C1239.76 1633.68 1239.09 1631.54 1237.75 1630.1C1236.41 1628.63 1234.71 1627.9 1232.67 1627.9C1230.63 1627.9 1228.94 1628.63 1227.6 1630.1C1226.29 1631.54 1225.63 1633.68 1225.63 1636.52C1225.63 1639.36 1226.29 1641.51 1227.6 1642.98C1228.94 1644.42 1230.63 1645.14 1232.67 1645.14ZM1260.07 1649.88C1257.13 1649.88 1254.69 1649.17 1252.75 1647.77C1250.83 1646.36 1249.7 1644.45 1249.35 1642.02L1254.28 1641.21C1254.53 1642.42 1255.16 1643.41 1256.15 1644.18C1257.17 1644.94 1258.48 1645.33 1260.07 1645.33C1261.44 1645.33 1262.63 1645.06 1263.61 1644.51C1264.64 1643.94 1265.15 1643.11 1265.15 1642.02C1265.15 1641.03 1264.72 1640.24 1263.85 1639.63C1263.02 1639.02 1261.83 1638.58 1260.26 1638.29L1257.25 1637.71C1255.14 1637.33 1253.42 1636.55 1252.08 1635.37C1250.74 1634.19 1250.06 1632.58 1250.06 1630.53C1250.06 1629.06 1250.5 1627.79 1251.36 1626.7C1252.22 1625.58 1253.37 1624.72 1254.8 1624.12C1256.27 1623.48 1257.89 1623.16 1259.64 1623.16C1262.26 1623.16 1264.44 1623.72 1266.2 1624.83C1267.96 1625.95 1269.04 1627.69 1269.46 1630.05L1264.81 1630.77C1264.49 1629.56 1263.87 1628.71 1262.94 1628.23C1262.05 1627.72 1260.98 1627.47 1259.74 1627.47C1258.4 1627.47 1257.29 1627.74 1256.43 1628.28C1255.57 1628.82 1255.14 1629.53 1255.14 1630.39C1255.14 1631.22 1255.46 1631.91 1256.1 1632.45C1256.77 1632.96 1257.85 1633.37 1259.35 1633.69L1262.85 1634.41C1265.21 1634.89 1267.03 1635.72 1268.31 1636.9C1269.62 1638.08 1270.27 1639.74 1270.27 1641.88C1270.27 1643.51 1269.81 1644.93 1268.88 1646.14C1267.99 1647.32 1266.77 1648.25 1265.24 1648.92C1263.71 1649.56 1261.99 1649.88 1260.07 1649.88Z" fill="#202124"/>
</g>
<defs>
<clipPath id="clip0_107_1268">
<rect width="2160" height="1942" fill="white"/>
</clipPath>
</defs>
</svg>
