<svg width="830" height="501" viewBox="0 0 830 501" fill="none" xmlns="http://www.w3.org/2000/svg">
<g clip-path="url(#clip0)">
<rect width="830" height="500" transform="translate(0 0.983398)" fill="#F7F7F7"/>
<circle cx="120.981" cy="284.927" r="12.4542" fill="#3A7AF2"/>
<circle cx="283.129" cy="284.927" r="12.4542" fill="#E73B2E"/>
<circle cx="382.272" cy="284.927" r="12.4542" fill="#FBB405"/>
<circle cx="576.662" cy="284.927" r="12.4542" fill="#2D9E49"/>
<circle cx="183.985" cy="251.228" r="12.4542" fill="#3A7AF2"/>
<circle cx="183.985" cy="217.04" r="12.4542" fill="#3A7AF2"/>
<circle cx="218.662" cy="217.04" r="12.4542" fill="#3A7AF2"/>
<circle cx="283.129" cy="217.04" r="12.4542" fill="#E73B2E"/>
<circle cx="382.272" cy="217.04" r="12.4542" fill="#FBB405"/>
<circle cx="478.004" cy="217.04" r="12.4542" fill="#3A7AF2"/>
<circle cx="512.681" cy="217.04" r="12.4542" fill="#3A7AF2"/>
<circle cx="576.662" cy="217.04" r="12.4542" fill="#2D9E49"/>
<circle cx="676.291" cy="217.04" r="12.4542" fill="#E84236"/>
<circle cx="218.662" cy="251.228" r="12.4542" fill="#3A7AF2"/>
<circle cx="316.342" cy="251.228" r="12.4542" fill="#E73B2E"/>
<circle cx="414.023" cy="251.228" r="12.4542" fill="#FBB405"/>
<circle cx="478.004" cy="251.228" r="12.4542" fill="#3A7AF2"/>
<circle cx="512.681" cy="251.228" r="12.4542" fill="#3A7AF2"/>
<circle cx="576.662" cy="251.228" r="12.4542" fill="#2D9E49"/>
<circle cx="709.019" cy="251.228" r="12.4542" fill="#E84236"/>
</g>
<defs>
<clipPath id="clip0">
<rect width="830" height="500" fill="white" transform="translate(0 0.983398)"/>
</clipPath>
</defs>
</svg>
