<svg width="496" height="394" viewBox="0 0 496 394" fill="none" xmlns="http://www.w3.org/2000/svg">
<mask id="path-1-inside-1_925_367" fill="white">
<path fill-rule="evenodd" clip-rule="evenodd" d="M57.95 134.546C57.949 134.756 57.9485 134.966 57.9485 135.176V393.293H326.683V393.062C397.207 388.965 453.133 330.476 453.133 258.924C453.133 187.239 396.997 128.665 326.286 124.764C320.971 55.4207 263.021 0.808807 192.316 0.808807C121.681 0.808807 63.7756 55.312 58.362 124.557H57.95L57.95 134.546Z"/>
</mask>
<path fill-rule="evenodd" clip-rule="evenodd" d="M57.95 134.546C57.949 134.756 57.9485 134.966 57.9485 135.176V393.293H326.683V393.062C397.207 388.965 453.133 330.476 453.133 258.924C453.133 187.239 396.997 128.665 326.286 124.764C320.971 55.4207 263.021 0.808807 192.316 0.808807C121.681 0.808807 63.7756 55.312 58.362 124.557H57.95L57.95 134.546Z" fill="#FF3535"/>
<path d="M57.95 134.546L67.9499 134.592L67.95 134.569L67.95 134.546L57.95 134.546ZM57.9485 393.293H47.9485V403.293H57.9485V393.293ZM326.683 393.293V403.293H336.683V393.293H326.683ZM326.683 393.062L326.103 383.079L316.683 383.627V393.062H326.683ZM326.286 124.764L316.315 125.528L316.985 134.266L325.735 134.749L326.286 124.764ZM58.362 124.557V134.557H67.6107L68.3316 125.337L58.362 124.557ZM57.95 124.557V114.557H47.95L47.95 124.557L57.95 124.557ZM67.9485 135.176C67.9485 134.981 67.949 134.786 67.9499 134.592L47.9501 134.5C47.949 134.725 47.9485 134.951 47.9485 135.176H67.9485ZM67.9485 393.293V135.176H47.9485V393.293H67.9485ZM326.683 383.293H57.9485V403.293H326.683V383.293ZM316.683 393.062V393.293H336.683V393.062H316.683ZM443.133 258.924C443.133 325.147 391.369 379.287 326.103 383.079L327.263 403.046C403.045 398.642 463.133 335.804 463.133 258.924H443.133ZM325.735 134.749C391.175 138.359 443.133 192.577 443.133 258.924H463.133C463.133 181.901 402.819 118.971 326.836 114.779L325.735 134.749ZM192.316 10.8088C257.754 10.8088 311.397 61.3557 316.315 125.528L336.256 124C330.546 49.4856 268.288 -9.19119 192.316 -9.19119V10.8088ZM68.3316 125.337C73.3414 61.2551 126.942 10.8088 192.316 10.8088V-9.19119C116.419 -9.19119 54.2097 49.3689 48.3924 123.778L68.3316 125.337ZM57.95 134.557H58.362V114.557H57.95V134.557ZM67.95 134.546L67.95 124.557L47.95 124.557L47.95 134.546L67.95 134.546Z" fill="black" mask="url(#path-1-inside-1_925_367)"/>
<path d="M416.114 239.541C416.114 276.716 416.905 364.468 334.248 364.468" stroke="white" stroke-width="10.8862" stroke-linecap="round"/>
<path d="M71.7869 258.706L76.4531 255.764L73.0692 251.408L56.434 229.995C60.9715 227.189 66.5095 223.553 71.8834 219.623C79.2547 214.232 86.9048 207.87 90.9302 202.103C95.1885 196.003 94.8372 189.506 92.7651 184.165C90.7606 178.997 87.0829 174.616 83.9344 171.68C80.9565 168.902 76.8346 168.551 73.5493 169.886L51.3682 178.901L26.392 189.052L25.8517 189.271L25.3765 189.609C19.8685 193.527 12.8683 200.939 9.67192 210.759C6.36638 220.914 7.30797 233.163 17.0943 245.76C26.6887 258.11 37.7737 263.159 47.9406 264.098C57.8982 265.017 66.6137 261.966 71.7869 258.706Z" fill="#FFAA82" stroke="black" stroke-width="10"/>
<path d="M64.0504 293.286L69.4925 292.387L68.0649 287.059L61.0468 260.868C66.3178 260.043 72.8329 258.842 79.3111 257.306C88.1972 255.199 97.7168 252.306 103.665 248.555C109.958 244.586 112.156 238.462 112.32 232.735C112.479 227.194 110.79 221.729 109.028 217.801C107.362 214.085 103.7 212.162 100.154 212.117L76.2128 211.814L49.2549 211.473L48.6718 211.465L48.1026 211.592C41.5057 213.065 32.1772 217.178 25.4194 224.987C18.4309 233.062 14.5438 244.716 18.6725 260.124C22.7201 275.231 30.9759 284.186 39.981 288.999C48.8007 293.711 58.017 294.283 64.0504 293.286Z" fill="#FFAA82" stroke="black" stroke-width="10"/>
<path d="M71.6749 328.187L77.117 327.288L75.6894 321.96L68.6713 295.769C73.9423 294.944 80.4574 293.743 86.9357 292.207C95.8217 290.1 105.341 287.207 111.29 283.456C117.582 279.487 119.78 273.363 119.944 267.636C120.103 262.095 118.415 256.63 116.653 252.702C114.987 248.986 111.324 247.063 107.778 247.018L83.8373 246.715L56.8794 246.374L56.2963 246.367L55.7271 246.494C49.1302 247.966 39.8017 252.079 33.0439 259.888C26.0554 267.964 22.1683 279.617 26.297 295.026C30.3446 310.132 38.6004 319.088 47.6055 323.9C56.4252 328.613 65.6415 329.184 71.6749 328.187Z" fill="#FFAA82" stroke="black" stroke-width="10"/>
<path d="M81.7883 246.766L77.6627 246.714L76.8284 250.755C76.3665 252.991 76.1465 256.412 76.8613 259.948C77.5811 263.51 79.366 267.692 83.3753 270.571C87.3182 273.402 92.2318 273.983 96.1025 273.902C100.088 273.82 103.836 273.017 106.193 272.26L107.011 271.998L107.695 271.477C111.172 268.828 114.488 262.413 112.802 253.367C112.073 249.454 108.634 247.106 105.19 247.062L81.7883 246.766Z" stroke="black" stroke-width="10"/>
<path d="M74.5964 212.862L70.4708 212.809L69.6365 216.85C69.1746 219.087 68.9546 222.507 69.6694 226.044C70.3892 229.605 72.1741 233.787 76.1834 236.666C80.1263 239.498 85.0399 240.078 88.9106 239.998C92.8957 239.915 96.644 239.112 99.0013 238.356L99.8194 238.093L100.503 237.573C103.98 234.924 107.296 228.509 105.61 219.462C104.881 215.55 101.443 213.201 97.9979 213.158L74.5964 212.862Z" stroke="black" stroke-width="10"/>
<path d="M51.7844 179.759L47.5867 181.322L48.6802 185.665C49.2377 187.881 50.528 191.056 52.7107 193.929C54.9085 196.822 58.3356 199.811 63.1982 200.658C67.9803 201.491 72.6569 199.876 76.1068 198.119C79.6588 196.31 82.6842 193.956 84.4774 192.249L85.0997 191.657L85.4885 190.891C86.691 188.522 86.9363 185.719 85.896 182.567C84.9328 179.65 82.8888 176.468 79.6684 172.808L77.3952 170.224L74.1702 171.425L51.7844 179.759Z" stroke="black" stroke-width="10"/>
<path d="M61.2587 364.533L65.4436 363.841L65.4436 359.6L65.4436 332.862C70.8517 331.919 77.5398 330.382 84.1256 328.468C92.5374 326.022 101.328 322.808 107.124 319.152C113.417 315.183 115.615 309.06 115.779 303.332C115.938 297.792 114.249 292.327 112.488 288.398C110.821 284.683 107.159 282.759 103.613 282.714L79.6719 282.411L52.714 282.07L52.1309 282.063L51.5617 282.19C44.9648 283.662 35.6363 287.776 28.8785 295.585C21.89 303.66 18.0029 315.314 22.1316 330.722C26.0467 345.334 32.4092 354.461 39.8152 359.615C47.2307 364.775 55.1169 365.548 61.2587 364.533Z" fill="#FFAA82" stroke="black" stroke-width="10"/>
<path d="M78.4191 282.64L74.2935 282.588L73.4591 286.629C73.0002 288.851 72.7818 292.248 73.4917 295.76C74.2066 299.297 75.98 303.454 79.9662 306.317C83.886 309.131 88.7682 309.707 92.6088 309.627C96.564 309.545 100.284 308.749 102.624 307.997L103.442 307.735L104.126 307.214C107.925 304.321 111.484 296.986 108.6 286.621L107.595 283.009L103.846 282.962L78.4191 282.64Z" stroke="black" stroke-width="10"/>
<path d="M423.727 258.705L419.061 255.764L422.444 251.408L439.08 229.995C434.542 227.189 429.004 223.553 423.63 219.623C416.259 214.231 408.609 207.87 404.583 202.103C400.325 196.003 400.676 189.506 402.749 184.164C404.753 178.997 408.431 174.616 411.579 171.679C414.557 168.902 418.679 168.551 421.964 169.886L444.146 178.901L469.122 189.052L469.662 189.271L470.137 189.609C475.645 193.527 482.645 200.939 485.842 210.759C489.147 220.914 488.206 233.162 478.419 245.76C468.825 258.11 457.74 263.159 447.573 264.098C437.615 265.017 428.9 261.966 423.727 258.705Z" fill="#FFAA82" stroke="black" stroke-width="10"/>
<path d="M431.469 293.277L426.027 292.378L427.454 287.05L434.472 260.858C429.201 260.033 422.686 258.832 416.208 257.296C407.322 255.19 397.802 252.297 391.854 248.545C385.561 244.576 383.363 238.453 383.199 232.725C383.04 227.185 384.729 221.72 386.491 217.791C388.157 214.076 391.819 212.152 395.365 212.107L419.306 211.804L446.264 211.463L446.847 211.456L447.416 211.583C454.013 213.055 463.342 217.168 470.1 224.977C477.088 233.053 480.975 244.706 476.847 260.115C472.799 275.221 464.543 284.177 455.538 288.989C446.718 293.702 437.502 294.274 431.469 293.277Z" fill="#FFAA82" stroke="black" stroke-width="10"/>
<path d="M423.842 328.184L418.4 327.285L419.828 321.957L426.846 295.765C421.575 294.94 415.06 293.74 408.581 292.204C399.695 290.097 390.176 287.204 384.227 283.452C377.935 279.483 375.737 273.36 375.573 267.632C375.414 262.092 377.103 256.627 378.864 252.698C380.53 248.983 384.193 247.059 387.739 247.014L411.68 246.711L438.638 246.37L439.221 246.363L439.79 246.49C446.387 247.962 455.715 252.076 462.473 259.885C469.462 267.96 473.349 279.614 469.22 295.022C465.172 310.128 456.917 319.084 447.912 323.896C439.092 328.609 429.876 329.181 423.842 328.184Z" fill="#FFAA82" stroke="black" stroke-width="10"/>
<path d="M406.87 361.705L397.675 360.186L404.025 353.365L409.49 347.496L409.543 347.439L409.598 347.384L415.029 341.903L419.387 336.779L424.453 329.813L425.486 328.206C421.174 327.733 416.242 327.162 411.469 326.385C403.375 325.07 394.501 323.006 388.389 319.151C382.097 315.182 379.899 309.059 379.734 303.331C379.576 297.791 381.264 292.326 383.026 288.397C384.692 284.682 388.355 282.758 391.901 282.713L415.842 282.41L442.8 282.069L443.383 282.062L443.952 282.189C450.549 283.661 459.877 287.775 466.635 295.584C473.624 303.659 477.511 315.313 473.382 330.721C468.976 347.166 454.05 355.175 440.479 358.917C426.795 362.69 412.698 362.668 406.87 361.705Z" fill="#FFAA82" stroke="black" stroke-width="10"/>
<path d="M417.223 282.579L421.348 282.505L422.204 286.541C422.674 288.761 422.911 292.156 422.219 295.672C421.523 299.213 419.771 303.38 415.8 306.263C411.895 309.098 407.016 309.7 403.175 309.64C399.22 309.579 395.496 308.802 393.152 308.063L392.332 307.805L391.646 307.288C387.831 304.414 384.234 297.098 387.063 286.719L388.049 283.101L391.797 283.034L417.223 282.579Z" stroke="black" stroke-width="10"/>
<path d="M412.924 246.85L417.05 246.798L417.884 250.839C418.343 253.061 418.561 256.457 417.852 259.97C417.137 263.507 415.363 267.664 411.377 270.527C407.457 273.341 402.575 273.917 398.734 273.837C394.779 273.755 391.059 272.958 388.719 272.207L387.901 271.945L387.218 271.424C383.418 268.53 379.86 261.195 382.743 250.831L383.748 247.219L387.497 247.172L412.924 246.85Z" stroke="black" stroke-width="10"/>
<path d="M421.61 213.087L425.683 213.087L426.507 217.076C427.385 221.33 427.217 230.035 419.678 235.449C415.758 238.263 410.876 238.839 407.036 238.759C403.08 238.677 399.36 237.88 397.02 237.129L396.202 236.867L395.519 236.346C393.195 234.577 391.912 231.782 391.504 228.593C391.096 225.414 391.492 221.5 392.814 216.747L393.832 213.087L397.631 213.087L421.61 213.087Z" stroke="black" stroke-width="10"/>
<path d="M444.005 179.66L448.103 181.181L447.144 185.445C446.646 187.659 445.445 190.844 443.351 193.751C441.242 196.679 437.912 199.736 433.101 200.701C428.369 201.65 423.684 200.162 420.217 198.507C416.648 196.802 413.587 194.542 411.764 192.894L411.127 192.317L410.719 191.561C408.913 188.217 410.092 184.802 411.324 182.44C412.631 179.933 414.844 176.984 417.774 173.479L420.038 170.769L423.349 171.997L444.005 179.66Z" stroke="black" stroke-width="10"/>
<path d="M123.77 53.7017C150.847 31.4702 219.878 3.93734 279.39 71.6579" stroke="white" stroke-width="10.8862" stroke-linecap="round"/>
<path d="M91.4224 364.469H160.584" stroke="white" stroke-width="10.8862" stroke-linecap="round"/>
</svg>
