<svg id="clippingPathShape" width="100%" height="100%" viewBox="0 0 409 506" fill="none" xmlns="http://www.w3.org/2000/svg">
<path fill-rule="evenodd" clip-rule="evenodd" d="M366.127 100.658C392.541 90.11 408.242 76.9082 408.242 62.582C408.242 28.0189 316.854 0 204.121 0C91.388 0 0 28.0189 0 62.582C0 76.9082 15.7008 90.11 42.1144 100.658C15.7008 111.206 0 124.408 0 138.734C0 153.061 15.7009 166.262 42.1147 176.811C15.7009 187.359 0 200.561 0 214.887C0 229.213 15.7008 242.415 42.1144 252.963C15.7008 263.511 0 276.713 0 291.039C0 305.365 15.701 318.567 42.1151 329.116C15.701 339.664 0 352.866 0 367.192C0 381.518 15.7008 394.72 42.1144 405.268C15.7008 415.817 0 429.018 0 443.344C0 477.908 91.388 505.927 204.121 505.927C316.854 505.927 408.242 477.908 408.242 443.344C408.242 429.018 392.541 415.817 366.127 405.268C392.541 394.72 408.242 381.518 408.242 367.192C408.242 352.866 392.541 339.664 366.127 329.116C392.541 318.567 408.242 305.365 408.242 291.039C408.242 276.713 392.541 263.511 366.127 252.963C392.541 242.415 408.242 229.213 408.242 214.887C408.242 200.561 392.541 187.359 366.127 176.811C392.541 166.262 408.242 153.061 408.242 138.734C408.242 124.408 392.541 111.206 366.127 100.658Z" fill="#D9D9D9"/>
</svg>
