<svg width="439" height="605" viewBox="0 0 439 605" fill="none" xmlns="http://www.w3.org/2000/svg">
<rect width="438" height="605" transform="translate(0.641235)" fill="#222222"/>
<g clip-path="url(#clip0_9_399)">
<path fill-rule="evenodd" clip-rule="evenodd" d="M150.99 313.274V315.712H104.391L104.392 313.274H150.99ZM149.151 309.616V312.664H106.231V309.616H149.151ZM110.725 276.699L111.237 276.956L111.493 281.067L111.749 287.746V294.17L111.493 302.178L111.45 307.573L110.725 307.787H108.166L107.399 307.573L107.1 302.178L106.844 294.213V287.79L107.1 281.067L107.334 276.934L107.868 276.699H110.725ZM147.514 276.699L148.026 276.956L148.282 281.067L148.538 287.746V294.17L148.282 302.178L148.24 307.573L147.514 307.787H144.955L144.187 307.573L143.888 302.178L143.633 294.213V287.79L143.888 281.067L144.123 276.934L144.656 276.699H147.514ZM121.762 276.699L122.273 276.956L122.53 281.067L122.786 287.746V294.17L122.53 302.178L122.487 307.573L121.762 307.787H119.202L118.434 307.573L118.136 302.178L117.88 294.213V287.79L118.136 281.067L118.371 276.934L118.904 276.699H121.762ZM135.864 276.699L136.376 276.956L136.632 281.067L136.888 287.746V294.17L136.632 302.178L136.59 307.573L135.864 307.787H133.305L132.537 307.573L132.238 302.178L131.983 294.213V287.79L132.238 281.067L132.473 276.934L133.007 276.699H135.864ZM149.151 271.213V275.48H106.231V271.213H149.151ZM127.249 263.288L149.764 268.414L148.861 269.993H105.74L104.391 268.712L127.249 263.288Z" fill="white"/>
<mask id="mask0_9_399" style="mask-type:luminance" maskUnits="userSpaceOnUse" x="104" y="263" width="47" height="53">
<path fill-rule="evenodd" clip-rule="evenodd" d="M150.99 313.274V315.712H104.391L104.392 313.274H150.99ZM149.151 309.616V312.664H106.231V309.616H149.151ZM110.725 276.699L111.237 276.956L111.493 281.067L111.749 287.746V294.17L111.493 302.178L111.45 307.573L110.725 307.787H108.166L107.399 307.573L107.1 302.178L106.844 294.213V287.79L107.1 281.067L107.334 276.934L107.868 276.699H110.725ZM147.514 276.699L148.026 276.956L148.282 281.067L148.538 287.746V294.17L148.282 302.178L148.24 307.573L147.514 307.787H144.955L144.187 307.573L143.888 302.178L143.633 294.213V287.79L143.888 281.067L144.123 276.934L144.656 276.699H147.514ZM121.762 276.699L122.273 276.956L122.53 281.067L122.786 287.746V294.17L122.53 302.178L122.487 307.573L121.762 307.787H119.202L118.434 307.573L118.136 302.178L117.88 294.213V287.79L118.136 281.067L118.371 276.934L118.904 276.699H121.762ZM135.864 276.699L136.376 276.956L136.632 281.067L136.888 287.746V294.17L136.632 302.178L136.59 307.573L135.864 307.787H133.305L132.537 307.573L132.238 302.178L131.983 294.213V287.79L132.238 281.067L132.473 276.934L133.007 276.699H135.864ZM149.151 271.213V275.48H106.231V271.213H149.151ZM127.249 263.288L149.764 268.414L148.861 269.993H105.74L104.391 268.712L127.249 263.288Z" fill="white"/>
</mask>
<g mask="url(#mask0_9_399)">
<path fill-rule="evenodd" clip-rule="evenodd" d="M104.391 263.288H150.99V315.712H104.391V263.288Z" fill="white"/>
</g>
</g>
<g clip-path="url(#clip1_9_399)">
<path fill-rule="evenodd" clip-rule="evenodd" d="M174.424 297.545C174.585 296.988 174.883 295.842 174.883 295.612C174.883 294.302 173.883 294.27 172.802 294.074V293.354H177.882L184.474 315.384H181.665L179.638 308.576H172.748L170.722 315.384H169.048L174.424 297.545ZM173.207 307.037H179.178L176.098 297.478L173.207 307.037Z" fill="white"/>
<path fill-rule="evenodd" clip-rule="evenodd" d="M192.23 297.807C192.23 294.565 192.174 294.565 189.662 294.074V293.354H196.308C198.336 293.354 203.927 293.354 203.927 299.214C203.927 302.946 201.929 304.19 199.794 304.615L204.765 315.384H201.659L196.877 305.204H195.202V315.384H192.23V297.807ZM195.202 303.666H196.742C198.497 303.666 200.957 303.078 200.957 299.411C200.957 295.874 199.281 294.892 197.011 294.892C195.202 294.892 195.202 295.482 195.202 297.839V303.666Z" fill="white"/>
<path fill-rule="evenodd" clip-rule="evenodd" d="M223.112 314.467C222.194 314.96 220.707 315.712 217.925 315.712C212.062 315.712 209.954 311.424 209.954 304.059C209.954 298.102 211.466 293.256 217.492 293.256C219.897 293.256 221.653 293.746 222.895 294.238L223.058 299.706H222.274C222.166 298.035 220.68 294.827 217.762 294.827C213.791 294.827 213.142 299.966 213.142 304.059C213.142 309.23 214.629 313.879 218.383 313.879C220.951 313.879 222.274 312.897 223.112 312.21V314.467Z" fill="white"/>
<path fill-rule="evenodd" clip-rule="evenodd" d="M231.003 297.676C231.003 295.088 230.841 294.794 228.3 294.468V293.746L233.974 292.995V303.142H241.322V293.354H244.294V315.384H241.322V304.68H233.974V315.384H231.003V297.676Z" fill="white"/>
<path fill-rule="evenodd" clip-rule="evenodd" d="M249.483 314.567C251.401 314.567 251.779 314.076 251.779 311.523V297.446C251.779 294.892 251.401 294.403 249.483 294.403V293.583H257.048V294.403C255.156 294.403 254.752 294.892 254.752 297.446V311.523C254.752 314.076 255.156 314.567 257.048 314.567V315.384H249.483V314.567Z" fill="white"/>
<path fill-rule="evenodd" clip-rule="evenodd" d="M265.506 297.545C264.641 294.565 264.397 294.565 262.236 294.074V293.354H267.478L272.773 311.293H272.826L277.988 293.354H279.743L273.152 315.384H270.802L265.506 297.545Z" fill="white"/>
<path fill-rule="evenodd" clip-rule="evenodd" d="M287.498 297.807C287.498 294.565 287.417 294.565 284.931 294.074V293.354H297.873L297.954 298.199H297.197C297.197 295.58 296.063 294.892 294.279 294.892H292.172C290.822 294.892 290.471 295.023 290.471 296.595V303.109H293.74C295.602 303.109 295.792 301.67 295.955 300.59H296.711V307.463H295.955C295.955 305.695 295.36 304.647 293.74 304.647H290.471V311.947C290.471 313.78 290.822 313.846 292.172 313.846H295.172C296.711 313.846 297.44 313.191 297.602 310.638H298.36L298.277 315.384H287.498V297.807Z" fill="white"/>
<path fill-rule="evenodd" clip-rule="evenodd" d="M171.766 280.582V267.182C171.766 264.753 171.317 264.284 169.047 264.284V263.506H178.004V264.284C175.765 264.284 175.286 264.753 175.286 267.182V280.582C175.286 283.012 175.765 283.478 178.004 283.478V284.258H169.047V283.478C171.317 283.478 171.766 283.012 171.766 280.582Z" fill="white"/>
<path fill-rule="evenodd" clip-rule="evenodd" d="M186.387 267.276C186.387 264.378 185.94 264.503 183.189 263.974V263.288H189.939L200.016 280.239H200.079V263.288H202.095V284.258H199.023L188.468 266.53H188.403V284.258H186.387V267.276Z" fill="white"/>
<path fill-rule="evenodd" clip-rule="evenodd" d="M213.838 264.753H211.63C209.104 264.753 208.368 265.531 208.175 267.808H207.28L207.407 263.288H223.786L223.914 267.9H223.019C223.019 265.501 221.994 264.753 219.532 264.753H217.357V284.258H213.838V264.753Z" fill="white"/>
<path fill-rule="evenodd" clip-rule="evenodd" d="M232.14 267.526C232.14 264.441 232.042 264.441 229.099 263.974V263.288H244.422L244.518 267.9H243.622C243.622 265.407 242.279 264.753 240.169 264.753H237.673C236.073 264.753 235.657 264.878 235.657 266.374V272.574H239.528C241.735 272.574 241.958 271.202 242.151 270.173H243.048V276.718H242.151C242.151 275.036 241.448 274.039 239.528 274.039H235.657V280.987C235.657 282.732 236.073 282.793 237.673 282.793H241.223C243.048 282.793 243.91 282.17 244.101 279.74H244.999L244.902 284.258H232.14V267.526Z" fill="white"/>
<path fill-rule="evenodd" clip-rule="evenodd" d="M253.221 267.526C253.221 264.441 253.157 264.441 250.183 263.974V263.288H258.051C260.451 263.288 267.072 263.288 267.072 268.866C267.072 272.418 264.706 273.602 262.178 274.008L268.064 284.258H264.385L258.724 274.567H256.74V284.258H253.221V267.526ZM256.74 273.103H258.565C260.642 273.103 263.555 272.543 263.555 269.054C263.555 265.687 261.571 264.753 258.883 264.753C256.74 264.753 256.74 265.313 256.74 267.559V273.103Z" fill="white"/>
<path fill-rule="evenodd" clip-rule="evenodd" d="M276.448 267.276C276.448 264.378 276 264.503 273.249 263.974V263.288H279.998L290.074 280.239H290.139V263.288H292.154V284.258H289.084L278.527 266.53H278.463V284.258H276.448V267.276Z" fill="white"/>
<path fill-rule="evenodd" clip-rule="evenodd" d="M300.378 267.526C300.378 264.441 300.282 264.441 297.339 263.974V263.288H312.662L312.758 267.9H311.862C311.862 265.407 310.518 264.753 308.407 264.753H305.912C304.313 264.753 303.897 264.878 303.897 266.374V272.574H307.767C309.975 272.574 310.197 271.202 310.39 270.173H311.287V276.718H310.39C310.39 275.036 309.687 274.039 307.767 274.039H303.897V280.987C303.897 282.732 304.313 282.793 305.912 282.793H309.462C311.287 282.793 312.15 282.17 312.342 279.74H313.238L313.141 284.258H300.378V267.526Z" fill="white"/>
<path fill-rule="evenodd" clip-rule="evenodd" d="M324.98 264.753H322.774C320.246 264.753 319.511 265.531 319.318 267.808H318.423L318.551 263.288H334.928L335.056 267.9H334.161C334.161 265.501 333.138 264.753 330.674 264.753H328.499V284.258H324.98V264.753Z" fill="white"/>
</g>
<defs>
<clipPath id="clip0_9_399">
<rect width="47.1815" height="52.4239" fill="white" transform="translate(104.391 263.288)"/>
</clipPath>
<clipPath id="clip1_9_399">
<rect width="166.009" height="52.4239" fill="white" transform="translate(169.047 263.288)"/>
</clipPath>
</defs>
</svg>
