<svg width="3425" height="452" viewBox="0 0 3425 452" fill="none" xmlns="http://www.w3.org/2000/svg">
<path d="M3041.83 444.979V0.220459H3164.76L3362.43 393.091L3332.16 400.503V0.220459H3424.82V444.979H3301.89L3104.22 52.109L3134.49 44.6963V444.979H3041.83Z" fill="white"/>
<path d="M2570.93 444.979L2730.3 0.220459H2811.84L2665.44 444.979H2570.93ZM2897.08 444.979L2751.3 0.220459H2836.55L2995.92 444.979H2897.08ZM2654.94 272.635H2904.49V346.762H2654.94V272.635Z" fill="white"/>
<path d="M2035.02 444.979V0.220459H2183.27L2306.82 428.918H2253.08L2376.62 0.220459H2525.49V444.979H2431.6V26.7824H2447.66L2327.2 444.979H2228.98L2109.76 30.4888H2125.21V444.979H2035.02Z" fill="white"/>
<path d="M1670.66 444.979V0.220459H1765.79V444.979H1670.66ZM1715.14 272.635V199.744H1970.26V272.635H1715.14ZM1715.14 73.1114V0.220459H1984.46V73.1114H1715.14Z" fill="white"/>
<path d="M1306.3 444.979V0.220459H1401.43V444.979H1306.3ZM1350.78 272.635V199.744H1605.9V272.635H1350.78ZM1350.78 73.1114V0.220459H1620.1V73.1114H1350.78Z" fill="white"/>
<path d="M1058.48 451.156C995.057 451.156 947.493 433.86 915.783 399.268C884.485 364.264 868.836 313.405 868.836 246.691V0.220459H963.965V263.369C963.965 302.08 972.407 330.495 989.292 348.615C1006.18 366.735 1029.44 375.794 1059.09 375.794C1088.74 375.794 1112.01 366.735 1128.9 348.615C1145.78 330.495 1154.22 302.286 1154.22 263.987V0.220459H1249.35V247.926C1249.35 313.816 1233.5 364.264 1201.79 399.268C1170.08 433.86 1122.31 451.156 1058.48 451.156Z" fill="white"/>
<path d="M430.622 444.979L589.993 0.220459H671.533L525.133 444.979H430.622ZM756.778 444.979L610.996 0.220459H696.241L855.613 444.979H756.778ZM514.632 272.635H764.191V346.762H514.632V272.635Z" fill="white"/>
<path d="M0.885986 444.979V0.220459H96.0149V444.979H0.885986ZM65.7466 213.952L265.888 0.220459H392.521L181.26 213.952H65.7466ZM275.772 444.979L64.5112 213.952H181.26L404.875 444.979H275.772Z" fill="white"/>
</svg>
