<svg width="248" height="285" viewBox="0 0 248 285" fill="none" xmlns="http://www.w3.org/2000/svg">
<path class="logoColor" fill-rule="evenodd" clip-rule="evenodd" d="M176.604 230.796C177.506 233.47 178.135 236.591 179.391 242.833L182.411 257.829C185.545 273.39 198.993 284.562 214.591 284.562C237.591 284.562 253.471 261.111 245.296 239.217L167.539 30.9544C166.604 28.4501 166.136 27.198 165.647 26.08C159.064 11.0257 144.766 0.984731 128.61 0.0680733C127.41 -2.11563e-07 126.095 0 123.464 0C120.826 0 119.507 -4.88222e-08 118.305 0.0683715C102.111 0.989128 87.7897 11.0752 81.2282 26.1809C80.7413 27.3024 80.2755 28.559 79.3449 31.0721L2.13364 239.52C-5.93164 261.294 9.86811 284.562 32.719 284.562C48.2759 284.562 61.6776 273.396 64.7602 257.867L67.7445 242.833C68.9606 236.707 69.5684 233.645 70.4381 231.019C75.7269 215.052 89.5114 203.568 105.927 201.452C108.626 201.104 111.695 201.104 117.831 201.104H129.161C135.417 201.104 138.545 201.104 141.299 201.466C157.587 203.609 171.272 214.977 176.604 230.796ZM123.839 179.638C141.367 179.638 155.575 165.167 155.575 147.317C155.575 129.466 141.367 114.996 123.839 114.996C106.311 114.996 92.1023 129.466 92.1023 147.317C92.1023 165.167 106.311 179.638 123.839 179.638Z" fill="white"/>
</svg>
