<svg width="138" height="200" viewBox="0 0 138 200" fill="none" xmlns="http://www.w3.org/2000/svg">
<g clip-path="url(#clip0_1127_90)">
<path fill-rule="evenodd" clip-rule="evenodd" d="M61.5776 196C86.7796 196 107.21 175.57 107.21 150.368C107.21 149.538 107.188 148.713 107.144 147.894C107.06 146.326 108.087 144.887 109.623 144.563L112.985 143.853C112.992 143.852 112.997 143.843 112.994 143.836C112.992 143.829 112.996 143.821 113.003 143.819C117.074 142.659 120.054 138.913 120.054 134.471C120.054 129.103 115.703 124.752 110.336 124.752C109.036 124.752 107.796 125.008 106.663 125.471C106.652 125.475 106.639 125.469 106.635 125.458C106.631 125.446 106.618 125.44 106.606 125.446L103.739 126.804C102.381 127.447 100.765 126.926 99.9512 125.664C91.8281 113.072 77.6764 104.735 61.5776 104.735C36.3755 104.735 15.9452 125.165 15.9452 150.368C15.9452 175.57 36.3755 196 61.5776 196Z" fill="black"/>
<path d="M103.739 126.804L102.452 124.087L103.739 126.804ZM113.003 143.819L112.18 140.927L113.003 143.819ZM106.606 125.446L105.32 122.729L106.606 125.446ZM112.985 143.853L113.605 146.795L112.985 143.853ZM106.663 125.471L107.8 128.253L106.663 125.471ZM109.623 144.563L109.002 141.621L109.623 144.563ZM104.204 150.368C104.204 173.909 85.1194 192.994 61.5776 192.994V199.006C88.4399 199.006 110.216 177.23 110.216 150.368H104.204ZM104.142 148.054C104.183 148.82 104.204 149.591 104.204 150.368H110.216C110.216 149.484 110.193 148.606 110.146 147.734L104.142 148.054ZM110.244 147.504L113.605 146.795L112.364 140.912L109.002 141.621L110.244 147.504ZM113.827 146.71C119.155 145.192 123.061 140.292 123.061 134.471H117.048C117.048 137.535 114.993 140.126 112.18 140.927L113.827 146.71ZM123.061 134.471C123.061 127.443 117.364 121.746 110.336 121.746V127.759C114.043 127.759 117.048 130.764 117.048 134.471H123.061ZM110.336 121.746C108.64 121.746 107.014 122.08 105.526 122.688L107.8 128.253C108.578 127.935 109.433 127.759 110.336 127.759V121.746ZM105.32 122.729L102.452 124.087L105.025 129.521L107.893 128.163L105.32 122.729ZM61.5776 107.741C76.6127 107.741 89.8322 115.523 97.425 127.293L102.477 124.034C93.8241 110.62 78.7401 101.729 61.5776 101.729V107.741ZM18.9513 150.368C18.9513 126.826 38.0358 107.741 61.5776 107.741V101.729C34.7152 101.729 12.939 123.505 12.939 150.368H18.9513ZM61.5776 192.994C38.0358 192.994 18.9513 173.909 18.9513 150.368H12.939C12.939 177.23 34.7152 199.006 61.5776 199.006V192.994ZM102.452 124.087C102.458 124.084 102.466 124.081 102.477 124.078C102.486 124.076 102.496 124.074 102.504 124.074C102.52 124.073 102.527 124.075 102.524 124.075C102.522 124.074 102.514 124.071 102.504 124.063C102.495 124.057 102.486 124.047 102.477 124.034L97.425 127.293C98.9976 129.731 102.207 130.855 105.025 129.521L102.452 124.087ZM115.835 142.853C116.402 144.489 115.467 146.243 113.827 146.71L112.18 140.927C110.525 141.399 109.582 143.168 110.154 144.819L115.835 142.853ZM109.476 124.475C108.887 122.772 106.949 121.958 105.32 122.729L107.893 128.163C106.287 128.923 104.375 128.121 103.794 126.441L109.476 124.475ZM113.605 146.795C115.383 146.419 116.43 144.57 115.835 142.853L110.154 144.819C109.565 143.117 110.602 141.284 112.364 140.912L113.605 146.795ZM105.526 122.688C107.109 122.041 108.915 122.854 109.476 124.475L103.794 126.441C104.363 128.085 106.195 128.909 107.8 128.253L105.526 122.688ZM110.146 147.734C110.142 147.653 110.167 147.585 110.199 147.542C110.213 147.522 110.225 147.513 110.231 147.509C110.234 147.507 110.237 147.506 110.244 147.504L109.002 141.621C105.909 142.274 103.985 145.119 104.142 148.054L110.146 147.734Z" fill="white"/>
<mask id="path-3-inside-1_1127_90" fill="white">
<path fill-rule="evenodd" clip-rule="evenodd" d="M134.927 59.455C134.927 90.6342 109.652 115.91 78.4725 115.91C77.6002 115.91 76.7325 115.89 75.8699 115.851C51.9795 122.833 31.0239 137.492 16.2676 157.595L15.5892 158.519C11.3215 156.055 10.0114 153.655 8.15225 150.25C7.53929 149.127 6.86667 147.895 6.00869 146.515C2.54844 140.95 0.513928 134.618 0.0853639 128.08C-0.3432 121.541 0.847413 114.998 3.55174 109.029C4.78649 106.304 6.31939 103.737 8.11558 101.372C6.27532 98.2963 5.19188 94.8249 4.9572 91.2443C4.71404 87.5344 5.38958 83.8217 6.92399 80.4352C8.4584 77.0487 10.8043 74.0928 13.7539 71.8295C16.3745 69.8187 19.3998 68.4096 22.6147 67.6955C22.2213 65.0056 22.0176 62.2541 22.0176 59.455C22.0176 28.2757 47.2933 3 78.4725 3C109.652 3 134.927 28.2757 134.927 59.455Z"/>
</mask>
<path fill-rule="evenodd" clip-rule="evenodd" d="M134.927 59.455C134.927 90.6342 109.652 115.91 78.4725 115.91C77.6002 115.91 76.7325 115.89 75.8699 115.851C51.9795 122.833 31.0239 137.492 16.2676 157.595L15.5892 158.519C11.3215 156.055 10.0114 153.655 8.15225 150.25C7.53929 149.127 6.86667 147.895 6.00869 146.515C2.54844 140.95 0.513928 134.618 0.0853639 128.08C-0.3432 121.541 0.847413 114.998 3.55174 109.029C4.78649 106.304 6.31939 103.737 8.11558 101.372C6.27532 98.2963 5.19188 94.8249 4.9572 91.2443C4.71404 87.5344 5.38958 83.8217 6.92399 80.4352C8.4584 77.0487 10.8043 74.0928 13.7539 71.8295C16.3745 69.8187 19.3998 68.4096 22.6147 67.6955C22.2213 65.0056 22.0176 62.2541 22.0176 59.455C22.0176 28.2757 47.2933 3 78.4725 3C109.652 3 134.927 28.2757 134.927 59.455Z" fill="black"/>
<path d="M75.8699 115.851L76.1425 109.845L75.1433 109.8L74.1833 110.08L75.8699 115.851ZM16.2676 157.595L21.1143 161.152L21.1143 161.152L16.2676 157.595ZM15.5892 158.519L12.5831 163.726L17.2483 166.419L20.4359 162.077L15.5892 158.519ZM8.15225 150.25L2.87511 153.13L2.87512 153.131L8.15225 150.25ZM6.00869 146.515L0.903032 149.69H0.903034L6.00869 146.515ZM0.0853639 128.08L-5.91407 128.473L0.0853639 128.08ZM3.55174 109.029L-1.92465 106.548H-1.92465L3.55174 109.029ZM8.11558 101.372L12.9033 105.009L15.3613 101.773L13.2751 98.2857L8.11558 101.372ZM4.9572 91.2443L10.9566 90.8511L4.9572 91.2443ZM6.92399 80.4352L12.4004 82.9165L12.4004 82.9165L6.92399 80.4352ZM13.7539 71.8295L10.0939 67.0596L10.0939 67.0596L13.7539 71.8295ZM22.6147 67.6955L23.9183 73.5648L29.3722 72.3534L28.5637 66.8255L22.6147 67.6955ZM78.4725 121.922C112.972 121.922 140.94 93.9547 140.94 59.455H128.915C128.915 87.3137 106.331 109.898 78.4725 109.898V121.922ZM75.5973 121.857C76.5508 121.9 77.5093 121.922 78.4725 121.922V109.898C77.6911 109.898 76.9143 109.88 76.1425 109.845L75.5973 121.857ZM21.1143 161.152C35.0882 142.115 54.9329 128.234 77.5565 121.622L74.1833 110.08C49.0262 117.433 26.9595 132.868 11.4209 154.037L21.1143 161.152ZM20.4359 162.077L21.1143 161.152L11.4209 154.037L10.7425 154.961L20.4359 162.077ZM2.87512 153.131C3.75569 154.743 4.80625 156.705 6.31805 158.549C7.92417 160.508 9.89931 162.176 12.5831 163.726L18.5954 153.312C17.0114 152.398 16.1976 151.634 15.617 150.925C14.942 150.102 14.4079 149.161 13.4294 147.369L2.87512 153.131ZM0.903034 149.69C1.66054 150.908 2.25953 152.003 2.87511 153.13L13.4294 147.369C12.8191 146.251 12.0728 144.881 11.1144 143.34L0.903034 149.69ZM-5.91407 128.473C-5.42084 135.998 -3.07933 143.286 0.903032 149.69L11.1144 143.34C8.17622 138.615 6.44869 133.239 6.08479 127.687L-5.91407 128.473ZM-1.92465 106.548C-5.03703 113.417 -6.4073 120.948 -5.91407 128.473L6.08479 127.687C5.7209 122.135 6.73186 116.578 9.02813 111.51L-1.92465 106.548ZM3.32784 97.7357C1.26062 100.457 -0.503599 103.412 -1.92465 106.548L9.02813 111.51C10.0766 109.197 11.3782 107.017 12.9033 105.009L3.32784 97.7357ZM13.2751 98.2857C11.9242 96.0277 11.1289 93.4795 10.9566 90.8511L-1.04223 91.6376C-0.745138 96.1703 0.626422 100.565 2.95609 104.459L13.2751 98.2857ZM10.9566 90.8511C10.7781 88.1278 11.274 85.4024 12.4004 82.9165L1.4476 77.9539C-0.494867 82.241 -1.35006 86.941 -1.04223 91.6376L10.9566 90.8511ZM12.4004 82.9165C13.5267 80.4306 15.2488 78.2608 17.414 76.5994L10.0939 67.0596C6.35985 69.9249 3.39007 73.6668 1.4476 77.9539L12.4004 82.9165ZM17.414 76.5994C19.3377 75.1233 21.5584 74.0889 23.9183 73.5648L21.311 61.8262C17.2412 62.7302 13.4114 64.514 10.0939 67.0596L17.414 76.5994ZM16.0053 59.455C16.0053 62.5461 16.2303 65.5884 16.6657 68.5656L28.5637 66.8255C28.2123 64.4227 28.0299 61.962 28.0299 59.455H16.0053ZM78.4725 -3.0123C43.9728 -3.0123 16.0053 24.9552 16.0053 59.455H28.0299C28.0299 31.5962 50.6138 9.0123 78.4725 9.0123V-3.0123ZM140.94 59.455C140.94 24.9552 112.972 -3.0123 78.4725 -3.0123V9.0123C106.331 9.0123 128.915 31.5962 128.915 59.455H140.94Z" fill="white" mask="url(#path-3-inside-1_1127_90)"/>
<circle cx="80.3712" cy="130.525" r="6.91197" fill="white"/>
<circle cx="131.58" cy="127.862" r="6.91197" fill="white"/>
</g>
<defs>
<clipPath id="clip0_1127_90">
<rect width="138" height="200" fill="white"/>
</clipPath>
</defs>
</svg>
