<svg width="2724" height="896" viewBox="0 0 2724 896" fill="none" xmlns="http://www.w3.org/2000/svg">
<g clip-path="url(#clip0_919_201)">
<rect width="863.243" height="896" transform="translate(1860)" fill="#E2DEDA"/>
<ellipse cx="2640" cy="447.942" rx="28.4215" ry="182.09" fill="#5D5D5D"/>
<rect width="35.6473" height="364.181" transform="matrix(-1 0 0 1 2640.48 265.852)" fill="#5E5E5E"/>
<ellipse cx="2604.35" cy="447.942" rx="28.4215" ry="182.09" fill="#2E2E2E"/>
<rect x="2475.73" y="324.621" width="121.394" height="246.641" fill="#C4C4C4"/>
<ellipse cx="2478.14" cy="447.942" rx="15.8968" ry="123.32" fill="white"/>
<ellipse cx="2597.61" cy="447.942" rx="15.8968" ry="123.32" fill="#C4C4C4"/>
<path d="M2597.13 571.262C2606.17 571.262 2613.5 515.834 2613.5 447.46C2613.5 379.086 2606.17 323.658 2597.12 323.658" stroke="black" stroke-width="2.89032"/>
<path d="M1550.53 325.578C1353.11 356.69 1131 356.102 1060.07 367.822L897.2 513.994C897.2 513.994 842.767 700.604 927.271 713.428C1052.06 732.366 1412.08 707.011 1635.12 696.777C1764.93 690.821 1938.93 678.501 2063.01 669.136C2163.9 661.521 2259.17 620.525 2334.65 553.15C2448.75 451.295 2371.88 263.457 2219.2 272.554C2172.87 275.314 2127.89 278.16 2087 281C1877.28 295.566 1753.93 293.522 1550.53 325.578Z" fill="#E9B49E"/>
</g>
<g clip-path="url(#clip1_919_201)">
<rect width="896" height="930" transform="translate(930) rotate(90)" fill="#E2DEDA"/>
<path d="M243.582 647.679C168.765 698.475 56.563 676.101 9.81402 658.564L-2.85877 638.185C-79.446 515.028 -64.2923 355.876 34.1611 249.384L268.268 205.568L289.568 299.292L342.853 437.376L243.582 647.679Z" fill="#E9B49E" stroke="#E2DEDA" stroke-width="23.0751"/>
<path d="M437.756 568.802C418.552 484.301 351.899 470.975 320.974 474.874L342.95 571.574C309.207 574.549 233.7 585.138 201.62 603.693C173.515 619.949 179.517 655.593 188.287 677.348C190.403 682.596 195.556 685.827 201.208 686.116L273.603 689.81L355.121 693.969C390.667 687.455 456.959 653.302 437.756 568.802Z" fill="#E9B49E" stroke="#E2DEDA" stroke-width="23.0751"/>
<path d="M280.242 388.062C249.13 408.602 171.656 439.258 110.656 397.557" stroke="#E9B49E" stroke-width="23.0751"/>
<path d="M476.964 478.275C457.76 393.774 391.107 380.448 360.182 384.347L382.158 481.047C348.415 484.022 272.908 494.611 240.828 513.166C212.723 529.422 218.725 565.066 227.495 586.821C229.611 592.069 234.764 595.3 240.416 595.589L312.811 599.283L394.329 603.442C429.875 596.928 496.167 562.775 476.964 478.275Z" fill="#E9B49E" stroke="#E2DEDA" stroke-width="23.0751"/>
<path d="M511.927 401.023C492.723 316.522 426.071 303.196 395.145 307.095L417.121 403.795C383.378 406.77 307.872 417.359 275.792 435.914C247.686 452.17 253.688 487.815 262.458 509.569C264.574 514.818 269.728 518.049 275.379 518.337L347.774 522.031L429.292 526.19C464.839 519.676 531.131 485.523 511.927 401.023Z" fill="#E9B49E" stroke="#E2DEDA" stroke-width="23.0751"/>
<path d="M335.734 465.849C350.294 477.175 351.05 501.82 348.749 511.143L275.357 507.158C269.391 482.018 278.365 464.995 283.959 461.064C295.15 457.94 321.173 454.523 335.734 465.849Z" fill="black"/>
<path d="M536.661 241.842C450.608 252.042 354.382 248.096 323.456 251.996L307.637 321.414C307.637 321.414 287.152 393.625 323.552 400.586C377.304 410.864 474.178 416.392 570.982 415.664C628.058 415.235 703.577 408.778 756.526 403.48C798.361 399.295 837.726 382.292 870.142 355.516C924.536 310.587 894.689 222.244 824.191 219.51L783.902 217.947C771.962 217.484 760.023 217.846 748.135 219.054C707.485 223.184 606.12 233.609 536.661 241.842Z" fill="#E9B49E" stroke="#E2DEDA" stroke-width="23.0751"/>
<path d="M275.207 199.67L134.654 231.613L277.701 317.557C270.889 333.616 252.761 401.108 267.498 455.265C282.236 509.421 338.035 487.25 363.882 473.277C368.695 470.292 380.698 459.393 386.129 451.391C396.552 436.035 407.36 402.48 406.917 366.297C406.725 350.663 404.712 332.941 400.182 313.007C379.704 222.898 308.333 199.904 275.207 199.67Z" fill="#E9B49E" stroke="#E2DEDA" stroke-width="23.0751"/>
<path d="M88.7868 251.101L187.647 231.569L301.078 309.786L252.658 326.771L88.7868 251.101Z" fill="#E9B49E"/>
<path d="M260.386 632.985C274.947 644.311 275.702 668.956 273.401 678.279L200.009 674.294C194.043 649.154 203.018 632.131 208.611 628.2C219.803 625.076 245.826 621.659 260.386 632.985Z" fill="black"/>
<path d="M299.988 542.812C314.548 554.138 315.303 578.783 313.003 588.106L239.611 584.121C233.644 558.981 242.619 541.958 248.213 538.028C259.404 534.903 285.427 531.487 299.988 542.812Z" fill="black"/>
<path d="M324.009 378.897C310.982 412.022 356.617 431.294 381.064 436.789C396.479 403.671 397.219 366.731 393.995 348.273C375.741 341.322 337.036 345.772 324.009 378.897Z" fill="black"/>
<rect x="-18.3467" y="259.665" width="83.8813" height="397.502" fill="#E9B49E"/>
</g>
<g clip-path="url(#clip2_919_201)">
<rect width="896" height="930" transform="translate(1860) rotate(90)" fill="#E2DEDA"/>
<g clip-path="url(#clip3_919_201)">
<path d="M1759.01 872.053C1742.68 883.145 1718.18 878.259 1707.97 874.43L1705.2 869.98C1688.48 843.087 1691.79 808.334 1713.28 785.08L1764.4 775.512L1769.06 795.978L1780.69 826.13L1759.01 872.053Z" fill="#E9B49E" stroke="#E2DEDA" stroke-width="5.03875"/>
<path d="M1801.42 854.829C1797.22 836.377 1782.67 833.467 1775.91 834.319L1780.71 855.434C1773.34 856.084 1756.86 858.396 1749.85 862.448C1743.71 865.998 1745.03 873.781 1746.94 878.532C1747.4 879.678 1748.53 880.383 1749.76 880.446L1765.57 881.253L1783.37 882.161C1791.13 880.739 1805.61 873.281 1801.42 854.829Z" fill="#E9B49E" stroke="#E2DEDA" stroke-width="5.03875"/>
<path d="M1767.02 815.362C1760.23 819.847 1743.31 826.541 1729.99 817.435" stroke="#E9B49E" stroke-width="5.03875"/>
<path d="M1809.98 835.061C1805.78 816.609 1791.23 813.699 1784.48 814.551L1789.27 835.666C1781.91 836.316 1765.42 838.628 1758.41 842.68C1752.28 846.23 1753.59 854.013 1755.5 858.764C1755.96 859.91 1757.09 860.615 1758.32 860.678L1774.13 861.485L1791.93 862.393C1799.69 860.971 1814.17 853.513 1809.98 835.061Z" fill="#E9B49E" stroke="#E2DEDA" stroke-width="5.03875"/>
<path d="M1817.61 818.192C1813.42 799.74 1798.86 796.83 1792.11 797.682L1796.91 818.798C1789.54 819.447 1773.05 821.759 1766.05 825.811C1759.91 829.361 1761.22 837.144 1763.14 841.895C1763.6 843.041 1764.72 843.746 1765.96 843.809L1781.77 844.616L1799.57 845.524C1807.33 844.102 1821.8 836.644 1817.61 818.192Z" fill="#E9B49E" stroke="#E2DEDA" stroke-width="5.03875"/>
<path d="M1779.14 832.348C1782.32 834.821 1782.48 840.203 1781.98 842.238L1765.95 841.368C1764.65 835.879 1766.61 832.161 1767.83 831.303C1770.28 830.621 1775.96 829.875 1779.14 832.348Z" fill="black"/>
<path d="M1823.01 783.433C1804.22 785.66 1783.21 784.799 1776.46 785.65L1773 800.809C1773 800.809 1768.53 816.577 1776.48 818.097C1788.21 820.341 1809.37 821.548 1830.51 821.389C1842.97 821.296 1859.46 819.886 1871.02 818.729C1880.16 817.815 1888.75 814.102 1895.83 808.255C1907.71 798.444 1901.19 779.154 1885.8 778.557L1877 778.215C1874.39 778.114 1871.79 778.193 1869.19 778.457C1860.31 779.359 1838.18 781.635 1823.01 783.433Z" fill="#E9B49E" stroke="#E2DEDA" stroke-width="5.03875"/>
<path d="M1765.92 774.224L1735.23 781.199L1766.46 799.966C1764.98 803.473 1761.02 818.211 1764.24 830.037C1767.45 841.862 1779.64 837.021 1785.28 833.97C1786.33 833.318 1788.96 830.938 1790.14 829.191C1792.42 825.838 1794.78 818.51 1794.68 810.609C1794.64 807.195 1794.2 803.326 1793.21 798.973C1788.74 779.296 1773.15 774.275 1765.92 774.224Z" fill="#E9B49E" stroke="#E2DEDA" stroke-width="5.03875"/>
<path d="M1725.21 785.455L1746.8 781.19L1771.57 798.27L1761 801.978L1725.21 785.455Z" fill="#E9B49E"/>
<path d="M1762.68 868.844C1765.86 871.317 1766.03 876.699 1765.53 878.735L1749.5 877.865C1748.2 872.375 1750.16 868.658 1751.38 867.799C1753.82 867.117 1759.5 866.371 1762.68 868.844Z" fill="black"/>
<path d="M1771.33 849.154C1774.51 851.627 1774.68 857.009 1774.17 859.044L1758.15 858.174C1756.84 852.684 1758.8 848.967 1760.03 848.109C1762.47 847.427 1768.15 846.681 1771.33 849.154Z" fill="black"/>
<path d="M1776.58 813.361C1773.73 820.594 1783.7 824.802 1789.04 826.002C1792.4 818.77 1792.56 810.704 1791.86 806.674C1787.87 805.156 1779.42 806.128 1776.58 813.361Z" fill="black"/>
<path d="M1394.23 443.382L1394.23 310.784C1394.23 284.105 1415.93 262.512 1442.6 262.633V262.633C1469.11 262.754 1490.54 284.276 1490.54 310.784L1490.54 345.017C1490.54 371.539 1512.1 393.005 1538.62 392.884V392.884C1564.97 392.763 1586.27 371.368 1586.27 345.017L1586.27 282.447L1586.27 161.482C1586.27 160.533 1585.5 159.764 1584.55 159.764L1395.95 159.764C1395 159.764 1394.23 158.995 1394.23 158.046L1394.23 65.4616C1394.23 64.5128 1395 63.7437 1395.95 63.7437L1490.54 63.7437L1729.04 63.7437C1755.56 63.7437 1777.05 85.2386 1777.05 111.754V111.754C1777.05 138.269 1755.56 159.764 1729.04 159.764L1683.74 159.764C1683.5 159.764 1683.32 159.952 1683.32 160.184L1683.32 254.734C1683.32 254.966 1683.5 255.154 1683.74 255.154L1728.94 255.154C1755.51 255.154 1777.05 276.693 1777.05 303.263V303.263C1777.05 329.833 1755.51 351.372 1728.94 351.372L1683.74 351.372C1683.5 351.372 1683.32 351.561 1683.32 351.793L1683.32 447.198C1683.32 447.43 1683.5 447.618 1683.74 447.618L1729.13 447.618C1755.6 447.618 1777.05 469.071 1777.05 495.535V495.535C1777.05 522.042 1755.53 543.513 1729.02 543.452L1587.12 543.127C1586.65 543.125 1586.27 542.744 1586.27 542.273L1586.27 490.053C1586.27 489.104 1585.5 488.335 1584.55 488.335L1492.25 488.334C1491.31 488.334 1490.54 489.104 1490.54 490.052L1490.54 829.377C1490.54 830.326 1491.31 831.095 1492.25 831.095L1584.55 831.095C1585.5 831.095 1586.27 830.326 1586.27 829.377L1586.27 639.065C1586.27 638.59 1586.65 638.206 1587.13 638.207L1729.01 638.533C1755.56 638.594 1777.05 660.136 1777.05 686.688V686.688C1777.05 713.222 1755.59 734.756 1729.05 734.842L1682.92 734.993C1682.68 734.994 1682.49 735.184 1682.49 735.419L1682.49 828.939C1682.49 829.888 1683.26 830.657 1684.21 830.657L1728.5 830.657" stroke="#E9B49E" stroke-width="90.8478"/>
<path d="M1659.69 683.981L1684.46 683.905C1691.97 683.881 1698.05 677.786 1698.05 670.275C1698.05 662.736 1691.93 656.628 1684.39 656.645L1625.94 656.771C1612.16 656.801 1601 667.982 1601 681.765L1601 728.037C1601 736.156 1607.58 742.738 1615.7 742.738C1623.82 742.738 1630.4 736.156 1630.4 728.037L1630.4 713.36C1630.4 697.17 1643.5 684.032 1659.69 683.981Z" fill="#E9B49E"/>
<path d="M1542.75 234.585L1542.83 259.357C1542.85 266.868 1548.95 272.944 1556.46 272.944C1564 272.944 1570.1 266.824 1570.09 259.285L1569.96 200.835C1569.93 187.052 1558.75 175.895 1544.97 175.895L1498.69 175.895C1490.58 175.895 1483.99 182.477 1483.99 190.597C1483.99 198.716 1490.58 205.298 1498.69 205.298L1513.37 205.298C1529.56 205.298 1542.7 218.396 1542.75 234.585Z" fill="#E9B49E"/>
<path d="M1695.69 716.524L1720.46 716.447C1727.97 716.424 1734.05 710.328 1734.05 702.817C1734.05 695.278 1727.93 689.171 1720.39 689.187L1661.94 689.313C1648.16 689.343 1637 700.524 1637 714.307L1637 760.579C1637 768.698 1643.58 775.28 1651.7 775.28C1659.82 775.28 1666.4 768.698 1666.4 760.579L1666.4 745.902C1666.4 729.712 1679.5 716.574 1695.69 716.524Z" fill="#E9B49E"/>
<path d="M1728 782.651H1700" stroke="#E2DEDA" stroke-width="4.7" stroke-linecap="round"/>
<path d="M1538 529.624L1538 785.999" stroke="#E2DEDA" stroke-width="5.154" stroke-linecap="round"/>
<path d="M1697.59 111.716L1441.21 111.716" stroke="#E2DEDA" stroke-width="5.154" stroke-linecap="round"/>
<path d="M1394.23 372.162L1394.23 584.055C1394.23 610.734 1372.54 632.327 1345.86 632.206V632.206C1319.35 632.085 1297.93 610.563 1297.93 584.055L1297.93 549.821C1297.93 523.299 1276.36 501.833 1249.84 501.955V501.955C1223.49 502.075 1202.19 523.471 1202.19 549.821L1202.19 612.391L1202.19 733.356C1202.19 734.305 1202.96 735.074 1203.91 735.074L1392.51 735.074C1393.46 735.074 1394.23 735.844 1394.23 736.792L1394.23 829.377C1394.23 830.326 1393.46 831.095 1392.51 831.095L1297.93 831.095H1059.42C1032.91 831.095 1011.41 809.6 1011.41 783.085V783.085C1011.41 756.569 1032.91 735.074 1059.42 735.074L1104.73 735.074C1104.96 735.074 1105.15 734.886 1105.15 734.654L1105.15 640.105C1105.15 639.873 1104.96 639.685 1104.73 639.685L1059.52 639.685C1032.95 639.685 1011.41 618.145 1011.41 591.575V591.575C1011.41 565.005 1032.95 543.466 1059.52 543.466L1104.73 543.466C1104.96 543.466 1105.15 543.278 1105.15 543.046L1105.15 447.641C1105.15 447.409 1104.96 447.221 1104.73 447.221L1059.33 447.221C1032.87 447.221 1011.41 425.767 1011.41 399.303V399.303C1011.41 372.796 1032.93 351.325 1059.44 351.386L1201.34 351.712C1201.81 351.713 1202.19 352.095 1202.19 352.566L1202.19 404.786C1202.19 405.735 1202.96 406.504 1203.91 406.504L1296.21 406.504C1297.16 406.504 1297.93 405.735 1297.93 404.786L1297.93 65.4618C1297.93 64.513 1297.16 63.7438 1296.21 63.7438L1203.91 63.7434C1202.96 63.7434 1202.19 64.5126 1202.19 65.4614L1202.19 255.774C1202.19 256.248 1201.81 256.632 1201.33 256.631L1059.46 256.305C1032.9 256.245 1011.41 234.703 1011.41 208.151V208.151C1011.41 181.617 1032.88 160.083 1059.41 159.996L1105.54 159.845C1105.78 159.845 1105.97 159.654 1105.97 159.42L1105.97 65.896C1105.97 64.9487 1105.2 64.1802 1104.25 64.178L916.123 63.7434" stroke="#E9B49E" stroke-width="90.8478"/>
<path d="M1127.43 210.857L1102.66 210.934C1095.15 210.957 1089.07 217.052 1089.07 224.564C1089.07 232.103 1095.19 238.21 1102.73 238.194L1161.18 238.067C1174.96 238.037 1186.12 226.856 1186.12 213.074L1186.12 166.801C1186.12 158.682 1179.54 152.1 1171.42 152.1C1163.3 152.1 1156.72 158.682 1156.72 166.801L1156.72 181.479C1156.72 197.668 1143.62 210.807 1127.43 210.857Z" fill="#E9B49E"/>
<path d="M1247.65 660.253L1247.57 635.482C1247.55 627.971 1241.45 621.894 1233.94 621.894C1226.4 621.894 1220.29 628.014 1220.31 635.553L1220.44 694.003C1220.47 707.786 1231.65 718.943 1245.43 718.943L1291.7 718.943C1299.82 718.943 1306.4 712.361 1306.4 704.242C1306.4 696.123 1299.82 689.541 1291.7 689.541L1277.03 689.541C1260.84 689.541 1247.7 676.443 1247.65 660.253Z" fill="#E9B49E"/>
<path d="M1092.49 178.315L1067.72 178.391C1060.21 178.415 1054.13 184.51 1054.13 192.021C1054.13 199.56 1060.26 205.668 1067.79 205.651L1126.24 205.525C1140.03 205.495 1151.18 194.314 1151.18 180.531L1151.18 134.259C1151.18 126.14 1144.6 119.558 1136.48 119.558C1128.36 119.558 1121.78 126.14 1121.78 134.259L1121.78 148.936C1121.78 165.126 1108.68 178.264 1092.49 178.315Z" fill="#E9B49E"/>
<path d="M1016.72 111.943L1090.38 111.943" stroke="#E2DEDA" stroke-width="5.3258" stroke-linecap="round"/>
<path d="M1249.92 365.214L1249.92 108.84" stroke="#E2DEDA" stroke-width="5.154" stroke-linecap="round"/>
<path d="M1092.81 783.122L1349.19 783.122" stroke="#E2DEDA" stroke-width="5.154" stroke-linecap="round"/>
</g>
</g>
<defs>
<clipPath id="clip0_919_201">
<rect width="863.243" height="896" fill="white" transform="translate(1860)"/>
</clipPath>
<clipPath id="clip1_919_201">
<rect width="896" height="930" fill="white" transform="translate(930) rotate(90)"/>
</clipPath>
<clipPath id="clip2_919_201">
<rect width="896" height="930" fill="white" transform="translate(1860) rotate(90)"/>
</clipPath>
<clipPath id="clip3_919_201">
<rect width="930" height="873" fill="white" transform="translate(930 18)"/>
</clipPath>
</defs>
</svg>
