<svg width="2148" height="764" viewBox="0 0 2148 764" fill="none" xmlns="http://www.w3.org/2000/svg">
<g clip-path="url(#clip0_183_2)">
<rect width="2148" height="764" fill="#E3BE63"/>
<g clip-path="url(#clip1_183_2)">
<circle cx="715.259" cy="335.668" r="82.9504" transform="rotate(-15 715.259 335.668)" stroke="#508664" stroke-width="20.2844"/>
<circle cx="715.178" cy="335.689" r="96.5944" transform="rotate(-15 715.178 335.689)" stroke="black" stroke-width="8.10963"/>
<circle cx="715.176" cy="335.689" r="70.6435" transform="rotate(-15 715.176 335.689)" stroke="black" stroke-width="8.10963"/>
<path d="M594.109 344.341L607.896 340.46L621.684 336.579" stroke="black" stroke-width="8.10678"/>
<path fill-rule="evenodd" clip-rule="evenodd" d="M643.872 448.585C662.207 517.012 639.382 586.771 590.574 631.576C584.126 637.495 581.686 646.807 585.225 654.812L678.051 864.787C680.96 871.367 679.969 879.081 675.102 884.379C620.845 943.433 536.857 965.992 459.834 941.239L459.07 940.993C453.184 939.102 448.579 934.474 446.717 928.578L358.511 649.277C357.305 645.456 354.907 642.137 351.775 639.639C322.165 616.018 299.574 583.063 289.018 543.668C262.762 445.678 320.913 344.956 418.904 318.7C481.5 301.927 545.211 319.598 589.913 360.096C594.395 364.156 601.221 364.498 605.83 360.583L615.567 352.314C615.605 352.282 615.663 352.29 615.692 352.331C615.719 352.372 615.775 352.381 615.814 352.351C619.738 349.37 624.295 347.085 629.35 345.731C650.219 340.139 671.669 352.523 677.261 373.393C681.89 390.666 674.202 408.338 659.582 417.086C659.555 417.102 659.547 417.137 659.564 417.162C659.583 417.189 659.573 417.226 659.544 417.24L647.21 423.503C641.574 426.364 639.081 433.031 641.041 439.041C642.063 442.179 643.008 445.36 643.872 448.585Z" fill="#E9B49E"/>
<path d="M459.834 941.239L461.074 937.38L461.074 937.38L459.834 941.239ZM659.544 417.24L661.379 420.855L659.544 417.24ZM615.814 352.351L618.266 355.579L615.814 352.351ZM615.567 352.314L612.943 349.225L615.567 352.314ZM589.913 360.096L592.634 357.092L589.913 360.096ZM647.21 423.503L645.375 419.888L647.21 423.503ZM641.041 439.041L637.187 440.298L641.041 439.041ZM459.07 940.993L457.83 944.852L459.07 940.993ZM446.717 928.578L450.583 927.357L446.717 928.578ZM659.582 417.086L661.663 420.564L659.582 417.086ZM678.051 864.787L681.758 863.148L678.051 864.787ZM675.102 884.379L672.117 881.637L675.102 884.379ZM351.775 639.639L354.303 636.47L351.775 639.639ZM590.574 631.576L593.315 634.562L590.574 631.576ZM585.225 654.812L581.518 656.451L585.225 654.812ZM593.315 634.562C643.192 588.776 666.529 517.479 647.787 447.536L639.957 449.634C657.886 516.546 635.573 584.766 587.833 628.59L593.315 634.562ZM681.758 863.148L588.932 653.174L581.518 656.451L674.343 866.426L681.758 863.148ZM458.594 945.098C537.129 970.337 622.765 947.335 678.087 887.122L672.117 881.637C618.926 939.531 536.585 961.647 461.074 937.38L458.594 945.098ZM457.83 944.852L458.594 945.098L461.074 937.38L460.31 937.134L457.83 944.852ZM354.646 650.497L442.852 929.799L450.583 927.357L362.377 648.056L354.646 650.497ZM285.103 544.717C295.89 584.976 318.983 618.665 349.248 642.808L354.303 636.47C325.347 613.371 303.257 581.149 292.933 542.619L285.103 544.717ZM417.855 314.784C317.702 341.62 258.267 444.565 285.103 544.717L292.933 542.619C267.256 446.791 324.125 348.292 419.953 322.615L417.855 314.784ZM592.634 357.092C546.955 315.709 481.836 297.64 417.855 314.784L419.953 322.615C481.164 306.213 543.467 323.488 587.192 363.1L592.634 357.092ZM612.943 349.225L603.207 357.493L608.454 363.672L618.19 355.404L612.943 349.225ZM628.3 341.815C622.729 343.308 617.697 345.83 613.361 349.124L618.266 355.579C621.779 352.91 625.86 350.862 630.399 349.646L628.3 341.815ZM681.176 372.343C675.005 349.312 651.332 335.644 628.3 341.815L630.399 349.646C649.105 344.634 668.333 355.735 673.346 374.442L681.176 372.343ZM661.663 420.564C677.796 410.912 686.286 391.413 681.176 372.343L673.346 374.442C677.493 389.92 670.608 405.765 657.5 413.608L661.663 420.564ZM649.045 427.117L661.379 420.855L657.709 413.626L645.375 419.888L649.045 427.117ZM647.787 447.536C646.905 444.242 645.939 440.991 644.894 437.785L637.187 440.298C638.187 443.366 639.112 446.479 639.957 449.634L647.787 447.536ZM656.207 419.434C654.858 417.441 655.563 414.716 657.709 413.626L661.379 420.855C663.583 419.736 664.307 416.938 662.921 414.891L656.207 419.434ZM612.335 354.603C613.668 356.573 616.378 357.013 618.266 355.579L613.361 349.124C615.172 347.749 617.77 348.171 619.049 350.06L612.335 354.603ZM618.19 355.404C616.389 356.933 613.659 356.56 612.335 354.603L619.049 350.06C617.668 348.019 614.821 347.63 612.943 349.225L618.19 355.404ZM587.192 363.1C593.071 368.426 602.183 368.998 608.454 363.672L603.207 357.493C600.258 359.997 595.719 359.886 592.634 357.092L587.192 363.1ZM645.375 419.888C637.826 423.721 634.655 432.533 637.187 440.298L644.894 437.785C643.507 433.53 645.322 429.007 649.045 427.117L645.375 419.888ZM460.31 937.134C455.675 935.645 452.049 932 450.583 927.357L442.852 929.799C445.11 936.948 450.692 942.559 457.83 944.852L460.31 937.134ZM657.5 413.608C655.492 414.809 654.876 417.466 656.207 419.434L662.921 414.891C664.218 416.807 663.618 419.394 661.663 420.564L657.5 413.608ZM674.343 866.426C676.654 871.653 675.807 877.62 672.117 881.637L678.087 887.122C684.131 880.542 685.265 871.082 681.758 863.148L674.343 866.426ZM362.377 648.056C360.907 643.403 358.008 639.426 354.303 636.47L349.248 642.808C351.806 644.848 353.703 647.51 354.646 650.497L362.377 648.056ZM587.833 628.59C580.25 635.551 577.2 646.684 581.518 656.451L588.932 653.174C586.172 646.93 588.003 639.438 593.315 634.562L587.833 628.59Z" fill="black"/>
<path d="M433.417 422.283L332.285 477.156" stroke="#508664" stroke-width="21.6834"/>
<path d="M425.449 410.531L324.317 465.404" stroke="black" stroke-width="8.10678"/>
<path d="M432.902 438.346L331.77 493.219" stroke="black" stroke-width="8.10678"/>
<mask id="path-11-inside-1_183_2" fill="white">
<path fill-rule="evenodd" clip-rule="evenodd" d="M656.923 66.2233C689.406 187.454 617.463 312.064 496.232 344.547C492.841 345.456 489.447 346.283 486.053 347.029C400.437 399.068 334.229 477.896 297.798 571.433L296.123 575.733C276.963 570.599 269.368 562.633 258.592 551.329C255.039 547.602 251.14 543.512 246.366 539.041C227.115 521.01 212.607 498.51 204.129 473.533C195.65 448.556 193.462 421.873 197.759 395.849C199.721 383.967 203.007 372.389 207.527 361.323C197.167 351.28 189.337 338.911 184.694 325.234C179.884 311.062 178.642 295.923 181.08 281.157C183.518 266.391 189.56 252.454 198.671 240.581C206.765 230.032 217.06 221.401 228.815 215.276C224.483 205.227 220.824 194.74 217.908 183.857C185.425 62.6264 257.368 -61.9836 378.599 -94.4672C499.829 -126.951 624.439 -55.0072 656.923 66.2233Z"/>
</mask>
<path fill-rule="evenodd" clip-rule="evenodd" d="M656.923 66.2233C689.406 187.454 617.463 312.064 496.232 344.547C492.841 345.456 489.447 346.283 486.053 347.029C400.437 399.068 334.229 477.896 297.798 571.433L296.123 575.733C276.963 570.599 269.368 562.633 258.592 551.329C255.039 547.602 251.14 543.512 246.366 539.041C227.115 521.01 212.607 498.51 204.129 473.533C195.65 448.556 193.462 421.873 197.759 395.849C199.721 383.967 203.007 372.389 207.527 361.323C197.167 351.28 189.337 338.911 184.694 325.234C179.884 311.062 178.642 295.923 181.08 281.157C183.518 266.391 189.56 252.454 198.671 240.581C206.765 230.032 217.06 221.401 228.815 215.276C224.483 205.227 220.824 194.74 217.908 183.857C185.425 62.6264 257.368 -61.9836 378.599 -94.4672C499.829 -126.951 624.439 -55.0072 656.923 66.2233Z" fill="#353331"/>
<path d="M486.053 347.029L484.312 339.112L482.995 339.401L481.843 340.102L486.053 347.029ZM297.798 571.433L290.244 568.49L290.244 568.49L297.798 571.433ZM296.123 575.733L294.025 583.563L301.041 585.443L303.677 578.675L296.123 575.733ZM258.592 551.329L252.724 556.922L252.724 556.922L258.592 551.329ZM246.366 539.041L240.825 544.958L240.825 544.958L246.366 539.041ZM204.129 473.533L211.805 470.927L204.129 473.533ZM197.759 395.849L189.761 394.528L197.759 395.849ZM207.527 361.323L215.032 364.389L217.104 359.317L213.17 355.503L207.527 361.323ZM184.694 325.234L192.371 322.628L184.694 325.234ZM181.08 281.157L189.079 282.477L181.08 281.157ZM198.671 240.581L205.102 245.516L205.102 245.516L198.671 240.581ZM228.815 215.276L232.562 222.465L239.242 218.984L236.26 212.066L228.815 215.276ZM498.331 352.378C623.886 318.736 698.396 189.68 664.753 64.1251L649.092 68.3215C680.417 185.227 611.04 305.392 494.134 336.717L498.331 352.378ZM487.794 354.947C491.308 354.174 494.821 353.318 498.331 352.378L494.134 336.717C490.861 337.594 487.587 338.392 484.312 339.112L487.794 354.947ZM305.352 574.375C341.136 482.499 406.169 405.071 490.264 353.957L481.843 340.102C394.706 393.065 327.322 473.293 290.244 568.49L305.352 574.375ZM303.677 578.675L305.352 574.375L290.244 568.49L288.569 572.791L303.677 578.675ZM252.724 556.922C258.017 562.475 263.124 567.867 269.488 572.432C276.015 577.114 283.618 580.775 294.025 583.563L298.221 567.902C289.468 565.557 283.693 562.668 278.939 559.257C274.021 555.73 269.943 551.487 264.459 545.735L252.724 556.922ZM240.825 544.958C245.411 549.253 249.166 553.19 252.724 556.922L264.459 545.735C260.911 542.013 256.869 537.77 251.908 533.124L240.825 544.958ZM196.452 476.138C205.359 502.378 220.6 526.016 240.825 544.958L251.908 533.124C233.63 516.005 219.855 494.641 211.805 470.927L196.452 476.138ZM189.761 394.528C185.247 421.868 187.545 449.899 196.452 476.138L211.805 470.927C203.755 447.212 201.678 421.879 205.758 397.169L189.761 394.528ZM200.022 358.258C195.273 369.883 191.822 382.046 189.761 394.528L205.758 397.169C207.62 385.888 210.74 374.896 215.032 364.389L200.022 358.258ZM213.17 355.503C203.732 346.354 196.6 335.087 192.371 322.628L177.018 327.84C182.074 342.736 190.601 356.206 201.884 367.144L213.17 355.503ZM192.371 322.628C187.989 309.719 186.858 295.928 189.079 282.477L173.082 279.836C170.427 295.918 171.779 312.406 177.018 327.84L192.371 322.628ZM189.079 282.477C191.3 269.027 196.803 256.331 205.102 245.516L192.239 235.646C182.317 248.576 175.737 263.755 173.082 279.836L189.079 282.477ZM205.102 245.516C212.475 235.907 221.853 228.045 232.562 222.465L225.069 208.086C212.266 214.758 201.054 224.157 192.239 235.646L205.102 245.516ZM210.078 185.955C213.096 197.219 216.884 208.077 221.371 218.485L236.26 212.066C232.083 202.377 228.553 192.262 225.739 181.759L210.078 185.955ZM376.501 -102.298C250.945 -68.6553 176.435 60.3999 210.078 185.955L225.739 181.759C194.414 64.8529 263.791 -55.3118 380.697 -86.6366L376.501 -102.298ZM664.753 64.1251C631.111 -61.4301 502.056 -135.94 376.501 -102.298L380.697 -86.6366C497.603 -117.961 617.767 -48.5843 649.092 68.3215L664.753 64.1251Z" fill="black" mask="url(#path-11-inside-1_183_2)"/>
<circle cx="516.067" cy="389.041" r="82.9504" transform="rotate(-15 516.067 389.041)" stroke="#508664" stroke-width="20.2844"/>
<circle cx="518.844" cy="399.395" r="27.8231" transform="rotate(-15 518.844 399.395)" fill="black"/>
<circle cx="715.186" cy="335.686" r="27.8231" transform="rotate(-15 715.186 335.686)" fill="black"/>
<circle cx="516.375" cy="388.539" r="96.5944" transform="rotate(-15 516.375 388.539)" stroke="black" stroke-width="8.10963"/>
<circle cx="516.375" cy="388.539" r="70.6435" transform="rotate(-15 516.375 388.539)" stroke="black" stroke-width="8.10963"/>
<path d="M798.981 613.919C815.981 554.582 865.872 537.52 891.915 535.99C892.898 535.932 893.221 537.208 892.376 537.713C840.481 568.742 821.424 607.394 818.387 623.108L798.981 613.919Z" fill="#508664" stroke="black" stroke-width="1.47937"/>
<path d="M874.406 544.829C874.785 544.677 874.969 544.246 874.817 543.867C874.664 543.488 874.234 543.304 873.855 543.456L874.406 544.829ZM873.855 543.456C862.696 547.939 823.183 566.346 802.067 616.707L803.431 617.279C824.328 567.439 863.419 549.242 874.406 544.829L873.855 543.456Z" fill="white"/>
<path d="M808.004 618.191C843.132 567.438 824.716 518.032 809.396 496.916C808.818 496.118 807.626 496.677 807.771 497.651C816.653 557.459 798.83 596.695 788.598 609.002L808.004 618.191Z" fill="#508664" stroke="black" stroke-width="1.47937"/>
<path d="M813.133 509.845C816.712 521.242 829.254 569.431 803.782 617.481" stroke="white" stroke-width="1.47937" stroke-linecap="round"/>
<path d="M907.24 587.98C854.989 556.788 809.988 597.871 793.738 611.904L824.111 626.286C838.185 612.256 848.281 599.227 906.886 589.741C907.761 589.6 908.001 588.435 907.24 587.98Z" fill="#508664" stroke="black" stroke-width="1.47937"/>
<path d="M892.076 587.315C879.4 583.858 845.861 584.382 813.114 614.127" stroke="white" stroke-width="1.47937" stroke-linecap="round"/>
<path d="M769.438 548.168C802.302 570.834 811.509 605.624 811.963 620.534L784.72 607.635C786.434 595.91 775.024 565.568 768.044 549.324C767.667 548.448 768.653 547.626 769.438 548.168Z" fill="#508664" stroke="black" stroke-width="1.47937"/>
<path d="M777.008 559.161C785.159 571.325 800.804 598.747 798.177 611.129" stroke="white" stroke-width="1.47937" stroke-linecap="round"/>
<mask id="path-26-inside-2_183_2" fill="white">
<path fill-rule="evenodd" clip-rule="evenodd" d="M753.122 604.148C753.473 597.064 755.216 590.118 758.251 583.707L807.068 606.823L855.885 629.938C852.849 636.349 848.581 642.099 843.323 646.86C838.065 651.621 831.921 655.3 825.242 657.686C820.392 659.419 815.329 660.446 810.207 660.744L763.366 638.564C760.351 634.413 757.937 629.846 756.205 624.996C753.818 618.317 752.77 611.233 753.122 604.148Z"/>
</mask>
<path fill-rule="evenodd" clip-rule="evenodd" d="M753.122 604.148C753.473 597.064 755.216 590.118 758.251 583.707L807.068 606.823L855.885 629.938C852.849 636.349 848.581 642.099 843.323 646.86C838.065 651.621 831.921 655.3 825.242 657.686C820.392 659.419 815.329 660.446 810.207 660.744L763.366 638.564C760.351 634.413 757.937 629.846 756.205 624.996C753.818 618.317 752.77 611.233 753.122 604.148Z" fill="white"/>
<path d="M758.251 583.707L756.914 583.074L757.547 581.737L758.885 582.37L758.251 583.707ZM753.122 604.148L754.599 604.222L754.599 604.222L753.122 604.148ZM807.068 606.823L806.435 608.16L807.068 606.823ZM855.885 629.938L856.518 628.601L857.855 629.234L857.222 630.571L855.885 629.938ZM843.323 646.86L842.33 645.763L843.323 646.86ZM825.242 657.686L825.74 659.079L825.242 657.686ZM810.207 660.744L810.293 662.221L809.916 662.243L809.574 662.081L810.207 660.744ZM763.366 638.564L762.733 639.901L762.392 639.74L762.169 639.434L763.366 638.564ZM759.588 584.341C756.636 590.576 754.941 597.331 754.599 604.222L751.644 604.075C752.005 596.797 753.796 589.661 756.914 583.074L759.588 584.341ZM806.435 608.16L757.618 585.044L758.885 582.37L807.701 605.486L806.435 608.16ZM855.252 631.275L806.435 608.16L807.701 605.486L856.518 628.601L855.252 631.275ZM842.33 645.763C847.444 641.132 851.595 635.54 854.548 629.305L857.222 630.571C854.103 637.157 849.718 643.065 844.316 647.956L842.33 645.763ZM824.744 656.293C831.241 653.972 837.216 650.394 842.33 645.763L844.316 647.956C838.914 652.848 832.602 656.627 825.74 659.079L824.744 656.293ZM810.121 659.267C815.103 658.977 820.027 657.978 824.744 656.293L825.74 659.079C820.757 660.86 815.555 661.915 810.293 662.221L810.121 659.267ZM809.574 662.081L762.733 639.901L763.999 637.227L810.841 659.407L809.574 662.081ZM757.598 624.499C759.283 629.215 761.631 633.658 764.563 637.695L762.169 639.434C759.072 635.169 756.592 630.477 754.811 625.494L757.598 624.499ZM754.599 604.222C754.258 611.112 755.276 618.002 757.598 624.499L754.811 625.494C752.36 618.632 751.283 611.353 751.644 604.075L754.599 604.222Z" fill="black" mask="url(#path-26-inside-2_183_2)"/>
</g>
<mask id="path-28-inside-3_183_2" fill="white">
<path fill-rule="evenodd" clip-rule="evenodd" d="M1160.57 580.327C1151.7 576.334 1141.27 580.291 1137.27 589.166L1100.32 671.289C1098.83 674.598 1094.71 675.728 1091.45 674.132C1090.98 673.902 1090.5 673.678 1090.02 673.462C1068.41 663.737 1043.75 671.713 1034.95 691.276C1026.15 710.84 1036.53 734.584 1058.14 744.309C1079.76 754.034 1104.41 746.058 1113.22 726.494C1113.27 726.385 1113.33 726.284 1113.41 726.194C1114.54 724.905 1115.51 723.427 1116.25 721.78L1157.74 629.572C1159.28 626.146 1163.62 625.059 1166.59 627.354L1189.13 644.74C1189.96 645.379 1190.84 645.921 1191.76 646.365C1192.2 646.58 1192.63 646.824 1193.02 647.125L1222.37 669.766C1222.57 669.918 1222.77 670.064 1222.97 670.205C1226.31 672.528 1229.04 676.879 1227.37 680.587L1201.93 737.123C1200.44 740.432 1196.32 741.562 1193.06 739.966C1192.59 739.735 1192.11 739.511 1191.63 739.294C1170.02 729.569 1145.36 737.545 1136.56 757.109C1127.76 776.672 1138.14 800.416 1159.75 810.141C1181.37 819.866 1206.02 811.89 1214.83 792.326C1214.84 792.296 1214.85 792.265 1214.87 792.235C1214.88 792.199 1214.91 792.165 1214.93 792.136C1216.1 790.824 1217.1 789.312 1217.86 787.622L1271.02 669.47C1275.02 660.594 1271.06 650.162 1262.18 646.169C1256.52 643.622 1250.23 644.309 1245.38 647.443C1244.22 648.193 1242.66 648.104 1241.56 647.259L1189.17 606.849C1188.35 606.21 1187.47 605.668 1186.55 605.224C1186.11 605.009 1185.68 604.765 1185.29 604.464L1172.43 594.543C1171.3 593.67 1170.56 592.396 1170.13 591.034C1168.66 586.439 1165.32 582.463 1160.57 580.327Z"/>
</mask>
<path fill-rule="evenodd" clip-rule="evenodd" d="M1160.57 580.327C1151.7 576.334 1141.27 580.291 1137.27 589.166L1100.32 671.289C1098.83 674.598 1094.71 675.728 1091.45 674.132C1090.98 673.902 1090.5 673.678 1090.02 673.462C1068.41 663.737 1043.75 671.713 1034.95 691.276C1026.15 710.84 1036.53 734.584 1058.14 744.309C1079.76 754.034 1104.41 746.058 1113.22 726.494C1113.27 726.385 1113.33 726.284 1113.41 726.194C1114.54 724.905 1115.51 723.427 1116.25 721.78L1157.74 629.572C1159.28 626.146 1163.62 625.059 1166.59 627.354L1189.13 644.74C1189.96 645.379 1190.84 645.921 1191.76 646.365C1192.2 646.58 1192.63 646.824 1193.02 647.125L1222.37 669.766C1222.57 669.918 1222.77 670.064 1222.97 670.205C1226.31 672.528 1229.04 676.879 1227.37 680.587L1201.93 737.123C1200.44 740.432 1196.32 741.562 1193.06 739.966C1192.59 739.735 1192.11 739.511 1191.63 739.294C1170.02 729.569 1145.36 737.545 1136.56 757.109C1127.76 776.672 1138.14 800.416 1159.75 810.141C1181.37 819.866 1206.02 811.89 1214.83 792.326C1214.84 792.296 1214.85 792.265 1214.87 792.235C1214.88 792.199 1214.91 792.165 1214.93 792.136C1216.1 790.824 1217.1 789.312 1217.86 787.622L1271.02 669.47C1275.02 660.594 1271.06 650.162 1262.18 646.169C1256.52 643.622 1250.23 644.309 1245.38 647.443C1244.22 648.193 1242.66 648.104 1241.56 647.259L1189.17 606.849C1188.35 606.21 1187.47 605.668 1186.55 605.224C1186.11 605.009 1185.68 604.765 1185.29 604.464L1172.43 594.543C1171.3 593.67 1170.56 592.396 1170.13 591.034C1168.66 586.439 1165.32 582.463 1160.57 580.327Z" fill="#323232"/>
<path d="M1189.13 644.74L1185.9 648.929L1185.9 648.929L1189.13 644.74ZM1222.37 669.766L1219.14 673.954L1222.37 669.766ZM1189.17 606.849L1192.41 602.66L1192.41 602.66L1189.17 606.849ZM1172.43 594.543L1175.66 590.354L1172.43 594.543ZM1170.13 591.034L1165.09 592.646L1170.13 591.034ZM1186.55 605.224L1184.24 609.982L1186.55 605.224ZM1185.29 604.464L1182.06 608.653L1185.29 604.464ZM1193.06 739.966L1190.73 744.716L1193.06 739.966ZM1245.38 647.443L1248.25 651.887L1245.38 647.443ZM1091.45 674.132L1093.78 669.381L1091.45 674.132ZM1222.97 670.205L1225.99 665.862L1222.97 670.205ZM1191.76 646.365L1189.44 651.123L1191.76 646.365ZM1193.02 647.125L1196.25 642.936L1193.02 647.125ZM1214.93 792.136L1218.88 795.66L1214.93 792.136ZM1113.41 726.194L1117.38 729.687L1113.41 726.194ZM1142.1 591.337C1144.89 585.126 1152.19 582.357 1158.4 585.151L1162.74 575.503C1151.2 570.311 1137.64 575.456 1132.45 586.996L1142.1 591.337ZM1105.14 673.46L1142.1 591.337L1132.45 586.996L1095.5 669.118L1105.14 673.46ZM1087.85 678.286C1088.28 678.479 1088.7 678.678 1089.12 678.883L1093.78 669.381C1093.25 669.126 1092.73 668.878 1092.19 668.637L1087.85 678.286ZM1039.77 693.447C1047.18 676.988 1068.44 669.551 1087.85 678.286L1092.19 668.637C1068.38 657.922 1040.32 666.437 1030.12 689.106L1039.77 693.447ZM1060.31 739.484C1040.9 730.75 1032.37 709.906 1039.77 693.447L1030.12 689.106C1019.92 711.775 1032.16 738.417 1055.97 749.133L1060.31 739.484ZM1108.39 724.323C1100.99 740.782 1079.73 748.219 1060.31 739.484L1055.97 749.133C1079.79 759.848 1107.84 751.334 1118.04 728.664L1108.39 724.323ZM1111.42 719.609C1110.9 720.77 1110.23 721.803 1109.44 722.7L1117.38 729.687C1118.86 728.006 1120.11 726.084 1121.07 723.951L1111.42 719.609ZM1152.91 627.402L1111.42 719.609L1121.07 723.951L1162.56 631.743L1152.91 627.402ZM1192.36 640.551L1169.82 623.165L1163.36 631.543L1185.9 648.929L1192.36 640.551ZM1194.07 641.607C1193.47 641.318 1192.9 640.967 1192.36 640.551L1185.9 648.929C1187.02 649.792 1188.21 650.523 1189.44 651.123L1194.07 641.607ZM1225.6 665.577L1196.25 642.936L1189.79 651.314L1219.14 673.954L1225.6 665.577ZM1225.99 665.862C1225.86 665.771 1225.73 665.676 1225.6 665.577L1219.14 673.954C1219.4 674.16 1219.67 674.357 1219.95 674.548L1225.99 665.862ZM1206.76 739.294L1232.2 682.758L1222.55 678.417L1197.11 734.952L1206.76 739.294ZM1189.46 744.118C1189.89 744.311 1190.32 744.511 1190.73 744.716L1195.39 735.215C1194.87 734.959 1194.34 734.71 1193.8 734.47L1189.46 744.118ZM1141.38 759.279C1148.79 742.821 1170.05 735.383 1189.46 744.118L1193.8 734.47C1169.99 723.754 1141.93 732.269 1131.73 754.938L1141.38 759.279ZM1161.92 805.317C1142.51 796.582 1133.98 775.738 1141.38 759.279L1131.73 754.938C1121.53 777.607 1133.77 804.25 1157.58 814.965L1161.92 805.317ZM1210 790.155C1202.6 806.614 1181.34 814.051 1161.92 805.317L1157.58 814.965C1181.4 825.68 1209.45 817.166 1219.65 794.497L1210 790.155ZM1210.04 790.077C1210.03 790.103 1210.01 790.129 1210 790.155L1219.65 794.497C1219.67 794.462 1219.68 794.427 1219.7 794.392L1210.04 790.077ZM1213.03 785.451C1212.5 786.642 1211.8 787.698 1210.99 788.612L1218.88 795.66C1220.41 793.949 1221.7 791.982 1222.68 789.793L1213.03 785.451ZM1266.2 667.299L1213.03 785.451L1222.68 789.793L1275.85 671.64L1266.2 667.299ZM1260.01 650.993C1266.22 653.788 1268.99 661.088 1266.2 667.299L1275.85 671.64C1281.04 660.101 1275.89 646.537 1264.35 641.345L1260.01 650.993ZM1248.25 651.887C1251.66 649.685 1256.06 649.213 1260.01 650.993L1264.35 641.345C1256.99 638.031 1248.8 638.933 1242.51 642.999L1248.25 651.887ZM1185.94 611.038L1238.33 651.448L1244.8 643.071L1192.41 602.66L1185.94 611.038ZM1184.24 609.982C1184.83 610.271 1185.4 610.622 1185.94 611.038L1192.41 602.66C1191.29 601.797 1190.1 601.066 1188.86 600.466L1184.24 609.982ZM1169.2 598.732L1182.06 608.653L1188.52 600.275L1175.66 590.354L1169.2 598.732ZM1158.4 585.151C1161.72 586.646 1164.06 589.419 1165.09 592.646L1175.17 589.422C1173.26 583.459 1168.91 578.28 1162.74 575.503L1158.4 585.151ZM1175.66 590.354C1175.63 590.33 1175.39 590.112 1175.17 589.422L1165.09 592.646C1165.74 594.681 1166.96 597.009 1169.2 598.732L1175.66 590.354ZM1188.86 600.466C1188.62 600.347 1188.53 600.283 1188.52 600.275L1182.06 608.653C1182.83 609.246 1183.6 609.671 1184.24 609.982L1188.86 600.466ZM1197.11 734.952C1197.06 735.072 1196.94 735.225 1196.62 735.325C1196.26 735.435 1195.8 735.414 1195.39 735.215L1190.73 744.716C1196.22 747.402 1203.84 745.776 1206.76 739.294L1197.11 734.952ZM1242.51 642.999C1243.29 642.492 1244.18 642.594 1244.8 643.071L1238.33 651.448C1241.14 653.613 1245.14 653.895 1248.25 651.887L1242.51 642.999ZM1095.5 669.118C1095.44 669.238 1095.33 669.391 1095 669.491C1094.64 669.601 1094.18 669.58 1093.78 669.381L1089.12 678.883C1094.6 681.568 1102.23 679.942 1105.14 673.46L1095.5 669.118ZM1219.95 674.548C1220.97 675.26 1221.84 676.261 1222.29 677.183C1222.72 678.079 1222.56 678.402 1222.55 678.417L1232.2 682.758C1233.86 679.064 1233.16 675.357 1231.81 672.57C1230.47 669.808 1228.3 667.472 1225.99 665.862L1219.95 674.548ZM1189.44 651.123C1189.69 651.242 1189.78 651.306 1189.79 651.314L1196.25 642.936C1195.48 642.343 1194.71 641.918 1194.07 641.607L1189.44 651.123ZM1219.7 794.388C1219.49 794.86 1219.21 795.288 1218.88 795.66L1210.99 788.612C1210.6 789.043 1210.28 789.537 1210.04 790.081L1219.7 794.388ZM1162.56 631.743C1162.7 631.433 1163.09 631.335 1163.36 631.543L1169.82 623.165C1164.14 618.783 1155.86 620.858 1152.91 627.402L1162.56 631.743ZM1118.04 728.664C1117.87 729.049 1117.64 729.391 1117.38 729.687L1109.44 722.7C1109.02 723.176 1108.66 723.72 1108.39 724.323L1118.04 728.664Z" fill="black" mask="url(#path-28-inside-3_183_2)"/>
<mask id="path-30-inside-4_183_2" fill="white">
<path fill-rule="evenodd" clip-rule="evenodd" d="M1827.19 105.187C1826.06 99.1932 1830 93.4201 1836 92.292C1839.38 91.6556 1842.69 92.6334 1845.14 94.6828C1845.92 95.3434 1846.86 95.8395 1847.89 95.9131L1874.95 97.8553C1880.55 98.2572 1884.76 103.123 1884.36 108.723C1883.96 114.324 1879.09 118.538 1873.49 118.136L1856.93 116.947C1854.34 116.761 1852.27 119.075 1852.75 121.624L1865.91 191.519C1866.09 192.484 1866.14 193.443 1866.07 194.379C1866.05 194.754 1866.05 195.134 1866.1 195.508C1868.08 209.643 1858.62 222.978 1844.44 225.646C1829.85 228.393 1815.79 218.789 1813.04 204.194C1810.29 189.598 1819.9 175.54 1834.49 172.792C1834.67 172.759 1834.84 172.728 1835.02 172.699C1837.48 172.285 1839.39 170.034 1838.93 167.579L1827.19 105.187Z"/>
</mask>
<path fill-rule="evenodd" clip-rule="evenodd" d="M1827.19 105.187C1826.06 99.1932 1830 93.4201 1836 92.292C1839.38 91.6556 1842.69 92.6334 1845.14 94.6828C1845.92 95.3434 1846.86 95.8395 1847.89 95.9131L1874.95 97.8553C1880.55 98.2572 1884.76 103.123 1884.36 108.723C1883.96 114.324 1879.09 118.538 1873.49 118.136L1856.93 116.947C1854.34 116.761 1852.27 119.075 1852.75 121.624L1865.91 191.519C1866.09 192.484 1866.14 193.443 1866.07 194.379C1866.05 194.754 1866.05 195.134 1866.1 195.508C1868.08 209.643 1858.62 222.978 1844.44 225.646C1829.85 228.393 1815.79 218.789 1813.04 204.194C1810.29 189.598 1819.9 175.54 1834.49 172.792C1834.67 172.759 1834.84 172.728 1835.02 172.699C1837.48 172.285 1839.39 170.034 1838.93 167.579L1827.19 105.187Z" fill="#323232"/>
<path d="M1827.19 105.187L1830.72 104.521L1827.19 105.187ZM1874.95 97.8553L1875.2 94.2661L1875.2 94.2661L1874.95 97.8553ZM1884.36 108.723L1887.95 108.981L1887.95 108.981L1884.36 108.723ZM1873.49 118.136L1873.23 121.725L1873.23 121.725L1873.49 118.136ZM1866.07 194.379L1869.66 194.642L1866.07 194.379ZM1866.1 195.508L1862.54 196.007L1866.1 195.508ZM1835.02 172.699L1834.42 169.151L1835.02 172.699ZM1845.14 94.6828L1842.82 97.4413L1845.14 94.6828ZM1835.33 88.7557C1827.38 90.2514 1822.16 97.9058 1823.65 105.852L1830.72 104.521C1829.96 100.481 1832.62 96.5888 1836.66 95.8283L1835.33 88.7557ZM1847.45 91.9243C1844.21 89.2129 1839.82 87.9116 1835.33 88.7557L1836.66 95.8283C1838.94 95.3995 1841.17 96.0539 1842.82 97.4413L1847.45 91.9243ZM1847.63 99.5023L1874.69 101.444L1875.2 94.2661L1848.14 92.324L1847.63 99.5023ZM1874.69 101.444C1878.31 101.704 1881.03 104.848 1880.77 108.466L1887.95 108.981C1888.49 101.398 1882.79 94.8103 1875.2 94.2661L1874.69 101.444ZM1880.77 108.466C1880.51 112.084 1877.37 114.806 1873.75 114.546L1873.23 121.725C1880.82 122.269 1887.4 116.563 1887.95 108.981L1880.77 108.466ZM1873.75 114.546L1857.18 113.358L1856.67 120.536L1873.23 121.725L1873.75 114.546ZM1869.45 190.854L1856.29 120.959L1849.22 122.29L1862.37 192.185L1869.45 190.854ZM1869.66 194.642C1869.75 193.399 1869.69 192.127 1869.45 190.854L1862.37 192.185C1862.5 192.841 1862.53 193.488 1862.49 194.115L1869.66 194.642ZM1845.11 229.182C1861.18 226.157 1871.91 211.037 1869.67 195.008L1862.54 196.007C1864.25 208.248 1856.05 219.799 1843.78 222.11L1845.11 229.182ZM1809.51 204.859C1812.62 221.407 1828.56 232.297 1845.11 229.182L1843.78 222.11C1831.13 224.489 1818.96 216.17 1816.58 203.528L1809.51 204.859ZM1833.83 169.256C1817.28 172.371 1806.39 188.311 1809.51 204.859L1816.58 203.528C1814.2 190.886 1822.52 178.708 1835.16 176.329L1833.83 169.256ZM1834.42 169.151C1834.22 169.184 1834.03 169.219 1833.83 169.256L1835.16 176.329C1835.31 176.3 1835.46 176.273 1835.61 176.248L1834.42 169.151ZM1823.65 105.852L1835.4 168.245L1842.47 166.913L1830.72 104.521L1823.65 105.852ZM1862.49 194.115C1862.44 194.688 1862.44 195.33 1862.54 196.007L1869.67 195.008C1869.66 194.939 1869.65 194.821 1869.66 194.642L1862.49 194.115ZM1857.18 113.358C1852.24 113.003 1848.3 117.421 1849.22 122.29L1856.29 120.959C1856.25 120.728 1856.43 120.519 1856.67 120.536L1857.18 113.358ZM1835.61 176.248C1839.65 175.569 1843.38 171.74 1842.47 166.913L1835.4 168.245C1835.41 168.328 1835.41 168.466 1835.25 168.672C1835.07 168.899 1834.77 169.092 1834.42 169.151L1835.61 176.248ZM1842.82 97.4413C1843.97 98.4008 1845.6 99.3569 1847.63 99.5023L1848.14 92.324C1848.12 92.3221 1847.88 92.2861 1847.45 91.9243L1842.82 97.4413Z" fill="black" mask="url(#path-30-inside-4_183_2)"/>
<mask id="path-32-inside-5_183_2" fill="white">
<path fill-rule="evenodd" clip-rule="evenodd" d="M1560.64 641.951C1558.95 638.902 1560.06 635.066 1563.11 633.381C1564.83 632.431 1566.8 632.369 1568.49 633.042C1569.04 633.259 1569.63 633.361 1570.2 633.217L1585.22 629.427C1588.33 628.643 1591.49 630.527 1592.27 633.636C1593.06 636.745 1591.17 639.901 1588.07 640.686L1578.87 643.006C1577.43 643.368 1576.73 644.992 1577.44 646.289L1597.09 681.838C1597.36 682.329 1597.56 682.84 1597.69 683.36C1597.74 683.569 1597.81 683.774 1597.91 683.967C1601.51 691.278 1598.76 700.204 1591.55 704.187C1584.13 708.289 1574.79 705.597 1570.69 698.174C1566.58 690.751 1569.28 681.408 1576.7 677.305C1576.79 677.256 1576.88 677.208 1576.97 677.161C1578.23 676.496 1578.86 674.932 1578.17 673.684L1560.64 641.951Z"/>
</mask>
<path fill-rule="evenodd" clip-rule="evenodd" d="M1560.64 641.951C1558.95 638.902 1560.06 635.066 1563.11 633.381C1564.83 632.431 1566.8 632.369 1568.49 633.042C1569.04 633.259 1569.63 633.361 1570.2 633.217L1585.22 629.427C1588.33 628.643 1591.49 630.527 1592.27 633.636C1593.06 636.745 1591.17 639.901 1588.07 640.686L1578.87 643.006C1577.43 643.368 1576.73 644.992 1577.44 646.289L1597.09 681.838C1597.36 682.329 1597.56 682.84 1597.69 683.36C1597.74 683.569 1597.81 683.774 1597.91 683.967C1601.51 691.278 1598.76 700.204 1591.55 704.187C1584.13 708.289 1574.79 705.597 1570.69 698.174C1566.58 690.751 1569.28 681.408 1576.7 677.305C1576.79 677.256 1576.88 677.208 1576.97 677.161C1578.23 676.496 1578.86 674.932 1578.17 673.684L1560.64 641.951Z" fill="#323232"/>
<path d="M1560.64 641.951L1562.44 640.957L1560.64 641.951ZM1585.22 629.427L1584.72 627.435L1584.72 627.435L1585.22 629.427ZM1592.27 633.636L1590.28 634.139L1590.28 634.139L1592.27 633.636ZM1588.07 640.686L1587.56 638.693L1588.07 640.686ZM1597.09 681.838L1598.89 680.844L1597.09 681.838ZM1597.69 683.36L1599.68 682.861L1597.69 683.36ZM1597.91 683.967L1596.06 684.876L1597.91 683.967ZM1578.87 643.006L1579.37 644.998L1578.87 643.006ZM1576.97 677.161L1577.93 678.979L1576.97 677.161ZM1578.17 673.684L1576.37 674.678L1578.17 673.684ZM1568.49 633.042L1567.73 634.952L1568.49 633.042ZM1570.2 633.217L1570.71 635.209L1570.2 633.217ZM1562.11 631.583C1558.07 633.816 1556.61 638.903 1558.84 642.945L1562.44 640.957C1561.3 638.902 1562.05 636.315 1564.1 635.18L1562.11 631.583ZM1569.25 631.133C1567.01 630.242 1564.39 630.322 1562.11 631.583L1564.1 635.18C1565.26 634.54 1566.58 634.496 1567.73 634.952L1569.25 631.133ZM1570.71 635.209L1585.73 631.42L1584.72 627.435L1569.7 631.224L1570.71 635.209ZM1585.73 631.42C1587.74 630.913 1589.77 632.13 1590.28 634.139L1594.27 633.133C1593.2 628.924 1588.93 626.373 1584.72 627.435L1585.73 631.42ZM1590.28 634.139C1590.79 636.147 1589.57 638.186 1587.56 638.693L1588.57 642.678C1592.78 641.616 1595.33 637.343 1594.27 633.133L1590.28 634.139ZM1587.56 638.693L1578.37 641.013L1579.37 644.998L1588.57 642.678L1587.56 638.693ZM1598.89 680.844L1579.24 645.295L1575.65 647.283L1595.29 682.832L1598.89 680.844ZM1599.68 682.861C1599.51 682.17 1599.25 681.492 1598.89 680.844L1595.29 682.832C1595.47 683.166 1595.61 683.511 1595.7 683.859L1599.68 682.861ZM1592.55 705.986C1600.72 701.469 1603.84 691.349 1599.75 683.059L1596.06 684.876C1599.18 691.207 1596.8 698.939 1590.56 702.389L1592.55 705.986ZM1568.89 699.168C1573.54 707.584 1584.13 710.637 1592.55 705.986L1590.56 702.389C1584.13 705.942 1576.04 703.61 1572.48 697.18L1568.89 699.168ZM1575.71 675.507C1567.29 680.158 1564.24 690.751 1568.89 699.168L1572.48 697.18C1568.93 690.75 1571.26 682.657 1577.69 679.104L1575.71 675.507ZM1576.01 675.344C1575.91 675.397 1575.81 675.451 1575.71 675.507L1577.69 679.104C1577.77 679.061 1577.85 679.02 1577.93 678.979L1576.01 675.344ZM1558.84 642.945L1576.37 674.678L1579.97 672.69L1562.44 640.957L1558.84 642.945ZM1595.7 683.859C1595.78 684.178 1595.89 684.526 1596.06 684.876L1599.75 683.059C1599.73 683.023 1599.71 682.96 1599.68 682.861L1595.7 683.859ZM1578.37 641.013C1575.62 641.705 1574.28 644.806 1575.65 647.283L1579.24 645.295C1579.18 645.178 1579.24 645.031 1579.37 644.998L1578.37 641.013ZM1577.93 678.979C1579.99 677.889 1581.33 675.145 1579.97 672.69L1576.37 674.678C1576.4 674.72 1576.42 674.795 1576.37 674.936C1576.31 675.091 1576.18 675.25 1576.01 675.344L1577.93 678.979ZM1567.73 634.952C1568.52 635.267 1569.58 635.493 1570.71 635.209L1569.7 631.224C1569.69 631.228 1569.55 631.252 1569.25 631.133L1567.73 634.952Z" fill="black" mask="url(#path-32-inside-5_183_2)"/>
<path d="M1409.94 578.094L1453.77 571.542L1479.72 606.716L1420.34 645.151L1412.96 630.427L1441.83 607.457L1405.58 620.306L1361.98 561.918C1371.39 557.532 1382.43 558.538 1390.89 564.552L1409.94 578.094Z" fill="#343434" stroke="black" stroke-width="1.66013"/>
<path d="M1690.2 521.699L1765.69 419.745L1653.64 376.556L1631.15 495.956L1690.2 521.699Z" fill="#E3BE63" stroke="black" stroke-width="1.66013"/>
<path d="M1739.29 709.826L1729.06 688.542L1742.86 662.842L1783.01 687.676L1776.24 696.332L1754.14 685.48L1772.24 703.671L1747.33 739.258L1712.47 739.258C1712.47 728.104 1719.21 718.055 1729.53 713.825L1739.29 709.826Z" fill="#343434"/>
<path d="M1739.29 709.826L1729.06 688.542L1742.86 662.842L1783.01 687.676L1776.24 696.332L1754.14 685.48L1772.24 703.671L1747.33 739.258L1712.47 739.258V739.258C1712.47 728.104 1719.21 718.055 1729.53 713.825L1739.29 709.826ZM1739.29 709.826L1749.07 711.223" stroke="black" stroke-width="1.66013" stroke-linecap="round"/>
<path d="M1591.15 245.832L1632.63 242.081C1626.44 289.326 1651.45 335.163 1694.53 355.531L1702.54 359.321C1711.03 363.333 1719.82 366.671 1728.82 369.304L1791.91 387.74C1840.82 402.035 1878.76 440.778 1892.02 489.981L1862.28 503.229C1840.81 461.459 1802.61 430.78 1757.19 418.842L1721.07 409.348C1709.55 406.32 1698.28 402.413 1687.35 397.661C1632.77 373.917 1596.05 321.65 1592.21 262.252L1591.15 245.832Z" fill="#E3BE63" stroke="black" stroke-width="1.66013"/>
<path d="M1725.01 642.275L1752.65 662.175C1753.5 662.785 1753.72 663.948 1753.17 664.829L1731.78 698.533C1731.14 699.529 1729.86 699.891 1728.8 699.375C1671.56 671.533 1640.97 607.813 1655.21 545.771L1629.04 539.782C1597.81 532.636 1565.05 540.825 1540.85 561.824L1521.54 578.586L1485.15 613.555C1482.11 616.475 1477.24 616.224 1474.52 613.007L1441.55 574.04C1439.37 571.464 1439.78 567.591 1442.45 565.526L1489.39 529.191C1518.36 506.765 1551.89 490.958 1587.62 482.881C1606.84 478.538 1626.96 481.009 1644.55 489.871L1689.46 512.491C1702.27 518.945 1707.5 534.504 1701.2 547.388C1684.95 580.594 1695.01 620.677 1725.01 642.275Z" fill="#508664"/>
<path d="M1673.06 551.318L1655.21 545.771M1655.21 545.771L1629.04 539.782C1597.81 532.636 1565.05 540.825 1540.85 561.824L1521.54 578.586L1485.15 613.555C1482.11 616.475 1477.24 616.224 1474.52 613.007L1441.55 574.04C1439.37 571.464 1439.78 567.591 1442.45 565.526L1489.39 529.191C1518.36 506.765 1551.89 490.958 1587.62 482.881V482.881C1606.84 478.538 1626.96 481.009 1644.55 489.871L1689.46 512.491C1702.27 518.945 1707.5 534.504 1701.2 547.388V547.388C1684.95 580.594 1695.01 620.677 1725.01 642.275L1752.65 662.175C1753.5 662.785 1753.72 663.948 1753.17 664.829L1731.78 698.533C1731.14 699.529 1729.86 699.891 1728.8 699.375V699.375C1671.56 671.533 1640.97 607.813 1655.21 545.771V545.771Z" stroke="black" stroke-width="1.66013"/>
<rect x="-0.549574" y="0.759222" width="45.0868" height="9.59158" transform="matrix(-0.987412 0.158167 0.158167 0.987412 1637.24 279.475)" fill="#508664" stroke="black" stroke-width="1.32548"/>
<circle cx="11.1735" cy="11.1735" r="10.5108" transform="matrix(-0.959849 -0.280517 -0.280517 0.959849 1630.01 280.889)" fill="white" stroke="black" stroke-width="1.32548"/>
<path d="M1622.94 287.615L1614.24 288.978L1610.79 286.114" stroke="black" stroke-width="1.32548" stroke-linecap="round"/>
<path d="M1857.18 498.275L1848.66 487.104C1854.94 474.242 1866.65 464.853 1880.6 461.524L1882.99 460.952L1891.5 472.098L1857.18 498.275Z" fill="#E3BE63" stroke="black" stroke-width="1.66013"/>
<path d="M1633.23 247.214L1633.23 261.263C1620.43 267.678 1605.42 268.041 1592.32 262.232L1590.07 261.233L1590.07 247.214L1633.23 247.214Z" fill="#E3BE63" stroke="black" stroke-width="1.66013"/>
<path d="M1870.74 532.721C1857.71 526.998 1851.3 510.169 1849.73 502.471L1851.39 499.076C1861.39 478.563 1883.88 467.268 1906.31 471.482L1931.74 499.023L1921.03 509.704L1907.08 528.359L1870.74 532.721Z" fill="#978172" stroke="black" stroke-width="1.66013"/>
<path d="M1900.25 528.582C1903.36 532.378 1907.16 542.378 1897.5 552.007C1887.84 561.637 1877.74 555.657 1873.9 551.464L1867.63 540.25L1862.07 530.29C1861.64 529.513 1861.63 528.555 1862.16 527.834C1864.32 524.845 1868.57 521.063 1873.09 523.449C1878.25 526.173 1885.98 535.352 1889.2 539.602L1900.25 528.582Z" fill="#978172"/>
<path d="M1867.63 540.25L1873.9 551.464C1877.74 555.657 1887.84 561.637 1897.5 552.007C1907.16 542.378 1903.36 532.378 1900.25 528.582L1889.2 539.602C1885.98 535.352 1878.25 526.173 1873.09 523.449C1868.57 521.063 1864.32 524.845 1862.16 527.834C1861.63 528.555 1861.64 529.513 1862.07 530.29V530.29M1867.63 540.25C1869.07 539.776 1872.01 538.108 1872.3 535.219C1872.6 532.331 1869.96 529.148 1868.61 527.917C1867.62 527.5 1864.92 527.392 1862.07 530.29M1867.63 540.25L1862.07 530.29" stroke="black" stroke-width="1.66013"/>
<path d="M1908.41 515.888C1903.07 513.459 1892.5 505.697 1892.96 494.077" stroke="#978172" stroke-width="1.66013"/>
<path d="M1915.6 526.232C1918.7 530.028 1922.5 540.028 1912.85 549.658C1903.19 559.287 1893.09 553.308 1889.25 549.114L1882.98 537.9L1877.42 527.941C1876.98 527.163 1876.98 526.206 1877.5 525.485C1879.67 522.496 1883.92 518.713 1888.44 521.1C1893.6 523.824 1901.32 533.003 1904.54 537.252L1915.6 526.232Z" fill="#978172"/>
<path d="M1882.98 537.9L1889.25 549.114C1893.09 553.308 1903.19 559.287 1912.85 549.658C1922.5 540.028 1918.7 530.028 1915.6 526.232L1904.54 537.252C1901.32 533.003 1893.6 523.824 1888.44 521.1C1883.92 518.713 1879.67 522.496 1877.5 525.485C1876.98 526.206 1876.98 527.163 1877.42 527.941V527.941M1882.98 537.9C1884.42 537.427 1887.36 535.758 1887.65 532.869C1887.94 529.981 1885.31 526.798 1883.96 525.567C1882.97 525.151 1880.27 525.042 1877.42 527.941M1882.98 537.9L1877.42 527.941" stroke="black" stroke-width="1.66013"/>
<path d="M1928.82 524.43C1931.93 528.226 1935.73 538.226 1926.07 547.856C1916.41 557.485 1906.31 551.506 1902.47 547.313L1896.2 536.098L1890.64 526.139C1890.21 525.361 1890.2 524.404 1890.73 523.683C1892.89 520.694 1897.14 516.912 1901.66 519.298C1906.82 522.022 1914.55 531.201 1917.77 535.45L1928.82 524.43Z" fill="#978172"/>
<path d="M1896.2 536.098L1902.47 547.313C1906.31 551.506 1916.41 557.485 1926.07 547.856C1935.73 538.226 1931.93 528.226 1928.82 524.43L1917.77 535.45C1914.55 531.201 1906.82 522.022 1901.66 519.298C1897.14 516.912 1892.89 520.694 1890.73 523.683C1890.2 524.404 1890.21 525.361 1890.64 526.139V526.139M1896.2 536.098C1897.64 535.625 1900.58 533.956 1900.87 531.068C1901.17 528.179 1898.53 524.996 1897.18 523.766C1896.19 523.349 1893.49 523.24 1890.64 526.139M1896.2 536.098L1890.64 526.139" stroke="black" stroke-width="1.66013"/>
<path d="M1949.35 537.834C1940.8 527.216 1933.27 514.059 1930.16 510.263L1919.59 513.962C1919.59 513.962 1908.25 517.273 1910.36 522.707C1912.58 528.399 1921.06 543.241 1925.8 551.392C1927.96 555.109 1930.34 558.683 1932.89 562.14L1946.09 579.966C1950.25 585.591 1956.05 589.792 1962.69 591.992C1973.02 595.416 1982.12 584.268 1976.7 574.831L1973.23 568.792C1972.29 567.162 1971.24 565.6 1970.09 564.117C1966.13 559.044 1956.26 546.404 1949.35 537.834Z" fill="#978172" stroke="black" stroke-width="1.66013"/>
<path d="M1917.09 483.39L1933.1 499.453C1935.84 503.888 1938.75 515.326 1928.45 525.595C1926.17 527.866 1923.98 529.617 1921.91 530.951C1917.13 534.037 1911.75 535.404 1908.83 535.299C1907.31 535.245 1904.85 534.557 1904.05 534.165C1900.03 531.888 1892.4 526.305 1898.39 519.81C1904.37 513.314 1914.89 510.084 1917.6 509.648L1917.09 483.39Z" fill="#978172"/>
<path d="M1921.91 530.951C1923.98 529.617 1926.17 527.866 1928.45 525.595C1938.75 515.326 1935.84 503.888 1933.1 499.453L1917.09 483.39L1917.6 509.648C1914.89 510.084 1904.37 513.314 1898.39 519.81C1892.4 526.305 1900.03 531.888 1904.05 534.165C1904.85 534.557 1907.31 535.245 1908.83 535.299M1921.91 530.951C1920.54 527.292 1916.59 520.655 1911.76 523.373C1906.92 526.091 1907.37 532.628 1908.83 535.299M1921.91 530.951C1917.13 534.037 1911.75 535.404 1908.83 535.299" stroke="black" stroke-width="1.66013"/>
<path d="M1911.49 478.338L1918.74 485.92L1920.59 512.115L1916.42 508.746L1911.49 478.338Z" fill="#978172"/>
<path d="M1583.52 207.319C1574.83 218.585 1577.27 236.425 1579.57 243.937L1582.65 246.123C1601.27 259.333 1626.41 258.476 1644.09 244.029L1653.21 207.673L1638.69 203.43L1617.51 193.737L1583.52 207.319Z" fill="#978172" stroke="black" stroke-width="1.66013"/>
<path d="M1611.41 196.814C1612.32 191.993 1610.86 181.395 1597.77 177.57C1584.68 173.744 1578.68 183.831 1577.32 189.353L1577.19 202.198L1577.08 213.606C1577.07 214.496 1577.53 215.337 1578.33 215.72C1581.67 217.306 1587.21 218.59 1590.03 214.33C1593.25 209.468 1595.64 197.708 1596.43 192.436L1611.41 196.814Z" fill="#978172"/>
<path d="M1577.19 202.198L1577.32 189.353C1578.68 183.831 1584.68 173.744 1597.77 177.57C1610.86 181.395 1612.32 191.993 1611.41 196.814L1596.43 192.436C1595.64 197.708 1593.25 209.468 1590.03 214.33C1587.21 218.59 1581.67 217.306 1578.33 215.72C1577.53 215.337 1577.07 214.496 1577.08 213.606V213.606M1577.19 202.198C1578.68 201.926 1582.06 201.98 1583.7 204.376C1585.34 206.772 1584.55 210.827 1583.96 212.555C1583.29 213.396 1580.97 214.784 1577.08 213.606M1577.19 202.198L1577.08 213.606" stroke="black" stroke-width="1.66013"/>
<path d="M1624.66 204.045C1621.13 208.736 1615.58 220.613 1621.54 230.594" stroke="#978172" stroke-width="1.66013"/>
<path d="M1626.01 191.523C1626.92 186.702 1625.46 176.104 1612.37 172.279C1599.28 168.453 1593.28 178.54 1591.92 184.062L1591.79 196.907L1591.68 208.315C1591.67 209.205 1592.13 210.046 1592.93 210.429C1596.26 212.014 1601.81 213.299 1604.63 209.039C1607.85 204.177 1610.24 192.417 1611.03 187.145L1626.01 191.523Z" fill="#978172"/>
<path d="M1591.79 196.907L1591.92 184.062C1593.28 178.54 1599.28 168.453 1612.37 172.279C1625.46 176.104 1626.92 186.702 1626.01 191.523L1611.03 187.145C1610.24 192.417 1607.85 204.177 1604.63 209.039C1601.81 213.299 1596.26 212.014 1592.93 210.429C1592.13 210.046 1591.67 209.205 1591.68 208.315V208.315M1591.79 196.907C1593.28 196.635 1596.66 196.689 1598.3 199.085C1599.94 201.481 1599.15 205.536 1598.55 207.264C1597.88 208.105 1595.57 209.493 1591.68 208.315M1591.79 196.907L1591.68 208.315" stroke="black" stroke-width="1.66013"/>
<path d="M1638.48 186.77C1639.38 181.949 1637.93 171.351 1624.84 167.526C1611.75 163.7 1605.75 173.787 1604.38 179.308L1604.26 192.154L1604.15 203.562C1604.14 204.452 1604.59 205.293 1605.4 205.675C1608.73 207.261 1614.27 208.545 1617.1 204.286C1620.32 199.424 1622.7 187.664 1623.5 182.392L1638.48 186.77Z" fill="#978172"/>
<path d="M1604.26 192.154L1604.38 179.308C1605.75 173.787 1611.75 163.7 1624.84 167.526C1637.93 171.351 1639.38 181.949 1638.48 186.77L1623.5 182.392C1622.7 187.664 1620.32 199.424 1617.1 204.286C1614.27 208.545 1608.73 207.261 1605.4 205.675C1604.59 205.293 1604.14 204.452 1604.15 203.562V203.562M1604.26 192.154C1605.74 191.882 1609.13 191.936 1610.77 194.332C1612.41 196.728 1611.62 200.783 1611.02 202.511C1610.35 203.352 1608.04 204.74 1604.15 203.562M1604.26 192.154L1604.15 203.562" stroke="black" stroke-width="1.66013"/>
<path d="M1650.08 165.165C1647.66 178.586 1647.35 193.74 1646.45 198.56L1635.39 200.381C1635.39 200.381 1623.85 202.908 1623.1 197.123C1622 188.581 1622.06 173.31 1623.1 158.11C1623.72 149.148 1625.46 137.347 1626.8 129.08C1627.85 122.548 1630.9 116.527 1635.42 111.691C1643 103.576 1656.59 109.111 1656.34 120.211L1656.2 126.555C1656.16 128.435 1655.99 130.307 1655.69 132.163C1654.65 138.509 1652.04 154.333 1650.08 165.165Z" fill="#978172" stroke="black" stroke-width="1.66013"/>
<path d="M1647.84 228.415L1654.2 206.641C1654.48 201.435 1651.55 190.003 1637.6 185.924C1634.51 185.021 1631.74 184.535 1629.29 184.356C1623.61 183.939 1618.23 185.316 1615.72 186.806C1614.41 187.583 1612.59 189.364 1612.07 190.092C1609.63 194.018 1605.61 202.571 1613.98 205.405C1622.34 208.239 1633.12 206.037 1635.71 205.121L1647.84 228.415Z" fill="#978172"/>
<path d="M1629.29 184.356C1631.74 184.535 1634.51 185.021 1637.6 185.924C1651.55 190.003 1654.48 201.435 1654.2 206.641L1647.84 228.415L1635.71 205.121C1633.12 206.037 1622.34 208.239 1613.98 205.405C1605.61 202.571 1609.63 194.018 1612.07 190.092C1612.59 189.364 1614.41 187.583 1615.72 186.806M1629.29 184.356C1629.84 188.223 1629.55 195.94 1624 195.873C1618.46 195.805 1615.72 189.851 1615.72 186.806M1629.29 184.356C1623.61 183.939 1618.23 185.316 1615.72 186.806" stroke="black" stroke-width="1.66013"/>
<path d="M1645.35 235.531L1648.09 225.398L1637.15 201.523L1635.11 206.476L1645.35 235.531Z" fill="#978172"/>
<path d="M1726.54 472.426L1734.01 460.815C1727.57 452.941 1718.36 437.684 1710.57 419.104C1702.67 400.285 1696.18 377.981 1695.5 356.402L1684.44 350.739C1684.45 365.519 1688.17 388.198 1694.31 407.955C1695.4 411.447 1693.81 415.07 1691.24 417.385C1683.83 424.035 1681.27 434.998 1685.71 444.515L1687.47 448.29C1692.31 458.666 1703.4 464.231 1714.27 462.432C1716.73 462.025 1719.39 462.877 1720.86 465.037C1722.79 467.863 1724.62 470.344 1726.54 472.426Z" fill="#508664" stroke="black" stroke-width="1.66013" stroke-linecap="round"/>
<path d="M1704.08 432.759L1700.96 425.933" stroke="white" stroke-width="1.66013" stroke-linecap="round"/>
<path d="M1693.17 366.124C1693.17 366.124 1692.78 363.485 1692.65 361.977C1692.53 360.435 1692.46 357.822 1692.46 357.822" stroke="white" stroke-width="1.66013" stroke-linecap="round"/>
<path fill-rule="evenodd" clip-rule="evenodd" d="M1707.72 343.017C1706.57 348.252 1708.46 353.451 1712.23 356.754C1712.87 357.32 1713.15 358.22 1712.84 359.019L1706.59 375.02C1706.34 375.677 1706.47 376.429 1706.97 376.919C1711.36 381.158 1717.82 382.547 1723.6 380.403C1724.09 380.224 1724.45 379.821 1724.59 379.322L1730.39 357.652C1730.5 357.273 1730.72 356.939 1731.01 356.678C1733.16 354.763 1734.76 352.176 1735.43 349.146C1737.12 341.496 1732.29 333.923 1724.64 332.23C1719.75 331.149 1714.9 332.729 1711.59 336.005C1711.26 336.334 1710.73 336.383 1710.36 336.097L1709.58 335.492C1709.58 335.49 1709.58 335.491 1709.57 335.494C1709.57 335.498 1709.57 335.499 1709.56 335.496C1709.25 335.279 1708.89 335.119 1708.5 335.031C1706.87 334.671 1705.25 335.699 1704.89 337.328C1704.59 338.677 1705.25 340.015 1706.41 340.64C1706.41 340.641 1706.41 340.644 1706.41 340.646C1706.41 340.647 1706.41 340.65 1706.41 340.651L1707.38 341.092C1707.83 341.294 1708.04 341.799 1707.91 342.269C1707.84 342.515 1707.78 342.765 1707.72 343.017Z" fill="#978172"/>
<path d="M1706.41 340.651L1706.8 339.8L1706.41 340.651ZM1709.56 335.496L1710.1 334.728L1709.56 335.496ZM1709.58 335.492L1710.16 334.754L1709.58 335.492ZM1707.91 342.269L1708.81 342.52L1707.91 342.269ZM1706.41 340.64L1706.85 339.818L1706.41 340.64ZM1706.59 375.02L1705.72 374.68L1706.59 375.02ZM1706.97 376.919L1707.62 376.247L1706.97 376.919ZM1711.61 357.457C1707.6 353.938 1705.58 348.396 1706.81 342.815L1708.64 343.219C1707.56 348.108 1709.32 352.964 1712.84 356.052L1711.61 357.457ZM1705.72 374.68L1711.97 358.679L1713.71 359.359L1707.46 375.36L1705.72 374.68ZM1723.93 381.279C1717.81 383.548 1710.97 382.078 1706.32 377.591L1707.62 376.247C1711.75 380.237 1717.83 381.545 1723.28 379.527L1723.93 381.279ZM1731.3 357.894L1725.49 379.564L1723.68 379.08L1729.49 357.41L1731.3 357.894ZM1736.34 349.348C1735.63 352.576 1733.93 355.335 1731.63 357.376L1730.39 355.979C1732.4 354.191 1733.89 351.775 1734.52 348.944L1736.34 349.348ZM1724.84 331.318C1733 333.122 1738.14 341.194 1736.34 349.348L1734.52 348.944C1736.1 341.798 1731.58 334.724 1724.44 333.143L1724.84 331.318ZM1710.93 335.341C1714.46 331.851 1719.63 330.165 1724.84 331.318L1724.44 333.143C1719.88 332.133 1715.34 333.607 1712.25 336.67L1710.93 335.341ZM1710.16 334.754L1710.93 335.359L1709.79 336.835L1709.01 336.231L1710.16 334.754ZM1708.7 334.119C1709.21 334.233 1709.68 334.443 1710.1 334.728L1709.03 336.265C1708.82 336.116 1708.57 336.004 1708.29 335.944L1708.7 334.119ZM1703.98 337.127C1704.45 334.993 1706.56 333.647 1708.7 334.119L1708.29 335.944C1707.17 335.695 1706.05 336.405 1705.81 337.53L1703.98 337.127ZM1705.96 341.463C1704.45 340.645 1703.59 338.894 1703.98 337.127L1705.81 337.53C1705.6 338.461 1706.05 339.386 1706.85 339.818L1705.96 341.463ZM1707 341.943L1706.02 341.502L1706.8 339.8L1707.77 340.241L1707 341.943ZM1706.81 342.815C1706.87 342.547 1706.94 342.281 1707.01 342.019L1708.81 342.52C1708.75 342.75 1708.69 342.983 1708.64 343.219L1706.81 342.815ZM1707.2 341.135C1707.5 340.657 1707.31 340.031 1706.8 339.8L1706.02 341.502C1705.51 341.269 1705.32 340.638 1705.61 340.156L1707.2 341.135ZM1710.37 335.983C1710.09 336.445 1709.47 336.572 1709.03 336.265L1710.1 334.728C1709.66 334.426 1709.06 334.551 1708.78 335.005L1710.37 335.983ZM1709.01 336.231C1709.45 336.569 1710.08 336.454 1710.37 335.983L1708.78 335.005C1709.07 334.527 1709.71 334.41 1710.16 334.754L1709.01 336.231ZM1712.25 336.67C1711.6 337.304 1710.55 337.429 1709.79 336.835L1710.93 335.359C1710.93 335.357 1710.93 335.356 1710.93 335.354C1710.93 335.353 1710.92 335.352 1710.92 335.351C1710.92 335.35 1710.91 335.35 1710.91 335.35C1710.91 335.35 1710.92 335.349 1710.92 335.348C1710.92 335.346 1710.93 335.344 1710.93 335.341L1712.25 336.67ZM1707.77 340.241C1708.66 340.647 1709.06 341.639 1708.81 342.52L1707.01 342.019C1707.02 341.995 1707.01 341.973 1707.01 341.958C1707 341.951 1707 341.947 1707 341.946C1707 341.945 1707 341.944 1707 341.943L1707.77 340.241ZM1723.28 379.527C1723.48 379.453 1723.63 379.286 1723.68 379.08L1725.49 379.564C1725.28 380.355 1724.7 380.995 1723.93 381.279L1723.28 379.527ZM1706.85 339.818C1707.32 340.072 1707.49 340.672 1707.2 341.135L1705.61 340.156C1705.33 340.615 1705.5 341.211 1705.96 341.463L1706.85 339.818ZM1707.46 375.36C1707.33 375.702 1707.41 376.045 1707.62 376.247L1706.32 377.591C1705.52 376.813 1705.34 375.651 1705.72 374.68L1707.46 375.36ZM1729.49 357.41C1729.65 356.836 1729.98 356.348 1730.39 355.979L1731.63 357.376C1731.46 357.53 1731.35 357.711 1731.3 357.894L1729.49 357.41ZM1712.84 356.052C1713.74 356.839 1714.19 358.143 1713.71 359.359L1711.97 358.679C1712.12 358.297 1712 357.801 1711.61 357.457L1712.84 356.052Z" fill="black"/>
<path d="M1740.01 320.097C1738.03 329.058 1743.69 337.928 1752.65 339.911C1761.61 341.893 1770.48 336.237 1772.46 327.276C1774.44 318.316 1768.79 309.445 1759.83 307.463C1750.87 305.481 1741.99 311.137 1740.01 320.097Z" fill="black" stroke="black" stroke-width="1.86912"/>
<path d="M1735.44 350.468C1736.21 350.104 1736.61 349.652 1737.23 348.94C1737.53 348.598 1737.88 348.197 1738.35 347.718C1739.8 346.233 1740.86 344.412 1741.44 342.418C1742.02 340.424 1742.1 338.317 1741.68 336.284C1741.25 334.252 1740.32 332.357 1738.99 330.766C1737.65 329.176 1735.95 327.939 1734.02 327.166C1732.09 326.393 1730 326.107 1727.94 326.334C1725.87 326.561 1723.9 327.294 1722.18 328.467C1720.72 329.466 1719.49 330.759 1718.57 332.258C1726 336.357 1731.92 342.74 1735.44 350.468Z" fill="black" stroke="black" stroke-width="1.86912"/>
<path d="M1767.76 328.676C1768.34 327.59 1768.62 326.386 1768.73 325.244C1769.05 322.098 1768.21 318.861 1766.43 316.245C1765.91 315.477 1765.29 314.768 1764.56 314.281" stroke="white" stroke-width="1.66013" stroke-linecap="round"/>
<path d="M1738.37 341.675C1739.07 340.369 1739.24 339.31 1739.12 337.757V337.757C1738.94 335.524 1737.93 333.069 1735.89 332.15C1735.73 332.078 1735.56 332.018 1735.39 331.972" stroke="white" stroke-width="1.66013" stroke-linecap="round"/>
<circle cx="2.14881" cy="2.14881" r="2.14881" transform="matrix(-0.976388 -0.216025 -0.216025 0.976388 1719.76 337.162)" fill="black"/>
<circle cx="2.14881" cy="2.14881" r="2.14881" transform="matrix(-0.976388 -0.216025 -0.216025 0.976388 1704.4 332.915)" fill="black"/>
<path d="M1629.13 288.44L1636.56 287.357" stroke="white" stroke-width="1.66013" stroke-linecap="round"/>
<path d="M1596.92 293.675L1604.08 292.595" stroke="white" stroke-width="1.66013" stroke-linecap="round"/>
<mask id="path-83-inside-6_183_2" fill="white">
<rect x="881.426" y="81.8236" width="32.6908" height="10.8583" rx="1.65733" transform="rotate(-11.787 881.426 81.8236)"/>
</mask>
<rect x="881.426" y="81.8236" width="32.6908" height="10.8583" rx="1.65733" transform="rotate(-11.787 881.426 81.8236)" fill="white" stroke="black" stroke-width="4" mask="url(#path-83-inside-6_183_2)"/>
<path fill-rule="evenodd" clip-rule="evenodd" d="M885.5 122.182L956.886 107.286L962.779 106.056L1034.16 91.1595L1061.11 344.318L1014.53 354.04L1008.63 355.27L962.046 364.991L885.5 122.182Z" fill="white"/>
<path d="M885.5 122.182L885.296 121.203L884.214 121.429L884.546 122.482L885.5 122.182ZM1034.16 91.1595L1035.16 91.0537L1035.04 89.9549L1033.96 90.1806L1034.16 91.1595ZM1061.11 344.318L1061.32 345.297L1062.2 345.112L1062.11 344.212L1061.11 344.318ZM962.046 364.991L961.092 365.292L961.364 366.155L962.25 365.97L962.046 364.991ZM956.681 106.307L885.296 121.203L885.704 123.161L957.09 108.264L956.681 106.307ZM957.09 108.264L962.983 107.035L962.574 105.077L956.681 106.307L957.09 108.264ZM962.983 107.035L1034.37 92.1384L1033.96 90.1806L962.574 105.077L962.983 107.035ZM1033.17 91.2654L1060.12 344.424L1062.11 344.212L1035.16 91.0537L1033.17 91.2654ZM1060.91 343.339L1014.32 353.061L1014.73 355.019L1061.32 345.297L1060.91 343.339ZM1014.32 353.061L1008.43 354.291L1008.84 356.248L1014.73 355.019L1014.32 353.061ZM962.25 365.97L1008.84 356.248L1008.43 354.291L961.842 364.012L962.25 365.97ZM884.546 122.482L961.092 365.292L963 364.69L886.454 121.881L884.546 122.482Z" fill="black"/>
<path d="M880.951 87.4679L882.603 108.296L1031.27 77.2738L1024.27 62.1813L880.951 87.4679Z" fill="white" stroke="black" stroke-width="2"/>
<path d="M882.959 122.712L883.966 114.071L1033.06 82.9589L1036.7 90.6292L882.959 122.712Z" fill="white" stroke="black" stroke-width="2"/>
<rect x="880.834" y="108.804" width="155.536" height="5.42219" rx="2.7111" transform="rotate(-11.787 880.834 108.804)" fill="white" stroke="black" stroke-width="2"/>
<path fill-rule="evenodd" clip-rule="evenodd" d="M904.52 193.175L971.888 179.117L977.03 178.044L1044.4 163.986L1054.58 250.88L994.83 263.348L989.689 264.421L929.939 276.889L904.52 193.175Z" fill="#E3BE63"/>
<path d="M904.52 193.175L904.315 192.196L903.245 192.419L903.563 193.465L904.52 193.175ZM1044.4 163.986L1045.39 163.869L1045.26 162.783L1044.19 163.007L1044.4 163.986ZM1054.58 250.88L1054.78 251.859L1055.68 251.672L1055.57 250.763L1054.58 250.88ZM929.939 276.889L928.982 277.18L929.248 278.055L930.143 277.868L929.939 276.889ZM971.684 178.138L904.315 192.196L904.724 194.154L972.093 180.096L971.684 178.138ZM972.093 180.096L977.234 179.023L976.825 177.065L971.684 178.138L972.093 180.096ZM977.234 179.023L1044.6 164.965L1044.19 163.007L976.825 177.065L977.234 179.023ZM1043.41 164.102L1053.59 250.996L1055.57 250.763L1045.39 163.869L1043.41 164.102ZM1054.38 249.901L994.626 262.369L995.035 264.327L1054.78 251.859L1054.38 249.901ZM994.626 262.369L989.485 263.442L989.893 265.4L995.035 264.327L994.626 262.369ZM930.143 277.868L989.893 265.4L989.485 263.442L929.735 275.91L930.143 277.868ZM903.563 193.465L928.982 277.18L930.896 276.599L905.476 192.884L903.563 193.465Z" fill="black"/>
<circle cx="983.728" cy="221.187" r="32.0898" transform="rotate(83.8775 983.728 221.187)" fill="#508664" stroke="black" stroke-width="2"/>
<mask id="mask0_183_2" style="mask-type:alpha" maskUnits="userSpaceOnUse" x="955" y="193" width="58" height="58">
<circle cx="983.876" cy="221.9" r="28.4249" transform="rotate(83.8775 983.876 221.9)" fill="white"/>
</mask>
<g mask="url(#mask0_183_2)">
<path d="M977.608 194.456C977.626 194.378 977.729 194.358 977.776 194.424L979.864 197.361L983.547 196.8C983.628 196.787 983.685 196.878 983.639 196.946L981.468 200.113L984.679 205.118L979.283 202.686L974.991 207.732L976.452 201.159L973.068 199.159C972.995 199.116 973.012 199.006 973.094 198.987L976.74 198.127L977.608 194.456Z" fill="white"/>
<path d="M980.816 207.276C976.873 208.099 972.161 211.029 970.351 212.28L969.366 210.335L968.038 208.583L966.372 206.858L967.114 206.616L968.588 206.604L971.125 207.033L970.888 206.316L970.383 205.272L969.101 203.525L970.099 203.317L971.533 203.508L974.239 204.367L977.95 205.532L982.309 204.58L983.79 202.781L986.689 200.304L989.082 199.209L988.766 201.98L988.833 203.219L990.983 201.838L992.149 201.274L992.976 201.101C992.976 201.101 991.367 204.998 991.706 207.647C989.702 207.192 984.759 206.453 980.816 207.276Z" fill="white"/>
<path d="M981.901 224.785C980.939 224.986 980.734 226.251 980.37 227.163L979.564 229.183C979.137 229.999 978.979 230.963 979.182 231.935C979.446 233.198 980.556 234.479 981.874 235.267C982.329 235.54 982.721 235.908 983.066 236.311C983.112 236.366 983.16 236.419 983.209 236.47C984.141 237.451 984.906 238.883 985.182 240.207C985.25 240.531 985.13 240.979 985.005 241.448C984.771 242.322 984.518 243.228 984.211 244.078C983.702 245.484 983.547 247.06 983.815 248.345C984.418 251.233 987.248 253.085 990.136 252.483C993.024 251.88 994.877 249.05 994.274 246.162C994.04 245.041 993.422 243.846 992.585 242.838C991.914 242.029 991.236 241.156 990.538 240.37C990.179 239.966 989.837 239.581 989.768 239.25C989.492 237.925 989.62 236.306 990.081 235.033C990.092 235.001 990.103 234.969 990.114 234.936C990.259 234.501 990.454 234.08 990.718 233.705C991.63 232.409 992.109 230.639 991.829 229.296C991.653 228.453 991.231 227.724 990.654 227.169C990.651 227.167 990.653 227.162 990.657 227.162C990.66 227.162 990.662 227.158 990.66 227.155L987.758 224.285C987.471 223.918 986.991 223.723 986.503 223.825C986.468 223.833 986.433 223.841 986.398 223.852C985.715 224.056 985.045 224.598 984.347 224.743C983.603 224.899 982.696 224.649 981.948 224.777C981.932 224.779 981.916 224.782 981.901 224.785Z" fill="white"/>
<path d="M1003.47 201.582C1003.83 206.763 1010.13 212.045 1010.13 212.045C1010.13 212.045 1008.74 213.164 1006.95 212.987C1004.05 212.701 1004.97 211.597 999.797 212.505C998.835 211.108 995.385 209.216 993.418 208.442C993.467 206.868 997.865 206.329 1000.66 207.601C1000.6 205.62 1000.44 204.991 1001.22 203.636C1001.86 202.525 1002.83 200.892 1003.47 201.582Z" fill="white"/>
<path d="M957.016 211.275C958.759 216.168 955.098 223.529 955.098 223.529C955.098 223.529 956.819 223.998 958.388 223.121C960.931 221.699 959.65 221.054 964.752 219.818C965.074 218.153 967.48 215.039 968.974 213.543C968.299 212.12 964.053 213.384 962.004 215.667C961.26 213.83 961.159 213.188 959.901 212.259C958.87 211.496 957.329 210.386 957.016 211.275Z" fill="white"/>
<path fill-rule="evenodd" clip-rule="evenodd" d="M981.509 208.343L981.511 208.344L981.513 208.345C982.405 208.123 984.17 208.056 985.736 209.221C986.04 209.488 986.648 210.115 986.651 210.486C986.657 211.13 985.933 211.18 985.15 211.235C984.601 211.273 984.023 211.313 983.645 211.562C983.238 211.83 982.936 212.178 982.957 212.604C982.984 213.154 983.054 213.726 983.124 214.18C983.198 214.665 983.382 215.51 983.833 215.318C983.845 215.313 983.857 215.307 983.869 215.301C983.981 215.238 984.087 215.165 984.194 215.091C984.407 214.944 984.619 214.798 984.871 214.745C985.021 214.714 985.175 214.707 985.328 214.723L985.661 214.76C985.865 214.783 986.071 214.763 986.266 214.702L986.447 214.645C986.619 214.591 986.77 214.486 986.88 214.343C986.992 214.198 987.153 214.074 987.332 214.118C987.634 214.192 988.016 214.521 988.185 215.463C988.385 216.579 988.109 218.328 987.885 219.349C987.827 219.612 987.741 219.868 987.617 220.107C987.091 221.119 985.992 222.681 984.601 223.121C984.598 223.122 984.596 223.126 984.596 223.129C984.597 223.133 984.595 223.136 984.591 223.137L983.027 223.463C983.026 223.464 983.024 223.463 983.024 223.461C983.024 223.46 983.022 223.459 983.021 223.459C981.544 223.668 979.857 222.645 978.952 221.911C978.745 221.744 978.566 221.546 978.41 221.331C977.796 220.486 976.841 218.99 976.578 217.885C976.356 216.954 976.574 216.499 976.822 216.311C976.968 216.199 977.165 216.249 977.326 216.337C977.483 216.424 977.664 216.46 977.843 216.441L978.032 216.42C978.235 216.398 978.432 216.334 978.61 216.232L978.9 216.065C979.033 215.988 979.178 215.933 979.328 215.902C979.58 215.849 979.833 215.899 980.087 215.948C980.214 215.973 980.341 215.998 980.469 216.01C980.482 216.011 980.496 216.012 980.508 216.012C980.998 216.008 980.829 215.159 980.703 214.685C980.585 214.241 980.421 213.689 980.226 213.174C980.075 212.775 979.658 212.577 979.178 212.494C978.733 212.417 978.187 212.611 977.668 212.796C976.928 213.059 976.246 213.303 975.993 212.71C975.848 212.369 976.154 211.551 976.325 211.185C977.328 209.433 979.051 208.804 979.936 208.679C979.938 208.679 979.939 208.677 979.939 208.675C979.938 208.673 979.939 208.671 979.941 208.67L981.509 208.343ZM982.455 217.498L982.774 217.319C982.896 217.251 983.034 217.216 983.174 217.218L983.24 217.219C983.355 217.221 983.466 217.258 983.56 217.324L983.686 217.412C983.724 217.439 983.751 217.479 983.761 217.525C983.774 217.588 983.753 217.653 983.706 217.697L983.587 217.809C983.56 217.834 983.531 217.856 983.499 217.874L982.939 218.196C982.814 218.268 982.678 218.32 982.537 218.349C982.369 218.384 982.195 218.387 982.025 218.358L981.517 218.27L981.089 218.223C981.024 218.216 980.972 218.168 980.959 218.105C980.95 218.062 980.96 218.018 980.986 217.984L981.134 217.789C981.246 217.642 981.411 217.546 981.594 217.522L981.721 217.506C981.806 217.495 981.893 217.506 981.973 217.539C982.065 217.577 982.166 217.586 982.263 217.566L982.289 217.56C982.347 217.548 982.403 217.527 982.455 217.498ZM980.458 219.855L985.319 218.899C985.184 219.52 984.408 221.03 983.234 221.275C982.06 221.52 980.534 220.219 980.458 219.855Z" fill="white"/>
<path d="M976.294 215L976.206 214.579C976.153 214.325 976.316 214.075 976.57 214.022L976.786 213.977C977.033 213.922 977.675 213.805 978.27 213.774C978.752 213.748 979.217 214.013 979.489 214.225C979.594 214.308 979.66 214.45 979.588 214.562C979.539 214.64 979.454 214.689 979.316 214.633C979.083 214.539 978.191 214.621 977.693 214.683C977.629 214.691 977.568 214.712 977.515 214.747C977.303 214.885 976.988 215.131 976.963 215.314C976.94 215.473 976.703 215.394 976.503 215.29C976.392 215.232 976.319 215.123 976.294 215Z" fill="white"/>
<path d="M987.106 212.743L987.018 212.323C986.965 212.068 986.716 211.905 986.462 211.958L986.246 212.003C985.998 212.052 985.362 212.201 984.804 212.41C984.353 212.58 984.032 213.008 983.868 213.312C983.805 213.429 983.801 213.586 983.912 213.66C983.988 213.711 984.085 213.722 984.19 213.616C984.366 213.437 985.216 213.155 985.697 213.013C985.758 212.995 985.823 212.99 985.886 213C986.135 213.042 986.522 213.142 986.619 213.299C986.703 213.436 986.889 213.268 987.03 213.094C987.109 212.996 987.132 212.866 987.106 212.743Z" fill="white"/>
<path d="M957.267 226.056C955.919 226.337 954.768 225.807 954.361 225.507L954.924 228.204C955.641 228.507 956.449 228.163 957.654 227.911C958.618 227.71 960.684 225.888 961.597 225.002L962.582 224.545C963.091 224.573 964.045 224.325 963.791 223.111C963.538 221.897 961.625 222.851 960.701 223.48C960.118 224.221 958.616 225.774 957.267 226.056Z" fill="white"/>
<path d="M1009.15 215.229C1010.5 214.948 1011.34 214.001 1011.6 213.563L1012.16 216.261C1011.62 216.825 1010.74 216.833 1009.54 217.084C1008.57 217.285 1005.95 216.442 1004.76 215.995L1003.68 215.97C1003.22 216.199 1002.25 216.353 1001.99 215.139C1001.74 213.925 1003.88 214.034 1004.97 214.241C1005.8 214.688 1007.8 215.51 1009.15 215.229Z" fill="white"/>
<path d="M958.456 230.082C957.924 230.696 956.335 230.734 955.607 230.677L956.495 233.035C957.059 233.076 958.31 232.392 958.866 232.045C959.443 231.264 961.245 230.04 962.073 229.525L963.205 229.091L963.07 227.335L961.677 227.626C960.825 228.189 958.989 229.468 958.456 230.082Z" fill="white"/>
<path d="M1009.67 219.395C1010.41 219.744 1011.88 219.144 1012.52 218.8L1012.65 221.317C1012.15 221.58 1010.73 221.454 1010.08 221.357C1009.24 220.872 1007.1 220.471 1006.13 220.331L1004.92 220.386L1004.34 218.722L1005.74 218.431C1006.74 218.607 1008.94 219.045 1009.67 219.395Z" fill="white"/>
<path d="M970.38 220.603C969.064 217.385 969.865 214.57 970.43 213.565C970.006 213.653 969.441 214.563 969.212 215.006C968.358 216.734 968.581 219.072 968.799 220.024C968.931 220.538 969.389 221.949 970.161 223.48C970.934 225.012 971.06 226.501 971.026 227.055C970.858 227.82 970.391 229.607 969.866 230.634C969.341 231.662 969.216 233.755 969.219 234.673L967.745 236.322C967.551 236.462 967.078 236.81 966.742 237.083C966.405 237.355 965.64 237.397 965.299 237.384C965.313 237.965 965.731 238.808 965.938 239.158C965.773 239.168 965.091 239.433 964.771 239.565L962.464 241.507L963.709 242.901L964.679 241.909C965.236 241.208 966.357 240.928 966.848 240.875C967.321 241.885 967.854 242.269 968.062 242.335C968.86 242.562 970.367 241.362 971.02 240.734L973.082 238.188C971.501 236.897 970.704 234.651 970.503 233.69C970.502 232.732 970.796 230.309 971.983 228.285C973.17 226.262 972.234 224.036 971.617 223.176L970.38 220.603Z" fill="white"/>
<path d="M995.042 215.457C994.96 211.981 993.101 209.721 992.181 209.026C992.605 208.937 993.486 209.545 993.874 209.86C995.348 211.102 996.078 213.334 996.259 214.294C996.344 214.818 996.489 216.294 996.393 218.006C996.298 219.719 996.778 221.135 997.03 221.628C997.49 222.262 998.633 223.714 999.525 224.445C1000.42 225.177 1001.37 227.046 1001.73 227.888L1003.74 228.81C1003.98 228.86 1004.55 228.99 1004.97 229.106C1005.38 229.221 1006.1 228.953 1006.41 228.805C1006.63 229.343 1006.58 230.283 1006.53 230.686C1006.69 230.63 1007.42 230.601 1007.77 230.593L1010.66 231.45L1010.07 233.226L1008.79 232.704C1008 232.285 1006.86 232.476 1006.39 232.624C1006.36 233.739 1006.02 234.305 1005.86 234.448C1005.22 234.975 1003.36 234.478 1002.51 234.164L999.599 232.655C1000.53 230.839 1000.36 228.462 1000.16 227.501C999.781 226.622 998.542 224.519 996.645 223.139C994.748 221.759 994.716 219.345 994.937 218.31L995.042 215.457Z" fill="white"/>
<path d="M976.267 242.745C976.443 241.791 975.683 240.7 975.281 240.273L975.327 242.763C975.249 243.306 974.971 244.634 974.48 245.603C973.989 246.572 973.632 248.18 973.515 248.863L974.7 249.469C974.325 248.548 974.924 246.712 975.27 245.909C975.529 245.252 976.09 243.699 976.267 242.745Z" fill="white"/>
<path d="M998.384 238.13C997.841 237.326 998.1 236.022 998.298 235.47L999.252 237.77C999.541 238.237 1000.33 239.343 1001.16 240.035C1002 240.726 1002.97 242.057 1003.35 242.636L1002.51 243.666C1002.48 242.672 1001.2 241.229 1000.56 240.632C1000.06 240.133 998.927 238.934 998.384 238.13Z" fill="white"/>
<path d="M970.718 246.876L970.223 247.45L968.51 246.346L969.573 245.606C969.905 245.375 970.353 245.407 970.65 245.681C970.991 245.996 971.021 246.524 970.718 246.876Z" fill="white"/>
<path d="M966.825 245.172L965.215 244.047L966.691 242.987L967.484 242.723C967.744 242.636 968.029 242.676 968.256 242.83L968.346 242.892C968.476 242.98 968.566 243.115 968.598 243.269C968.654 243.54 968.52 243.815 968.271 243.937L967.7 244.216L966.825 245.172Z" fill="white"/>
<path d="M960.241 233.518C959.634 234.149 958.267 234.74 957.659 234.956L958.585 236.7C959.017 236.61 959.555 236.272 959.77 236.115C960.228 235.794 961.267 235.005 961.757 234.417C962.247 233.828 963.267 233.449 963.715 233.332L963.373 231.693C962.436 231.843 961 232.729 960.241 233.518Z" fill="white"/>
<path d="M961.411 237.506C961.161 237.864 960.234 238.27 959.801 238.427L961.069 240.077C961.615 239.671 962.768 238.741 963.013 238.275C963.258 237.81 964.383 237.322 964.914 237.136C964.823 236.524 964.462 235.902 964.292 235.667C963.18 235.516 961.723 237.059 961.411 237.506Z" fill="white"/>
<path d="M1005.08 239.704L1005.77 240.033L1006.9 238.336L1005.62 238.083C1005.23 238.005 1004.83 238.212 1004.67 238.582C1004.48 239.007 1004.67 239.503 1005.08 239.704Z" fill="white"/>
<path d="M1007.97 236.587L1009 234.912L1007.22 234.53L1006.39 234.605C1006.11 234.63 1005.87 234.78 1005.72 235.012L1005.66 235.105C1005.58 235.238 1005.55 235.397 1005.58 235.551C1005.64 235.822 1005.87 236.02 1006.15 236.032L1006.79 236.06L1007.97 236.587Z" fill="white"/>
<path d="M1009.34 223.271C1010.15 223.607 1011.64 223.602 1012.29 223.557L1012.13 225.526C1011.7 225.616 1011.07 225.522 1010.81 225.463C1010.27 225.353 1009 225.045 1008.31 224.702C1007.63 224.358 1006.54 224.418 1006.08 224.491L1005.74 222.851C1006.66 222.615 1008.33 222.851 1009.34 223.271Z" fill="white"/>
<path d="M1009.87 227.395C1010.24 227.623 1011.25 227.624 1011.71 227.596L1011.21 229.615C1010.54 229.46 1009.12 229.069 1008.71 228.741C1008.29 228.412 1007.07 228.414 1006.51 228.456C1006.35 227.859 1006.43 227.144 1006.49 226.861C1007.45 226.278 1009.4 227.109 1009.87 227.395Z" fill="white"/>
<path d="M975.133 217.875C973.596 215.067 974.794 211.741 975.585 210.43C975.025 210.951 973.824 212.529 973.5 214.676C973.176 216.823 974.201 218.944 974.754 219.736C975.093 220.136 975.973 221.309 976.78 222.804C977.587 224.298 977.638 225.925 977.562 226.551L976.241 229.351C975.964 230.276 975.489 232.39 975.809 233.451C976.13 234.513 977.329 235.634 977.889 236.062C978.748 236.7 980.619 238.304 981.23 239.622C981.842 240.94 981.528 242.588 981.294 243.247C980.978 244.105 980.28 246.147 980.018 247.449C979.756 248.751 980.218 250.105 980.482 250.62L982.63 250.716C981.624 249.876 981.571 247.694 981.67 246.708L982.645 243.312C982.822 242.697 983.105 241.127 982.82 239.761C982.535 238.394 981.209 237.028 980.582 236.515L978.645 234.939C977.261 233.624 977.163 231.874 977.287 231.163C977.424 230.631 977.889 229.112 978.657 227.288C979.425 225.464 978.791 223.58 978.377 222.866C977.936 222.373 976.67 220.683 975.133 217.875Z" fill="white"/>
<path d="M989.695 214.836C989.98 211.648 987.552 209.079 986.303 208.193C987.024 208.447 988.756 209.414 989.912 211.252C991.068 213.09 990.976 215.444 990.786 216.391C990.635 216.893 990.298 218.319 990.156 220.012C990.014 221.705 990.618 223.216 990.938 223.76L993.268 225.798C993.892 226.534 995.173 228.282 995.304 229.383C995.435 230.485 994.784 231.992 994.442 232.608C993.91 233.536 992.837 235.755 992.803 237.207C992.77 238.66 993.717 240.044 994.195 240.555C994.828 241.215 996.284 242.807 997.045 243.896C997.806 244.985 997.924 246.411 997.888 246.987L995.957 247.935C996.544 246.763 995.72 244.742 995.234 243.878L992.983 241.155C992.575 240.662 991.687 239.336 991.402 237.97C991.117 236.604 991.785 234.821 992.155 234.1L993.3 231.881C994.042 230.122 993.432 228.479 993.034 227.877C992.697 227.444 991.663 226.237 990.23 224.873C988.796 223.509 988.624 221.528 988.717 220.709C988.924 220.08 989.409 218.025 989.695 214.836Z" fill="white"/>
<path d="M972.398 218.51C971.54 216.055 972.582 212.807 973.21 211.49C971.925 212.41 971.392 214.224 971.286 215.017C970.936 215.954 971.106 218.008 971.235 218.918C971.428 219.443 972.02 220.799 972.848 222.023C973.882 223.553 974.181 224.588 974.356 225.267C974.496 225.81 974.309 226.9 974.198 227.378L972.857 230.118C972.571 230.793 972.048 232.439 972.242 233.622C972.435 234.805 973.248 235.895 973.63 236.292L976.739 238.919C977.082 239.34 977.828 240.364 978.072 241.085C978.315 241.805 978.087 242.988 977.942 243.489C977.782 243.916 977.316 245.156 976.734 246.701C976.151 248.246 976.326 249.529 976.486 249.978L978.421 250.406C977.916 249.514 978.016 247.825 978.129 247.092L979.037 244.674C979.239 244.128 979.639 242.713 979.623 241.426C979.607 240.139 978.69 238.944 978.233 238.507L976.363 237.035C975.749 236.642 974.409 235.514 973.964 234.144C973.518 232.774 973.91 231.074 974.162 230.395L975.323 227.592C976.268 226.131 975.838 224.376 975.504 223.68C975.093 222.929 974.147 221.317 973.655 220.874C973.164 220.431 972.612 219.113 972.398 218.51Z" fill="white"/>
<path d="M992.426 214.33C992.231 211.738 989.977 209.177 988.875 208.221C990.42 208.55 991.635 210 992.049 210.684C992.744 211.404 993.41 213.354 993.655 214.24C993.689 214.798 993.688 216.278 993.419 217.731C993.083 219.546 993.223 220.615 993.334 221.306C993.423 221.86 994.031 222.785 994.323 223.178L996.648 225.154C997.18 225.658 998.318 226.957 998.614 228.119C998.909 229.281 998.6 230.605 998.408 231.121L996.61 234.772C996.464 235.296 996.189 236.533 996.254 237.29C996.319 238.048 997.002 239.041 997.335 239.443C997.653 239.77 998.576 240.72 999.727 241.903C1000.88 243.086 1001.23 244.332 1001.26 244.808L999.662 245.973C999.768 244.954 999.001 243.445 998.605 242.819L996.805 240.966C996.401 240.546 995.469 239.41 994.969 238.224C994.469 237.038 994.832 235.575 995.076 234.992L996.201 232.895C996.607 232.29 997.384 230.72 997.244 229.286C997.104 227.852 996.065 226.451 995.563 225.929L993.378 223.825C991.927 222.864 991.619 221.082 991.647 220.312C991.724 219.459 991.946 217.602 992.219 217C992.493 216.398 992.471 214.969 992.426 214.33Z" fill="white"/>
</g>
<path d="M1419.16 208.195L1362.07 165.901C1423.56 112.729 1443.73 25.9475 1411.97 -48.8909L1396.66 -84.9619L1326.26 -207.646C1284.73 -280.021 1279.8 -367.754 1312.97 -444.322L1370.98 -430.941C1347.77 -351.437 1360.8 -265.74 1406.61 -196.735L1439.24 -147.573C1450.48 -130.64 1460.4 -112.869 1468.93 -94.4174C1511.51 -2.22052 1498.97 106.048 1436.45 186.073L1419.16 208.195Z" fill="#508664" stroke="black" stroke-width="2"/>
<path d="M1371.11 158.087L1383.94 135.981C1409.43 137.463 1432.91 150.306 1447.91 170.988L1450.65 174.758L1437.83 196.832L1371.11 158.087Z" fill="#508664" stroke="black" stroke-width="2"/>
<path fill-rule="evenodd" clip-rule="evenodd" d="M1382.54 272.471C1379.02 282.034 1375.04 298.518 1372.09 315.181C1370.27 325.457 1368.92 339.25 1368.11 348.946C1367.47 356.607 1369.22 364.25 1372.95 370.969C1379.22 382.243 1396.1 379.815 1398.93 367.23L1400.56 360.039C1401.04 357.907 1401.37 355.749 1401.55 353.571C1402.16 346.125 1403.65 327.553 1404.48 314.791C1405.12 305.038 1406.85 294.768 1408.16 286.994C1408.43 285.357 1408.69 283.831 1408.91 282.444C1424.62 256.675 1437.76 209.808 1438.61 199.342L1435.12 193.931C1413.97 161.229 1373.57 146.692 1336.44 158.416L1298.99 210.266L1319.32 226.169L1346.76 254.919L1382.54 272.471Z" fill="#978172"/>
<path d="M1382.54 272.471L1383.48 272.816L1383.79 271.97L1382.99 271.573L1382.54 272.471ZM1372.09 315.181L1371.1 315.006L1372.09 315.181ZM1368.11 348.946L1369.1 349.029L1368.11 348.946ZM1372.95 370.969L1373.83 370.483L1373.83 370.483L1372.95 370.969ZM1398.93 367.23L1399.91 367.45L1399.91 367.45L1398.93 367.23ZM1400.56 360.039L1399.58 359.819L1399.58 359.819L1400.56 360.039ZM1401.55 353.571L1400.55 353.489L1400.55 353.489L1401.55 353.571ZM1404.48 314.791L1403.48 314.726L1404.48 314.791ZM1408.16 286.994L1407.17 286.828L1408.16 286.994ZM1408.91 282.444L1408.06 281.924L1407.96 282.091L1407.93 282.284L1408.91 282.444ZM1438.61 199.342L1439.61 199.424L1439.64 199.085L1439.45 198.799L1438.61 199.342ZM1435.12 193.931L1434.28 194.474L1435.12 193.931ZM1336.44 158.416L1336.13 157.462L1335.82 157.562L1335.62 157.83L1336.44 158.416ZM1298.99 210.266L1298.18 209.68L1297.62 210.461L1298.38 211.054L1298.99 210.266ZM1319.32 226.169L1320.04 225.478L1319.99 225.426L1319.94 225.381L1319.32 226.169ZM1346.76 254.919L1346.04 255.609L1346.16 255.738L1346.32 255.817L1346.76 254.919ZM1381.61 272.125C1378.05 281.771 1374.06 298.323 1371.1 315.006L1373.07 315.355C1376.02 298.714 1379.99 282.297 1383.48 272.816L1381.61 272.125ZM1371.1 315.006C1369.27 325.332 1367.92 339.164 1367.11 348.863L1369.1 349.029C1369.91 339.335 1371.26 325.582 1373.07 315.355L1371.1 315.006ZM1367.11 348.863C1366.46 356.731 1368.25 364.571 1372.08 371.455L1373.83 370.483C1370.18 363.929 1368.48 356.483 1369.1 349.029L1367.11 348.863ZM1372.08 371.455C1378.79 383.532 1396.87 380.93 1399.91 367.45L1397.96 367.011C1395.32 378.699 1379.65 380.955 1373.83 370.483L1372.08 371.455ZM1399.91 367.45L1401.53 360.258L1399.58 359.819L1397.96 367.011L1399.91 367.45ZM1401.53 360.258C1402.02 358.082 1402.36 355.877 1402.54 353.652L1400.55 353.489C1400.37 355.62 1400.05 357.732 1399.58 359.819L1401.53 360.258ZM1402.54 353.652C1403.15 346.207 1404.65 327.627 1405.48 314.856L1403.48 314.726C1402.65 327.479 1401.16 346.043 1400.55 353.489L1402.54 353.652ZM1405.48 314.856C1406.11 305.162 1407.83 294.942 1409.14 287.16L1407.17 286.828C1405.86 294.594 1404.12 304.914 1403.48 314.726L1405.48 314.856ZM1409.14 287.16C1409.42 285.524 1409.68 283.995 1409.9 282.604L1407.93 282.284C1407.7 283.668 1407.45 285.19 1407.17 286.828L1409.14 287.16ZM1409.77 282.964C1417.68 269.982 1424.92 251.737 1430.28 235.467C1435.64 219.223 1439.17 204.788 1439.61 199.424L1437.62 199.261C1437.2 204.362 1433.74 218.594 1428.38 234.841C1423.03 251.064 1415.85 269.137 1408.06 281.924L1409.77 282.964ZM1439.45 198.799L1435.96 193.388L1434.28 194.474L1437.78 199.885L1439.45 198.799ZM1435.96 193.388C1414.56 160.308 1373.7 145.602 1336.13 157.462L1336.74 159.37C1373.45 147.781 1413.37 162.15 1434.28 194.474L1435.96 193.388ZM1335.62 157.83L1298.18 209.68L1299.8 210.851L1337.25 159.001L1335.62 157.83ZM1298.38 211.054L1318.7 226.956L1319.94 225.381L1299.61 209.478L1298.38 211.054ZM1318.6 226.859L1346.04 255.609L1347.49 254.229L1320.04 225.478L1318.6 226.859ZM1346.32 255.817L1382.1 273.368L1382.99 271.573L1347.2 254.021L1346.32 255.817Z" fill="black"/>
<path d="M1309.13 344.933C1314.76 330.124 1323.55 314.863 1325.53 309.521L1315.62 301.08C1315.62 301.08 1305.65 291.646 1301.44 296.956C1295.23 304.797 1286.13 320.029 1278.05 335.779C1273.29 345.065 1267.94 357.851 1264.32 366.881C1261.45 374.015 1260.87 381.834 1262.47 389.355C1265.15 401.974 1281.99 404.616 1288.4 393.423L1292.07 387.025C1293.15 385.13 1294.1 383.164 1294.92 381.135C1297.69 374.198 1304.58 356.887 1309.13 344.933Z" fill="#978172" stroke="black" stroke-width="2"/>
<path d="M1333.13 363.496C1334.24 347.689 1338.23 330.538 1338.58 324.849L1326.65 319.64C1326.65 319.64 1314.38 313.498 1311.89 319.799C1308.21 329.105 1303.91 346.318 1300.74 363.733C1298.87 374.001 1297.45 387.787 1296.6 397.479C1295.92 405.137 1297.64 412.789 1301.34 419.525C1307.56 430.828 1324.44 428.479 1327.34 415.909L1328.99 408.724C1329.49 406.595 1329.83 404.438 1330.02 402.262C1330.66 394.818 1332.24 376.254 1333.13 363.496Z" fill="#978172" stroke="black" stroke-width="2"/>
<path d="M1369.45 352.957C1369.23 337.114 1371.78 319.689 1371.65 313.991L1359.33 309.795C1359.33 309.795 1346.59 304.697 1344.63 311.184C1341.74 320.764 1338.89 338.276 1337.18 355.894C1336.18 366.282 1335.92 380.138 1335.87 389.868C1335.84 397.555 1338.18 405.037 1342.44 411.441C1349.57 422.187 1366.21 418.439 1368.04 405.671L1369.09 398.373C1369.4 396.211 1369.57 394.033 1369.57 391.848C1369.59 384.377 1369.62 365.745 1369.45 352.957Z" fill="#978172" stroke="black" stroke-width="2"/>
<path d="M1344.9 236.372C1355.13 230.145 1374.64 211.834 1370.88 188.4" stroke="black" stroke-width="2"/>
<path fill-rule="evenodd" clip-rule="evenodd" d="M1247.29 364.676L1342.09 193.017C1343.64 190.218 1347.04 189.024 1349.99 190.243L1418.23 218.377C1418.55 218.509 1418.86 218.665 1419.14 218.841C1423.17 221.326 1425.34 228.013 1423.54 232.393L1348.75 414.613C1347.17 418.455 1342.73 420.224 1338.94 418.513L1252.09 379.261C1252.06 379.249 1252.03 379.236 1252.01 379.223C1247.31 377.023 1244.78 369.214 1247.29 364.676Z" fill="#C4C4C4"/>
<path d="M1342.09 193.017L1342.97 193.5L1342.09 193.017ZM1349.99 190.243L1349.61 191.167L1349.99 190.243ZM1418.23 218.377L1418.61 217.453L1418.61 217.453L1418.23 218.377ZM1348.75 414.613L1349.68 414.992L1349.68 414.992L1348.75 414.613ZM1338.94 418.513L1338.53 419.425L1338.94 418.513ZM1252.09 379.261L1251.68 380.172L1251.68 380.172L1252.09 379.261ZM1419.14 218.841L1418.62 219.693L1419.14 218.841ZM1341.21 192.534L1246.41 364.192L1248.16 365.159L1342.97 193.5L1341.21 192.534ZM1350.37 189.318C1346.95 187.906 1343.01 189.289 1341.21 192.534L1342.97 193.5C1344.27 191.146 1347.13 190.142 1349.61 191.167L1350.37 189.318ZM1418.61 217.453L1350.37 189.318L1349.61 191.167L1417.85 219.302L1418.61 217.453ZM1419.67 217.99C1419.34 217.786 1418.99 217.605 1418.61 217.453L1417.85 219.302C1418.12 219.413 1418.38 219.544 1418.62 219.693L1419.67 217.99ZM1349.68 414.992L1424.47 232.773L1422.62 232.013L1347.83 414.233L1349.68 414.992ZM1338.53 419.425C1342.83 421.368 1347.88 419.358 1349.68 414.992L1347.83 414.233C1346.46 417.552 1342.62 419.079 1339.35 417.602L1338.53 419.425ZM1251.68 380.172L1338.53 419.425L1339.35 417.602L1252.5 378.35L1251.68 380.172ZM1251.58 380.129C1251.61 380.143 1251.64 380.158 1251.68 380.172L1252.5 378.35C1252.48 378.339 1252.45 378.329 1252.43 378.318L1251.58 380.129ZM1252.43 378.318C1250.41 377.373 1248.75 375.147 1247.9 372.518C1247.04 369.889 1247.08 367.109 1248.16 365.159L1246.41 364.192C1244.98 366.781 1245.03 370.175 1245.99 373.135C1246.95 376.095 1248.9 378.873 1251.58 380.129L1252.43 378.318ZM1418.62 219.693C1420.38 220.777 1421.81 222.841 1422.58 225.215C1423.35 227.589 1423.4 230.101 1422.62 232.013L1424.47 232.773C1425.48 230.304 1425.35 227.284 1424.48 224.598C1423.61 221.913 1421.94 219.391 1419.67 217.99L1418.62 219.693Z" fill="black"/>
<path d="M1342.56 193.749L1247.32 364.666C1245.53 367.882 1246.87 371.943 1250.22 373.459L1338.04 413.148C1341.29 414.614 1345.1 413.098 1346.45 409.805L1421.64 226.619C1422.96 223.394 1421.41 219.707 1418.18 218.4L1350.41 190.98C1347.47 189.79 1344.1 190.977 1342.56 193.749Z" fill="#C4C4C4" stroke="black" stroke-width="2"/>
<path d="M1343.54 199.415L1254.55 362.232C1252.79 365.447 1254.14 369.478 1257.48 370.983L1335.6 406.192C1338.85 407.656 1342.66 406.133 1344.01 402.835L1415 228.912C1416.32 225.681 1414.76 221.995 1411.52 220.697L1351.4 196.594C1348.44 195.408 1345.07 196.62 1343.54 199.415Z" fill="white" stroke="black" stroke-width="2"/>
<path d="M1340.78 195.454L1303.8 206.91C1296.13 211.415 1282.63 226.349 1289.97 250.051C1291.6 255.295 1293.51 259.685 1295.57 263.346C1300.32 271.818 1305.85 276.38 1310.33 278.55C1312.67 279.681 1314.73 280.163 1316.25 280.21C1324.14 279.986 1338.95 275.896 1335.1 261.325C1331.25 246.753 1322.8 237.473 1319.06 234.654L1340.78 195.454Z" fill="#978172"/>
<path d="M1295.57 263.346C1293.51 259.685 1291.6 255.295 1289.97 250.051C1282.63 226.349 1296.13 211.415 1303.8 206.91L1340.78 195.454L1319.06 234.654C1322.8 237.473 1331.25 246.753 1335.1 261.325C1338.95 275.896 1324.14 279.986 1316.25 280.21C1314.73 280.163 1312.67 279.681 1310.33 278.55M1295.57 263.346C1300.55 258.92 1311.8 252.058 1316.93 260.016C1322.06 267.974 1314.67 275.688 1310.33 278.55M1295.57 263.346C1300.32 271.818 1305.85 276.38 1310.33 278.55" stroke="black" stroke-width="2"/>
<path d="M1343.55 188.586L1329.06 171.087L1307.68 200.775L1302.45 207.365L1299.32 211.471L1330.7 210.731L1343.55 188.586Z" fill="#978172"/>
<path d="M1317.17 353.178C1315.62 354.514 1313.22 353.35 1313.32 351.307L1314.15 332.989C1314.22 331.406 1313.42 329.909 1312.07 329.088L1296.38 319.588C1294.63 318.529 1295 315.89 1296.97 315.347L1314.65 310.479C1316.18 310.058 1317.36 308.836 1317.72 307.292L1321.91 289.441C1322.37 287.449 1325 286.982 1326.12 288.69L1336.21 303.999C1337.09 305.323 1338.61 306.064 1340.19 305.931L1358.46 304.398C1360.5 304.227 1361.76 306.577 1360.48 308.175L1349.04 322.504C1348.05 323.743 1347.82 325.424 1348.43 326.885L1355.54 343.789C1356.33 345.675 1354.48 347.594 1352.57 346.874L1335.4 340.422C1333.92 339.864 1332.25 340.161 1331.05 341.197L1317.17 353.178Z" fill="#E3BE63" stroke="black" stroke-width="2"/>
<rect x="1.34201" y="-0.446109" width="76.4881" height="16.4619" transform="matrix(0.894059 0.44795 0.44795 -0.894059 1400.97 106.891)" fill="#E3BE63" stroke="black" stroke-width="2"/>
<circle cx="18.8956" cy="18.8956" r="17.8956" transform="matrix(0.615609 0.788052 0.788052 -0.615609 1413.71 114.595)" fill="white" stroke="black" stroke-width="2"/>
<path d="M1430.06 112.336L1443.34 119.045L1445.26 126.39" stroke="black" stroke-width="2" stroke-linecap="round"/>
<path d="M1410.27 98.9087L1421.82 104.73" stroke="white" stroke-width="2" stroke-linecap="round"/>
<path d="M1461.03 123.605L1472.58 129.426" stroke="white" stroke-width="2" stroke-linecap="round"/>
</g>
<defs>
<clipPath id="clip0_183_2">
<rect width="2148" height="764" fill="white"/>
</clipPath>
<clipPath id="clip1_183_2">
<rect x="19" y="30.6103" width="782" height="868.871" rx="109.754" transform="rotate(-15 19 30.6103)" fill="white"/>
</clipPath>
</defs>
</svg>
