<svg width="6530" height="10800" viewBox="0 0 6530 10800" fill="none" xmlns="http://www.w3.org/2000/svg">
<g clip-path="url(#clip0_403_484)">
<rect width="6530" height="10800" fill="white"/>
<g clip-path="url(#clip1_403_484)">
<circle cx="5578.66" cy="5638.48" r="1228.06" stroke="black" stroke-width="103.102"/>
<circle cx="5578.66" cy="5638.48" r="898.13" stroke="black" stroke-width="103.102"/>
<circle cx="5578.65" cy="5638.49" r="1062.29" stroke="#FF5151" stroke-width="242.499"/>
<path d="M4095.57 5482.99L4275.91 5482.36L4456.24 5481.74" stroke="#FF5151" stroke-width="242.499"/>
<path d="M4063.42 5346.35L4245.51 5344.06L4427.59 5341.77" stroke="black" stroke-width="103.102"/>
<path fill-rule="evenodd" clip-rule="evenodd" d="M4331.54 6790.26C4331.54 7690.9 3821.7 8472.47 3074.88 8862.07C2976.22 8913.54 2915.61 9019.88 2932.73 9129.83L3381.73 12013.8C3395.8 12104.2 3358.26 12195.7 3281.05 12244.7C2420.44 12791.4 1314.81 12792.1 450.39 12234.6L441.815 12229.1C375.753 12186.5 334.438 12114.5 330.973 12036L166.817 8315.82C164.571 8264.94 146.047 8216.29 115.809 8175.3C-170.085 7787.8 -339.065 7308.76 -339.065 6790.26C-339.065 5500.51 706.485 4454.96 1996.24 4454.96C2820.13 4454.96 3544.38 4881.61 3960.08 5526.03C4001.75 5590.63 4084.44 5617.28 4153.92 5584.38L4300.68 5514.88C4301.26 5514.6 4301.95 5514.89 4302.16 5515.5C4302.36 5516.09 4303.02 5516.38 4303.59 5516.15C4361.6 5492.45 4425.08 5479.38 4491.61 5479.38C4766.29 5479.38 4988.96 5702.05 4988.96 5976.73C4988.96 6204.09 4836.4 6395.82 4628.07 6455.13C4627.69 6455.24 4627.48 6455.64 4627.61 6456.01C4627.74 6456.4 4627.5 6456.82 4627.1 6456.9L4455.06 6493.21C4376.43 6509.81 4323.89 6583.48 4328.17 6663.73C4330.41 6705.62 4331.54 6747.81 4331.54 6790.26Z" fill="#E9B49E"/>
<path d="M450.39 12234.6L516.101 12132.7H516.101L450.39 12234.6ZM4627.1 6456.9L4602.07 6338.27L4627.1 6456.9ZM4303.59 5516.15L4349.46 5628.39L4303.59 5516.15ZM4300.68 5514.88L4352.57 5624.46L4300.68 5514.88ZM3960.08 5526.03L3858.19 5591.76L3960.08 5526.03ZM4153.92 5584.38L4102.03 5474.79L4153.92 5584.38ZM4455.06 6493.21L4430.03 6374.57L4455.06 6493.21ZM4328.17 6663.73L4207.09 6670.2L4328.17 6663.73ZM441.815 12229.1L376.104 12331L441.815 12229.1ZM330.973 12036L209.841 12041.3L330.973 12036ZM4628.07 6455.13L4594.87 6338.51L4628.07 6455.13ZM3381.73 12013.8L3261.93 12032.5L3381.73 12013.8ZM3281.05 12244.7L3216.04 12142.4L3281.05 12244.7ZM3074.88 8862.07L3130.96 8969.57L3074.88 8862.07ZM2932.73 9129.83L2812.92 9148.48L2932.73 9129.83ZM3130.96 8969.57C3916.25 8559.9 4452.79 7737.84 4452.79 6790.26H4210.29C4210.29 7643.97 3727.14 8385.04 3018.8 8754.57L3130.96 8969.57ZM3501.54 11995.2L3052.53 9111.18L2812.92 9148.48L3261.93 12032.5L3501.54 11995.2ZM384.679 12336.5C1289.02 12919.7 2445.69 12919 3346.06 12347.1L3216.04 12142.4C2395.2 12663.8 1340.6 12664.4 516.101 12132.7L384.679 12336.5ZM376.104 12331L384.679 12336.5L516.101 12132.7L507.526 12127.2L376.104 12331ZM45.6848 8321.16L209.841 12041.3L452.105 12030.7L287.948 8310.47L45.6848 8321.16ZM-460.315 6790.26C-460.315 7335.54 -282.513 7839.64 18.2401 8247.29L213.378 8103.32C-57.6575 7735.95 -217.816 7281.99 -217.816 6790.26H-460.315ZM1996.24 4333.71C639.521 4333.71 -460.315 5433.54 -460.315 6790.26H-217.816C-217.816 5567.47 773.45 4576.21 1996.24 4576.21V4333.71ZM4061.97 5460.3C3624.88 4782.74 2863.04 4333.71 1996.24 4333.71V4576.21C2777.23 4576.21 3463.87 4980.48 3858.19 5591.76L4061.97 5460.3ZM4248.79 5405.3L4102.03 5474.79L4205.82 5693.96L4352.57 5624.46L4248.79 5405.3ZM4491.61 5358.13C4409.08 5358.13 4330.04 5374.36 4257.73 5403.91L4349.46 5628.39C4393.15 5610.53 4441.07 5600.63 4491.61 5600.63V5358.13ZM5110.21 5976.73C5110.21 5635.09 4833.25 5358.13 4491.61 5358.13V5600.63C4699.32 5600.63 4867.71 5769.02 4867.71 5976.73H5110.21ZM4661.27 6571.75C4920.33 6497.99 5110.21 6259.7 5110.21 5976.73H4867.71C4867.71 6148.49 4752.48 6293.64 4594.87 6338.51L4661.27 6571.75ZM4480.1 6611.85L4652.14 6575.54L4602.07 6338.27L4430.03 6374.57L4480.1 6611.85ZM4452.79 6790.26C4452.79 6745.65 4451.6 6701.31 4449.25 6657.27L4207.09 6670.2C4209.22 6709.94 4210.29 6749.97 4210.29 6790.26H4452.79ZM4513.02 6495.64C4489.31 6427.07 4531.08 6353.25 4602.07 6338.27L4652.14 6575.54C4723.93 6560.39 4766.18 6485.73 4742.2 6416.38L4513.02 6495.64ZM4187.57 5555.14C4210.56 5621.59 4284.58 5654.9 4349.46 5628.39L4257.73 5403.91C4321.46 5377.87 4394.17 5410.59 4416.75 5475.86L4187.57 5555.14ZM4352.57 5624.46C4287.9 5655.09 4210.97 5622.76 4187.57 5555.14L4416.75 5475.86C4392.94 5407.03 4314.62 5374.12 4248.79 5405.3L4352.57 5624.46ZM3858.19 5591.76C3930.45 5703.77 4077.41 5754.77 4205.82 5693.96L4102.03 5474.79C4091.47 5479.79 4073.06 5477.49 4061.97 5460.3L3858.19 5591.76ZM4430.03 6374.57C4288.6 6404.42 4199.87 6534.8 4207.09 6670.2L4449.25 6657.27C4447.91 6632.16 4464.26 6615.19 4480.1 6611.85L4430.03 6374.57ZM507.526 12127.2C474.495 12105.9 453.837 12069.9 452.105 12030.7L209.841 12041.3C215.039 12159.1 277.011 12267.1 376.104 12331L507.526 12127.2ZM4594.87 6338.51C4528.05 6357.54 4489.96 6428.98 4513.02 6495.64L4742.2 6416.38C4764.99 6482.3 4727.33 6552.94 4661.27 6571.75L4594.87 6338.51ZM3261.93 12032.5C3269.19 12079.1 3249.32 12121.2 3216.04 12142.4L3346.06 12347.1C3467.21 12270.1 3522.42 12129.3 3501.54 11995.2L3261.93 12032.5ZM287.948 8310.47C284.551 8233.48 256.647 8161.96 213.378 8103.32L18.2401 8247.29C35.4466 8270.61 44.5916 8296.39 45.6848 8321.16L287.948 8310.47ZM3018.8 8754.57C2879.25 8827.37 2786.94 8981.59 2812.92 9148.48L3052.53 9111.18C3044.28 9058.16 3073.18 8999.72 3130.96 8969.57L3018.8 8754.57Z" fill="black"/>
<path d="M1833.62 5774.76L411.127 6115.84" stroke="#FF5151" stroke-width="242.499"/>
<path d="M1774.44 5604.22L351.946 5945.3" stroke="black" stroke-width="124.275"/>
<path d="M1774.44 5970.32L351.946 6311.4" stroke="black" stroke-width="124.275"/>
<mask id="path-12-inside-1_403_484" fill="white">
<path fill-rule="evenodd" clip-rule="evenodd" d="M5750 1989.5C5750 3663.3 4393.05 5020.89 2716.83 5026.98C1498.68 5385.57 430.328 6134.35 -322.622 7160.11L-357.341 7207.41C-575.747 7081.31 -642.796 6958.49 -737.939 6784.22C-769.308 6726.76 -803.73 6663.7 -847.638 6593.09C-1024.72 6308.32 -1128.84 5984.27 -1150.77 5649.64C-1172.71 5315.02 -1111.77 4980.15 -973.376 4674.7C-910.186 4535.24 -831.737 4403.87 -739.813 4282.85C-833.992 4125.43 -889.438 3947.77 -901.449 3764.53C-913.893 3574.67 -879.321 3384.67 -800.795 3211.36C-722.27 3038.05 -602.214 2886.78 -451.262 2770.95C-393.034 2726.27 -330.902 2687.4 -265.767 2654.72C-313.71 2440.63 -339.001 2218.01 -339.001 1989.5C-339.001 311.935 1024.07 -1048 2705.5 -1048C4386.93 -1048 5750 311.935 5750 1989.5Z"/>
</mask>
<path fill-rule="evenodd" clip-rule="evenodd" d="M5750 1989.5C5750 3663.3 4393.05 5020.89 2716.83 5026.98C1498.68 5385.57 430.328 6134.35 -322.622 7160.11L-357.341 7207.41C-575.747 7081.31 -642.796 6958.49 -737.939 6784.22C-769.308 6726.76 -803.73 6663.7 -847.638 6593.09C-1024.72 6308.32 -1128.84 5984.27 -1150.77 5649.64C-1172.71 5315.02 -1111.77 4980.15 -973.376 4674.7C-910.186 4535.24 -831.737 4403.87 -739.813 4282.85C-833.992 4125.43 -889.438 3947.77 -901.449 3764.53C-913.893 3574.67 -879.321 3384.67 -800.795 3211.36C-722.27 3038.05 -602.214 2886.78 -451.262 2770.95C-393.034 2726.27 -330.902 2687.4 -265.767 2654.72C-313.71 2440.63 -339.001 2218.01 -339.001 1989.5C-339.001 311.935 1024.07 -1048 2705.5 -1048C4386.93 -1048 5750 311.935 5750 1989.5Z" fill="#353331"/>
<path d="M2716.83 5026.98L2715.95 4784.48L2681.45 4784.61L2648.35 4794.35L2716.83 5026.98ZM-322.622 7160.11L-127.136 7303.61L-322.622 7160.11ZM-357.341 7207.41L-478.591 7417.42L-290.424 7526.06L-161.854 7350.9L-357.341 7207.41ZM-737.939 6784.22L-525.092 6668.02L-737.939 6784.22ZM-847.638 6593.09L-641.707 6465.04L-847.638 6593.09ZM-1150.77 5649.64L-1392.75 5665.5L-1150.77 5649.64ZM-973.376 4674.7L-752.492 4774.78H-752.492L-973.376 4674.7ZM-739.813 4282.85L-546.705 4429.53L-447.564 4299.01L-531.711 4158.35L-739.813 4282.85ZM-901.449 3764.53L-1143.43 3780.39H-1143.43L-901.449 3764.53ZM-800.795 3211.36L-1021.68 3111.28H-1021.68L-800.795 3211.36ZM-451.262 2770.95L-303.638 2963.34L-303.638 2963.34L-451.262 2770.95ZM-265.767 2654.72L-157.022 2871.47L12.2574 2786.54L-29.1287 2601.72L-265.767 2654.72ZM2717.71 5269.48C4526.94 5262.9 5992.5 3797.45 5992.5 1989.5H5507.5C5507.5 3529.14 4259.16 4778.87 2715.95 4784.48L2717.71 5269.48ZM-127.136 7303.61C594.352 6320.71 1618.06 5603.21 2785.31 5259.61L2648.35 4794.35C1379.3 5167.92 266.304 5947.99 -518.109 7016.61L-127.136 7303.61ZM-161.854 7350.9L-127.136 7303.61L-518.109 7016.61L-552.828 7063.91L-161.854 7350.9ZM-950.786 6900.41C-905.19 6983.93 -854.226 7078.79 -781.394 7167.63C-704.758 7261.1 -609.974 7341.56 -478.591 7417.42L-236.091 6997.4C-323.114 6947.15 -371.057 6903.16 -406.333 6860.13C-445.412 6812.47 -475.544 6758.78 -525.092 6668.02L-950.786 6900.41ZM-1053.57 6721.15C-1013.71 6785.24 -982.261 6842.76 -950.786 6900.41L-525.092 6668.02C-556.354 6610.75 -593.747 6542.16 -641.707 6465.04L-1053.57 6721.15ZM-1392.75 5665.5C-1368.21 6039.92 -1251.71 6402.51 -1053.57 6721.15L-641.707 6465.04C-797.732 6214.13 -889.469 5928.61 -908.793 5633.78L-1392.75 5665.5ZM-1194.26 4574.62C-1349.12 4916.4 -1417.29 5291.09 -1392.75 5665.5L-908.793 5633.78C-928.117 5338.95 -874.432 5043.91 -752.492 4774.78L-1194.26 4574.62ZM-932.921 4136.17C-1035.78 4271.58 -1123.56 4418.57 -1194.26 4574.62L-752.492 4774.78C-696.817 4651.9 -627.698 4536.16 -546.705 4429.53L-932.921 4136.17ZM-531.711 4158.35C-606.15 4033.93 -649.975 3893.51 -659.468 3748.67L-1143.43 3780.39C-1128.9 4002.04 -1061.83 4216.93 -947.915 4407.35L-531.711 4158.35ZM-659.468 3748.67C-669.304 3598.6 -641.979 3448.43 -579.911 3311.44L-1021.68 3111.28C-1116.66 3320.91 -1158.48 3550.74 -1143.43 3780.39L-659.468 3748.67ZM-579.911 3311.44C-517.844 3174.45 -422.951 3054.89 -303.638 2963.34L-598.887 2578.56C-781.476 2718.67 -926.695 2901.64 -1021.68 3111.28L-579.911 3311.44ZM-303.638 2963.34C-257.613 2928.02 -208.505 2897.3 -157.022 2871.47L-374.512 2437.97C-453.3 2477.49 -528.455 2524.52 -598.887 2578.56L-303.638 2963.34ZM-581.5 1989.5C-581.5 2235.96 -554.217 2476.34 -502.406 2707.71L-29.1287 2601.72C-73.2019 2404.91 -96.5015 2200.06 -96.5015 1989.5H-581.5ZM2705.5 -1290.5C890.666 -1290.5 -581.5 177.48 -581.5 1989.5H-96.5015C-96.5015 446.39 1157.47 -805.501 2705.5 -805.501V-1290.5ZM5992.5 1989.5C5992.5 177.48 4520.33 -1290.5 2705.5 -1290.5V-805.501C4253.53 -805.501 5507.5 446.39 5507.5 1989.5H5992.5Z" fill="black" mask="url(#path-12-inside-1_403_484)"/>
<circle cx="2957.98" cy="5638.49" r="1062.29" stroke="#FF5151" stroke-width="242.499"/>
<circle cx="2957.99" cy="5774.77" r="353.73" fill="black"/>
<circle cx="5578.76" cy="5638.48" r="353.73" fill="black"/>
<path d="M411.127 -94.9023C61.7324 222.331 -573.026 1148.89 -316.9 2317.24C-581.505 2345.02 -1395.66 3055.99 -1581.62 3284.04" stroke="black" stroke-width="242.502" stroke-linejoin="round"/>
<path d="M5700.3 3617.09L5833.14 3689.78L5700.3 3617.09ZM5438 4023.92L5314.65 3936.07C5282.12 3981.76 5277.5 4041.68 5302.64 4091.81C5327.79 4141.94 5378.58 4174.07 5434.65 4175.31L5438 4023.92ZM5872.56 4058.05L5847.47 4207.39L5872.56 4058.05ZM5424.5 150.446C5789.91 764.419 5980.16 1324.98 6004.05 1871.41C6027.88 2416.75 5886.6 2961.15 5567.46 3544.4L5833.14 3689.78C6173.25 3068.22 6333.33 2469.33 6306.62 1858.19C6279.95 1248.15 6067.75 639.068 5684.76 -4.44617L5424.5 150.446ZM5567.46 3544.4C5525.39 3621.27 5462.96 3718.34 5409.22 3798.56C5382.71 3838.15 5358.96 3872.68 5341.85 3897.29C5333.31 3909.59 5326.44 3919.38 5321.74 3926.05C5319.39 3929.38 5317.58 3931.94 5316.38 3933.64C5315.78 3934.48 5315.33 3935.12 5315.04 3935.53C5314.89 3935.73 5314.79 3935.88 5314.72 3935.97C5314.69 3936.02 5314.67 3936.05 5314.66 3936.07C5314.65 3936.07 5314.65 3936.08 5314.64 3936.08C5314.64 3936.08 5314.65 3936.08 5314.65 3936.08C5314.65 3936.08 5314.65 3936.07 5438 4023.92C5561.35 4111.76 5561.35 4111.75 5561.36 4111.75C5561.36 4111.74 5561.37 4111.73 5561.37 4111.73C5561.38 4111.71 5561.39 4111.7 5561.41 4111.68C5561.44 4111.64 5561.48 4111.58 5561.53 4111.51C5561.63 4111.37 5561.77 4111.17 5561.95 4110.91C5562.31 4110.4 5562.84 4109.66 5563.51 4108.71C5564.87 4106.8 5566.83 4104.02 5569.34 4100.46C5574.37 4093.32 5581.6 4083.01 5590.54 4070.15C5608.4 4044.46 5633.17 4008.45 5660.86 3967.1C5715.54 3885.47 5784.26 3779.12 5833.14 3689.78L5567.46 3544.4ZM5847.47 4207.39C6172.84 4262.07 6522.54 4476.09 6816.44 4722.71C7111.37 4970.2 7322.2 5226.58 7379.96 5336.46L7648.04 5195.54C7563.77 5035.23 7318.89 4748.98 7011.12 4490.71C6702.31 4231.57 6302.3 3976.71 5897.66 3908.71L5847.47 4207.39ZM5438 4023.92C5434.65 4175.31 5434.64 4175.31 5434.64 4175.31C5434.64 4175.31 5434.63 4175.31 5434.63 4175.31C5434.63 4175.31 5434.63 4175.31 5434.64 4175.31C5434.66 4175.31 5434.69 4175.31 5434.73 4175.31C5434.82 4175.31 5434.98 4175.32 5435.19 4175.32C5435.63 4175.33 5436.31 4175.35 5437.23 4175.37C5439.06 4175.42 5441.84 4175.49 5445.48 4175.59C5452.75 4175.8 5463.44 4176.13 5476.82 4176.61C5503.64 4177.58 5541.12 4179.15 5583.65 4181.58C5670.27 4186.53 5772.05 4194.71 5847.47 4207.39L5897.66 3908.71C5805.08 3893.16 5689.58 3884.27 5600.91 3879.21C5555.8 3876.63 5516.14 3874.97 5487.73 3873.95C5473.5 3873.43 5462.05 3873.08 5454.09 3872.85C5450.1 3872.74 5446.99 3872.66 5444.84 3872.6C5443.77 3872.58 5442.93 3872.56 5442.34 3872.54C5442.05 3872.54 5441.82 3872.53 5441.66 3872.53C5441.57 3872.53 5441.51 3872.52 5441.46 3872.52C5441.43 3872.52 5441.41 3872.52 5441.39 3872.52C5441.38 3872.52 5441.37 3872.52 5441.37 3872.52C5441.36 3872.52 5441.35 3872.52 5438 4023.92Z" fill="black"/>
<path d="M6211.91 315.206C6661.61 1043.72 6852.26 2257.57 6400.75 3360.07C6353.09 3476.44 6265.15 3652.13 6265.15 3652.13V3652.13C6251.36 3659.73 6279.03 3723.13 6294.37 3719.56C6441.17 3685.49 6601.97 3669.01 6730.01 3708.82C7043.54 3806.3 7226.55 3984.2 7332.87 4294.84" stroke="black" stroke-width="302.863"/>
<path d="M-292.021 10848.5L-320.187 8477.54C-764.061 8158.65 -891.217 7260.08 -914.955 6477.54" stroke="black" stroke-width="242.502" stroke-linejoin="round"/>
<path d="M3771.6 11016.4L3501.32 9344.32C4015.71 9138.62 4813.11 8209.66 4873.93 7301.73C4880.98 7196.51 5024.25 7112.95 5121.12 7154.63C5274.78 7220.73 5480.57 7277.88 5718.74 7277.88C6142.4 7277.88 6437.76 7097.05 6532.48 7006.64" stroke="black" stroke-width="302.863" stroke-linejoin="round"/>
<path d="M4400.08 11016.4L4178.5 9827.99C4157 9712.69 4220.84 9598.86 4319.63 9535.64C4729.51 9273.34 5250.93 8652.9 5275.47 8022.8C5278.05 7956.74 5376.28 7886.23 5441.58 7896.64C5574.48 7917.84 5762.49 7923.11 5971.21 7923.11C6307.05 7923.11 6569.25 7782.7 6644.34 7711.03" stroke="black" stroke-width="302.863" stroke-linejoin="round"/>
<path d="M5028.86 10985.2L4835.65 9948.97C5113.54 9776.26 5533.3 9177.36 5677.72 8645.15C5692.26 8591.6 5767.4 8554.25 5822.33 8562.19C5931.82 8578.03 6095.92 8577.83 6263.55 8577.83C6514.51 8577.83 6632.41 8578.27 6688.52 8524.71" stroke="black" stroke-width="302.863" stroke-linejoin="round"/>
<path d="M5593.54 10790.8L5432.85 10244.1C5425.22 10218.2 5433.89 10190.5 5453.59 10172C5644.84 9992.27 5945.67 9532.47 6078.74 9186.93C6088.25 9162.25 6124.3 9144.87 6150.75 9145.05C6247.91 9145.74 6445.74 9112.36 6559.04 9112.36C6703.12 9112.36 6762.55 9106.59 6794.76 9075.84" stroke="black" stroke-width="302.863" stroke-linejoin="round"/>
<path d="M6071.74 10705.6L6017.31 10413.6C6071.74 10344.1 6339.09 9957.87 6379.75 9769.72C6448.65 9769.72 6405.33 9769.72 6476.04 9769.72" stroke="black" stroke-width="302.863" stroke-linejoin="round"/>
<circle cx="2963.4" cy="5633.34" r="1228.06" stroke="black" stroke-width="103.102"/>
<circle cx="2963.4" cy="5633.34" r="898.13" stroke="black" stroke-width="103.102"/>
</g>
<path fill-rule="evenodd" clip-rule="evenodd" d="M6867 0.000470903V429H6530V10371H6867V10800H-3906L-3906 10371H0V429L-3906 429L-3906 0L0 0.000470903H429H6101H6530H6867ZM429 10371H6101V429L429 429V10371Z" fill="white"/>
</g>
<defs>
<clipPath id="clip0_403_484">
<rect width="6530" height="10800" fill="white"/>
</clipPath>
<clipPath id="clip1_403_484">
<rect x="-2075" y="429" width="9942" height="9942" rx="1395.37" fill="white"/>
</clipPath>
</defs>
</svg>
