<svg width="1081" height="1080" viewBox="0 0 1081 1080" fill="none" xmlns="http://www.w3.org/2000/svg">
<rect width="1080" height="1080" transform="translate(0.794922)" fill="black"/>
<path d="M605.085 150.143C609.935 162.14 603.422 177.16 599.559 183.171L596.327 184.329C576.79 191.329 554.985 184.41 543.058 167.428L543.987 133.36L557.74 133.207L578.661 129.917L605.085 150.143Z" fill="#E9B49E" stroke="black" stroke-width="3.30185"/>
<path d="M599.906 120.604C587.507 120.743 583.633 129.664 583.246 134.108L597.435 133.949C596.834 138.759 596.038 149.64 597.667 154.687C599.093 159.108 604.26 159.343 607.567 158.773C608.365 158.635 608.973 158.011 609.183 157.23L611.883 147.214L614.923 135.937C615.083 130.769 612.305 120.466 599.906 120.604Z" fill="#E9B49E" stroke="black" stroke-width="3.30185"/>
<path d="M569.876 137.188C571.811 142.159 573.763 153.92 566.091 161.196" stroke="#E9B49E" stroke-width="3.30185"/>
<path d="M588.425 112.391C576.027 112.529 572.153 121.451 571.766 125.894L585.955 125.736C585.353 130.545 584.558 141.426 586.186 146.473C587.613 150.894 592.78 151.13 596.087 150.559C596.885 150.421 597.492 149.798 597.703 149.016L600.402 139.001L603.442 127.723C603.603 122.555 600.824 112.252 588.425 112.391Z" fill="#E9B49E" stroke="black" stroke-width="3.30185"/>
<path d="M578.673 105.171C566.275 105.309 562.401 114.231 562.014 118.674L576.203 118.516C575.601 123.325 574.806 134.206 576.434 139.253C577.861 143.675 583.028 143.91 586.335 143.339C587.133 143.201 587.74 142.578 587.951 141.796L590.651 131.781L593.69 120.504C593.851 115.335 591.072 105.032 578.673 105.171Z" fill="#E9B49E" stroke="black" stroke-width="3.30185"/>
<path d="M582.429 131.771C584.453 130.075 587.923 130.713 589.157 131.316L586.387 141.461C582.691 141.538 580.58 139.769 580.199 138.868C580.099 137.209 580.406 133.466 582.429 131.771Z" fill="black"/>
<path d="M557.154 96.9109C555.986 109.255 552.533 122.596 552.146 127.04L561.379 131.346C561.379 131.346 570.862 136.388 572.934 131.506C575.992 124.298 579.686 110.914 582.503 97.351C584.164 89.3543 585.538 78.5962 586.393 71.03C587.069 65.0519 585.878 59.033 583.11 53.6914C578.465 44.7281 565.208 46.2395 562.7 56.0182L561.266 61.6066C560.842 63.2628 560.532 64.9438 560.343 66.6431C559.695 72.4536 558.097 86.9468 557.154 96.9109Z" fill="#E9B49E" stroke="black" stroke-width="3.30185"/>
<path d="M543.371 132.211L543.602 152.835L559.936 135.417C561.977 136.854 570.872 141.424 578.891 140.996C586.911 140.567 585.492 132.094 584.317 128.057C584.044 127.294 582.882 125.286 581.926 124.285C580.092 122.364 575.725 119.841 570.65 118.812C568.457 118.367 565.918 118.114 562.993 118.147C549.771 118.295 544.403 127.585 543.371 132.211Z" fill="#E9B49E" stroke="black" stroke-width="3.30185"/>
<path d="M544.945 159.839L545.193 145.422L559.554 131.913L560.47 139.198L544.945 159.839Z" fill="#E9B49E"/>
<path d="M603.537 147.35C605.56 145.655 609.03 146.292 610.265 146.895L607.495 157.041C603.798 157.117 601.688 155.349 601.306 154.448C601.207 152.788 601.513 149.045 603.537 147.35Z" fill="black"/>
<path d="M592.118 139.09C594.141 137.395 597.611 138.032 598.846 138.635L596.076 148.781C592.379 148.858 590.269 147.089 589.887 146.188C589.788 144.528 590.095 140.785 592.118 139.09Z" fill="black"/>
<path d="M569.914 130.789C574.155 133.61 578.226 127.808 579.732 124.554C575.564 121.399 570.419 120.182 567.74 120.076C566.218 122.42 565.673 127.968 569.914 130.789Z" fill="black"/>
<path d="M90.7613 506.433C91.6048 519.251 103.91 529.867 109.958 533.573L113.348 533.213C133.833 531.037 150.339 515.44 153.671 495.11L138.134 465.057L125.774 470.856L105.651 476.946L90.7613 506.433Z" fill="#E9B49E" stroke="black" stroke-width="3.30185"/>
<path d="M82.6406 477.792C93.7841 472.564 101.098 478.867 103.362 482.672L90.6098 488.655C93.2234 492.695 98.6315 502.078 99.3544 507.293C99.9878 511.861 95.4705 514.302 92.2675 515.219C91.4948 515.44 90.6827 515.145 90.1568 514.537L83.4204 506.75L75.8352 497.981C73.4605 493.43 71.497 483.02 82.6406 477.792Z" fill="#E9B49E" stroke="black" stroke-width="3.30185"/>
<path d="M116.645 479.653C117.061 484.932 120.393 496.289 130.392 499.481" stroke="#E9B49E" stroke-width="3.30185"/>
<path d="M89.3574 465.493C100.501 460.265 107.815 466.568 110.079 470.373L97.3266 476.356C99.9402 480.396 105.348 489.78 106.071 494.994C106.705 499.563 102.187 502.003 98.9843 502.921C98.2116 503.142 97.3995 502.847 96.8736 502.239L90.1372 494.451L82.552 485.682C80.1773 481.131 78.2138 470.722 89.3574 465.493Z" fill="#E9B49E" stroke="black" stroke-width="3.30185"/>
<path d="M94.9579 454.83C106.101 449.602 113.415 455.905 115.679 459.71L102.927 465.693C105.541 469.733 110.949 479.117 111.672 484.331C112.305 488.899 107.788 491.34 104.585 492.257C103.812 492.479 103 492.183 102.474 491.576L95.7378 483.788L88.1526 475.019C85.7779 470.468 83.8144 460.058 94.9579 454.83Z" fill="#E9B49E" stroke="black" stroke-width="3.30185"/>
<path d="M103.083 480.229C100.543 479.587 97.7158 481.655 96.8723 482.727L103.728 490.601C107.066 489.074 108.189 486.582 108.141 485.612C107.513 484.085 105.624 480.871 103.083 480.229Z" fill="black"/>
<path d="M110.631 438.157C117.004 448.688 125.85 459.123 128.114 462.928L121.718 470.763C121.718 470.763 115.418 479.364 111.459 475.894C105.613 470.77 96.5336 460.401 88.1609 449.492C83.2243 443.061 77.3523 434.037 73.3215 427.642C70.1367 422.59 68.6036 416.695 68.7722 410.725C69.0551 400.708 81.5586 396.336 88.0217 403.995L91.7154 408.372C92.8101 409.669 93.8122 411.038 94.7151 412.475C97.8026 417.39 105.487 429.656 110.631 438.157Z" fill="#E9B49E" stroke="black" stroke-width="3.30185"/>
<path d="M138.188 463.763L146.885 482.299L124.764 473.78C123.56 475.945 117.582 483.871 110.228 486.949C102.874 490.028 100.484 481.841 99.7922 477.725C99.7062 476.925 99.879 474.628 100.301 473.321C101.111 470.812 103.926 466.671 108.019 463.561C109.787 462.217 111.948 460.894 114.577 459.661C126.46 454.086 135.269 460.073 138.188 463.763Z" fill="#E9B49E" stroke="black" stroke-width="3.30185"/>
<path d="M148.708 489.141L142.262 476.36L123.593 470.483L125.919 477.391L148.708 489.141Z" fill="#E9B49E"/>
<path d="M90.9395 503.268C88.3991 502.626 85.5723 504.693 84.7287 505.765L91.5848 513.639C94.9222 512.112 96.0454 509.62 95.9973 508.65C95.3699 507.124 93.48 503.91 90.9395 503.268Z" fill="black"/>
<path d="M97.5831 490.954C95.0427 490.312 92.2158 492.38 91.3723 493.452L98.2283 501.326C101.566 499.799 102.689 497.307 102.641 496.337C102.013 494.81 100.124 491.596 97.5831 490.954Z" fill="black"/>
<path d="M113.848 473.949C111.275 478.301 105.13 474.872 102.38 472.613C104.744 467.994 108.817 464.685 111.167 463.434C113.539 464.872 116.421 469.597 113.848 473.949Z" fill="black"/>
<path d="M574.143 167.144C570.156 218.763 534.067 327.65 496.05 360.881C448.53 402.42 365.785 422.026 351.495 465.891C337.206 509.756 277.722 619.419 239.839 633.708C217.906 633.708 140.81 544.317 124.859 507.43" stroke="#E9B49E" stroke-width="59.1513"/>
<path d="M232.197 742.373L262.437 780.921L287.693 837.185M922.662 770.17L854.564 714.727" stroke="#E9B49E" stroke-width="56.4928"/>
<path d="M249.477 769.291L268.379 788.898L290.064 834.335C318.797 894.542 379.949 932.514 446.653 931.57L520.741 930.522C544.363 930.188 563.337 910.944 563.337 887.32V887.32C563.337 863.457 543.992 844.113 520.13 844.113L442.721 844.113C413.379 844.113 386.416 827.971 372.556 802.109L334.255 730.64C318.467 701.178 339.81 665.526 373.235 665.526V665.526C389.694 665.526 404.792 674.666 412.421 689.25L447.741 756.765C447.817 756.909 447.966 757 448.128 757L546.926 757C547.431 757 547.752 756.458 547.508 756.015L451.979 582.486C450.26 579.363 452.039 575.467 455.524 574.722L505.384 564.057C508.708 563.347 511.492 561.09 512.874 557.984L610.864 337.929C620.011 317.386 643.248 307.13 664.59 314.216V314.216C689.003 322.321 701.181 349.644 690.886 373.218L587.926 608.994C583.466 619.207 583.209 630.765 587.209 641.167V641.167C601.269 677.723 652.745 678.397 667.758 642.222L689.519 589.788C698.305 568.618 722.316 558.253 743.749 566.378V566.378C765.61 574.667 776.647 599.078 768.428 620.966L750.105 669.769C749.893 670.332 750.146 670.963 750.688 671.224L882.285 734.614L897.954 749.68" stroke="#0039E5" stroke-width="81.5601"/>
<path d="M177.913 738.913L214.6 770.741L260.747 729L209.052 671.849L196.881 685.036L220.172 717.806L186.104 693.404L129.578 736.24C126.091 738.882 125.913 744.062 129.21 746.937C133.783 750.924 140.146 752.148 145.872 750.141L177.913 738.913Z" fill="#121726" stroke="#121726" stroke-width="9.43436"/>
<path d="M982.025 776.373L942.961 747.511L900.219 792.733L956.225 845.666L967.328 831.568L941.546 800.72L977.418 822.383L1030.42 775.258C1033.69 772.351 1033.46 767.174 1029.95 764.565C1025.08 760.947 1018.64 760.225 1013.09 762.673L982.025 776.373Z" fill="#121726" stroke="#121726" stroke-width="9.43436"/>
<rect width="68.171" height="16.0351" rx="2.16864" transform="matrix(-0.9755 -0.220001 -0.220001 0.9755 605.712 196.995)" fill="#0039E5"/>
<circle cx="16.4118" cy="16.4118" r="15.8846" transform="matrix(-0.786927 -0.617046 -0.617046 0.786927 593.373 194.445)" fill="white" stroke="white" stroke-width="1.0544"/>
<path d="M563.83 188.273L569.261 197.615" stroke="#121726" stroke-width="1.0544" stroke-linecap="round"/>
<path d="M565.265 203.366L569.271 197.638" stroke="#121726" stroke-width="1.0544" stroke-linecap="round"/>
<path d="M588.054 204.263L598.773 206.84" stroke="white" stroke-width="1.0544" stroke-linecap="round"/>
<path d="M541.272 193.825L551.634 196.263" stroke="white" stroke-width="1.0544" stroke-linecap="round"/>
<path d="M232.86 593.499L244.824 603.8" stroke="black" stroke-width="3.30317"/>
<path fill-rule="evenodd" clip-rule="evenodd" d="M535.408 360.778C537.443 362.979 537.979 366.183 536.478 368.776C527.785 383.79 505.187 403.381 481.536 421.089C478.367 423.461 477.558 427.853 479.371 431.371C483.161 438.722 488.726 445.011 495.561 449.668L530.671 473.586C530.866 473.719 530.951 473.963 530.88 474.187L523.644 497.368C516.795 519.305 499.277 536.265 477.13 542.399C460.726 546.943 446.639 557.503 437.677 571.974L423.39 595.044C420.282 600.062 412.99 600.083 409.854 595.084L372.395 535.376C368.485 529.143 358.336 531.007 355.51 537.801C353.587 542.425 351.194 546.947 348.219 551.496C346.578 554.004 343.582 555.237 340.642 554.656C324.333 551.431 296.808 543.15 283.215 529.087C281.294 527.1 280.917 524.158 281.971 521.603C293.329 494.083 315.689 454.555 333.259 432.72C333.733 432.13 334.115 431.489 334.425 430.799C338.355 422.057 344.72 414.29 353.282 408.612L364.171 401.39C372.004 396.195 380.385 392.571 388.961 390.426C389.973 390.173 390.935 389.746 391.789 389.148C401.583 382.292 411.561 376.208 421.301 370.269C442.128 357.569 461.87 345.532 476.409 328.016C478.174 325.89 480.861 324.64 483.559 325.236C502.658 329.455 524.123 348.572 535.408 360.778Z" fill="#222222"/>
<path d="M515.54 605.794L514.858 602.158L514.802 602.168L514.746 602.18L515.54 605.794ZM461.102 595.541C459.293 594.59 457.056 595.285 456.105 597.094C455.154 598.903 455.85 601.14 457.659 602.091L461.102 595.541ZM515.54 605.794C514.746 602.18 514.747 602.18 514.748 602.18C514.748 602.18 514.749 602.18 514.749 602.18C514.75 602.18 514.75 602.18 514.749 602.18C514.749 602.18 514.746 602.18 514.742 602.181C514.733 602.183 514.717 602.187 514.694 602.191C514.648 602.201 514.574 602.216 514.472 602.237C514.269 602.277 513.958 602.337 513.546 602.41C512.723 602.555 511.501 602.752 509.946 602.949C506.833 603.343 502.405 603.734 497.195 603.714C486.728 603.674 473.344 601.976 461.102 595.541L457.659 602.091C471.336 609.28 486.032 611.071 497.166 611.114C502.755 611.136 507.508 610.717 510.875 610.29C512.56 610.077 513.903 609.861 514.835 609.697C515.301 609.614 515.664 609.545 515.917 609.494C516.043 609.469 516.142 609.449 516.212 609.434C516.247 609.427 516.275 609.421 516.295 609.416C516.306 609.414 516.314 609.412 516.321 609.411C516.324 609.41 516.327 609.41 516.329 609.409C516.33 609.409 516.332 609.409 516.332 609.408C516.334 609.408 516.335 609.408 515.54 605.794ZM516.223 609.431C521.246 608.488 528.911 605.783 536.419 601.031C543.943 596.269 551.565 589.289 556.106 579.663L549.413 576.506C545.646 584.492 539.199 590.514 532.462 594.778C525.708 599.053 518.918 601.396 514.858 602.158L516.223 609.431Z" fill="black"/>
<circle cx="417.499" cy="325.117" r="13.6097" transform="rotate(-21.7489 417.499 325.117)" stroke="#E74C3C" stroke-width="3.61585"/>
<path d="M398.804 330.394L400.983 329.516L403.162 328.638" stroke="#E74C3C" stroke-width="3.15897"/>
<path fill-rule="evenodd" clip-rule="evenodd" d="M407.968 345.072C412.317 355.972 409.919 367.892 402.76 376.211C401.814 377.31 401.594 378.889 402.331 380.137L413.829 399.593C414.435 400.618 414.423 401.906 413.725 402.872C405.951 413.64 392.577 418.985 379.427 416.413L379.364 416.401C378.322 416.197 377.452 415.483 377.048 414.501L364.217 383.246C363.962 382.624 363.512 382.105 362.952 381.735C357.938 378.432 353.85 373.616 351.457 367.617C345.231 352.012 352.835 334.314 368.44 328.089C378.409 324.112 389.232 325.779 397.372 331.569C398.188 332.15 399.317 332.073 399.999 331.339L401.439 329.79C401.445 329.784 401.455 329.784 401.46 329.791C401.465 329.797 401.475 329.797 401.481 329.791C402.068 329.225 402.773 328.76 403.578 328.439C406.901 327.113 410.67 328.733 411.996 332.056C413.094 334.807 412.173 337.863 409.939 339.586C409.935 339.589 409.934 339.595 409.938 339.599C409.941 339.603 409.94 339.61 409.936 339.613L408.029 340.883C407.158 341.463 406.878 342.608 407.317 343.558C407.546 344.054 407.764 344.559 407.968 345.072Z" fill="#E9B49E"/>
<path d="M372.843 344.843L357.278 355.836" stroke="#E74C3C" stroke-width="3.61585"/>
<path fill-rule="evenodd" clip-rule="evenodd" d="M401.958 280.14C410.038 300.392 400.172 323.368 379.92 331.532C366.912 341.751 357.6 355.967 353.441 372.013L353.249 372.753C349.998 372.281 348.594 371.119 346.602 369.469C345.945 368.926 345.224 368.329 344.352 367.686C340.835 365.096 338.011 361.677 336.13 357.734C334.25 353.792 333.37 349.446 333.571 345.082C333.662 343.09 333.977 341.121 334.505 339.213C332.606 337.763 331.077 335.881 330.047 333.722C328.98 331.485 328.482 329.019 328.595 326.543C328.709 324.067 329.431 321.657 330.699 319.527C331.187 318.706 331.752 317.935 332.382 317.226C330.769 314.867 329.388 312.295 328.285 309.531C320.188 289.233 330.116 266.199 350.46 258.083C370.804 249.967 393.861 259.842 401.958 280.14Z" fill="#0039E5"/>
<circle cx="385.791" cy="337.767" r="13.6097" transform="rotate(-21.7489 385.791 337.767)" stroke="#E74C3C" stroke-width="3.61585"/>
<circle cx="384.798" cy="337.982" r="4.86529" transform="rotate(-21.7489 384.798 337.982)" fill="black"/>
<circle cx="417.339" cy="325.111" r="4.86332" transform="rotate(-21.7489 417.339 325.111)" fill="black"/>
<path d="M408.007 371.221C406.4 374.034 397.762 388.095 377.875 386.89" stroke="black" stroke-width="2.41057" stroke-linecap="round"/>
<path d="M401.377 354.347L402.639 354.48C408.797 355.128 414.734 351.977 417.648 346.513V346.513" stroke="black" stroke-width="2.41057" stroke-linecap="round"/>
</svg>
