<svg width="1080" height="1081" viewBox="0 0 1080 1081" fill="none" xmlns="http://www.w3.org/2000/svg">
<g clip-path="url(#clip0_125_120)">
<rect width="1080" height="1080" transform="translate(0 0.915527)" fill="black"/>
<path d="M667.441 607.255C715.033 668.916 701.675 766.552 689.047 807.663L672.191 819.626C570.321 891.923 432.699 887.233 335.987 808.169L286.051 609.195L365.512 585.972L481.436 532.927L667.441 607.255Z" fill="white" stroke="black" stroke-width="6.8097"/>
<path d="M514.832 549.763C509.86 523.38 517.825 465.378 589.467 444.441C661.108 423.503 693.944 478.708 701.407 508.927L702.101 579.228L702.719 641.663C702.767 646.536 700.259 651.136 695.858 653.23C677.614 661.91 647.284 668.937 631.835 645.626C614.202 619.018 601.142 554.657 596.817 525.803L514.832 549.763Z" fill="white"/>
<path d="M702.101 579.228L701.407 508.927C693.944 478.708 661.108 423.503 589.467 444.441C517.825 465.378 509.86 523.38 514.832 549.763L596.817 525.803C601.142 554.657 614.202 619.018 631.835 645.626C647.284 668.937 677.614 661.91 695.858 653.23C700.259 651.136 702.767 646.536 702.719 641.663V641.663M702.101 579.228C693.965 577.739 675.45 578.037 666.475 591.149C657.501 604.26 661.802 626.454 665.074 635.912C668.747 640.515 681.417 648.109 702.719 641.663M702.101 579.228L702.719 641.663" stroke="black" stroke-width="6.8097"/>
<path d="M442.333 589.344C461.622 615.015 492.037 680.016 459.381 734.645" stroke="white" stroke-width="6.8097"/>
<path d="M434.932 520.81C429.959 494.427 437.924 436.425 509.566 415.488C581.208 394.55 614.043 449.754 621.506 479.974L622.201 550.275L622.818 612.709C622.866 617.583 620.358 622.183 615.957 624.277C597.713 632.957 567.383 639.984 551.935 616.673C534.301 590.065 521.242 525.704 516.916 496.85L434.932 520.81Z" fill="white"/>
<path d="M622.201 550.275L621.506 479.974C614.043 449.754 581.208 394.55 509.566 415.488C437.924 436.425 429.959 494.427 434.932 520.81L516.916 496.85C521.242 525.704 534.301 590.065 551.935 616.673C567.383 639.984 597.713 632.957 615.957 624.277C620.358 622.183 622.866 617.583 622.818 612.709V612.709M622.201 550.275C614.065 548.786 595.549 549.084 586.575 562.196C577.6 575.307 581.901 597.501 585.174 606.959C588.846 611.562 601.517 619.156 622.818 612.709M622.201 550.275L622.818 612.709" stroke="black" stroke-width="6.8097"/>
<path d="M366.702 494.793C361.729 468.409 369.694 410.408 441.336 389.471C512.978 368.533 545.813 423.737 553.276 453.957L553.971 524.258L554.588 586.692C554.636 591.566 552.128 596.166 547.727 598.26C529.483 606.94 499.153 613.967 483.705 590.656C466.071 564.048 453.012 499.687 448.686 470.833L366.702 494.793Z" fill="white"/>
<path d="M553.971 524.258L553.276 453.957C545.813 423.737 512.978 368.533 441.336 389.471C369.694 410.408 361.729 468.409 366.702 494.793L448.686 470.833C453.012 499.687 466.071 564.048 483.705 590.656C499.153 613.967 529.483 606.94 547.727 598.26C552.128 596.166 554.636 591.566 554.588 586.692V586.692M553.971 524.258C545.835 522.769 527.319 523.067 518.345 536.179C509.37 549.29 513.671 571.484 516.944 580.942C520.616 585.545 533.287 593.139 554.588 586.692M553.971 524.258L554.588 586.692" stroke="black" stroke-width="6.8097"/>
<path d="M407.452 569.269C354.674 516.492 387.319 461.174 410.239 440.113L471.565 405.734L526.027 375.201C530.279 372.818 535.518 372.808 539.469 375.662C555.845 387.494 576.578 410.72 563.553 435.467C557.532 446.907 545.719 460.664 532.25 474.158C512.463 493.981 489.103 513.235 475.281 523.739L407.452 569.269Z" fill="white"/>
<path d="M475.281 523.739C498.511 506.085 548.686 463.714 563.553 435.467C576.578 410.72 555.845 387.494 539.469 375.662C535.518 372.808 530.279 372.818 526.027 375.201V375.201M475.281 523.739L532.25 474.158M475.281 523.739L407.452 569.269C354.674 516.492 387.319 461.174 410.239 440.113L471.565 405.734M471.565 405.734C474.166 413.585 483.322 429.681 499.133 431.254C514.944 432.827 532.343 418.394 539.066 410.98C541.339 405.548 541.914 390.787 526.027 375.201M471.565 405.734L526.027 375.201" stroke="black" stroke-width="6.8097"/>
<path d="M301.78 496.292C296.807 469.909 304.773 411.907 376.414 390.97C448.056 370.033 480.892 425.237 488.354 455.456L489.049 525.758L489.666 588.192C489.714 593.065 487.207 597.666 482.805 599.759C464.562 608.439 434.231 615.467 418.783 592.155C411.641 581.379 405.25 564.41 399.885 546.115L318.71 613.756L301.78 496.292Z" fill="white"/>
<path d="M489.049 525.758L488.354 455.456C480.892 425.237 448.056 370.033 376.414 390.97C304.773 411.907 296.807 469.909 301.78 496.292L318.71 613.756L399.885 546.115L383.765 472.332C388.09 501.187 401.15 565.547 418.783 592.155C434.231 615.467 464.562 608.439 482.805 599.759C487.207 597.666 489.714 593.065 489.666 588.192V588.192M489.049 525.758C480.913 524.268 462.397 524.566 453.423 537.678C444.449 550.789 448.75 572.983 452.022 582.441C455.695 587.044 468.365 594.639 489.666 588.192M489.049 525.758L489.666 588.192" stroke="black" stroke-width="6.8097"/>
<path d="M280.615 603.539L315.442 722.704L411.803 580.794L384.262 473.913C307.866 496.24 279.081 575.047 280.615 603.539Z" fill="white" stroke="black" stroke-width="6.8097"/>
<path d="M329.081 761.654L314.1 706.2L350.691 618.641L369.95 657.817L329.081 761.654Z" fill="white"/>
<path d="M469.764 624.693C486.732 647.276 513.488 704.456 484.761 752.512" stroke="black" stroke-width="6"/>
<path d="M506.874 763.285V1291.96" stroke="white" stroke-width="364"/>
<path d="M311.787 762.373H722.809" stroke="black" stroke-width="18"/>
<rect x="-3.28981" y="2.67902" width="410.191" height="91.8961" transform="matrix(-0.994805 -0.101798 -0.101798 0.994805 714.677 903.081)" fill="white" stroke="black" stroke-width="6"/>
<circle cx="100.196" cy="100.196" r="97.1957" transform="matrix(-0.855054 -0.518539 -0.518539 0.855054 644.321 896.952)" fill="white" stroke="black" stroke-width="6"/>
<path d="M460.758 881.106L500.496 933.763" stroke="black" stroke-width="6" stroke-linecap="round"/>
<path d="M480.459 971.545L500.56 933.898" stroke="black" stroke-width="6" stroke-linecap="round"/>
<path d="M619.255 960.347L686.111 968.139" stroke="white" stroke-width="6" stroke-linecap="round"/>
<path d="M328.082 931.219L392.669 938.438" stroke="white" stroke-width="6" stroke-linecap="round"/>
</g>
<defs>
<clipPath id="clip0_125_120">
<rect width="1080" height="1080" fill="white" transform="translate(0 0.915527)"/>
</clipPath>
</defs>
</svg>
