<svg width="500" height="500" viewBox="0 0 500 500" fill="none" xmlns="http://www.w3.org/2000/svg">
<g clip-path="url(#clip0_502_785)">
<rect width="500" height="500" rx="250" fill="black"/>
<path d="M322.101 451.688L332.391 443.181L329.729 430.285L309.162 435.862L310.978 440.479L321.938 438.629L311.762 444.169L316.076 465.694C318.952 464.468 320.948 461.791 321.303 458.684L322.101 451.688Z" fill="white" stroke="white" stroke-width="2.84295"/>
<path d="M319.167 439.302L305.329 443.351" stroke="black" stroke-width="2.84295" stroke-linecap="round"/>
<path d="M313.187 404.462L321.615 394.108L316.483 381.981L297.403 391.471L300.086 395.644L310.473 391.687L301.577 399.109L310.015 419.376C312.597 417.611 314.031 414.596 313.771 411.479L313.187 404.462Z" fill="white" stroke="white" stroke-width="2.84295"/>
<path d="M307.888 392.89L295.109 399.565" stroke="black" stroke-width="2.84295" stroke-linecap="round"/>
<path d="M352.074 249.71C349.4 254.172 351.05 260.544 352.209 263.172L353.421 263.834C360.744 267.832 369.836 266.444 375.632 260.443L377.387 246.854L371.935 245.936L363.831 243.324L352.074 249.71Z" fill="white" stroke="black" stroke-width="1.33724"/>
<path d="M361.748 244.703C361.871 242.914 360.889 239.129 355.973 238.301C351.057 237.473 349.311 241.391 349.052 243.454L349.556 248.123L350.004 252.269C350.039 252.592 350.241 252.878 350.549 252.982C351.828 253.415 353.894 253.644 354.737 251.977C355.698 250.074 356.061 245.703 356.122 243.755L361.748 244.703Z" fill="white"/>
<path d="M349.556 248.123L349.052 243.454C349.311 241.391 351.057 237.473 355.973 238.301C360.889 239.129 361.871 242.914 361.748 244.703L356.122 243.755C356.061 245.703 355.698 250.074 354.737 251.977C353.894 253.644 351.828 253.415 350.549 252.982C350.241 252.878 350.039 252.592 350.004 252.269V252.269M349.556 248.123C350.084 247.96 351.315 247.835 352.013 248.635C352.711 249.434 352.599 250.94 352.456 251.593C352.248 251.927 351.467 252.53 350.004 252.269M349.556 248.123L350.004 252.269" stroke="black" stroke-width="1.33724"/>
<path d="M366.866 246.76C365.788 248.614 364.279 253.163 366.872 256.531" stroke="white" stroke-width="1.33724"/>
<path d="M366.82 242.157C366.944 240.368 365.962 236.583 361.046 235.755C356.13 234.926 354.384 238.845 354.125 240.908L354.629 245.577L355.077 249.723C355.112 250.046 355.314 250.332 355.622 250.436C356.9 250.869 358.967 251.098 359.81 249.431C360.771 247.528 361.134 243.157 361.195 241.209L366.82 242.157Z" fill="white"/>
<path d="M354.629 245.577L354.125 240.908C354.384 238.845 356.13 234.926 361.046 235.755C365.962 236.583 366.944 240.368 366.82 242.157L361.195 241.209C361.134 243.157 360.771 247.528 359.81 249.431C358.967 251.098 356.9 250.869 355.622 250.436C355.314 250.332 355.112 250.046 355.077 249.723V249.723M354.629 245.577C355.157 245.414 356.388 245.289 357.086 246.088C357.784 246.888 357.672 248.394 357.529 249.047C357.321 249.381 356.54 249.984 355.077 249.723M354.629 245.577L355.077 249.723" stroke="black" stroke-width="1.33724"/>
<path d="M371.143 239.897C371.267 238.108 370.285 234.323 365.369 233.495C360.453 232.667 358.707 236.586 358.448 238.648L358.952 243.317L359.4 247.463C359.435 247.787 359.637 248.072 359.945 248.177C361.223 248.61 363.29 248.839 364.133 247.171C365.094 245.269 365.457 240.897 365.518 238.949L371.143 239.897Z" fill="white"/>
<path d="M358.952 243.317L358.448 238.648C358.707 236.586 360.453 232.667 365.369 233.495C370.285 234.323 371.267 238.108 371.143 239.897L365.518 238.949C365.457 240.897 365.094 245.269 364.133 247.171C363.29 248.839 361.223 248.61 359.945 248.177C359.637 248.072 359.435 247.787 359.4 247.463V247.463M358.952 243.317C359.48 243.155 360.711 243.029 361.409 243.829C362.106 244.628 361.995 246.134 361.852 246.787C361.644 247.121 360.863 247.724 359.4 247.463M358.952 243.317L359.4 247.463" stroke="black" stroke-width="1.33724"/>
<path d="M375.666 232.975C376.537 237.884 375.987 245.032 375.863 246.821L370.605 244.97C370.605 244.97 366.524 246.381 366.006 244.313C365.241 241.259 366.089 235.436 364.336 230.151C362.858 225.695 362.064 221.026 361.711 218.523C361.538 217.3 361.588 216.06 361.804 214.844C362.613 210.287 368.833 209.533 370.708 213.764L371.124 214.704C371.369 215.256 371.578 215.822 371.743 216.404C372.446 218.868 374.456 226.159 375.666 232.975Z" fill="white" stroke="black" stroke-width="1.33724"/>
<path d="M376.326 254.613L377.703 246.437C377.582 244.535 376.03 240.51 370.787 239.627C369.628 239.432 368.603 239.374 367.705 239.413C365.625 239.506 363.733 240.235 362.885 240.884C362.443 241.222 361.856 241.947 361.7 242.233C360.981 243.763 359.89 247.04 363.048 247.71C366.206 248.381 370.024 247.12 370.924 246.677L376.326 254.613Z" fill="white"/>
<path d="M367.705 239.413C368.603 239.374 369.628 239.432 370.787 239.627C376.03 240.51 377.582 244.535 377.703 246.437L376.326 254.613L370.924 246.677C370.024 247.12 366.206 248.381 363.048 247.71C359.89 247.04 360.981 243.763 361.7 242.233C361.856 241.947 362.443 241.222 362.885 240.884M367.705 239.413C368.07 240.794 368.297 243.608 366.28 243.821C364.262 244.034 363.014 241.99 362.885 240.884M367.705 239.413C365.625 239.506 363.733 240.235 362.885 240.884" stroke="black" stroke-width="1.33724"/>
<path d="M375.355 257.311L376.156 251.569L371.294 245.309L370.476 248.145L375.355 257.311Z" fill="white"/>
<path d="M192.73 219.897C193.138 225.084 188.823 230.054 186.615 231.891L185.235 231.944C176.898 232.264 169.375 226.973 166.857 219.019L171.336 206.069L176.627 207.675L185.047 208.945L192.73 219.897Z" fill="white" stroke="black" stroke-width="1.33724"/>
<path d="M186.298 211.106C186.984 209.45 189.548 206.498 194.319 207.945C199.089 209.392 198.908 213.679 198.221 215.641L195.691 219.597L193.444 223.11C193.269 223.384 192.961 223.55 192.638 223.506C191.301 223.324 189.348 222.609 189.336 220.741C189.323 218.609 190.944 214.534 191.757 212.763L186.298 211.106Z" fill="white"/>
<path d="M195.691 219.597L198.221 215.641C198.908 213.679 199.089 209.392 194.319 207.945C189.548 206.498 186.984 209.45 186.298 211.106L191.757 212.763C190.944 214.534 189.323 218.609 189.336 220.741C189.348 222.609 191.301 223.324 192.638 223.506C192.961 223.55 193.269 223.384 193.444 223.11V223.11M195.691 219.597C195.291 219.216 194.245 218.556 193.264 218.961C192.283 219.366 191.712 220.764 191.55 221.413C191.587 221.804 192.018 222.692 193.444 223.11M195.691 219.597L193.444 223.11" stroke="black" stroke-width="1.33724"/>
<path d="M180.798 210.669C180.939 212.809 180.264 217.555 176.442 219.416" stroke="white" stroke-width="1.33724"/>
<path d="M182.89 206.568C183.576 204.912 186.14 201.96 190.911 203.407C195.681 204.854 195.5 209.14 194.813 211.103L192.283 215.059L190.036 218.572C189.861 218.846 189.552 219.012 189.23 218.968C187.893 218.786 185.94 218.071 185.928 216.203C185.915 214.071 187.536 209.996 188.349 208.224L182.89 206.568Z" fill="white"/>
<path d="M192.283 215.059L194.813 211.103C195.5 209.14 195.681 204.854 190.911 203.407C186.14 201.96 183.576 204.912 182.89 206.568L188.349 208.224C187.536 209.996 185.915 214.071 185.928 216.203C185.94 218.071 187.893 218.786 189.23 218.968C189.552 219.012 189.861 218.846 190.036 218.572V218.572M192.283 215.059C191.882 214.678 190.836 214.018 189.855 214.423C188.875 214.828 188.304 216.226 188.141 216.875C188.179 217.266 188.61 218.154 190.036 218.572M192.283 215.059L190.036 218.572" stroke="black" stroke-width="1.33724"/>
<path d="M180.025 202.62C180.711 200.963 183.275 198.011 188.046 199.459C192.816 200.906 192.635 205.192 191.948 207.154L189.418 211.11L187.171 214.623C186.996 214.898 186.687 215.063 186.365 215.02C185.028 214.838 183.075 214.123 183.063 212.255C183.05 210.123 184.671 206.047 185.484 204.276L180.025 202.62Z" fill="white"/>
<path d="M189.418 211.11L191.948 207.154C192.635 205.192 192.816 200.906 188.046 199.459C183.275 198.011 180.711 200.963 180.025 202.62L185.484 204.276C184.671 206.047 183.05 210.123 183.063 212.255C183.075 214.123 185.028 214.838 186.365 215.02C186.687 215.063 186.996 214.898 187.171 214.623V214.623M189.418 211.11C189.018 210.73 187.971 210.07 186.991 210.475C186.01 210.88 185.439 212.278 185.277 212.926C185.314 213.318 185.745 214.206 187.171 214.623M189.418 211.11L187.171 214.623" stroke="black" stroke-width="1.33724"/>
<path d="M183.785 191.488C180.381 195.129 173.402 205.061 172.716 206.717L178.248 207.401C178.248 207.401 181.273 210.482 182.658 208.861C184.703 206.467 187.207 200.967 191.13 197.015C194.266 193.857 197.819 191.964 199.927 191.024C201.137 190.485 202.328 189.888 203.396 189.105C207.05 186.427 204.601 180.65 200.136 181.414L199.687 181.491C199.029 181.603 198.385 181.766 197.767 182.018C195.397 182.985 188.958 185.953 183.785 191.488Z" fill="white" stroke="black" stroke-width="1.33724"/>
<path d="M168.832 213.489L171.239 205.554C172.194 203.905 175.377 200.993 180.464 202.537C181.589 202.878 182.532 203.282 183.319 203.718C185.14 204.726 186.509 206.223 186.98 207.181C187.225 207.68 187.428 208.591 187.44 208.916C187.402 210.606 186.921 214.027 183.794 213.221C180.668 212.415 177.811 209.586 177.202 208.788L168.832 213.489Z" fill="white"/>
<path d="M183.319 203.718C182.532 203.282 181.589 202.878 180.464 202.537C175.377 200.993 172.194 203.905 171.239 205.554L168.832 213.489L177.202 208.788C177.811 209.586 180.668 212.415 183.794 213.221C186.921 214.027 187.402 210.606 187.44 208.916C187.428 208.591 187.225 207.68 186.98 207.181M183.319 203.718C182.377 204.791 180.921 207.21 182.633 208.299C184.344 209.388 186.372 208.113 186.98 207.181M183.319 203.718C185.14 204.726 186.509 206.223 186.98 207.181" stroke="black" stroke-width="1.33724"/>
<path d="M168.499 216.337L170.339 210.84L177.48 207.398L176.949 210.302L168.499 216.337Z" fill="white"/>
<mask id="path-30-inside-1_502_785" fill="white">
<path d="M87.3282 162.749C100.903 136.846 120.476 114.564 144.413 97.7623C168.35 80.9606 195.957 70.1263 224.933 66.1631C253.908 62.1999 283.411 65.2228 310.98 74.9795C338.55 84.7361 363.387 100.944 383.419 122.25C403.452 143.557 418.099 169.345 426.139 197.463C434.18 225.581 435.38 255.214 429.64 283.891C423.899 312.567 411.385 339.455 393.141 362.312C374.897 385.168 351.452 403.331 324.762 415.285L308.697 379.417C329.668 370.024 348.09 355.753 362.425 337.794C376.759 319.835 386.592 298.708 391.102 276.177C395.612 253.645 394.669 230.361 388.352 208.268C382.035 186.175 370.526 165.913 354.786 149.172C339.046 132.431 319.531 119.696 297.869 112.03C276.207 104.364 253.025 101.989 230.259 105.103C207.492 108.216 185.8 116.729 166.992 129.931C148.184 143.132 132.806 160.64 122.139 180.993L87.3282 162.749Z"/>
</mask>
<path d="M87.3282 162.749C100.903 136.846 120.476 114.564 144.413 97.7623C168.35 80.9606 195.957 70.1263 224.933 66.1631C253.908 62.1999 283.411 65.2228 310.98 74.9795C338.55 84.7361 363.387 100.944 383.419 122.25C403.452 143.557 418.099 169.345 426.139 197.463C434.18 225.581 435.38 255.214 429.64 283.891C423.899 312.567 411.385 339.455 393.141 362.312C374.897 385.168 351.452 403.331 324.762 415.285L308.697 379.417C329.668 370.024 348.09 355.753 362.425 337.794C376.759 319.835 386.592 298.708 391.102 276.177C395.612 253.645 394.669 230.361 388.352 208.268C382.035 186.175 370.526 165.913 354.786 149.172C339.046 132.431 319.531 119.696 297.869 112.03C276.207 104.364 253.025 101.989 230.259 105.103C207.492 108.216 185.8 116.729 166.992 129.931C148.184 143.132 132.806 160.64 122.139 180.993L87.3282 162.749Z" stroke="white" stroke-width="77.6469" mask="url(#path-30-inside-1_502_785)"/>
<mask id="path-31-inside-2_502_785" fill="white">
<path d="M43.8759 139.977C61.2826 106.763 86.4657 78.2519 117.277 56.8771C148.088 35.5024 183.612 21.8982 220.819 17.2253C258.026 12.5524 295.812 16.9494 330.952 30.0412C366.091 43.133 397.543 64.531 422.622 92.4097C447.702 120.288 465.665 153.82 474.98 190.144C484.294 226.468 484.684 264.506 476.114 301.014C467.545 337.521 450.272 371.413 425.769 399.799C401.265 428.186 370.258 450.223 335.394 464.031L318.035 420.203C345.83 409.194 370.549 391.626 390.084 368.996C409.619 346.366 423.389 319.346 430.221 290.241C437.052 261.137 436.742 230.812 429.316 201.854C421.89 172.895 407.57 146.163 387.576 123.937C367.582 101.712 342.508 84.6528 314.494 74.2157C286.479 63.7787 256.356 60.2733 226.694 63.9986C197.031 67.724 168.71 78.5696 144.147 95.61C119.584 112.65 99.5073 135.38 85.6303 161.859L43.8759 139.977Z"/>
</mask>
<path d="M43.8759 139.977C61.2826 106.763 86.4657 78.2519 117.277 56.8771C148.088 35.5024 183.612 21.8982 220.819 17.2253C258.026 12.5524 295.812 16.9494 330.952 30.0412C366.091 43.133 397.543 64.531 422.622 92.4097C447.702 120.288 465.665 153.82 474.98 190.144C484.294 226.468 484.684 264.506 476.114 301.014C467.545 337.521 450.272 371.413 425.769 399.799C401.265 428.186 370.258 450.223 335.394 464.031L318.035 420.203C345.83 409.194 370.549 391.626 390.084 368.996C409.619 346.366 423.389 319.346 430.221 290.241C437.052 261.137 436.742 230.812 429.316 201.854C421.89 172.895 407.57 146.163 387.576 123.937C367.582 101.712 342.508 84.6528 314.494 74.2157C286.479 63.7787 256.356 60.2733 226.694 63.9986C197.031 67.724 168.71 78.5696 144.147 95.61C119.584 112.65 99.5073 135.38 85.6303 161.859L43.8759 139.977Z" stroke="white" stroke-width="77.6469" mask="url(#path-31-inside-2_502_785)"/>
<path d="M86.5631 250.296L86.0229 250.369C86.05 239.272 87.2372 227.884 89.4019 216.773C89.5537 217.246 89.6128 217.809 89.513 218.383C87.7351 228.616 86.6269 239.557 86.5631 250.296Z" fill="white" stroke="white" stroke-width="38.8234"/>
<path d="M134.557 248.116L127.77 249.29C127.498 225.642 134.108 202.27 147.006 182.115C163.43 156.45 188.861 137.859 218.298 129.996C247.735 122.133 279.049 125.567 306.083 139.623C327.313 150.662 344.697 167.626 356.254 188.259L349.785 190.626C338.874 171.572 322.668 155.906 302.948 145.652C277.42 132.379 247.85 129.136 220.052 136.561C192.253 143.986 168.239 161.542 152.73 185.777C140.749 204.499 134.514 226.16 134.557 248.116Z" stroke="white" stroke-width="38.8234"/>
<mask id="path-34-inside-3_502_785" fill="white">
<path d="M386.266 258.592C384.438 286.348 373.924 313.141 356.168 335.292C338.411 357.443 314.283 373.867 287.094 382.31C259.905 390.753 230.987 390.801 204.31 382.448C177.632 374.095 154.503 357.75 138.096 335.656L174.987 308.69C185.966 323.475 201.444 334.413 219.296 340.002C237.148 345.592 256.499 345.56 274.694 339.91C292.888 334.26 309.035 323.269 320.917 308.446C332.799 293.623 339.834 275.694 341.058 257.12L386.266 258.592Z"/>
</mask>
<path d="M386.266 258.592C384.438 286.348 373.924 313.141 356.168 335.292C338.411 357.443 314.283 373.867 287.094 382.31C259.905 390.753 230.987 390.801 204.31 382.448C177.632 374.095 154.503 357.75 138.096 335.656L174.987 308.69C185.966 323.475 201.444 334.413 219.296 340.002C237.148 345.592 256.499 345.56 274.694 339.91C292.888 334.26 309.035 323.269 320.917 308.446C332.799 293.623 339.834 275.694 341.058 257.12L386.266 258.592Z" stroke="white" stroke-width="77.6469" mask="url(#path-34-inside-3_502_785)"/>
<mask id="path-35-inside-4_502_785" fill="white">
<path d="M261.9 432.677C232.017 434.623 202.112 429.209 174.808 416.909C147.504 404.609 123.635 385.798 105.292 362.125L136.3 338.1C150.712 356.7 169.466 371.48 190.92 381.145C212.373 390.809 235.87 395.063 259.35 393.534L261.9 432.677Z"/>
</mask>
<path d="M261.9 432.677C232.017 434.623 202.112 429.209 174.808 416.909C147.504 404.609 123.635 385.798 105.292 362.125L136.3 338.1C150.712 356.7 169.466 371.48 190.92 381.145C212.373 390.809 235.87 395.063 259.35 393.534L261.9 432.677Z" stroke="black" stroke-width="77.6469" mask="url(#path-35-inside-4_502_785)"/>
<mask id="path-36-inside-5_502_785" fill="white">
<path d="M261.9 432.677C231.995 434.625 202.069 429.201 174.75 416.883C147.431 404.564 123.553 385.727 105.214 362.025L136.238 338.021C150.648 356.644 169.409 371.445 190.874 381.124C212.34 390.803 235.853 395.064 259.35 393.534L261.9 432.677Z"/>
</mask>
<path d="M261.9 432.677C231.995 434.625 202.069 429.201 174.75 416.883C147.431 404.564 123.553 385.727 105.214 362.025L136.238 338.021C150.648 356.644 169.409 371.445 190.874 381.124C212.34 390.803 235.853 395.064 259.35 393.534L261.9 432.677Z" stroke="white" stroke-width="77.6469" mask="url(#path-36-inside-5_502_785)"/>
<mask id="path-37-inside-6_502_785" fill="white">
<path d="M265.468 487.443C230.777 489.703 196.012 484.334 163.62 471.713C131.227 459.093 101.993 439.528 77.9745 414.394C53.9561 389.261 35.7368 359.17 24.5983 326.238C13.4597 293.307 9.67255 258.334 13.5032 223.781L64.1784 229.399C61.1686 256.548 64.1443 284.027 72.8961 309.902C81.648 335.778 95.9634 359.421 114.835 379.169C133.707 398.917 156.677 414.29 182.129 424.206C207.581 434.122 234.896 438.34 262.154 436.565L265.468 487.443Z"/>
</mask>
<path d="M265.468 487.443C230.777 489.703 196.012 484.334 163.62 471.713C131.227 459.093 101.993 439.528 77.9745 414.394C53.9561 389.261 35.7368 359.17 24.5983 326.238C13.4597 293.307 9.67255 258.334 13.5032 223.781L64.1784 229.399C61.1686 256.548 64.1443 284.027 72.8961 309.902C81.648 335.778 95.9634 359.421 114.835 379.169C133.707 398.917 156.677 414.29 182.129 424.206C207.581 434.122 234.896 438.34 262.154 436.565L265.468 487.443Z" stroke="white" stroke-width="77.6469" mask="url(#path-37-inside-6_502_785)"/>
<path d="M336.931 466.417L317.461 418.229" stroke="black" stroke-width="2.84295"/>
<path d="M325.552 415.826L309.552 378.326" stroke="black" stroke-width="2.84295"/>
<path d="M13.5072 223.82L17.5202 200.765C19.4181 189.862 30.0337 182.749 40.8395 185.141L83.495 194.583L75.1856 234.944L13.5072 223.82Z" fill="white"/>
<path d="M302.17 234.797L288.609 209.419C283.388 199.65 287.387 187.5 297.389 182.741L341.693 161.663L362.293 203.123L302.17 234.797Z" fill="white"/>
<path d="M106.007 363.085L95.5639 349.033L87.0047 335.329C79.9388 324.017 86.124 309.112 99.1235 306.127L149.878 294.47C157.536 292.711 165.499 295.742 170.049 302.148L175.513 309.84L106.007 363.085Z" fill="white"/>
<path d="M97.252 195.216L46.3125 183.517C33.3658 180.543 27.1636 165.736 34.126 154.423L48.1739 131.598L122.887 179.846L117.423 187.538C112.873 193.944 104.91 196.975 97.252 195.216Z" fill="white"/>
<path d="M152.861 251.497L157.431 271.226C159.837 281.614 153.413 291.997 143.044 294.483L95.9904 305.761C85.5084 308.273 74.9868 301.765 72.5547 291.264L68.0524 271.824L152.861 251.497Z" fill="white"/>
<path d="M256.163 393.765L264.565 393.016C283.152 391.359 299.596 405.006 301.393 423.58L303.161 441.846C305.398 464.965 288.373 485.48 265.238 487.542L256.163 393.765Z" fill="white"/>
<circle cx="138.304" cy="338.291" r="1.44296" transform="rotate(-90 138.304 338.291)" fill="black"/>
<circle cx="260.111" cy="434.726" r="1.93524" transform="rotate(-90 260.111 434.726)" fill="black"/>
<circle cx="107.762" cy="262.39" r="1.33559" transform="rotate(-90 107.762 262.39)" fill="black"/>
<circle cx="65.6122" cy="233.306" r="1.8128" transform="rotate(-90 65.6122 233.306)" fill="black"/>
<path fill-rule="evenodd" clip-rule="evenodd" d="M251.748 294.199C236.895 294.193 224.859 282.148 224.864 267.294C224.864 266.805 224.878 266.319 224.904 265.837C224.953 264.912 224.349 264.064 223.443 263.872L221.461 263.453C221.457 263.452 221.454 263.448 221.456 263.444C221.457 263.44 221.455 263.435 221.451 263.434C219.052 262.75 217.295 260.541 217.296 257.923C217.298 254.76 219.863 252.196 223.026 252.198C223.792 252.198 224.523 252.348 225.191 252.622C225.198 252.624 225.205 252.621 225.208 252.614C225.21 252.606 225.219 252.603 225.226 252.606L226.915 253.407C227.715 253.787 228.668 253.48 229.148 252.736C233.939 245.317 242.281 240.407 251.769 240.411C266.622 240.417 278.658 252.462 278.652 267.315C278.646 282.169 266.601 294.205 251.748 294.199Z" fill="white"/>
<path d="M229.148 252.736L228.469 252.297L229.148 252.736ZM221.451 263.434L221.229 264.212L221.451 263.434ZM225.226 252.606L225.572 251.875L225.226 252.606ZM221.461 263.453L221.628 262.662L221.461 263.453ZM225.191 252.622L225.497 251.873L225.191 252.622ZM223.443 263.872L223.276 264.663L223.443 263.872ZM225.673 267.295C225.668 281.701 237.342 293.384 251.748 293.39L251.748 295.008C236.448 295.002 224.05 282.594 224.055 267.294L225.673 267.295ZM225.711 265.88C225.686 266.348 225.673 266.82 225.673 267.295L224.055 267.294C224.056 266.791 224.069 266.29 224.096 265.793L225.711 265.88ZM223.276 264.663L221.294 264.244L221.628 262.662L223.611 263.081L223.276 264.663ZM221.229 264.212C218.492 263.432 216.486 260.912 216.488 257.923L218.105 257.923C218.104 260.171 219.612 262.069 221.672 262.656L221.229 264.212ZM216.488 257.923C216.489 254.313 219.417 251.387 223.027 251.389L223.026 253.006C220.309 253.005 218.106 255.207 218.105 257.923L216.488 257.923ZM223.027 251.389C223.899 251.389 224.734 251.561 225.497 251.873L224.884 253.37C224.312 253.136 223.685 253.007 223.026 253.006L223.027 251.389ZM225.572 251.875L227.262 252.676L226.569 254.138L224.879 253.337L225.572 251.875ZM251.768 241.22C242.567 241.216 234.476 245.977 229.828 253.175L228.469 252.297C233.402 244.657 241.995 239.598 251.769 239.602L251.768 241.22ZM277.843 267.315C277.849 252.909 266.175 241.225 251.768 241.22L251.769 239.602C267.069 239.608 279.467 252.016 279.461 267.316L277.843 267.315ZM251.748 293.39C266.155 293.396 277.838 281.722 277.843 267.315L279.461 267.316C279.455 282.616 267.047 295.014 251.748 295.008L251.748 293.39ZM227.262 252.676C227.669 252.869 228.193 252.725 228.469 252.297L229.828 253.175C229.143 254.235 227.762 254.704 226.569 254.138L227.262 252.676ZM220.691 263.179C220.54 263.617 220.79 264.087 221.229 264.212L221.672 262.656C222.12 262.784 222.375 263.262 222.22 263.708L220.691 263.179ZM224.444 252.349C224.604 251.887 225.13 251.666 225.572 251.875L224.879 253.337C225.307 253.54 225.817 253.326 225.972 252.879L224.444 252.349ZM221.294 264.244C220.813 264.143 220.531 263.643 220.691 263.179L222.22 263.708C222.378 263.253 222.1 262.762 221.628 262.662L221.294 264.244ZM225.497 251.873C225.075 251.7 224.593 251.917 224.444 252.349L225.972 252.879C225.817 253.325 225.32 253.548 224.884 253.37L225.497 251.873ZM224.096 265.793C224.126 265.237 223.763 264.766 223.276 264.663L223.611 263.081C224.935 263.361 225.781 264.588 225.711 265.88L224.096 265.793Z" fill="black"/>
<mask id="path-52-inside-7_502_785" fill="white">
<path fill-rule="evenodd" clip-rule="evenodd" d="M208.55 213.707C208.543 232.083 223.434 246.985 241.81 246.993C242.324 246.993 242.836 246.981 243.344 246.958C257.423 251.079 269.77 259.723 278.462 271.574L278.861 272.119C281.377 270.668 282.15 269.254 283.246 267.247C283.608 266.585 284.004 265.859 284.51 265.047C286.551 261.768 287.752 258.036 288.006 254.183C288.26 250.329 287.56 246.473 285.967 242.954C285.24 241.348 284.337 239.835 283.279 238.441C284.364 236.628 285.003 234.583 285.142 232.473C285.287 230.286 284.889 228.098 283.986 226.102C283.082 224.106 281.7 222.363 279.962 221.028C278.418 219.843 276.636 219.012 274.741 218.59C274.974 217.005 275.095 215.383 275.095 213.733C275.102 195.357 260.212 180.455 241.836 180.448C223.46 180.441 208.558 195.331 208.55 213.707Z"/>
</mask>
<path fill-rule="evenodd" clip-rule="evenodd" d="M208.55 213.707C208.543 232.083 223.434 246.985 241.81 246.993C242.324 246.993 242.836 246.981 243.344 246.958C257.423 251.079 269.77 259.723 278.462 271.574L278.861 272.119C281.377 270.668 282.15 269.254 283.246 267.247C283.608 266.585 284.004 265.859 284.51 265.047C286.551 261.768 287.752 258.036 288.006 254.183C288.26 250.329 287.56 246.473 285.967 242.954C285.24 241.348 284.337 239.835 283.279 238.441C284.364 236.628 285.003 234.583 285.142 232.473C285.287 230.286 284.889 228.098 283.986 226.102C283.082 224.106 281.7 222.363 279.962 221.028C278.418 219.843 276.636 219.012 274.741 218.59C274.974 217.005 275.095 215.383 275.095 213.733C275.102 195.357 260.212 180.455 241.836 180.448C223.46 180.441 208.558 195.331 208.55 213.707Z" fill="white"/>
<path d="M243.344 246.958L243.271 245.342L243.54 245.33L243.799 245.406L243.344 246.958ZM278.462 271.574L277.157 272.531L277.157 272.531L278.462 271.574ZM278.861 272.119L279.67 273.52L278.414 274.244L277.557 273.076L278.861 272.119ZM283.246 267.247L281.827 266.471L281.827 266.471L283.246 267.247ZM284.51 265.047L283.137 264.192L283.137 264.192L284.51 265.047ZM285.967 242.954L287.441 242.287L287.441 242.287L285.967 242.954ZM283.279 238.441L281.99 239.419L281.329 238.548L281.891 237.61L283.279 238.441ZM285.142 232.473L283.528 232.366L285.142 232.473ZM283.986 226.102L282.512 226.769L282.512 226.769L283.986 226.102ZM279.962 221.028L278.977 222.311L279.962 221.028ZM274.741 218.59L274.39 220.169L272.923 219.842L273.141 218.355L274.741 218.59ZM241.809 248.61C222.54 248.603 206.925 232.976 206.933 213.707L210.168 213.708C210.161 231.19 224.328 245.368 241.81 245.375L241.809 248.61ZM243.417 248.574C242.884 248.598 242.348 248.61 241.809 248.61L241.81 245.375C242.3 245.375 242.787 245.364 243.271 245.342L243.417 248.574ZM277.157 272.531C268.676 260.967 256.627 252.532 242.89 248.511L243.799 245.406C258.218 249.626 270.864 258.479 279.766 270.617L277.157 272.531ZM277.557 273.076L277.157 272.531L279.766 270.617L280.166 271.162L277.557 273.076ZM284.666 268.023C284.131 269.002 283.594 269.994 282.837 270.917C282.054 271.871 281.075 272.709 279.67 273.52L278.053 270.718C279.163 270.077 279.829 269.483 280.335 268.865C280.868 268.217 281.265 267.499 281.827 266.471L284.666 268.023ZM285.884 265.901C285.405 266.671 285.028 267.36 284.666 268.023L281.827 266.471C282.188 265.811 282.604 265.048 283.137 264.192L285.884 265.901ZM289.62 254.289C289.348 258.408 288.065 262.397 285.884 265.901L283.137 264.192C285.037 261.139 286.155 257.665 286.392 254.076L289.62 254.289ZM287.441 242.287C289.143 246.048 289.891 250.17 289.62 254.289L286.392 254.076C286.628 250.488 285.976 246.897 284.493 243.621L287.441 242.287ZM284.568 237.463C285.699 238.953 286.664 240.57 287.441 242.287L284.493 243.621C283.816 242.126 282.976 240.717 281.99 239.419L284.568 237.463ZM281.891 237.61C282.844 236.017 283.406 234.22 283.528 232.366L286.757 232.579C286.601 234.945 285.884 237.239 284.667 239.272L281.891 237.61ZM283.528 232.366C283.655 230.445 283.306 228.523 282.512 226.769L285.46 225.435C286.473 227.673 286.918 230.127 286.757 232.579L283.528 232.366ZM282.512 226.769C281.718 225.015 280.504 223.484 278.977 222.311L280.948 219.745C282.897 221.242 284.446 223.196 285.46 225.435L282.512 226.769ZM278.977 222.311C277.621 221.27 276.054 220.539 274.39 220.169L275.093 217.011C277.217 217.484 279.216 218.416 280.948 219.745L278.977 222.311ZM276.713 213.734C276.712 215.462 276.586 217.162 276.342 218.825L273.141 218.355C273.362 216.847 273.477 215.304 273.478 213.732L276.713 213.734ZM241.836 178.83C261.106 178.838 276.72 194.464 276.713 213.734L273.478 213.732C273.484 196.25 259.318 182.072 241.835 182.065L241.836 178.83ZM206.933 213.707C206.94 194.437 222.567 178.823 241.836 178.83L241.835 182.065C224.353 182.059 210.175 196.225 210.168 213.708L206.933 213.707Z" fill="black" mask="url(#path-52-inside-7_502_785)"/>
<circle cx="4.07365" cy="4.07365" r="4.07365" transform="matrix(-1 -0.000388721 -0.000388721 1 244.763 251.534)" fill="black"/>
<circle cx="4.07365" cy="4.07365" r="4.07365" transform="matrix(-1 -0.000388721 -0.000388721 1 214.581 249.952)" fill="white"/>
<path d="M323.731 203.126C331.722 216.161 336.247 231.023 336.878 246.299C337.509 261.576 334.223 276.76 327.334 290.409C320.445 304.059 310.181 315.72 297.516 324.287C284.852 332.853 270.208 338.039 254.975 339.353C239.742 340.667 224.426 338.065 210.482 331.793C196.537 325.522 184.428 315.79 175.303 303.522C166.179 291.254 160.342 276.856 158.348 261.698C156.353 246.539 158.267 231.122 163.908 216.911L195.414 229.416C191.906 238.256 190.715 247.846 191.956 257.276C193.196 266.705 196.827 275.661 202.503 283.292C208.179 290.924 215.711 296.977 224.385 300.878C233.059 304.779 242.586 306.398 252.062 305.581C261.537 304.764 270.647 301.537 278.524 296.209C286.402 290.88 292.787 283.626 297.072 275.136C301.358 266.645 303.401 257.2 303.009 247.697C302.617 238.195 299.802 228.95 294.831 220.842L323.731 203.126Z" fill="white"/>
</g>
<defs>
<clipPath id="clip0_502_785">
<rect width="500" height="500" rx="250" fill="white"/>
</clipPath>
</defs>
</svg>
