<svg width="1080" height="1081" viewBox="0 0 1080 1081" fill="none" xmlns="http://www.w3.org/2000/svg">
<g clip-path="url(#clip0_140_483)">
<rect width="1080" height="1080" transform="translate(0 0.915527)" fill="black"/>
<path d="M450.63 454.335C445.485 427.037 453.726 367.025 527.851 345.362C601.976 323.699 635.95 380.816 643.672 412.083L644.391 484.822L645.029 549.42C645.079 554.462 642.484 559.222 637.93 561.389C619.054 570.369 587.673 577.64 571.689 553.521C553.444 525.99 539.932 459.399 535.456 429.544L450.63 454.335Z" fill="white"/>
<path d="M644.391 484.822L643.672 412.083C635.95 380.816 601.976 323.699 527.851 345.362C453.726 367.025 445.485 427.037 450.63 454.335L535.456 429.544C539.932 459.399 553.444 525.99 571.689 553.521C587.673 577.64 619.054 570.369 637.93 561.389C642.484 559.222 645.079 554.462 645.029 549.42V549.42M644.391 484.822C635.972 483.28 616.815 483.589 607.53 497.155C598.244 510.721 602.694 533.684 606.08 543.47C609.88 548.233 622.989 556.09 645.029 549.42M644.391 484.822L645.029 549.42" stroke="black" stroke-width="6"/>
<path d="M477.639 437.17C472.494 409.872 480.735 349.86 554.86 328.197C628.985 306.534 662.959 363.652 670.68 394.919L671.399 467.657L672.038 532.255C672.088 537.298 669.493 542.058 664.939 544.224C646.063 553.204 614.681 560.476 598.697 536.356C580.453 508.826 566.941 442.234 562.465 412.38L477.639 437.17Z" fill="white"/>
<path d="M671.399 467.657L670.68 394.919C662.959 363.652 628.985 306.534 554.86 328.197C480.735 349.86 472.494 409.872 477.639 437.17L562.465 412.38C566.941 442.234 580.453 508.826 598.697 536.356C614.681 560.476 646.063 553.204 664.939 544.224C669.493 542.058 672.088 537.298 672.038 532.255V532.255M671.399 467.657C662.981 466.116 643.824 466.425 634.538 479.991C625.253 493.557 629.703 516.52 633.089 526.305C636.889 531.068 649.998 538.926 672.038 532.255M671.399 467.657L672.038 532.255" stroke="black" stroke-width="6"/>
<path d="M502.944 420.819C497.799 393.521 506.04 333.509 580.165 311.846C654.29 290.183 688.264 347.301 695.985 378.567L696.704 451.306L697.343 515.904C697.393 520.947 694.798 525.707 690.244 527.873C671.368 536.853 639.987 544.125 624.003 520.005C605.758 492.475 592.246 425.883 587.77 396.029L502.944 420.819Z" fill="white"/>
<path d="M696.704 451.306L695.985 378.567C688.264 347.301 654.29 290.183 580.165 311.846C506.04 333.509 497.799 393.521 502.944 420.819L587.77 396.029C592.246 425.883 605.758 492.475 624.003 520.005C639.987 544.125 671.368 536.853 690.244 527.873C694.798 525.707 697.393 520.947 697.343 515.904V515.904M696.704 451.306C688.286 449.765 669.129 450.073 659.843 463.64C650.558 477.206 655.008 500.169 658.394 509.954C662.194 514.717 675.303 522.575 697.343 515.904M696.704 451.306L697.343 515.904" stroke="black" stroke-width="6"/>
<path d="M500.175 412.737C397.04 437.848 250.715 350.549 602.722 295.679C679.027 283.785 710.821 331.134 718.543 362.4L719.261 435.139L719.9 499.737C719.95 504.78 717.355 509.54 712.801 511.706C693.925 520.686 662.544 527.958 646.56 503.838C628.315 476.308 614.803 409.716 610.327 379.862L500.175 412.737Z" fill="white"/>
<path d="M719.261 435.139L718.543 362.4C710.821 331.134 679.027 283.785 602.722 295.679C250.715 350.549 397.04 437.848 500.175 412.737L610.327 379.862C614.803 409.716 628.315 476.308 646.56 503.838C662.544 527.958 693.925 520.686 712.801 511.706C717.355 509.54 719.95 504.78 719.9 499.737V499.737M719.261 435.139C710.843 433.598 691.686 433.906 682.401 447.473C673.115 461.039 677.565 484.002 680.951 493.787C684.751 498.55 697.86 506.408 719.9 499.737M719.261 435.139L719.9 499.737" stroke="black" stroke-width="6"/>
<path d="M517.684 407.88C316.11 511.049 267.907 325.339 620.231 290.823C697.089 283.293 728.33 326.277 736.051 357.544L736.77 430.283L737.409 494.881C737.458 499.923 734.864 504.683 730.31 506.85C711.434 515.83 680.052 523.101 664.068 498.982C645.824 471.451 632.311 404.86 627.836 375.005L517.684 407.88Z" fill="white"/>
<path d="M736.77 430.283L736.051 357.544C728.33 326.277 697.089 283.293 620.231 290.823C267.907 325.339 316.11 511.049 517.684 407.88L627.836 375.005C632.311 404.86 645.824 471.451 664.068 498.982C680.052 523.101 711.434 515.83 730.31 506.85C734.864 504.683 737.458 499.923 737.409 494.881V494.881M736.77 430.283C728.352 428.741 709.195 429.05 699.909 442.616C690.624 456.182 695.074 479.145 698.459 488.931C702.259 493.694 715.369 501.551 737.409 494.881M736.77 430.283L737.409 494.881" stroke="black" stroke-width="6"/>
<path d="M553.868 689.609C548.723 716.908 392.565 869.312 628.279 796.274C738.998 761.966 710.823 713.231 718.545 681.964L719.264 609.225L719.902 544.627C719.952 539.584 717.357 534.825 712.804 532.658C693.927 523.678 662.546 516.407 646.562 540.526C628.318 568.057 614.805 634.648 610.33 664.503L553.868 689.609Z" fill="white"/>
<path d="M719.264 609.225L718.545 681.964C710.823 713.231 738.998 761.966 628.279 796.274C392.565 869.312 548.723 716.908 553.868 689.609L610.33 664.503C614.805 634.648 628.318 568.057 646.562 540.526C662.546 516.407 693.927 523.678 712.804 532.658C717.357 534.825 719.952 539.584 719.902 544.627V544.627M719.264 609.225C710.846 610.767 691.688 610.458 682.403 596.892C673.117 583.326 677.567 560.363 680.953 550.577C684.753 545.814 697.863 537.957 719.902 544.627M719.264 609.225L719.902 544.627" stroke="black" stroke-width="6"/>
<path d="M326.537 480.49L304.61 678.226C298.091 737.011 330.836 793.13 385.22 816.379C409.117 826.595 435.346 830.106 461.089 826.534L577.72 810.354L570.272 761.636L582.139 677.567L575.065 679.697C556.827 685.189 537.089 682.261 521.231 671.71C504.405 660.515 493.866 642.021 492.81 621.839L490.024 568.602L495.462 495.133C495.747 491.276 496.489 487.466 497.67 483.783L509.955 445.495C523.387 403.631 497.189 359.445 454.014 351.143L387.436 371.23C358.514 389.889 338.441 419.525 331.845 453.306L326.537 480.49Z" fill="white"/>
<path d="M304.61 678.226L301.628 677.895L304.61 678.226ZM326.537 480.49L323.592 479.915L323.569 480.037L323.555 480.159L326.537 480.49ZM331.845 453.306L334.789 453.881L331.845 453.306ZM387.436 371.23L386.569 368.358L386.165 368.48L385.81 368.709L387.436 371.23ZM454.014 351.143L454.58 348.197L453.855 348.057L453.147 348.27L454.014 351.143ZM495.462 495.133L492.47 494.912L495.462 495.133ZM490.024 568.602L487.033 568.381L487.019 568.57L487.029 568.759L490.024 568.602ZM492.81 621.839L495.806 621.682L492.81 621.839ZM577.72 810.354L578.132 813.326L581.145 812.908L580.686 809.901L577.72 810.354ZM461.089 826.534L461.501 829.506L461.089 826.534ZM570.272 761.636L567.301 761.216L567.24 761.653L567.306 762.089L570.272 761.636ZM575.065 679.697L575.93 682.57L575.065 679.697ZM582.139 677.567L585.109 677.986L585.765 673.342L581.274 674.694L582.139 677.567ZM509.955 445.495L507.098 444.578L509.955 445.495ZM497.67 483.783L500.527 484.699L500.527 484.699L497.67 483.783ZM521.231 671.71L519.569 674.207L521.231 671.71ZM385.22 816.379L384.04 819.137L385.22 816.379ZM307.591 678.557L329.519 480.821L323.555 480.159L301.628 677.895L307.591 678.557ZM329.481 481.065L334.789 453.881L328.9 452.731L323.592 479.915L329.481 481.065ZM388.303 374.102L454.88 354.015L453.147 348.27L386.569 368.358L388.303 374.102ZM492.47 494.912L487.033 568.381L493.016 568.824L498.454 495.355L492.47 494.912ZM487.029 568.759L489.814 621.995L495.806 621.682L493.02 568.445L487.029 568.759ZM577.308 807.383L460.677 823.563L461.501 829.506L578.132 813.326L577.308 807.383ZM567.306 762.089L574.755 810.808L580.686 809.901L573.237 761.182L567.306 762.089ZM575.93 682.57L583.004 680.439L581.274 674.694L574.2 676.825L575.93 682.57ZM579.168 677.148L567.301 761.216L573.242 762.055L585.109 677.986L579.168 677.148ZM507.098 444.578L494.814 482.866L500.527 484.699L512.811 446.412L507.098 444.578ZM489.814 621.995C490.92 643.125 501.954 662.487 519.569 674.207L522.893 669.212C506.857 658.542 496.812 640.917 495.806 621.682L489.814 621.995ZM334.789 453.881C341.229 420.901 360.826 391.967 389.062 373.751L385.81 368.709C356.202 387.81 335.653 418.149 328.9 452.731L334.789 453.881ZM498.454 495.355C498.722 491.734 499.418 488.157 500.527 484.699L494.814 482.866C493.56 486.775 492.773 490.818 492.47 494.912L498.454 495.355ZM453.447 354.089C494.855 362.051 519.98 404.428 507.098 444.578L512.811 446.412C526.793 402.834 499.523 356.838 454.58 348.197L453.447 354.089ZM386.399 813.62C333.231 790.891 301.218 736.027 307.591 678.557L301.628 677.895C294.963 737.994 328.44 795.368 384.04 819.137L386.399 813.62ZM519.569 674.207C536.172 685.254 556.836 688.32 575.93 682.57L574.2 676.825C556.818 682.059 538.007 679.268 522.893 669.212L519.569 674.207ZM384.04 819.137C408.439 829.567 435.218 833.152 461.501 829.506L460.677 823.563C435.474 827.059 409.795 823.622 386.399 813.62L384.04 819.137Z" fill="black"/>
<path d="M610.325 668.968L576.955 682.827L551.273 771.18L554.82 811.463L570.15 807.84L581.097 805.533L588.354 765.501L610.325 668.968Z" fill="white"/>
<path d="M499.89 412.544L518.706 403.925L517.523 393.616L498.482 362.519L457.752 344.999L392.798 363.533L388.179 367.139L379.829 375.379C376.24 378.921 373.022 382.821 370.226 387.017L364.469 395.656L429.81 374.519L499.89 412.544Z" fill="white"/>
<path d="M506.874 763.285V1291.96" stroke="white" stroke-width="364"/>
<path d="M311.787 762.373H722.809" stroke="black" stroke-width="18"/>
<rect x="-3.28981" y="2.67902" width="410.191" height="91.8961" transform="matrix(-0.994805 -0.101798 -0.101798 0.994805 714.677 903.081)" fill="white" stroke="black" stroke-width="6"/>
<circle cx="100.196" cy="100.196" r="97.1957" transform="matrix(-0.855054 -0.518539 -0.518539 0.855054 644.321 896.952)" fill="white" stroke="black" stroke-width="6"/>
<path d="M460.759 881.106L500.497 933.763" stroke="black" stroke-width="6" stroke-linecap="round"/>
<path d="M480.459 971.545L500.561 933.898" stroke="black" stroke-width="6" stroke-linecap="round"/>
<path d="M619.255 960.347L686.111 968.139" stroke="white" stroke-width="6" stroke-linecap="round"/>
<path d="M328.082 931.219L392.669 938.438" stroke="white" stroke-width="6" stroke-linecap="round"/>
</g>
<defs>
<clipPath id="clip0_140_483">
<rect width="1080" height="1080" fill="white" transform="translate(0 0.915527)"/>
</clipPath>
</defs>
</svg>
