<svg width="460" height="246" viewBox="0 0 460 246" fill="none" xmlns="http://www.w3.org/2000/svg">
<path d="M373.111 59.0273L421.932 59.0273C444.104 103.12 445.385 154.856 425.363 200.024L421.839 207.974L373.111 207.974L373.111 59.0273Z" fill="black" stroke="white" stroke-width="5"/>
<path d="M282.934 205.134C312.262 227.77 358.7 221.417 378.254 215.411L383.944 207.393C418.33 158.941 416.1 93.4839 378.494 47.4848L283.857 23.7338L272.811 61.5281L247.581 116.665L282.934 205.134Z" fill="black" stroke="white" stroke-width="4.32142"/>
<path d="M255.596 132.542C243.048 130.177 215.46 133.966 205.502 168.041C195.544 202.116 221.8 217.733 236.173 221.283L269.611 221.613L299.306 221.907C301.624 221.93 303.812 220.737 304.808 218.643C308.937 209.966 312.279 195.54 301.192 188.192C288.536 179.806 257.924 173.594 244.2 171.537L255.596 132.542Z" fill="black"/>
<path d="M269.611 221.613L236.173 221.283C221.8 217.733 195.544 202.116 205.502 168.041C215.46 133.966 243.048 130.177 255.596 132.542L244.2 171.537C257.924 173.594 288.536 179.806 301.192 188.192C312.279 195.54 308.937 209.966 304.808 218.643C303.812 220.737 301.624 221.93 299.306 221.907V221.907M269.611 221.613C268.902 217.743 269.044 208.937 275.281 204.668C281.517 200.4 292.073 202.445 296.571 204.002C298.761 205.749 302.373 211.775 299.306 221.907M269.611 221.613L299.306 221.907" stroke="white" stroke-width="4.32142"/>
<path d="M274.413 98.0593C286.623 107.234 317.54 121.7 343.523 106.168" stroke="white" stroke-width="4.32142"/>
<path d="M241.819 94.5463C229.27 92.1812 201.683 95.9696 191.725 130.045C181.766 164.119 208.023 179.737 222.396 183.286L255.834 183.617L285.529 183.91C287.847 183.933 290.035 182.741 291.031 180.647C295.159 171.97 298.502 157.544 287.414 150.196C274.759 141.809 244.147 135.598 230.423 133.541L241.819 94.5463Z" fill="black"/>
<path d="M255.834 183.617L222.396 183.286C208.023 179.737 181.766 164.119 191.725 130.045C201.683 95.9696 229.27 92.1812 241.819 94.5463L230.423 133.541C244.147 135.598 274.759 141.809 287.414 150.196C298.502 157.544 295.159 171.97 291.031 180.647C290.035 182.741 287.847 183.933 285.529 183.91V183.91M255.834 183.617C255.125 179.747 255.267 170.941 261.503 166.672C267.74 162.404 278.295 164.449 282.794 166.006C284.983 167.753 288.595 173.779 285.529 183.91M255.834 183.617L285.529 183.91" stroke="white" stroke-width="4.32142"/>
<path d="M229.448 62.0893C216.899 59.7242 189.312 63.5126 179.354 97.5875C169.395 131.662 195.652 147.28 210.025 150.829L243.462 151.16L273.158 151.453C275.476 151.476 277.664 150.284 278.66 148.19C282.788 139.513 286.131 125.087 275.043 117.739C262.388 109.352 231.776 103.141 218.052 101.083L229.448 62.0893Z" fill="black"/>
<path d="M243.462 151.16L210.025 150.829C195.652 147.28 169.395 131.662 179.354 97.5875C189.312 63.5126 216.899 59.7242 229.448 62.0893L218.052 101.083C231.776 103.141 262.388 109.352 275.043 117.739C286.131 125.087 282.788 139.513 278.66 148.19C277.664 150.284 275.476 151.476 273.158 151.453V151.453M243.462 151.16C242.754 147.29 242.896 138.484 249.132 134.215C255.368 129.947 265.924 131.992 270.423 133.549C272.612 135.296 276.224 141.322 273.158 151.453M243.462 151.16L273.158 151.453" stroke="white" stroke-width="4.32142"/>
<path d="M173.205 31.8786C208.139 38.1939 247.585 38.9784 260.134 41.3435L264.873 70.124C264.873 70.124 271.45 100.162 256.392 102.102C234.156 104.965 194.405 104.812 154.839 102.102C131.51 100.504 100.79 95.9816 79.2707 92.496C62.2679 89.742 46.5947 81.8084 34.0066 70.0516C12.8838 50.3237 27.2901 14.9431 56.1857 15.5817L72.6994 15.9467C77.5935 16.0549 82.4666 16.5004 87.2977 17.2905C103.817 19.9922 145.007 26.7812 173.205 31.8786Z" fill="black" stroke="white" stroke-width="4.32142"/>
<path d="M337.846 37.7102L281.167 21.1459C267.616 20.416 237.859 28.0404 227.239 64.3767C224.89 72.4152 223.626 79.6118 223.158 85.9999C222.074 100.785 225.658 114.775 229.537 121.314C231.559 124.722 236.195 129.478 238.089 130.818C248.31 137.176 270.575 147.632 277.951 125.854C285.327 104.076 279.596 76.0261 277.21 69.2894L337.846 37.7102Z" fill="black"/>
<path d="M223.158 85.9999C223.626 79.6118 224.89 72.4152 227.239 64.3767C237.859 28.0404 267.616 20.416 281.167 21.1459L337.846 37.7102L277.21 69.2894C279.596 76.0261 285.327 104.076 277.951 125.854C270.575 147.632 248.31 137.176 238.089 130.818C236.195 129.478 231.559 124.722 229.537 121.314M223.158 85.9999C233.224 84.567 253.313 85.312 253.137 99.7556C252.961 114.199 237.464 121.325 229.537 121.314M223.158 85.9999C222.074 100.785 225.658 114.775 229.537 121.314" stroke="white" stroke-width="4.32142"/>
<path d="M357.067 44.311L329.832 37.613L267.838 65.5508L280.735 70.8489L357.067 44.311Z" fill="black"/>
</svg>
