<svg width="950" height="266" viewBox="0 0 950 266" fill="none" xmlns="http://www.w3.org/2000/svg">
<rect y="76.3481" width="226" height="118.702" rx="59.3509" fill="#EEF4FE"/>
<rect x="362" y="147.294" width="226" height="118.702" rx="59.3509" fill="#EEF4FE"/>
<rect x="362" y="0.753418" width="226" height="118.702" rx="59.3509" fill="#EEF4FE"/>
<rect x="725" y="76.3481" width="225" height="118.702" rx="59.3509" fill="#0078FC"/>
<path d="M218.928 136.248C220.993 140.153 225.833 141.646 229.739 139.581C233.645 137.516 235.137 132.675 233.072 128.769C231.007 124.863 226.167 123.371 222.261 125.436C218.355 127.501 216.863 132.342 218.928 136.248ZM354.928 64.3435C356.993 68.2494 361.833 69.7417 365.739 67.6766C369.645 65.6115 371.137 60.771 369.072 56.865C367.007 52.9591 362.167 51.4668 358.261 53.5319C354.355 55.597 352.863 60.4375 354.928 64.3435ZM226.701 133.834L362.701 61.9303L361.299 59.2782L225.299 131.182L226.701 133.834Z" fill="#211D4F"/>
<path d="M218 132.508C218 136.927 221.582 140.508 226 140.508C230.418 140.508 234 136.927 234 132.508C234 128.09 230.418 124.508 226 124.508C221.582 124.508 218 128.09 218 132.508ZM717 132.508C717 136.927 720.582 140.508 725 140.508C729.418 140.508 733 136.927 733 132.508C733 128.09 729.418 124.508 725 124.508C720.582 124.508 717 128.09 717 132.508ZM226 134.008H725V131.008H226V134.008Z" fill="#211D4F"/>
<path d="M218.987 128.659C216.861 132.533 218.278 137.396 222.151 139.522C226.024 141.647 230.888 140.231 233.013 136.357C235.139 132.484 233.722 127.621 229.849 125.495C225.976 123.369 221.112 124.786 218.987 128.659ZM354.987 203.296C352.861 207.17 354.278 212.033 358.151 214.159C362.024 216.284 366.888 214.868 369.013 210.994C371.139 207.121 369.722 202.258 365.849 200.132C361.976 198.006 357.112 199.423 354.987 203.296ZM225.278 133.823L361.278 208.46L362.722 205.83L226.722 131.193L225.278 133.823Z" fill="#211D4F"/>
<path d="M732.072 136.248C730.007 140.153 725.167 141.646 721.261 139.581C717.355 137.516 715.863 132.675 717.928 128.769C719.993 124.863 724.833 123.371 728.739 125.436C732.645 127.501 734.137 132.342 732.072 136.248ZM596.072 64.3435C594.007 68.2494 589.167 69.7417 585.261 67.6766C581.355 65.6115 579.863 60.771 581.928 56.865C583.993 52.9591 588.833 51.4668 592.739 53.5319C596.645 55.597 598.137 60.4375 596.072 64.3435ZM724.299 133.834L588.299 61.9303L589.701 59.2782L725.701 131.182L724.299 133.834Z" fill="#211D4F"/>
<path d="M732.013 128.659C734.139 132.533 732.722 137.396 728.849 139.522C724.976 141.647 720.112 140.231 717.987 136.357C715.861 132.484 717.278 127.621 721.151 125.495C725.024 123.369 729.888 124.786 732.013 128.659ZM596.013 203.296C598.139 207.17 596.722 212.033 592.849 214.159C588.976 216.284 584.112 214.868 581.987 210.994C579.861 207.121 581.278 202.258 585.151 200.132C589.024 198.006 593.888 199.423 596.013 203.296ZM725.722 133.823L589.722 208.46L588.278 205.83L724.278 131.193L725.722 133.823Z" fill="#211D4F"/>
<path d="M453.818 199.146V175.873H461.682C463.508 175.873 465 176.202 466.159 176.861C467.326 177.513 468.189 178.396 468.75 179.509C469.311 180.623 469.591 181.865 469.591 183.236C469.591 184.608 469.311 185.854 468.75 186.975C468.197 188.096 467.341 188.99 466.182 189.657C465.023 190.316 463.538 190.646 461.727 190.646H456.091V188.146H461.636C462.886 188.146 463.89 187.93 464.648 187.498C465.405 187.066 465.955 186.483 466.295 185.748C466.644 185.005 466.818 184.168 466.818 183.236C466.818 182.305 466.644 181.471 466.295 180.736C465.955 180.002 465.402 179.426 464.636 179.009C463.871 178.585 462.856 178.373 461.591 178.373H456.636V199.146H453.818ZM474.131 175.873H477.494L485.403 195.191H485.676L493.585 175.873H496.949V199.146H494.312V181.464H494.085L486.812 199.146H484.267L476.994 181.464H476.767V199.146H474.131V175.873Z" fill="#211D4F"/>
<path d="M447.534 222.146V210.509H451.466C452.379 210.509 453.125 210.674 453.705 211.003C454.288 211.329 454.72 211.771 455 212.327C455.28 212.884 455.42 213.505 455.42 214.191C455.42 214.877 455.28 215.5 455 216.06C454.723 216.621 454.295 217.068 453.716 217.401C453.136 217.731 452.394 217.896 451.489 217.896H448.67V216.646H451.443C452.068 216.646 452.57 216.538 452.949 216.322C453.328 216.106 453.602 215.814 453.773 215.447C453.947 215.075 454.034 214.657 454.034 214.191C454.034 213.725 453.947 213.308 453.773 212.941C453.602 212.574 453.326 212.286 452.943 212.077C452.561 211.865 452.053 211.759 451.42 211.759H448.943V222.146H447.534ZM457.509 222.146V213.418H458.804V214.736H458.895C459.054 214.305 459.342 213.954 459.759 213.685C460.175 213.416 460.645 213.282 461.168 213.282C461.266 213.282 461.389 213.284 461.537 213.288C461.685 213.291 461.796 213.297 461.872 213.305V214.668C461.827 214.657 461.723 214.64 461.56 214.617C461.401 214.591 461.232 214.577 461.054 214.577C460.63 214.577 460.251 214.666 459.918 214.844C459.588 215.019 459.327 215.261 459.134 215.572C458.944 215.878 458.849 216.229 458.849 216.623V222.146H457.509ZM466.741 222.327C465.954 222.327 465.262 222.14 464.668 221.765C464.077 221.39 463.615 220.865 463.281 220.191C462.952 219.517 462.787 218.729 462.787 217.827C462.787 216.918 462.952 216.125 463.281 215.447C463.615 214.769 464.077 214.242 464.668 213.867C465.262 213.492 465.954 213.305 466.741 213.305C467.529 213.305 468.219 213.492 468.81 213.867C469.404 214.242 469.866 214.769 470.196 215.447C470.529 216.125 470.696 216.918 470.696 217.827C470.696 218.729 470.529 219.517 470.196 220.191C469.866 220.865 469.404 221.39 468.81 221.765C468.219 222.14 467.529 222.327 466.741 222.327ZM466.741 221.123C467.34 221.123 467.832 220.969 468.219 220.663C468.605 220.356 468.891 219.952 469.077 219.452C469.262 218.952 469.355 218.411 469.355 217.827C469.355 217.244 469.262 216.7 469.077 216.197C468.891 215.693 468.605 215.286 468.219 214.975C467.832 214.664 467.34 214.509 466.741 214.509C466.143 214.509 465.651 214.664 465.264 214.975C464.878 215.286 464.592 215.693 464.406 216.197C464.221 216.7 464.128 217.244 464.128 217.827C464.128 218.411 464.221 218.952 464.406 219.452C464.592 219.952 464.878 220.356 465.264 220.663C465.651 220.969 466.143 221.123 466.741 221.123ZM472.743 213.418H474.084V222.782C474.084 223.32 473.991 223.786 473.805 224.18C473.624 224.574 473.347 224.878 472.976 225.094C472.608 225.31 472.144 225.418 471.584 225.418C471.538 225.418 471.493 225.418 471.447 225.418C471.402 225.418 471.357 225.418 471.311 225.418V224.168C471.357 224.168 471.398 224.168 471.436 224.168C471.474 224.168 471.516 224.168 471.561 224.168C471.97 224.168 472.269 224.047 472.459 223.805C472.648 223.566 472.743 223.225 472.743 222.782V213.418ZM473.402 211.964C473.141 211.964 472.915 211.875 472.726 211.697C472.54 211.519 472.447 211.305 472.447 211.055C472.447 210.805 472.54 210.591 472.726 210.413C472.915 210.235 473.141 210.146 473.402 210.146C473.663 210.146 473.887 210.235 474.072 210.413C474.262 210.591 474.357 210.805 474.357 211.055C474.357 211.305 474.262 211.519 474.072 211.697C473.887 211.875 473.663 211.964 473.402 211.964ZM480.199 222.327C479.358 222.327 478.633 222.142 478.023 221.771C477.417 221.396 476.949 220.873 476.619 220.202C476.294 219.528 476.131 218.744 476.131 217.85C476.131 216.956 476.294 216.168 476.619 215.486C476.949 214.801 477.407 214.267 477.994 213.884C478.585 213.498 479.275 213.305 480.062 213.305C480.517 213.305 480.966 213.38 481.409 213.532C481.852 213.683 482.256 213.93 482.619 214.271C482.983 214.608 483.273 215.055 483.489 215.611C483.705 216.168 483.812 216.854 483.812 217.668V218.236H477.085V217.077H482.449C482.449 216.585 482.35 216.146 482.153 215.759C481.96 215.373 481.684 215.068 481.324 214.844C480.968 214.621 480.547 214.509 480.062 214.509C479.528 214.509 479.066 214.642 478.676 214.907C478.29 215.168 477.992 215.509 477.784 215.93C477.576 216.35 477.472 216.801 477.472 217.282V218.055C477.472 218.714 477.585 219.272 477.812 219.731C478.044 220.185 478.364 220.532 478.773 220.771C479.182 221.005 479.657 221.123 480.199 221.123C480.551 221.123 480.869 221.074 481.153 220.975C481.441 220.873 481.689 220.721 481.898 220.521C482.106 220.316 482.267 220.062 482.381 219.759L483.676 220.123C483.54 220.562 483.311 220.949 482.989 221.282C482.667 221.611 482.269 221.869 481.795 222.055C481.322 222.236 480.79 222.327 480.199 222.327ZM489.398 222.327C488.58 222.327 487.875 222.134 487.284 221.748C486.693 221.361 486.239 220.829 485.92 220.151C485.602 219.473 485.443 218.699 485.443 217.827C485.443 216.941 485.606 216.159 485.932 215.481C486.261 214.799 486.72 214.267 487.307 213.884C487.898 213.498 488.587 213.305 489.375 213.305C489.989 213.305 490.542 213.418 491.034 213.646C491.527 213.873 491.93 214.191 492.244 214.6C492.559 215.009 492.754 215.486 492.83 216.032H491.489C491.386 215.634 491.159 215.282 490.807 214.975C490.458 214.664 489.989 214.509 489.398 214.509C488.875 214.509 488.417 214.646 488.023 214.918C487.633 215.187 487.328 215.568 487.108 216.06C486.892 216.549 486.784 217.123 486.784 217.782C486.784 218.456 486.89 219.043 487.102 219.543C487.318 220.043 487.621 220.431 488.011 220.708C488.405 220.985 488.867 221.123 489.398 221.123C489.746 221.123 490.062 221.062 490.347 220.941C490.631 220.82 490.871 220.646 491.068 220.418C491.265 220.191 491.405 219.918 491.489 219.6H492.83C492.754 220.115 492.566 220.579 492.267 220.992C491.972 221.401 491.58 221.727 491.091 221.969C490.606 222.208 490.042 222.327 489.398 222.327ZM498.585 213.418V214.555H494.062V213.418H498.585ZM495.381 211.327H496.722V219.646C496.722 220.024 496.777 220.308 496.886 220.498C497 220.683 497.144 220.808 497.318 220.873C497.496 220.933 497.684 220.964 497.881 220.964C498.028 220.964 498.15 220.956 498.244 220.941C498.339 220.922 498.415 220.907 498.472 220.896L498.744 222.1C498.653 222.134 498.527 222.168 498.364 222.202C498.201 222.24 497.994 222.259 497.744 222.259C497.366 222.259 496.994 222.178 496.631 222.015C496.271 221.852 495.972 221.604 495.733 221.271C495.498 220.937 495.381 220.517 495.381 220.009V211.327ZM426.852 241.146V232.418H428.148V233.782H428.261C428.443 233.316 428.737 232.954 429.142 232.697C429.547 232.435 430.034 232.305 430.602 232.305C431.178 232.305 431.657 232.435 432.04 232.697C432.426 232.954 432.727 233.316 432.943 233.782H433.034C433.258 233.331 433.593 232.973 434.04 232.708C434.487 232.439 435.023 232.305 435.648 232.305C436.428 232.305 437.066 232.549 437.562 233.038C438.059 233.522 438.307 234.278 438.307 235.305V241.146H436.966V235.305C436.966 234.661 436.79 234.2 436.438 233.924C436.085 233.647 435.67 233.509 435.193 233.509C434.58 233.509 434.104 233.695 433.767 234.066C433.43 234.433 433.261 234.899 433.261 235.464V241.146H431.898V235.168C431.898 234.672 431.737 234.272 431.415 233.969C431.093 233.663 430.678 233.509 430.17 233.509C429.822 233.509 429.496 233.602 429.193 233.788C428.894 233.973 428.652 234.231 428.466 234.56C428.284 234.886 428.193 235.263 428.193 235.691V241.146H426.852ZM443.327 241.35C442.774 241.35 442.272 241.246 441.821 241.038C441.37 240.825 441.012 240.521 440.747 240.123C440.482 239.721 440.349 239.236 440.349 238.668C440.349 238.168 440.448 237.763 440.645 237.452C440.842 237.138 441.105 236.892 441.435 236.714C441.764 236.536 442.128 236.403 442.526 236.316C442.927 236.225 443.33 236.153 443.736 236.1C444.266 236.032 444.696 235.981 445.026 235.947C445.359 235.909 445.601 235.846 445.753 235.759C445.908 235.672 445.986 235.521 445.986 235.305V235.259C445.986 234.699 445.832 234.263 445.526 233.952C445.223 233.642 444.762 233.486 444.145 233.486C443.505 233.486 443.003 233.627 442.639 233.907C442.276 234.187 442.02 234.486 441.872 234.805L440.599 234.35C440.827 233.82 441.13 233.407 441.509 233.111C441.891 232.812 442.308 232.604 442.759 232.486C443.213 232.365 443.66 232.305 444.099 232.305C444.38 232.305 444.702 232.339 445.065 232.407C445.433 232.471 445.787 232.606 446.128 232.81C446.473 233.015 446.759 233.324 446.986 233.736C447.213 234.149 447.327 234.702 447.327 235.396V241.146H445.986V239.964H445.918C445.827 240.153 445.675 240.356 445.463 240.572C445.251 240.788 444.969 240.971 444.616 241.123C444.264 241.274 443.834 241.35 443.327 241.35ZM443.531 240.146C444.062 240.146 444.509 240.041 444.872 239.833C445.24 239.625 445.516 239.356 445.702 239.026C445.891 238.697 445.986 238.35 445.986 237.986V236.759C445.929 236.827 445.804 236.89 445.611 236.947C445.421 237 445.202 237.047 444.952 237.089C444.705 237.127 444.465 237.161 444.23 237.191C443.999 237.217 443.812 237.24 443.668 237.259C443.319 237.305 442.993 237.378 442.69 237.481C442.391 237.579 442.149 237.729 441.963 237.93C441.781 238.127 441.69 238.396 441.69 238.736C441.69 239.202 441.863 239.555 442.207 239.793C442.556 240.028 442.997 240.146 443.531 240.146ZM451.115 235.896V241.146H449.774V232.418H451.07V233.782H451.183C451.388 233.339 451.698 232.983 452.115 232.714C452.532 232.441 453.07 232.305 453.729 232.305C454.32 232.305 454.837 232.426 455.28 232.668C455.723 232.907 456.068 233.271 456.314 233.759C456.56 234.244 456.683 234.858 456.683 235.6V241.146H455.342V235.691C455.342 235.005 455.164 234.471 454.808 234.089C454.452 233.702 453.964 233.509 453.342 233.509C452.914 233.509 452.532 233.602 452.195 233.788C451.861 233.973 451.598 234.244 451.405 234.6C451.212 234.956 451.115 235.388 451.115 235.896ZM461.702 241.35C461.149 241.35 460.647 241.246 460.196 241.038C459.745 240.825 459.387 240.521 459.122 240.123C458.857 239.721 458.724 239.236 458.724 238.668C458.724 238.168 458.823 237.763 459.02 237.452C459.217 237.138 459.48 236.892 459.81 236.714C460.139 236.536 460.503 236.403 460.901 236.316C461.302 236.225 461.705 236.153 462.111 236.1C462.641 236.032 463.071 235.981 463.401 235.947C463.734 235.909 463.976 235.846 464.128 235.759C464.283 235.672 464.361 235.521 464.361 235.305V235.259C464.361 234.699 464.207 234.263 463.901 233.952C463.598 233.642 463.137 233.486 462.52 233.486C461.88 233.486 461.378 233.627 461.014 233.907C460.651 234.187 460.395 234.486 460.247 234.805L458.974 234.35C459.202 233.82 459.505 233.407 459.884 233.111C460.266 232.812 460.683 232.604 461.134 232.486C461.588 232.365 462.035 232.305 462.474 232.305C462.755 232.305 463.077 232.339 463.44 232.407C463.808 232.471 464.162 232.606 464.503 232.81C464.848 233.015 465.134 233.324 465.361 233.736C465.588 234.149 465.702 234.702 465.702 235.396V241.146H464.361V239.964H464.293C464.202 240.153 464.05 240.356 463.838 240.572C463.626 240.788 463.344 240.971 462.991 241.123C462.639 241.274 462.209 241.35 461.702 241.35ZM461.906 240.146C462.437 240.146 462.884 240.041 463.247 239.833C463.615 239.625 463.891 239.356 464.077 239.026C464.266 238.697 464.361 238.35 464.361 237.986V236.759C464.304 236.827 464.179 236.89 463.986 236.947C463.796 237 463.577 237.047 463.327 237.089C463.08 237.127 462.84 237.161 462.605 237.191C462.374 237.217 462.187 237.24 462.043 237.259C461.694 237.305 461.368 237.378 461.065 237.481C460.766 237.579 460.524 237.729 460.338 237.93C460.156 238.127 460.065 238.396 460.065 238.736C460.065 239.202 460.238 239.555 460.582 239.793C460.931 240.028 461.372 240.146 461.906 240.146ZM471.672 244.6C471.024 244.6 470.467 244.517 470.001 244.35C469.536 244.187 469.147 243.971 468.837 243.702C468.53 243.437 468.286 243.153 468.104 242.85L469.172 242.1C469.293 242.259 469.446 242.441 469.632 242.646C469.818 242.854 470.071 243.034 470.393 243.185C470.719 243.341 471.145 243.418 471.672 243.418C472.376 243.418 472.958 243.248 473.416 242.907C473.875 242.566 474.104 242.032 474.104 241.305V239.532H473.99C473.892 239.691 473.751 239.888 473.57 240.123C473.392 240.354 473.134 240.56 472.797 240.742C472.464 240.92 472.013 241.009 471.445 241.009C470.74 241.009 470.107 240.842 469.547 240.509C468.99 240.176 468.549 239.691 468.223 239.055C467.901 238.418 467.74 237.646 467.74 236.736C467.74 235.842 467.897 235.064 468.212 234.401C468.526 233.735 468.964 233.219 469.524 232.856C470.085 232.488 470.732 232.305 471.467 232.305C472.036 232.305 472.486 232.399 472.82 232.589C473.157 232.774 473.414 232.986 473.592 233.225C473.774 233.46 473.914 233.653 474.013 233.805H474.149V232.418H475.445V241.396C475.445 242.146 475.274 242.755 474.933 243.225C474.596 243.699 474.142 244.045 473.57 244.265C473.001 244.488 472.369 244.6 471.672 244.6ZM471.626 239.805C472.164 239.805 472.619 239.681 472.99 239.435C473.361 239.189 473.643 238.835 473.837 238.373C474.03 237.911 474.126 237.358 474.126 236.714C474.126 236.085 474.032 235.53 473.842 235.049C473.653 234.568 473.373 234.191 473.001 233.918C472.63 233.646 472.172 233.509 471.626 233.509C471.058 233.509 470.585 233.653 470.206 233.941C469.831 234.229 469.549 234.615 469.359 235.1C469.174 235.585 469.081 236.123 469.081 236.714C469.081 237.32 469.176 237.856 469.365 238.322C469.558 238.784 469.842 239.147 470.217 239.413C470.596 239.674 471.066 239.805 471.626 239.805ZM481.558 241.327C480.717 241.327 479.992 241.142 479.382 240.771C478.776 240.396 478.308 239.873 477.979 239.202C477.653 238.528 477.49 237.744 477.49 236.85C477.49 235.956 477.653 235.168 477.979 234.486C478.308 233.801 478.767 233.267 479.354 232.884C479.945 232.498 480.634 232.305 481.422 232.305C481.876 232.305 482.325 232.38 482.768 232.532C483.212 232.683 483.615 232.93 483.979 233.271C484.342 233.608 484.632 234.055 484.848 234.611C485.064 235.168 485.172 235.854 485.172 236.668V237.236H478.445V236.077H483.808C483.808 235.585 483.71 235.146 483.513 234.759C483.32 234.373 483.043 234.068 482.683 233.844C482.327 233.621 481.907 233.509 481.422 233.509C480.888 233.509 480.426 233.642 480.036 233.907C479.649 234.168 479.352 234.509 479.143 234.93C478.935 235.35 478.831 235.801 478.831 236.282V237.055C478.831 237.714 478.945 238.272 479.172 238.731C479.403 239.185 479.723 239.532 480.132 239.771C480.541 240.005 481.017 240.123 481.558 240.123C481.911 240.123 482.229 240.074 482.513 239.975C482.801 239.873 483.049 239.721 483.257 239.521C483.465 239.316 483.626 239.062 483.74 238.759L485.036 239.123C484.899 239.562 484.67 239.949 484.348 240.282C484.026 240.611 483.628 240.869 483.155 241.055C482.681 241.236 482.149 241.327 481.558 241.327ZM487.212 241.146V232.418H488.507V233.782H488.621C488.803 233.316 489.096 232.954 489.501 232.697C489.907 232.435 490.393 232.305 490.962 232.305C491.537 232.305 492.017 232.435 492.399 232.697C492.786 232.954 493.087 233.316 493.303 233.782H493.393C493.617 233.331 493.952 232.973 494.399 232.708C494.846 232.439 495.382 232.305 496.007 232.305C496.787 232.305 497.426 232.549 497.922 233.038C498.418 233.522 498.666 234.278 498.666 235.305V241.146H497.325V235.305C497.325 234.661 497.149 234.2 496.797 233.924C496.445 233.647 496.03 233.509 495.553 233.509C494.939 233.509 494.464 233.695 494.126 234.066C493.789 234.433 493.621 234.899 493.621 235.464V241.146H492.257V235.168C492.257 234.672 492.096 234.272 491.774 233.969C491.452 233.663 491.037 233.509 490.53 233.509C490.181 233.509 489.856 233.602 489.553 233.788C489.253 233.973 489.011 234.231 488.825 234.56C488.643 234.886 488.553 235.263 488.553 235.691V241.146H487.212ZM504.777 241.327C503.936 241.327 503.211 241.142 502.601 240.771C501.995 240.396 501.527 239.873 501.197 239.202C500.872 238.528 500.709 237.744 500.709 236.85C500.709 235.956 500.872 235.168 501.197 234.486C501.527 233.801 501.985 233.267 502.572 232.884C503.163 232.498 503.853 232.305 504.641 232.305C505.095 232.305 505.544 232.38 505.987 232.532C506.43 232.683 506.834 232.93 507.197 233.271C507.561 233.608 507.851 234.055 508.067 234.611C508.283 235.168 508.391 235.854 508.391 236.668V237.236H501.663V236.077H507.027C507.027 235.585 506.929 235.146 506.732 234.759C506.538 234.373 506.262 234.068 505.902 233.844C505.546 233.621 505.125 233.509 504.641 233.509C504.107 233.509 503.644 233.642 503.254 233.907C502.868 234.168 502.571 234.509 502.362 234.93C502.154 235.35 502.05 235.801 502.05 236.282V237.055C502.05 237.714 502.163 238.272 502.391 238.731C502.622 239.185 502.942 239.532 503.351 239.771C503.76 240.005 504.235 240.123 504.777 240.123C505.129 240.123 505.447 240.074 505.732 239.975C506.019 239.873 506.268 239.721 506.476 239.521C506.684 239.316 506.845 239.062 506.959 238.759L508.254 239.123C508.118 239.562 507.889 239.949 507.567 240.282C507.245 240.611 506.847 240.869 506.374 241.055C505.9 241.236 505.368 241.327 504.777 241.327ZM511.771 235.896V241.146H510.43V232.418H511.726V233.782H511.839C512.044 233.339 512.355 232.983 512.771 232.714C513.188 232.441 513.726 232.305 514.385 232.305C514.976 232.305 515.493 232.426 515.936 232.668C516.379 232.907 516.724 233.271 516.97 233.759C517.216 234.244 517.339 234.858 517.339 235.6V241.146H515.999V235.691C515.999 235.005 515.821 234.471 515.464 234.089C515.108 233.702 514.62 233.509 513.999 233.509C513.571 233.509 513.188 233.602 512.851 233.788C512.518 233.973 512.254 234.244 512.061 234.6C511.868 234.956 511.771 235.388 511.771 235.896ZM523.585 232.418V233.555H519.062V232.418H523.585ZM520.381 230.327H521.722V238.646C521.722 239.024 521.777 239.308 521.886 239.498C522 239.683 522.144 239.808 522.318 239.873C522.496 239.933 522.684 239.964 522.881 239.964C523.028 239.964 523.15 239.956 523.244 239.941C523.339 239.922 523.415 239.907 523.472 239.896L523.744 241.1C523.653 241.134 523.527 241.168 523.364 241.202C523.201 241.24 522.994 241.259 522.744 241.259C522.366 241.259 521.994 241.178 521.631 241.015C521.271 240.852 520.972 240.604 520.733 240.271C520.498 239.937 520.381 239.517 520.381 239.009V230.327Z" fill="#211D4F"/>
<path d="M91.8182 103.331H95.1818L103.091 122.649H103.364L111.273 103.331H114.636V126.604H112V108.922H111.773L104.5 126.604H101.955L94.6818 108.922H94.4545V126.604H91.8182V103.331ZM120.287 126.604V103.331H134.332V105.831H123.105V113.695H133.605V116.195H123.105V124.104H134.514V126.604H120.287Z" fill="#211D4F"/>
<path d="M54.6832 141.158L58.1378 150.954H58.2741L61.7287 141.158H63.206L58.9332 152.795H57.4787L53.206 141.158H54.6832ZM64.8366 152.795V144.067H66.1776V152.795H64.8366ZM65.5185 142.613C65.2571 142.613 65.0317 142.524 64.8423 142.346C64.6567 142.168 64.5639 141.954 64.5639 141.704C64.5639 141.454 64.6567 141.24 64.8423 141.062C65.0317 140.884 65.2571 140.795 65.5185 140.795C65.7798 140.795 66.0033 140.884 66.1889 141.062C66.3783 141.24 66.473 141.454 66.473 141.704C66.473 141.954 66.3783 142.168 66.1889 142.346C66.0033 142.524 65.7798 142.613 65.5185 142.613ZM74.8153 146.022L73.6108 146.363C73.535 146.162 73.4233 145.967 73.2756 145.778C73.1316 145.584 72.9347 145.425 72.6847 145.3C72.4347 145.175 72.1146 145.113 71.7244 145.113C71.1903 145.113 70.7453 145.236 70.3892 145.482C70.0369 145.725 69.8608 146.033 69.8608 146.408C69.8608 146.742 69.982 147.005 70.2244 147.198C70.4669 147.391 70.8456 147.552 71.3608 147.681L72.6562 147.999C73.4366 148.189 74.018 148.478 74.4006 148.869C74.7831 149.255 74.9744 149.753 74.9744 150.363C74.9744 150.863 74.8305 151.31 74.5426 151.704C74.2585 152.098 73.8608 152.408 73.3494 152.636C72.8381 152.863 72.2434 152.976 71.5653 152.976C70.6752 152.976 69.9384 152.783 69.3551 152.397C68.7718 152.011 68.4025 151.446 68.2472 150.704L69.5199 150.386C69.6411 150.855 69.8703 151.208 70.2074 151.442C70.5483 151.677 70.9934 151.795 71.5426 151.795C72.1676 151.795 72.6638 151.662 73.0312 151.397C73.4025 151.128 73.5881 150.806 73.5881 150.431C73.5881 150.128 73.482 149.874 73.2699 149.67C73.0578 149.461 72.732 149.306 72.2926 149.204L70.8381 148.863C70.0388 148.673 69.4517 148.38 69.0767 147.982C68.7055 147.581 68.5199 147.079 68.5199 146.476C68.5199 145.984 68.6581 145.548 68.9347 145.17C69.215 144.791 69.5956 144.494 70.0767 144.278C70.5616 144.062 71.1108 143.954 71.7244 143.954C72.5881 143.954 73.2661 144.143 73.7585 144.522C74.2547 144.901 74.607 145.401 74.8153 146.022ZM82.4929 149.226V144.067H83.8338V152.795H82.4929V151.317H82.402C82.1974 151.761 81.8793 152.137 81.4474 152.448C81.0156 152.755 80.4702 152.908 79.8111 152.908C79.2656 152.908 78.7808 152.789 78.3565 152.55C77.9323 152.308 77.599 151.944 77.3565 151.459C77.1141 150.971 76.9929 150.355 76.9929 149.613V144.067H78.3338V149.522C78.3338 150.158 78.5118 150.666 78.8679 151.045C79.2277 151.423 79.6861 151.613 80.2429 151.613C80.5762 151.613 80.9152 151.528 81.2599 151.357C81.6084 151.187 81.9001 150.925 82.1349 150.573C82.3736 150.221 82.4929 149.772 82.4929 149.226ZM88.858 152.999C88.3049 152.999 87.803 152.895 87.3523 152.687C86.9015 152.475 86.5436 152.17 86.2784 151.772C86.0133 151.37 85.8807 150.886 85.8807 150.317C85.8807 149.817 85.9792 149.412 86.1761 149.101C86.3731 148.787 86.6364 148.541 86.9659 148.363C87.2955 148.185 87.6591 148.052 88.0568 147.965C88.4583 147.874 88.8617 147.802 89.267 147.749C89.7973 147.681 90.2273 147.63 90.5568 147.596C90.8902 147.558 91.1326 147.495 91.2841 147.408C91.4394 147.321 91.517 147.17 91.517 146.954V146.908C91.517 146.348 91.3636 145.912 91.0568 145.601C90.7538 145.291 90.2936 145.136 89.6761 145.136C89.036 145.136 88.5341 145.276 88.1705 145.556C87.8068 145.836 87.5511 146.136 87.4034 146.454L86.1307 145.999C86.358 145.469 86.661 145.056 87.0398 144.761C87.4223 144.461 87.839 144.253 88.2898 144.136C88.7443 144.014 89.1913 143.954 89.6307 143.954C89.911 143.954 90.233 143.988 90.5966 144.056C90.964 144.12 91.3182 144.255 91.6591 144.459C92.0038 144.664 92.2898 144.973 92.517 145.386C92.7443 145.798 92.858 146.351 92.858 147.045V152.795H91.517V151.613H91.4489C91.358 151.802 91.2064 152.005 90.9943 152.221C90.7822 152.437 90.5 152.62 90.1477 152.772C89.7955 152.923 89.3655 152.999 88.858 152.999ZM89.0625 151.795C89.5928 151.795 90.0398 151.691 90.4034 151.482C90.7708 151.274 91.0473 151.005 91.233 150.675C91.4223 150.346 91.517 149.999 91.517 149.636V148.408C91.4602 148.476 91.3352 148.539 91.142 148.596C90.9527 148.649 90.733 148.696 90.483 148.738C90.2367 148.776 89.9962 148.81 89.7614 148.84C89.5303 148.867 89.3428 148.889 89.1989 148.908C88.8504 148.954 88.5246 149.028 88.2216 149.13C87.9223 149.228 87.6799 149.378 87.4943 149.579C87.3125 149.776 87.2216 150.045 87.2216 150.386C87.2216 150.851 87.3939 151.204 87.7386 151.442C88.0871 151.677 88.5284 151.795 89.0625 151.795ZM96.6463 141.158V152.795H95.3054V141.158H96.6463ZM107.375 152.795H103.784V141.158H107.534C108.663 141.158 109.629 141.391 110.432 141.857C111.235 142.319 111.85 142.984 112.278 143.851C112.706 144.715 112.92 145.749 112.92 146.954C112.92 148.166 112.705 149.209 112.273 150.084C111.841 150.956 111.212 151.626 110.386 152.096C109.561 152.562 108.557 152.795 107.375 152.795ZM105.193 151.545H107.284C108.246 151.545 109.044 151.359 109.676 150.988C110.309 150.617 110.78 150.088 111.091 149.403C111.402 148.717 111.557 147.901 111.557 146.954C111.557 146.014 111.403 145.206 111.097 144.528C110.79 143.846 110.331 143.323 109.722 142.959C109.112 142.592 108.352 142.408 107.443 142.408H105.193V151.545ZM118.761 152.976C117.92 152.976 117.195 152.791 116.585 152.42C115.979 152.045 115.511 151.522 115.182 150.851C114.856 150.177 114.693 149.393 114.693 148.499C114.693 147.605 114.856 146.817 115.182 146.136C115.511 145.45 115.97 144.916 116.557 144.533C117.148 144.147 117.837 143.954 118.625 143.954C119.08 143.954 119.528 144.03 119.972 144.181C120.415 144.333 120.818 144.579 121.182 144.92C121.545 145.257 121.835 145.704 122.051 146.261C122.267 146.817 122.375 147.503 122.375 148.317V148.886H115.648V147.726H121.011C121.011 147.234 120.913 146.795 120.716 146.408C120.523 146.022 120.246 145.717 119.886 145.494C119.53 145.27 119.11 145.158 118.625 145.158C118.091 145.158 117.629 145.291 117.239 145.556C116.852 145.817 116.555 146.158 116.347 146.579C116.138 146.999 116.034 147.45 116.034 147.931V148.704C116.034 149.363 116.148 149.922 116.375 150.38C116.606 150.834 116.926 151.181 117.335 151.42C117.744 151.655 118.22 151.772 118.761 151.772C119.114 151.772 119.432 151.723 119.716 151.624C120.004 151.522 120.252 151.37 120.46 151.17C120.669 150.965 120.83 150.711 120.943 150.408L122.239 150.772C122.102 151.211 121.873 151.598 121.551 151.931C121.229 152.261 120.831 152.518 120.358 152.704C119.884 152.886 119.352 152.976 118.761 152.976ZM130.597 146.022L129.392 146.363C129.316 146.162 129.205 145.967 129.057 145.778C128.913 145.584 128.716 145.425 128.466 145.3C128.216 145.175 127.896 145.113 127.506 145.113C126.972 145.113 126.527 145.236 126.17 145.482C125.818 145.725 125.642 146.033 125.642 146.408C125.642 146.742 125.763 147.005 126.006 147.198C126.248 147.391 126.627 147.552 127.142 147.681L128.438 147.999C129.218 148.189 129.799 148.478 130.182 148.869C130.564 149.255 130.756 149.753 130.756 150.363C130.756 150.863 130.612 151.31 130.324 151.704C130.04 152.098 129.642 152.408 129.131 152.636C128.619 152.863 128.025 152.976 127.347 152.976C126.456 152.976 125.72 152.783 125.136 152.397C124.553 152.011 124.184 151.446 124.028 150.704L125.301 150.386C125.422 150.855 125.652 151.208 125.989 151.442C126.33 151.677 126.775 151.795 127.324 151.795C127.949 151.795 128.445 151.662 128.812 151.397C129.184 151.128 129.369 150.806 129.369 150.431C129.369 150.128 129.263 149.874 129.051 149.67C128.839 149.461 128.513 149.306 128.074 149.204L126.619 148.863C125.82 148.673 125.233 148.38 124.858 147.982C124.487 147.581 124.301 147.079 124.301 146.476C124.301 145.984 124.439 145.548 124.716 145.17C124.996 144.791 125.377 144.494 125.858 144.278C126.343 144.062 126.892 143.954 127.506 143.954C128.369 143.954 129.047 144.143 129.54 144.522C130.036 144.901 130.388 145.401 130.597 146.022ZM132.774 152.795V144.067H134.115V152.795H132.774ZM133.456 142.613C133.195 142.613 132.969 142.524 132.78 142.346C132.594 142.168 132.501 141.954 132.501 141.704C132.501 141.454 132.594 141.24 132.78 141.062C132.969 140.884 133.195 140.795 133.456 140.795C133.717 140.795 133.941 140.884 134.126 141.062C134.316 141.24 134.411 141.454 134.411 141.704C134.411 141.954 134.316 142.168 134.126 142.346C133.941 142.524 133.717 142.613 133.456 142.613ZM140.094 156.249C139.446 156.249 138.889 156.166 138.423 155.999C137.957 155.836 137.569 155.62 137.259 155.351C136.952 155.086 136.707 154.802 136.526 154.499L137.594 153.749C137.715 153.908 137.868 154.09 138.054 154.295C138.24 154.503 138.493 154.683 138.815 154.834C139.141 154.99 139.567 155.067 140.094 155.067C140.798 155.067 141.38 154.897 141.838 154.556C142.296 154.215 142.526 153.681 142.526 152.954V151.181H142.412C142.313 151.34 142.173 151.537 141.991 151.772C141.813 152.003 141.556 152.209 141.219 152.391C140.885 152.569 140.435 152.658 139.866 152.658C139.162 152.658 138.529 152.492 137.969 152.158C137.412 151.825 136.971 151.34 136.645 150.704C136.323 150.067 136.162 149.295 136.162 148.386C136.162 147.492 136.319 146.713 136.634 146.05C136.948 145.384 137.385 144.869 137.946 144.505C138.507 144.137 139.154 143.954 139.889 143.954C140.457 143.954 140.908 144.048 141.241 144.238C141.579 144.423 141.836 144.636 142.014 144.874C142.196 145.109 142.336 145.302 142.435 145.454H142.571V144.067H143.866V153.045C143.866 153.795 143.696 154.405 143.355 154.874C143.018 155.348 142.563 155.694 141.991 155.914C141.423 156.137 140.791 156.249 140.094 156.249ZM140.048 151.454C140.586 151.454 141.041 151.331 141.412 151.084C141.783 150.838 142.065 150.484 142.259 150.022C142.452 149.56 142.548 149.007 142.548 148.363C142.548 147.734 142.454 147.179 142.264 146.698C142.075 146.217 141.795 145.84 141.423 145.567C141.052 145.295 140.594 145.158 140.048 145.158C139.48 145.158 139.007 145.302 138.628 145.59C138.253 145.878 137.971 146.264 137.781 146.749C137.596 147.234 137.503 147.772 137.503 148.363C137.503 148.969 137.598 149.505 137.787 149.971C137.98 150.433 138.264 150.797 138.639 151.062C139.018 151.323 139.488 151.454 140.048 151.454ZM147.662 147.545V152.795H146.321V144.067H147.616V145.431H147.73C147.935 144.988 148.245 144.632 148.662 144.363C149.079 144.09 149.616 143.954 150.276 143.954C150.866 143.954 151.384 144.075 151.827 144.317C152.27 144.556 152.615 144.92 152.861 145.408C153.107 145.893 153.23 146.507 153.23 147.249V152.795H151.889V147.34C151.889 146.655 151.711 146.12 151.355 145.738C150.999 145.351 150.51 145.158 149.889 145.158C149.461 145.158 149.079 145.251 148.741 145.437C148.408 145.622 148.145 145.893 147.952 146.249C147.759 146.605 147.662 147.037 147.662 147.545ZM159.339 152.976C158.499 152.976 157.773 152.791 157.163 152.42C156.557 152.045 156.089 151.522 155.76 150.851C155.434 150.177 155.271 149.393 155.271 148.499C155.271 147.605 155.434 146.817 155.76 146.136C156.089 145.45 156.548 144.916 157.135 144.533C157.726 144.147 158.415 143.954 159.203 143.954C159.658 143.954 160.107 144.03 160.55 144.181C160.993 144.333 161.396 144.579 161.76 144.92C162.124 145.257 162.413 145.704 162.629 146.261C162.845 146.817 162.953 147.503 162.953 148.317V148.886H156.226V147.726H161.589C161.589 147.234 161.491 146.795 161.294 146.408C161.101 146.022 160.824 145.717 160.464 145.494C160.108 145.27 159.688 145.158 159.203 145.158C158.669 145.158 158.207 145.291 157.817 145.556C157.43 145.817 157.133 146.158 156.925 146.579C156.716 146.999 156.612 147.45 156.612 147.931V148.704C156.612 149.363 156.726 149.922 156.953 150.38C157.184 150.834 157.504 151.181 157.913 151.42C158.322 151.655 158.798 151.772 159.339 151.772C159.692 151.772 160.01 151.723 160.294 151.624C160.582 151.522 160.83 151.37 161.038 151.17C161.247 150.965 161.408 150.711 161.521 150.408L162.817 150.772C162.68 151.211 162.451 151.598 162.129 151.931C161.807 152.261 161.41 152.518 160.936 152.704C160.463 152.886 159.93 152.976 159.339 152.976ZM164.993 152.795V144.067H166.288V145.386H166.379C166.538 144.954 166.826 144.603 167.243 144.334C167.66 144.066 168.129 143.931 168.652 143.931C168.75 143.931 168.874 143.933 169.021 143.937C169.169 143.941 169.281 143.946 169.357 143.954V145.317C169.311 145.306 169.207 145.289 169.044 145.266C168.885 145.24 168.716 145.226 168.538 145.226C168.114 145.226 167.735 145.316 167.402 145.494C167.072 145.668 166.811 145.91 166.618 146.221C166.429 146.528 166.334 146.878 166.334 147.272V152.795H164.993ZM171.946 151.204L171.855 151.817C171.791 152.249 171.692 152.711 171.56 153.204C171.431 153.696 171.296 154.16 171.156 154.596C171.016 155.031 170.901 155.378 170.81 155.636H169.787C169.836 155.393 169.901 155.073 169.98 154.675C170.06 154.278 170.139 153.833 170.219 153.34C170.302 152.851 170.37 152.351 170.423 151.84L170.491 151.204H171.946ZM71.6669 171.795V160.158H75.5987C76.5078 160.158 77.254 160.314 77.8374 160.624C78.4207 160.931 78.8525 161.353 79.1328 161.891C79.4131 162.429 79.5533 163.041 79.5533 163.726C79.5533 164.412 79.4131 165.02 79.1328 165.55C78.8525 166.081 78.4226 166.497 77.843 166.8C77.2635 167.1 76.523 167.249 75.6214 167.249H72.4396V165.976H75.576C76.1972 165.976 76.6972 165.886 77.076 165.704C77.4586 165.522 77.7351 165.264 77.9055 164.931C78.0798 164.594 78.1669 164.192 78.1669 163.726C78.1669 163.261 78.0798 162.853 77.9055 162.505C77.7313 162.156 77.4529 161.887 77.0703 161.698C76.6877 161.505 76.1821 161.408 75.5533 161.408H73.076V171.795H71.6669ZM77.1442 166.567L80.0078 171.795H78.3714L75.5533 166.567H77.1442ZM85.2848 171.976C84.4439 171.976 83.7185 171.791 83.1087 171.42C82.5026 171.045 82.0348 170.522 81.7053 169.851C81.3795 169.177 81.2166 168.393 81.2166 167.499C81.2166 166.605 81.3795 165.817 81.7053 165.136C82.0348 164.45 82.4931 163.916 83.0803 163.533C83.6712 163.147 84.3606 162.954 85.1484 162.954C85.603 162.954 86.0518 163.03 86.495 163.181C86.9382 163.333 87.3416 163.579 87.7053 163.92C88.0689 164.257 88.3587 164.704 88.5746 165.261C88.7905 165.817 88.8984 166.503 88.8984 167.317V167.886H82.1712V166.726H87.5348C87.5348 166.234 87.4363 165.795 87.2393 165.408C87.0462 165.022 86.7696 164.717 86.4098 164.494C86.0537 164.27 85.6333 164.158 85.1484 164.158C84.6143 164.158 84.1522 164.291 83.7621 164.556C83.3757 164.817 83.0784 165.158 82.87 165.579C82.6617 165.999 82.5575 166.45 82.5575 166.931V167.704C82.5575 168.363 82.6712 168.922 82.8984 169.38C83.1295 169.834 83.4496 170.181 83.8587 170.42C84.2678 170.655 84.7431 170.772 85.2848 170.772C85.6371 170.772 85.9553 170.723 86.2393 170.624C86.5272 170.522 86.7753 170.37 86.9837 170.17C87.192 169.965 87.353 169.711 87.4666 169.408L88.7621 169.772C88.6257 170.211 88.3965 170.598 88.0746 170.931C87.7526 171.261 87.3549 171.518 86.8814 171.704C86.4079 171.886 85.8757 171.976 85.2848 171.976ZM97.12 165.022L95.9155 165.363C95.8397 165.162 95.728 164.967 95.5803 164.778C95.4363 164.584 95.2393 164.425 94.9893 164.3C94.7393 164.175 94.4193 164.113 94.0291 164.113C93.495 164.113 93.05 164.236 92.6939 164.482C92.3416 164.725 92.1655 165.033 92.1655 165.408C92.1655 165.742 92.2867 166.005 92.5291 166.198C92.7715 166.391 93.1503 166.552 93.6655 166.681L94.9609 166.999C95.7412 167.189 96.3227 167.478 96.7053 167.869C97.0878 168.255 97.2791 168.753 97.2791 169.363C97.2791 169.863 97.1352 170.31 96.8473 170.704C96.5632 171.098 96.1655 171.408 95.6541 171.636C95.1428 171.863 94.5481 171.976 93.87 171.976C92.9799 171.976 92.2431 171.783 91.6598 171.397C91.0765 171.011 90.7071 170.446 90.5518 169.704L91.8246 169.386C91.9458 169.855 92.175 170.208 92.5121 170.442C92.853 170.677 93.2981 170.795 93.8473 170.795C94.4723 170.795 94.9685 170.662 95.3359 170.397C95.7071 170.128 95.8928 169.806 95.8928 169.431C95.8928 169.128 95.7867 168.874 95.5746 168.67C95.3625 168.461 95.0367 168.306 94.5973 168.204L93.1428 167.863C92.3435 167.673 91.7564 167.38 91.3814 166.982C91.0102 166.581 90.8246 166.079 90.8246 165.476C90.8246 164.984 90.9628 164.548 91.2393 164.17C91.5196 163.791 91.9003 163.494 92.3814 163.278C92.8662 163.062 93.4155 162.954 94.0291 162.954C94.8928 162.954 95.5708 163.143 96.0632 163.522C96.5594 163.901 96.9117 164.401 97.12 165.022ZM102.957 171.976C102.116 171.976 101.39 171.791 100.781 171.42C100.174 171.045 99.7067 170.522 99.3771 169.851C99.0514 169.177 98.8885 168.393 98.8885 167.499C98.8885 166.605 99.0514 165.817 99.3771 165.136C99.7067 164.45 100.165 163.916 100.752 163.533C101.343 163.147 102.032 162.954 102.82 162.954C103.275 162.954 103.724 163.03 104.167 163.181C104.61 163.333 105.013 163.579 105.377 163.92C105.741 164.257 106.031 164.704 106.246 165.261C106.462 165.817 106.57 166.503 106.57 167.317V167.886H99.843V166.726H105.207C105.207 166.234 105.108 165.795 104.911 165.408C104.718 165.022 104.442 164.717 104.082 164.494C103.726 164.27 103.305 164.158 102.82 164.158C102.286 164.158 101.824 164.291 101.434 164.556C101.048 164.817 100.75 165.158 100.542 165.579C100.334 165.999 100.229 166.45 100.229 166.931V167.704C100.229 168.363 100.343 168.922 100.57 169.38C100.801 169.834 101.121 170.181 101.531 170.42C101.94 170.655 102.415 170.772 102.957 170.772C103.309 170.772 103.627 170.723 103.911 170.624C104.199 170.522 104.447 170.37 104.656 170.17C104.864 169.965 105.025 169.711 105.138 169.408L106.434 169.772C106.298 170.211 106.068 170.598 105.746 170.931C105.424 171.261 105.027 171.518 104.553 171.704C104.08 171.886 103.548 171.976 102.957 171.976ZM111.178 171.999C110.625 171.999 110.123 171.895 109.673 171.687C109.222 171.475 108.864 171.17 108.599 170.772C108.334 170.37 108.201 169.886 108.201 169.317C108.201 168.817 108.299 168.412 108.496 168.101C108.693 167.787 108.957 167.541 109.286 167.363C109.616 167.185 109.979 167.052 110.377 166.965C110.779 166.874 111.182 166.802 111.587 166.749C112.118 166.681 112.548 166.63 112.877 166.596C113.21 166.558 113.453 166.495 113.604 166.408C113.76 166.321 113.837 166.17 113.837 165.954V165.908C113.837 165.348 113.684 164.912 113.377 164.601C113.074 164.291 112.614 164.136 111.996 164.136C111.356 164.136 110.854 164.276 110.491 164.556C110.127 164.836 109.871 165.136 109.724 165.454L108.451 164.999C108.678 164.469 108.981 164.056 109.36 163.761C109.743 163.461 110.159 163.253 110.61 163.136C111.065 163.014 111.512 162.954 111.951 162.954C112.231 162.954 112.553 162.988 112.917 163.056C113.284 163.12 113.638 163.255 113.979 163.459C114.324 163.664 114.61 163.973 114.837 164.386C115.065 164.798 115.178 165.351 115.178 166.045V171.795H113.837V170.613H113.769C113.678 170.802 113.527 171.005 113.315 171.221C113.103 171.437 112.82 171.62 112.468 171.772C112.116 171.923 111.686 171.999 111.178 171.999ZM111.383 170.795C111.913 170.795 112.36 170.691 112.724 170.482C113.091 170.274 113.368 170.005 113.553 169.675C113.743 169.346 113.837 168.999 113.837 168.636V167.408C113.781 167.476 113.656 167.539 113.462 167.596C113.273 167.649 113.053 167.696 112.803 167.738C112.557 167.776 112.317 167.81 112.082 167.84C111.851 167.867 111.663 167.889 111.519 167.908C111.171 167.954 110.845 168.028 110.542 168.13C110.243 168.228 110 168.378 109.815 168.579C109.633 168.776 109.542 169.045 109.542 169.386C109.542 169.851 109.714 170.204 110.059 170.442C110.407 170.677 110.849 170.795 111.383 170.795ZM117.626 171.795V163.067H118.921V164.386H119.012C119.171 163.954 119.459 163.603 119.876 163.334C120.292 163.066 120.762 162.931 121.285 162.931C121.383 162.931 121.506 162.933 121.654 162.937C121.802 162.941 121.914 162.946 121.989 162.954V164.317C121.944 164.306 121.84 164.289 121.677 164.266C121.518 164.24 121.349 164.226 121.171 164.226C120.747 164.226 120.368 164.316 120.035 164.494C119.705 164.668 119.444 164.91 119.251 165.221C119.061 165.528 118.967 165.878 118.967 166.272V171.795H117.626ZM126.859 171.976C126.04 171.976 125.336 171.783 124.745 171.397C124.154 171.011 123.7 170.478 123.381 169.8C123.063 169.122 122.904 168.348 122.904 167.476C122.904 166.59 123.067 165.808 123.393 165.13C123.722 164.448 124.181 163.916 124.768 163.533C125.359 163.147 126.048 162.954 126.836 162.954C127.45 162.954 128.003 163.067 128.495 163.295C128.987 163.522 129.391 163.84 129.705 164.249C130.02 164.658 130.215 165.136 130.29 165.681H128.95C128.847 165.283 128.62 164.931 128.268 164.624C127.919 164.314 127.45 164.158 126.859 164.158C126.336 164.158 125.878 164.295 125.484 164.567C125.094 164.836 124.789 165.217 124.569 165.709C124.353 166.198 124.245 166.772 124.245 167.431C124.245 168.105 124.351 168.692 124.563 169.192C124.779 169.692 125.082 170.081 125.472 170.357C125.866 170.634 126.328 170.772 126.859 170.772C127.207 170.772 127.523 170.711 127.808 170.59C128.092 170.469 128.332 170.295 128.529 170.067C128.726 169.84 128.866 169.567 128.95 169.249H130.29C130.215 169.764 130.027 170.228 129.728 170.641C129.433 171.05 129.04 171.376 128.552 171.619C128.067 171.857 127.503 171.976 126.859 171.976ZM133.592 166.545V171.795H132.251V160.158H133.592V164.431H133.705C133.91 163.98 134.217 163.622 134.626 163.357C135.039 163.088 135.588 162.954 136.273 162.954C136.868 162.954 137.389 163.073 137.836 163.312C138.283 163.547 138.629 163.908 138.876 164.397C139.126 164.882 139.251 165.499 139.251 166.249V171.795H137.91V166.34C137.91 165.647 137.73 165.111 137.37 164.732C137.014 164.35 136.52 164.158 135.887 164.158C135.448 164.158 135.054 164.251 134.705 164.437C134.361 164.622 134.088 164.893 133.887 165.249C133.69 165.605 133.592 166.037 133.592 166.545ZM145.363 171.976C144.522 171.976 143.797 171.791 143.187 171.42C142.581 171.045 142.113 170.522 141.783 169.851C141.458 169.177 141.295 168.393 141.295 167.499C141.295 166.605 141.458 165.817 141.783 165.136C142.113 164.45 142.571 163.916 143.158 163.533C143.749 163.147 144.439 162.954 145.227 162.954C145.681 162.954 146.13 163.03 146.573 163.181C147.016 163.333 147.42 163.579 147.783 163.92C148.147 164.257 148.437 164.704 148.653 165.261C148.869 165.817 148.977 166.503 148.977 167.317V167.886H142.249V166.726H147.613C147.613 166.234 147.514 165.795 147.317 165.408C147.124 165.022 146.848 164.717 146.488 164.494C146.132 164.27 145.711 164.158 145.227 164.158C144.692 164.158 144.23 164.291 143.84 164.556C143.454 164.817 143.156 165.158 142.948 165.579C142.74 165.999 142.636 166.45 142.636 166.931V167.704C142.636 168.363 142.749 168.922 142.977 169.38C143.208 169.834 143.528 170.181 143.937 170.42C144.346 170.655 144.821 170.772 145.363 170.772C145.715 170.772 146.033 170.723 146.317 170.624C146.605 170.522 146.853 170.37 147.062 170.17C147.27 169.965 147.431 169.711 147.545 169.408L148.84 169.772C148.704 170.211 148.475 170.598 148.153 170.931C147.831 171.261 147.433 171.518 146.96 171.704C146.486 171.886 145.954 171.976 145.363 171.976ZM151.016 171.795V163.067H152.312V164.386H152.403C152.562 163.954 152.85 163.603 153.266 163.334C153.683 163.066 154.153 162.931 154.675 162.931C154.774 162.931 154.897 162.933 155.045 162.937C155.192 162.941 155.304 162.946 155.38 162.954V164.317C155.335 164.306 155.23 164.289 155.067 164.266C154.908 164.24 154.74 164.226 154.562 164.226C154.138 164.226 153.759 164.316 153.425 164.494C153.096 164.668 152.835 164.91 152.641 165.221C152.452 165.528 152.357 165.878 152.357 166.272V171.795H151.016Z" fill="#211D4F"/>
<path d="M461.5 52.6042H454.318V29.3315H461.818C464.076 29.3315 466.008 29.7974 467.614 30.7292C469.22 31.6535 470.451 32.983 471.307 34.7179C472.163 36.4452 472.591 38.5133 472.591 40.9224C472.591 43.3467 472.159 45.4338 471.295 47.1838C470.432 48.9262 469.174 50.2671 467.523 51.2065C465.871 52.1383 463.864 52.6042 461.5 52.6042ZM457.136 50.1042H461.318C463.242 50.1042 464.837 49.733 466.102 48.9906C467.367 48.2482 468.311 47.1914 468.932 45.8202C469.553 44.4489 469.864 42.8164 469.864 40.9224C469.864 39.0436 469.557 37.4262 468.943 36.0702C468.33 34.7065 467.413 33.6611 466.193 32.9338C464.973 32.1989 463.455 31.8315 461.636 31.8315H457.136V50.1042ZM484.5 52.6042H477.318V29.3315H484.818C487.076 29.3315 489.008 29.7974 490.614 30.7292C492.22 31.6535 493.451 32.983 494.307 34.7179C495.163 36.4452 495.591 38.5133 495.591 40.9224C495.591 43.3467 495.159 45.4338 494.295 47.1838C493.432 48.9262 492.174 50.2671 490.523 51.2065C488.871 52.1383 486.864 52.6042 484.5 52.6042ZM480.136 50.1042H484.318C486.242 50.1042 487.837 49.733 489.102 48.9906C490.367 48.2482 491.311 47.1914 491.932 45.8202C492.553 44.4489 492.864 42.8164 492.864 40.9224C492.864 39.0436 492.557 37.4262 491.943 36.0702C491.33 34.7065 490.413 33.6611 489.193 32.9338C487.973 32.1989 486.455 31.8315 484.636 31.8315H480.136V50.1042Z" fill="#211D4F"/>
<path d="M437.284 63.9679H438.966L442.92 73.627H443.057L447.011 63.9679H448.693V75.6042H447.375V66.7633H447.261L443.625 75.6042H442.352L438.716 66.7633H438.602V75.6042H437.284V63.9679ZM453.905 75.8088C453.352 75.8088 452.85 75.7046 452.399 75.4963C451.948 75.2842 451.59 74.9792 451.325 74.5815C451.06 74.18 450.928 73.6952 450.928 73.127C450.928 72.627 451.026 72.2217 451.223 71.9111C451.42 71.5967 451.683 71.3505 452.013 71.1724C452.342 70.9944 452.706 70.8618 453.104 70.7747C453.505 70.6838 453.909 70.6118 454.314 70.5588C454.844 70.4906 455.274 70.4395 455.604 70.4054C455.937 70.3675 456.179 70.305 456.331 70.2179C456.486 70.1308 456.564 69.9792 456.564 69.7633V69.7179C456.564 69.1573 456.411 68.7217 456.104 68.4111C455.801 68.1005 455.34 67.9452 454.723 67.9452C454.083 67.9452 453.581 68.0853 453.217 68.3656C452.854 68.6459 452.598 68.9452 452.45 69.2633L451.178 68.8088C451.405 68.2785 451.708 67.8656 452.087 67.5702C452.469 67.2709 452.886 67.0626 453.337 66.9452C453.791 66.8239 454.238 66.7633 454.678 66.7633C454.958 66.7633 455.28 66.7974 455.643 66.8656C456.011 66.93 456.365 67.0645 456.706 67.269C457.051 67.4736 457.337 67.7823 457.564 68.1952C457.791 68.608 457.905 69.1611 457.905 69.8542V75.6042H456.564V74.4224H456.496C456.405 74.6118 456.253 74.8145 456.041 75.0304C455.829 75.2463 455.547 75.43 455.195 75.5815C454.842 75.733 454.412 75.8088 453.905 75.8088ZM454.109 74.6042C454.64 74.6042 455.087 74.5001 455.45 74.2917C455.818 74.0834 456.094 73.8145 456.28 73.4849C456.469 73.1554 456.564 72.8088 456.564 72.4452V71.2179C456.507 71.2861 456.382 71.3486 456.189 71.4054C456 71.4584 455.78 71.5058 455.53 71.5474C455.284 71.5853 455.043 71.6194 454.808 71.6497C454.577 71.6762 454.39 71.6989 454.246 71.7179C453.897 71.7633 453.571 71.8372 453.268 71.9395C452.969 72.038 452.727 72.1876 452.541 72.3883C452.359 72.5853 452.268 72.8542 452.268 73.1952C452.268 73.6611 452.441 74.0133 452.786 74.252C453.134 74.4868 453.575 74.6042 454.109 74.6042ZM460.352 75.6042V66.877H461.693V75.6042H460.352ZM461.034 65.4224C460.773 65.4224 460.547 65.3334 460.358 65.1554C460.172 64.9774 460.08 64.7633 460.08 64.5133C460.08 64.2633 460.172 64.0493 460.358 63.8713C460.547 63.6933 460.773 63.6042 461.034 63.6042C461.295 63.6042 461.519 63.6933 461.705 63.8713C461.894 64.0493 461.989 64.2633 461.989 64.5133C461.989 64.7633 461.894 64.9774 461.705 65.1554C461.519 65.3334 461.295 65.4224 461.034 65.4224ZM465.49 70.3542V75.6042H464.149V66.877H465.445V68.2406H465.558C465.763 67.7974 466.073 67.4414 466.49 67.1724C466.907 66.8997 467.445 66.7633 468.104 66.7633C468.695 66.7633 469.212 66.8846 469.655 67.127C470.098 67.3656 470.443 67.7292 470.689 68.2179C470.935 68.7027 471.058 69.3164 471.058 70.0588V75.6042H469.717V70.1497C469.717 69.4641 469.539 68.93 469.183 68.5474C468.827 68.1611 468.339 67.9679 467.717 67.9679C467.289 67.9679 466.907 68.0607 466.57 68.2463C466.236 68.4319 465.973 68.7027 465.78 69.0588C465.587 69.4149 465.49 69.8467 465.49 70.3542ZM477.304 66.877V68.0133H472.781V66.877H477.304ZM474.099 64.7861H475.44V73.1042C475.44 73.483 475.495 73.7671 475.605 73.9565C475.719 74.1421 475.863 74.2671 476.037 74.3315C476.215 74.3921 476.402 74.4224 476.599 74.4224C476.747 74.4224 476.868 74.4149 476.963 74.3997C477.058 74.3808 477.134 74.3656 477.19 74.3542L477.463 75.5588C477.372 75.5929 477.245 75.627 477.082 75.6611C476.92 75.6989 476.713 75.7179 476.463 75.7179C476.084 75.7179 475.713 75.6364 475.349 75.4736C474.99 75.3107 474.69 75.0626 474.452 74.7292C474.217 74.3959 474.099 73.9755 474.099 73.4679V64.7861ZM481.889 75.8088C481.336 75.8088 480.834 75.7046 480.384 75.4963C479.933 75.2842 479.575 74.9792 479.31 74.5815C479.045 74.18 478.912 73.6952 478.912 73.127C478.912 72.627 479.01 72.2217 479.207 71.9111C479.404 71.5967 479.668 71.3505 479.997 71.1724C480.327 70.9944 480.69 70.8618 481.088 70.7747C481.49 70.6838 481.893 70.6118 482.298 70.5588C482.829 70.4906 483.259 70.4395 483.588 70.4054C483.921 70.3675 484.164 70.305 484.315 70.2179C484.471 70.1308 484.548 69.9792 484.548 69.7633V69.7179C484.548 69.1573 484.395 68.7217 484.088 68.4111C483.785 68.1005 483.325 67.9452 482.707 67.9452C482.067 67.9452 481.565 68.0853 481.202 68.3656C480.838 68.6459 480.582 68.9452 480.435 69.2633L479.162 68.8088C479.389 68.2785 479.692 67.8656 480.071 67.5702C480.454 67.2709 480.87 67.0626 481.321 66.9452C481.776 66.8239 482.223 66.7633 482.662 66.7633C482.942 66.7633 483.264 66.7974 483.628 66.8656C483.995 66.93 484.349 67.0645 484.69 67.269C485.035 67.4736 485.321 67.7823 485.548 68.1952C485.776 68.608 485.889 69.1611 485.889 69.8542V75.6042H484.548V74.4224H484.48C484.389 74.6118 484.238 74.8145 484.026 75.0304C483.813 75.2463 483.531 75.43 483.179 75.5815C482.827 75.733 482.397 75.8088 481.889 75.8088ZM482.094 74.6042C482.624 74.6042 483.071 74.5001 483.435 74.2917C483.802 74.0834 484.079 73.8145 484.264 73.4849C484.454 73.1554 484.548 72.8088 484.548 72.4452V71.2179C484.491 71.2861 484.366 71.3486 484.173 71.4054C483.984 71.4584 483.764 71.5058 483.514 71.5474C483.268 71.5853 483.027 71.6194 482.793 71.6497C482.562 71.6762 482.374 71.6989 482.23 71.7179C481.882 71.7633 481.556 71.8372 481.253 71.9395C480.954 72.038 480.711 72.1876 480.526 72.3883C480.344 72.5853 480.253 72.8542 480.253 73.1952C480.253 73.6611 480.425 74.0133 480.77 74.252C481.118 74.4868 481.56 74.6042 482.094 74.6042ZM488.337 75.6042V66.877H489.678V75.6042H488.337ZM489.018 65.4224C488.757 65.4224 488.532 65.3334 488.342 65.1554C488.157 64.9774 488.064 64.7633 488.064 64.5133C488.064 64.2633 488.157 64.0493 488.342 63.8713C488.532 63.6933 488.757 63.6042 489.018 63.6042C489.28 63.6042 489.503 63.6933 489.689 63.8713C489.878 64.0493 489.973 64.2633 489.973 64.5133C489.973 64.7633 489.878 64.9774 489.689 65.1554C489.503 65.3334 489.28 65.4224 489.018 65.4224ZM493.474 70.3542V75.6042H492.134V66.877H493.429V68.2406H493.543C493.747 67.7974 494.058 67.4414 494.474 67.1724C494.891 66.8997 495.429 66.7633 496.088 66.7633C496.679 66.7633 497.196 66.8846 497.639 67.127C498.082 67.3656 498.427 67.7292 498.673 68.2179C498.92 68.7027 499.043 69.3164 499.043 70.0588V75.6042H497.702V70.1497C497.702 69.4641 497.524 68.93 497.168 68.5474C496.812 68.1611 496.323 67.9679 495.702 67.9679C495.274 67.9679 494.891 68.0607 494.554 68.2463C494.221 68.4319 493.957 68.7027 493.764 69.0588C493.571 69.4149 493.474 69.8467 493.474 70.3542ZM507.675 68.8315L506.47 69.1724C506.394 68.9717 506.283 68.7766 506.135 68.5872C505.991 68.394 505.794 68.2349 505.544 68.1099C505.294 67.9849 504.974 67.9224 504.584 67.9224C504.05 67.9224 503.605 68.0455 503.249 68.2917C502.896 68.5342 502.72 68.8429 502.72 69.2179C502.72 69.5512 502.841 69.8145 503.084 70.0077C503.326 70.2008 503.705 70.3618 504.22 70.4906L505.516 70.8088C506.296 70.9982 506.877 71.288 507.26 71.6781C507.643 72.0645 507.834 72.5626 507.834 73.1724C507.834 73.6724 507.69 74.1194 507.402 74.5133C507.118 74.9073 506.72 75.2179 506.209 75.4452C505.697 75.6724 505.103 75.7861 504.425 75.7861C503.535 75.7861 502.798 75.5929 502.214 75.2065C501.631 74.8202 501.262 74.2558 501.107 73.5133L502.379 73.1952C502.5 73.6649 502.73 74.0171 503.067 74.252C503.408 74.4868 503.853 74.6042 504.402 74.6042C505.027 74.6042 505.523 74.4717 505.891 74.2065C506.262 73.9376 506.447 73.6156 506.447 73.2406C506.447 72.9376 506.341 72.6838 506.129 72.4792C505.917 72.2709 505.591 72.1156 505.152 72.0133L503.697 71.6724C502.898 71.483 502.311 71.1895 501.936 70.7917C501.565 70.3902 501.379 69.8883 501.379 69.2861C501.379 68.7936 501.518 68.358 501.794 67.9792C502.074 67.6005 502.455 67.3031 502.936 67.0872C503.421 66.8713 503.97 66.7633 504.584 66.7633C505.447 66.7633 506.125 66.9527 506.618 67.3315C507.114 67.7103 507.466 68.2103 507.675 68.8315ZM409.515 94.7861C408.697 94.7861 407.992 94.5929 407.401 94.2065C406.81 93.8202 406.356 93.288 406.038 92.6099C405.719 91.9319 405.56 91.1573 405.56 90.2861C405.56 89.3997 405.723 88.6175 406.049 87.9395C406.379 87.2577 406.837 86.7255 407.424 86.3429C408.015 85.9565 408.704 85.7633 409.492 85.7633C410.106 85.7633 410.659 85.877 411.151 86.1042C411.644 86.3315 412.047 86.6497 412.362 87.0588C412.676 87.4679 412.871 87.9452 412.947 88.4906H411.606C411.504 88.0929 411.276 87.7406 410.924 87.4338C410.576 87.1232 410.106 86.9679 409.515 86.9679C408.992 86.9679 408.534 87.1042 408.14 87.377C407.75 87.6459 407.445 88.0266 407.225 88.519C407.009 89.0077 406.901 89.5815 406.901 90.2406C406.901 90.9149 407.007 91.502 407.219 92.002C407.435 92.502 407.738 92.8902 408.129 93.1667C408.522 93.4433 408.985 93.5815 409.515 93.5815C409.863 93.5815 410.18 93.5209 410.464 93.3997C410.748 93.2785 410.988 93.1042 411.185 92.877C411.382 92.6497 411.522 92.377 411.606 92.0588H412.947C412.871 92.5739 412.683 93.038 412.384 93.4508C412.089 93.8599 411.697 94.1857 411.208 94.4281C410.723 94.6667 410.159 94.7861 409.515 94.7861ZM414.907 94.6042V85.877H416.202V87.1952H416.293C416.452 86.7633 416.74 86.413 417.157 86.144C417.574 85.8751 418.043 85.7406 418.566 85.7406C418.665 85.7406 418.788 85.7425 418.935 85.7463C419.083 85.7501 419.195 85.7558 419.271 85.7633V87.127C419.225 87.1156 419.121 87.0986 418.958 87.0758C418.799 87.0493 418.63 87.0361 418.452 87.0361C418.028 87.0361 417.649 87.1251 417.316 87.3031C416.987 87.4774 416.725 87.7198 416.532 88.0304C416.343 88.3372 416.248 88.6876 416.248 89.0815V94.6042H414.907ZM424.254 94.7861C423.413 94.7861 422.687 94.6005 422.077 94.2292C421.471 93.8542 421.004 93.3315 420.674 92.6611C420.348 91.9868 420.185 91.2027 420.185 90.3088C420.185 89.4149 420.348 88.627 420.674 87.9452C421.004 87.2596 421.462 86.7255 422.049 86.3429C422.64 85.9565 423.329 85.7633 424.117 85.7633C424.572 85.7633 425.021 85.8391 425.464 85.9906C425.907 86.1421 426.31 86.3883 426.674 86.7292C427.038 87.0664 427.327 87.5133 427.543 88.0702C427.759 88.627 427.867 89.3126 427.867 90.127V90.6952H421.14V89.5361H426.504C426.504 89.0436 426.405 88.6042 426.208 88.2179C426.015 87.8315 425.738 87.5266 425.379 87.3031C425.022 87.0796 424.602 86.9679 424.117 86.9679C423.583 86.9679 423.121 87.1005 422.731 87.3656C422.344 87.627 422.047 87.9679 421.839 88.3883C421.63 88.8088 421.526 89.2596 421.526 89.7406V90.5133C421.526 91.1724 421.64 91.7311 421.867 92.1895C422.098 92.644 422.418 92.9906 422.827 93.2292C423.237 93.4641 423.712 93.5815 424.254 93.5815C424.606 93.5815 424.924 93.5323 425.208 93.4338C425.496 93.3315 425.744 93.18 425.952 92.9792C426.161 92.7747 426.322 92.5209 426.435 92.2179L427.731 92.5815C427.594 93.0209 427.365 93.4073 427.043 93.7406C426.721 94.0702 426.324 94.3277 425.85 94.5133C425.377 94.6952 424.844 94.7861 424.254 94.7861ZM432.475 94.8088C431.922 94.8088 431.42 94.7046 430.969 94.4963C430.519 94.2842 430.161 93.9792 429.896 93.5815C429.63 93.18 429.498 92.6952 429.498 92.127C429.498 91.627 429.596 91.2217 429.793 90.9111C429.99 90.5967 430.254 90.3505 430.583 90.1724C430.913 89.9944 431.276 89.8618 431.674 89.7747C432.076 89.6838 432.479 89.6118 432.884 89.5588C433.415 89.4906 433.844 89.4395 434.174 89.4054C434.507 89.3675 434.75 89.305 434.901 89.2179C435.057 89.1308 435.134 88.9792 435.134 88.7633V88.7179C435.134 88.1573 434.981 87.7217 434.674 87.4111C434.371 87.1005 433.911 86.9452 433.293 86.9452C432.653 86.9452 432.151 87.0853 431.788 87.3656C431.424 87.6459 431.168 87.9452 431.021 88.2633L429.748 87.8088C429.975 87.2785 430.278 86.8656 430.657 86.5702C431.04 86.2709 431.456 86.0626 431.907 85.9452C432.362 85.8239 432.808 85.7633 433.248 85.7633C433.528 85.7633 433.85 85.7974 434.214 85.8656C434.581 85.93 434.935 86.0645 435.276 86.269C435.621 86.4736 435.907 86.7823 436.134 87.1952C436.362 87.608 436.475 88.1611 436.475 88.8542V94.6042H435.134V93.4224H435.066C434.975 93.6118 434.824 93.8145 434.612 94.0304C434.399 94.2463 434.117 94.43 433.765 94.5815C433.413 94.733 432.983 94.8088 432.475 94.8088ZM432.68 93.6042C433.21 93.6042 433.657 93.5001 434.021 93.2917C434.388 93.0834 434.665 92.8145 434.85 92.4849C435.04 92.1554 435.134 91.8088 435.134 91.4452V90.2179C435.077 90.2861 434.952 90.3486 434.759 90.4054C434.57 90.4584 434.35 90.5058 434.1 90.5474C433.854 90.5853 433.613 90.6194 433.379 90.6497C433.147 90.6762 432.96 90.6989 432.816 90.7179C432.468 90.7633 432.142 90.8372 431.839 90.9395C431.54 91.038 431.297 91.1876 431.112 91.3883C430.93 91.5853 430.839 91.8542 430.839 92.1952C430.839 92.6611 431.011 93.0133 431.356 93.252C431.704 93.4868 432.146 93.6042 432.68 93.6042ZM442.718 85.877V87.0133H438.195V85.877H442.718ZM439.513 83.7861H440.854V92.1042C440.854 92.483 440.909 92.7671 441.019 92.9565C441.133 93.1421 441.277 93.2671 441.451 93.3315C441.629 93.3921 441.817 93.4224 442.013 93.4224C442.161 93.4224 442.282 93.4149 442.377 93.3997C442.472 93.3808 442.548 93.3656 442.604 93.3542L442.877 94.5588C442.786 94.5929 442.659 94.627 442.496 94.6611C442.334 94.6989 442.127 94.7179 441.877 94.7179C441.498 94.7179 441.127 94.6364 440.763 94.4736C440.404 94.3107 440.104 94.0626 439.866 93.7292C439.631 93.3959 439.513 92.9755 439.513 92.4679V83.7861ZM444.735 94.6042V85.877H446.076V94.6042H444.735ZM445.417 84.4224C445.156 84.4224 444.93 84.3334 444.741 84.1554C444.555 83.9774 444.462 83.7633 444.462 83.5133C444.462 83.2633 444.555 83.0493 444.741 82.8713C444.93 82.6933 445.156 82.6042 445.417 82.6042C445.678 82.6042 445.902 82.6933 446.087 82.8713C446.277 83.0493 446.371 83.2633 446.371 83.5133C446.371 83.7633 446.277 83.9774 446.087 84.1554C445.902 84.3334 445.678 84.4224 445.417 84.4224ZM455.668 85.877L452.441 94.6042H451.077L447.85 85.877H449.305L451.714 92.8315H451.805L454.214 85.877H455.668ZM460.785 94.7861C459.944 94.7861 459.219 94.6005 458.609 94.2292C458.003 93.8542 457.535 93.3315 457.205 92.6611C456.879 91.9868 456.717 91.2027 456.717 90.3088C456.717 89.4149 456.879 88.627 457.205 87.9452C457.535 87.2596 457.993 86.7255 458.58 86.3429C459.171 85.9565 459.861 85.7633 460.648 85.7633C461.103 85.7633 461.552 85.8391 461.995 85.9906C462.438 86.1421 462.842 86.3883 463.205 86.7292C463.569 87.0664 463.859 87.5133 464.075 88.0702C464.29 88.627 464.398 89.3126 464.398 90.127V90.6952H457.671V89.5361H463.035C463.035 89.0436 462.936 88.6042 462.739 88.2179C462.546 87.8315 462.27 87.5266 461.91 87.3031C461.554 87.0796 461.133 86.9679 460.648 86.9679C460.114 86.9679 459.652 87.1005 459.262 87.3656C458.876 87.627 458.578 87.9679 458.37 88.3883C458.162 88.8088 458.058 89.2596 458.058 89.7406V90.5133C458.058 91.1724 458.171 91.7311 458.398 92.1895C458.629 92.644 458.95 92.9906 459.359 93.2292C459.768 93.4641 460.243 93.5815 460.785 93.5815C461.137 93.5815 461.455 93.5323 461.739 93.4338C462.027 93.3315 462.275 93.18 462.484 92.9792C462.692 92.7747 462.853 92.5209 462.967 92.2179L464.262 92.5815C464.126 93.0209 463.897 93.4073 463.575 93.7406C463.253 94.0702 462.855 94.3277 462.381 94.5133C461.908 94.6952 461.376 94.7861 460.785 94.7861ZM474.234 94.7861C473.506 94.7861 472.864 94.6024 472.308 94.2349C471.751 93.8637 471.315 93.341 471.001 92.6667C470.686 91.9887 470.529 91.1876 470.529 90.2633C470.529 89.3467 470.686 88.5512 471.001 87.877C471.315 87.2027 471.753 86.6819 472.313 86.3145C472.874 85.9471 473.522 85.7633 474.256 85.7633C474.825 85.7633 475.273 85.858 475.603 86.0474C475.936 86.233 476.19 86.4452 476.364 86.6838C476.542 86.9186 476.681 87.1118 476.779 87.2633H476.893V82.9679H478.234V94.6042H476.938V93.2633H476.779C476.681 93.4224 476.54 93.6232 476.359 93.8656C476.177 94.1042 475.917 94.3183 475.58 94.5077C475.243 94.6933 474.794 94.7861 474.234 94.7861ZM474.415 93.5815C474.953 93.5815 475.408 93.4414 475.779 93.1611C476.15 92.877 476.433 92.4849 476.626 91.9849C476.819 91.4811 476.915 90.8997 476.915 90.2406C476.915 89.5891 476.821 89.019 476.631 88.5304C476.442 88.038 476.162 87.6554 475.79 87.3827C475.419 87.1061 474.961 86.9679 474.415 86.9679C473.847 86.9679 473.374 87.1137 472.995 87.4054C472.62 87.6933 472.338 88.0853 472.148 88.5815C471.963 89.0739 471.87 89.627 471.87 90.2406C471.87 90.8618 471.965 91.4262 472.154 91.9338C472.347 92.4376 472.631 92.8391 473.006 93.1383C473.385 93.4338 473.855 93.5815 474.415 93.5815ZM480.876 94.6042V85.877H482.217V94.6042H480.876ZM481.558 84.4224C481.296 84.4224 481.071 84.3334 480.881 84.1554C480.696 83.9774 480.603 83.7633 480.603 83.5133C480.603 83.2633 480.696 83.0493 480.881 82.8713C481.071 82.6933 481.296 82.6042 481.558 82.6042C481.819 82.6042 482.042 82.6933 482.228 82.8713C482.417 83.0493 482.512 83.2633 482.512 83.5133C482.512 83.7633 482.417 83.9774 482.228 84.1554C482.042 84.3334 481.819 84.4224 481.558 84.4224ZM484.673 94.6042V85.877H485.968V87.1952H486.059C486.218 86.7633 486.506 86.413 486.923 86.144C487.339 85.8751 487.809 85.7406 488.332 85.7406C488.43 85.7406 488.553 85.7425 488.701 85.7463C488.849 85.7501 488.96 85.7558 489.036 85.7633V87.127C488.991 87.1156 488.887 87.0986 488.724 87.0758C488.565 87.0493 488.396 87.0361 488.218 87.0361C487.794 87.0361 487.415 87.1251 487.082 87.3031C486.752 87.4774 486.491 87.7198 486.298 88.0304C486.108 88.3372 486.013 88.6876 486.013 89.0815V94.6042H484.673ZM494.019 94.7861C493.178 94.7861 492.453 94.6005 491.843 94.2292C491.237 93.8542 490.769 93.3315 490.44 92.6611C490.114 91.9868 489.951 91.2027 489.951 90.3088C489.951 89.4149 490.114 88.627 490.44 87.9452C490.769 87.2596 491.228 86.7255 491.815 86.3429C492.406 85.9565 493.095 85.7633 493.883 85.7633C494.337 85.7633 494.786 85.8391 495.229 85.9906C495.673 86.1421 496.076 86.3883 496.44 86.7292C496.803 87.0664 497.093 87.5133 497.309 88.0702C497.525 88.627 497.633 89.3126 497.633 90.127V90.6952H490.906V89.5361H496.269C496.269 89.0436 496.171 88.6042 495.974 88.2179C495.781 87.8315 495.504 87.5266 495.144 87.3031C494.788 87.0796 494.368 86.9679 493.883 86.9679C493.349 86.9679 492.887 87.1005 492.496 87.3656C492.11 87.627 491.813 87.9679 491.604 88.3883C491.396 88.8088 491.292 89.2596 491.292 89.7406V90.5133C491.292 91.1724 491.406 91.7311 491.633 92.1895C491.864 92.644 492.184 92.9906 492.593 93.2292C493.002 93.4641 493.478 93.5815 494.019 93.5815C494.371 93.5815 494.69 93.5323 494.974 93.4338C495.262 93.3315 495.51 93.18 495.718 92.9792C495.926 92.7747 496.087 92.5209 496.201 92.2179L497.496 92.5815C497.36 93.0209 497.131 93.4073 496.809 93.7406C496.487 94.0702 496.089 94.3277 495.616 94.5133C495.142 94.6952 494.61 94.7861 494.019 94.7861ZM503.218 94.7861C502.4 94.7861 501.695 94.5929 501.104 94.2065C500.513 93.8202 500.059 93.288 499.741 92.6099C499.423 91.9319 499.263 91.1573 499.263 90.2861C499.263 89.3997 499.426 88.6175 499.752 87.9395C500.082 87.2577 500.54 86.7255 501.127 86.3429C501.718 85.9565 502.407 85.7633 503.195 85.7633C503.809 85.7633 504.362 85.877 504.854 86.1042C505.347 86.3315 505.75 86.6497 506.065 87.0588C506.379 87.4679 506.574 87.9452 506.65 88.4906H505.309C505.207 88.0929 504.979 87.7406 504.627 87.4338C504.279 87.1232 503.809 86.9679 503.218 86.9679C502.695 86.9679 502.237 87.1042 501.843 87.377C501.453 87.6459 501.148 88.0266 500.928 88.519C500.712 89.0077 500.604 89.5815 500.604 90.2406C500.604 90.9149 500.71 91.502 500.923 92.002C501.138 92.502 501.442 92.8902 501.832 93.1667C502.226 93.4433 502.688 93.5815 503.218 93.5815C503.567 93.5815 503.883 93.5209 504.167 93.3997C504.451 93.2785 504.692 93.1042 504.888 92.877C505.085 92.6497 505.226 92.377 505.309 92.0588H506.65C506.574 92.5739 506.387 93.038 506.087 93.4508C505.792 93.8599 505.4 94.1857 504.911 94.4281C504.426 94.6667 503.862 94.7861 503.218 94.7861ZM512.406 85.877V87.0133H507.883V85.877H512.406ZM509.201 83.7861H510.542V92.1042C510.542 92.483 510.597 92.7671 510.707 92.9565C510.82 93.1421 510.964 93.2671 511.138 93.3315C511.317 93.3921 511.504 93.4224 511.701 93.4224C511.849 93.4224 511.97 93.4149 512.065 93.3997C512.159 93.3808 512.235 93.3656 512.292 93.3542L512.565 94.5588C512.474 94.5929 512.347 94.627 512.184 94.6611C512.021 94.6989 511.815 94.7179 511.565 94.7179C511.186 94.7179 510.815 94.6364 510.451 94.4736C510.091 94.3107 509.792 94.0626 509.553 93.7292C509.318 93.3959 509.201 92.9755 509.201 92.4679V83.7861ZM514.423 94.6042V85.877H515.763V94.6042H514.423ZM515.104 84.4224C514.843 84.4224 514.618 84.3334 514.428 84.1554C514.243 83.9774 514.15 83.7633 514.15 83.5133C514.15 83.2633 514.243 83.0493 514.428 82.8713C514.618 82.6933 514.843 82.6042 515.104 82.6042C515.366 82.6042 515.589 82.6933 515.775 82.8713C515.964 83.0493 516.059 83.2633 516.059 83.5133C516.059 83.7633 515.964 83.9774 515.775 84.1554C515.589 84.3334 515.366 84.4224 515.104 84.4224ZM521.765 94.7861C520.977 94.7861 520.286 94.5986 519.691 94.2236C519.1 93.8486 518.638 93.3239 518.305 92.6497C517.975 91.9755 517.81 91.1876 517.81 90.2861C517.81 89.377 517.975 88.5834 518.305 87.9054C518.638 87.2274 519.1 86.7008 519.691 86.3258C520.286 85.9508 520.977 85.7633 521.765 85.7633C522.553 85.7633 523.242 85.9508 523.833 86.3258C524.428 86.7008 524.89 87.2274 525.219 87.9054C525.553 88.5834 525.719 89.377 525.719 90.2861C525.719 91.1876 525.553 91.9755 525.219 92.6497C524.89 93.3239 524.428 93.8486 523.833 94.2236C523.242 94.5986 522.553 94.7861 521.765 94.7861ZM521.765 93.5815C522.363 93.5815 522.856 93.4281 523.242 93.1213C523.629 92.8145 523.915 92.4111 524.1 91.9111C524.286 91.4111 524.379 90.8694 524.379 90.2861C524.379 89.7027 524.286 89.1592 524.1 88.6554C523.915 88.1516 523.629 87.7444 523.242 87.4338C522.856 87.1232 522.363 86.9679 521.765 86.9679C521.166 86.9679 520.674 87.1232 520.288 87.4338C519.901 87.7444 519.615 88.1516 519.43 88.6554C519.244 89.1592 519.151 89.7027 519.151 90.2861C519.151 90.8694 519.244 91.4111 519.43 91.9111C519.615 92.4111 519.901 92.8145 520.288 93.1213C520.674 93.4281 521.166 93.5815 521.765 93.5815ZM529.107 89.3542V94.6042H527.766V85.877H529.062V87.2406H529.175C529.38 86.7974 529.691 86.4414 530.107 86.1724C530.524 85.8997 531.062 85.7633 531.721 85.7633C532.312 85.7633 532.829 85.8846 533.272 86.127C533.715 86.3656 534.06 86.7292 534.306 87.2179C534.552 87.7027 534.675 88.3164 534.675 89.0588V94.6042H533.335V89.1497C533.335 88.4641 533.156 87.93 532.8 87.5474C532.444 87.1611 531.956 86.9679 531.335 86.9679C530.906 86.9679 530.524 87.0607 530.187 87.2463C529.853 87.4319 529.59 87.7027 529.397 88.0588C529.204 88.4149 529.107 88.8467 529.107 89.3542ZM543.308 87.8315L542.103 88.1724C542.027 87.9717 541.915 87.7766 541.768 87.5872C541.624 87.394 541.427 87.2349 541.177 87.1099C540.927 86.9849 540.607 86.9224 540.217 86.9224C539.683 86.9224 539.237 87.0455 538.881 87.2917C538.529 87.5342 538.353 87.8429 538.353 88.2179C538.353 88.5512 538.474 88.8145 538.717 89.0077C538.959 89.2008 539.338 89.3618 539.853 89.4906L541.148 89.8088C541.929 89.9982 542.51 90.288 542.893 90.6781C543.275 91.0645 543.467 91.5626 543.467 92.1724C543.467 92.6724 543.323 93.1194 543.035 93.5133C542.751 93.9073 542.353 94.2179 541.842 94.4452C541.33 94.6724 540.736 94.7861 540.058 94.7861C539.167 94.7861 538.431 94.5929 537.847 94.2065C537.264 93.8202 536.895 93.2558 536.739 92.5133L538.012 92.1952C538.133 92.6649 538.362 93.0171 538.7 93.252C539.04 93.4868 539.486 93.6042 540.035 93.6042C540.66 93.6042 541.156 93.4717 541.523 93.2065C541.895 92.9376 542.08 92.6156 542.08 92.2406C542.08 91.9376 541.974 91.6838 541.762 91.4792C541.55 91.2709 541.224 91.1156 540.785 91.0133L539.33 90.6724C538.531 90.483 537.944 90.1895 537.569 89.7917C537.198 89.3902 537.012 88.8883 537.012 88.2861C537.012 87.7936 537.15 87.358 537.427 86.9792C537.707 86.6005 538.088 86.3031 538.569 86.0872C539.054 85.8713 539.603 85.7633 540.217 85.7633C541.08 85.7633 541.758 85.9527 542.251 86.3315C542.747 86.7103 543.099 87.2103 543.308 87.8315Z" fill="#211D4F"/>
<path d="M797.409 162.295V150.658H804.386V151.908H798.818V155.84H803.864V157.09H798.818V162.295H797.409ZM809.636 162.476C808.795 162.476 808.07 162.291 807.46 161.92C806.854 161.545 806.386 161.022 806.057 160.351C805.731 159.677 805.568 158.893 805.568 157.999C805.568 157.105 805.731 156.317 806.057 155.636C806.386 154.95 806.845 154.416 807.432 154.033C808.023 153.647 808.712 153.454 809.5 153.454C809.955 153.454 810.403 153.53 810.847 153.681C811.29 153.833 811.693 154.079 812.057 154.42C812.42 154.757 812.71 155.204 812.926 155.761C813.142 156.317 813.25 157.003 813.25 157.817V158.386H806.523V157.226H811.886C811.886 156.734 811.788 156.295 811.591 155.908C811.398 155.522 811.121 155.217 810.761 154.994C810.405 154.77 809.985 154.658 809.5 154.658C808.966 154.658 808.504 154.791 808.114 155.056C807.727 155.317 807.43 155.658 807.222 156.079C807.013 156.499 806.909 156.95 806.909 157.431V158.204C806.909 158.863 807.023 159.422 807.25 159.88C807.481 160.334 807.801 160.681 808.21 160.92C808.619 161.155 809.095 161.272 809.636 161.272C809.989 161.272 810.307 161.223 810.591 161.124C810.879 161.022 811.127 160.87 811.335 160.67C811.544 160.465 811.705 160.211 811.818 159.908L813.114 160.272C812.977 160.711 812.748 161.098 812.426 161.431C812.104 161.761 811.706 162.018 811.233 162.204C810.759 162.386 810.227 162.476 809.636 162.476ZM818.949 162.476C818.108 162.476 817.383 162.291 816.773 161.92C816.167 161.545 815.699 161.022 815.369 160.351C815.044 159.677 814.881 158.893 814.881 157.999C814.881 157.105 815.044 156.317 815.369 155.636C815.699 154.95 816.157 154.416 816.744 154.033C817.335 153.647 818.025 153.454 818.812 153.454C819.267 153.454 819.716 153.53 820.159 153.681C820.602 153.833 821.006 154.079 821.369 154.42C821.733 154.757 822.023 155.204 822.239 155.761C822.455 156.317 822.562 157.003 822.562 157.817V158.386H815.835V157.226H821.199C821.199 156.734 821.1 156.295 820.903 155.908C820.71 155.522 820.434 155.217 820.074 154.994C819.718 154.77 819.297 154.658 818.812 154.658C818.278 154.658 817.816 154.791 817.426 155.056C817.04 155.317 816.742 155.658 816.534 156.079C816.326 156.499 816.222 156.95 816.222 157.431V158.204C816.222 158.863 816.335 159.422 816.562 159.88C816.794 160.334 817.114 160.681 817.523 160.92C817.932 161.155 818.407 161.272 818.949 161.272C819.301 161.272 819.619 161.223 819.903 161.124C820.191 161.022 820.439 160.87 820.648 160.67C820.856 160.465 821.017 160.211 821.131 159.908L822.426 160.272C822.29 160.711 822.061 161.098 821.739 161.431C821.417 161.761 821.019 162.018 820.545 162.204C820.072 162.386 819.54 162.476 818.949 162.476ZM827.898 162.476C827.17 162.476 826.528 162.293 825.972 161.925C825.415 161.554 824.979 161.031 824.665 160.357C824.35 159.679 824.193 158.878 824.193 157.954C824.193 157.037 824.35 156.242 824.665 155.567C824.979 154.893 825.417 154.372 825.977 154.005C826.538 153.637 827.186 153.454 827.92 153.454C828.489 153.454 828.938 153.548 829.267 153.738C829.6 153.923 829.854 154.136 830.028 154.374C830.206 154.609 830.345 154.802 830.443 154.954H830.557V150.658H831.898V162.295H830.602V160.954H830.443C830.345 161.113 830.205 161.314 830.023 161.556C829.841 161.795 829.581 162.009 829.244 162.198C828.907 162.384 828.458 162.476 827.898 162.476ZM828.08 161.272C828.617 161.272 829.072 161.132 829.443 160.851C829.814 160.567 830.097 160.175 830.29 159.675C830.483 159.172 830.58 158.59 830.58 157.931C830.58 157.28 830.485 156.709 830.295 156.221C830.106 155.728 829.826 155.346 829.455 155.073C829.083 154.797 828.625 154.658 828.08 154.658C827.511 154.658 827.038 154.804 826.659 155.096C826.284 155.384 826.002 155.776 825.812 156.272C825.627 156.764 825.534 157.317 825.534 157.931C825.534 158.552 825.629 159.117 825.818 159.624C826.011 160.128 826.295 160.53 826.67 160.829C827.049 161.124 827.519 161.272 828.08 161.272ZM834.722 162.295V150.658H836.062V154.954H836.176C836.275 154.802 836.411 154.609 836.585 154.374C836.763 154.136 837.017 153.923 837.347 153.738C837.68 153.548 838.131 153.454 838.699 153.454C839.434 153.454 840.081 153.637 840.642 154.005C841.203 154.372 841.64 154.893 841.955 155.567C842.269 156.242 842.426 157.037 842.426 157.954C842.426 158.878 842.269 159.679 841.955 160.357C841.64 161.031 841.205 161.554 840.648 161.925C840.091 162.293 839.449 162.476 838.722 162.476C838.161 162.476 837.712 162.384 837.375 162.198C837.038 162.009 836.778 161.795 836.597 161.556C836.415 161.314 836.275 161.113 836.176 160.954H836.017V162.295H834.722ZM836.04 157.931C836.04 158.59 836.136 159.172 836.33 159.675C836.523 160.175 836.805 160.567 837.176 160.851C837.547 161.132 838.002 161.272 838.54 161.272C839.1 161.272 839.568 161.124 839.943 160.829C840.322 160.53 840.606 160.128 840.795 159.624C840.989 159.117 841.085 158.552 841.085 157.931C841.085 157.317 840.991 156.764 840.801 156.272C840.616 155.776 840.333 155.384 839.955 155.096C839.58 154.804 839.108 154.658 838.54 154.658C837.994 154.658 837.536 154.797 837.165 155.073C836.794 155.346 836.513 155.728 836.324 156.221C836.134 156.709 836.04 157.28 836.04 157.931ZM847.045 162.499C846.492 162.499 845.991 162.395 845.54 162.187C845.089 161.975 844.731 161.67 844.466 161.272C844.201 160.87 844.068 160.386 844.068 159.817C844.068 159.317 844.167 158.912 844.364 158.601C844.561 158.287 844.824 158.041 845.153 157.863C845.483 157.685 845.847 157.552 846.244 157.465C846.646 157.374 847.049 157.302 847.455 157.249C847.985 157.181 848.415 157.13 848.744 157.096C849.078 157.058 849.32 156.995 849.472 156.908C849.627 156.821 849.705 156.67 849.705 156.454V156.408C849.705 155.848 849.551 155.412 849.244 155.101C848.941 154.791 848.481 154.636 847.864 154.636C847.223 154.636 846.722 154.776 846.358 155.056C845.994 155.336 845.739 155.636 845.591 155.954L844.318 155.499C844.545 154.969 844.848 154.556 845.227 154.261C845.61 153.961 846.027 153.753 846.477 153.636C846.932 153.514 847.379 153.454 847.818 153.454C848.098 153.454 848.42 153.488 848.784 153.556C849.152 153.62 849.506 153.755 849.847 153.959C850.191 154.164 850.477 154.473 850.705 154.886C850.932 155.298 851.045 155.851 851.045 156.545V162.295H849.705V161.113H849.636C849.545 161.302 849.394 161.505 849.182 161.721C848.97 161.937 848.688 162.12 848.335 162.272C847.983 162.423 847.553 162.499 847.045 162.499ZM847.25 161.295C847.78 161.295 848.227 161.191 848.591 160.982C848.958 160.774 849.235 160.505 849.42 160.175C849.61 159.846 849.705 159.499 849.705 159.136V157.908C849.648 157.976 849.523 158.039 849.33 158.096C849.14 158.149 848.92 158.196 848.67 158.238C848.424 158.276 848.184 158.31 847.949 158.34C847.718 158.367 847.53 158.389 847.386 158.408C847.038 158.454 846.712 158.528 846.409 158.63C846.11 158.728 845.867 158.878 845.682 159.079C845.5 159.276 845.409 159.545 845.409 159.886C845.409 160.351 845.581 160.704 845.926 160.942C846.275 161.177 846.716 161.295 847.25 161.295ZM857.038 162.476C856.22 162.476 855.516 162.283 854.925 161.897C854.334 161.511 853.879 160.978 853.561 160.3C853.243 159.622 853.084 158.848 853.084 157.976C853.084 157.09 853.247 156.308 853.572 155.63C853.902 154.948 854.36 154.416 854.947 154.033C855.538 153.647 856.228 153.454 857.016 153.454C857.629 153.454 858.182 153.567 858.675 153.795C859.167 154.022 859.571 154.34 859.885 154.749C860.199 155.158 860.394 155.636 860.47 156.181H859.129C859.027 155.783 858.8 155.431 858.447 155.124C858.099 154.814 857.629 154.658 857.038 154.658C856.516 154.658 856.057 154.795 855.663 155.067C855.273 155.336 854.968 155.717 854.749 156.209C854.533 156.698 854.425 157.272 854.425 157.931C854.425 158.605 854.531 159.192 854.743 159.692C854.959 160.192 855.262 160.581 855.652 160.857C856.046 161.134 856.508 161.272 857.038 161.272C857.387 161.272 857.703 161.211 857.987 161.09C858.271 160.969 858.512 160.795 858.709 160.567C858.906 160.34 859.046 160.067 859.129 159.749H860.47C860.394 160.264 860.207 160.728 859.908 161.141C859.612 161.55 859.22 161.876 858.732 162.119C858.247 162.357 857.682 162.476 857.038 162.476ZM863.68 159.113L863.658 157.454H863.93L867.749 153.567H869.408L865.339 157.681H865.226L863.68 159.113ZM862.43 162.295V150.658H863.771V162.295H862.43ZM867.976 162.295L864.567 157.976L865.521 157.045L869.68 162.295H867.976ZM877.315 155.522L876.111 155.863C876.035 155.662 875.923 155.467 875.776 155.278C875.632 155.084 875.435 154.925 875.185 154.8C874.935 154.675 874.615 154.613 874.224 154.613C873.69 154.613 873.245 154.736 872.889 154.982C872.537 155.225 872.361 155.533 872.361 155.908C872.361 156.242 872.482 156.505 872.724 156.698C872.967 156.891 873.346 157.052 873.861 157.181L875.156 157.499C875.937 157.689 876.518 157.978 876.901 158.369C877.283 158.755 877.474 159.253 877.474 159.863C877.474 160.363 877.33 160.81 877.043 161.204C876.759 161.598 876.361 161.908 875.849 162.136C875.338 162.363 874.743 162.476 874.065 162.476C873.175 162.476 872.438 162.283 871.855 161.897C871.272 161.511 870.902 160.946 870.747 160.204L872.02 159.886C872.141 160.355 872.37 160.708 872.707 160.942C873.048 161.177 873.493 161.295 874.043 161.295C874.668 161.295 875.164 161.162 875.531 160.897C875.902 160.628 876.088 160.306 876.088 159.931C876.088 159.628 875.982 159.374 875.77 159.17C875.558 158.961 875.232 158.806 874.793 158.704L873.338 158.363C872.539 158.173 871.952 157.88 871.577 157.482C871.205 157.081 871.02 156.579 871.02 155.976C871.02 155.484 871.158 155.048 871.435 154.67C871.715 154.291 872.096 153.994 872.577 153.778C873.062 153.562 873.611 153.454 874.224 153.454C875.088 153.454 875.766 153.643 876.259 154.022C876.755 154.401 877.107 154.901 877.315 155.522Z" fill="white"/>
<path d="M815.045 120.104H812.227C812.061 119.293 811.769 118.581 811.352 117.968C810.943 117.354 810.443 116.839 809.852 116.422C809.269 115.998 808.621 115.68 807.909 115.468C807.197 115.256 806.455 115.149 805.682 115.149C804.273 115.149 802.996 115.506 801.852 116.218C800.716 116.93 799.811 117.979 799.136 119.365C798.47 120.752 798.136 122.452 798.136 124.468C798.136 126.483 798.47 128.184 799.136 129.57C799.811 130.956 800.716 132.006 801.852 132.718C802.996 133.43 804.273 133.786 805.682 133.786C806.455 133.786 807.197 133.68 807.909 133.468C808.621 133.256 809.269 132.941 809.852 132.524C810.443 132.1 810.943 131.581 811.352 130.968C811.769 130.346 812.061 129.634 812.227 128.831H815.045C814.833 130.021 814.447 131.085 813.886 132.024C813.326 132.964 812.629 133.763 811.795 134.422C810.962 135.074 810.027 135.57 808.989 135.911C807.958 136.252 806.856 136.422 805.682 136.422C803.697 136.422 801.932 135.937 800.386 134.968C798.841 133.998 797.625 132.619 796.739 130.831C795.852 129.043 795.409 126.922 795.409 124.468C795.409 122.013 795.852 119.892 796.739 118.104C797.625 116.316 798.841 114.937 800.386 113.968C801.932 112.998 803.697 112.513 805.682 112.513C806.856 112.513 807.958 112.684 808.989 113.024C810.027 113.365 810.962 113.865 811.795 114.524C812.629 115.176 813.326 115.971 813.886 116.911C814.447 117.843 814.833 118.907 815.045 120.104ZM821.918 112.831V136.104H819.236V112.831H821.918ZM826.83 136.104V118.649H829.511V136.104H826.83ZM828.193 115.74C827.67 115.74 827.22 115.562 826.841 115.206C826.47 114.85 826.284 114.422 826.284 113.922C826.284 113.422 826.47 112.994 826.841 112.638C827.22 112.282 827.67 112.104 828.193 112.104C828.716 112.104 829.163 112.282 829.534 112.638C829.913 112.994 830.102 113.422 830.102 113.922C830.102 114.422 829.913 114.85 829.534 115.206C829.163 115.562 828.716 115.74 828.193 115.74ZM841.741 136.468C840.06 136.468 838.609 136.096 837.389 135.354C836.177 134.604 835.241 133.559 834.582 132.218C833.931 130.869 833.605 129.301 833.605 127.513C833.605 125.725 833.931 124.149 834.582 122.786C835.241 121.415 836.158 120.346 837.332 119.581C838.514 118.809 839.893 118.422 841.469 118.422C842.378 118.422 843.276 118.574 844.162 118.877C845.048 119.18 845.855 119.672 846.582 120.354C847.31 121.028 847.889 121.922 848.321 123.036C848.753 124.149 848.969 125.521 848.969 127.149V128.286H835.514V125.968H846.241C846.241 124.983 846.045 124.104 845.651 123.331C845.264 122.559 844.711 121.949 843.991 121.502C843.279 121.055 842.438 120.831 841.469 120.831C840.401 120.831 839.476 121.096 838.696 121.627C837.923 122.149 837.329 122.831 836.912 123.672C836.495 124.513 836.287 125.415 836.287 126.377V127.922C836.287 129.24 836.514 130.358 836.969 131.274C837.431 132.184 838.071 132.877 838.889 133.354C839.707 133.824 840.658 134.059 841.741 134.059C842.446 134.059 843.082 133.96 843.651 133.763C844.226 133.559 844.723 133.256 845.139 132.854C845.556 132.445 845.878 131.937 846.105 131.331L848.696 132.059C848.423 132.937 847.965 133.71 847.321 134.377C846.677 135.036 845.882 135.551 844.935 135.922C843.988 136.286 842.923 136.468 841.741 136.468ZM855.73 125.604V136.104H853.048V118.649H855.639V121.377H855.866C856.276 120.49 856.897 119.778 857.73 119.24C858.563 118.695 859.639 118.422 860.957 118.422C862.139 118.422 863.173 118.665 864.06 119.149C864.946 119.627 865.635 120.354 866.128 121.331C866.62 122.301 866.866 123.528 866.866 125.013V136.104H864.185V125.195C864.185 123.824 863.829 122.756 863.116 121.99C862.404 121.218 861.427 120.831 860.185 120.831C859.329 120.831 858.563 121.017 857.889 121.388C857.223 121.759 856.696 122.301 856.31 123.013C855.923 123.725 855.73 124.589 855.73 125.604ZM879.358 118.649V120.922H870.312V118.649H879.358ZM872.949 114.468H875.631V131.104C875.631 131.862 875.741 132.43 875.96 132.809C876.188 133.18 876.475 133.43 876.824 133.559C877.18 133.68 877.555 133.74 877.949 133.74C878.244 133.74 878.487 133.725 878.676 133.695C878.866 133.657 879.017 133.627 879.131 133.604L879.676 136.013C879.494 136.081 879.241 136.149 878.915 136.218C878.589 136.293 878.176 136.331 877.676 136.331C876.919 136.331 876.176 136.168 875.449 135.843C874.729 135.517 874.131 135.021 873.653 134.354C873.184 133.687 872.949 132.846 872.949 131.831V114.468Z" fill="white"/>
</svg>
