<svg width="874" height="874" viewBox="0 0 874 874" fill="none" xmlns="http://www.w3.org/2000/svg">
<g clip-path="url(#clip0_1138_3981)">
<path d="M490.365 86.9355L518.607 122.696C538.41 147.772 569.807 160.777 601.542 157.049L646.798 151.732C690.426 146.606 727.393 183.574 722.268 227.202L716.951 272.459C713.223 304.193 726.228 335.59 751.304 355.393L787.065 383.635C821.539 410.86 821.539 463.14 787.065 490.365L751.304 518.607C726.228 538.41 713.223 569.807 716.951 601.542L722.268 646.798C727.393 690.426 690.426 727.393 646.798 722.268L601.541 716.951C569.807 713.223 538.41 726.228 518.607 751.304L490.365 787.065C463.14 821.539 410.86 821.539 383.635 787.065L355.393 751.304C335.59 726.228 304.193 713.223 272.459 716.951L227.202 722.268C183.574 727.393 146.606 690.426 151.732 646.798L157.049 601.541C160.777 569.807 147.772 538.41 122.696 518.607L86.9354 490.365C52.4614 463.14 52.4614 410.86 86.9355 383.635L122.696 355.393C147.772 335.59 160.777 304.193 157.049 272.459L151.732 227.202C146.606 183.574 183.574 146.606 227.202 151.732L272.459 157.049C304.193 160.777 335.59 147.772 355.393 122.696L383.635 86.9354C410.86 52.4614 463.14 52.4614 490.365 86.9355Z" stroke="white" stroke-width="24"/>
</g>
<defs>
<clipPath id="clip0_1138_3981">
<rect width="874" height="874" fill="white"/>
</clipPath>
</defs>
</svg>
