<svg width="874" height="874" viewBox="0 0 874 874" fill="none" xmlns="http://www.w3.org/2000/svg">
<g clip-path="url(#clip0_1138_3981)">
<path d="M374.217 79.4982C406.247 38.9404 467.753 38.9405 499.783 79.4982L528.024 115.259C545.245 137.064 572.546 148.373 600.141 145.131L645.398 139.814C696.725 133.784 740.216 177.275 734.186 228.602L728.869 273.859C725.627 301.454 736.936 328.755 758.741 345.976L794.502 374.217C835.06 406.247 835.06 467.753 794.502 499.783L758.741 528.024C736.936 545.245 725.627 572.546 728.869 600.141L734.186 645.398C740.216 696.725 696.725 740.216 645.398 734.186L600.141 728.869C572.546 725.627 545.245 736.936 528.024 758.741L499.783 794.502C467.753 835.06 406.247 835.06 374.217 794.502L345.976 758.741C328.755 736.936 301.454 725.627 273.859 728.869L228.602 734.186C177.275 740.216 133.784 696.725 139.814 645.398L145.131 600.141C148.373 572.546 137.064 545.245 115.259 528.024L79.4982 499.783C38.9404 467.753 38.9405 406.247 79.4982 374.217L115.259 345.976C137.064 328.755 148.373 301.454 145.131 273.859L139.814 228.602C133.784 177.275 177.275 133.784 228.602 139.814L273.859 145.131C301.454 148.373 328.755 137.064 345.976 115.259L374.217 79.4982Z" fill="#FDCA6A"/>
</g>
<defs>
<clipPath id="clip0_1138_3981">
<rect width="874" height="874" fill="white"/>
</clipPath>
</defs>
</svg>
