<svg width="1920" height="1921" viewBox="0 0 1920 1921" fill="none" xmlns="http://www.w3.org/2000/svg">
<rect width="1920" height="1920" transform="translate(0 0.873047)" fill="#F2F0EB"/>
<path d="M1594.2 814.924L1605.38 830.494" stroke="white" stroke-width="4.2498" stroke-linecap="round"/>
<path d="M1643.91 882.189L1655.09 897.76" stroke="white" stroke-width="4.2498" stroke-linecap="round"/>
<path d="M750.315 555.541C750.376 552.116 754.504 550.424 756.951 552.822L797.134 592.207C799.266 594.296 802.368 595.054 805.223 594.183L859.037 577.753C862.313 576.753 865.198 580.156 863.673 583.224L838.633 633.612C837.305 636.285 837.543 639.469 839.254 641.915L871.509 688.018C873.473 690.825 871.127 694.62 867.738 694.118L812.079 685.874C809.127 685.437 806.171 686.648 804.374 689.031L770.495 733.953C768.432 736.689 764.098 735.63 763.528 732.252L754.169 676.77C753.672 673.827 751.608 671.39 748.786 670.417L695.592 652.078C692.354 650.961 692.021 646.513 695.058 644.927L744.932 618.88C747.578 617.499 749.257 614.782 749.31 611.798L750.315 555.541Z" fill="#E3BE63" stroke="black" stroke-width="4.2498"/>
<path d="M763.441 571.975L788.632 597.246" stroke="white" stroke-width="4.2498" stroke-linecap="round"/>
<path d="M846.266 592.395L810.079 602.521" stroke="white" stroke-width="4.2498" stroke-linecap="round"/>
<path d="M931.607 1298.4L800.885 1001.6L1104.64 957.102L1093.38 1267.52L931.607 1298.4Z" fill="#508664" stroke="black" stroke-width="4.2498"/>
<path fill-rule="evenodd" clip-rule="evenodd" d="M1322.48 602.486L1415.12 626.016L1405.49 666.965C1370.65 815.092 1255.91 931.305 1108.24 968.035C1078.69 975.386 1048.61 980.46 1018.28 983.211L951.191 989.298L911.497 1000.39C882.166 1008.58 852.25 1014.52 822.012 1018.14C670.92 1036.22 522.398 968.313 437.238 842.204L413.696 807.342L491.351 748.942C544.575 860.148 661.206 926.667 784.018 915.859L804.454 914.061C829.403 911.865 854.14 907.709 878.436 901.631L950.056 883.714L950.872 886.636L1013.96 879.17C1038.95 876.213 1063.66 871.295 1087.86 864.461L1110.75 858.001C1227.52 825.035 1311.78 723.35 1322.48 602.486Z" fill="#508664"/>
<path d="M1415.12 626.016L1415.65 623.956L1417.67 624.47L1417.19 626.503L1415.12 626.016ZM1322.48 602.486L1320.36 602.299L1320.58 599.812L1323 600.427L1322.48 602.486ZM1405.49 666.965L1403.42 666.478L1405.49 666.965ZM1108.24 968.035L1107.73 965.973L1108.24 968.035ZM1018.28 983.211L1018.47 985.328L1018.28 983.211ZM951.191 989.298L950.619 987.252L950.806 987.2L950.999 987.182L951.191 989.298ZM911.497 1000.39L912.069 1002.43L911.497 1000.39ZM822.012 1018.14L822.264 1020.25L822.012 1018.14ZM437.238 842.204L435.477 843.393L437.238 842.204ZM413.696 807.342L411.935 808.531L410.805 806.857L412.419 805.643L413.696 807.342ZM491.351 748.942L490.074 747.244L492.147 745.684L493.268 748.025L491.351 748.942ZM784.018 915.859L784.204 917.976L784.018 915.859ZM804.454 914.061L804.268 911.944L804.454 914.061ZM878.436 901.631L877.92 899.57L878.436 901.631ZM950.056 883.714L949.54 881.653L951.546 881.151L952.103 883.143L950.056 883.714ZM950.872 886.636L951.122 888.746L949.315 888.96L948.825 887.207L950.872 886.636ZM1013.96 879.17L1014.21 881.28L1013.96 879.17ZM1087.86 864.461L1087.29 862.416L1087.86 864.461ZM1110.75 858.001L1111.32 860.046L1110.75 858.001ZM1414.6 628.075L1321.95 604.546L1323 600.427L1415.65 623.956L1414.6 628.075ZM1403.42 666.478L1413.06 625.529L1417.19 626.503L1407.56 667.452L1403.42 666.478ZM1107.73 965.973C1254.62 929.435 1368.76 813.831 1403.42 666.478L1407.56 667.452C1372.54 816.354 1257.2 933.175 1108.75 970.097L1107.73 965.973ZM1018.09 981.095C1048.31 978.353 1078.28 973.298 1107.73 965.973L1108.75 970.097C1079.09 977.474 1048.91 982.566 1018.47 985.328L1018.09 981.095ZM950.999 987.182L1018.09 981.095L1018.47 985.328L951.383 991.415L950.999 987.182ZM951.763 991.345L912.069 1002.43L910.926 998.342L950.619 987.252L951.763 991.345ZM912.069 1002.43C882.634 1010.66 852.611 1016.61 822.264 1020.25L821.759 1016.03C851.89 1012.42 881.699 1006.51 910.926 998.342L912.069 1002.43ZM822.264 1020.25C670.382 1038.43 521.083 970.162 435.477 843.393L438.999 841.015C523.714 966.464 671.458 1034.02 821.759 1016.03L822.264 1020.25ZM435.477 843.393L411.935 808.531L415.457 806.152L438.999 841.015L435.477 843.393ZM412.419 805.643L490.074 747.244L492.628 750.64L414.973 809.04L412.419 805.643ZM493.268 748.025C546.109 858.432 661.902 924.472 783.831 913.743L784.204 917.976C660.509 928.861 543.04 861.865 489.434 749.859L493.268 748.025ZM783.831 913.743L804.268 911.944L804.641 916.177L784.204 917.976L783.831 913.743ZM804.268 911.944C829.106 909.758 853.732 905.621 877.92 899.57L878.952 903.693C854.547 909.798 829.7 913.972 804.641 916.177L804.268 911.944ZM877.92 899.57L949.54 881.653L950.572 885.776L878.952 903.693L877.92 899.57ZM952.103 883.143L952.919 886.064L948.825 887.207L948.009 884.286L952.103 883.143ZM1014.21 881.28L951.122 888.746L950.622 884.526L1013.71 877.059L1014.21 881.28ZM1088.44 866.506C1064.13 873.371 1039.31 878.31 1014.21 881.28L1013.71 877.059C1038.59 874.116 1063.19 869.22 1087.29 862.416L1088.44 866.506ZM1111.32 860.046L1088.44 866.506L1087.29 862.416L1110.17 855.956L1111.32 860.046ZM1324.59 602.674C1313.82 724.416 1228.95 826.841 1111.32 860.046L1110.17 855.956C1226.09 823.23 1309.74 722.284 1320.36 602.299L1324.59 602.674Z" fill="black"/>
<rect x="542.224" y="804.862" width="114.407" height="23.6605" transform="rotate(139.649 542.224 804.862)" fill="#E3BE63" stroke="black" stroke-width="4.2498"/>
<path d="M532.664 802.814L517.753 815.068" stroke="white" stroke-width="4.2498" stroke-linecap="round"/>
<path d="M468.348 857.199L453.436 869.453" stroke="white" stroke-width="4.2498" stroke-linecap="round"/>
<circle cx="490.478" cy="833.298" r="26.441" transform="rotate(114.258 490.478 833.298)" fill="white" stroke="black" stroke-width="4.2498"/>
<path d="M503.43 821.545L486.335 836.166L486.155 847.641" stroke="black" stroke-width="4.2498" stroke-linecap="round"/>
<path d="M1319.91 580.494L1312.72 615.681C1341.49 638.297 1378.9 646.882 1414.69 639.038L1420.85 637.688L1428.02 602.578L1319.91 580.494Z" fill="#508664" stroke="black" stroke-width="4.2498"/>
<path d="M1464.82 505.997C1480.84 538.668 1465.6 582.105 1455.97 599.74L1447.14 603.64C1393.76 627.205 1331.21 612.192 1294.34 566.964L1290.08 471.228L1328.62 468.029L1386.64 454.588L1464.82 505.997Z" fill="#978172" stroke="black" stroke-width="4.2498"/>
<path d="M1400.34 465.421C1400.53 452.881 1409.6 427.08 1444.35 424.195C1479.1 421.31 1488.96 449.646 1489.55 464.174L1483.3 496.415L1477.74 525.048C1477.31 527.283 1475.73 529.154 1473.52 529.701C1464.36 531.968 1449.82 532.348 1444.93 520.235C1439.35 506.408 1439.39 475.731 1440.11 462.12L1400.34 465.421Z" fill="#978172"/>
<path d="M1483.3 496.415L1489.55 464.174C1488.96 449.646 1479.1 421.31 1444.35 424.195C1409.6 427.08 1400.53 452.881 1400.34 465.421L1440.11 462.12C1439.39 475.731 1439.35 506.408 1444.93 520.235C1449.82 532.348 1464.36 531.968 1473.52 529.701C1475.73 529.154 1477.31 527.283 1477.74 525.048V525.048M1483.3 496.415C1479.71 494.973 1471.21 493.378 1465.88 498.54C1460.55 503.702 1460.44 514.262 1461.05 518.896C1462.3 521.347 1467.39 526.007 1477.74 525.048M1483.3 496.415L1477.74 525.048" stroke="black" stroke-width="4.2498"/>
<path d="M1363.47 476.754C1369.89 490.307 1377.74 522.901 1357.68 544.85" stroke="#978172" stroke-width="4.2498"/>
<path d="M1366.48 444.697C1366.67 432.157 1375.74 406.355 1410.49 403.47C1445.23 400.585 1455.1 428.921 1455.69 443.45L1449.44 475.69L1443.88 504.323C1443.45 506.558 1441.87 508.429 1439.66 508.976C1430.5 511.243 1415.96 511.624 1411.07 499.51C1405.49 485.684 1405.53 455.006 1406.24 441.395L1366.48 444.697Z" fill="#978172"/>
<path d="M1449.44 475.69L1455.69 443.45C1455.1 428.921 1445.23 400.585 1410.49 403.47C1375.74 406.355 1366.67 432.157 1366.48 444.697L1406.24 441.395C1405.53 455.006 1405.49 485.684 1411.07 499.51C1415.96 511.624 1430.5 511.243 1439.66 508.976C1441.87 508.429 1443.45 506.558 1443.88 504.323V504.323M1449.44 475.69C1445.85 474.248 1437.35 472.654 1432.02 477.815C1426.68 482.977 1426.58 493.537 1427.19 498.172C1428.44 500.622 1433.53 505.282 1443.88 504.323M1449.44 475.69L1443.88 504.323" stroke="black" stroke-width="4.2498"/>
<path d="M1337.69 426.412C1337.88 413.871 1346.95 388.07 1381.69 385.185C1416.44 382.3 1426.31 410.636 1426.9 425.164L1420.64 457.405L1415.09 486.038C1414.66 488.273 1413.08 490.144 1410.87 490.691C1401.71 492.958 1387.17 493.339 1382.28 481.225C1376.69 467.399 1376.73 436.721 1377.45 423.11L1337.69 426.412Z" fill="#978172"/>
<path d="M1420.64 457.405L1426.9 425.164C1426.31 410.636 1416.44 382.3 1381.69 385.185C1346.95 388.07 1337.88 413.871 1337.69 426.412L1377.45 423.11C1376.73 436.721 1376.69 467.399 1382.28 481.225C1387.17 493.339 1401.71 492.958 1410.87 490.691C1413.08 490.144 1414.66 488.273 1415.09 486.038V486.038M1420.64 457.405C1417.06 455.963 1408.56 454.368 1403.22 459.53C1397.89 464.692 1397.78 475.252 1398.4 479.887C1399.65 482.337 1404.74 486.997 1415.09 486.038M1420.64 457.405L1415.09 486.038" stroke="black" stroke-width="4.2498"/>
<path d="M1319.67 366.359C1318.88 401.216 1311.88 439.329 1311.69 451.869L1338.45 462.086C1338.45 462.086 1366.07 474.32 1370.89 460.211C1378.02 439.377 1385.68 401.095 1390.85 362.489C1393.9 339.727 1395.59 309.277 1396.46 287.885C1397.16 270.982 1392.6 254.341 1383.76 239.917C1368.93 215.713 1332.05 222.621 1326.99 250.552L1324.09 266.515C1323.24 271.245 1322.71 276.022 1322.52 280.826C1321.87 297.253 1320.31 338.224 1319.67 366.359Z" fill="#978172" stroke="black" stroke-width="4.2498"/>
<path d="M1292.92 525.934L1288.12 468.138C1290.08 454.955 1303.27 427.819 1340.32 424.742C1348.52 424.062 1355.69 424.26 1361.93 425.065C1376.37 426.929 1389.13 433.127 1394.66 438.145C1397.54 440.76 1401.21 446.157 1402.12 448.243C1406.23 459.328 1411.92 482.808 1389.51 485.624C1367.11 488.441 1341.24 477.413 1335.23 473.793L1292.92 525.934Z" fill="#978172"/>
<path d="M1361.93 425.065C1355.69 424.26 1348.52 424.062 1340.32 424.742C1303.27 427.819 1290.08 454.955 1288.12 468.138L1292.92 525.934L1335.23 473.793C1341.24 477.413 1367.11 488.441 1389.51 485.624C1411.92 482.808 1406.23 459.328 1402.12 448.243C1401.21 446.157 1397.54 440.76 1394.66 438.145M1361.93 425.065C1358.58 434.47 1355.34 453.948 1369.28 456.617C1383.21 459.287 1393.11 445.775 1394.66 438.145M1361.93 425.065C1376.37 426.929 1389.13 433.127 1394.66 438.145" stroke="black" stroke-width="4.2498"/>
<path d="M1295.52 545.032L1293.85 518.251L1333.45 464.043L1336.03 477.493L1295.52 545.032Z" fill="#978172"/>
<path d="M482.482 728.402L502.915 757.936C485.339 790.038 454.317 812.628 418.319 819.476L412.128 820.654L391.739 791.184L482.482 728.402Z" fill="#508664" stroke="black" stroke-width="4.2498"/>
<path d="M319.957 716.828C318.064 753.164 349.145 787.121 364.923 799.558L374.578 799.673C432.927 800.371 484.548 761.991 500.686 705.914L466.985 616.206L430.288 628.404L371.657 638.837L319.957 716.828Z" fill="#978172" stroke="black" stroke-width="4.2498"/>
<path d="M363.307 654.179C358.205 642.722 339.73 622.558 306.643 633.556C273.557 644.554 275.616 674.488 280.781 688.08L299.199 715.271L315.556 739.42C316.833 741.305 319.019 742.405 321.266 742.04C330.581 740.525 344.101 735.164 343.839 722.103C343.541 707.194 331.452 678.999 325.445 666.765L363.307 654.179Z" fill="#978172"/>
<path d="M299.199 715.271L280.781 688.08C275.616 674.488 273.557 644.554 306.643 633.556C339.73 622.558 358.205 642.722 363.307 654.179L325.445 666.765C331.452 678.999 343.541 707.194 343.839 722.103C344.101 735.164 330.581 740.525 321.266 742.04C319.019 742.405 316.833 741.305 315.556 739.42V739.42M299.199 715.271C301.928 712.537 309.121 707.73 316.053 710.382C322.985 713.033 327.232 722.702 328.489 727.205C328.301 729.95 325.452 736.235 315.556 739.42M299.199 715.271L315.556 739.42" stroke="black" stroke-width="4.2498"/>
<path d="M401.67 650.114C401.083 665.103 406.675 698.157 433.74 710.463" stroke="#978172" stroke-width="4.2498"/>
<path d="M386.303 621.816C381.201 610.359 362.726 590.194 329.64 601.193C296.553 612.191 298.612 642.125 303.777 655.717L322.195 682.908L338.552 707.056C339.829 708.941 342.015 710.042 344.262 709.677C353.577 708.162 367.097 702.8 366.835 689.739C366.537 674.831 354.448 646.636 348.441 634.402L386.303 621.816Z" fill="#978172"/>
<path d="M322.195 682.908L303.777 655.717C298.612 642.125 296.553 612.191 329.64 601.193C362.726 590.194 381.201 610.359 386.303 621.816L348.441 634.402C354.448 646.636 366.537 674.831 366.835 689.739C367.097 702.8 353.577 708.162 344.262 709.677C342.015 710.042 339.829 708.941 338.552 707.056V707.056M322.195 682.908C324.925 680.173 332.117 675.367 339.049 678.019C345.981 680.67 350.228 690.339 351.485 694.842C351.297 697.586 348.448 703.871 338.552 707.056M322.195 682.908L338.552 707.056" stroke="black" stroke-width="4.2498"/>
<path d="M405.6 593.691C400.498 582.234 382.023 562.069 348.936 573.068C315.85 584.066 317.909 614 323.074 627.592L341.492 654.783L357.849 678.931C359.126 680.816 361.312 681.917 363.559 681.552C372.874 680.037 386.393 674.675 386.132 661.614C385.834 646.706 373.745 618.511 367.738 606.277L405.6 593.691Z" fill="#978172"/>
<path d="M341.492 654.783L323.074 627.592C317.909 614 315.85 584.066 348.936 573.068C382.023 562.069 400.498 582.234 405.6 593.691L367.738 606.277C373.745 618.511 385.834 646.706 386.132 661.614C386.393 674.675 372.874 680.037 363.559 681.552C361.312 681.917 359.126 680.816 357.849 678.931V678.931M341.492 654.783C344.221 652.048 351.414 647.242 358.346 649.894C365.278 652.545 369.525 662.214 370.782 666.717C370.594 669.461 367.745 675.746 357.849 678.931M341.492 654.783L357.849 678.931" stroke="black" stroke-width="4.2498"/>
<path d="M398.579 531.39C413 563.134 434.409 595.432 439.511 606.889L418.914 626.799C418.914 626.799 398.328 648.897 388.348 637.819C373.609 621.46 351.52 589.268 331.599 555.797C319.853 536.062 306.34 508.724 297.13 489.395C289.853 474.124 287.502 457.031 289.964 440.295C294.094 412.21 330.72 404.075 346.351 427.77L355.284 441.312C357.932 445.325 360.295 449.51 362.357 453.853C369.406 468.705 386.939 505.767 398.579 531.39Z" fill="#978172" stroke="black" stroke-width="4.2498"/>
<path d="M485.87 667.629L467.576 612.595C460.593 601.242 437.806 581.468 402.524 593.196C394.719 595.791 388.2 598.791 382.779 601.983C370.233 609.37 360.935 620.082 357.822 626.869C356.199 630.406 354.949 636.808 354.925 639.087C355.501 650.895 359.497 674.721 381.208 668.508C402.92 662.296 422.373 641.993 426.481 636.302L485.87 667.629Z" fill="#978172"/>
<path d="M382.779 601.983C388.2 598.791 394.719 595.791 402.524 593.196C437.806 581.468 460.593 601.242 467.576 612.595L485.87 667.629L426.481 636.302C422.373 641.993 402.92 662.296 381.208 668.508C359.497 674.721 355.501 650.895 354.925 639.087C354.949 636.808 356.199 630.406 357.822 626.869M382.779 601.983C389.562 609.312 400.186 625.954 388.422 633.883C376.658 641.812 362.242 633.277 357.822 626.869M382.779 601.983C370.233 609.37 360.935 620.082 357.822 626.869" stroke="black" stroke-width="4.2498"/>
<path d="M490.977 686.208L481.994 660.924L424.278 626.633L427.189 640.016L490.977 686.208Z" fill="#978172"/>
<path fill-rule="evenodd" clip-rule="evenodd" d="M969.912 838.887C972.014 852.431 966.331 865.386 956.191 873.201C954.454 874.54 953.59 876.788 954.256 878.878L967.587 920.721C968.134 922.439 967.683 924.337 966.31 925.505C954.43 935.605 937.717 938.096 923.315 931.685C922.109 931.148 921.238 930.06 920.978 928.766L909.693 872.537C909.496 871.553 908.986 870.663 908.28 869.95C903.094 864.713 899.451 857.851 898.234 850.011C895.162 830.218 908.718 811.682 928.511 808.61C941.152 806.648 953.281 811.468 961.196 820.364C961.989 821.256 963.321 821.468 964.309 820.797L966.391 819.384C966.402 819.377 966.415 819.38 966.421 819.391C966.427 819.402 966.44 819.405 966.45 819.399C967.284 818.898 968.226 818.546 969.247 818.388C973.462 817.734 977.41 820.621 978.064 824.836C978.606 828.328 976.718 831.635 973.659 833.04C973.655 833.042 973.654 833.046 973.656 833.05C973.658 833.053 973.656 833.058 973.652 833.059L973.355 833.172C973.236 833.221 973.115 833.266 972.992 833.309L972.944 833.327C970.731 834.166 969.549 836.548 969.912 838.887Z" fill="#978172"/>
<path d="M973.355 833.172L972.602 831.185L972.577 831.194L972.552 831.204L973.355 833.172ZM972.992 833.309L972.29 831.304L972.265 831.313L972.24 831.322L972.992 833.309ZM973.652 833.059L974.405 835.047L973.652 833.059ZM966.45 819.399L967.546 821.22L966.45 819.399ZM966.391 819.384L967.585 821.142L966.391 819.384ZM961.196 820.364L959.608 821.776L961.196 820.364ZM964.309 820.797L963.115 819.039L964.309 820.797ZM920.978 928.766L923.061 928.348L920.978 928.766ZM973.659 833.04L972.772 831.109L973.659 833.04ZM967.587 920.721L965.562 921.366L967.587 920.721ZM966.31 925.505L964.933 923.886L966.31 925.505ZM908.28 869.95L909.79 868.455L908.28 869.95ZM956.191 873.201L957.488 874.884L956.191 873.201ZM954.256 878.878L952.231 879.523L954.256 878.878ZM957.488 874.884C968.217 866.615 974.238 852.901 972.012 838.561L967.813 839.213C969.791 851.96 964.445 864.157 954.894 871.518L957.488 874.884ZM969.611 920.076L956.28 878.233L952.231 879.523L965.562 921.366L969.611 920.076ZM922.451 933.626C937.604 940.371 955.188 937.751 967.686 927.123L964.933 923.886C953.673 933.46 937.831 935.821 924.179 929.744L922.451 933.626ZM907.61 872.955L918.895 929.184L923.061 928.348L911.776 872.119L907.61 872.955ZM896.134 850.337C897.422 858.634 901.28 865.901 906.77 871.445L909.79 868.455C904.908 863.525 901.48 857.069 900.334 849.685L896.134 850.337ZM928.185 806.51C907.232 809.762 892.882 829.384 896.134 850.337L900.334 849.685C897.442 831.051 910.203 813.601 928.837 810.709L928.185 806.51ZM962.783 818.952C954.409 809.539 941.569 804.433 928.185 806.51L928.837 810.709C940.735 808.863 952.153 813.397 959.608 821.776L962.783 818.952ZM965.198 817.626L963.115 819.039L965.502 822.556L967.585 821.142L965.198 817.626ZM968.921 816.288C967.623 816.49 966.42 816.937 965.355 817.579L967.546 821.22C968.147 820.858 968.829 820.603 969.573 820.488L968.921 816.288ZM980.164 824.51C979.33 819.135 974.296 815.454 968.921 816.288L969.573 820.488C972.628 820.013 975.49 822.106 975.964 825.162L980.164 824.51ZM974.546 834.971C978.446 833.18 980.855 828.965 980.164 824.51L975.964 825.162C976.357 827.69 974.991 830.09 972.772 831.109L974.546 834.971ZM974.107 835.159L974.405 835.047L972.9 831.072L972.602 831.185L974.107 835.159ZM973.694 835.315C973.85 835.26 974.005 835.202 974.157 835.14L972.552 831.204C972.466 831.24 972.379 831.273 972.29 831.304L973.694 835.315ZM973.697 835.315L973.744 835.297L972.24 831.322L972.192 831.34L973.697 835.315ZM972.192 831.34C968.907 832.584 967.318 836.028 967.813 839.213L972.012 838.561C971.781 837.068 972.555 835.747 973.697 835.315L972.192 831.34ZM971.778 834.045C971.181 832.918 971.707 831.524 972.9 831.072L974.405 835.047C975.604 834.592 976.134 833.189 975.533 832.055L971.778 834.045ZM964.543 820.386C965.121 821.476 966.493 821.853 967.546 821.22L965.355 817.579C966.387 816.958 967.733 817.327 968.299 818.397L964.543 820.386ZM967.585 821.142C966.548 821.846 965.13 821.493 964.543 820.386L968.299 818.397C967.701 817.268 966.255 816.908 965.198 817.626L967.585 821.142ZM959.608 821.776C961.058 823.407 963.569 823.867 965.502 822.556L963.115 819.039C963.087 819.059 963.047 819.073 962.984 819.063C962.917 819.054 962.842 819.018 962.783 818.952L959.608 821.776ZM924.179 929.744C923.602 929.487 923.186 928.967 923.061 928.348L918.895 929.184C919.29 931.154 920.616 932.81 922.451 933.626L924.179 929.744ZM972.772 831.109C971.667 831.617 971.201 832.955 971.778 834.045L975.533 832.055C976.107 833.138 975.644 834.467 974.546 834.971L972.772 831.109ZM965.562 921.366C965.876 922.353 965.588 923.329 964.933 923.886L967.686 927.123C969.777 925.345 970.391 922.525 969.611 920.076L965.562 921.366ZM911.776 872.119C911.488 870.683 910.755 869.429 909.79 868.455L906.77 871.445C907.218 871.897 907.503 872.423 907.61 872.955L911.776 872.119ZM954.894 871.518C952.552 873.323 951.257 876.464 952.231 879.523L956.28 878.233C955.924 877.113 956.356 875.756 957.488 874.884L954.894 871.518Z" fill="black"/>
<path d="M891.526 775.108C895.147 798.436 879.171 820.282 855.842 823.902C832.514 827.523 810.668 811.547 807.048 788.218C803.427 764.89 819.403 743.044 842.732 739.424C866.06 735.803 887.906 751.779 891.526 775.108Z" fill="black" stroke="black" stroke-width="4.2498"/>
<path d="M898.08 853.733C895.959 852.617 894.974 851.334 893.423 849.313C892.72 848.397 891.901 847.329 890.807 846.057C887.316 841.998 884.88 837.141 883.714 831.915C882.549 826.69 882.691 821.258 884.126 816.101C885.562 810.943 888.247 806.219 891.944 802.347C895.641 798.475 900.236 795.575 905.322 793.903C910.408 792.231 915.828 791.84 921.101 792.763C926.375 793.686 931.339 795.895 935.555 799.195C939.217 802.062 942.217 805.676 944.359 809.786C924.591 819.033 908.345 834.45 898.08 853.733Z" fill="black" stroke="black" stroke-width="4.2498"/>
<path d="M819.063 792.504C817.769 789.64 817.249 786.522 817.146 783.589C816.861 775.511 819.526 767.388 824.484 761.004C825.939 759.131 827.643 757.422 829.569 756.297" stroke="white" stroke-width="4.2498" stroke-linecap="round"/>
<path d="M891.93 830.461C890.362 827.016 890.111 824.286 890.668 820.344V820.344C891.47 814.674 894.455 808.578 899.814 806.564C900.233 806.407 900.671 806.281 901.129 806.194" stroke="white" stroke-width="4.2498" stroke-linecap="round"/>
<circle cx="946.416" cy="826.57" r="5.49358" transform="rotate(-8.82176 946.416 826.57)" fill="black"/>
<circle cx="986.306" cy="818.238" r="5.49358" transform="rotate(-8.82176 986.306 818.238)" fill="black"/>
<path d="M976.872 1319.99C979.595 1315.75 985.567 1316.48 986.471 1321.16L1007.98 1432.53C1008.65 1436.01 1011.13 1438.63 1014.45 1439.38L1120.88 1463.32C1125.36 1464.33 1125.98 1470.57 1121.88 1473.35L1024.38 1539.58C1021.34 1541.65 1019.47 1545.17 1019.5 1548.78L1020.5 1664.41C1020.55 1669.27 1014.96 1672.39 1011.52 1669.43L929.76 1598.99C927.21 1596.79 923.571 1596.35 920.271 1597.83L814.456 1645.35C810.007 1647.34 805.935 1643.04 807.909 1638.42L854.872 1528.66C856.336 1525.24 855.959 1521.43 853.888 1518.74L787.49 1432.48C784.699 1428.86 787.77 1423.07 792.427 1423.18L903.212 1425.78C906.667 1425.86 910.074 1423.96 912.094 1420.81L976.872 1319.99Z" fill="#E3BE63" stroke="black" stroke-width="4.2498"/>
<path d="M976.391 1367.11L988.063 1431.59" stroke="white" stroke-width="4.2498" stroke-linecap="round"/>
<path d="M1078.76 1475.9L1014.58 1459.73" stroke="white" stroke-width="4.2498" stroke-linecap="round"/>
<path d="M931.799 1259.85C929.076 1255.61 923.105 1256.34 922.201 1261.02L896.018 1396.62C895.347 1400.09 892.864 1402.72 889.545 1403.46L759.965 1432.61C755.491 1433.62 754.872 1439.86 758.971 1442.64L877.666 1523.27C880.706 1525.34 882.579 1528.87 882.547 1532.47L881.328 1673.24C881.286 1678.1 886.875 1681.23 890.312 1678.27L989.853 1592.51C992.402 1590.31 996.042 1589.86 999.342 1591.35L1128.17 1649.2C1132.62 1651.2 1136.69 1646.89 1134.72 1642.27L1077.54 1508.64C1076.08 1505.22 1076.45 1501.41 1078.52 1498.72L1159.36 1393.71C1162.15 1390.08 1159.08 1384.29 1154.42 1384.4L1019.55 1387.57C1016.09 1387.65 1012.69 1385.75 1010.66 1382.6L931.799 1259.85Z" fill="#E3BE63" stroke="black" stroke-width="4.2498"/>
<path d="M829.98 1461.03L905.842 1441.92" stroke="white" stroke-width="4.2498" stroke-linecap="round"/>
<path d="M863.317 1433.52C864.626 1431.49 867.496 1431.84 867.931 1434.09L881.399 1503.84C881.874 1506.29 883.632 1508.15 885.981 1508.68L952.634 1523.68C954.785 1524.16 955.083 1527.16 953.112 1528.5L892.058 1569.97C889.906 1571.43 888.58 1573.93 888.602 1576.49L889.229 1648.9C889.25 1651.23 886.563 1652.74 884.91 1651.31L833.709 1607.2C831.904 1605.64 829.327 1605.33 826.991 1606.38L760.725 1636.13C758.587 1637.09 756.629 1635.02 757.578 1632.8L786.988 1564.07C788.025 1561.64 787.758 1558.95 786.292 1557.05L744.71 1503.03C743.368 1501.28 744.845 1498.5 747.084 1498.55L816.462 1500.19C818.908 1500.24 821.32 1498.89 822.75 1496.67L863.317 1433.52Z" fill="#E3BE63" stroke="black" stroke-width="4.2498"/>
<path d="M862.383 1462.63L869.693 1503.01" stroke="white" stroke-width="4.2498" stroke-linecap="round"/>
<path d="M926.486 1530.77L886.298 1520.64" stroke="white" stroke-width="4.2498" stroke-linecap="round"/>
<path d="M863.317 1433.52C864.626 1431.49 867.496 1431.84 867.931 1434.09L881.399 1503.84C881.874 1506.29 883.632 1508.15 885.981 1508.68L952.634 1523.68C954.785 1524.16 955.083 1527.16 953.112 1528.5L892.058 1569.97C889.906 1571.43 888.58 1573.93 888.602 1576.49L889.229 1648.9C889.25 1651.23 886.563 1652.74 884.91 1651.31L833.709 1607.2C831.904 1605.64 829.327 1605.33 826.991 1606.38L760.725 1636.13C758.587 1637.09 756.629 1635.02 757.578 1632.8L786.988 1564.07C788.025 1561.64 787.758 1558.95 786.292 1557.05L744.71 1503.03C743.368 1501.28 744.845 1498.5 747.084 1498.55L816.462 1500.19C818.908 1500.24 821.32 1498.89 822.75 1496.67L863.317 1433.52Z" fill="#E3BE63" stroke="black" stroke-width="4.2498"/>
<path d="M862.383 1462.63L869.693 1503.01" stroke="white" stroke-width="4.2498" stroke-linecap="round"/>
<path d="M613.911 1223.67C610.514 1218.75 614.649 1212.15 620.556 1213.06L735.75 1230.85C739.752 1231.47 743.771 1229.86 746.229 1226.64L816.989 1134.01C820.618 1129.26 828.169 1131.16 829.126 1137.06L847.803 1252.11C848.451 1256.11 851.232 1259.43 855.051 1260.77L965.008 1299.45C970.648 1301.43 971.18 1309.2 965.864 1311.93L862.213 1365.25C858.612 1367.1 856.311 1370.77 856.214 1374.82L853.411 1491.34C853.268 1497.32 846.046 1500.23 841.803 1496.02L759.066 1413.91C756.192 1411.06 751.99 1410.01 748.11 1411.17L636.421 1444.51C630.693 1446.22 625.697 1440.25 628.391 1434.91L680.908 1330.85C682.733 1327.24 682.436 1322.92 680.136 1319.58L613.911 1223.67Z" fill="#E3BE63" stroke="black" stroke-width="4.2498"/>
<path d="M658.207 1238.72L726.185 1250.03" stroke="white" stroke-width="4.2498" stroke-linecap="round"/>
<path d="M811.19 1177.55L765.791 1234.17" stroke="white" stroke-width="4.2498" stroke-linecap="round"/>
<path d="M583.171 1407.49C580.463 1402.16 585.442 1396.17 591.175 1397.87L644.819 1413.72C648.702 1414.87 652.901 1413.81 655.768 1410.95L695.365 1371.43C699.596 1367.21 706.826 1370.1 706.986 1376.07L708.485 1431.99C708.593 1436.04 710.904 1439.7 714.51 1441.55L764.323 1467C769.646 1469.72 769.135 1477.48 763.501 1479.48L710.783 1498.19C706.967 1499.54 704.196 1502.87 703.558 1506.87L694.747 1562.11C693.805 1568.01 686.26 1569.93 682.618 1565.19L648.538 1520.83C646.072 1517.62 642.048 1516.01 638.048 1516.64L582.789 1525.33C576.884 1526.26 572.732 1519.67 576.115 1514.75L607.77 1468.63C610.061 1465.29 610.346 1460.97 608.512 1457.36L583.171 1407.49Z" fill="#E3BE63" stroke="black" stroke-width="4.2498"/>
<path d="M602.453 1412.01L640.316 1423.68" stroke="white" stroke-width="4.2498" stroke-linecap="round"/>
<path d="M694.321 1388.92L664.101 1417.69" stroke="white" stroke-width="4.2498" stroke-linecap="round"/>
<path d="M817.938 1378.21C820.948 1377.25 823.647 1380.36 822.275 1383.21L806.22 1416.53C804.973 1419.12 805.24 1422.18 806.916 1424.52L828.492 1454.57C830.335 1457.13 828.214 1460.66 825.083 1460.24L788.426 1455.26C785.579 1454.88 782.748 1456.08 781.046 1458.39L759.135 1488.2C757.264 1490.75 753.255 1489.82 752.691 1486.71L746.091 1450.31C745.578 1447.48 743.562 1445.16 740.834 1444.26L705.716 1432.63C702.717 1431.64 702.36 1427.54 705.142 1426.04L737.721 1408.52C740.251 1407.15 741.836 1404.52 741.852 1401.65L742.059 1364.65C742.076 1361.49 745.864 1359.89 748.148 1362.07L774.882 1387.64C776.959 1389.63 779.955 1390.32 782.692 1389.45L817.938 1378.21Z" fill="#E3BE63" stroke="black" stroke-width="4.2498"/>
<path d="M812.477 1389.58L800.947 1412.82" stroke="white" stroke-width="4.2498" stroke-linecap="round"/>
<path d="M817.716 1451.38L802.307 1428.82" stroke="white" stroke-width="4.2498" stroke-linecap="round"/>
<path d="M750.411 1455.53C753.422 1454.57 756.12 1457.67 754.749 1460.52L726.745 1518.65C725.497 1521.24 725.764 1524.3 727.44 1526.64L765.074 1579.05C766.917 1581.62 764.797 1585.14 761.666 1584.72L697.727 1576.05C694.879 1575.66 692.048 1576.86 690.346 1579.18L652.129 1631.16C650.257 1633.71 646.249 1632.78 645.685 1629.67L634.173 1566.19C633.66 1563.36 631.644 1561.04 628.916 1560.13L567.662 1539.85C564.663 1538.86 564.306 1534.76 567.088 1533.26L623.912 1502.69C626.443 1501.33 628.028 1498.7 628.044 1495.82L628.404 1431.3C628.422 1428.14 632.21 1426.54 634.493 1428.72L681.125 1473.32C683.201 1475.3 686.197 1476 688.935 1475.12L750.411 1455.53Z" fill="#E3BE63" stroke="black" stroke-width="4.2498"/>
<path d="M735.973 1475.83L718.53 1510.99" stroke="white" stroke-width="4.2498" stroke-linecap="round"/>
<path d="M743.907 1569.31L720.596 1535.18" stroke="white" stroke-width="4.2498" stroke-linecap="round"/>
<path d="M763.847 1498.59C765.8 1496.11 769.776 1497.17 770.239 1500.29L775.653 1536.89C776.074 1539.73 778.014 1542.12 780.711 1543.11L815.433 1555.87C818.398 1556.96 818.622 1561.07 815.792 1562.47L782.662 1578.93C780.089 1580.21 778.419 1582.79 778.31 1585.66L776.902 1622.63C776.782 1625.79 772.943 1627.27 770.732 1625.01L744.842 1598.59C742.831 1596.54 739.859 1595.75 737.095 1596.53L701.503 1606.61C698.463 1607.48 695.867 1604.28 697.33 1601.48L714.459 1568.69C715.79 1566.15 715.622 1563.08 714.023 1560.69L693.434 1529.96C691.676 1527.33 693.91 1523.88 697.025 1524.4L733.502 1530.56C736.335 1531.04 739.203 1529.93 740.98 1527.67L763.847 1498.59Z" fill="#E3BE63" stroke="black" stroke-width="4.2498"/>
<path d="M765.703 1515.55L769.201 1541.26" stroke="white" stroke-width="4.2498" stroke-linecap="round"/>
<path d="M804.723 1563.76L779.309 1553.74" stroke="white" stroke-width="4.2498" stroke-linecap="round"/>
<path d="M999.826 1174.57C1002.61 1171.11 1008.19 1172.65 1008.79 1177.06L1018.26 1246.09C1018.72 1249.46 1021 1252.32 1024.18 1253.53L1089.32 1278.26C1093.48 1279.84 1093.73 1285.62 1089.73 1287.56L1027 1317.89C1023.94 1319.37 1021.92 1322.42 1021.76 1325.82L1018.37 1395.41C1018.15 1399.85 1012.73 1401.88 1009.65 1398.67L961.418 1348.39C959.058 1345.93 955.541 1344.96 952.251 1345.85L885.019 1364.13C880.729 1365.3 877.124 1360.77 879.224 1356.85L912.139 1295.44C913.75 1292.44 913.59 1288.79 911.722 1285.94L873.56 1227.65C871.125 1223.93 874.32 1219.1 878.695 1219.89L947.269 1232.21C950.625 1232.82 954.043 1231.54 956.179 1228.88L999.826 1174.57Z" fill="#E3BE63" stroke="black" stroke-width="4.2498"/>
<path d="M1000.29 1201.06L1005.73 1244.52" stroke="white" stroke-width="4.2498" stroke-linecap="round"/>
<path d="M1065.3 1283.14L1022.58 1265.76" stroke="white" stroke-width="4.2498" stroke-linecap="round"/>
<path d="M888.99 1253.96C890.182 1249.68 895.918 1248.9 898.211 1252.71L934.146 1312.4C935.905 1315.32 939.119 1317.05 942.526 1316.9L1012.13 1313.92C1016.58 1313.73 1019.09 1318.95 1016.18 1322.3L970.513 1374.92C968.278 1377.5 967.628 1381.09 968.82 1384.29L993.163 1449.57C994.717 1453.73 990.535 1457.74 986.441 1456L922.284 1428.83C919.144 1427.5 915.528 1428 912.858 1430.12L858.294 1473.44C854.812 1476.21 849.712 1473.47 850.096 1469.04L856.11 1399.62C856.404 1396.23 854.819 1392.94 851.977 1391.06L793.911 1352.55C790.206 1350.09 791.236 1344.4 795.567 1343.39L863.441 1327.66C866.763 1326.89 869.399 1324.37 870.313 1321.08L888.99 1253.96Z" fill="#E3BE63" stroke="black" stroke-width="4.2498"/>
<path d="M814.383 1350.54L865.548 1338.55" stroke="white" stroke-width="4.2498" stroke-linecap="round"/>
<path d="M895.962 1274.29L883.633 1325.51" stroke="white" stroke-width="4.2498" stroke-linecap="round"/>
<path d="M865.904 1369.76C867.889 1367.3 871.852 1368.41 872.273 1371.54L879.675 1426.52C880.059 1429.37 881.968 1431.78 884.651 1432.8L936.465 1452.62C939.416 1453.75 939.586 1457.86 936.738 1459.23L886.739 1483.26C884.149 1484.5 882.446 1487.06 882.299 1489.93L879.464 1545.33C879.303 1548.49 875.445 1549.92 873.264 1547.64L834.96 1507.51C832.976 1505.43 830.015 1504.6 827.24 1505.35L773.675 1519.77C770.624 1520.59 768.07 1517.37 769.569 1514.59L795.896 1465.76C797.259 1463.23 797.132 1460.16 795.564 1457.75L765.294 1411.26C763.57 1408.61 765.849 1405.19 768.957 1405.75L823.531 1415.7C826.358 1416.22 829.241 1415.15 831.046 1412.91L865.904 1369.76Z" fill="#E3BE63" stroke="black" stroke-width="4.2498"/>
<path d="M865.883 1390.58L870.134 1425.19" stroke="white" stroke-width="4.2498" stroke-linecap="round"/>
<path d="M917.482 1456.05L883.498 1442.13" stroke="white" stroke-width="4.2498" stroke-linecap="round"/>
<path d="M714.003 1379.61C715.349 1375.12 721.641 1374.49 724.117 1378.6L757.144 1433.44C758.981 1436.49 762.371 1438.36 765.982 1438.33L830.915 1437.69C835.783 1437.64 838.489 1443.25 835.265 1446.7L792.259 1492.78C789.868 1495.34 789.147 1498.99 790.38 1502.3L812.554 1561.84C814.216 1566.3 809.596 1570.4 805.128 1568.42L745.522 1542.06C742.207 1540.59 738.371 1540.98 735.522 1543.06L684.294 1580.5C680.453 1583.3 674.892 1580.23 675.354 1575.55L681.521 1513.18C681.864 1509.71 680.214 1506.3 677.22 1504.27L623.386 1467.87C619.35 1465.14 620.532 1459.15 625.287 1458.23L688.704 1446.05C692.231 1445.37 695.047 1442.88 696.046 1439.54L714.003 1379.61Z" fill="#E3BE63" stroke="black" stroke-width="4.2498"/>
<path d="M723.309 1404.49L744.365 1440.39" stroke="white" stroke-width="4.2498" stroke-linecap="round"/>
<path d="M811.771 1453.68L767.271 1453.11" stroke="white" stroke-width="4.2498" stroke-linecap="round"/>
<path d="M572.753 1486.42C574.099 1481.93 580.391 1481.3 582.867 1485.41L615.894 1540.25C617.731 1543.3 621.121 1545.17 624.732 1545.14L689.665 1544.49C694.533 1544.45 697.239 1550.05 694.015 1553.51L651.009 1599.58C648.618 1602.15 647.897 1605.8 649.13 1609.11L671.304 1668.65C672.966 1673.11 668.346 1677.21 663.878 1675.23L604.272 1648.87C600.957 1647.4 597.121 1647.78 594.272 1649.87L543.044 1687.31C539.203 1690.11 533.642 1687.04 534.104 1682.36L540.271 1619.99C540.614 1616.52 538.964 1613.1 535.97 1611.08L482.136 1574.68C478.1 1571.95 479.282 1565.96 484.037 1565.04L547.454 1552.86C550.981 1552.18 553.797 1549.69 554.796 1546.35L572.753 1486.42Z" fill="#E3BE63" stroke="black" stroke-width="4.2498"/>
<path d="M583.426 1507.59L604.482 1543.49" stroke="white" stroke-width="4.2498" stroke-linecap="round"/>
<path d="M714.433 1509.66C717.465 1506.08 723.483 1508.02 724.106 1512.78L732.421 1576.25C732.884 1579.78 735.24 1582.86 738.563 1584.27L798.324 1609.67C802.805 1611.58 803.04 1617.8 798.703 1619.68L740.85 1644.69C737.633 1646.08 735.509 1649.14 735.314 1652.67L731.803 1716.1C731.539 1720.86 725.667 1722.76 722.363 1719.16L678.293 1671.14C675.842 1668.47 672.174 1667.29 668.729 1668.05L606.798 1681.86C602.155 1682.89 598.29 1677.85 600.586 1673.75L631.202 1619.06C632.904 1616.02 632.761 1612.23 630.827 1609.17L596.063 1554.27C593.457 1550.15 596.94 1545.13 601.663 1546.2L664.655 1560.42C668.158 1561.21 671.738 1560.05 673.987 1557.39L714.433 1509.66Z" fill="#E3BE63" stroke="black" stroke-width="4.2498"/>
<path d="M715.742 1533.34L720.67 1574.66" stroke="white" stroke-width="4.2498" stroke-linecap="round"/>
<path d="M777.123 1613.83L736.571 1595.49" stroke="white" stroke-width="4.2498" stroke-linecap="round"/>
<path d="M951.825 1516.03C955.392 1512.98 961.02 1515.87 960.872 1520.67L958.894 1584.65C958.784 1588.21 960.616 1591.62 963.67 1593.55L1018.58 1628.21C1022.7 1630.81 1021.93 1636.99 1017.35 1638.15L956.233 1653.55C952.834 1654.41 950.247 1657.09 949.488 1660.54L935.844 1722.59C934.821 1727.24 928.719 1728.17 926.036 1724.09L890.242 1669.62C888.251 1666.59 884.82 1664.84 881.297 1665.04L817.954 1668.73C813.205 1669.01 810.2 1663.4 813.123 1659.73L852.118 1610.66C854.286 1607.93 854.753 1604.17 853.335 1600.84L827.831 1541.07C825.919 1536.59 830.163 1532.19 834.653 1534L894.547 1558.15C897.878 1559.49 901.598 1558.92 904.244 1556.66L951.825 1516.03Z" fill="#E3BE63" stroke="black" stroke-width="4.2498"/>
<path d="M996.981 1650.81L959.896 1626.21" stroke="white" stroke-width="4.2498" stroke-linecap="round"/>
<path d="M1082.11 1450.64C1083.83 1448.53 1087.34 1449.59 1087.76 1452.34L1103.84 1558.61C1104.25 1561.3 1106.1 1563.62 1108.66 1564.64L1209.82 1605.28C1212.44 1606.33 1212.65 1609.94 1210.16 1611.08L1113.88 1655C1111.45 1656.11 1109.87 1658.48 1109.78 1661.18L1106.01 1767.78C1105.91 1770.54 1102.52 1771.71 1100.57 1769.66L1024.98 1690.54C1023.07 1688.53 1020.25 1687.69 1017.63 1688.32L914.132 1713.57C911.45 1714.22 909.15 1711.34 910.434 1708.94L959.995 1616.11C961.249 1613.76 961.081 1610.87 959.558 1608.57L899.362 1517.57C897.803 1515.21 899.766 1512.26 902.518 1512.82L1008.73 1534.58C1011.42 1535.13 1014.14 1534.19 1015.82 1532.13L1082.11 1450.64Z" fill="#E3BE63" stroke="black" stroke-width="4.2498"/>
<path d="M1167.28 1607.77L1108.92 1582.77" stroke="white" stroke-width="4.2498" stroke-linecap="round"/>
<path d="M798.746 1746.71C795.914 1751.29 788.754 1750.11 787.236 1744.81L766.271 1671.66C765.209 1667.95 762.192 1665.03 758.405 1664.06L683.671 1644.73C678.262 1643.33 676.936 1636.31 681.539 1633.44L745.143 1593.84C748.365 1591.84 750.148 1588.22 749.791 1584.41L742.735 1509.21C742.225 1503.77 748.565 1500.61 752.928 1504.13L813.202 1552.82C816.256 1555.28 820.375 1555.96 823.941 1554.59L894.315 1527.44C899.408 1525.48 904.653 1530.54 902.746 1535.59L876.394 1605.28C875.058 1608.81 875.821 1612.84 878.382 1615.8L928.931 1674.22C932.59 1678.45 929.491 1684.74 923.95 1684.34L847.388 1678.72C843.509 1678.44 839.862 1680.26 837.879 1683.46L798.746 1746.71Z" fill="#E3BE63" stroke="black" stroke-width="4.2498"/>
<path d="M1064.07 1504.45C1061.24 1509.03 1054.08 1507.85 1052.56 1502.56L1032.73 1433.34C1031.67 1429.63 1028.65 1426.72 1024.86 1425.74L954.152 1407.45C948.744 1406.05 947.417 1399.03 952.021 1396.17L1012.2 1358.7C1015.42 1356.69 1017.2 1353.07 1016.85 1349.26L1010.17 1278.12C1009.66 1272.67 1016 1269.51 1020.36 1273.04L1077.39 1319.1C1080.45 1321.56 1084.57 1322.24 1088.13 1320.87L1154.72 1295.18C1159.81 1293.22 1165.05 1298.29 1163.15 1303.33L1138.21 1369.27C1136.88 1372.8 1137.64 1376.84 1140.2 1379.8L1188.03 1435.07C1191.69 1439.3 1188.59 1445.59 1183.05 1445.18L1110.61 1439.87C1106.73 1439.59 1103.08 1441.4 1101.1 1444.61L1064.07 1504.45Z" fill="#E3BE63" stroke="black" stroke-width="4.2498"/>
<path d="M1003.53 1554.4C1005.09 1552.17 1008.68 1552.97 1009.29 1555.69L1019.9 1602.51C1020.5 1605.16 1022.51 1607.34 1025.14 1608.18L1071.53 1623C1074.22 1623.86 1074.69 1627.44 1072.28 1628.76L1030.81 1651.45C1028.46 1652.73 1027.07 1655.21 1027.17 1657.91L1028.94 1705.52C1029.04 1708.28 1025.75 1709.7 1023.65 1707.8L987.413 1674.99C985.36 1673.14 982.486 1672.49 979.92 1673.32L934.63 1687.92C932.003 1688.77 929.499 1686.06 930.605 1683.57L949.677 1640.61C950.757 1638.18 950.38 1635.3 948.694 1633.11L918.927 1594.52C917.2 1592.29 918.944 1589.2 921.73 1589.56L969.755 1595.81C972.476 1596.17 975.117 1595.03 976.64 1592.85L1003.53 1554.4Z" fill="#E3BE63" stroke="black" stroke-width="4.2498"/>
<path d="M1238.42 1579.08C1242.95 1577.84 1246.81 1582.84 1244.64 1587.12L1213.45 1648.44C1211.83 1651.61 1212.04 1655.48 1213.98 1658.53L1251.52 1717.35C1254.14 1721.45 1250.82 1726.72 1246.18 1725.81L1179.71 1712.83C1176.27 1712.16 1172.78 1713.49 1170.63 1716.29L1128.98 1770.39C1126.08 1774.16 1120.16 1772.41 1119.46 1767.57L1109.57 1698.24C1109.06 1694.65 1106.7 1691.6 1103.43 1690.28L1040.14 1664.9C1035.73 1663.13 1035.39 1656.78 1039.6 1654.69L1099.96 1624.82C1103.09 1623.27 1105.11 1620.06 1105.24 1616.45L1107.78 1546.66C1107.96 1541.79 1113.67 1539.62 1116.96 1543.17L1164.16 1594.04C1166.61 1596.67 1170.21 1597.74 1173.57 1596.82L1238.42 1579.08Z" fill="#E3BE63" stroke="black" stroke-width="4.2498"/>
<path d="M1174.06 1596.23L1172.2 1640.12" stroke="white" stroke-width="4.2498" stroke-linecap="round"/>
<path d="M1224.37 1690.48L1185.23 1664.52" stroke="white" stroke-width="4.2498" stroke-linecap="round"/>
<path d="M1273.95 1550.56C1277.52 1547.52 1283.15 1550.4 1283 1555.2L1280.88 1623.96C1280.77 1627.52 1282.6 1630.93 1285.65 1632.86L1344.66 1670.11C1348.78 1672.71 1348.01 1678.89 1343.43 1680.04L1277.75 1696.59C1274.35 1697.45 1271.77 1700.13 1271.01 1703.58L1256.34 1770.26C1255.32 1774.91 1249.22 1775.85 1246.54 1771.76L1208.07 1713.23C1206.08 1710.2 1202.65 1708.45 1199.13 1708.65L1131.06 1712.61C1126.31 1712.89 1123.3 1707.29 1126.23 1703.61L1168.13 1650.88C1170.3 1648.16 1170.77 1644.39 1169.35 1641.07L1141.94 1576.83C1140.03 1572.35 1144.27 1567.96 1148.76 1569.77L1213.13 1595.71C1216.46 1597.05 1220.18 1596.48 1222.82 1594.22L1273.95 1550.56Z" fill="#E3BE63" stroke="black" stroke-width="4.2498"/>
<path d="M1270.66 1576.16L1268.8 1620.04" stroke="white" stroke-width="4.2498" stroke-linecap="round"/>
<path d="M1320.97 1670.4L1281.83 1644.44" stroke="white" stroke-width="4.2498" stroke-linecap="round"/>
<path d="M1291.11 1592.11C1292.15 1589 1296.56 1588.69 1298.2 1591.62L1324.55 1638.63C1326 1641.21 1328.76 1642.86 1331.76 1642.92L1386.42 1644.08C1389.82 1644.16 1391.59 1648.13 1389.26 1650.48L1351.86 1688.12C1349.81 1690.18 1349.12 1693.2 1350.06 1695.98L1367.15 1746.66C1368.21 1749.81 1364.9 1752.57 1361.82 1751.09L1312.36 1727.35C1309.64 1726.04 1306.45 1726.26 1304.03 1727.92L1259.94 1758.07C1257.19 1759.95 1253.38 1757.68 1253.8 1754.42L1260.63 1702.1C1261 1699.23 1259.72 1696.35 1257.29 1694.59L1212.95 1662.55C1210.19 1660.56 1211.14 1656.39 1214.49 1655.86L1268.17 1647.28C1271.11 1646.8 1273.52 1644.8 1274.43 1642.06L1291.11 1592.11Z" fill="#E3BE63" stroke="black" stroke-width="4.2498"/>
<path d="M1394.57 1601.39L1392.7 1645.28" stroke="white" stroke-width="4.2498" stroke-linecap="round"/>
<path d="M1444.88 1695.64L1405.74 1669.67" stroke="white" stroke-width="4.2498" stroke-linecap="round"/>
<path d="M1390.6 1592.05C1393.69 1586.99 1401.58 1588.24 1403.29 1594.06L1413.55 1629.02C1414.7 1632.95 1417.92 1636.02 1421.94 1637.03L1457.79 1646.06C1463.75 1647.56 1465.26 1655.28 1460.22 1658.47L1429.88 1677.63C1426.47 1679.77 1424.61 1683.62 1425.01 1687.66L1428.62 1723.65C1429.22 1729.64 1422.27 1733.16 1417.44 1729.31L1388.42 1706.18C1385.17 1703.59 1380.8 1702.9 1377.03 1704.38L1343.41 1717.59C1337.82 1719.79 1332.01 1714.25 1334.07 1708.68L1346.48 1675.23C1347.87 1671.48 1347.03 1667.2 1344.3 1664.08L1319.91 1636.26C1315.85 1631.63 1319.22 1624.68 1325.32 1625.09L1362.01 1627.54C1366.12 1627.82 1369.97 1625.87 1372.05 1622.46L1390.6 1592.05Z" fill="#E3BE63" stroke="black" stroke-width="4.2498"/>
<path d="M1235.64 1297.52C1240.15 1293.67 1247.26 1297.31 1247.07 1303.37L1245.95 1339.8C1245.82 1343.88 1247.92 1347.8 1251.43 1350.02L1282.69 1369.75C1287.89 1373.03 1286.93 1380.84 1281.14 1382.3L1246.34 1391.07C1242.44 1392.05 1239.47 1395.13 1238.6 1399.09L1230.83 1434.41C1229.54 1440.29 1221.83 1441.47 1218.44 1436.31L1198.06 1405.31C1195.78 1401.83 1191.84 1399.81 1187.79 1400.05L1151.73 1402.15C1145.73 1402.49 1141.94 1395.42 1145.63 1390.77L1167.83 1362.84C1170.32 1359.71 1170.85 1355.38 1169.23 1351.57L1154.71 1317.54C1152.29 1311.88 1157.65 1306.32 1163.33 1308.61L1197.42 1322.35C1201.25 1323.89 1205.52 1323.24 1208.56 1320.65L1235.64 1297.52Z" fill="#E3BE63" stroke="black" stroke-width="4.2498"/>
<path d="M1234.46 1278L1232.81 1316.65" stroke="white" stroke-width="4.2498" stroke-linecap="round"/>
<path d="M1112.58 1433.52C1111.27 1431.49 1108.4 1431.84 1107.97 1434.09L1094.5 1503.84C1094.02 1506.29 1092.27 1508.15 1089.92 1508.68L1023.26 1523.68C1021.11 1524.16 1020.82 1527.16 1022.79 1528.5L1083.84 1569.97C1085.99 1571.43 1087.32 1573.93 1087.3 1576.49L1086.67 1648.9C1086.65 1651.23 1089.34 1652.74 1090.99 1651.31L1142.19 1607.2C1143.99 1605.64 1146.57 1605.33 1148.91 1606.38L1215.17 1636.13C1217.31 1637.09 1219.27 1635.02 1218.32 1632.8L1188.91 1564.07C1187.87 1561.64 1188.14 1558.95 1189.61 1557.05L1231.19 1503.03C1232.53 1501.28 1231.05 1498.5 1228.81 1498.55L1159.44 1500.19C1156.99 1500.24 1154.58 1498.89 1153.15 1496.67L1112.58 1433.52Z" fill="#E3BE63" stroke="black" stroke-width="4.2498"/>
<path d="M1113.52 1462.63L1106.21 1503.01" stroke="white" stroke-width="4.2498" stroke-linecap="round"/>
<path d="M1049.41 1530.77L1089.6 1520.64" stroke="white" stroke-width="4.2498" stroke-linecap="round"/>
<path d="M1093.84 1502.71C1092.53 1500.67 1089.66 1501.02 1089.22 1503.27L1075.75 1573.02C1075.28 1575.48 1073.52 1577.34 1071.17 1577.87L1004.52 1592.86C1002.37 1593.34 1002.07 1596.34 1004.04 1597.68L1065.09 1639.16C1067.25 1640.62 1068.57 1643.12 1068.55 1645.67L1067.92 1718.08C1067.9 1720.42 1070.59 1721.92 1072.24 1720.5L1123.44 1676.38C1125.25 1674.83 1127.83 1674.51 1130.16 1675.56L1196.43 1705.32C1198.57 1706.28 1200.52 1704.21 1199.57 1701.99L1170.16 1633.25C1169.13 1630.83 1169.39 1628.13 1170.86 1626.23L1212.44 1572.21C1213.78 1570.47 1212.31 1567.68 1210.07 1567.74L1140.69 1569.37C1138.24 1569.43 1135.83 1568.08 1134.4 1565.85L1093.84 1502.71Z" fill="#E3BE63" stroke="black" stroke-width="4.2498"/>
<path d="M1094.77 1531.82L1087.46 1572.2" stroke="white" stroke-width="4.2498" stroke-linecap="round"/>
<path d="M1030.67 1599.96L1070.85 1589.83" stroke="white" stroke-width="4.2498" stroke-linecap="round"/>
<path d="M1310.57 1206.37C1313.28 1201.04 1308.3 1195.06 1302.57 1196.75L1190.79 1229.79C1186.9 1230.93 1182.7 1229.87 1179.84 1227.01L1097.33 1144.68C1093.1 1140.46 1085.87 1143.34 1085.71 1149.32L1082.58 1265.84C1082.48 1269.88 1080.16 1273.55 1076.56 1275.39L972.761 1328.42C967.438 1331.14 967.949 1338.91 973.583 1340.91L1083.43 1379.88C1087.25 1381.24 1090.02 1384.57 1090.66 1388.57L1109.02 1503.67C1109.96 1509.57 1117.51 1511.49 1121.15 1506.75L1192.16 1414.32C1194.63 1411.11 1198.65 1409.5 1202.65 1410.13L1317.8 1428.24C1323.7 1429.17 1327.85 1422.58 1324.47 1417.65L1258.51 1321.55C1256.22 1318.21 1255.93 1313.89 1257.77 1310.28L1310.57 1206.37Z" fill="#E3BE63" stroke="black" stroke-width="4.2498"/>
<path d="M1268.68 1227.21L1202.82 1247.51" stroke="white" stroke-width="4.2498" stroke-linecap="round"/>
<path d="M1108.89 1187.04L1161.46 1237.08" stroke="white" stroke-width="4.2498" stroke-linecap="round"/>
<path d="M1575.75 1434.73C1578.78 1432.81 1578.05 1428.2 1574.58 1427.31L1496.07 1407.22C1493.12 1406.46 1490.81 1404.15 1490.06 1401.19L1470.12 1322.64C1469.24 1319.17 1464.63 1318.43 1462.71 1321.46L1419.34 1389.91C1417.7 1392.49 1414.79 1393.97 1411.75 1393.77L1330.89 1388.46C1327.31 1388.22 1325.18 1392.38 1327.47 1395.15L1379.17 1457.55C1381.12 1459.9 1381.63 1463.12 1380.49 1465.96L1350.45 1541.22C1349.12 1544.55 1352.42 1547.86 1355.76 1546.54L1431.08 1516.65C1433.92 1515.52 1437.14 1516.04 1439.49 1517.99L1501.79 1569.82C1504.54 1572.11 1508.71 1570 1508.48 1566.42L1503.33 1485.54C1503.14 1482.5 1504.62 1479.59 1507.2 1477.96L1575.75 1434.73Z" fill="#E3BE63" stroke="black" stroke-width="4.2498"/>
<path d="M1543.66 1432.8L1497.11 1421.46" stroke="white" stroke-width="4.2498" stroke-linecap="round"/>
<path d="M1462.57 1351.91L1476.12 1400.51" stroke="white" stroke-width="4.2498" stroke-linecap="round"/>
<path d="M1573.01 1474.56C1573.87 1472.62 1571.99 1470.6 1570 1471.31L1514.22 1491.13C1511.92 1491.95 1509.36 1491.45 1507.54 1489.82L1463.44 1450.34C1461.86 1448.93 1459.36 1450.09 1459.41 1452.2L1461.03 1511.38C1461.1 1513.82 1459.83 1516.1 1457.72 1517.32L1406.54 1547.07C1404.71 1548.13 1405.04 1550.87 1407.07 1551.47L1463.85 1568.21C1466.19 1568.9 1467.97 1570.82 1468.48 1573.2L1480.96 1631.07C1481.4 1633.14 1484.11 1633.67 1485.31 1631.92L1518.78 1583.1C1520.16 1581.09 1522.53 1579.99 1524.95 1580.24L1583.84 1586.25C1585.95 1586.47 1587.29 1584.06 1586 1582.38L1549.91 1535.46C1548.42 1533.53 1548.11 1530.94 1549.09 1528.71L1573.01 1474.56Z" fill="#E3BE63" stroke="black" stroke-width="4.2498"/>
<path d="M1550.6 1490.59L1519.69 1502.44" stroke="white" stroke-width="4.2498" stroke-linecap="round"/>
<path d="M1472.74 1476.49L1499.54 1498.78" stroke="white" stroke-width="4.2498" stroke-linecap="round"/>
<path d="M1386.22 1448.12C1383.96 1445.33 1379.32 1446.72 1378.77 1450.35L1370.74 1502.96C1370.27 1506.01 1368.17 1508.64 1365.26 1509.81L1315.14 1529.86C1311.68 1531.25 1311.4 1536.01 1314.69 1537.51L1362.33 1559.32C1365.1 1560.59 1366.88 1563.28 1366.99 1566.35L1368.79 1619.13C1368.91 1622.78 1373.38 1624.33 1375.96 1621.63L1413.44 1582.5C1415.62 1580.22 1418.82 1579.26 1421.8 1579.99L1473.03 1592.56C1476.56 1593.42 1479.6 1589.62 1477.91 1586.45L1453.43 1540.46C1452.01 1537.79 1452.2 1534.5 1453.94 1531.88L1483.8 1486.86C1485.86 1483.76 1483.28 1479.86 1479.65 1480.6L1427.04 1491.3C1423.99 1491.92 1420.9 1490.85 1419 1488.51L1386.22 1448.12Z" fill="#E3BE63" stroke="black" stroke-width="4.2498"/>
<path d="M1402.62 1392.27L1382.22 1428.54" stroke="white" stroke-width="4.2498" stroke-linecap="round"/>
<path d="M1315.06 1443.05L1359.55 1441.68" stroke="white" stroke-width="4.2498" stroke-linecap="round"/>
<path d="M1487.05 1558.01C1487.73 1555.97 1485.53 1554.08 1483.52 1554.97L1447.79 1570.73C1445.53 1571.73 1442.85 1571.44 1440.81 1569.98L1408.64 1546.86C1406.82 1545.56 1404.33 1546.95 1404.63 1549.1L1409.91 1587.18C1410.25 1589.6 1409.2 1591.96 1407.17 1593.35L1375.21 1615.28C1373.41 1616.51 1374.06 1619.26 1376.25 1619.7L1415.25 1627.47C1417.72 1627.96 1419.75 1629.72 1420.54 1632.04L1432.95 1668.7C1433.65 1670.77 1436.55 1671.08 1437.61 1669.21L1456.43 1635.92C1457.62 1633.81 1459.93 1632.53 1462.44 1632.58L1502.08 1633.31C1504.31 1633.35 1505.45 1630.79 1503.91 1629.2L1476.54 1600.86C1474.8 1599.06 1474.2 1596.51 1474.97 1594.22L1487.05 1558.01Z" fill="#E3BE63" stroke="black" stroke-width="4.2498"/>
<path d="M1475.09 1565.09L1451.98 1575.61" stroke="white" stroke-width="4.2498" stroke-linecap="round"/>
<path d="M1413.68 1558.58L1436.09 1573.91" stroke="white" stroke-width="4.2498" stroke-linecap="round"/>
<path d="M1530.83 1571.92C1532.3 1570.32 1531.06 1567.68 1528.84 1567.67L1501.37 1567.54C1498.88 1567.53 1496.55 1566.16 1495.28 1563.99L1481.25 1539.91C1480.12 1537.96 1477.25 1538.21 1476.64 1540.31L1469.1 1566.29C1468.42 1568.64 1466.49 1570.37 1464.06 1570.82L1437.24 1575.72C1435.08 1576.12 1434.54 1578.92 1436.39 1580.23L1459.2 1596.41C1461.26 1597.88 1462.4 1600.31 1462.17 1602.76L1459.62 1629.87C1459.42 1632.06 1461.96 1633.54 1463.7 1632.25L1485.34 1616.28C1487.3 1614.83 1489.94 1614.6 1492.22 1615.67L1517.47 1627.53C1519.5 1628.48 1521.61 1626.59 1520.84 1624.49L1511.4 1598.43C1510.55 1596.08 1511.04 1593.5 1512.68 1591.71L1530.83 1571.92Z" fill="#E3BE63" stroke="black" stroke-width="4.2498"/>
<path d="M1487.21 1534.67L1469.25 1542.85" stroke="white" stroke-width="4.2498" stroke-linecap="round"/>
<path d="M1439.48 1529.61L1456.89 1541.53" stroke="white" stroke-width="4.2498" stroke-linecap="round"/>
<path d="M1452.39 1364.56C1455.35 1361.65 1453.39 1356.62 1449.25 1356.47L1359.94 1353.23C1356.66 1353.11 1353.7 1351.21 1352.23 1348.27L1312.33 1268.3C1310.48 1264.59 1305.08 1264.9 1303.66 1268.79L1272.98 1352.73C1271.85 1355.81 1269.13 1358.04 1265.88 1358.53L1177.5 1371.77C1173.4 1372.38 1172.02 1377.61 1175.29 1380.16L1245.63 1435.28C1248.22 1437.3 1249.49 1440.58 1248.95 1443.82L1234.24 1531.97C1233.55 1536.06 1238.09 1538.98 1241.54 1536.67L1315.69 1486.79C1318.42 1484.96 1321.93 1484.76 1324.84 1486.28L1404.13 1527.51C1407.81 1529.43 1411.99 1526.01 1410.85 1522.02L1386.34 1436.09C1385.43 1432.93 1386.33 1429.53 1388.67 1427.22L1452.39 1364.56Z" fill="#E3BE63" stroke="black" stroke-width="4.2498"/>
<path d="M1417.21 1369.85L1364.39 1368.55" stroke="white" stroke-width="4.2498" stroke-linecap="round"/>
<path d="M1310.84 1301.7L1336.85 1350.89" stroke="white" stroke-width="4.2498" stroke-linecap="round"/>
<path d="M1133.28 1351.7C1130.27 1350.74 1127.57 1353.84 1128.94 1356.69L1147.25 1394.7C1148.49 1397.28 1148.23 1400.35 1146.55 1402.68L1121.95 1436.95C1120.1 1439.52 1122.22 1443.04 1125.36 1442.62L1167.16 1436.95C1170.01 1436.56 1172.84 1437.76 1174.54 1440.08L1199.53 1474.07C1201.4 1476.61 1205.41 1475.69 1205.97 1472.58L1213.5 1431.07C1214.01 1428.24 1216.03 1425.92 1218.75 1425.02L1258.8 1411.76C1261.8 1410.76 1262.16 1406.66 1259.37 1405.17L1222.22 1385.18C1219.69 1383.82 1218.11 1381.19 1218.09 1378.31L1217.86 1336.13C1217.84 1332.97 1214.05 1331.36 1211.77 1333.55L1181.28 1362.7C1179.2 1364.69 1176.21 1365.38 1173.47 1364.51L1133.28 1351.7Z" fill="#E3BE63" stroke="black" stroke-width="4.2498"/>
<path d="M1359.17 1437.05C1359.71 1433.93 1356.26 1431.69 1353.63 1433.44L1322.82 1453.92C1320.43 1455.51 1317.36 1455.66 1314.82 1454.32L1282.09 1437.08C1279.3 1435.6 1276.09 1438.19 1276.94 1441.23L1286.9 1476.86C1287.67 1479.63 1286.87 1482.6 1284.81 1484.6L1258.3 1510.4C1256.03 1512.6 1257.5 1516.44 1260.66 1516.57L1297.62 1518.11C1300.49 1518.23 1303.07 1519.91 1304.34 1522.49L1320.68 1555.68C1322.07 1558.51 1326.18 1558.3 1327.28 1555.34L1340.17 1520.67C1341.17 1517.97 1343.56 1516.04 1346.41 1515.63L1383.02 1510.35C1386.15 1509.9 1387.22 1505.92 1384.74 1503.96L1355.74 1480.99C1353.49 1479.21 1352.39 1476.33 1352.88 1473.5L1359.17 1437.05Z" fill="#E3BE63" stroke="black" stroke-width="4.2498"/>
<path d="M1347.61 1452.18L1326.17 1466.79" stroke="white" stroke-width="4.2498" stroke-linecap="round"/>
<path d="M1285.67 1455.47L1310.14 1467.64" stroke="white" stroke-width="4.2498" stroke-linecap="round"/>
<path d="M1215.59 1387.67C1212.13 1383.26 1205.07 1385.13 1204.24 1390.68L1196.19 1445.12C1195.62 1448.97 1192.99 1452.2 1189.33 1453.55L1137.68 1472.53C1132.42 1474.47 1132.02 1481.76 1137.05 1484.26L1186.33 1508.74C1189.82 1510.47 1192.08 1513.97 1192.23 1517.86L1194.32 1572.85C1194.54 1578.46 1201.35 1581.09 1205.28 1577.08L1243.79 1537.78C1246.51 1534.99 1250.54 1533.92 1254.29 1534.99L1307.23 1549.99C1312.63 1551.52 1317.24 1545.85 1314.64 1540.88L1289.16 1492.1C1287.36 1488.65 1287.59 1484.49 1289.75 1481.25L1320.38 1435.54C1323.5 1430.87 1319.54 1424.74 1314.01 1425.67L1259.74 1434.84C1255.9 1435.48 1252.02 1433.98 1249.61 1430.92L1215.59 1387.67Z" fill="#E3BE63" stroke="black" stroke-width="4.2498"/>
<path d="M1214.42 1421.16L1209.52 1454.74" stroke="white" stroke-width="4.2498" stroke-linecap="round"/>
<path d="M1150.12 1482.81L1192.85 1470.69" stroke="white" stroke-width="4.2498" stroke-linecap="round"/>
<path d="M895.163 1666.4C894.724 1664.83 892.614 1664.54 891.771 1665.94L879.54 1686.26L877.72 1685.16L879.54 1686.26C878.386 1688.18 876.277 1689.31 874.041 1689.21L850.349 1688.2C848.716 1688.13 847.79 1690.05 848.862 1691.28L864.405 1709.19C865.871 1710.88 866.297 1713.24 865.515 1715.34L857.23 1737.55C856.659 1739.09 858.197 1740.56 859.703 1739.92L881.539 1730.67L882.368 1732.63L881.539 1730.67C883.6 1729.8 885.972 1730.12 887.725 1731.52L906.296 1746.26C907.576 1747.28 909.452 1746.27 909.311 1744.64L907.264 1721.02C907.071 1718.79 908.111 1716.63 909.976 1715.39L929.739 1702.29C931.102 1701.38 930.723 1699.29 929.13 1698.92L906.029 1693.57C903.849 1693.06 902.119 1691.4 901.52 1689.25L895.163 1666.4Z" fill="#E3BE63" stroke="black" stroke-width="4.2498"/>
<path d="M1148.22 1369.91C1147.68 1366.7 1143.57 1365.7 1141.61 1368.29L1107.03 1414.16C1105.27 1416.48 1102.39 1417.66 1099.51 1417.24L1042.69 1408.83C1039.47 1408.35 1037.25 1411.95 1039.11 1414.62L1072.04 1461.68C1073.71 1464.07 1073.95 1467.17 1072.65 1469.78L1047.09 1521.22C1045.64 1524.14 1048.38 1527.37 1051.49 1526.42L1106.43 1509.64C1109.21 1508.79 1112.24 1509.53 1114.32 1511.56L1155.35 1551.77C1157.67 1554.04 1161.59 1552.44 1161.64 1549.19L1162.66 1491.75C1162.72 1488.84 1164.35 1486.19 1166.93 1484.85L1217.85 1458.25C1220.73 1456.75 1220.42 1452.52 1217.34 1451.46L1163.03 1432.75C1160.28 1431.8 1158.27 1429.42 1157.78 1426.55L1148.22 1369.91Z" fill="#E3BE63" stroke="black" stroke-width="4.2498"/>
<path d="M1137.68 1388.84L1116.36 1417.81" stroke="white" stroke-width="4.2498" stroke-linecap="round"/>
<path d="M1058.18 1421.62L1095.77 1426.29" stroke="white" stroke-width="4.2498" stroke-linecap="round"/>
<path d="M491.511 1277.46C491.477 1277.45 491.457 1277.45 491.449 1277.45C491.44 1277.45 491.433 1277.45 491.426 1277.45C491.41 1277.46 491.38 1277.47 491.35 1277.51C491.321 1277.54 491.31 1277.57 491.307 1277.59C491.306 1277.6 491.306 1277.6 491.307 1277.61C491.308 1277.62 491.312 1277.64 491.327 1277.67L496.051 1287.64C496.741 1289.09 496.581 1290.81 495.633 1292.11L489.145 1301.03C489.124 1301.06 489.117 1301.08 489.114 1301.08C489.112 1301.09 489.11 1301.1 489.11 1301.11C489.11 1301.12 489.115 1301.16 489.138 1301.19C489.16 1301.23 489.187 1301.25 489.202 1301.26C489.209 1301.26 489.215 1301.27 489.224 1301.27C489.232 1301.27 489.252 1301.27 489.288 1301.27L500.224 1299.85C501.821 1299.65 503.404 1300.33 504.35 1301.64L510.826 1310.56C510.847 1310.59 510.863 1310.6 510.869 1310.61C510.871 1310.61 510.873 1310.61 510.875 1310.61C510.88 1310.61 510.885 1310.62 510.89 1310.62C510.906 1310.62 510.939 1310.63 510.982 1310.62C511.026 1310.61 511.053 1310.59 511.065 1310.58C511.071 1310.57 511.075 1310.57 511.079 1310.56C511.083 1310.55 511.091 1310.53 511.098 1310.5L513.133 1299.66C513.431 1298.08 514.569 1296.78 516.102 1296.29L526.591 1292.89C526.626 1292.88 526.643 1292.86 526.649 1292.86C526.656 1292.85 526.661 1292.85 526.666 1292.84C526.676 1292.83 526.692 1292.8 526.696 1292.76C526.7 1292.71 526.69 1292.68 526.683 1292.66C526.679 1292.66 526.675 1292.65 526.669 1292.65C526.664 1292.64 526.649 1292.63 526.617 1292.61L516.939 1287.32C515.525 1286.55 514.646 1285.07 514.647 1283.46L514.654 1272.43C514.654 1272.4 514.649 1272.38 514.647 1272.37C514.644 1272.36 514.641 1272.35 514.637 1272.35C514.627 1272.33 514.604 1272.31 514.563 1272.29C514.522 1272.27 514.488 1272.27 514.472 1272.28C514.464 1272.28 514.457 1272.28 514.45 1272.28C514.442 1272.29 514.425 1272.3 514.398 1272.32L506.382 1279.89C505.21 1281 503.528 1281.38 501.996 1280.88L491.511 1277.46Z" fill="#E3BE63" stroke="black" stroke-width="4.2498"/>
<path d="M1677.97 1501.06C1677.06 1500.5 1675.92 1501.29 1676.13 1502.34L1679.21 1517.49C1679.6 1519.45 1678.9 1521.47 1677.37 1522.76L1665.54 1532.71C1664.72 1533.4 1665.12 1534.73 1666.18 1534.85L1681.54 1536.61C1683.53 1536.84 1685.23 1538.14 1685.99 1539.99L1691.79 1554.32C1692.2 1555.31 1693.59 1555.34 1694.03 1554.36L1700.45 1540.3C1701.28 1538.48 1703.04 1537.26 1705.04 1537.12L1720.45 1536.02C1721.52 1535.95 1721.98 1534.63 1721.19 1533.91L1709.8 1523.46C1708.33 1522.11 1707.71 1520.06 1708.19 1518.11L1711.91 1503.11C1712.17 1502.07 1711.06 1501.23 1710.13 1501.76L1696.67 1509.36C1694.93 1510.35 1692.79 1510.3 1691.09 1509.24L1677.97 1501.06Z" fill="#E3BE63" stroke="black" stroke-width="4.2498"/>
<path d="M1684.98 1512.02L1686.61 1519.61" stroke="white" stroke-width="1.89723" stroke-linecap="round"/>
<path d="M1678.9 1529.56L1685.04 1524.15" stroke="white" stroke-width="1.89723" stroke-linecap="round"/>
<path d="M952.631 1416.17C951.754 1415.55 950.572 1416.29 950.73 1417.35L955.631 1450.01C955.928 1451.99 955.12 1453.97 953.525 1455.18L927.195 1475.11C926.343 1475.76 926.675 1477.11 927.73 1477.29L960.306 1482.72C962.28 1483.05 963.916 1484.43 964.572 1486.32L975.396 1517.52C975.746 1518.53 977.134 1518.63 977.627 1517.68L992.86 1488.38C993.783 1486.6 995.602 1485.47 997.603 1485.43L1030.62 1484.78C1031.69 1484.76 1032.22 1483.47 1031.47 1482.71L1008.3 1459.17C1006.9 1457.74 1006.39 1455.66 1006.97 1453.75L1016.55 1422.14C1016.86 1421.12 1015.8 1420.22 1014.84 1420.7L985.296 1435.45C983.506 1436.35 981.37 1436.19 979.728 1435.05L952.631 1416.17Z" fill="#E3BE63" stroke="black" stroke-width="4.2498"/>
<path d="M961.418 1432.7L964.145 1452.08" stroke="white" stroke-width="4.2498" stroke-linecap="round"/>
<path d="M949.842 1471.94L961.392 1461.01" stroke="white" stroke-width="4.2498" stroke-linecap="round"/>
<path d="M1515.61 1348.87C1514.55 1348.69 1513.79 1349.85 1514.39 1350.74L1526.42 1368.86C1527.53 1370.52 1527.64 1372.66 1526.7 1374.43L1516.56 1393.67C1516.06 1394.62 1516.94 1395.7 1517.97 1395.41L1538.91 1389.56C1540.84 1389.02 1542.91 1389.58 1544.3 1391.02L1559.46 1406.61C1560.21 1407.38 1561.51 1406.88 1561.55 1405.81L1562.46 1384.08C1562.55 1382.08 1563.72 1380.29 1565.51 1379.4L1585.03 1369.8C1585.99 1369.33 1585.92 1367.94 1584.91 1367.57L1564.53 1359.99C1562.65 1359.29 1561.31 1357.62 1561.02 1355.64L1557.92 1334.12C1557.77 1333.06 1556.43 1332.7 1555.76 1333.54L1542.25 1350.58C1541.01 1352.15 1539.01 1352.91 1537.04 1352.57L1515.61 1348.87Z" fill="#E3BE63" stroke="black" stroke-width="4.2498"/>
<path d="M1552.64 1350.3L1545.72 1359" stroke="white" stroke-width="3.79447" stroke-linecap="round"/>
<path d="M1527.45 1357.64L1537.49 1359.58" stroke="white" stroke-width="3.79447" stroke-linecap="round"/>
<path d="M714.25 1290.3C713.209 1290.54 712.962 1291.91 713.853 1292.5L737.529 1308.19C739.197 1309.3 740.128 1311.23 739.955 1313.22L737.509 1341.52C737.417 1342.59 738.643 1343.24 739.48 1342.58L761.722 1324.91C763.289 1323.67 765.411 1323.38 767.254 1324.16L793.412 1335.23C794.396 1335.65 795.402 1334.68 795.028 1333.68L785.098 1307.07C784.398 1305.19 784.779 1303.09 786.09 1301.57L804.703 1280.12C805.403 1279.31 804.798 1278.06 803.731 1278.1L775.352 1279.32C773.353 1279.41 771.466 1278.4 770.433 1276.68L772.254 1275.59L770.433 1276.68L755.778 1252.35C755.227 1251.43 753.848 1251.62 753.562 1252.65L745.953 1280.02C745.417 1281.95 743.87 1283.43 741.92 1283.88L714.25 1290.3Z" fill="#E3BE63" stroke="black" stroke-width="4.2498"/>
<path d="M735.668 1293.39L746.977 1300.7" stroke="white" stroke-width="4.2498" stroke-linecap="round"/>
<path d="M749.722 1322.34L750.611 1308.19" stroke="white" stroke-width="4.2498" stroke-linecap="round"/>
<path d="M1529.92 885.441C1529.26 884.434 1527.72 884.704 1527.44 885.874L1519.59 918.829C1519.12 920.831 1517.58 922.412 1515.6 922.952L1482.91 931.838C1481.75 932.154 1481.53 933.705 1482.55 934.332L1511.47 951.977C1513.23 953.048 1514.26 954.994 1514.16 957.049L1512.51 990.884C1512.45 992.087 1513.86 992.776 1514.77 991.992L1540.49 969.943C1542.05 968.604 1544.22 968.225 1546.14 968.955L1577.81 980.98C1578.94 981.408 1580.03 980.282 1579.56 979.171L1566.54 947.899C1565.75 945.999 1566.06 943.82 1567.35 942.216L1588.57 915.813C1589.33 914.875 1588.59 913.49 1587.39 913.586L1553.63 916.309C1551.58 916.474 1549.6 915.506 1548.47 913.784L1529.92 885.441Z" fill="#E3BE63" stroke="black" stroke-width="4.2498"/>
<path d="M1532.98 903.451L1528.71 922.363" stroke="white" stroke-width="4.2498" stroke-linecap="round"/>
<path d="M1500.81 936.811L1520.38 930.994" stroke="white" stroke-width="4.2498" stroke-linecap="round"/>
<path d="M1388.7 1434.58C1387.19 1429.53 1380.11 1428.82 1377.33 1433.44L1333.05 1506.96C1331.08 1510.22 1327.46 1512.23 1323.59 1512.19L1236.54 1511.33C1231.07 1511.28 1228.03 1517.58 1231.65 1521.47L1289.31 1583.24C1291.86 1585.98 1292.64 1589.89 1291.32 1593.43L1261.59 1673.25C1259.72 1678.27 1264.92 1682.87 1269.94 1680.65L1349.85 1645.31C1353.4 1643.74 1357.5 1644.15 1360.55 1646.38L1429.23 1696.57C1433.54 1699.72 1439.8 1696.26 1439.28 1691L1431.01 1607.39C1430.64 1603.68 1432.41 1600.02 1435.61 1597.86L1507.78 1549.06C1512.32 1545.99 1510.99 1539.25 1505.65 1538.22L1420.63 1521.89C1416.86 1521.16 1413.84 1518.49 1412.77 1514.93L1388.7 1434.58Z" fill="#E3BE63" stroke="black" stroke-width="4.2498"/>
<path d="M1373.56 1463.62L1343.9 1514.19" stroke="white" stroke-width="4.2498" stroke-linecap="round"/>
<path d="M1248.92 1532.92L1311.62 1532.11" stroke="white" stroke-width="4.2498" stroke-linecap="round"/>
<path d="M1258.61 1474.22C1257.27 1469.73 1250.98 1469.1 1248.5 1473.21L1215.47 1528.05C1213.64 1531.1 1210.25 1532.97 1206.64 1532.94L1141.7 1532.3C1136.83 1532.25 1134.13 1537.85 1137.35 1541.31L1180.36 1587.38C1182.75 1589.95 1183.47 1593.6 1182.24 1596.91L1160.06 1656.45C1158.4 1660.91 1163.02 1665.01 1167.49 1663.03L1227.1 1636.67C1230.41 1635.2 1234.25 1635.59 1237.09 1637.67L1288.32 1675.11C1292.16 1677.91 1297.73 1674.84 1297.26 1670.16L1291.1 1607.79C1290.75 1604.32 1292.4 1600.9 1295.4 1598.88L1349.23 1562.48C1353.27 1559.75 1352.08 1553.76 1347.33 1552.84L1283.91 1540.66C1280.39 1539.98 1277.57 1537.49 1276.57 1534.15L1258.61 1474.22Z" fill="#E3BE63" stroke="black" stroke-width="4.2498"/>
<path d="M1247.94 1495.39L1226.88 1531.29" stroke="white" stroke-width="4.2498" stroke-linecap="round"/>
<path d="M1159.48 1544.58L1203.98 1544.01" stroke="white" stroke-width="4.2498" stroke-linecap="round"/>
<path d="M454.859 1563.61C672.991 1594.93 782.057 1610.59 891.638 1616.57C979.23 1621.35 1067.01 1621.51 1154.62 1617.03C1264.22 1611.42 1373.34 1596.14 1591.58 1565.58L1598.89 1564.56L1564.74 1851.04H490.907L454.859 1563.61Z" fill="#F2F0EB"/>
<path d="M444.422 1557.92C879.837 1652.78 1212.8 1631.91 1608.37 1562.66" stroke="black" stroke-width="4.2498"/>
</svg>
