<svg width="1920" height="1921" viewBox="0 0 1920 1921" fill="none" xmlns="http://www.w3.org/2000/svg">
<g clip-path="url(#clip0_217_277)">
<rect width="1920" height="1920" transform="translate(0 0.873047)" fill="#F2F0EB"/>
<path fill-rule="evenodd" clip-rule="evenodd" d="M1588.76 1045.4C1581.63 1025.64 1583.71 1003.14 1595.63 985.848C1638.37 923.813 1655.92 844.72 1637.66 765.525C1609 641.207 1501.13 555.743 1379.63 550.148C1348.56 548.717 1320.78 524.031 1314.27 493.613C1314.01 492.403 1313.74 491.193 1313.46 489.983C1284.83 365.811 1160.96 288.357 1036.79 316.985C980.337 330 933.54 362.702 901.978 406.167C878.539 438.447 822.357 452.996 786.537 435.438C738.201 411.745 681.718 403.888 625.175 416.924C494.446 447.064 412.902 577.474 443.042 708.203C444.271 713.538 445.668 718.791 447.225 723.957C452.715 742.172 449.553 762.096 439.367 778.164C412.517 820.517 401.967 873.178 414.124 925.905C423.807 967.908 446.428 1003.57 476.808 1029.64C509.272 1057.5 531.504 1131.22 528.727 1173.92C527.873 1187.05 528.895 1200.54 532.004 1214.03C549.168 1288.47 623.433 1334.91 697.879 1317.75C714.859 1313.83 733.423 1317.39 745.748 1329.71C843.571 1427.48 988.047 1474.2 1132.75 1440.84C1214.78 1421.92 1285.48 1379.91 1339.55 1323.25C1352.41 1309.78 1371.23 1303.83 1389.78 1305.38C1409.36 1307.01 1429.51 1305.69 1449.68 1301.04C1554.28 1276.92 1619.53 1172.57 1595.41 1067.97C1593.62 1060.23 1591.4 1052.69 1588.76 1045.4Z" fill="white"/>
<path d="M863.944 383.022C863.2 375.566 852.332 375.565 851.588 383.022L773.49 1165.39C773.125 1169.05 775.995 1172.22 779.668 1172.22H935.864C939.537 1172.22 942.407 1169.05 942.042 1165.39L863.944 383.022Z" fill="#508664" stroke="black" stroke-width="3.99651"/>
<path d="M740.576 916.887C739.832 909.431 728.964 909.431 728.22 916.887L701.042 1189.15C700.677 1192.8 703.547 1195.98 707.22 1195.98H761.576C765.249 1195.98 768.119 1192.8 767.754 1189.15L740.576 916.887Z" fill="#508664" stroke="black" stroke-width="3.99651"/>
<path d="M1064.72 662.355C1064.34 654.88 1053.51 654.34 1052.38 661.74L959.357 1275.62C958.788 1279.37 961.696 1282.76 965.496 1282.76H1080.95C1084.43 1282.76 1087.23 1279.89 1087.15 1276.4L1079.59 954.279L1079.58 954.251L1064.72 662.355Z" fill="#508664" stroke="black" stroke-width="3.99651"/>
<path d="M630.061 662.355C630.442 654.88 641.28 654.34 642.401 661.74L735.428 1275.62C735.998 1279.37 733.089 1282.76 729.289 1282.76H613.84C610.354 1282.76 607.551 1279.89 607.633 1276.4L615.2 954.279L615.201 954.251L630.061 662.355Z" fill="#508664" stroke="black" stroke-width="3.99651"/>
<path d="M742.579 690.182C740.296 683.101 729.758 685.294 730.491 692.698L752.048 910.653C752.098 911.157 752.111 911.664 752.085 912.171L737.452 1202.84C737.274 1206.38 740.102 1209.36 743.653 1209.36H848.338C852.108 1209.36 855.008 1206.02 854.488 1202.29L814.131 912.441C814.082 912.085 814.001 911.734 813.891 911.393L742.579 690.182Z" fill="#508664" stroke="black" stroke-width="3.99651"/>
<path d="M1025.39 281.674C1027.67 274.593 1038.21 276.786 1037.47 284.19L995.884 704.672C995.834 705.176 995.822 705.683 995.848 706.189L1020.85 1202.83C1021.03 1206.38 1018.2 1209.36 1014.65 1209.36H825.658C821.888 1209.36 818.988 1206.02 819.508 1202.29L888.544 706.46C888.594 706.104 888.674 705.753 888.784 705.411L1025.39 281.674Z" fill="#508664" stroke="black" stroke-width="3.99651"/>
<mask id="path-8-inside-1_217_277" fill="white">
<path d="M529.42 1135.24C529.42 1227.98 565.229 1316.93 628.969 1382.51C692.709 1448.09 779.16 1484.93 869.302 1484.93C959.444 1484.93 1045.89 1448.09 1109.63 1382.51C1173.37 1316.93 1209.18 1227.98 1209.18 1135.24L869.302 1135.24H529.42Z"/>
</mask>
<path d="M529.42 1135.24C529.42 1227.98 565.229 1316.93 628.969 1382.51C692.709 1448.09 779.16 1484.93 869.302 1484.93C959.444 1484.93 1045.89 1448.09 1109.63 1382.51C1173.37 1316.93 1209.18 1227.98 1209.18 1135.24L869.302 1135.24H529.42Z" fill="white"/>
<path d="M529.42 1135.24H525.424V1131.24H529.42V1135.24ZM628.969 1382.51L631.835 1379.72L628.969 1382.51ZM869.302 1484.93V1488.93V1484.93ZM1209.18 1135.24L1209.18 1131.24L1213.18 1131.24L1213.18 1135.24L1209.18 1135.24ZM869.302 1135.24V1131.24V1135.24ZM533.417 1135.24C533.417 1226.96 568.831 1314.9 631.835 1379.72L626.103 1385.29C561.627 1318.96 525.424 1229 525.424 1135.24H533.417ZM631.835 1379.72C694.835 1444.54 780.257 1480.93 869.302 1480.93V1488.93C778.062 1488.93 690.584 1451.64 626.103 1385.29L631.835 1379.72ZM869.302 1480.93C958.347 1480.93 1043.77 1444.54 1106.77 1379.72L1112.5 1385.29C1048.02 1451.64 960.541 1488.93 869.302 1488.93V1480.93ZM1106.77 1379.72C1169.77 1314.9 1205.19 1226.96 1205.19 1135.24L1213.18 1135.24C1213.18 1229 1176.98 1318.96 1112.5 1385.29L1106.77 1379.72ZM1209.18 1139.23L869.302 1139.23V1131.24L1209.18 1131.24L1209.18 1139.23ZM869.302 1139.23H529.42V1131.24H869.302V1139.23Z" fill="black" mask="url(#path-8-inside-1_217_277)"/>
<mask id="path-10-inside-2_217_277" fill="white">
<path fill-rule="evenodd" clip-rule="evenodd" d="M1348.32 701.77C1355.66 703.21 1362.79 698.421 1364.23 691.075L1365 687.119C1366.44 679.773 1361.65 672.65 1354.31 671.21L1297.68 660.111C1290.34 658.671 1283.21 663.459 1281.77 670.806L1281 674.762C1279.56 682.108 1284.35 689.231 1291.69 690.671L1348.32 701.77ZM1327.58 683.835C1328.46 680.551 1326.51 677.176 1323.23 676.296L1302.28 670.681C1298.99 669.802 1295.62 671.75 1294.74 675.034C1293.86 678.318 1295.81 681.693 1299.09 682.573L1320.04 688.188C1323.33 689.067 1326.7 687.119 1327.58 683.835Z"/>
</mask>
<path fill-rule="evenodd" clip-rule="evenodd" d="M1348.32 701.77C1355.66 703.21 1362.79 698.421 1364.23 691.075L1365 687.119C1366.44 679.773 1361.65 672.65 1354.31 671.21L1297.68 660.111C1290.34 658.671 1283.21 663.459 1281.77 670.806L1281 674.762C1279.56 682.108 1284.35 689.231 1291.69 690.671L1348.32 701.77ZM1327.58 683.835C1328.46 680.551 1326.51 677.176 1323.23 676.296L1302.28 670.681C1298.99 669.802 1295.62 671.75 1294.74 675.034C1293.86 678.318 1295.81 681.693 1299.09 682.573L1320.04 688.188C1323.33 689.067 1326.7 687.119 1327.58 683.835Z" fill="white"/>
<path d="M1364.23 691.075L1368.15 691.844V691.844L1364.23 691.075ZM1348.32 701.77L1349.09 697.848L1348.32 701.77ZM1365 687.119L1361.08 686.35L1365 687.119ZM1354.31 671.21L1353.54 675.132L1354.31 671.21ZM1297.68 660.111L1296.91 664.033H1296.91L1297.68 660.111ZM1281.77 670.806L1277.85 670.037V670.037L1281.77 670.806ZM1281 674.762L1284.92 675.531L1284.92 675.531L1281 674.762ZM1291.69 690.671L1290.92 694.593H1290.92L1291.69 690.671ZM1323.23 676.296L1324.27 672.436V672.436L1323.23 676.296ZM1327.58 683.835L1331.44 684.87V684.87L1327.58 683.835ZM1302.28 670.681L1303.31 666.821L1302.28 670.681ZM1294.74 675.034L1298.6 676.068L1298.6 676.068L1294.74 675.034ZM1299.09 682.573L1300.12 678.712L1299.09 682.573ZM1320.04 688.188L1319.01 692.048L1320.04 688.188ZM1368.15 691.844C1366.28 701.356 1357.06 707.556 1347.55 705.692L1349.09 697.848C1354.27 698.863 1359.29 695.487 1360.3 690.306L1368.15 691.844ZM1368.92 687.888L1368.15 691.844L1360.3 690.306L1361.08 686.35L1368.92 687.888ZM1355.08 667.288C1364.59 669.153 1370.79 678.375 1368.92 687.888L1361.08 686.35C1362.1 681.17 1358.72 676.147 1353.54 675.132L1355.08 667.288ZM1298.45 656.189L1355.08 667.288L1353.54 675.132L1296.91 664.033L1298.45 656.189ZM1277.85 670.037C1279.72 660.525 1288.94 654.325 1298.45 656.189L1296.91 664.033C1291.73 663.018 1286.71 666.394 1285.69 671.574L1277.85 670.037ZM1277.08 673.993L1277.85 670.037L1285.69 671.574L1284.92 675.531L1277.08 673.993ZM1290.92 694.593C1281.41 692.728 1275.21 683.505 1277.08 673.993L1284.92 675.531C1283.9 680.711 1287.28 685.733 1292.46 686.749L1290.92 694.593ZM1347.55 705.692L1290.92 694.593L1292.46 686.749L1349.09 697.848L1347.55 705.692ZM1324.27 672.436C1329.68 673.887 1332.89 679.454 1331.44 684.87L1323.72 682.801C1324.03 681.649 1323.35 680.465 1322.2 680.157L1324.27 672.436ZM1303.31 666.821L1324.27 672.436L1322.2 680.157L1301.24 674.542L1303.31 666.821ZM1290.88 674C1292.33 668.584 1297.89 665.37 1303.31 666.821L1301.24 674.542C1300.09 674.233 1298.91 674.917 1298.6 676.068L1290.88 674ZM1298.06 686.433C1292.64 684.982 1289.43 679.415 1290.88 674L1298.6 676.068C1298.29 677.22 1298.97 678.404 1300.12 678.712L1298.06 686.433ZM1319.01 692.048L1298.06 686.433L1300.12 678.712L1321.08 684.327L1319.01 692.048ZM1331.44 684.87C1329.99 690.285 1324.43 693.499 1319.01 692.048L1321.08 684.327C1322.23 684.636 1323.41 683.952 1323.72 682.801L1331.44 684.87Z" fill="black" mask="url(#path-10-inside-2_217_277)"/>
<rect x="-1.99825" y="1.99825" width="246.892" height="671.624" rx="6.43671" transform="matrix(-1 0 0 1 1479.29 683.391)" fill="white" stroke="black" stroke-width="3.99651"/>
<path d="M1344.38 1175.75C1344.38 1171.42 1340.87 1167.9 1336.53 1167.9H1060.15C1055.81 1167.9 1052.3 1171.42 1052.3 1175.75V1386.42C1052.3 1408.61 1070.29 1426.6 1092.48 1426.6H1304.2C1326.39 1426.6 1344.38 1408.61 1344.38 1386.42V1175.75Z" fill="white" stroke="black" stroke-width="3.99651"/>
<mask id="path-14-inside-3_217_277" fill="white">
<path fill-rule="evenodd" clip-rule="evenodd" d="M1071.81 1185.61C1071.81 1185.6 1071.8 1185.59 1071.79 1185.59C1070.84 1185.59 1069.9 1185.6 1068.96 1185.63H1066.55C1066.52 1185.63 1066.49 1185.65 1066.49 1185.68C1066.49 1185.71 1066.47 1185.74 1066.44 1185.74C1055.56 1186.34 1044.84 1188.78 1034.75 1192.96C1023 1197.83 1012.32 1204.96 1003.33 1213.95C994.335 1222.95 987.201 1233.62 982.334 1245.37C977.467 1257.12 974.962 1269.72 974.962 1282.44C974.962 1295.15 977.467 1307.75 982.334 1319.5C987.201 1331.25 994.335 1341.92 1003.33 1350.92C1012.32 1359.91 1023 1367.04 1034.75 1371.91C1045.14 1376.22 1056.2 1378.67 1067.42 1379.18C1067.44 1379.18 1067.46 1379.2 1067.46 1379.23C1067.46 1379.26 1067.48 1379.28 1067.51 1379.28H1070.75C1071.11 1379.28 1071.46 1379.28 1071.81 1379.28C1071.81 1379.28 1071.81 1379.28 1071.81 1379.28C1071.81 1379.28 1071.81 1379.28 1071.81 1379.28H1075.31C1077.24 1379.28 1078.81 1377.71 1078.81 1375.78V1351.59C1078.81 1346.81 1074.94 1342.94 1070.16 1342.94C1062.77 1342.73 1055.48 1341.18 1048.65 1338.35C1041.3 1335.31 1034.63 1330.85 1029.01 1325.23C1023.39 1319.61 1018.93 1312.94 1015.89 1305.6C1012.85 1298.25 1011.29 1290.38 1011.29 1282.44C1011.29 1274.49 1012.85 1266.62 1015.89 1259.27C1018.93 1251.93 1023.39 1245.26 1029.01 1239.64C1034.63 1234.02 1041.3 1229.56 1048.65 1226.52C1054.47 1224.11 1060.61 1222.63 1066.87 1222.11C1074 1222.11 1079.78 1216.34 1079.78 1209.21V1189.61C1079.78 1187.41 1077.99 1185.63 1075.79 1185.63H1071.83C1071.82 1185.63 1071.81 1185.62 1071.81 1185.61Z"/>
</mask>
<path fill-rule="evenodd" clip-rule="evenodd" d="M1071.81 1185.61C1071.81 1185.6 1071.8 1185.59 1071.79 1185.59C1070.84 1185.59 1069.9 1185.6 1068.96 1185.63H1066.55C1066.52 1185.63 1066.49 1185.65 1066.49 1185.68C1066.49 1185.71 1066.47 1185.74 1066.44 1185.74C1055.56 1186.34 1044.84 1188.78 1034.75 1192.96C1023 1197.83 1012.32 1204.96 1003.33 1213.95C994.335 1222.95 987.201 1233.62 982.334 1245.37C977.467 1257.12 974.962 1269.72 974.962 1282.44C974.962 1295.15 977.467 1307.75 982.334 1319.5C987.201 1331.25 994.335 1341.92 1003.33 1350.92C1012.32 1359.91 1023 1367.04 1034.75 1371.91C1045.14 1376.22 1056.2 1378.67 1067.42 1379.18C1067.44 1379.18 1067.46 1379.2 1067.46 1379.23C1067.46 1379.26 1067.48 1379.28 1067.51 1379.28H1070.75C1071.11 1379.28 1071.46 1379.28 1071.81 1379.28C1071.81 1379.28 1071.81 1379.28 1071.81 1379.28C1071.81 1379.28 1071.81 1379.28 1071.81 1379.28H1075.31C1077.24 1379.28 1078.81 1377.71 1078.81 1375.78V1351.59C1078.81 1346.81 1074.94 1342.94 1070.16 1342.94C1062.77 1342.73 1055.48 1341.18 1048.65 1338.35C1041.3 1335.31 1034.63 1330.85 1029.01 1325.23C1023.39 1319.61 1018.93 1312.94 1015.89 1305.6C1012.85 1298.25 1011.29 1290.38 1011.29 1282.44C1011.29 1274.49 1012.85 1266.62 1015.89 1259.27C1018.93 1251.93 1023.39 1245.26 1029.01 1239.64C1034.63 1234.02 1041.3 1229.56 1048.65 1226.52C1054.47 1224.11 1060.61 1222.63 1066.87 1222.11C1074 1222.11 1079.78 1216.34 1079.78 1209.21V1189.61C1079.78 1187.41 1077.99 1185.63 1075.79 1185.63H1071.83C1071.82 1185.63 1071.81 1185.62 1071.81 1185.61Z" fill="white"/>
<path d="M1068.96 1185.63L1069.08 1189.62L1069.02 1189.63H1068.96V1185.63ZM1034.75 1192.96L1036.28 1196.65L1034.75 1192.96ZM1003.33 1213.95L1000.5 1211.13V1211.13L1003.33 1213.95ZM982.334 1245.37L978.642 1243.84L982.334 1245.37ZM982.334 1319.5L978.642 1321.03L982.334 1319.5ZM1003.33 1350.92L1000.5 1353.74L1003.33 1350.92ZM1034.75 1371.91L1036.28 1368.22L1034.75 1371.91ZM1070.75 1379.28V1375.28H1070.78L1070.8 1375.28L1070.75 1379.28ZM1048.65 1338.35L1047.12 1342.04L1048.65 1338.35ZM1029.01 1325.23L1026.19 1328.06H1026.19L1029.01 1325.23ZM1015.89 1305.6L1019.59 1304.07H1019.59L1015.89 1305.6ZM1015.89 1259.27L1019.59 1260.8L1019.59 1260.8L1015.89 1259.27ZM1029.01 1239.64L1026.19 1236.81L1029.01 1239.64ZM1048.65 1226.52L1047.12 1222.83L1048.65 1226.52ZM1071.81 1379.28L1071.81 1375.29L1071.81 1379.28ZM1066.44 1185.74L1066.66 1189.73L1066.44 1185.74ZM1067.42 1379.18L1067.6 1375.19L1067.42 1379.18ZM1068.84 1181.64C1069.82 1181.61 1070.81 1181.59 1071.79 1181.59L1071.79 1189.58C1070.88 1189.58 1069.98 1189.6 1069.08 1189.62L1068.84 1181.64ZM1066.55 1181.63H1068.96V1189.63H1066.55V1181.63ZM1033.22 1189.27C1043.73 1184.91 1054.89 1182.38 1066.22 1181.75L1066.66 1189.73C1056.23 1190.31 1045.95 1192.64 1036.28 1196.65L1033.22 1189.27ZM1000.5 1211.13C1009.87 1201.76 1020.98 1194.34 1033.22 1189.27L1036.28 1196.65C1025.01 1201.32 1014.78 1208.16 1006.15 1216.78L1000.5 1211.13ZM978.642 1243.84C983.709 1231.61 991.138 1220.49 1000.5 1211.13L1006.15 1216.78C997.532 1225.4 990.692 1235.64 986.026 1246.9L978.642 1243.84ZM970.965 1282.44C970.965 1269.19 973.574 1256.08 978.642 1243.84L986.026 1246.9C981.36 1258.17 978.958 1270.24 978.958 1282.44H970.965ZM978.642 1321.03C973.574 1308.79 970.965 1295.68 970.965 1282.44H978.958C978.958 1294.63 981.36 1306.7 986.026 1317.97L978.642 1321.03ZM1000.5 1353.74C991.138 1344.38 983.709 1333.26 978.642 1321.03L986.026 1317.97C990.692 1329.23 997.532 1339.47 1006.15 1348.09L1000.5 1353.74ZM1033.22 1375.6C1020.98 1370.53 1009.87 1363.11 1000.5 1353.74L1006.15 1348.09C1014.78 1356.71 1025.01 1363.55 1036.28 1368.22L1033.22 1375.6ZM1067.24 1383.18C1055.55 1382.64 1044.04 1380.09 1033.22 1375.6L1036.28 1368.22C1046.24 1372.35 1056.84 1374.7 1067.6 1375.19L1067.24 1383.18ZM1067.51 1375.28H1070.75V1383.27H1067.51V1375.28ZM1071.81 1383.28C1071.44 1383.28 1071.08 1383.28 1070.71 1383.27L1070.8 1375.28C1071.13 1375.28 1071.47 1375.29 1071.81 1375.29L1071.81 1383.28ZM1071.81 1375.28H1075.31V1383.27H1071.81V1375.28ZM1074.81 1375.78V1351.59H1082.81V1375.78H1074.81ZM1050.18 1334.66C1056.56 1337.3 1063.37 1338.75 1070.27 1338.94L1070.05 1346.93C1062.18 1346.72 1054.4 1345.06 1047.12 1342.04L1050.18 1334.66ZM1031.84 1322.41C1037.09 1327.65 1043.32 1331.82 1050.18 1334.66L1047.12 1342.04C1039.29 1338.8 1032.18 1334.05 1026.19 1328.06L1031.84 1322.41ZM1019.59 1304.07C1022.43 1310.93 1026.59 1317.16 1031.84 1322.41L1026.19 1328.06C1020.2 1322.07 1015.44 1314.95 1012.2 1307.13L1019.59 1304.07ZM1015.28 1282.44C1015.28 1289.86 1016.74 1297.21 1019.59 1304.07L1012.2 1307.13C1008.96 1299.3 1007.29 1290.91 1007.29 1282.44H1015.28ZM1019.59 1260.8C1016.74 1267.66 1015.28 1275.01 1015.28 1282.44H1007.29C1007.29 1273.96 1008.96 1265.57 1012.2 1257.74L1019.59 1260.8ZM1031.84 1242.46C1026.59 1247.71 1022.43 1253.95 1019.59 1260.8L1012.2 1257.74C1015.44 1249.92 1020.2 1242.8 1026.19 1236.81L1031.84 1242.46ZM1050.18 1230.21C1043.32 1233.05 1037.09 1237.22 1031.84 1242.46L1026.19 1236.81C1032.18 1230.82 1039.29 1226.07 1047.12 1222.83L1050.18 1230.21ZM1067.2 1226.1C1061.35 1226.58 1055.61 1227.96 1050.18 1230.21L1047.12 1222.83C1053.32 1220.26 1059.88 1218.68 1066.54 1218.13L1067.2 1226.1ZM1083.77 1189.61V1209.21H1075.78V1189.61H1083.77ZM1071.83 1181.63H1075.79V1189.63H1071.83V1181.63ZM1071.83 1189.63C1069.61 1189.63 1067.81 1187.83 1067.81 1185.61H1075.81C1075.81 1183.41 1074.03 1181.63 1071.83 1181.63V1189.63ZM1075.78 1189.61C1075.78 1189.61 1075.78 1189.61 1075.78 1189.61C1075.78 1189.61 1075.78 1189.62 1075.78 1189.62C1075.79 1189.62 1075.79 1189.62 1075.78 1189.62C1075.78 1189.62 1075.78 1189.62 1075.79 1189.62C1075.79 1189.62 1075.79 1189.63 1075.79 1189.63C1075.8 1189.63 1075.8 1189.63 1075.79 1189.63V1181.63C1080.2 1181.63 1083.77 1185.21 1083.77 1189.61H1075.78ZM1074.81 1351.59C1074.81 1349.02 1072.73 1346.93 1070.16 1346.93V1338.94C1077.15 1338.94 1082.81 1344.6 1082.81 1351.59H1074.81ZM1066.87 1218.12C1071.79 1218.12 1075.78 1214.13 1075.78 1209.21H1083.77C1083.77 1218.54 1076.21 1226.11 1066.87 1226.11V1218.12ZM1075.31 1375.28C1075.04 1375.28 1074.81 1375.5 1074.81 1375.78H1082.81C1082.81 1379.92 1079.45 1383.27 1075.31 1383.27V1375.28ZM1067.81 1379.28C1067.81 1377.07 1069.6 1375.28 1071.81 1375.28V1383.27C1074.02 1383.27 1075.81 1381.49 1075.81 1379.28H1067.81ZM1071.81 1375.29C1069.6 1375.29 1067.81 1377.07 1067.81 1379.28H1075.81C1075.81 1381.49 1074.01 1383.28 1071.81 1383.28L1071.81 1375.29ZM1070.49 1185.68C1070.49 1187.84 1068.81 1189.61 1066.66 1189.73L1066.22 1181.75C1064.13 1181.86 1062.5 1183.59 1062.5 1185.68H1070.49ZM1071.79 1181.59C1074.01 1181.59 1075.81 1183.39 1075.81 1185.61H1067.81C1067.81 1187.8 1069.59 1189.58 1071.79 1189.58L1071.79 1181.59ZM1071.46 1379.23C1071.46 1377.05 1069.69 1375.28 1067.51 1375.28V1383.27C1065.28 1383.27 1063.47 1381.46 1063.47 1379.23H1071.46ZM1066.55 1189.63C1068.72 1189.63 1070.49 1187.86 1070.49 1185.68H1062.5C1062.5 1183.45 1064.31 1181.63 1066.55 1181.63V1189.63ZM1067.6 1375.19C1069.76 1375.29 1071.46 1377.07 1071.46 1379.23H1063.47C1063.47 1381.34 1065.13 1383.08 1067.24 1383.18L1067.6 1375.19Z" fill="black" mask="url(#path-14-inside-3_217_277)"/>
<mask id="path-16-inside-4_217_277" fill="white">
<rect x="1395.89" y="812.799" width="67.6488" height="22.4697" rx="3.4296"/>
</mask>
<rect x="1395.89" y="812.799" width="67.6488" height="22.4697" rx="3.4296" fill="white" stroke="black" stroke-width="7.99302" mask="url(#path-16-inside-4_217_277)"/>
<path fill-rule="evenodd" clip-rule="evenodd" d="M1387.08 896.275H1537.98H1550.44H1701.34L1648.92 1420.5H1550.44H1537.98H1439.5L1387.08 896.275Z" fill="white"/>
<path d="M1387.08 896.275V894.277H1384.87L1385.09 896.474L1387.08 896.275ZM1701.34 896.275L1703.33 896.474L1703.55 894.277H1701.34V896.275ZM1648.92 1420.5V1422.49H1650.73L1650.91 1420.69L1648.92 1420.5ZM1439.5 1420.5L1437.51 1420.69L1437.69 1422.49H1439.5V1420.5ZM1537.98 894.277H1387.08V898.274H1537.98V894.277ZM1537.98 898.274H1550.44V894.277H1537.98V898.274ZM1550.44 898.274H1701.34V894.277H1550.44V898.274ZM1699.36 896.077L1646.93 1420.3L1650.91 1420.69L1703.33 896.474L1699.36 896.077ZM1648.92 1418.5H1550.44V1422.49H1648.92V1418.5ZM1550.44 1418.5H1537.98V1422.49H1550.44V1418.5ZM1439.5 1422.49H1537.98V1418.5H1439.5V1422.49ZM1385.09 896.474L1437.51 1420.69L1441.49 1420.3L1389.07 896.077L1385.09 896.474Z" fill="black"/>
<path d="M1392.54 824.031L1387.08 866.921H1701.34L1693.55 833.389L1392.54 824.031Z" fill="white" stroke="black" stroke-width="3.99651"/>
<path d="M1381.7 896.272L1387.4 879.193H1702.57L1706.71 896.272H1381.7Z" fill="white" stroke="black" stroke-width="3.99651"/>
<rect x="1383.21" y="867.131" width="322" height="11.3626" rx="5.68132" fill="white" stroke="black" stroke-width="3.99651"/>
<path fill-rule="evenodd" clip-rule="evenodd" d="M1395.6 1048.12H1538.01H1548.88H1691.29L1675.19 1228.45H1548.88H1538.01H1411.7L1395.6 1048.12Z" fill="#E3BE63"/>
<path d="M1395.6 1048.12V1046.12H1393.41L1393.61 1048.3L1395.6 1048.12ZM1691.29 1048.12L1693.28 1048.3L1693.48 1046.12H1691.29V1048.12ZM1675.19 1228.45V1230.45H1677.01L1677.18 1228.63L1675.19 1228.45ZM1411.7 1228.45L1409.71 1228.63L1409.88 1230.45H1411.7V1228.45ZM1538.01 1046.12H1395.6V1050.12H1538.01V1046.12ZM1538.01 1050.12H1548.88V1046.12H1538.01V1050.12ZM1548.88 1050.12H1691.29V1046.12H1548.88V1050.12ZM1689.3 1047.95L1673.2 1228.27L1677.18 1228.63L1693.28 1048.3L1689.3 1047.95ZM1675.19 1226.45H1548.88V1230.45H1675.19V1226.45ZM1548.88 1226.45H1538.01V1230.45H1548.88V1226.45ZM1411.7 1230.45H1538.01V1226.45H1411.7V1230.45ZM1393.61 1048.3L1409.71 1228.63L1413.69 1228.27L1397.59 1047.95L1393.61 1048.3Z" fill="black"/>
<circle cx="1544.21" cy="1138.36" r="66.4764" transform="rotate(95.6645 1544.21 1138.36)" fill="#508664" stroke="black" stroke-width="3.99651"/>
<mask id="mask0_217_277" style="mask-type:alpha" maskUnits="userSpaceOnUse" x="1485" y="1081" width="119" height="118">
<circle cx="1544.21" cy="1139.86" r="58.8212" transform="rotate(95.6645 1544.21 1139.86)" fill="white"/>
</mask>
<g mask="url(#mask0_217_277)">
<path d="M1543.11 1081.62C1543.18 1081.47 1543.39 1081.47 1543.46 1081.62L1546.45 1088.46L1554.15 1088.88C1554.32 1088.88 1554.39 1089.09 1554.27 1089.21L1548.54 1094.71L1552.92 1106.2L1543.02 1099L1532.19 1107.4L1537.93 1094.71L1531.92 1089.23C1531.79 1089.11 1531.87 1088.89 1532.05 1088.89L1539.8 1088.69L1543.11 1081.62Z" fill="white"/>
<path d="M1544.19 1108.94C1535.85 1108.94 1525.07 1112.89 1520.87 1114.66L1519.7 1110.3L1517.75 1106.19L1515.1 1101.99L1516.71 1101.81L1519.7 1102.41L1524.66 1104.35L1524.48 1102.8L1523.9 1100.47L1522.04 1096.39H1524.15L1526.97 1097.39L1532.09 1100.27L1539.12 1104.2L1548.35 1104.11L1552.11 1101.09L1559.03 1097.3L1564.34 1096.1L1562.53 1101.57L1562.14 1104.11L1567.08 1102.22L1569.68 1101.57H1571.43C1571.43 1101.57 1566.52 1108.79 1566.09 1114.3C1562.22 1112.53 1552.52 1108.94 1544.19 1108.94Z" fill="white"/>
<path d="M1538.98 1144.87C1536.95 1144.87 1536 1147.35 1534.88 1149.04L1532.39 1152.79C1531.18 1154.26 1530.45 1156.15 1530.45 1158.21C1530.45 1160.87 1532.16 1163.94 1534.5 1166.09C1535.3 1166.84 1535.94 1167.75 1536.47 1168.71C1536.54 1168.84 1536.62 1168.97 1536.69 1169.09C1538.17 1171.48 1539.11 1174.7 1539.11 1177.5C1539.11 1178.18 1538.68 1179.04 1538.23 1179.94C1537.38 1181.61 1536.49 1183.34 1535.51 1184.93C1533.88 1187.56 1532.9 1190.69 1532.9 1193.4C1532.9 1199.51 1537.85 1204.46 1543.96 1204.46C1550.06 1204.46 1555.01 1199.51 1555.01 1193.4C1555.01 1191.03 1554.27 1188.35 1553 1185.96C1551.98 1184.03 1550.97 1181.98 1549.89 1180.09C1549.33 1179.12 1548.81 1178.2 1548.81 1177.5C1548.81 1174.7 1549.75 1171.47 1551.22 1169.09C1551.26 1169.03 1551.29 1168.97 1551.33 1168.91C1551.81 1168.09 1552.38 1167.31 1553.07 1166.67C1555.47 1164.43 1557.19 1161.04 1557.19 1158.21C1557.19 1156.42 1556.64 1154.77 1555.71 1153.4C1555.7 1153.39 1555.71 1153.39 1555.71 1153.39C1555.72 1153.39 1555.73 1153.38 1555.72 1153.37L1551.06 1146.33C1550.63 1145.47 1549.74 1144.87 1548.71 1144.87C1548.64 1144.87 1548.56 1144.87 1548.49 1144.88C1547.02 1145.01 1545.43 1145.82 1543.96 1145.82C1542.38 1145.82 1540.65 1144.93 1539.08 1144.87C1539.05 1144.87 1539.02 1144.87 1538.98 1144.87Z" fill="white"/>
<path d="M1592.49 1106.98C1591.02 1117.63 1601.55 1130.99 1601.55 1130.99C1601.55 1130.99 1598.26 1132.67 1594.71 1131.56C1588.96 1129.75 1591.28 1127.91 1580.43 1127.56C1579.07 1124.32 1572.88 1119.03 1569.22 1116.63C1569.99 1113.47 1579.12 1114.23 1584.24 1117.99C1584.97 1113.95 1584.9 1112.61 1587.06 1110.2C1588.82 1108.22 1591.48 1105.32 1592.49 1106.98Z" fill="white"/>
<path d="M1494.28 1106.98C1495.75 1117.63 1485.22 1130.99 1485.22 1130.99C1485.22 1130.99 1488.51 1132.67 1492.06 1131.56C1497.81 1129.75 1495.49 1127.91 1506.34 1127.56C1507.7 1124.32 1513.89 1119.03 1517.55 1116.63C1516.78 1113.47 1507.65 1114.23 1502.53 1117.99C1501.8 1113.95 1501.87 1112.61 1499.71 1110.2C1497.95 1108.22 1495.29 1105.32 1494.28 1106.98Z" fill="white"/>
<path fill-rule="evenodd" clip-rule="evenodd" d="M1545.14 1111.4L1545.14 1111.4L1545.15 1111.4C1547.05 1111.33 1550.65 1111.94 1553.33 1114.96C1553.83 1115.63 1554.8 1117.16 1554.65 1117.91C1554.39 1119.22 1552.9 1119.02 1551.29 1118.79C1550.16 1118.64 1548.98 1118.48 1548.11 1118.82C1547.17 1119.19 1546.41 1119.77 1546.27 1120.64C1546.09 1121.77 1545.99 1122.95 1545.94 1123.9C1545.89 1124.92 1545.9 1126.71 1546.9 1126.51C1546.92 1126.5 1546.95 1126.5 1546.98 1126.49C1547.23 1126.41 1547.48 1126.31 1547.73 1126.2C1548.22 1125.99 1548.71 1125.79 1549.24 1125.79C1549.56 1125.79 1549.88 1125.84 1550.18 1125.94L1550.84 1126.15C1551.24 1126.28 1551.67 1126.33 1552.09 1126.29L1552.48 1126.25C1552.85 1126.22 1553.2 1126.07 1553.48 1125.82C1553.77 1125.58 1554.15 1125.39 1554.49 1125.56C1555.07 1125.83 1555.71 1126.66 1555.65 1128.64C1555.59 1130.99 1554.29 1134.41 1553.4 1136.39C1553.17 1136.9 1552.89 1137.38 1552.54 1137.81C1551.05 1139.64 1548.16 1142.34 1545.16 1142.64C1545.15 1142.64 1545.14 1142.65 1545.14 1142.66C1545.14 1142.66 1545.14 1142.67 1545.13 1142.67H1541.82C1541.82 1142.67 1541.82 1142.67 1541.82 1142.66C1541.82 1142.66 1541.82 1142.66 1541.81 1142.66C1538.73 1142.46 1535.75 1139.67 1534.22 1137.8C1533.88 1137.37 1533.6 1136.9 1533.37 1136.4C1532.49 1134.43 1531.18 1130.99 1531.12 1128.64C1531.06 1126.66 1531.7 1125.83 1532.28 1125.56C1532.62 1125.39 1533 1125.58 1533.29 1125.82C1533.57 1126.07 1533.92 1126.22 1534.29 1126.25L1534.68 1126.29C1535.1 1126.33 1535.53 1126.28 1535.93 1126.15L1536.59 1125.94C1536.89 1125.84 1537.21 1125.79 1537.53 1125.79C1538.06 1125.79 1538.55 1125.99 1539.04 1126.2C1539.29 1126.31 1539.54 1126.41 1539.79 1126.49C1539.82 1126.5 1539.84 1126.5 1539.87 1126.51C1540.87 1126.71 1540.88 1124.92 1540.83 1123.9C1540.78 1122.95 1540.68 1121.77 1540.5 1120.64C1540.36 1119.77 1539.6 1119.19 1538.66 1118.82C1537.79 1118.48 1536.6 1118.64 1535.48 1118.79C1533.87 1119.02 1532.38 1119.22 1532.12 1117.91C1531.97 1117.16 1532.94 1115.63 1533.44 1114.96C1536.21 1111.84 1539.97 1111.29 1541.81 1111.41C1541.81 1111.41 1541.82 1111.41 1541.82 1111.41C1541.82 1111.4 1541.82 1111.4 1541.83 1111.4H1545.14ZM1543.19 1130.34L1543.91 1130.12C1544.18 1130.03 1544.48 1130.02 1544.76 1130.08L1544.89 1130.11C1545.13 1130.16 1545.34 1130.28 1545.5 1130.46L1545.72 1130.69C1545.78 1130.76 1545.82 1130.85 1545.82 1130.95C1545.82 1131.08 1545.75 1131.21 1545.64 1131.28L1545.35 1131.45C1545.28 1131.49 1545.21 1131.52 1545.14 1131.55L1543.87 1131.96C1543.59 1132.05 1543.29 1132.1 1542.99 1132.1C1542.64 1132.1 1542.28 1132.03 1541.95 1131.9L1540.96 1131.51L1540.11 1131.23C1539.98 1131.19 1539.9 1131.07 1539.9 1130.94C1539.9 1130.85 1539.94 1130.77 1540 1130.71L1540.39 1130.37C1540.68 1130.12 1541.05 1130 1541.43 1130.03L1541.69 1130.05C1541.87 1130.06 1542.04 1130.12 1542.19 1130.22C1542.36 1130.34 1542.56 1130.4 1542.77 1130.4H1542.82C1542.95 1130.4 1543.07 1130.38 1543.19 1130.34ZM1538.14 1134.27L1548.39 1134.39C1547.86 1135.59 1545.65 1138.32 1543.17 1138.32C1540.69 1138.32 1538.14 1135.04 1538.14 1134.27Z" fill="white"/>
<path d="M1531.76 1122.68V1121.79C1531.76 1121.25 1532.2 1120.81 1532.73 1120.81H1533.19C1533.71 1120.81 1535.06 1120.84 1536.28 1121.03C1537.27 1121.18 1538.1 1121.91 1538.56 1122.46C1538.74 1122.67 1538.81 1122.99 1538.62 1123.18C1538.49 1123.32 1538.29 1123.38 1538.04 1123.21C1537.61 1122.92 1535.76 1122.71 1534.73 1122.63C1534.6 1122.62 1534.46 1122.63 1534.34 1122.68C1533.85 1122.87 1533.11 1123.24 1532.98 1123.6C1532.87 1123.91 1532.42 1123.65 1532.06 1123.35C1531.86 1123.19 1531.76 1122.94 1531.76 1122.68Z" fill="white"/>
<path d="M1554.62 1122.68V1121.79C1554.62 1121.25 1554.18 1120.81 1553.64 1120.81H1553.19C1552.66 1120.81 1551.31 1120.84 1550.09 1121.03C1549.11 1121.18 1548.28 1121.91 1547.82 1122.46C1547.64 1122.67 1547.57 1122.99 1547.76 1123.18C1547.89 1123.32 1548.08 1123.38 1548.34 1123.21C1548.77 1122.92 1550.61 1122.71 1551.65 1122.63C1551.78 1122.62 1551.91 1122.63 1552.04 1122.68C1552.52 1122.87 1553.27 1123.24 1553.4 1123.6C1553.51 1123.91 1553.96 1123.65 1554.32 1123.35C1554.52 1123.19 1554.62 1122.94 1554.62 1122.68Z" fill="white"/>
<path d="M1488.54 1137.03C1485.69 1137.03 1483.59 1135.47 1482.89 1134.69V1140.39C1484.21 1141.31 1486 1140.95 1488.54 1140.95C1490.58 1140.95 1495.54 1138.14 1497.76 1136.73L1499.95 1136.22C1500.97 1136.49 1503.01 1136.39 1503.01 1133.82C1503.01 1131.26 1498.73 1132.38 1496.59 1133.26C1495.1 1134.52 1491.4 1137.03 1488.54 1137.03Z" fill="white"/>
<path d="M1598.22 1137.03C1601.08 1137.03 1603.18 1135.47 1603.88 1134.69V1140.39C1602.56 1141.31 1600.77 1140.95 1598.22 1140.95C1596.19 1140.95 1591.23 1138.14 1589.01 1136.73L1586.82 1136.22C1585.8 1136.49 1583.76 1136.39 1583.76 1133.82C1583.76 1131.26 1588.04 1132.38 1590.18 1133.26C1591.67 1134.52 1595.37 1137.03 1598.22 1137.03Z" fill="white"/>
<path d="M1489.25 1145.69C1487.91 1146.71 1484.68 1146.11 1483.23 1145.69L1484.03 1150.84C1485.15 1151.16 1487.98 1150.31 1489.25 1149.84C1490.75 1148.5 1494.92 1146.78 1496.81 1146.09L1499.29 1145.69L1499.76 1142.08H1496.81C1494.85 1142.86 1490.59 1144.67 1489.25 1145.69Z" fill="white"/>
<path d="M1597.52 1145.69C1598.86 1146.71 1602.09 1146.11 1603.54 1145.69L1602.74 1150.84C1601.61 1151.16 1598.79 1150.31 1597.52 1149.84C1596.02 1148.5 1591.85 1146.78 1589.96 1146.09L1587.48 1145.69L1587.01 1142.08H1589.96C1591.92 1142.86 1596.18 1144.67 1597.52 1145.69Z" fill="white"/>
<path d="M1517.41 1131.53C1516.11 1124.45 1518.92 1119.09 1520.49 1117.29C1519.59 1117.29 1518.06 1118.9 1517.41 1119.7C1514.95 1122.84 1514.42 1127.67 1514.46 1129.69C1514.51 1130.78 1514.84 1133.84 1515.75 1137.26C1516.67 1140.69 1516.3 1143.76 1515.99 1144.87C1515.33 1146.35 1513.63 1149.77 1512.13 1151.63C1510.63 1153.49 1509.49 1157.68 1509.11 1159.54L1505.43 1162.26C1504.98 1162.46 1503.87 1162.96 1503.08 1163.37C1502.28 1163.78 1500.71 1163.54 1500.03 1163.37C1499.81 1164.56 1500.3 1166.44 1500.57 1167.24C1500.23 1167.19 1498.74 1167.44 1498.04 1167.57L1492.54 1170.53L1494.47 1173.88L1496.86 1172.28C1498.28 1171.09 1500.67 1171 1501.69 1171.1C1502.22 1173.35 1503.14 1174.35 1503.53 1174.57C1505.05 1175.37 1508.61 1173.58 1510.2 1172.58L1515.45 1168.29C1512.8 1165.01 1512.13 1160.12 1512.13 1158.09C1512.53 1156.15 1514.15 1151.37 1517.41 1147.77C1520.67 1144.17 1519.72 1139.27 1518.83 1137.26L1517.41 1131.53Z" fill="white"/>
<path d="M1569.55 1131.53C1570.85 1124.45 1568.04 1119.09 1566.47 1117.29C1567.37 1117.29 1568.89 1118.9 1569.55 1119.7C1572.01 1122.84 1572.54 1127.67 1572.5 1129.69C1572.45 1130.78 1572.12 1133.84 1571.21 1137.26C1570.29 1140.69 1570.66 1143.76 1570.96 1144.87C1571.63 1146.35 1573.33 1149.77 1574.83 1151.63C1576.33 1153.49 1577.46 1157.68 1577.85 1159.54L1581.53 1162.26C1581.98 1162.46 1583.09 1162.96 1583.88 1163.37C1584.68 1163.78 1586.25 1163.54 1586.93 1163.37C1587.15 1164.56 1586.66 1166.44 1586.39 1167.24C1586.73 1167.19 1588.22 1167.44 1588.92 1167.57L1594.42 1170.53L1592.49 1173.88L1590.1 1172.28C1588.68 1171.09 1586.29 1171 1585.27 1171.1C1584.74 1173.35 1583.82 1174.35 1583.43 1174.57C1581.91 1175.37 1578.35 1173.58 1576.76 1172.58L1571.51 1168.29C1574.16 1165.01 1574.83 1160.12 1574.83 1158.09C1574.43 1156.15 1572.81 1151.37 1569.55 1147.77C1566.29 1144.17 1567.24 1139.27 1568.13 1137.26L1569.55 1131.53Z" fill="white"/>
<path d="M1519.98 1178.87C1520.74 1177.01 1519.66 1174.48 1519.03 1173.45L1518.07 1178.51C1517.68 1179.58 1516.55 1182.15 1515.15 1183.9C1513.75 1185.66 1512.34 1188.77 1511.82 1190.1L1513.96 1191.83C1513.59 1189.81 1515.58 1186.34 1516.62 1184.86C1517.42 1183.64 1519.22 1180.73 1519.98 1178.87Z" fill="white"/>
<path d="M1566.73 1178.87C1565.97 1177.01 1567.05 1174.48 1567.68 1173.45L1568.64 1178.51C1569.03 1179.58 1570.16 1182.15 1571.56 1183.9C1572.96 1185.66 1574.37 1188.77 1574.89 1190.1L1572.75 1191.83C1573.12 1189.81 1571.13 1186.34 1570.09 1184.86C1569.29 1183.64 1567.49 1180.73 1566.73 1178.87Z" fill="white"/>
<path d="M1506.99 1184.89L1505.75 1185.85L1502.74 1182.89L1505.21 1181.84C1505.98 1181.51 1506.87 1181.76 1507.36 1182.44C1507.92 1183.23 1507.75 1184.31 1506.99 1184.89Z" fill="white"/>
<path d="M1499.83 1179.8L1497.04 1176.84L1500.48 1175.31L1502.2 1175.11C1502.76 1175.05 1503.32 1175.25 1503.71 1175.66L1503.87 1175.82C1504.1 1176.05 1504.22 1176.37 1504.22 1176.69C1504.22 1177.26 1503.83 1177.76 1503.28 1177.9L1502 1178.23L1499.83 1179.8Z" fill="white"/>
<path d="M1491.41 1153.4C1489.92 1154.43 1486.9 1155.05 1485.58 1155.23L1486.72 1159.15C1487.63 1159.15 1488.86 1158.69 1489.36 1158.47C1490.43 1158.01 1492.87 1156.85 1494.11 1155.87C1495.35 1154.88 1497.57 1154.54 1498.53 1154.5V1151.03C1496.57 1150.94 1493.28 1152.13 1491.41 1153.4Z" fill="white"/>
<path d="M1492.1 1161.98C1491.44 1162.6 1489.39 1163.03 1488.45 1163.16L1490.32 1167.04C1491.6 1166.45 1494.33 1165.05 1495.02 1164.21C1495.71 1163.37 1498.2 1162.86 1499.35 1162.71C1499.43 1161.43 1498.96 1160.02 1498.71 1159.47C1496.52 1158.69 1492.92 1161.2 1492.1 1161.98Z" fill="white"/>
<path d="M1579.64 1184.89L1580.88 1185.85L1583.89 1182.89L1581.42 1181.84C1580.65 1181.51 1579.76 1181.76 1579.27 1182.44C1578.71 1183.23 1578.88 1184.31 1579.64 1184.89Z" fill="white"/>
<path d="M1586.8 1179.8L1589.59 1176.84L1586.15 1175.31L1584.43 1175.11C1583.87 1175.05 1583.31 1175.25 1582.91 1175.66L1582.76 1175.82C1582.53 1176.05 1582.41 1176.37 1582.41 1176.69C1582.41 1177.26 1582.8 1177.76 1583.35 1177.9L1584.63 1178.23L1586.8 1179.8Z" fill="white"/>
<path d="M1595.21 1153.4C1596.71 1154.43 1599.73 1155.05 1601.05 1155.23L1599.91 1159.15C1599 1159.15 1597.77 1158.69 1597.27 1158.47C1596.2 1158.01 1593.76 1156.85 1592.52 1155.87C1591.28 1154.88 1589.05 1154.54 1588.1 1154.5V1151.03C1590.06 1150.94 1593.34 1152.13 1595.21 1153.4Z" fill="white"/>
<path d="M1594.53 1161.98C1595.19 1162.6 1597.24 1163.03 1598.18 1163.16L1596.31 1167.04C1595.03 1166.45 1592.3 1165.05 1591.61 1164.21C1590.92 1163.37 1588.43 1162.86 1587.28 1162.71C1587.2 1161.43 1587.67 1160.02 1587.91 1159.47C1590.1 1158.69 1593.71 1161.2 1594.53 1161.98Z" fill="white"/>
<path d="M1528.19 1128.01C1526.27 1121.67 1530.1 1115.44 1532.26 1113.12C1530.9 1113.94 1527.8 1116.63 1526.24 1120.84C1524.67 1125.05 1525.85 1129.78 1526.64 1131.62C1527.16 1132.57 1528.44 1135.32 1529.45 1138.69C1530.45 1142.06 1529.87 1145.38 1529.45 1146.61L1525.59 1151.73C1524.64 1153.48 1522.78 1157.56 1522.98 1159.85C1523.18 1162.14 1525.14 1164.92 1526.09 1166.02C1527.56 1167.67 1530.67 1171.71 1531.35 1174.64C1532.03 1177.57 1530.7 1180.78 1529.95 1182.01C1528.95 1183.62 1526.67 1187.46 1525.59 1189.99C1524.51 1192.51 1524.87 1195.45 1525.19 1196.6L1529.5 1197.71C1527.81 1195.58 1528.63 1191.14 1529.25 1189.18L1532.66 1182.71C1533.28 1181.54 1534.51 1178.48 1534.51 1175.59C1534.51 1172.71 1532.41 1169.38 1531.35 1168.07L1528.09 1164.06C1525.85 1160.81 1526.39 1157.23 1526.94 1155.84C1527.44 1154.82 1529.03 1151.94 1531.35 1148.57C1533.68 1145.2 1533.19 1141.11 1532.66 1139.49C1531.97 1138.31 1530.12 1134.35 1528.19 1128.01Z" fill="white"/>
<path d="M1558.98 1128.01C1560.9 1121.67 1557.07 1115.44 1554.91 1113.12C1556.27 1113.94 1559.37 1116.63 1560.93 1120.84C1562.5 1125.05 1561.32 1129.78 1560.53 1131.62C1560.01 1132.57 1558.73 1135.32 1557.72 1138.69C1556.72 1142.06 1557.31 1145.38 1557.72 1146.61L1561.58 1151.73C1562.54 1153.48 1564.39 1157.56 1564.19 1159.85C1563.99 1162.14 1562.03 1164.92 1561.08 1166.02C1559.61 1167.67 1556.5 1171.71 1555.82 1174.64C1555.14 1177.57 1556.47 1180.78 1557.22 1182.01C1558.22 1183.62 1560.5 1187.46 1561.58 1189.99C1562.66 1192.51 1562.3 1195.45 1561.98 1196.6L1557.67 1197.71C1559.36 1195.58 1558.54 1191.14 1557.92 1189.18L1554.51 1182.71C1553.89 1181.54 1552.66 1178.48 1552.66 1175.59C1552.66 1172.71 1554.76 1169.38 1555.82 1168.07L1559.08 1164.06C1561.32 1160.81 1560.78 1157.23 1560.23 1155.84C1559.73 1154.82 1558.14 1151.94 1555.82 1148.57C1553.49 1145.2 1553.98 1141.11 1554.51 1139.49C1555.2 1138.31 1557.05 1134.35 1558.98 1128.01Z" fill="white"/>
<path d="M1522.38 1128.14C1521.68 1122.81 1525.17 1116.67 1527 1114.26C1524.01 1115.58 1522.16 1119.03 1521.61 1120.6C1520.5 1122.35 1519.98 1126.58 1519.86 1128.48C1520.03 1129.62 1520.65 1132.62 1521.81 1135.45C1523.26 1138.99 1523.43 1141.21 1523.49 1142.66C1523.55 1143.82 1522.71 1145.95 1522.28 1146.87L1518.41 1151.85C1517.54 1153.1 1515.79 1156.21 1515.68 1158.69C1515.57 1161.17 1516.76 1163.72 1517.37 1164.68L1522.55 1171.32C1523.07 1172.32 1524.15 1174.71 1524.34 1176.27C1524.52 1177.83 1523.56 1180.13 1523.06 1181.09C1522.55 1181.88 1521.08 1184.2 1519.25 1187.08C1517.42 1189.96 1517.23 1192.64 1517.37 1193.62L1521.1 1195.3C1520.46 1193.28 1521.37 1189.9 1521.91 1188.46L1524.78 1183.95C1525.42 1182.93 1526.82 1180.23 1527.33 1177.62C1527.85 1175 1526.49 1172.19 1525.75 1171.12L1522.59 1167.34C1521.51 1166.29 1519.27 1163.44 1518.95 1160.47C1518.62 1157.51 1520.14 1154.23 1520.93 1152.96L1524.47 1147.78C1527 1145.22 1526.87 1141.48 1526.49 1139.93C1525.98 1138.23 1524.74 1134.57 1523.93 1133.46C1523.12 1132.36 1522.56 1129.45 1522.38 1128.14Z" fill="white"/>
<path d="M1564.72 1128.14C1565.42 1122.81 1561.94 1116.67 1560.11 1114.26C1563.1 1115.58 1564.95 1119.03 1565.5 1120.6C1566.61 1122.35 1567.13 1126.58 1567.25 1128.48C1567.08 1129.62 1566.46 1132.62 1565.3 1135.45C1563.85 1138.99 1563.68 1141.21 1563.61 1142.66C1563.56 1143.82 1564.4 1145.95 1564.83 1146.87L1568.7 1151.85C1569.56 1153.1 1571.32 1156.21 1571.43 1158.69C1571.54 1161.17 1570.35 1163.72 1569.74 1164.68L1564.56 1171.32C1564.04 1172.32 1562.96 1174.71 1562.77 1176.27C1562.58 1177.83 1563.55 1180.13 1564.05 1181.09C1564.56 1181.88 1566.03 1184.2 1567.86 1187.08C1569.69 1189.96 1569.88 1192.64 1569.74 1193.62L1566.01 1195.3C1566.65 1193.28 1565.74 1189.9 1565.2 1188.46L1562.33 1183.95C1561.69 1182.93 1560.29 1180.23 1559.77 1177.62C1559.26 1175 1560.62 1172.19 1561.36 1171.12L1564.52 1167.34C1565.6 1166.29 1567.84 1163.44 1568.16 1160.47C1568.48 1157.51 1566.97 1154.23 1566.17 1152.96L1562.64 1147.78C1560.1 1145.22 1560.24 1141.48 1560.62 1139.93C1561.13 1138.23 1562.37 1134.57 1563.18 1133.46C1563.98 1132.36 1564.55 1129.45 1564.72 1128.14Z" fill="white"/>
</g>
<path d="M541.72 1288.4L656.838 1196.93C730.182 1348.33 892.847 1435.11 1059.45 1411.71L1139.75 1400.43L1422.68 1325.42C1589.59 1281.17 1767.59 1318.32 1902.87 1425.62L1845.06 1534.41C1698.58 1445.42 1520.3 1425.58 1357.84 1480.18L1242.09 1519.08C1202.22 1532.47 1161.39 1542.8 1119.94 1549.95C912.845 1585.69 703.148 1502.64 576.681 1334.8L541.72 1288.4Z" fill="#508664" stroke="black" stroke-width="3.99651"/>
<path d="M1846.09 1534.98L1864.52 1398.36C2019.87 1509.09 2230.61 1500.04 2375.9 1376.4L2427.99 1332.07L2617.7 1123.64C2738.81 990.577 2920.49 930.216 3097.15 964.346L3102.94 1087.41C2931.55 1085.62 2768.11 1159.52 2656.24 1289.37L2535.31 1429.75L2509.49 1454.69C2331.22 1626.86 2060.28 1659.65 1846.09 1534.98Z" fill="#508664" stroke="black" stroke-width="3.99651"/>
<path d="M1849.1 1534.04L1833.59 1524.7L1838.52 1496.47L1858.82 1396.52L1868.07 1403.88L1849.1 1534.04Z" fill="#508664"/>
<path d="M667.613 1219.09L705.007 1256.67C688.396 1306.85 650.123 1346.95 600.717 1365.87L591.673 1369.33L554.333 1331.81L667.613 1219.09Z" fill="#508664" stroke="black" stroke-width="3.99651"/>
<path fill-rule="evenodd" clip-rule="evenodd" d="M432.854 1180.79C415.624 1168.63 384.809 1151.84 353.085 1137.02C333.519 1127.87 306.673 1117.78 287.725 1110.98C272.754 1105.59 256.54 1104.99 241.11 1108.86C215.217 1115.36 211.032 1150.39 234.667 1162.8L248.174 1169.89C252.177 1171.99 256.314 1173.81 260.571 1175.34C275.128 1180.54 311.449 1193.48 336.514 1201.97C355.669 1208.47 375.27 1217.43 390.107 1224.21C393.231 1225.64 396.144 1226.97 398.798 1228.16C441.897 1273.34 528.535 1324.72 548.996 1332.03L561.686 1327.94C638.379 1303.18 689.072 1230.22 685.527 1149.71L601.941 1047.1L559.266 1079.21L487.102 1118.67L432.854 1180.79Z" fill="#978172"/>
<path d="M432.854 1180.79L431.702 1182.42L433.174 1183.46L434.359 1182.11L432.854 1180.79ZM353.085 1137.02L353.931 1135.2L353.085 1137.02ZM287.725 1110.98L288.401 1109.09L288.401 1109.09L287.725 1110.98ZM241.11 1108.86L240.624 1106.93L241.11 1108.86ZM234.667 1162.8L233.738 1164.57L233.738 1164.57L234.667 1162.8ZM248.174 1169.89L249.103 1168.12L249.103 1168.12L248.174 1169.89ZM260.571 1175.34L261.244 1173.45L260.571 1175.34ZM336.514 1201.97L335.873 1203.87L336.514 1201.97ZM390.107 1224.21L390.938 1222.39L390.107 1224.21ZM398.798 1228.16L400.243 1226.78L399.973 1226.5L399.616 1226.34L398.798 1228.16ZM548.996 1332.03L548.323 1333.91L548.963 1334.14L549.61 1333.93L548.996 1332.03ZM561.686 1327.94L561.072 1326.03L561.072 1326.03L561.686 1327.94ZM685.527 1149.71L687.524 1149.62L687.494 1148.96L687.077 1148.45L685.527 1149.71ZM601.941 1047.1L603.49 1045.84L602.276 1044.35L600.74 1045.5L601.941 1047.1ZM559.266 1079.21L560.225 1080.97L560.352 1080.9L560.468 1080.81L559.266 1079.21ZM487.102 1118.67L486.143 1116.91L485.831 1117.09L485.597 1117.35L487.102 1118.67ZM434.006 1179.16C416.633 1166.9 385.693 1150.05 353.931 1135.2L352.239 1138.83C383.924 1153.63 414.615 1170.36 431.702 1182.42L434.006 1179.16ZM353.931 1135.2C334.275 1126.02 307.354 1115.91 288.401 1109.09L287.049 1112.86C305.993 1119.66 332.764 1129.72 352.239 1138.83L353.931 1135.2ZM288.401 1109.09C273.04 1103.57 256.421 1102.96 240.624 1106.93L241.596 1110.8C256.66 1107.03 272.468 1107.62 287.049 1112.86L288.401 1109.09ZM240.624 1106.93C212.951 1113.87 208.478 1151.31 233.738 1164.57L235.596 1161.03C213.585 1149.47 217.483 1116.85 241.596 1110.8L240.624 1106.93ZM233.738 1164.57L247.245 1171.66L249.103 1168.12L235.596 1161.03L233.738 1164.57ZM247.245 1171.66C251.33 1173.81 255.552 1175.66 259.898 1177.22L261.244 1173.45C257.076 1171.96 253.025 1170.18 249.103 1168.12L247.245 1171.66ZM259.898 1177.22C274.454 1182.42 310.79 1195.37 335.873 1203.87L337.156 1200.08C312.108 1191.59 275.803 1178.66 261.244 1173.45L259.898 1177.22ZM335.873 1203.87C354.916 1210.32 374.426 1219.24 389.277 1226.02L390.938 1222.39C376.115 1215.61 356.423 1206.61 337.156 1200.08L335.873 1203.87ZM389.277 1226.02C392.399 1227.45 395.319 1228.79 397.979 1229.98L399.616 1226.34C396.97 1225.15 394.064 1223.82 390.938 1222.39L389.277 1226.02ZM397.352 1229.54C419.059 1252.3 451.644 1276.53 481.291 1295.97C510.893 1315.37 537.845 1330.17 548.323 1333.91L549.668 1330.15C539.686 1326.58 513.089 1312.03 483.482 1292.63C453.919 1273.25 421.635 1249.21 400.243 1226.78L397.352 1229.54ZM549.61 1333.93L562.3 1329.84L561.072 1326.03L548.382 1330.13L549.61 1333.93ZM562.3 1329.84C639.849 1304.8 691.108 1231.04 687.524 1149.62L683.531 1149.8C687.036 1229.41 636.909 1301.55 561.072 1326.03L562.3 1329.84ZM687.077 1148.45L603.49 1045.84L600.392 1048.36L683.978 1150.97L687.077 1148.45ZM600.74 1045.5L558.065 1077.62L560.468 1080.81L603.143 1048.7L600.74 1045.5ZM558.308 1077.46L486.143 1116.91L488.06 1120.42L560.225 1080.97L558.308 1077.46ZM485.597 1117.35L431.349 1179.48L434.359 1182.11L488.607 1119.98L485.597 1117.35Z" fill="black"/>
<path d="M327.333 995.225C353.919 1014.42 379.717 1040.15 389.331 1046.98L411.511 1031.69C411.511 1031.69 435.707 1016.82 427.348 1005.56C415.004 988.937 389.431 962.594 362.275 938.012C346.264 923.518 323.572 905.982 307.464 893.901C294.737 884.356 279.417 879.014 263.531 878.174C236.874 876.765 222.57 909.019 241.511 927.83L252.335 938.581C255.543 941.767 258.962 944.723 262.583 947.43C274.965 956.687 305.874 979.735 327.333 995.225Z" fill="#978172" stroke="black" stroke-width="3.99651"/>
<path d="M277.374 1033.27C308.377 1043.94 340.523 1061.1 351.704 1064.86L368.506 1043.8C368.506 1043.8 387.357 1022.56 376.096 1014.2C359.467 1001.86 327.361 984.056 294.25 968.391C274.727 959.155 247.929 948.942 229.013 942.044C214.067 936.593 197.857 935.917 182.408 939.714C156.485 946.085 152.135 981.098 175.711 993.619L189.185 1000.77C193.178 1002.89 197.307 1004.73 201.557 1006.28C216.089 1011.55 252.349 1024.66 277.374 1033.27Z" fill="#978172" stroke="black" stroke-width="3.99651"/>
<path d="M278.989 1111.51C310.774 1119.55 344.239 1133.98 355.693 1136.79L370.682 1114.4C370.682 1114.4 387.696 1091.66 375.778 1084.27C358.178 1073.36 324.699 1058.29 290.398 1045.44C270.173 1037.87 242.617 1029.92 223.192 1024.63C207.844 1020.44 191.633 1021.12 176.555 1026.19C151.253 1034.7 149.837 1069.95 174.375 1080.47L188.398 1086.47C192.554 1088.25 196.822 1089.74 201.185 1090.92C216.107 1094.97 253.333 1105.01 278.989 1111.51Z" fill="#978172" stroke="black" stroke-width="3.99651"/>
<path d="M525.169 1124.88C532.138 1148.66 558.288 1197.47 607.143 1202.5" stroke="black" stroke-width="3.99651"/>
<path fill-rule="evenodd" clip-rule="evenodd" d="M320.994 861.049L613.338 1142.49C618.105 1147.08 618.67 1154.51 614.65 1159.77L521.865 1281.1C521.428 1281.67 520.953 1282.2 520.446 1282.68C513.32 1289.4 498.8 1290.14 491.01 1284.2L166.837 1037.12C160.002 1031.91 158.849 1022.07 164.295 1015.42L289.272 862.833C289.312 862.784 289.353 862.735 289.394 862.687C296.308 854.486 313.266 853.61 320.994 861.049Z" fill="#C4C4C4"/>
<path d="M613.338 1142.49L614.723 1141.05L613.338 1142.49ZM614.65 1159.77L613.062 1158.56L614.65 1159.77ZM521.865 1281.1L523.452 1282.32L521.865 1281.1ZM166.837 1037.12L168.049 1035.53L168.049 1035.53L166.837 1037.12ZM164.295 1015.42L162.749 1014.15L164.295 1015.42ZM289.272 862.833L287.726 861.567L287.726 861.567L289.272 862.833ZM520.446 1282.68L519.075 1281.22L520.446 1282.68ZM614.723 1141.05L322.38 859.61L319.608 862.489L611.952 1143.93L614.723 1141.05ZM616.237 1160.98C620.874 1154.92 620.223 1146.34 614.723 1141.05L611.952 1143.93C615.987 1147.81 616.465 1154.11 613.062 1158.56L616.237 1160.98ZM523.452 1282.32L616.237 1160.98L613.062 1158.56L520.277 1279.89L523.452 1282.32ZM521.817 1284.13C522.402 1283.58 522.949 1282.97 523.452 1282.32L520.277 1279.89C519.906 1280.38 519.504 1280.82 519.075 1281.22L521.817 1284.13ZM165.626 1038.71L489.798 1285.79L492.221 1282.61L168.049 1035.53L165.626 1038.71ZM162.749 1014.15C156.586 1021.68 157.891 1032.81 165.626 1038.71L168.049 1035.53C162.113 1031 161.111 1022.46 165.841 1016.68L162.749 1014.15ZM287.726 861.567L162.749 1014.15L165.841 1016.68L290.818 864.099L287.726 861.567ZM287.866 861.399C287.819 861.454 287.773 861.51 287.726 861.567L290.818 864.099C290.852 864.057 290.887 864.016 290.921 863.975L287.866 861.399ZM290.921 863.975C293.908 860.432 299.269 858.295 304.992 857.998C310.715 857.702 316.27 859.275 319.608 862.489L322.38 859.61C317.991 855.384 311.203 853.675 304.786 854.007C298.369 854.34 291.794 856.741 287.866 861.399L290.921 863.975ZM519.075 1281.22C515.951 1284.17 511.042 1285.93 505.874 1286.19C500.706 1286.46 495.638 1285.22 492.221 1282.61L489.798 1285.79C494.171 1289.13 500.258 1290.48 506.08 1290.18C511.901 1289.88 517.815 1287.91 521.817 1284.13L519.075 1281.22Z" fill="black"/>
<path d="M611.621 1143.02L320.994 861.11C315.525 855.805 306.69 856.311 301.862 862.205L175.495 1016.49C170.827 1022.19 171.815 1030.62 177.674 1035.08L503.566 1283.48C509.303 1287.85 517.502 1286.73 521.847 1280.97L612.949 1160.2C616.904 1154.96 616.334 1147.59 611.621 1143.02Z" fill="#C4C4C4" stroke="black" stroke-width="3.99651"/>
<path d="M599.771 1141.95L321.988 876.867C316.503 871.632 307.723 872.175 302.925 878.046L190.708 1015.33C186.043 1021.04 187.044 1029.48 192.916 1033.94L502.538 1269C508.288 1273.36 516.494 1272.21 520.824 1266.43L601.2 1159.17C605.153 1153.9 604.539 1146.5 599.771 1141.95Z" fill="white" stroke="black" stroke-width="3.99651"/>
<path d="M609.171 1138.55L606.073 1058.51C601.177 1040.77 578.558 1005.78 527.248 1007.76C515.897 1008.2 506.096 1009.67 497.678 1011.82C478.195 1016.79 466.119 1025.39 459.378 1033.2C455.866 1037.26 453.802 1041.11 452.893 1044.13C449.116 1060.01 449.358 1091.81 480.546 1091.92C511.734 1092.03 534.807 1080.12 542.445 1074.15L609.171 1138.55Z" fill="#978172"/>
<path d="M497.678 1011.82C506.096 1009.67 515.897 1008.2 527.248 1007.76C578.558 1005.78 601.177 1040.77 606.073 1058.51L609.171 1138.55L542.445 1074.15C534.807 1080.12 511.734 1092.03 480.546 1091.92C449.358 1091.81 449.116 1060.01 452.893 1044.13C453.802 1041.11 455.866 1037.26 459.378 1033.2M497.678 1011.82C503.855 1024.15 511.547 1050.31 492.893 1056.3C474.239 1062.3 462.777 1043.4 459.378 1033.2M497.678 1011.82C478.195 1016.79 466.119 1025.39 459.378 1033.2" stroke="black" stroke-width="3.99651"/>
<path d="M621.41 1147.78L664.15 1128.19L616.26 1069.55L605.889 1055.56L599.357 1047.1L584.029 1110.23L621.41 1147.78Z" fill="#978172"/>
<path d="M306.483 1006.92C304.614 1003.05 308.277 998.823 312.371 1000.12L348.539 1011.6C351.641 1012.58 355.033 1011.79 357.382 1009.54L384.77 983.279C387.871 980.306 393.024 982.483 393.053 986.779L393.315 1024.72C393.337 1027.98 395.136 1030.96 398.004 1032.5L431.444 1050.43C435.23 1052.46 434.751 1058.03 430.675 1059.39L394.67 1071.36C391.581 1072.39 389.301 1075.02 388.725 1078.22L382.004 1115.57C381.243 1119.8 375.794 1121.06 373.245 1117.61L350.731 1087.06C348.8 1084.44 345.592 1083.09 342.367 1083.53L304.774 1088.68C300.518 1089.26 297.629 1084.47 300.13 1080.98L322.22 1050.13C324.115 1047.48 324.413 1044.01 322.997 1041.08L306.483 1006.92Z" fill="#E3BE63" stroke="black" stroke-width="3.99651"/>
<rect x="0.193824" y="3.2742" width="157.781" height="33.5657" transform="matrix(-0.664085 0.747657 0.747657 0.664085 749.123 1305.79)" fill="#E3BE63" stroke="black" stroke-width="4.63852"/>
<circle cx="39.1017" cy="39.1017" r="36.7824" transform="matrix(-0.920531 0.39067 0.39067 0.920531 731.734 1327.63)" fill="white" stroke="black" stroke-width="4.63852"/>
<path d="M727.49 1361.53L706.966 1384.49L691.257 1384.39" stroke="black" stroke-width="4.63852" stroke-linecap="round"/>
<path d="M764.928 1329.16L747.105 1349.13" stroke="white" stroke-width="3.56831" stroke-linecap="round"/>
<path d="M688.375 1417.4L670.552 1437.37" stroke="white" stroke-width="3.56831" stroke-linecap="round"/>
</g>
<defs>
<clipPath id="clip0_217_277">
<rect width="1920" height="1920" fill="white" transform="translate(0 0.873047)"/>
</clipPath>
</defs>
</svg>
