<svg width="1920" height="1921" viewBox="0 0 1920 1921" fill="none" xmlns="http://www.w3.org/2000/svg">
<rect width="1920" height="1920" transform="translate(0 0.873047)" fill="#F2F0EB"/>
<path fill-rule="evenodd" clip-rule="evenodd" d="M1446.49 621.252C1426.93 613.6 1411.37 597.211 1406.22 576.85C1387.72 503.819 1339.79 438.504 1268.19 400.053C1155.79 339.695 1020.42 364.521 936.161 452.219C914.608 474.65 877.731 479.283 850.562 464.135C849.481 463.533 848.394 462.938 847.3 462.35C735.034 402.063 595.151 444.199 534.863 556.466C507.454 607.506 501.216 664.255 513.113 716.637C521.949 755.538 495.872 807.385 459.062 822.759C409.39 843.505 366.261 880.814 338.808 931.936C275.337 1050.13 319.699 1197.4 437.893 1260.87C445.372 1264.89 450.153 1272.63 450.494 1281.11C453.451 1354.5 494.038 1424.47 563.438 1461.74C633.225 1499.22 714.486 1494.14 777.452 1455.48C801.386 1440.78 833.679 1441.64 856.821 1457.55C863.242 1461.97 869.97 1466.08 876.994 1469.85C953.163 1510.75 1043.08 1500.67 1107.59 1451.39C1115.66 1445.23 1125.09 1440.99 1135.15 1439.58C1261.7 1421.81 1378.36 1346.04 1443.45 1224.83C1483.28 1150.67 1498.26 1069.8 1491.27 991.79C1489.61 973.249 1497.54 955.169 1510.93 942.236C1525.06 928.59 1537.34 912.553 1547.13 894.32C1597.92 799.749 1562.42 681.913 1467.85 631.127C1460.85 627.366 1453.71 624.078 1446.49 621.252Z" fill="white"/>
<path d="M269.818 1405.25H586.006" stroke="black" stroke-width="3.89154" stroke-linecap="round"/>
<path d="M829.229 1405.25L1015.12 1405.25" stroke="black" stroke-width="3.89154" stroke-linecap="round"/>
<path d="M728.467 1405.25L787.535 1405.25" stroke="black" stroke-width="3.89154" stroke-linecap="round"/>
<path d="M347.317 1478.86L309.336 1478.86L355.152 1160.15L393.184 1164.11L347.317 1478.86Z" fill="white" stroke="black" stroke-width="3.89154"/>
<path d="M1133.44 1478.86L1171.42 1478.86L1125.61 1160.15L1087.58 1164.11L1133.44 1478.86Z" fill="white" stroke="black" stroke-width="3.89154"/>
<rect x="292.532" y="1130.57" width="879.188" height="57.7216" fill="white" stroke="black" stroke-width="3.89154"/>
<rect x="681.625" y="961.793" width="119.634" height="187.679" fill="white" stroke="black" stroke-width="3.89154"/>
<rect x="455.786" y="719.446" width="597.462" height="281.088" rx="5.00341" fill="white" stroke="black" stroke-width="3.89154"/>
<rect x="474.051" y="735.971" width="560.936" height="248.033" rx="5.00341" fill="white" stroke="black" stroke-width="3.89154"/>
<path d="M1731.15 667.496C1731.15 672.023 1734.08 678.195 1729.82 681.898C1723.67 687.232 1714.76 672.023 1714.76 667.496C1714.76 662.969 1718.43 659.299 1722.96 659.299C1727.48 659.299 1731.15 662.969 1731.15 667.496Z" fill="#D9BF8C"/>
<path d="M1763.16 692.566C1755.75 691.294 1744.82 694.354 1739.95 686.329C1732.94 674.769 1760.35 664.447 1767.77 665.719C1775.18 666.99 1780.16 674.031 1778.89 681.445C1777.61 688.859 1770.57 693.838 1763.16 692.566Z" fill="#D9BF8C"/>
<path fill-rule="evenodd" clip-rule="evenodd" d="M1644.34 740.891C1642.39 743.641 1642.16 747.262 1643.75 750.237C1645.6 753.685 1649.48 755.519 1653.32 754.755L1727.7 739.933C1734.67 738.545 1738.2 730.723 1734.65 724.576C1733.41 722.442 1732.98 719.938 1733.42 717.513L1736 703.479C1736.89 698.602 1733.71 693.909 1728.85 692.941C1725.41 692.256 1721.88 693.614 1719.79 696.43L1716.58 700.755C1714.02 704.19 1709.12 701.755 1705.61 699.312C1703.53 697.868 1700.97 697.096 1698.25 697.289C1694.35 697.564 1685.13 702.958 1680.5 708.946C1680 709.59 1679.28 710.029 1678.47 710.103C1670.18 710.854 1662.64 715.187 1657.81 721.964L1644.34 740.891Z" fill="#D9BF8C"/>
<path d="M430.305 1233.71L497.419 1223.77L537.066 1277.68L446.07 1336.38L434.809 1313.83L479.063 1278.73L423.543 1298.32L356.923 1208.83C371.335 1202.14 388.232 1203.71 401.17 1212.93L430.305 1233.71Z" fill="#343434" stroke="black" stroke-width="3.89154"/>
<path d="M603.199 1491.07L633.864 1430.55L700.769 1429.33L696.118 1537.52L671.2 1533.68L668.117 1477.28L652.032 1533.91L540.505 1536.6C543.368 1520.97 554.407 1508.08 569.411 1502.85L603.199 1491.07Z" fill="#343434" stroke="black" stroke-width="3.89154"/>
<path d="M990.3 1265.33L1167.02 1026.65L904.712 925.538L852.054 1205.06L990.3 1265.33Z" fill="#508664" stroke="black" stroke-width="3.89154"/>
<path d="M1543.57 929.43L1478.65 856.698C1413.68 947.367 1297.62 985.747 1191.39 951.694L1171.63 945.358C1150.71 938.65 1130.35 930.306 1110.73 920.403L973.385 851.05C866.894 797.278 740.082 802.864 638.731 865.791L668.398 935.997C771.887 898.898 886.267 907.532 983.015 959.747L1059.96 1001.28C1084.5 1014.52 1110.02 1025.86 1136.3 1035.21C1267.59 1081.88 1413.96 1051.24 1515.5 955.811L1543.57 929.43Z" fill="#508664" stroke="black" stroke-width="3.89154"/>
<path d="M964.422 1199.15L988.863 1205.77C1012.97 1212.3 1029.72 1234.18 1029.71 1259.16C1029.71 1259.53 1029.5 1259.86 1029.16 1260.01L1004.45 1270.95C1004.29 1271.01 1004.15 1271.1 1004.01 1271.2C985.706 1284.25 964.667 1292.96 942.493 1296.65L920.091 1300.39L790.501 1300.39C750.049 1300.39 717.257 1333.18 717.257 1373.63L717.257 1436.26C717.257 1445.7 709.605 1453.35 700.167 1453.35L604.623 1453.35C603.196 1453.35 602.057 1452.16 602.115 1450.74L607.052 1329.33C610.551 1243.31 697.305 1195.39 782.953 1186.63C851.68 1179.6 949.9 1196.45 961.977 1198.6C962.801 1198.75 963.615 1198.93 964.422 1199.15Z" fill="#E3BE63" stroke="black" stroke-width="3.89154"/>
<path d="M1029.18 1225.59C1027.54 1242.28 972.287 1261.51 960.436 1273.37C950.417 1283.4 944.276 1290.19 930.663 1294.13C914.354 1298.86 906.736 1286.81 887.455 1289.26C857.603 1293.07 842.015 1276.48 814.735 1263.77C789.282 1251.92 759.579 1230.79 737.285 1213.56C716.628 1197.59 688.055 1193.99 666.003 1207.97C628.07 1232.02 581.713 1274.74 558.049 1297.46C550.059 1305.13 536.932 1303.56 531.127 1294.13L480.42 1211.73C479.112 1209.6 479.644 1206.83 481.647 1205.34L628.431 1096.13C674.058 1062.18 735.485 1058.55 784.788 1086.9C785.242 1087.16 785.636 1087.38 786.098 1087.63C796.835 1093.35 942.196 1170.99 999.568 1207.97C1022.21 1222.57 1031.81 1198.81 1029.18 1225.59Z" fill="#E3BE63" stroke="black" stroke-width="3.89154"/>
<rect x="2.72431" y="0.387567" width="104.762" height="21.6659" transform="matrix(0.600466 0.79965 0.79965 -0.600466 1409.84 911.692)" fill="#E3BE63" stroke="black" stroke-width="3.89154"/>
<circle cx="26.1578" cy="26.1578" r="24.212" transform="matrix(0.199567 0.979884 0.979884 -0.199567 1421.41 929.082)" fill="white" stroke="black" stroke-width="3.89154"/>
<path d="M1443.07 936.379L1455.38 952.891L1453.23 963.176" stroke="black" stroke-width="3.89154" stroke-linecap="round"/>
<path d="M1543.78 931.735L1520.94 955.401C1488.96 945.403 1463.09 921.621 1450.45 890.535L1448.28 885.189L1471.07 861.575L1543.78 931.735Z" fill="#508664" stroke="black" stroke-width="3.89155"/>
<path d="M1618.71 888.167C1610.07 920.346 1573.39 941.12 1556.13 947.484L1547.69 944.852C1496.68 928.943 1462.59 880.908 1464.41 827.505L1519.15 758.922L1547.65 779.932L1595.76 805.614L1618.71 888.167Z" fill="#978172" stroke="black" stroke-width="3.89154"/>
<path d="M1598.69 821.337C1606.37 812.804 1628.17 800.473 1653.87 819.416C1679.57 838.359 1669.31 863.845 1660.96 874.22L1637.22 892.686L1616.14 909.085C1614.5 910.365 1612.28 910.705 1610.43 909.751C1602.75 905.795 1592.49 897.299 1596.41 885.999C1600.89 873.1 1619.4 851.968 1628.1 843.015L1598.69 821.337Z" fill="#978172"/>
<path d="M1637.22 892.686L1660.96 874.22C1669.31 863.845 1679.57 838.359 1653.87 819.416C1628.17 800.473 1606.37 812.804 1598.69 821.337L1628.1 843.015C1619.4 851.968 1600.89 873.1 1596.41 885.999C1592.49 897.299 1602.75 905.795 1610.43 909.751C1612.28 910.705 1614.5 910.365 1616.14 909.085V909.085M1637.22 892.686C1635.62 889.532 1630.72 883.31 1623.93 883.657C1617.14 884.004 1610.71 891.222 1608.34 894.788C1607.72 897.231 1608.43 903.51 1616.14 909.085M1637.22 892.686L1616.14 909.085" stroke="black" stroke-width="3.89154"/>
<path d="M1566.42 806.934C1562.69 820.153 1548.47 847.355 1521.41 850.411" stroke="#978172" stroke-width="3.89154"/>
<path d="M1587.83 786.649C1595.51 778.116 1617.31 765.786 1643.01 784.729C1668.71 803.672 1658.44 829.157 1650.1 839.532L1626.36 857.998L1605.28 874.398C1603.64 875.678 1601.42 876.018 1599.57 875.063C1591.88 871.107 1581.63 862.611 1585.55 851.311C1590.03 838.413 1608.54 817.281 1617.24 808.327L1587.83 786.649Z" fill="#978172"/>
<path d="M1626.36 857.998L1650.1 839.532C1658.44 829.157 1668.71 803.672 1643.01 784.729C1617.31 765.786 1595.51 778.116 1587.83 786.649L1617.24 808.327C1608.54 817.281 1590.03 838.413 1585.55 851.311C1581.63 862.611 1591.88 871.107 1599.57 875.063C1601.42 876.018 1603.64 875.678 1605.28 874.398V874.398M1626.36 857.998C1624.76 854.844 1619.86 848.622 1613.07 848.969C1606.28 849.316 1599.85 856.534 1597.48 860.1C1596.86 862.543 1597.57 868.823 1605.28 874.398M1626.36 857.998L1605.28 874.398" stroke="black" stroke-width="3.89154"/>
<path d="M1578.97 756.682C1586.66 748.149 1608.46 735.819 1634.16 754.762C1659.86 773.705 1649.59 799.19 1641.25 809.565L1617.51 828.031L1596.43 844.431C1594.79 845.711 1592.57 846.051 1590.72 845.096C1583.03 841.141 1572.78 832.645 1576.7 821.344C1581.18 808.446 1599.69 787.314 1608.38 778.36L1578.97 756.682Z" fill="#978172"/>
<path d="M1617.51 828.031L1641.25 809.565C1649.59 799.19 1659.86 773.705 1634.16 754.762C1608.46 735.819 1586.66 748.149 1578.97 756.682L1608.38 778.36C1599.69 787.314 1581.18 808.446 1576.7 821.344C1572.78 832.645 1583.03 841.141 1590.72 845.096C1592.57 846.051 1594.79 845.711 1596.43 844.431V844.431M1617.51 828.031C1615.91 824.877 1611 818.656 1604.22 819.002C1597.43 819.349 1590.99 826.568 1588.63 830.133C1588.01 832.576 1588.71 838.856 1596.43 844.431M1617.51 828.031L1596.43 844.431" stroke="black" stroke-width="3.89154"/>
<path d="M1561.09 735.498C1578.16 728.31 1599.94 716.554 1625.64 735.497C1651.34 754.44 1633.98 774.472 1625.64 784.847L1601.9 803.313L1580.82 819.712C1579.17 820.992 1576.96 821.332 1575.11 820.378C1567.42 816.422 1557.17 807.926 1561.09 796.626C1565.57 783.727 1525.97 757.094 1534.66 748.14L1561.09 735.498Z" fill="#978172"/>
<path d="M1601.9 803.313L1625.64 784.847C1633.98 774.472 1651.34 754.44 1625.64 735.497C1599.94 716.554 1578.16 728.31 1561.09 735.498L1534.66 748.14C1525.97 757.094 1565.57 783.727 1561.09 796.626C1557.17 807.926 1567.42 816.422 1575.11 820.378C1576.96 821.332 1579.17 820.992 1580.82 819.712V819.712M1601.9 803.313C1600.3 800.159 1595.39 793.937 1588.61 794.284C1581.82 794.631 1575.38 801.849 1573.01 805.415C1572.4 807.858 1573.1 814.137 1580.82 819.712M1601.9 803.313L1580.82 819.712" stroke="black" stroke-width="3.89154"/>
<path d="M1740.15 732.146C1739.81 729.699 1737.56 727.986 1735.11 728.319L1613.31 744.896C1610.86 745.229 1609.15 747.483 1609.48 749.93L1621.15 835.674C1623.06 849.66 1635.94 859.454 1649.92 857.551L1729.94 846.66C1743.93 844.757 1753.72 831.876 1751.82 817.89L1740.15 732.146Z" fill="white" stroke="black" stroke-width="3.89154"/>
<mask id="path-35-inside-1_217_636" fill="white">
<path fill-rule="evenodd" clip-rule="evenodd" d="M1617.68 751.449C1617.68 751.444 1617.68 751.441 1617.67 751.441C1617.26 751.497 1616.86 751.558 1616.45 751.625L1615.29 751.783C1615.28 751.784 1615.27 751.797 1615.27 751.811C1615.27 751.824 1615.27 751.837 1615.25 751.84C1610.34 752.787 1605.63 754.557 1601.3 757.081C1596.26 760.019 1591.85 763.921 1588.32 768.563C1584.79 773.205 1582.21 778.497 1580.73 784.137C1579.24 789.776 1578.88 795.653 1579.67 801.431C1580.45 807.21 1582.37 812.777 1585.31 817.815C1588.25 822.852 1592.15 827.262 1596.79 830.792C1601.43 834.322 1606.72 836.903 1612.36 838.388C1617.35 839.701 1622.53 840.134 1627.65 839.672C1627.67 839.671 1627.68 839.679 1627.68 839.692C1627.68 839.704 1627.69 839.713 1627.71 839.711L1630.26 839.364C1631.68 839.17 1632.68 837.858 1632.49 836.434L1631.11 826.315C1630.82 824.209 1628.88 822.734 1626.78 823.02C1623.37 823.404 1619.92 823.154 1616.6 822.28C1613.08 821.352 1609.77 819.739 1606.87 817.534C1603.97 815.328 1601.53 812.572 1599.7 809.424C1597.86 806.275 1596.66 802.796 1596.17 799.185C1595.68 795.574 1595.9 791.901 1596.83 788.377C1597.76 784.853 1599.37 781.546 1601.58 778.645C1603.79 775.744 1606.54 773.306 1609.69 771.47C1612.11 770.06 1614.68 768.737 1617.41 768.198C1617.46 768.188 1617.51 768.223 1617.51 768.274C1617.52 768.323 1617.57 768.357 1617.61 768.35L1620.54 767.952C1622.21 767.725 1623.38 766.19 1623.15 764.523L1621.55 752.775C1621.42 751.775 1620.49 751.075 1619.49 751.211L1617.69 751.456C1617.69 751.457 1617.68 751.454 1617.68 751.449Z"/>
</mask>
<path fill-rule="evenodd" clip-rule="evenodd" d="M1617.68 751.449C1617.68 751.444 1617.68 751.441 1617.67 751.441C1617.26 751.497 1616.86 751.558 1616.45 751.625L1615.29 751.783C1615.28 751.784 1615.27 751.797 1615.27 751.811C1615.27 751.824 1615.27 751.837 1615.25 751.84C1610.34 752.787 1605.63 754.557 1601.3 757.081C1596.26 760.019 1591.85 763.921 1588.32 768.563C1584.79 773.205 1582.21 778.497 1580.73 784.137C1579.24 789.776 1578.88 795.653 1579.67 801.431C1580.45 807.21 1582.37 812.777 1585.31 817.815C1588.25 822.852 1592.15 827.262 1596.79 830.792C1601.43 834.322 1606.72 836.903 1612.36 838.388C1617.35 839.701 1622.53 840.134 1627.65 839.672C1627.67 839.671 1627.68 839.679 1627.68 839.692C1627.68 839.704 1627.69 839.713 1627.71 839.711L1630.26 839.364C1631.68 839.17 1632.68 837.858 1632.49 836.434L1631.11 826.315C1630.82 824.209 1628.88 822.734 1626.78 823.02C1623.37 823.404 1619.92 823.154 1616.6 822.28C1613.08 821.352 1609.77 819.739 1606.87 817.534C1603.97 815.328 1601.53 812.572 1599.7 809.424C1597.86 806.275 1596.66 802.796 1596.17 799.185C1595.68 795.574 1595.9 791.901 1596.83 788.377C1597.76 784.853 1599.37 781.546 1601.58 778.645C1603.79 775.744 1606.54 773.306 1609.69 771.47C1612.11 770.06 1614.68 768.737 1617.41 768.198C1617.46 768.188 1617.51 768.223 1617.51 768.274C1617.52 768.323 1617.57 768.357 1617.61 768.35L1620.54 767.952C1622.21 767.725 1623.38 766.19 1623.15 764.523L1621.55 752.775C1621.42 751.775 1620.49 751.075 1619.49 751.211L1617.69 751.456C1617.69 751.457 1617.68 751.454 1617.68 751.449Z" fill="white"/>
<path d="M1616.45 751.625L1617.08 755.465L1617.03 755.474L1616.98 755.481L1616.45 751.625ZM1601.3 757.081L1599.34 753.72L1599.34 753.72L1601.3 757.081ZM1588.32 768.563L1591.42 770.918L1591.42 770.918L1588.32 768.563ZM1580.73 784.137L1576.96 783.146L1580.73 784.137ZM1585.31 817.815L1581.95 819.775L1585.31 817.815ZM1596.79 830.792L1594.43 833.89L1596.79 830.792ZM1612.36 838.388L1613.35 834.624L1613.35 834.624L1612.36 838.388ZM1616.6 822.28L1615.61 826.044L1615.61 826.044L1616.6 822.28ZM1599.7 809.424L1596.34 811.384L1596.34 811.384L1599.7 809.424ZM1596.83 788.377L1593.07 787.386L1596.83 788.377ZM1601.58 778.645L1604.68 781L1604.68 781L1601.58 778.645ZM1609.69 771.47L1607.73 768.108L1607.73 768.108L1609.69 771.47ZM1615.25 751.84L1615.99 755.661L1615.25 751.84ZM1617.41 768.198L1618.16 772.016L1617.41 768.198ZM1617.67 751.441L1617.15 747.585L1617.67 751.441ZM1627.65 839.672L1628 843.548L1627.65 839.672ZM1615.82 747.785C1616.26 747.712 1616.7 747.646 1617.15 747.585L1618.2 755.297C1617.83 755.348 1617.45 755.404 1617.08 755.465L1615.82 747.785ZM1614.77 747.927L1615.93 747.769L1616.98 755.481L1615.82 755.638L1614.77 747.927ZM1599.34 753.72C1604.04 750.975 1609.18 749.049 1614.52 748.019L1615.99 755.661C1611.51 756.525 1607.21 758.14 1603.26 760.443L1599.34 753.72ZM1585.22 766.207C1589.06 761.158 1593.86 756.915 1599.34 753.72L1603.26 760.443C1598.66 763.124 1594.64 766.683 1591.42 770.918L1585.22 766.207ZM1576.96 783.146C1578.58 777.012 1581.38 771.256 1585.22 766.207L1591.42 770.918C1588.2 775.154 1585.84 779.982 1584.49 785.127L1576.96 783.146ZM1575.81 801.956C1574.96 795.671 1575.35 789.28 1576.96 783.146L1584.49 785.127C1583.13 790.273 1582.81 795.635 1583.52 800.907L1575.81 801.956ZM1581.95 819.775C1578.75 814.296 1576.67 808.241 1575.81 801.956L1583.52 800.907C1584.24 806.179 1585.99 811.258 1588.67 815.854L1581.95 819.775ZM1594.43 833.89C1589.39 830.05 1585.14 825.254 1581.95 819.775L1588.67 815.854C1591.35 820.45 1594.91 824.474 1599.15 827.694L1594.43 833.89ZM1611.37 842.151C1605.24 840.536 1599.48 837.729 1594.43 833.89L1599.15 827.694C1603.38 830.915 1608.21 833.27 1613.35 834.624L1611.37 842.151ZM1628 843.548C1622.43 844.05 1616.8 843.579 1611.37 842.151L1613.35 834.624C1617.91 835.822 1622.63 836.217 1627.3 835.796L1628 843.548ZM1627.18 835.855L1629.74 835.508L1630.79 843.22L1628.23 843.567L1627.18 835.855ZM1628.63 836.959L1627.25 826.84L1634.97 825.79L1636.34 835.91L1628.63 836.959ZM1617.6 818.517C1620.45 819.268 1623.41 819.483 1626.34 819.153L1627.21 826.887C1623.33 827.325 1619.4 827.04 1615.61 826.044L1617.6 818.517ZM1609.23 814.436C1611.72 816.332 1614.57 817.719 1617.6 818.517L1615.61 826.044C1611.6 824.986 1607.82 823.146 1604.52 820.631L1609.23 814.436ZM1603.06 807.463C1604.64 810.17 1606.73 812.539 1609.23 814.436L1604.52 820.631C1601.21 818.116 1598.43 814.974 1596.34 811.384L1603.06 807.463ZM1600.03 798.66C1600.45 801.765 1601.48 804.756 1603.06 807.463L1596.34 811.384C1594.24 807.794 1592.88 803.828 1592.32 799.71L1600.03 798.66ZM1600.6 789.368C1599.8 792.398 1599.61 795.556 1600.03 798.66L1592.32 799.71C1591.76 795.593 1592.01 791.405 1593.07 787.386L1600.6 789.368ZM1604.68 781C1602.78 783.494 1601.39 786.338 1600.6 789.368L1593.07 787.386C1594.13 783.368 1595.97 779.597 1598.48 776.289L1604.68 781ZM1611.65 774.831C1608.94 776.41 1606.57 778.506 1604.68 781L1598.48 776.289C1601 772.981 1604.14 770.201 1607.73 768.108L1611.65 774.831ZM1618.16 772.016C1616.11 772.422 1614 773.458 1611.65 774.831L1607.73 768.108C1610.21 766.662 1613.25 765.052 1616.65 764.38L1618.16 772.016ZM1621.07 771.808L1618.14 772.206L1617.09 764.494L1620.02 764.096L1621.07 771.808ZM1625.41 752.25L1627.01 763.999L1619.29 765.048L1617.7 753.3L1625.41 752.25ZM1617.17 747.6L1618.97 747.355L1620.02 755.067L1618.22 755.312L1617.17 747.6ZM1618.22 755.312C1616.08 755.603 1614.12 754.108 1613.83 751.974L1621.54 750.924C1621.25 748.799 1619.29 747.311 1617.17 747.6L1618.22 755.312ZM1619.13 751.286C1619.41 753.349 1618.03 755.267 1615.99 755.661L1614.52 748.019C1612.5 748.407 1611.14 750.3 1611.42 752.336L1619.13 751.286ZM1617.7 753.3C1617.85 754.43 1618.89 755.221 1620.02 755.067L1618.97 747.355C1622.1 746.929 1624.98 749.121 1625.41 752.25L1617.7 753.3ZM1615.82 755.638C1617.94 755.351 1619.42 753.402 1619.13 751.286L1611.42 752.336C1611.13 750.192 1612.63 748.218 1614.77 747.927L1615.82 755.638ZM1620.02 764.096C1619.56 764.159 1619.23 764.585 1619.29 765.048L1627.01 763.999C1627.52 767.795 1624.86 771.291 1621.07 771.808L1620.02 764.096ZM1627.25 826.84C1627.25 826.838 1627.25 826.84 1627.26 826.844C1627.26 826.848 1627.26 826.853 1627.26 826.857C1627.27 826.864 1627.27 826.867 1627.27 826.868C1627.27 826.869 1627.28 826.871 1627.28 826.874C1627.29 826.875 1627.29 826.876 1627.3 826.876C1627.3 826.876 1627.3 826.876 1627.3 826.876L1626.25 819.164C1630.49 818.588 1634.39 821.554 1634.97 825.79L1627.25 826.84ZM1616.65 764.38C1618.92 763.933 1621.06 765.495 1621.37 767.749L1613.66 768.799C1613.95 770.951 1616 772.443 1618.16 772.016L1616.65 764.38ZM1621.37 767.749C1621.09 765.668 1619.17 764.211 1617.09 764.494L1618.14 772.206C1615.96 772.503 1613.95 770.977 1613.66 768.799L1621.37 767.749ZM1617.15 747.585C1619.28 747.294 1621.25 748.79 1621.54 750.924L1613.83 751.974C1614.12 754.098 1616.07 755.587 1618.2 755.297L1617.15 747.585ZM1631.54 839.167C1631.25 837.05 1629.3 835.567 1627.18 835.855L1628.23 843.567C1626.09 843.859 1624.11 842.359 1623.82 840.216L1631.54 839.167ZM1629.74 835.508C1629.03 835.604 1628.54 836.254 1628.63 836.959L1636.34 835.91C1636.83 839.463 1634.34 842.736 1630.79 843.22L1629.74 835.508ZM1627.3 835.796C1629.39 835.608 1631.25 837.091 1631.54 839.167L1623.82 840.216C1624.1 842.268 1625.95 843.733 1628 843.548L1627.3 835.796Z" fill="black" mask="url(#path-35-inside-1_217_636)"/>
<path d="M1488.15 798.354L1519.66 755.606C1528.96 747.696 1554.4 736.926 1581.8 757.126C1587.86 761.595 1592.69 766.053 1596.51 770.367C1605.35 780.352 1610.41 792.312 1611.2 799.104C1611.61 802.643 1610.89 808.573 1610.26 810.564C1606.42 820.684 1596.2 840.301 1579.05 828.746C1561.9 817.19 1550.7 794.003 1548.74 787.884L1488.15 798.354Z" fill="#978172"/>
<path d="M1596.51 770.367C1592.69 766.053 1587.86 761.595 1581.8 757.126C1554.4 736.926 1528.96 747.696 1519.66 755.606L1488.15 798.354L1548.74 787.884C1550.7 794.003 1561.9 817.19 1579.05 828.746C1596.2 840.301 1606.42 820.684 1610.26 810.564C1610.89 808.573 1611.61 802.643 1611.2 799.104M1596.51 770.367C1588.53 774.83 1574.57 786.316 1582.57 796.551C1590.57 806.785 1605.54 803.433 1611.2 799.104M1596.51 770.367C1605.35 780.352 1610.41 792.312 1611.2 799.104" stroke="black" stroke-width="3.89154"/>
<path d="M1478.44 813.094L1493.42 793.617L1553.39 780.092L1547.07 790.923L1478.44 813.094Z" fill="#978172"/>
<path d="M615.399 875.541L641.38 855.379C671.611 869.842 693.82 897.075 701.884 929.646L703.271 935.247L677.346 955.366L615.399 875.541Z" fill="#508664" stroke="black" stroke-width="3.89154"/>
<path d="M612.958 1024.72C646.276 1024.63 675.767 994.514 686.348 979.466L685.97 970.632C683.686 917.247 646.01 871.97 593.929 860.023L513.593 895.329L526.584 928.272L539.06 981.357L612.958 1024.72Z" fill="#978172" stroke="black" stroke-width="3.89154"/>
<path d="M553.504 988.218C543.285 993.457 525.773 1011.36 537.486 1041.06C549.198 1070.76 576.465 1067.38 588.634 1061.98L612.573 1043.78L633.834 1027.61C635.493 1026.35 636.39 1024.29 635.944 1022.26C634.092 1013.82 628.513 1001.72 616.584 1002.62C602.968 1003.64 577.793 1016.1 566.908 1022.21L553.504 988.218Z" fill="#978172"/>
<path d="M612.573 1043.78L588.634 1061.98C576.465 1067.38 549.198 1070.76 537.486 1041.06C525.773 1011.36 543.285 993.457 553.504 988.218L566.908 1022.21C577.793 1016.1 602.968 1003.64 616.584 1002.62C628.513 1001.72 634.092 1013.82 635.944 1022.26C636.39 1024.29 635.493 1026.35 633.834 1027.61V1027.61M612.573 1043.78C609.936 1041.42 605.181 1035.08 607.259 1028.61C609.336 1022.14 617.964 1017.77 622.018 1016.4C624.537 1016.43 630.426 1018.72 633.834 1027.61M612.573 1043.78L633.834 1027.61" stroke="black" stroke-width="3.89154"/>
<path d="M547.863 953.346C561.597 953.133 591.54 946.364 601.437 921.002" stroke="#978172" stroke-width="3.89154"/>
<path d="M522.766 968.816C512.546 974.054 495.035 991.957 506.747 1021.66C518.46 1051.36 545.726 1047.98 557.896 1042.57L581.835 1024.37L603.095 1008.21C604.755 1006.95 605.652 1004.89 605.205 1002.86C603.354 994.414 597.775 982.322 585.846 983.215C572.23 984.234 547.055 996.699 536.17 1002.8L522.766 968.816Z" fill="#978172"/>
<path d="M581.835 1024.37L557.896 1042.57C545.726 1047.98 518.46 1051.36 506.747 1021.66C495.035 991.957 512.546 974.054 522.766 968.816L536.17 1002.8C547.055 996.699 572.23 984.234 585.846 983.215C597.775 982.322 603.354 994.414 605.205 1002.86C605.652 1004.89 604.755 1006.95 603.095 1008.21V1008.21M581.835 1024.37C579.198 1022.01 574.443 1015.68 576.52 1009.21C578.598 1002.74 587.226 998.369 591.28 996.995C593.799 997.029 599.688 999.319 603.095 1008.21M581.835 1024.37L603.095 1008.21" stroke="black" stroke-width="3.89154"/>
<path d="M496.083 952.581C485.863 957.82 468.351 975.723 480.064 1005.42C491.776 1035.12 519.043 1031.74 531.212 1026.34L555.151 1008.14L576.412 991.973C578.071 990.712 578.968 988.658 578.522 986.621C576.67 978.18 571.091 966.087 559.162 966.98C545.546 967.999 520.371 980.465 509.486 986.57L496.083 952.581Z" fill="#978172"/>
<path d="M555.151 1008.14L531.212 1026.34C519.043 1031.74 491.776 1035.12 480.064 1005.42C468.351 975.723 485.863 957.82 496.083 952.581L509.486 986.57C520.371 980.465 545.546 967.999 559.162 966.98C571.091 966.087 576.67 978.18 578.522 986.621C578.968 988.658 578.071 990.712 576.412 991.973V991.973M555.151 1008.14C552.514 1005.78 547.759 999.444 549.837 992.973C551.914 986.502 560.542 982.135 564.596 980.76C567.115 980.794 573.004 983.084 576.412 991.973M555.151 1008.14L576.412 991.973" stroke="black" stroke-width="3.89154"/>
<path d="M439.467 962.122C467.77 947.347 496.229 926.155 506.449 920.916L525.685 938.752C525.685 938.752 546.92 956.467 537.291 966.148C523.071 980.443 494.744 1002.25 465.138 1022.14C447.682 1033.87 423.362 1047.59 406.151 1056.98C392.552 1064.4 377.042 1067.41 361.615 1065.99C335.73 1063.62 326.458 1030.54 347.34 1015.07L359.274 1006.22C362.811 1003.6 366.519 1001.23 370.387 999.125C383.614 991.936 416.622 974.048 439.467 962.122Z" fill="#978172" stroke="black" stroke-width="3.89154"/>
<path d="M559.662 875.483L510.259 894.966C500.228 901.919 483.289 923.744 495.779 955.416C498.543 962.423 501.612 968.233 504.802 973.03C512.184 984.131 522.444 992.096 528.806 994.603C532.121 995.909 538.038 996.732 540.122 996.64C550.89 995.522 572.474 990.674 565.707 971.134C558.94 951.594 539.401 934.825 533.992 931.353L559.662 875.483Z" fill="#978172"/>
<path d="M504.802 973.03C501.612 968.233 498.543 962.423 495.779 955.416C483.289 923.744 500.228 901.919 510.259 894.966L559.662 875.483L533.992 931.353C539.401 934.825 558.94 951.594 565.707 971.134C572.474 990.674 550.89 995.522 540.122 996.64C538.038 996.732 532.121 995.909 528.806 994.603M504.802 973.03C511.164 966.461 525.848 955.914 533.687 966.273C541.526 976.632 534.444 990.24 528.806 994.603M504.802 973.03C512.184 984.131 522.444 992.096 528.806 994.603" stroke="black" stroke-width="3.89154"/>
<path d="M576.395 869.882L553.727 879.362L525.264 933.85L537.355 930.518L576.395 869.882Z" fill="#978172"/>
<path fill-rule="evenodd" clip-rule="evenodd" d="M1023.16 842.799C1020.44 855.053 1024.88 867.225 1033.69 874.958C1035.2 876.283 1035.86 878.388 1035.13 880.259L1020.51 917.717C1019.91 919.254 1020.21 921.015 1021.4 922.162C1031.66 932.086 1046.79 935.337 1060.33 930.32C1061.46 929.899 1062.32 928.956 1062.63 927.788L1076.23 877.061C1076.46 876.174 1076.98 875.39 1077.67 874.78C1082.71 870.297 1086.44 864.24 1088.01 857.147C1091.97 839.239 1080.67 821.509 1062.76 817.546C1051.32 815.017 1039.96 818.71 1032.21 826.37C1031.43 827.14 1030.2 827.256 1029.34 826.585L1027.51 825.169C1027.51 825.162 1027.49 825.164 1027.49 825.174C1027.48 825.183 1027.47 825.185 1027.46 825.179C1026.73 824.673 1025.89 824.297 1024.96 824.093C1021.15 823.249 1017.37 825.657 1016.53 829.471C1015.83 832.629 1017.36 835.762 1020.08 837.224C1020.08 837.226 1020.08 837.23 1020.08 837.233C1020.08 837.237 1020.08 837.241 1020.08 837.243L1020.35 837.365C1020.45 837.415 1020.56 837.463 1020.67 837.508C1022.65 838.406 1023.63 840.676 1023.16 842.799Z" fill="#978172"/>
<path d="M1020.35 837.365L1021.15 835.593L1021.18 835.603L1021.2 835.613L1020.35 837.365ZM1020.08 837.243L1020.88 835.47L1020.08 837.243ZM1027.46 825.179L1028.57 823.579L1027.46 825.179ZM1027.51 825.169L1028.71 823.632L1027.51 825.169ZM1029.34 826.585L1030.53 825.047L1029.34 826.585ZM1062.63 927.788L1064.51 928.292L1062.63 927.788ZM1020.08 837.224L1019.15 838.937L1020.08 837.224ZM1021.4 922.162L1022.75 920.763L1021.4 922.162ZM1077.67 874.78L1076.37 873.326L1077.67 874.78ZM1033.69 874.958L1032.41 876.42L1033.69 874.958ZM1035.13 880.259L1033.32 879.551L1035.13 880.259ZM1032.41 876.42C1023.09 868.238 1018.39 855.354 1021.26 842.378L1025.06 843.219C1022.5 854.753 1026.68 866.212 1034.98 873.495L1032.41 876.42ZM1018.7 917.009L1033.32 879.551L1036.94 880.966L1022.32 918.424L1018.7 917.009ZM1061 932.144C1046.76 937.423 1030.84 934.002 1020.04 923.561L1022.75 920.763C1032.48 930.17 1046.82 933.251 1059.65 928.495L1061 932.144ZM1078.1 877.565L1064.51 928.292L1060.75 927.284L1074.35 876.558L1078.1 877.565ZM1089.91 857.568C1088.25 865.074 1084.3 871.488 1078.96 876.234L1076.37 873.326C1081.12 869.106 1084.63 863.407 1086.11 856.727L1089.91 857.568ZM1063.18 815.646C1082.14 819.841 1094.1 838.61 1089.91 857.568L1086.11 856.727C1089.84 839.868 1079.2 823.176 1062.34 819.446L1063.18 815.646ZM1030.85 824.986C1039.05 816.881 1051.07 812.968 1063.18 815.646L1062.34 819.446C1051.58 817.065 1040.88 820.538 1033.58 827.754L1030.85 824.986ZM1028.71 823.632L1030.53 825.047L1028.15 828.122L1026.32 826.706L1028.71 823.632ZM1025.38 822.193C1026.56 822.452 1027.63 822.932 1028.57 823.579L1026.35 826.779C1025.82 826.414 1025.22 826.141 1024.54 825.993L1025.38 822.193ZM1014.63 829.05C1015.71 824.187 1020.52 821.117 1025.38 822.193L1024.54 825.993C1021.78 825.381 1019.04 827.126 1018.43 829.891L1014.63 829.05ZM1019.15 838.937C1015.69 837.072 1013.74 833.081 1014.63 829.05L1018.43 829.891C1017.92 832.178 1019.03 834.451 1021 835.512L1019.15 838.937ZM1019.55 839.137L1019.28 839.015L1020.88 835.47L1021.15 835.593L1019.55 839.137ZM1019.91 839.3C1019.77 839.242 1019.64 839.181 1019.5 839.117L1021.2 835.613C1021.27 835.65 1021.35 835.684 1021.43 835.717L1019.91 839.3ZM1021.47 835.736C1024.39 837.06 1025.7 840.31 1025.06 843.219L1021.26 842.378C1021.55 841.041 1020.91 839.753 1019.86 839.281L1021.47 835.736ZM1021.74 838.252C1022.35 837.258 1021.95 835.953 1020.88 835.47L1019.28 839.015C1018.21 838.529 1017.81 837.215 1018.42 836.214L1021.74 838.252ZM1029.14 826.192C1028.55 827.155 1027.28 827.419 1026.35 826.779L1028.57 823.579C1027.66 822.952 1026.41 823.211 1025.83 824.155L1029.14 826.192ZM1026.32 826.706C1027.23 827.409 1028.54 827.17 1029.14 826.192L1025.83 824.155C1026.44 823.159 1027.78 822.915 1028.71 823.632L1026.32 826.706ZM1033.58 827.754C1032.16 829.16 1029.84 829.434 1028.15 828.122L1030.53 825.047C1030.56 825.067 1030.59 825.083 1030.65 825.078C1030.72 825.073 1030.79 825.044 1030.85 824.986L1033.58 827.754ZM1059.65 928.495C1060.19 928.294 1060.6 927.843 1060.75 927.284L1064.51 928.292C1064.03 930.069 1062.73 931.505 1061 932.144L1059.65 928.495ZM1021 835.512C1021.98 836.04 1022.33 837.29 1021.74 838.252L1018.42 836.214C1017.83 837.17 1018.18 838.412 1019.15 838.937L1021 835.512ZM1022.32 918.424C1021.98 919.307 1022.18 920.216 1022.75 920.763L1020.04 923.561C1018.24 921.814 1017.84 919.201 1018.7 917.009L1022.32 918.424ZM1074.35 876.558C1074.69 875.263 1075.44 874.16 1076.37 873.326L1078.96 876.234C1078.52 876.621 1078.23 877.085 1078.1 877.565L1074.35 876.558ZM1034.98 873.495C1037.01 875.282 1038.01 878.228 1036.94 880.966L1033.32 879.551C1033.71 878.548 1033.39 877.284 1032.41 876.42L1034.98 873.495Z" fill="black"/>
<path d="M1098.51 789.089C1093.84 810.195 1107.16 831.092 1128.27 835.762C1149.38 840.431 1170.27 827.107 1174.94 806C1179.61 784.893 1166.29 763.997 1145.18 759.327C1124.07 754.657 1103.18 767.982 1098.51 789.089Z" fill="black" stroke="black" stroke-width="3.89154"/>
<path d="M1087.93 860.561C1089.93 859.665 1090.9 858.55 1092.44 856.794C1093.14 855.998 1093.95 855.07 1095.02 853.971C1098.45 850.465 1100.96 846.169 1102.33 841.462C1103.7 836.755 1103.89 831.782 1102.87 826.985C1101.86 822.188 1099.69 817.715 1096.53 813.961C1093.38 810.207 1089.35 807.288 1084.8 805.464C1080.25 803.639 1075.32 802.965 1070.45 803.5C1065.57 804.036 1060.91 805.766 1056.86 808.535C1053.35 810.941 1050.4 814.069 1048.2 817.7C1065.73 827.303 1079.67 842.341 1087.93 860.561Z" fill="black" stroke="black" stroke-width="3.89154"/>
<path d="M1163.71 809.221C1165.06 806.679 1165.72 803.86 1165.98 801.187C1166.72 793.821 1164.75 786.243 1160.6 780.119C1159.38 778.322 1157.92 776.662 1156.22 775.521" stroke="white" stroke-width="3.89154" stroke-linecap="round"/>
<path d="M1094.9 839.654C1096.54 836.597 1096.93 834.117 1096.65 830.482V830.482C1096.24 825.254 1093.87 819.508 1089.09 817.355C1088.72 817.187 1088.33 817.047 1087.91 816.94" stroke="white" stroke-width="3.89154" stroke-linecap="round"/>
<circle cx="5.03048" cy="5.03048" r="5.03048" transform="matrix(-0.976388 -0.216025 -0.216025 0.976388 1051.34 829.092)" fill="black"/>
<circle cx="5.03048" cy="5.03048" r="5.03048" transform="matrix(-0.976388 -0.216025 -0.216025 0.976388 1015.38 819.15)" fill="black"/>
<path d="M822.879 1360.14L798.702 1557.65C797.959 1563.71 792.441 1568.02 786.377 1567.28C780.312 1566.54 775.998 1561.02 776.74 1554.96L800.918 1357.45L822.879 1360.14Z" fill="white" stroke="black" stroke-width="3.89154"/>
<path d="M1022.89 1360.14L1047.07 1557.65C1047.81 1563.71 1053.33 1568.02 1059.39 1567.28C1065.46 1566.54 1069.77 1561.02 1069.03 1554.96L1044.85 1357.45L1022.89 1360.14Z" fill="white" stroke="black" stroke-width="3.89154"/>
<path d="M881.763 1290.74L881.775 1290.74L881.788 1290.74C911.892 1289.68 938.462 1270.76 949.323 1242.67L963.142 1206.92L982.054 1160.69C983.105 1158.13 983.617 1156.87 984.159 1155.64C986.555 1150.19 989.412 1144.96 992.699 1140C993.443 1138.87 994.219 1137.77 995.81 1135.5L999.321 1130.48C1005.6 1121.52 1013.44 1113.77 1022.47 1107.6C1040.19 1095.49 1064.16 1098.43 1078.44 1114.45L1080.58 1116.86C1101.47 1140.3 1113.01 1170.6 1113.01 1201.99V1291.17C1113.01 1296.25 1113.01 1298.72 1112.9 1300.8C1110.76 1341.85 1077.96 1374.66 1036.9 1376.8C1034.82 1376.91 1032.36 1376.91 1027.27 1376.91H776.785C759.952 1351.51 759.957 1318.49 776.8 1293.09L881.763 1290.74Z" fill="white" stroke="black" stroke-width="3.89154"/>
<path d="M334.643 1116.26C334.643 1097.28 350.029 1081.89 369.009 1081.89H373.995C392.976 1081.89 408.362 1097.28 408.362 1116.26C408.362 1123.93 402.142 1130.15 394.468 1130.15H348.537C340.863 1130.15 334.643 1123.93 334.643 1116.26Z" fill="white" stroke="black" stroke-width="3.89154"/>
<path d="M371.502 1081.9V1099.96" stroke="black" stroke-width="3.89154"/>
</svg>
