<svg width="1920" height="835" viewBox="0 0 1920 835" fill="none" xmlns="http://www.w3.org/2000/svg">
<g clip-path="url(#clip0_1523_126)">
<rect width="1920" height="835" fill="#E3BE63"/>
<path d="M131.807 123.845L179.333 599.953C179.612 602.754 177.413 605.184 174.598 605.184H79.546C76.7314 605.184 74.5319 602.754 74.8115 599.953L122.338 123.845C122.908 118.131 131.236 118.131 131.807 123.845Z" fill="#508664" stroke="black" stroke-width="2.16"/>
<path d="M208.2 454.435L224.194 614.665C224.474 617.465 222.274 619.895 219.46 619.895H187.471C184.656 619.895 182.457 617.465 182.736 614.665L198.731 454.435C199.301 448.721 207.629 448.721 208.2 454.435Z" fill="#508664" stroke="black" stroke-width="2.16"/>
<path d="M7.83436 296.302L64.1868 668.167C64.6231 671.046 62.3943 673.638 59.4826 673.638H-10.3553C-13.0268 673.638 -15.1747 671.439 -15.1119 668.768L-10.444 470.067L-10.4432 470.052L-1.62175 296.773C-1.33013 291.045 6.97499 290.631 7.83436 296.302Z" fill="#508664" stroke="black" stroke-width="2.16"/>
<path d="M259.158 296.302L202.805 668.167C202.369 671.046 204.598 673.638 207.51 673.638H277.347C280.019 673.638 282.167 671.439 282.104 668.768L277.436 470.067L277.435 470.052L268.614 296.773C268.322 291.045 260.017 290.631 259.158 296.302Z" fill="#508664" stroke="black" stroke-width="2.16"/>
<path d="M196.941 628.181H133.779C130.891 628.181 128.669 625.628 129.067 622.767L153.928 444.207C153.966 443.934 154.028 443.665 154.112 443.403L196.085 313.204C197.834 307.778 205.909 309.459 205.348 315.133L192.7 443.015C192.666 443.357 192.657 443.701 192.675 444.044L201.693 623.184C201.83 625.902 199.663 628.181 196.941 628.181Z" fill="#508664" stroke="black" stroke-width="2.16"/>
<path d="M30.7169 628.18H146.084C148.973 628.18 151.195 625.627 150.796 622.766L108.176 316.656C108.138 316.383 108.076 316.114 107.992 315.852L25.5899 60.2414C23.8407 54.8153 15.7654 56.4961 16.3265 62.1696L41.3796 315.464C41.4134 315.806 41.4217 316.15 41.4044 316.493L25.965 623.183C25.8281 625.901 27.9952 628.18 30.7169 628.18Z" fill="#508664" stroke="black" stroke-width="2.16"/>
<mask id="path-7-inside-1_1523_126" fill="white">
<path fill-rule="evenodd" clip-rule="evenodd" d="M268.763 724.562C308.175 685.149 330.317 631.695 330.317 575.957H120.158L-90 575.957C-90 631.695 -67.8584 685.149 -28.446 724.562C-21.8449 731.163 -14.85 737.279 -7.51633 742.888H247.833C255.167 737.279 262.162 731.163 268.763 724.562Z"/>
</mask>
<path fill-rule="evenodd" clip-rule="evenodd" d="M268.763 724.562C308.175 685.149 330.317 631.695 330.317 575.957H120.158L-90 575.957C-90 631.695 -67.8584 685.149 -28.446 724.562C-21.8449 731.163 -14.85 737.279 -7.51633 742.888H247.833C255.167 737.279 262.162 731.163 268.763 724.562Z" fill="#EEEEEE"/>
<path d="M330.317 575.957H332.477V573.797H330.317V575.957ZM120.158 575.957L120.158 573.797H120.158L120.158 575.957ZM-90 575.957L-90 573.797L-92.16 573.797L-92.16 575.957L-90 575.957ZM-7.51633 742.888L-8.82859 744.604L-8.24768 745.048H-7.51633V742.888ZM247.833 742.888V745.048H248.565L249.146 744.604L247.833 742.888ZM328.157 575.957C328.157 631.122 306.243 684.027 267.236 723.034L270.29 726.089C310.108 686.271 332.477 632.267 332.477 575.957H328.157ZM120.158 578.117H330.317V573.797H120.158V578.117ZM-90 578.117L120.158 578.117L120.158 573.797L-90 573.797L-90 578.117ZM-26.9186 723.034C-65.9259 684.027 -87.84 631.122 -87.84 575.957L-92.16 575.957C-92.16 632.267 -69.7908 686.271 -29.9733 726.089L-26.9186 723.034ZM-6.20406 741.173C-13.4623 735.621 -20.3853 729.567 -26.9186 723.034L-29.9733 726.089C-23.3045 732.758 -16.2377 738.937 -8.82859 744.604L-6.20406 741.173ZM-7.51633 745.048H247.833V740.728H-7.51633V745.048ZM267.236 723.034C260.702 729.567 253.779 735.621 246.521 741.173L249.146 744.604C256.555 738.937 263.621 732.758 270.29 726.089L267.236 723.034Z" fill="black" mask="url(#path-7-inside-1_1523_126)"/>
<mask id="path-9-inside-2_1523_126" fill="white">
<path fill-rule="evenodd" clip-rule="evenodd" d="M332.945 341.115C338.171 342.14 343.237 338.734 344.262 333.508C345.286 328.282 341.88 323.216 336.654 322.192L304.039 315.799C298.814 314.775 293.747 318.181 292.723 323.406C291.699 328.632 295.105 333.698 300.33 334.723L332.945 341.115ZM321.329 330.243C321.874 328.21 320.667 326.12 318.634 325.575L305.657 322.098C303.624 321.553 301.534 322.76 300.989 324.793C300.444 326.827 301.651 328.917 303.684 329.462L316.66 332.939C318.694 333.483 320.784 332.277 321.329 330.243Z"/>
</mask>
<path fill-rule="evenodd" clip-rule="evenodd" d="M332.945 341.115C338.171 342.14 343.237 338.734 344.262 333.508C345.286 328.282 341.88 323.216 336.654 322.192L304.039 315.799C298.814 314.775 293.747 318.181 292.723 323.406C291.699 328.632 295.105 333.698 300.33 334.723L332.945 341.115ZM321.329 330.243C321.874 328.21 320.667 326.12 318.634 325.575L305.657 322.098C303.624 321.553 301.534 322.76 300.989 324.793C300.444 326.827 301.651 328.917 303.684 329.462L316.66 332.939C318.694 333.483 320.784 332.277 321.329 330.243Z" fill="#EEEEEE"/>
<path d="M344.262 333.508L346.381 333.924L346.381 333.924L344.262 333.508ZM332.945 341.115L332.53 343.235L332.53 343.235L332.945 341.115ZM336.654 322.192L336.239 324.311L336.654 322.192ZM304.039 315.799L304.455 313.679L304.455 313.679L304.039 315.799ZM292.723 323.406L294.843 323.822L292.723 323.406ZM300.33 334.723L299.915 336.842L299.915 336.842L300.33 334.723ZM318.634 325.575L318.074 327.662L318.074 327.662L318.634 325.575ZM321.329 330.243L323.415 330.802L323.415 330.802L321.329 330.243ZM305.657 322.098L306.216 320.012L306.216 320.012L305.657 322.098ZM300.989 324.793L298.903 324.234L298.903 324.234L300.989 324.793ZM303.684 329.462L304.243 327.375L304.243 327.375L303.684 329.462ZM316.66 332.939L317.22 330.852L317.22 330.852L316.66 332.939ZM346.381 333.924C345.127 340.32 338.926 344.489 332.53 343.235L333.361 338.996C337.416 339.79 341.347 337.148 342.142 333.093L346.381 333.924ZM337.07 320.072C343.466 321.326 347.635 327.527 346.381 333.924L342.142 333.093C342.937 329.038 340.294 325.106 336.239 324.311L337.07 320.072ZM304.455 313.679L337.07 320.072L336.239 324.311L303.624 317.919L304.455 313.679ZM290.603 322.991C291.857 316.595 298.058 312.426 304.455 313.679L303.624 317.919C299.569 317.124 295.637 319.767 294.843 323.822L290.603 322.991ZM299.915 336.842C293.518 335.589 289.35 329.387 290.603 322.991L294.843 323.822C294.048 327.877 296.691 331.808 300.746 332.603L299.915 336.842ZM332.53 343.235L299.915 336.842L300.746 332.603L333.361 338.996L332.53 343.235ZM319.193 323.489C322.378 324.342 324.269 327.617 323.415 330.802L319.242 329.684C319.478 328.803 318.956 327.898 318.074 327.662L319.193 323.489ZM306.216 320.012L319.193 323.489L318.074 327.662L305.098 324.185L306.216 320.012ZM298.903 324.234C299.756 321.049 303.031 319.158 306.216 320.012L305.098 324.185C304.217 323.949 303.312 324.471 303.076 325.352L298.903 324.234ZM303.125 331.548C299.94 330.694 298.049 327.42 298.903 324.234L303.076 325.352C302.839 326.234 303.362 327.139 304.243 327.375L303.125 331.548ZM316.101 335.025L303.125 331.548L304.243 327.375L317.22 330.852L316.101 335.025ZM323.415 330.802C322.562 333.988 319.287 335.879 316.101 335.025L317.22 330.852C318.101 331.088 319.006 330.565 319.242 329.684L323.415 330.802Z" fill="black" mask="url(#path-9-inside-2_1523_126)"/>
<rect x="-1.08" y="1.08" width="153.199" height="416.208" rx="4.92" transform="matrix(-1 0 0 1 415.584 329.973)" fill="#EEEEEE" stroke="black" stroke-width="2.16"/>
<path d="M628.218 545.867L601.147 483.73C538.536 529.494 453.548 529.628 390.793 484.061L379.117 475.583C366.756 466.607 355.121 456.672 344.319 445.871L325.083 426.635C231.356 332.908 95.6881 294.563 -33.235 325.36L-33.2349 393.517L-2.18374 387.89C104.53 368.555 213.796 404.368 288.36 483.12L293.219 488.252C306.549 502.331 320.939 515.367 336.263 527.245C412.832 586.597 516.158 598.156 603.949 557.192L628.218 545.867Z" fill="#E3BE63" stroke="black" stroke-width="2.15738"/>
<path d="M673.734 545.814C657.764 562.594 628.461 563.089 615.806 561.238L611.526 556.825C585.664 530.156 580.811 489.492 599.671 457.486L655.895 433.799L666.319 456.104L687.051 456.104L697.516 532.143L673.734 545.814Z" fill="#E9B49B" stroke="black" stroke-width="2.15738"/>
<path d="M1134.38 545.869L1161.45 483.731C1224.06 529.496 1309.05 529.63 1371.81 484.063L1402.05 462.1L1501 370.357C1559.37 316.236 1639.86 292.847 1718.14 307.262L1718.14 364.053C1639.27 359.518 1562.4 390.008 1508.08 447.38L1469.38 488.254C1456.05 502.333 1441.66 515.369 1426.34 527.247C1349.77 586.599 1246.44 598.158 1158.65 557.194L1134.38 545.869Z" fill="#508664" stroke="black" stroke-width="2.15738"/>
<rect x="698.211" y="379.673" width="316.877" height="157.754" rx="28.92" transform="rotate(10.2241 698.211 379.673)" fill="#C4C4C4" stroke="black" stroke-width="2.16"/>
<rect x="702.834" y="386.352" width="111.296" height="146.248" rx="28.92" transform="rotate(10.2241 702.834 386.352)" fill="#EEEEEE" stroke="black" stroke-width="2.16"/>
<rect x="830.582" y="512.766" width="33.9082" height="34.024" rx="16.9541" transform="rotate(10.2241 830.582 512.766)" fill="#EEEEEE" stroke="black" stroke-width="2.16"/>
<rect x="876" y="520.958" width="33.9082" height="34.024" rx="16.9541" transform="rotate(10.2241 876 520.958)" fill="#EEEEEE" stroke="black" stroke-width="2.16"/>
<rect x="925.756" y="529.932" width="33.9082" height="34.024" rx="16.9541" transform="rotate(10.2241 925.756 529.932)" fill="#EEEEEE" stroke="black" stroke-width="2.16"/>
<rect x="838.68" y="467.872" width="33.9082" height="34.024" rx="16.9541" transform="rotate(10.2241 838.68 467.872)" fill="#EEEEEE" stroke="black" stroke-width="2.16"/>
<rect x="884.098" y="476.063" width="33.9082" height="34.024" rx="16.9541" transform="rotate(10.2241 884.098 476.063)" fill="#EEEEEE" stroke="black" stroke-width="2.16"/>
<rect x="933.854" y="485.038" width="33.9082" height="34.024" rx="16.9541" transform="rotate(10.2241 933.854 485.038)" fill="#EEEEEE" stroke="black" stroke-width="2.16"/>
<rect x="846.678" y="423.526" width="33.9082" height="34.024" rx="16.9541" transform="rotate(10.2241 846.678 423.526)" fill="#EEEEEE" stroke="black" stroke-width="2.16"/>
<rect x="819.289" y="418.587" width="14.4008" height="34.024" rx="7.20039" transform="rotate(10.2241 819.289 418.587)" fill="#EEEEEE" stroke="black" stroke-width="2.16"/>
<rect x="811.24" y="463.206" width="14.4008" height="34.024" rx="7.20039" transform="rotate(10.2241 811.24 463.206)" fill="#EEEEEE" stroke="black" stroke-width="2.16"/>
<rect x="803.193" y="507.825" width="14.4008" height="34.024" rx="7.20039" transform="rotate(10.2241 803.193 507.825)" fill="#EEEEEE" stroke="black" stroke-width="2.16"/>
<rect x="892.096" y="431.719" width="33.9082" height="34.024" rx="16.9541" transform="rotate(10.2241 892.096 431.719)" fill="#EEEEEE" stroke="black" stroke-width="2.16"/>
<rect x="941.852" y="440.692" width="33.9082" height="34.024" rx="16.9541" transform="rotate(10.2241 941.852 440.692)" fill="#EEEEEE" stroke="black" stroke-width="2.16"/>
<path d="M1088.86 546.629C1104.83 563.41 1134.13 563.904 1146.79 562.054L1151.07 557.641C1176.93 530.971 1181.78 490.308 1162.92 458.301L1106.7 434.615L1096.27 456.919L1075.43 488.591L1065.08 532.959L1088.86 546.629Z" fill="#978172" stroke="black" stroke-width="2.15738"/>
<path d="M1092.27 482.885C1100.25 491.057 1121.46 505.271 1142.43 496.748" stroke="black" stroke-width="2.15738"/>
<path fill-rule="evenodd" clip-rule="evenodd" d="M952.082 419.657L1131.97 470.975C1134.9 471.812 1136.74 474.717 1136.24 477.726L1124.72 547.19C1124.67 547.516 1124.59 547.832 1124.49 548.136C1123.04 552.415 1117.29 555.861 1112.83 555.129V555.129L927.418 524.679C923.508 524.037 920.91 520.281 921.689 516.397L939.553 427.248C939.558 427.22 939.564 427.192 939.57 427.164C940.61 422.328 947.326 418.3 952.082 419.657V419.657Z" fill="#C4C4C4"/>
<path d="M1131.97 470.975L1131.67 472.013L1131.67 472.013L1131.97 470.975ZM1136.24 477.726L1135.18 477.55L1135.18 477.55L1136.24 477.726ZM1124.72 547.19L1125.79 547.366L1125.79 547.366L1124.72 547.19ZM927.418 524.679L927.593 523.614L927.593 523.614L927.418 524.679ZM921.689 516.397L922.748 516.609L922.748 516.609L921.689 516.397ZM939.553 427.248L938.494 427.036L938.494 427.036L939.553 427.248ZM1124.49 548.136L1123.46 547.79L1124.49 548.136ZM1132.27 469.936L952.378 418.618L951.785 420.696L1131.67 472.013L1132.27 469.936ZM1137.31 477.903C1137.9 474.352 1135.73 470.924 1132.27 469.936L1131.67 472.013C1134.08 472.7 1135.59 475.082 1135.18 477.55L1137.31 477.903ZM1125.79 547.366L1137.31 477.903L1135.18 477.55L1123.66 547.013L1125.79 547.366ZM1125.51 548.482C1125.63 548.123 1125.72 547.751 1125.79 547.366L1123.66 547.013C1123.61 547.282 1123.55 547.541 1123.46 547.79L1125.51 548.482ZM927.243 525.745L1112.66 556.194L1113.01 554.063L927.593 523.614L927.243 525.745ZM920.63 516.184C919.731 520.668 922.73 525.004 927.243 525.745L927.593 523.614C924.286 523.071 922.089 519.894 922.748 516.609L920.63 516.184ZM938.494 427.036L920.63 516.184L922.748 516.609L940.612 427.46L938.494 427.036ZM938.514 426.937C938.507 426.97 938.5 427.003 938.494 427.036L940.612 427.46C940.616 427.437 940.621 427.414 940.626 427.391L938.514 426.937ZM940.626 427.391C941.063 425.359 942.745 423.36 944.988 422.014C947.23 420.669 949.786 420.125 951.785 420.696L952.378 418.618C949.621 417.832 946.441 418.624 943.877 420.162C941.312 421.701 939.117 424.133 938.514 426.937L940.626 427.391ZM1123.46 547.79C1122.84 549.621 1121.26 551.371 1119.23 552.585C1117.21 553.799 1114.91 554.376 1113.01 554.063L1112.66 556.194C1115.2 556.613 1118.01 555.833 1120.34 554.438C1122.67 553.042 1124.68 550.93 1125.51 548.482L1123.46 547.79Z" fill="black"/>
<path d="M1131.39 471.571L952.1 419.689C948.726 418.713 945.239 420.83 944.549 424.274L926.486 514.413C925.819 517.743 928.046 520.963 931.397 521.513L1117.79 552.124C1121.07 552.663 1124.17 550.43 1124.69 547.146L1135.65 478.277C1136.12 475.288 1134.3 472.412 1131.39 471.571Z" fill="#C4C4C4" stroke="black" stroke-width="2.16"/>
<path d="M1126.33 473.697L955.908 425.885C952.543 424.941 949.086 427.061 948.403 430.489L932.425 510.651C931.76 513.984 933.994 517.202 937.348 517.746L1114.23 546.447C1117.52 546.98 1120.61 544.737 1121.12 541.448L1130.64 480.398C1131.11 477.396 1129.26 474.518 1126.33 473.697Z" fill="#EEEEEE" stroke="black" stroke-width="2.16"/>
<path d="M1129.42 470.277L1110.85 438.368C1105.02 432.204 1088.24 422.853 1067.78 434.761C1063.26 437.396 1059.58 440.115 1056.62 442.811C1049.77 449.05 1046.71 455.162 1045.66 459.797C1045.11 462.213 1045.1 464.227 1045.38 465.651C1047.28 472.934 1054.26 485.824 1066.98 479.122C1079.7 472.42 1086.51 462.581 1088.33 458.499L1129.42 470.277Z" fill="#978172"/>
<path d="M1056.62 442.811C1059.58 440.115 1063.26 437.396 1067.78 434.761C1088.24 422.853 1105.02 432.204 1110.85 438.368L1129.42 470.277L1088.33 458.499C1086.51 462.581 1079.7 472.42 1066.98 479.122C1054.26 485.824 1047.28 472.934 1045.38 465.651C1045.1 464.227 1045.11 462.213 1045.66 459.797M1056.62 442.811C1061.8 446.494 1070.59 455.479 1064.3 461.954C1058 468.429 1049.25 463.214 1045.66 459.797M1056.62 442.811C1049.77 449.05 1046.71 455.162 1045.66 459.797" stroke="black" stroke-width="2.15738"/>
<path d="M1136.4 471.387L1149.56 454.166L1117.38 440.656L1110.13 437.206L1105.64 435.178L1113.06 464.189L1136.4 471.387Z" fill="#978172"/>
<path d="M633.003 469.386L651.579 437.477C657.41 431.313 674.188 421.962 694.645 433.871C699.17 436.505 702.841 439.225 705.803 441.92C712.658 448.159 715.714 454.271 716.77 458.907C717.32 461.322 717.326 463.337 717.044 464.76C715.146 472.043 708.168 484.934 695.449 478.232C682.73 471.53 675.914 461.69 674.096 457.608L633.003 469.386Z" fill="#E9B49B"/>
<path d="M705.803 441.92C702.841 439.225 699.17 436.505 694.645 433.871C674.188 421.962 657.41 431.313 651.579 437.477L633.003 469.386L674.096 457.608C675.914 461.69 682.73 471.53 695.449 478.232C708.168 484.934 715.146 472.043 717.044 464.76C717.326 463.337 717.32 461.322 716.77 458.907M705.803 441.92C700.621 445.603 691.831 454.589 698.128 461.063C704.425 467.538 713.179 462.323 716.77 458.907M705.803 441.92C712.658 448.159 715.714 454.271 716.77 458.907" stroke="black" stroke-width="2.15738"/>
<path d="M1689.26 363.912L1668.45 301.783C1772.34 314.838 1871.9 255.932 1910.47 158.588L1911.66 155.574L1943.79 29.6871C1964.31 -50.6777 2025.2 -114.552 2104.5 -138.877L2133.48 -90.0354C2063.33 -53.687 2012.78 11.7544 1995.34 88.8136L1976.48 172.119C1938.1 290.19 1826.2 368.594 1702.12 364.351L1689.26 363.912Z" fill="#508664" stroke="black" stroke-width="2.15738"/>
<path d="M1691.26 362.874L1684.35 363.033L1667.28 327.103L1677.56 324.332L1691.26 362.874Z" fill="#508664"/>
<path d="M655.296 435.145L633.091 445.356L623.77 477.849L657.956 476.231L677.34 453.858L669.703 448.316L659.858 434.17L655.296 435.145Z" fill="#E9B49B"/>
<mask id="path-43-inside-3_1523_126" fill="white">
<path d="M1700.55 261.07C1700.55 329.568 1645.29 385.096 1577.12 385.096C1508.94 385.096 1453.68 329.568 1453.68 261.07C1453.68 192.572 1508.94 137.043 1577.12 137.043C1645.29 137.043 1700.55 192.572 1700.55 261.07ZM1522.78 261.07C1522.78 291.224 1547.1 315.669 1577.12 315.669C1607.13 315.669 1631.45 291.224 1631.45 261.07C1631.45 230.915 1607.13 206.47 1577.12 206.47C1547.1 206.47 1522.78 230.915 1522.78 261.07Z"/>
</mask>
<path d="M1700.55 261.07C1700.55 329.568 1645.29 385.096 1577.12 385.096C1508.94 385.096 1453.68 329.568 1453.68 261.07C1453.68 192.572 1508.94 137.043 1577.12 137.043C1645.29 137.043 1700.55 192.572 1700.55 261.07ZM1522.78 261.07C1522.78 291.224 1547.1 315.669 1577.12 315.669C1607.13 315.669 1631.45 291.224 1631.45 261.07C1631.45 230.915 1607.13 206.47 1577.12 206.47C1547.1 206.47 1522.78 230.915 1522.78 261.07Z" fill="#508664" stroke="black" stroke-width="4.32" mask="url(#path-43-inside-3_1523_126)"/>
<path d="M639.891 485.07C649.659 486.033 671.467 483.658 680.552 466.455" stroke="black" stroke-width="2.16"/>
<path d="M1508.14 363.589C1569.82 317.523 1632.69 323.572 1632.69 261.518" stroke="black" stroke-width="2.16"/>
<path d="M1510.68 363.06L1509.05 364.621L1512.34 372.214L1524.82 379.043L1557.08 389.717L1586.02 386.095L1598.09 383.697L1610.58 378.251L1587.33 377.38L1511.16 362.729L1510.68 363.06Z" fill="#508664"/>
<path d="M978.634 478.012L995.839 474.859C997.269 474.597 998.442 473.575 998.897 472.194L1004.36 455.579C1005.02 453.592 1007.73 453.351 1008.72 455.191L1017.04 470.579C1017.73 471.859 1019.07 472.658 1020.52 472.663L1038.01 472.729C1040.1 472.736 1041.17 475.242 1039.73 476.756L1027.66 489.419C1026.66 490.472 1026.31 491.988 1026.75 493.373L1032.1 510.028C1032.74 512.02 1030.68 513.81 1028.8 512.905L1013.03 505.343C1011.71 504.715 1010.17 504.853 1008.99 505.703L994.796 515.931C993.1 517.154 990.763 515.755 991.04 513.682L993.359 496.345C993.551 494.904 992.941 493.472 991.768 492.613L977.656 482.279C975.968 481.044 976.577 478.389 978.634 478.012Z" fill="#E3BE63" stroke="black" stroke-width="1.58888"/>
<path fill-rule="evenodd" clip-rule="evenodd" d="M556.252 441.09H464.686H457.123H365.557L397.367 759.189H457.123H464.686H524.442L556.252 441.09Z" fill="#EEEEEE"/>
<path d="M556.252 441.09V440.01H557.445L557.327 441.197L556.252 441.09ZM365.557 441.09L364.483 441.197L364.364 440.01H365.557V441.09ZM397.367 759.189V760.269H396.39L396.293 759.297L397.367 759.189ZM524.442 759.189L525.517 759.297L525.419 760.269H524.442V759.189ZM464.686 440.01H556.252V442.17H464.686V440.01ZM464.686 442.17H457.123V440.01H464.686V442.17ZM457.123 442.17H365.557V440.01H457.123V442.17ZM366.632 440.982L398.442 759.082L396.293 759.297L364.483 441.197L366.632 440.982ZM397.367 758.109H457.123V760.269H397.367V758.109ZM457.123 758.109H464.686V760.269H457.123V758.109ZM524.442 760.269H464.686V758.109H524.442V760.269ZM557.327 441.197L525.517 759.297L523.367 759.082L555.177 440.982L557.327 441.197Z" fill="black"/>
<path d="M552.94 397.252L556.252 423.277H365.556L370.288 402.93L552.94 397.252Z" fill="#EEEEEE" stroke="black" stroke-width="2.16"/>
<path fill-rule="evenodd" clip-rule="evenodd" d="M550.908 538.211H464.214H457.597H370.902L380.707 668.673H457.597H464.214H541.104L550.908 538.211Z" fill="#E3BE63"/>
<path d="M550.908 538.211V537.131H552.072L551.985 538.292L550.908 538.211ZM370.902 538.211L369.825 538.292L369.738 537.131H370.902V538.211ZM380.707 668.673V669.753H379.705L379.63 668.754L380.707 668.673ZM541.104 668.673L542.181 668.754L542.106 669.753H541.104V668.673ZM464.214 537.131H550.908V539.291H464.214V537.131ZM464.214 539.291H457.597V537.131H464.214V539.291ZM457.597 539.291H370.902V537.131H457.597V539.291ZM371.979 538.13L381.784 668.592L379.63 668.754L369.825 538.292L371.979 538.13ZM380.707 667.593H457.597V669.753H380.707V667.593ZM457.597 667.593H464.214V669.753H457.597V667.593ZM541.104 669.753H464.214V667.593H541.104V669.753ZM551.985 538.292L542.181 668.754L540.027 668.592L549.831 538.13L551.985 538.292Z" fill="black"/>
<circle cx="460.905" cy="603.443" r="37.2593" transform="rotate(95.6645 460.905 603.443)" fill="#508664" stroke="black" stroke-width="2.24"/>
<mask id="mask0_1523_126" style="mask-type:alpha" maskUnits="userSpaceOnUse" x="427" y="571" width="67" height="67">
<circle cx="460.905" cy="604.288" r="32.9686" transform="rotate(95.6645 460.905 604.288)" fill="white"/>
</mask>
<g mask="url(#mask0_1523_126)">
<path d="M460.289 571.643C460.329 571.558 460.451 571.56 460.488 571.645L462.163 575.476L466.477 575.711C466.573 575.716 466.616 575.832 466.547 575.898L463.332 578.98L465.792 585.424L460.242 581.383L454.173 586.096L457.389 578.98L454.021 575.907C453.948 575.841 453.993 575.72 454.092 575.717L458.434 575.605L460.289 571.643Z" fill="white"/>
<path d="M460.895 586.958C456.223 586.958 450.179 589.169 447.828 590.161L447.17 587.719L446.078 585.415L444.594 583.061L445.494 582.962L447.17 583.299L449.949 584.386L449.85 583.516L449.524 582.211L448.483 579.924H449.665L451.247 580.48L454.116 582.097L458.054 584.3L463.229 584.251L465.337 582.559L469.215 580.434L472.191 579.757L471.176 582.828L470.959 584.251L473.727 583.193L475.184 582.828H476.164C476.164 582.828 473.414 586.871 473.171 589.96C471.004 588.968 465.567 586.958 460.895 586.958Z" fill="white"/>
<path d="M457.978 607.096C456.838 607.096 456.306 608.482 455.676 609.433L454.283 611.535C453.605 612.36 453.197 613.417 453.197 614.569C453.197 616.065 454.154 617.783 455.464 618.99C455.916 619.407 456.274 619.919 456.57 620.458C456.61 620.531 456.652 620.602 456.695 620.672C457.52 622.007 458.05 623.813 458.05 625.383C458.05 625.766 457.808 626.246 457.554 626.75C457.082 627.686 456.58 628.655 456.03 629.547C455.119 631.024 454.57 632.776 454.57 634.298C454.57 637.72 457.344 640.494 460.766 640.494C464.188 640.494 466.962 637.72 466.962 634.298C466.962 632.97 466.544 631.466 465.832 630.124C465.261 629.046 464.698 627.895 464.092 626.837C463.78 626.292 463.484 625.775 463.484 625.383C463.484 623.812 464.013 622.005 464.837 620.668C464.858 620.635 464.878 620.601 464.898 620.567C465.166 620.107 465.487 619.674 465.876 619.311C467.219 618.056 468.181 616.16 468.181 614.569C468.181 613.57 467.875 612.643 467.351 611.876C467.349 611.872 467.352 611.868 467.356 611.869C467.36 611.869 467.364 611.865 467.361 611.861L464.746 607.915C464.508 607.43 464.009 607.096 463.431 607.096C463.389 607.096 463.347 607.097 463.306 607.101C462.481 607.171 461.593 607.627 460.765 607.627C459.884 607.627 458.913 607.129 458.033 607.097C458.015 607.096 457.997 607.096 457.978 607.096Z" fill="white"/>
<path d="M487.966 585.86C487.147 591.829 493.047 599.318 493.047 599.318C493.047 599.318 491.203 600.259 489.215 599.635C485.99 598.623 487.292 597.587 481.207 597.392C480.446 595.578 476.976 592.613 474.926 591.268C475.355 589.493 480.476 589.922 483.343 592.028C483.753 589.766 483.715 589.013 484.923 587.66C485.914 586.55 487.4 584.925 487.966 585.86Z" fill="white"/>
<path d="M432.925 585.86C433.744 591.829 427.844 599.318 427.844 599.318C427.844 599.318 429.687 600.259 431.676 599.635C434.9 598.623 433.599 597.587 439.684 597.392C440.445 595.578 443.914 592.613 445.964 591.268C445.535 589.493 440.415 589.922 437.547 592.028C437.138 589.766 437.176 589.013 435.968 587.66C434.977 586.55 433.491 584.925 432.925 585.86Z" fill="white"/>
<path fill-rule="evenodd" clip-rule="evenodd" d="M461.429 588.334L461.431 588.336L461.432 588.338C462.498 588.296 464.518 588.638 466.021 590.332C466.302 590.707 466.843 591.563 466.759 591.985C466.613 592.718 465.78 592.604 464.878 592.48C464.246 592.393 463.579 592.302 463.092 592.495C462.566 592.702 462.14 593.026 462.063 593.515C461.964 594.146 461.908 594.812 461.879 595.344C461.849 595.912 461.858 596.915 462.415 596.804C462.429 596.801 462.444 596.797 462.459 596.793C462.602 596.748 462.74 596.69 462.878 596.632C463.155 596.515 463.431 596.4 463.729 596.4C463.907 596.4 464.084 596.428 464.253 596.483L464.623 596.604C464.848 596.678 465.087 596.704 465.324 596.681L465.543 596.659C465.75 596.639 465.947 596.555 466.106 596.419C466.267 596.281 466.48 596.178 466.672 596.27C466.997 596.426 467.353 596.89 467.322 598C467.285 599.315 466.557 601.235 466.06 602.341C465.932 602.626 465.774 602.896 465.576 603.138C464.74 604.163 463.122 605.676 461.438 605.846C461.434 605.846 461.431 605.849 461.431 605.854C461.431 605.858 461.427 605.861 461.423 605.861H459.57C459.569 605.861 459.567 605.86 459.567 605.858C459.567 605.856 459.566 605.855 459.564 605.855C457.838 605.743 456.164 604.181 455.311 603.133C455.116 602.894 454.959 602.627 454.833 602.346C454.336 601.241 453.606 599.317 453.569 598C453.538 596.89 453.894 596.426 454.219 596.27C454.411 596.178 454.623 596.281 454.785 596.419C454.944 596.555 455.14 596.639 455.348 596.659L455.567 596.681C455.804 596.704 456.042 596.678 456.268 596.604L456.637 596.483C456.807 596.428 456.984 596.4 457.162 596.4C457.46 596.4 457.735 596.515 458.012 596.632C458.151 596.69 458.289 596.748 458.431 596.793C458.446 596.797 458.461 596.801 458.476 596.804C459.033 596.915 459.042 595.912 459.012 595.344C458.983 594.812 458.927 594.146 458.828 593.515C458.75 593.026 458.324 592.702 457.799 592.495C457.312 592.302 456.645 592.393 456.013 592.48C455.111 592.604 454.278 592.718 454.132 591.985C454.047 591.563 454.589 590.707 454.87 590.332C456.423 588.581 458.529 588.275 459.563 588.343C459.565 588.343 459.567 588.341 459.567 588.339C459.567 588.336 459.569 588.334 459.571 588.334H461.429ZM460.334 598.953L460.738 598.825C460.893 598.776 461.058 598.769 461.217 598.805L461.292 598.822C461.421 598.852 461.539 598.919 461.63 599.016L461.752 599.147C461.789 599.186 461.81 599.238 461.81 599.293C461.81 599.367 461.771 599.436 461.707 599.475L461.546 599.574C461.509 599.596 461.47 599.614 461.43 599.627L460.718 599.86C460.559 599.912 460.393 599.938 460.225 599.938C460.026 599.938 459.828 599.901 459.642 599.827L459.086 599.607L458.611 599.452C458.54 599.428 458.492 599.362 458.492 599.287C458.492 599.237 458.513 599.189 458.551 599.156L458.766 598.97C458.927 598.829 459.138 598.76 459.351 598.776L459.498 598.788C459.598 598.795 459.694 598.829 459.777 598.885C459.872 598.95 459.985 598.984 460.1 598.984H460.131C460.2 598.984 460.268 598.974 460.334 598.953ZM457.509 601.156L463.253 601.222C462.953 601.895 461.714 603.426 460.323 603.426C458.933 603.426 457.509 601.587 457.509 601.156Z" fill="white"/>
<path d="M453.93 594.656V594.158C453.93 593.856 454.174 593.612 454.476 593.612H454.732C455.025 593.608 455.782 593.627 456.465 593.733C457.018 593.818 457.483 594.228 457.741 594.534C457.841 594.653 457.882 594.829 457.774 594.94C457.7 595.016 457.592 595.052 457.448 594.956C457.206 594.794 456.174 594.676 455.594 594.629C455.52 594.623 455.446 594.632 455.377 594.659C455.104 594.766 454.688 594.97 454.615 595.172C454.552 595.347 454.301 595.2 454.099 595.036C453.986 594.944 453.93 594.802 453.93 594.656Z" fill="white"/>
<path d="M466.741 594.656V594.158C466.741 593.856 466.497 593.612 466.196 593.612H465.94C465.646 593.608 464.889 593.627 464.206 593.733C463.654 593.818 463.188 594.228 462.93 594.534C462.83 594.653 462.789 594.829 462.897 594.94C462.971 595.016 463.079 595.052 463.223 594.956C463.465 594.794 464.498 594.676 465.078 594.629C465.151 594.623 465.226 594.632 465.295 594.659C465.567 594.766 465.983 594.97 466.056 595.172C466.119 595.347 466.37 595.2 466.572 595.036C466.685 594.944 466.741 594.802 466.741 594.656Z" fill="white"/>
<path d="M429.708 602.702C428.11 602.702 426.93 601.827 426.539 601.39V604.586C427.281 605.1 428.281 604.9 429.708 604.9C430.85 604.9 433.628 603.321 434.874 602.531L436.101 602.246C436.672 602.398 437.813 602.342 437.813 600.904C437.813 599.465 435.416 600.095 434.217 600.59C433.38 601.294 431.306 602.702 429.708 602.702Z" fill="white"/>
<path d="M491.183 602.702C492.78 602.702 493.961 601.827 494.352 601.39V604.586C493.61 605.1 492.61 604.9 491.183 604.9C490.04 604.9 487.263 603.321 486.017 602.531L484.79 602.246C484.219 602.398 483.078 602.342 483.078 600.904C483.078 599.465 485.475 600.095 486.674 600.59C487.511 601.294 489.585 602.702 491.183 602.702Z" fill="white"/>
<path d="M430.104 607.555C429.354 608.125 427.541 607.793 426.728 607.555L427.178 610.443C427.808 610.623 429.391 610.143 430.104 609.88C430.945 609.13 433.28 608.167 434.343 607.779L435.731 607.555L435.993 605.529H434.343C433.242 605.966 430.854 606.984 430.104 607.555Z" fill="white"/>
<path d="M490.787 607.555C491.537 608.125 493.35 607.793 494.163 607.555L493.713 610.443C493.083 610.623 491.499 610.143 490.787 609.88C489.946 609.13 487.611 608.167 486.548 607.779L485.16 607.555L484.897 605.529H486.548C487.648 605.966 490.037 606.984 490.787 607.555Z" fill="white"/>
<path d="M445.888 599.617C445.157 595.651 446.733 592.645 447.612 591.638C447.11 591.638 446.254 592.537 445.888 592.986C444.509 594.746 444.208 597.452 444.231 598.586C444.259 599.2 444.444 600.91 444.958 602.832C445.472 604.754 445.263 606.475 445.094 607.095C444.721 607.924 443.767 609.843 442.928 610.885C442.088 611.927 441.45 614.274 441.236 615.317L439.172 616.84C438.919 616.953 438.299 617.236 437.853 617.466C437.406 617.696 436.528 617.562 436.144 617.466C436.022 618.129 436.296 619.186 436.449 619.631C436.259 619.604 435.422 619.744 435.028 619.818L431.948 621.475L433.031 623.353L434.368 622.457C435.166 621.794 436.506 621.74 437.075 621.797C437.373 623.056 437.887 623.618 438.107 623.742C438.96 624.189 440.955 623.184 441.846 622.626L444.789 620.224C443.301 618.383 442.928 615.644 442.928 614.505C443.153 613.417 444.061 610.736 445.888 608.72C447.715 606.703 447.18 603.954 446.684 602.832L445.888 599.617Z" fill="white"/>
<path d="M475.109 599.617C475.84 595.651 474.264 592.645 473.384 591.638C473.887 591.638 474.743 592.537 475.109 592.986C476.488 594.746 476.788 597.452 476.766 598.586C476.738 599.2 476.553 600.91 476.039 602.832C475.524 604.754 475.734 606.475 475.903 607.095C476.276 607.924 477.23 609.843 478.069 610.885C478.908 611.927 479.546 614.274 479.761 615.317L481.825 616.84C482.078 616.953 482.697 617.236 483.144 617.466C483.591 617.696 484.469 617.562 484.853 617.466C484.975 618.129 484.701 619.186 484.548 619.631C484.738 619.604 485.575 619.744 485.969 619.818L489.049 621.475L487.966 623.353L486.629 622.457C485.83 621.794 484.491 621.74 483.922 621.797C483.624 623.056 483.11 623.618 482.89 623.742C482.037 624.189 480.042 623.184 479.151 622.626L476.207 620.224C477.696 618.383 478.069 615.644 478.069 614.505C477.843 613.417 476.936 610.736 475.109 608.72C473.282 606.703 473.817 603.954 474.313 602.832L475.109 599.617Z" fill="white"/>
<path d="M447.326 626.152C447.752 625.111 447.148 623.691 446.793 623.112L446.255 625.949C446.038 626.547 445.407 627.989 444.62 628.973C443.833 629.957 443.047 631.698 442.753 632.446L443.954 633.415C443.746 632.281 444.861 630.338 445.445 629.509C445.894 628.824 446.899 627.194 447.326 626.152Z" fill="white"/>
<path d="M473.531 626.152C473.105 625.111 473.709 623.691 474.064 623.112L474.602 625.949C474.819 626.547 475.45 627.989 476.237 628.973C477.024 629.957 477.81 631.698 478.104 632.446L476.903 633.415C477.111 632.281 475.996 630.338 475.412 629.509C474.963 628.824 473.958 627.194 473.531 626.152Z" fill="white"/>
<path d="M440.047 629.527L439.349 630.062L437.665 628.403L439.049 627.815C439.48 627.631 439.981 627.773 440.253 628.155C440.565 628.593 440.474 629.2 440.047 629.527Z" fill="white"/>
<path d="M436.031 626.671L434.469 625.012L436.397 624.158L437.359 624.046C437.675 624.009 437.99 624.122 438.21 624.351L438.298 624.442C438.424 624.573 438.495 624.748 438.495 624.93C438.495 625.251 438.277 625.531 437.966 625.61L437.25 625.793L436.031 626.671Z" fill="white"/>
<path d="M431.317 611.878C430.478 612.451 428.786 612.798 428.044 612.9L428.683 615.099C429.194 615.099 429.885 614.843 430.166 614.716C430.763 614.46 432.13 613.81 432.825 613.258C433.521 612.706 434.768 612.517 435.305 612.491V610.548C434.206 610.497 432.365 611.162 431.317 611.878Z" fill="white"/>
<path d="M431.7 616.684C431.331 617.031 430.183 617.272 429.654 617.349L430.703 619.522C431.419 619.19 432.948 618.407 433.337 617.937C433.725 617.466 435.118 617.178 435.766 617.093C435.806 616.377 435.544 615.585 435.408 615.278C434.18 614.843 432.16 616.25 431.7 616.684Z" fill="white"/>
<path d="M480.765 629.527L481.463 630.062L483.147 628.403L481.763 627.815C481.332 627.631 480.831 627.773 480.559 628.155C480.246 628.593 480.338 629.2 480.765 629.527Z" fill="white"/>
<path d="M484.781 626.671L486.342 625.012L484.415 624.158L483.452 624.046C483.136 624.009 482.822 624.122 482.601 624.351L482.513 624.442C482.387 624.573 482.317 624.748 482.317 624.93C482.317 625.251 482.534 625.531 482.846 625.61L483.561 625.793L484.781 626.671Z" fill="white"/>
<path d="M489.494 611.878C490.333 612.451 492.026 612.798 492.767 612.9L492.128 615.099C491.617 615.099 490.927 614.843 490.645 614.716C490.049 614.46 488.682 613.81 487.986 613.258C487.291 612.706 486.043 612.517 485.506 612.491V610.548C486.605 610.497 488.446 611.162 489.494 611.878Z" fill="white"/>
<path d="M489.112 616.684C489.48 617.031 490.629 617.272 491.157 617.349L490.108 619.522C489.392 619.19 487.863 618.407 487.475 617.937C487.086 617.466 485.693 617.178 485.046 617.093C485.005 616.377 485.267 615.585 485.404 615.278C486.631 614.843 488.651 616.25 489.112 616.684Z" fill="white"/>
<path d="M451.931 597.646C450.851 594.093 452.999 590.601 454.208 589.3C453.449 589.759 451.712 591.267 450.835 593.627C449.958 595.988 450.62 598.639 451.06 599.669C451.35 600.203 452.071 601.743 452.634 603.632C453.196 605.521 452.868 607.379 452.634 608.072L450.471 610.939C449.936 611.922 448.896 614.21 449.009 615.492C449.121 616.773 450.217 618.33 450.751 618.948C451.575 619.876 453.32 622.141 453.702 623.782C454.084 625.423 453.336 627.22 452.915 627.913C452.353 628.813 451.077 630.965 450.471 632.382C449.864 633.798 450.068 635.445 450.246 636.091L452.663 636.71C451.719 635.518 452.176 633.028 452.522 631.932L454.433 628.307C454.78 627.651 455.473 625.935 455.473 624.316C455.473 622.697 454.292 620.831 453.702 620.101L451.875 617.852C450.616 616.031 450.92 614.021 451.229 613.243C451.51 612.672 452.398 611.057 453.702 609.168C455.006 607.28 454.732 604.99 454.432 604.082C454.048 603.417 453.011 601.198 451.931 597.646Z" fill="white"/>
<path d="M469.184 597.646C470.264 594.093 468.116 590.601 466.907 589.3C467.666 589.759 469.404 591.267 470.28 593.627C471.157 595.988 470.496 598.639 470.056 599.669C469.765 600.203 469.044 601.743 468.482 603.632C467.92 605.521 468.248 607.379 468.482 608.072L470.645 610.939C471.179 611.922 472.219 614.21 472.107 615.492C471.994 616.773 470.898 618.33 470.364 618.948C469.54 619.876 467.796 622.141 467.414 623.782C467.032 625.423 467.779 627.22 468.2 627.913C468.762 628.813 470.038 630.965 470.645 632.382C471.251 633.798 471.047 635.445 470.869 636.091L468.452 636.71C469.397 635.518 468.94 633.028 468.593 631.932L466.682 628.307C466.335 627.651 465.642 625.935 465.642 624.316C465.642 622.697 466.823 620.831 467.414 620.101L469.24 617.852C470.499 616.031 470.196 614.021 469.887 613.243C469.606 612.672 468.718 611.057 467.414 609.168C466.11 607.28 466.383 604.99 466.683 604.082C467.067 603.417 468.105 601.198 469.184 597.646Z" fill="white"/>
<path d="M448.675 597.718C448.283 594.728 450.235 591.287 451.26 589.94C449.583 590.681 448.548 592.615 448.24 593.489C447.621 594.471 447.328 596.843 447.258 597.907C447.353 598.549 447.704 600.229 448.353 601.814C449.165 603.797 449.26 605.043 449.297 605.854C449.327 606.504 448.857 607.698 448.618 608.214L446.447 611.008C445.962 611.706 444.978 613.451 444.917 614.84C444.857 616.23 445.522 617.659 445.862 618.2L448.768 621.919C449.058 622.479 449.663 623.818 449.769 624.694C449.875 625.57 449.335 626.859 449.052 627.394C448.769 627.841 447.946 629.138 446.919 630.754C445.892 632.37 445.786 633.869 445.862 634.416L447.957 635.36C447.595 634.228 448.108 632.334 448.41 631.528L450.015 628.998C450.374 628.426 451.163 626.914 451.45 625.449C451.737 623.985 450.978 622.41 450.562 621.806L448.788 619.692C448.184 619.1 446.93 617.502 446.749 615.841C446.568 614.179 447.416 612.342 447.863 611.631L449.845 608.724C451.264 607.289 451.191 605.194 450.977 604.325C450.688 603.375 449.996 601.32 449.543 600.701C449.09 600.081 448.776 598.454 448.675 597.718Z" fill="white"/>
<path d="M472.406 597.718C472.798 594.728 470.846 591.287 469.821 589.94C471.498 590.681 472.533 592.615 472.841 593.489C473.46 594.471 473.753 596.843 473.823 597.907C473.728 598.549 473.377 600.229 472.728 601.814C471.916 603.797 471.822 605.043 471.784 605.854C471.754 606.504 472.224 607.698 472.463 608.214L474.634 611.008C475.119 611.706 476.103 613.451 476.164 614.84C476.224 616.23 475.559 617.659 475.219 618.2L472.313 621.919C472.023 622.479 471.418 623.818 471.312 624.694C471.206 625.57 471.746 626.859 472.029 627.394C472.312 627.841 473.135 629.138 474.162 630.754C475.189 632.37 475.295 633.869 475.219 634.416L473.124 635.36C473.486 634.228 472.973 632.334 472.671 631.528L471.066 628.998C470.708 628.426 469.918 626.914 469.631 625.449C469.345 623.985 470.103 622.41 470.519 621.806L472.293 619.692C472.897 619.1 474.151 617.502 474.332 615.841C474.513 614.179 473.665 612.342 473.219 611.631L471.236 608.724C469.817 607.289 469.89 605.194 470.104 604.325C470.393 603.375 471.085 601.32 471.538 600.701C471.991 600.081 472.306 598.454 472.406 597.718Z" fill="white"/>
</g>
<path d="M559.512 441.09L556.057 430.727H364.809L362.297 441.09H559.512Z" fill="#EEEEEE" stroke="black" stroke-width="2.16"/>
<rect x="-1.08" y="1.08" width="195.656" height="7.16" rx="3.58" transform="matrix(-1 0 0 1 557.652 422.191)" fill="#EEEEEE" stroke="black" stroke-width="2.16"/>
<path d="M543.577 329.973C543.577 339.899 533.897 351.047 538.93 355.136C546.688 361.439 543.578 358.691 543.577 378.843" stroke="black" stroke-width="4"/>
<path d="M530.362 329.973C530.363 339.899 520.682 351.047 525.715 355.136C533.473 361.439 530.363 358.691 530.362 378.843" stroke="black" stroke-width="4"/>
<path d="M517.149 329.973C517.15 339.899 507.469 351.047 512.502 355.136C520.26 361.439 517.15 358.691 517.149 378.843" stroke="black" stroke-width="4"/>
<path d="M503.934 329.973C503.935 339.899 494.254 351.047 499.287 355.136C507.045 361.439 503.935 358.691 503.934 378.843" stroke="black" stroke-width="4"/>
<mask id="path-62-inside-4_1523_126" fill="white">
<path d="M149.732 713.272C149.732 711.331 148.159 709.758 146.218 709.758V709.758C144.278 709.758 142.704 711.331 142.704 713.272V728.747C142.704 730.688 144.278 732.261 146.218 732.261V732.261C148.159 732.261 149.732 730.688 149.732 728.747V713.272Z"/>
</mask>
<path d="M149.732 713.272C149.732 711.331 148.159 709.758 146.218 709.758V709.758C144.278 709.758 142.704 711.331 142.704 713.272V728.747C142.704 730.688 144.278 732.261 146.218 732.261V732.261C148.159 732.261 149.732 730.688 149.732 728.747V713.272Z" fill="#EEEEEE"/>
<path d="M144.864 713.272V728.747H140.544V713.272H144.864ZM147.572 728.747V713.272H151.892V728.747H147.572ZM146.218 730.101C146.966 730.101 147.572 729.495 147.572 728.747H151.892C151.892 731.881 149.352 734.421 146.218 734.421V730.101ZM144.864 728.747C144.864 729.495 145.471 730.101 146.218 730.101V734.421C143.085 734.421 140.544 731.881 140.544 728.747H144.864ZM146.218 711.918C145.471 711.918 144.864 712.524 144.864 713.272H140.544C140.544 710.138 143.085 707.598 146.218 707.598V711.918ZM146.218 707.598C149.352 707.598 151.892 710.138 151.892 713.272H147.572C147.572 712.524 146.966 711.918 146.218 711.918V707.598Z" fill="black" mask="url(#path-62-inside-4_1523_126)"/>
<path d="M308.42 638.926H139.082C135.813 638.926 133.162 641.576 133.162 644.846V732.807C133.162 748.779 146.11 761.727 162.082 761.727H285.42C301.392 761.727 314.34 748.779 314.34 732.807V644.846C314.34 641.576 311.689 638.926 308.42 638.926Z" fill="#EEEEEE" stroke="black" stroke-width="2.16"/>
<circle cx="223.752" cy="709.757" r="37.2593" transform="rotate(95.6645 223.752 709.757)" fill="#508664" stroke="black" stroke-width="2.24"/>
<mask id="mask1_1523_126" style="mask-type:alpha" maskUnits="userSpaceOnUse" x="190" y="677" width="67" height="67">
<circle cx="223.753" cy="710.602" r="32.9686" transform="rotate(95.6645 223.753 710.602)" fill="white"/>
</mask>
<g mask="url(#mask1_1523_126)">
<path d="M223.137 677.957C223.177 677.872 223.298 677.874 223.336 677.96L225.01 681.79L229.325 682.025C229.42 682.03 229.464 682.147 229.395 682.213L226.18 685.294L228.64 691.738L223.09 687.698L217.021 692.411L220.237 685.294L216.869 682.221C216.796 682.155 216.841 682.034 216.939 682.032L221.282 681.919L223.137 677.957Z" fill="white"/>
<path d="M223.743 693.273C219.071 693.273 213.026 695.483 210.675 696.475L210.018 694.033L208.925 691.729L207.441 689.376L208.342 689.277L210.018 689.613L212.797 690.701L212.698 689.83L212.371 688.525L211.33 686.238H212.513L214.095 686.795L216.964 688.412L220.902 690.614L226.076 690.566L228.185 688.874L232.063 686.748L235.039 686.072L234.023 689.143L233.807 690.566L236.574 689.507L238.032 689.143H239.012C239.012 689.143 236.262 693.186 236.019 696.274C233.852 695.282 228.415 693.273 223.743 693.273Z" fill="white"/>
<path d="M220.826 713.41C219.686 713.41 219.154 714.797 218.524 715.747L217.131 717.849C216.452 718.675 216.045 719.732 216.045 720.884C216.045 722.38 217.002 724.097 218.311 725.305C218.764 725.721 219.122 726.233 219.418 726.773C219.458 726.845 219.499 726.916 219.543 726.987C220.368 728.321 220.898 730.128 220.898 731.697C220.898 732.08 220.655 732.561 220.402 733.064C219.93 734.001 219.428 734.969 218.877 735.862C217.967 737.338 217.418 739.09 217.418 740.612C217.418 744.034 220.192 746.808 223.613 746.808C227.035 746.808 229.809 744.034 229.809 740.612C229.809 739.284 229.391 737.781 228.68 736.439C228.109 735.361 227.546 734.209 226.94 733.151C226.628 732.607 226.331 732.089 226.331 731.697C226.331 730.127 226.861 728.319 227.685 726.983C227.706 726.949 227.726 726.915 227.746 726.881C228.014 726.422 228.335 725.989 228.724 725.626C230.067 724.37 231.029 722.475 231.029 720.884C231.029 719.885 230.723 718.957 230.199 718.19C230.197 718.187 230.2 718.182 230.204 718.183C230.208 718.184 230.211 718.179 230.209 718.176L227.594 714.23C227.356 713.744 226.856 713.41 226.279 713.41C226.237 713.41 226.195 713.412 226.153 713.415C225.329 713.485 224.44 713.942 223.613 713.942C222.732 713.942 221.761 713.444 220.881 713.411C220.863 713.41 220.844 713.41 220.826 713.41Z" fill="white"/>
<path d="M250.813 692.175C249.994 698.143 255.894 705.633 255.894 705.633C255.894 705.633 254.051 706.573 252.062 705.949C248.838 704.938 250.14 703.901 244.054 703.706C243.294 701.893 239.824 698.927 237.774 697.582C238.203 695.807 243.324 696.236 246.191 698.343C246.601 696.08 246.563 695.328 247.771 693.975C248.761 692.865 250.248 691.239 250.813 692.175Z" fill="white"/>
<path d="M195.773 692.175C196.592 698.143 190.692 705.633 190.692 705.633C190.692 705.633 192.535 706.573 194.524 705.949C197.748 704.938 196.447 703.901 202.532 703.706C203.292 701.893 206.762 698.927 208.812 697.582C208.383 695.807 203.262 696.236 200.395 698.343C199.986 696.08 200.023 695.328 198.815 693.975C197.825 692.865 196.338 691.239 195.773 692.175Z" fill="white"/>
<path fill-rule="evenodd" clip-rule="evenodd" d="M224.277 694.649L224.279 694.65L224.28 694.652C225.346 694.611 227.366 694.953 228.868 696.647C229.15 697.022 229.691 697.878 229.607 698.3C229.461 699.032 228.628 698.918 227.726 698.794C227.093 698.708 226.427 698.616 225.939 698.809C225.414 699.017 224.988 699.341 224.911 699.83C224.811 700.46 224.756 701.126 224.727 701.659C224.696 702.226 224.705 703.23 225.263 703.118C225.277 703.116 225.292 703.112 225.307 703.107C225.449 703.063 225.588 703.004 225.726 702.946C226.003 702.83 226.278 702.714 226.577 702.714C226.755 702.714 226.932 702.742 227.101 702.798L227.47 702.918C227.696 702.992 227.935 703.019 228.171 702.995L228.39 702.974C228.598 702.954 228.795 702.87 228.953 702.734C229.115 702.595 229.327 702.493 229.519 702.585C229.845 702.74 230.2 703.204 230.169 704.314C230.132 705.629 229.404 707.549 228.908 708.655C228.78 708.94 228.622 709.21 228.424 709.452C227.588 710.477 225.969 711.99 224.286 712.16C224.282 712.161 224.279 712.164 224.279 712.168C224.279 712.172 224.275 712.176 224.271 712.176H222.418C222.416 712.176 222.415 712.174 222.415 712.173C222.415 712.171 222.413 712.17 222.412 712.169C220.686 712.057 219.012 710.495 218.158 709.448C217.963 709.208 217.807 708.942 217.68 708.66C217.184 707.555 216.454 705.631 216.417 704.314C216.386 703.204 216.741 702.74 217.067 702.585C217.259 702.493 217.471 702.595 217.633 702.734C217.791 702.87 217.988 702.954 218.196 702.974L218.415 702.995C218.651 703.019 218.89 702.992 219.116 702.918L219.485 702.798C219.654 702.742 219.831 702.714 220.01 702.714C220.308 702.714 220.583 702.83 220.86 702.946C220.998 703.004 221.137 703.063 221.279 703.107C221.294 703.112 221.309 703.116 221.324 703.118C221.881 703.23 221.89 702.226 221.859 701.659C221.83 701.126 221.775 700.46 221.675 699.83C221.598 699.341 221.172 699.017 220.647 698.809C220.159 698.616 219.493 698.708 218.86 698.794C217.958 698.918 217.125 699.032 216.979 698.3C216.895 697.878 217.436 697.022 217.718 696.647C219.271 694.896 221.377 694.589 222.41 694.658C222.413 694.658 222.415 694.656 222.415 694.653C222.415 694.651 222.417 694.649 222.419 694.649H224.277ZM223.182 705.267L223.586 705.14C223.741 705.091 223.906 705.084 224.064 705.12L224.139 705.137C224.269 705.166 224.387 705.234 224.478 705.331L224.6 705.461C224.637 705.501 224.657 705.553 224.657 705.607C224.657 705.682 224.619 705.751 224.555 705.79L224.393 705.888C224.357 705.911 224.318 705.929 224.277 705.942L223.566 706.174C223.407 706.226 223.241 706.253 223.073 706.253C222.873 706.253 222.676 706.215 222.49 706.142L221.934 705.922L221.458 705.766C221.387 705.743 221.339 705.676 221.339 705.602C221.339 705.551 221.361 705.504 221.399 705.471L221.613 705.284C221.775 705.144 221.985 705.074 222.198 705.091L222.346 705.102C222.446 705.11 222.542 705.143 222.625 705.199C222.72 705.264 222.832 705.299 222.948 705.299H222.978C223.047 705.299 223.116 705.288 223.182 705.267ZM220.356 707.47L226.101 707.537C225.801 708.209 224.562 709.74 223.171 709.74C221.781 709.74 220.356 707.902 220.356 707.47Z" fill="white"/>
<path d="M216.778 700.971V700.472C216.778 700.171 217.022 699.927 217.323 699.927H217.579C217.873 699.923 218.63 699.942 219.313 700.047C219.865 700.132 220.331 700.543 220.589 700.849C220.689 700.967 220.73 701.144 220.622 701.255C220.548 701.331 220.44 701.367 220.296 701.27C220.054 701.109 219.021 700.99 218.441 700.943C218.368 700.937 218.293 700.947 218.224 700.973C217.952 701.08 217.536 701.284 217.463 701.486C217.4 701.661 217.149 701.515 216.947 701.35C216.834 701.258 216.778 701.116 216.778 700.971Z" fill="white"/>
<path d="M229.589 700.971V700.472C229.589 700.171 229.345 699.927 229.043 699.927H228.787C228.494 699.923 227.737 699.942 227.054 700.047C226.501 700.132 226.036 700.543 225.778 700.849C225.678 700.967 225.637 701.144 225.745 701.255C225.819 701.331 225.927 701.367 226.071 701.27C226.313 701.109 227.345 700.99 227.925 700.943C227.999 700.937 228.073 700.947 228.142 700.973C228.415 701.08 228.831 701.284 228.904 701.486C228.967 701.661 229.218 701.515 229.42 701.35C229.532 701.258 229.589 701.116 229.589 700.971Z" fill="white"/>
<path d="M192.556 709.016C190.958 709.016 189.777 708.141 189.387 707.704V710.9C190.128 711.414 191.128 711.214 192.556 711.214C193.698 711.214 196.475 709.635 197.721 708.845L198.948 708.56C199.519 708.712 200.661 708.656 200.661 707.218C200.661 705.78 198.263 706.41 197.065 706.905C196.228 707.608 194.154 709.016 192.556 709.016Z" fill="white"/>
<path d="M254.03 709.016C255.628 709.016 256.809 708.141 257.199 707.704V710.9C256.458 711.414 255.458 711.214 254.03 711.214C252.888 711.214 250.111 709.635 248.865 708.845L247.638 708.56C247.067 708.712 245.925 708.656 245.925 707.218C245.925 705.78 248.323 706.41 249.521 706.905C250.359 707.608 252.432 709.016 254.03 709.016Z" fill="white"/>
<path d="M192.952 713.869C192.202 714.44 190.389 714.107 189.576 713.869L190.026 716.757C190.656 716.937 192.239 716.457 192.952 716.195C193.792 715.444 196.128 714.481 197.191 714.094L198.578 713.869L198.841 711.843H197.191C196.09 712.281 193.702 713.299 192.952 713.869Z" fill="white"/>
<path d="M253.634 713.869C254.384 714.44 256.197 714.107 257.01 713.869L256.561 716.757C255.93 716.937 254.347 716.457 253.634 716.195C252.794 715.444 250.458 714.481 249.396 714.094L248.008 713.869L247.745 711.843H249.396C250.496 712.281 252.884 713.299 253.634 713.869Z" fill="white"/>
<path d="M208.736 705.932C208.005 701.966 209.581 698.96 210.46 697.952C209.958 697.952 209.101 698.851 208.736 699.301C207.356 701.06 207.056 703.767 207.078 704.9C207.107 705.515 207.292 707.225 207.806 709.147C208.32 711.068 208.11 712.79 207.941 713.41C207.569 714.239 206.615 716.157 205.775 717.199C204.936 718.242 204.298 720.589 204.084 721.632L202.02 723.154C201.766 723.267 201.147 723.55 200.7 723.78C200.254 724.01 199.375 723.876 198.992 723.78C198.87 724.444 199.144 725.5 199.296 725.946C199.107 725.919 198.27 726.059 197.875 726.132L194.796 727.79L195.879 729.668L197.216 728.771C198.014 728.108 199.353 728.055 199.923 728.111C200.221 729.37 200.735 729.933 200.955 730.057C201.808 730.503 203.802 729.499 204.693 728.94L207.637 726.538C206.148 724.697 205.776 721.959 205.775 720.82C206.001 719.731 206.909 717.051 208.736 715.034C210.563 713.017 210.027 710.269 209.531 709.147L208.736 705.932Z" fill="white"/>
<path d="M237.956 705.932C238.687 701.966 237.111 698.96 236.232 697.952C236.734 697.952 237.591 698.851 237.956 699.301C239.336 701.06 239.636 703.767 239.614 704.9C239.586 705.515 239.401 707.225 238.886 709.147C238.372 711.068 238.582 712.79 238.751 713.41C239.123 714.239 240.077 716.157 240.917 717.199C241.756 718.242 242.394 720.589 242.608 721.632L244.672 723.154C244.926 723.267 245.545 723.55 245.992 723.78C246.438 724.01 247.317 723.876 247.7 723.78C247.822 724.444 247.548 725.5 247.396 725.946C247.585 725.919 248.422 726.059 248.817 726.132L251.897 727.79L250.813 729.668L249.477 728.771C248.678 728.108 247.339 728.055 246.769 728.111C246.471 729.37 245.957 729.933 245.737 730.057C244.885 730.503 242.89 729.499 241.999 728.94L239.055 726.538C240.544 724.697 240.916 721.959 240.917 720.82C240.691 719.731 239.783 717.051 237.956 715.034C236.129 713.017 236.665 710.269 237.161 709.147L237.956 705.932Z" fill="white"/>
<path d="M210.174 732.467C210.6 731.425 209.996 730.006 209.64 729.426L209.103 732.264C208.886 732.862 208.255 734.304 207.468 735.288C206.681 736.272 205.895 738.013 205.601 738.76L206.802 739.73C206.594 738.595 207.709 736.653 208.293 735.823C208.742 735.138 209.747 733.508 210.174 732.467Z" fill="white"/>
<path d="M236.379 732.467C235.952 731.425 236.557 730.006 236.912 729.426L237.45 732.264C237.667 732.862 238.298 734.304 239.085 735.288C239.872 736.272 240.657 738.013 240.952 738.76L239.75 739.73C239.959 738.595 238.843 736.653 238.26 735.823C237.81 735.138 236.805 733.508 236.379 732.467Z" fill="white"/>
<path d="M202.895 735.841L202.197 736.376L200.513 734.717L201.896 734.129C202.328 733.946 202.829 734.087 203.101 734.469C203.413 734.907 203.322 735.514 202.895 735.841Z" fill="white"/>
<path d="M198.878 732.985L197.317 731.327L199.244 730.473L200.207 730.36C200.523 730.324 200.837 730.436 201.058 730.665L201.146 730.757C201.272 730.888 201.342 731.062 201.342 731.244C201.342 731.565 201.125 731.846 200.813 731.925L200.098 732.107L198.878 732.985Z" fill="white"/>
<path d="M194.164 718.193C193.326 718.766 191.633 719.113 190.892 719.215L191.531 721.414C192.042 721.414 192.732 721.158 193.014 721.03C193.61 720.774 194.977 720.125 195.673 719.573C196.368 719.02 197.616 718.831 198.153 718.806V716.863C197.054 716.812 195.213 717.476 194.164 718.193Z" fill="white"/>
<path d="M194.547 722.998C194.179 723.346 193.03 723.586 192.502 723.663L193.551 725.837C194.267 725.504 195.796 724.722 196.184 724.251C196.573 723.781 197.965 723.493 198.613 723.408C198.654 722.692 198.392 721.899 198.255 721.593C197.028 721.158 195.008 722.564 194.547 722.998Z" fill="white"/>
<path d="M243.613 735.841L244.311 736.376L245.994 734.717L244.611 734.129C244.179 733.946 243.678 734.087 243.406 734.469C243.094 734.907 243.185 735.514 243.613 735.841Z" fill="white"/>
<path d="M247.628 732.985L249.189 731.327L247.262 730.473L246.3 730.36C245.984 730.324 245.669 730.436 245.449 730.665L245.361 730.757C245.235 730.888 245.164 731.062 245.164 731.244C245.164 731.565 245.382 731.846 245.693 731.925L246.409 732.107L247.628 732.985Z" fill="white"/>
<path d="M252.342 718.193C253.181 718.766 254.873 719.113 255.615 719.215L254.976 721.414C254.465 721.414 253.774 721.158 253.493 721.03C252.896 720.774 251.529 720.125 250.834 719.573C250.138 719.02 248.891 718.831 248.354 718.806V716.863C249.453 716.812 251.294 717.476 252.342 718.193Z" fill="white"/>
<path d="M251.959 722.998C252.328 723.346 253.476 723.586 254.005 723.663L252.956 725.837C252.24 725.504 250.711 724.722 250.322 724.251C249.934 723.781 248.541 723.493 247.893 723.408C247.852 722.692 248.115 721.899 248.251 721.593C249.479 721.158 251.499 722.564 251.959 722.998Z" fill="white"/>
<path d="M214.779 703.96C213.699 700.407 215.847 696.916 217.056 695.614C216.297 696.073 214.559 697.581 213.683 699.942C212.806 702.302 213.467 704.953 213.907 705.984C214.198 706.518 214.919 708.058 215.481 709.946C216.043 711.835 215.715 713.694 215.481 714.387L213.318 717.253C212.784 718.237 211.744 720.525 211.856 721.806C211.969 723.088 213.065 724.644 213.599 725.263C214.423 726.19 216.167 728.455 216.549 730.096C216.931 731.738 216.184 733.534 215.763 734.228C215.201 735.127 213.925 737.28 213.318 738.696C212.712 740.112 212.916 741.759 213.094 742.406L215.511 743.024C214.566 741.832 215.023 739.342 215.37 738.246L217.281 734.621C217.628 733.965 218.321 732.249 218.321 730.63C218.321 729.012 217.14 727.146 216.549 726.415L214.723 724.167C213.464 722.346 213.767 720.335 214.076 719.558C214.357 718.986 215.245 717.371 216.549 715.483C217.853 713.594 217.58 711.305 217.28 710.396C216.896 709.731 215.858 707.513 214.779 703.96Z" fill="white"/>
<path d="M232.032 703.96C233.112 700.407 230.964 696.916 229.755 695.614C230.514 696.073 232.251 697.581 233.128 699.942C234.005 702.302 233.344 704.953 232.903 705.984C232.613 706.518 231.892 708.058 231.329 709.946C230.767 711.835 231.095 713.694 231.329 714.387L233.492 717.253C234.027 718.237 235.067 720.525 234.954 721.806C234.842 723.088 233.746 724.644 233.212 725.263C232.388 726.19 230.643 728.455 230.261 730.096C229.879 731.738 230.627 733.534 231.048 734.228C231.61 735.127 232.886 737.28 233.492 738.696C234.099 740.112 233.895 741.759 233.717 742.406L231.3 743.024C232.244 741.832 231.787 739.342 231.441 738.246L229.53 734.621C229.183 733.965 228.49 732.249 228.49 730.63C228.49 729.012 229.671 727.146 230.261 726.415L232.088 724.167C233.347 722.346 233.043 720.335 232.734 719.558C232.453 718.986 231.565 717.371 230.261 715.483C228.957 713.594 229.231 711.305 229.531 710.396C229.915 709.731 230.952 707.513 232.032 703.96Z" fill="white"/>
<path d="M211.523 704.033C211.131 701.043 213.083 697.602 214.108 696.255C212.431 696.995 211.396 698.929 211.088 699.804C210.469 700.785 210.175 703.158 210.106 704.221C210.201 704.863 210.552 706.543 211.201 708.129C212.013 710.111 212.107 711.357 212.145 712.169C212.175 712.818 211.704 714.012 211.465 714.528L209.294 717.322C208.81 718.021 207.825 719.765 207.765 721.155C207.705 722.544 208.369 723.974 208.709 724.515L211.616 728.234C211.906 728.794 212.511 730.133 212.617 731.009C212.722 731.885 212.182 733.173 211.899 733.708C211.616 734.155 210.793 735.453 209.767 737.069C208.74 738.685 208.634 740.183 208.709 740.731L210.805 741.675C210.442 740.542 210.956 738.648 211.258 737.843L212.863 735.313C213.221 734.74 214.01 733.229 214.297 731.764C214.584 730.299 213.825 728.725 213.41 728.121L211.635 726.006C211.031 725.415 209.778 723.816 209.597 722.155C209.415 720.494 210.263 718.656 210.71 717.945L212.692 715.038C214.112 713.603 214.039 711.508 213.825 710.64C213.536 709.689 212.843 707.634 212.39 707.015C211.937 706.396 211.623 704.769 211.523 704.033Z" fill="white"/>
<path d="M235.254 704.033C235.646 701.043 233.694 697.602 232.669 696.255C234.345 696.995 235.381 698.929 235.689 699.804C236.308 700.785 236.601 703.158 236.67 704.221C236.576 704.863 236.225 706.543 235.575 708.129C234.764 710.111 234.669 711.357 234.631 712.169C234.601 712.818 235.072 714.012 235.311 714.528L237.482 717.322C237.967 718.021 238.951 719.765 239.011 721.155C239.072 722.544 238.407 723.974 238.067 724.515L235.16 728.234C234.871 728.794 234.266 730.133 234.16 731.009C234.054 731.885 234.594 733.173 234.877 733.708C235.16 734.155 235.983 735.453 237.01 737.069C238.037 738.685 238.142 740.183 238.067 740.731L235.972 741.675C236.334 740.542 235.821 738.648 235.518 737.843L233.914 735.313C233.555 734.74 232.766 733.229 232.479 731.764C232.192 730.299 232.951 728.725 233.366 728.121L235.141 726.006C235.745 725.415 236.999 723.816 237.18 722.155C237.361 720.494 236.513 718.656 236.066 717.945L234.084 715.038C232.664 713.603 232.737 711.508 232.951 710.64C233.241 709.689 233.933 707.634 234.386 707.015C234.839 706.396 235.153 704.769 235.254 704.033Z" fill="white"/>
</g>
<rect x="125.305" y="618.529" width="196.891" height="38.631" rx="2.92" fill="#EEEEEE" stroke="black" stroke-width="2.16"/>
</g>
<defs>
<clipPath id="clip0_1523_126">
<rect width="1920" height="835" fill="white"/>
</clipPath>
</defs>
</svg>
