<svg width="83" height="29" viewBox="0 0 83 29" fill="none" xmlns="http://www.w3.org/2000/svg">
<g clip-path="url(#clip0_50_285)">
<rect width="83" height="29" fill="#FFD541"/>
<path fill-rule="evenodd" clip-rule="evenodd" d="M37.4268 47.735C49.1433 47.735 58.6415 38.2368 58.6415 26.5203C58.6415 26.135 58.6312 25.7521 58.6109 25.3719C58.572 24.643 59.0493 23.9737 59.7636 23.823L61.3261 23.4932C61.3301 23.4924 61.3324 23.4883 61.3311 23.4844V23.4844C61.3299 23.4808 61.3319 23.4768 61.3357 23.4758C63.228 22.9368 64.6136 21.1952 64.6136 19.13C64.6136 16.6347 62.5908 14.6119 60.0955 14.6119C59.4909 14.6119 58.914 14.7306 58.387 14.9461C58.382 14.9481 58.3764 14.9456 58.3747 14.9405V14.9405C58.3729 14.9353 58.3669 14.9328 58.3619 14.9352L57.0284 15.5667C56.3973 15.8655 55.6462 15.6234 55.2677 15.0366C51.4914 9.18188 44.9117 5.30554 37.4268 5.30554C25.7102 5.30554 16.212 14.8037 16.212 26.5203C16.212 38.2368 25.7102 47.735 37.4268 47.735Z" fill="white"/>
<path d="M61.3357 23.4758L61.7185 24.8199L61.7185 24.8199L61.3357 23.4758ZM58.3619 14.9352L57.7638 13.6721L58.3619 14.9352ZM61.3261 23.4932L61.6147 24.8607L61.3261 23.4932ZM58.387 14.9461L58.9158 16.2397L58.387 14.9461ZM58.6109 25.3719L57.2153 25.4464L58.6109 25.3719ZM59.7636 23.823L59.475 22.4555L59.7636 23.823ZM57.2439 26.5203C57.2439 37.465 48.3715 46.3374 37.4268 46.3374V49.1325C49.9152 49.1325 60.039 39.0087 60.039 26.5203H57.2439ZM57.2153 25.4464C57.2343 25.8018 57.2439 26.1598 57.2439 26.5203H60.039C60.039 26.1102 60.0281 25.7025 60.0065 25.2975L57.2153 25.4464ZM60.0522 25.1904L61.6147 24.8607L61.0376 22.1258L59.475 22.4555L60.0522 25.1904ZM61.7185 24.8199C64.1954 24.1144 66.0112 21.836 66.0112 19.13H63.2161C63.2161 20.5543 62.2606 21.7592 60.9528 22.1316L61.7185 24.8199ZM66.0112 19.13C66.0112 15.8628 63.3627 13.2143 60.0955 13.2143V16.0094C61.819 16.0094 63.2161 17.4065 63.2161 19.13H66.0112ZM60.0955 13.2143C59.3065 13.2143 58.5502 13.3695 57.8581 13.6524L58.9158 16.2397C59.2779 16.0917 59.6754 16.0094 60.0955 16.0094V13.2143ZM57.7638 13.6721L56.4303 14.3036L57.6266 16.8298L58.9601 16.1983L57.7638 13.6721ZM37.4268 6.70312C44.4172 6.70312 50.5634 10.3215 54.0932 15.7941L56.4421 14.2791C52.4194 8.04225 45.4063 3.90797 37.4268 3.90797V6.70312ZM17.6096 26.5203C17.6096 15.5756 26.482 6.70312 37.4268 6.70312V3.90797C24.9383 3.90797 14.8145 14.0318 14.8145 26.5203H17.6096ZM37.4268 46.3374C26.482 46.3374 17.6096 37.465 17.6096 26.5203H14.8145C14.8145 39.0087 24.9383 49.1325 37.4268 49.1325V46.3374ZM56.4303 14.3036C56.4331 14.3023 56.4369 14.3008 56.4416 14.2996C56.4463 14.2984 56.4506 14.2978 56.4544 14.2975C56.462 14.2971 56.4652 14.2983 56.464 14.2979C56.4627 14.2975 56.459 14.296 56.4545 14.2926C56.4504 14.2895 56.4461 14.2852 56.4421 14.2791L54.0932 15.7941C54.8242 16.9275 56.3163 17.4503 57.6266 16.8298L56.4303 14.3036ZM62.6519 23.0274C62.915 23.7879 62.4805 24.6028 61.7185 24.8199L60.9528 22.1316C60.1833 22.3508 59.7447 23.1737 60.0104 23.9415L62.6519 23.0274ZM59.6954 14.4835C59.4215 13.6919 58.5208 13.3136 57.7638 13.6721L58.9601 16.1983C58.213 16.5521 57.3242 16.1787 57.0539 15.3975L59.6954 14.4835ZM61.6147 24.8607C62.4417 24.6862 62.9282 23.8261 62.6519 23.0274L60.0104 23.9415C59.7367 23.1505 60.2186 22.2986 61.0376 22.1258L61.6147 24.8607ZM57.8581 13.6524C58.5945 13.3514 59.4345 13.7295 59.6954 14.4835L57.0539 15.3975C57.3183 16.1616 58.1696 16.5448 58.9158 16.2397L57.8581 13.6524ZM60.0065 25.2975C60.0045 25.2599 60.0162 25.2284 60.031 25.2082C60.0379 25.1989 60.0436 25.1945 60.046 25.1929C60.0476 25.1918 60.0488 25.1912 60.0522 25.1904L59.475 22.4555C58.037 22.759 57.1425 24.0818 57.2153 25.4464L60.0065 25.2975Z" fill="black"/>
<mask id="path-3-inside-1_50_285" fill="white">
<path fill-rule="evenodd" clip-rule="evenodd" d="M71.529 -15.7459C71.529 -1.25051 59.7782 10.5003 45.2828 10.5003C44.8774 10.5003 44.4742 10.4911 44.0734 10.4729C32.9667 13.7191 23.2243 20.5339 16.3641 29.8797L16.0487 30.3094C14.0647 29.1639 13.4556 28.0482 12.5912 26.465C12.3063 25.943 11.9936 25.3702 11.5947 24.7287C9.98601 22.1418 9.04015 19.198 8.84091 16.1581C8.64167 13.1183 9.19519 10.0762 10.4524 7.3014C11.0266 6.03426 11.7394 4.84071 12.5746 3.74118C11.7189 2.31097 11.2151 0.69696 11.106 -0.967831C10.993 -2.69261 11.307 -4.41865 12.0204 -5.99306C12.7337 -7.56747 13.8244 -8.94165 15.1957 -9.99388C16.4137 -10.9285 17.8199 -11.5835 19.3141 -11.9156C19.1313 -13.1659 19.0366 -14.4448 19.0366 -15.7459C19.0366 -30.2412 30.7874 -41.9921 45.2828 -41.9921C59.7782 -41.9921 71.529 -30.2412 71.529 -15.7459Z"/>
</mask>
<path fill-rule="evenodd" clip-rule="evenodd" d="M71.529 -15.7459C71.529 -1.25051 59.7782 10.5003 45.2828 10.5003C44.8774 10.5003 44.4742 10.4911 44.0734 10.4729C32.9667 13.7191 23.2243 20.5339 16.3641 29.8797L16.0487 30.3094C14.0647 29.1639 13.4556 28.0482 12.5912 26.465C12.3063 25.943 11.9936 25.3702 11.5947 24.7287C9.98601 22.1418 9.04015 19.198 8.84091 16.1581C8.64167 13.1183 9.19519 10.0762 10.4524 7.3014C11.0266 6.03426 11.7394 4.84071 12.5746 3.74118C11.7189 2.31097 11.2151 0.69696 11.106 -0.967831C10.993 -2.69261 11.307 -4.41865 12.0204 -5.99306C12.7337 -7.56747 13.8244 -8.94165 15.1957 -9.99388C16.4137 -10.9285 17.8199 -11.5835 19.3141 -11.9156C19.1313 -13.1659 19.0366 -14.4448 19.0366 -15.7459C19.0366 -30.2412 30.7874 -41.9921 45.2828 -41.9921C59.7782 -41.9921 71.529 -30.2412 71.529 -15.7459Z" fill="white"/>
<path d="M44.0734 10.4729L44.2 7.68065L43.7355 7.65959L43.2892 7.79002L44.0734 10.4729ZM16.3641 29.8797L14.1109 28.2257L14.1109 28.2257L16.3641 29.8797ZM16.0487 30.3094L14.6512 32.7301L16.8201 33.9823L18.302 31.9634L16.0487 30.3094ZM12.5912 26.465L10.1379 27.8043L10.1379 27.8043L12.5912 26.465ZM11.5947 24.7287L9.22105 26.2048L9.22105 26.2048L11.5947 24.7287ZM8.84091 16.1581L6.05175 16.3409L6.05175 16.3409L8.84091 16.1581ZM10.4524 7.3014L12.9984 8.45497L12.9984 8.45497L10.4524 7.3014ZM12.5746 3.74118L14.8004 5.43196L15.9433 3.92742L14.9732 2.30607L12.5746 3.74118ZM11.106 -0.967831L8.31684 -0.785019L8.31684 -0.785019L11.106 -0.967831ZM15.1957 -9.99388L16.8972 -7.77634L16.8972 -7.77634L15.1957 -9.99388ZM19.3141 -11.9156L19.9204 -9.18699L22.4556 -9.75033L22.0798 -12.32L19.3141 -11.9156ZM45.2828 13.2955C61.3219 13.2955 74.3241 0.293203 74.3241 -15.7459H68.7338C68.7338 -2.79423 58.2344 7.70515 45.2828 7.70515V13.2955ZM43.9467 13.2652C44.3898 13.2853 44.8352 13.2955 45.2828 13.2955V7.70515C44.9197 7.70515 44.5587 7.69692 44.2 7.68065L43.9467 13.2652ZM18.6174 31.5337C25.1139 22.6834 34.3397 16.2299 44.8575 13.1558L43.2892 7.79002C31.5936 11.2083 21.3348 18.3844 14.1109 28.2257L18.6174 31.5337ZM18.302 31.9634L18.6174 31.5337L14.1109 28.2257L13.7955 28.6554L18.302 31.9634ZM10.1379 27.8043C10.5473 28.5542 11.0357 29.4662 11.7385 30.3235C12.4852 31.2342 13.4035 32.0097 14.6512 32.7301L17.4463 27.8887C16.7099 27.4636 16.3316 27.1084 16.0616 26.7792C15.7478 26.3964 15.4995 25.9589 15.0446 25.1256L10.1379 27.8043ZM9.22105 26.2048C9.57322 26.7711 9.85169 27.2801 10.1379 27.8043L15.0446 25.1256C14.7609 24.6059 14.4139 23.9693 13.9683 23.2527L9.22105 26.2048ZM6.05175 16.3409C6.28105 19.8395 7.36963 23.2274 9.22105 26.2048L13.9683 23.2527C12.6024 21.0561 11.7993 18.5565 11.6301 15.9753L6.05175 16.3409ZM7.90645 6.14782C6.45948 9.34133 5.82244 12.8424 6.05175 16.3409L11.6301 15.9753C11.4609 13.3941 11.9309 10.8111 12.9984 8.45497L7.90645 6.14782ZM10.3488 2.0504C9.38756 3.31583 8.56721 4.68949 7.90645 6.14782L12.9984 8.45497C13.486 7.37903 14.0912 6.36558 14.8004 5.43196L10.3488 2.0504ZM14.9732 2.30607C14.3451 1.25621 13.9753 0.0714161 13.8952 -1.15064L8.31684 -0.785019C8.45498 1.3225 9.09274 3.36574 10.176 5.17629L14.9732 2.30607ZM13.8952 -1.15064C13.8122 -2.41674 14.0427 -3.68376 14.5664 -4.83948L9.47438 -7.14663C8.57132 -5.15353 8.17373 -2.96848 8.31684 -0.785019L13.8952 -1.15064ZM14.5664 -4.83948C15.09 -5.9952 15.8906 -7.00393 16.8972 -7.77634L13.4941 -12.2114C11.7581 -10.8794 10.3774 -9.13974 9.47438 -7.14663L14.5664 -4.83948ZM16.8972 -7.77634C17.7914 -8.46243 18.8236 -8.94325 19.9204 -9.18699L18.7078 -14.6442C16.8162 -14.2238 15.0361 -13.3946 13.4941 -12.2114L16.8972 -7.77634ZM16.2415 -15.7459C16.2415 -14.3091 16.346 -12.895 16.5484 -11.5112L22.0798 -12.32C21.9165 -13.4368 21.8318 -14.5806 21.8318 -15.7459H16.2415ZM45.2828 -44.7872C29.2437 -44.7872 16.2415 -31.785 16.2415 -15.7459H21.8318C21.8318 -28.6975 32.3312 -39.1969 45.2828 -39.1969V-44.7872ZM74.3241 -15.7459C74.3241 -31.785 61.3219 -44.7872 45.2828 -44.7872V-39.1969C58.2344 -39.1969 68.7338 -28.6975 68.7338 -15.7459H74.3241Z" fill="black" mask="url(#path-3-inside-1_50_285)"/>
<circle cx="46.1651" cy="17.2934" r="3.21341" fill="black"/>
<circle cx="70.6475" cy="13.3582" r="3.21341" fill="black"/>
</g>
<defs>
<clipPath id="clip0_50_285">
<rect width="83" height="29" fill="white"/>
</clipPath>
</defs>
</svg>
