<svg width="518" height="518" viewBox="0 0 518 518" fill="none" xmlns="http://www.w3.org/2000/svg">
<path d="M274.19 36.3197L303.201 85.1305C310.007 96.582 323.938 101.653 336.513 97.2554L390.111 78.5116C403.001 74.0041 416.019 84.9276 413.818 98.4038L404.666 154.443C402.519 167.59 409.932 180.429 422.391 185.144L475.498 205.237C488.269 210.069 491.22 226.805 480.872 235.714L437.84 272.759C427.745 281.451 425.17 296.051 431.685 307.671L459.451 357.201C466.128 369.111 457.631 383.828 443.977 384.001L387.201 384.719C373.88 384.888 362.523 394.418 360.044 407.507L349.478 463.296C346.937 476.712 330.967 482.524 320.397 473.88L276.442 437.935C266.13 429.502 251.304 429.502 240.992 437.935L197.036 473.88C186.466 482.524 170.497 476.712 167.956 463.296L157.389 407.507C154.91 394.418 143.553 384.888 130.233 384.719L73.4562 384.001C59.8026 383.828 51.3056 369.111 57.9828 357.201L85.749 307.671C92.2632 296.051 89.6888 281.451 79.5931 272.759L36.5615 235.714C26.2132 226.805 29.1642 210.069 41.9353 205.237L95.0421 185.144C107.502 180.429 114.915 167.59 112.767 154.443L103.616 98.4037C101.415 84.9275 114.433 74.0041 127.322 78.5116L180.92 97.2553C193.495 101.653 207.427 96.582 214.233 85.1306L243.243 36.3198C250.22 24.5817 267.214 24.5817 274.19 36.3197Z" fill="#080808" stroke="white" stroke-width="10"/>
<path d="M175.758 240.049H170.781C170.69 239.405 170.504 238.833 170.224 238.333C169.944 237.825 169.584 237.394 169.144 237.037C168.705 236.681 168.197 236.409 167.622 236.219C167.053 236.03 166.436 235.935 165.769 235.935C164.565 235.935 163.516 236.234 162.622 236.833C161.728 237.424 161.035 238.287 160.542 239.424C160.05 240.553 159.803 241.924 159.803 243.537C159.803 245.197 160.05 246.59 160.542 247.719C161.042 248.848 161.739 249.7 162.633 250.276C163.527 250.852 164.561 251.14 165.735 251.14C166.394 251.14 167.004 251.053 167.565 250.878C168.133 250.704 168.637 250.45 169.076 250.117C169.516 249.776 169.879 249.363 170.167 248.878C170.463 248.394 170.667 247.84 170.781 247.219L175.758 247.242C175.629 248.31 175.307 249.34 174.792 250.333C174.285 251.318 173.599 252.2 172.735 252.981C171.879 253.753 170.856 254.367 169.667 254.822C168.485 255.269 167.148 255.492 165.656 255.492C163.58 255.492 161.724 255.022 160.088 254.083C158.459 253.144 157.171 251.784 156.224 250.003C155.285 248.223 154.815 246.068 154.815 243.537C154.815 241 155.292 238.84 156.247 237.06C157.201 235.28 158.497 233.924 160.133 232.992C161.769 232.053 163.61 231.583 165.656 231.583C167.004 231.583 168.254 231.772 169.406 232.151C170.565 232.53 171.591 233.083 172.485 233.81C173.379 234.53 174.106 235.412 174.667 236.458C175.235 237.503 175.599 238.7 175.758 240.049ZM184.036 231.901V255.174H179.195V231.901H184.036ZM187.914 255.174V237.719H192.755V255.174H187.914ZM190.346 235.469C189.626 235.469 189.009 235.231 188.494 234.753C187.986 234.269 187.732 233.689 187.732 233.015C187.732 232.348 187.986 231.776 188.494 231.299C189.009 230.814 189.626 230.572 190.346 230.572C191.066 230.572 191.679 230.814 192.187 231.299C192.702 231.776 192.96 232.348 192.96 233.015C192.96 233.689 192.702 234.269 192.187 234.753C191.679 235.231 191.066 235.469 190.346 235.469ZM204.519 255.515C202.731 255.515 201.194 255.136 199.906 254.378C198.625 253.613 197.641 252.553 196.951 251.197C196.269 249.84 195.928 248.28 195.928 246.515C195.928 244.727 196.273 243.159 196.963 241.81C197.66 240.454 198.648 239.397 199.928 238.64C201.209 237.875 202.731 237.492 204.497 237.492C206.019 237.492 207.353 237.769 208.497 238.322C209.641 238.875 210.546 239.651 211.213 240.651C211.879 241.651 212.247 242.825 212.315 244.174H207.747C207.618 243.303 207.277 242.602 206.724 242.072C206.178 241.534 205.463 241.265 204.576 241.265C203.826 241.265 203.171 241.469 202.61 241.878C202.057 242.28 201.625 242.867 201.315 243.64C201.004 244.412 200.849 245.348 200.849 246.447C200.849 247.56 201 248.507 201.303 249.287C201.614 250.068 202.05 250.662 202.61 251.072C203.171 251.481 203.826 251.685 204.576 251.685C205.129 251.685 205.625 251.572 206.065 251.344C206.512 251.117 206.879 250.787 207.167 250.356C207.463 249.916 207.656 249.39 207.747 248.776H212.315C212.239 250.109 211.875 251.284 211.224 252.299C210.58 253.306 209.69 254.094 208.553 254.662C207.417 255.231 206.072 255.515 204.519 255.515ZM219.801 250.151L219.812 244.344H220.517L226.107 237.719H231.664L224.153 246.492H223.005L219.801 250.151ZM215.414 255.174V231.901H220.255V255.174H215.414ZM226.323 255.174L221.187 247.572L224.414 244.151L231.994 255.174H226.323ZM250.73 237.719V241.356H240.218V237.719H250.73ZM242.605 233.537H247.445V249.81C247.445 250.257 247.514 250.606 247.65 250.856C247.786 251.098 247.976 251.269 248.218 251.367C248.468 251.465 248.756 251.515 249.082 251.515C249.309 251.515 249.536 251.496 249.764 251.458C249.991 251.412 250.165 251.378 250.286 251.356L251.048 254.958C250.805 255.034 250.464 255.121 250.025 255.219C249.586 255.325 249.052 255.39 248.423 255.412C247.256 255.458 246.233 255.303 245.355 254.947C244.483 254.59 243.805 254.037 243.32 253.287C242.836 252.537 242.597 251.59 242.605 250.447V233.537ZM261.582 255.515C259.817 255.515 258.29 255.14 257.002 254.39C255.722 253.632 254.733 252.579 254.036 251.231C253.339 249.875 252.991 248.303 252.991 246.515C252.991 244.712 253.339 243.136 254.036 241.787C254.733 240.431 255.722 239.378 257.002 238.628C258.29 237.871 259.817 237.492 261.582 237.492C263.347 237.492 264.87 237.871 266.15 238.628C267.438 239.378 268.43 240.431 269.127 241.787C269.824 243.136 270.173 244.712 270.173 246.515C270.173 248.303 269.824 249.875 269.127 251.231C268.43 252.579 267.438 253.632 266.15 254.39C264.87 255.14 263.347 255.515 261.582 255.515ZM261.605 251.765C262.408 251.765 263.078 251.537 263.616 251.083C264.154 250.621 264.559 249.992 264.832 249.197C265.112 248.401 265.252 247.496 265.252 246.481C265.252 245.465 265.112 244.56 264.832 243.765C264.559 242.969 264.154 242.34 263.616 241.878C263.078 241.416 262.408 241.185 261.605 241.185C260.794 241.185 260.112 241.416 259.559 241.878C259.014 242.34 258.601 242.969 258.32 243.765C258.048 244.56 257.911 245.465 257.911 246.481C257.911 247.496 258.048 248.401 258.32 249.197C258.601 249.992 259.014 250.621 259.559 251.083C260.112 251.537 260.794 251.765 261.605 251.765ZM280.727 261.719V237.719H285.499V240.651H285.715C285.927 240.181 286.234 239.704 286.636 239.219C287.045 238.727 287.575 238.318 288.227 237.992C288.886 237.659 289.704 237.492 290.681 237.492C291.954 237.492 293.128 237.825 294.204 238.492C295.28 239.151 296.14 240.147 296.784 241.481C297.427 242.806 297.749 244.469 297.749 246.469C297.749 248.416 297.435 250.06 296.806 251.401C296.185 252.734 295.337 253.746 294.261 254.435C293.193 255.117 291.996 255.458 290.67 255.458C289.731 255.458 288.931 255.303 288.272 254.992C287.621 254.681 287.087 254.291 286.67 253.822C286.253 253.344 285.935 252.863 285.715 252.378H285.568V261.719H280.727ZM285.465 246.447C285.465 247.484 285.609 248.39 285.897 249.162C286.185 249.935 286.602 250.537 287.147 250.969C287.693 251.394 288.356 251.606 289.136 251.606C289.924 251.606 290.59 251.39 291.136 250.958C291.681 250.519 292.094 249.912 292.374 249.14C292.662 248.359 292.806 247.462 292.806 246.447C292.806 245.439 292.666 244.553 292.386 243.787C292.106 243.022 291.693 242.424 291.147 241.992C290.602 241.56 289.931 241.344 289.136 241.344C288.348 241.344 287.681 241.553 287.136 241.969C286.598 242.386 286.185 242.977 285.897 243.742C285.609 244.507 285.465 245.409 285.465 246.447ZM305.818 231.901V255.174H300.977V231.901H305.818ZM314.673 255.503C313.559 255.503 312.567 255.31 311.695 254.924C310.824 254.53 310.135 253.95 309.627 253.185C309.127 252.412 308.877 251.45 308.877 250.299C308.877 249.329 309.055 248.515 309.411 247.856C309.767 247.197 310.252 246.666 310.866 246.265C311.48 245.863 312.177 245.56 312.957 245.356C313.745 245.151 314.57 245.007 315.434 244.924C316.449 244.818 317.267 244.719 317.889 244.628C318.51 244.53 318.961 244.386 319.241 244.197C319.521 244.007 319.661 243.727 319.661 243.356V243.287C319.661 242.568 319.434 242.011 318.98 241.617C318.533 241.223 317.896 241.026 317.07 241.026C316.199 241.026 315.506 241.219 314.991 241.606C314.476 241.984 314.135 242.462 313.968 243.037L309.491 242.674C309.718 241.613 310.165 240.697 310.832 239.924C311.499 239.144 312.358 238.545 313.411 238.128C314.472 237.704 315.699 237.492 317.093 237.492C318.063 237.492 318.991 237.606 319.877 237.833C320.771 238.06 321.563 238.412 322.252 238.89C322.949 239.367 323.499 239.981 323.9 240.731C324.302 241.473 324.502 242.363 324.502 243.401V255.174H319.911V252.753H319.775C319.495 253.299 319.12 253.78 318.65 254.197C318.18 254.606 317.616 254.928 316.957 255.162C316.298 255.39 315.536 255.503 314.673 255.503ZM316.059 252.162C316.771 252.162 317.4 252.022 317.945 251.742C318.491 251.454 318.919 251.068 319.23 250.583C319.54 250.098 319.695 249.549 319.695 248.935V247.083C319.544 247.181 319.336 247.272 319.07 247.356C318.813 247.431 318.521 247.503 318.195 247.572C317.87 247.632 317.544 247.689 317.218 247.742C316.892 247.787 316.597 247.829 316.332 247.867C315.764 247.95 315.267 248.083 314.843 248.265C314.419 248.447 314.089 248.693 313.855 249.003C313.62 249.306 313.502 249.685 313.502 250.14C313.502 250.799 313.741 251.303 314.218 251.651C314.703 251.992 315.317 252.162 316.059 252.162ZM336.144 255.515C334.356 255.515 332.819 255.136 331.531 254.378C330.25 253.613 329.266 252.553 328.576 251.197C327.894 249.84 327.553 248.28 327.553 246.515C327.553 244.727 327.898 243.159 328.588 241.81C329.285 240.454 330.273 239.397 331.553 238.64C332.834 237.875 334.356 237.492 336.122 237.492C337.644 237.492 338.978 237.769 340.122 238.322C341.266 238.875 342.171 239.651 342.838 240.651C343.504 241.651 343.872 242.825 343.94 244.174H339.372C339.243 243.303 338.902 242.602 338.349 242.072C337.803 241.534 337.088 241.265 336.201 241.265C335.451 241.265 334.796 241.469 334.235 241.878C333.682 242.28 333.25 242.867 332.94 243.64C332.629 244.412 332.474 245.348 332.474 246.447C332.474 247.56 332.625 248.507 332.928 249.287C333.239 250.068 333.675 250.662 334.235 251.072C334.796 251.481 335.451 251.685 336.201 251.685C336.754 251.685 337.25 251.572 337.69 251.344C338.137 251.117 338.504 250.787 338.792 250.356C339.088 249.916 339.281 249.39 339.372 248.776H343.94C343.864 250.109 343.5 251.284 342.849 252.299C342.205 253.306 341.315 254.094 340.178 254.662C339.042 255.231 337.697 255.515 336.144 255.515ZM354.994 255.515C353.198 255.515 351.653 255.151 350.357 254.424C349.07 253.689 348.077 252.651 347.38 251.31C346.683 249.962 346.335 248.367 346.335 246.526C346.335 244.731 346.683 243.155 347.38 241.799C348.077 240.443 349.058 239.386 350.323 238.628C351.596 237.871 353.088 237.492 354.801 237.492C355.952 237.492 357.024 237.678 358.017 238.049C359.017 238.412 359.888 238.962 360.63 239.697C361.38 240.431 361.963 241.356 362.38 242.469C362.797 243.575 363.005 244.871 363.005 246.356V247.685H348.267V244.685H358.448C358.448 243.988 358.297 243.371 357.994 242.833C357.691 242.295 357.27 241.875 356.732 241.572C356.202 241.261 355.585 241.106 354.88 241.106C354.145 241.106 353.494 241.276 352.926 241.617C352.365 241.95 351.926 242.401 351.607 242.969C351.289 243.53 351.126 244.155 351.119 244.844V247.697C351.119 248.56 351.278 249.306 351.596 249.935C351.922 250.564 352.38 251.049 352.971 251.39C353.562 251.731 354.263 251.901 355.073 251.901C355.611 251.901 356.104 251.825 356.551 251.674C356.998 251.522 357.38 251.295 357.698 250.992C358.017 250.689 358.259 250.318 358.426 249.878L362.903 250.174C362.676 251.25 362.21 252.189 361.505 252.992C360.808 253.787 359.907 254.409 358.801 254.856C357.702 255.295 356.433 255.515 354.994 255.515ZM212.171 274.697L207.74 274.969C207.664 274.59 207.501 274.25 207.251 273.947C207.001 273.636 206.671 273.39 206.262 273.208C205.861 273.019 205.38 272.924 204.819 272.924C204.069 272.924 203.436 273.083 202.921 273.401C202.406 273.712 202.149 274.128 202.149 274.651C202.149 275.068 202.315 275.42 202.649 275.708C202.982 275.996 203.554 276.227 204.365 276.401L207.524 277.037C209.221 277.386 210.486 277.947 211.319 278.719C212.152 279.492 212.569 280.507 212.569 281.765C212.569 282.909 212.232 283.912 211.558 284.776C210.891 285.64 209.974 286.314 208.808 286.799C207.649 287.276 206.311 287.515 204.796 287.515C202.486 287.515 200.645 287.034 199.274 286.072C197.91 285.102 197.111 283.784 196.876 282.117L201.637 281.867C201.781 282.572 202.13 283.109 202.683 283.481C203.236 283.844 203.944 284.026 204.808 284.026C205.656 284.026 206.338 283.863 206.853 283.537C207.376 283.204 207.641 282.776 207.649 282.253C207.641 281.814 207.455 281.454 207.092 281.174C206.728 280.886 206.168 280.666 205.41 280.515L202.387 279.912C200.683 279.572 199.414 278.981 198.58 278.14C197.755 277.299 197.342 276.227 197.342 274.924C197.342 273.803 197.645 272.837 198.251 272.026C198.865 271.215 199.724 270.59 200.83 270.151C201.944 269.712 203.247 269.492 204.74 269.492C206.944 269.492 208.679 269.958 209.944 270.89C211.217 271.822 211.959 273.09 212.171 274.697ZM224.901 269.719V273.356H214.39V269.719H224.901ZM216.776 265.537H221.617V281.81C221.617 282.257 221.686 282.606 221.822 282.856C221.958 283.098 222.148 283.269 222.39 283.367C222.64 283.465 222.928 283.515 223.254 283.515C223.481 283.515 223.708 283.496 223.936 283.458C224.163 283.412 224.337 283.378 224.458 283.356L225.22 286.958C224.977 287.034 224.636 287.121 224.197 287.219C223.758 287.325 223.223 287.39 222.595 287.412C221.428 287.458 220.405 287.303 219.526 286.947C218.655 286.59 217.977 286.037 217.492 285.287C217.008 284.537 216.769 283.59 216.776 282.447V265.537ZM228.055 287.174V269.719H232.896V287.174H228.055ZM230.487 267.469C229.767 267.469 229.15 267.231 228.634 266.753C228.127 266.269 227.873 265.689 227.873 265.015C227.873 264.348 228.127 263.776 228.634 263.299C229.15 262.814 229.767 262.572 230.487 262.572C231.206 262.572 231.82 262.814 232.328 263.299C232.843 263.776 233.1 264.348 233.1 265.015C233.1 265.689 232.843 266.269 232.328 266.753C231.82 267.231 231.206 267.469 230.487 267.469ZM244.66 287.515C242.872 287.515 241.334 287.136 240.046 286.378C238.766 285.613 237.781 284.553 237.092 283.197C236.41 281.84 236.069 280.28 236.069 278.515C236.069 276.727 236.414 275.159 237.103 273.81C237.8 272.454 238.789 271.397 240.069 270.64C241.349 269.875 242.872 269.492 244.637 269.492C246.16 269.492 247.493 269.769 248.637 270.322C249.781 270.875 250.686 271.651 251.353 272.651C252.02 273.651 252.387 274.825 252.455 276.174H247.887C247.758 275.303 247.418 274.602 246.865 274.072C246.319 273.534 245.603 273.265 244.717 273.265C243.967 273.265 243.311 273.469 242.751 273.878C242.198 274.28 241.766 274.867 241.455 275.64C241.145 276.412 240.99 277.348 240.99 278.447C240.99 279.56 241.141 280.507 241.444 281.287C241.755 282.068 242.19 282.662 242.751 283.072C243.311 283.481 243.967 283.685 244.717 283.685C245.27 283.685 245.766 283.572 246.205 283.344C246.652 283.117 247.02 282.787 247.308 282.356C247.603 281.916 247.796 281.39 247.887 280.776H252.455C252.38 282.109 252.016 283.284 251.365 284.299C250.721 285.306 249.83 286.094 248.694 286.662C247.558 287.231 246.213 287.515 244.66 287.515ZM259.941 282.151L259.953 276.344H260.657L266.248 269.719H271.805L264.294 278.492H263.146L259.941 282.151ZM255.555 287.174V263.901H260.396V287.174H255.555ZM266.464 287.174L261.328 279.572L264.555 276.151L272.134 287.174H266.464ZM281.416 287.515C279.62 287.515 278.075 287.151 276.779 286.424C275.491 285.689 274.499 284.651 273.802 283.31C273.105 281.962 272.757 280.367 272.757 278.526C272.757 276.731 273.105 275.155 273.802 273.799C274.499 272.443 275.48 271.386 276.745 270.628C278.018 269.871 279.51 269.492 281.222 269.492C282.374 269.492 283.446 269.678 284.438 270.049C285.438 270.412 286.31 270.962 287.052 271.697C287.802 272.431 288.385 273.356 288.802 274.469C289.219 275.575 289.427 276.871 289.427 278.356V279.685H274.688V276.685H284.87C284.87 275.988 284.719 275.371 284.416 274.833C284.113 274.295 283.692 273.875 283.154 273.572C282.624 273.261 282.007 273.106 281.302 273.106C280.567 273.106 279.916 273.276 279.347 273.617C278.787 273.95 278.347 274.401 278.029 274.969C277.711 275.53 277.548 276.155 277.541 276.844V279.697C277.541 280.56 277.7 281.306 278.018 281.935C278.344 282.564 278.802 283.049 279.393 283.39C279.984 283.731 280.685 283.901 281.495 283.901C282.033 283.901 282.526 283.825 282.972 283.674C283.419 283.522 283.802 283.295 284.12 282.992C284.438 282.689 284.681 282.318 284.847 281.878L289.325 282.174C289.097 283.25 288.632 284.189 287.927 284.992C287.23 285.787 286.329 286.409 285.222 286.856C284.124 287.295 282.855 287.515 281.416 287.515ZM292.586 287.174V269.719H297.279V272.765H297.461C297.779 271.681 298.313 270.863 299.063 270.31C299.813 269.75 300.677 269.469 301.654 269.469C301.897 269.469 302.158 269.484 302.438 269.515C302.719 269.545 302.965 269.587 303.177 269.64V273.935C302.95 273.867 302.635 273.806 302.234 273.753C301.832 273.7 301.465 273.674 301.132 273.674C300.419 273.674 299.783 273.829 299.222 274.14C298.669 274.443 298.23 274.867 297.904 275.412C297.586 275.958 297.427 276.587 297.427 277.299V287.174H292.586ZM320.203 274.697L315.771 274.969C315.695 274.59 315.532 274.25 315.282 273.947C315.032 273.636 314.703 273.39 314.294 273.208C313.892 273.019 313.411 272.924 312.85 272.924C312.1 272.924 311.468 273.083 310.953 273.401C310.437 273.712 310.18 274.128 310.18 274.651C310.18 275.068 310.347 275.42 310.68 275.708C311.013 275.996 311.585 276.227 312.396 276.401L315.555 277.037C317.252 277.386 318.517 277.947 319.35 278.719C320.184 279.492 320.6 280.507 320.6 281.765C320.6 282.909 320.263 283.912 319.589 284.776C318.922 285.64 318.006 286.314 316.839 286.799C315.68 287.276 314.343 287.515 312.828 287.515C310.517 287.515 308.676 287.034 307.305 286.072C305.941 285.102 305.142 283.784 304.907 282.117L309.669 281.867C309.812 282.572 310.161 283.109 310.714 283.481C311.267 283.844 311.975 284.026 312.839 284.026C313.687 284.026 314.369 283.863 314.884 283.537C315.407 283.204 315.672 282.776 315.68 282.253C315.672 281.814 315.487 281.454 315.123 281.174C314.759 280.886 314.199 280.666 313.441 280.515L310.419 279.912C308.714 279.572 307.445 278.981 306.612 278.14C305.786 277.299 305.373 276.227 305.373 274.924C305.373 273.803 305.676 272.837 306.282 272.026C306.896 271.215 307.756 270.59 308.862 270.151C309.975 269.712 311.278 269.492 312.771 269.492C314.975 269.492 316.71 269.958 317.975 270.89C319.248 271.822 319.99 273.09 320.203 274.697Z" fill="white"/>
</svg>
