<svg width="702" height="341" viewBox="0 0 702 341" fill="none" xmlns="http://www.w3.org/2000/svg">
<g clip-path="url(#clip0_974_1936)">
<path d="M261.829 202.285C67.3815 195.34 143.623 -190.209 133.624 -409.189" stroke="#E8E8E8" stroke-width="207"/>
<path d="M444.451 244.136C399.323 250.826 348.145 252.214 331.938 254.711L326.786 282.752C326.786 282.752 319.292 312.045 338.906 313.69C367.87 316.12 419.465 315.34 470.731 312.08C505.137 309.891 551.843 303.869 579.288 300.078C594.308 298.003 607.95 292.53 619.251 284.285C644.385 265.948 623.023 225.66 588.689 226.648L571.123 227.154C566.928 227.275 562.819 227.604 558.734 228.156C540.118 230.668 482.914 238.433 444.451 244.136Z" fill="#E8E8E8" stroke="white" stroke-width="4.20739"/>
<path d="M485.337 192.227C440.209 198.918 389.032 200.305 372.825 202.803L367.673 230.844C367.673 230.844 360.179 260.136 379.793 261.782C408.756 264.211 460.351 263.432 511.617 260.171C546.024 257.982 592.729 251.96 620.175 248.169C635.194 246.094 648.837 240.621 660.138 232.376C685.272 214.039 663.91 173.752 629.576 174.74L612.009 175.245C607.815 175.366 603.706 175.695 599.62 176.247C581.005 178.759 523.801 186.524 485.337 192.227Z" fill="#E8E8E8" stroke="white" stroke-width="4.20739"/>
<path d="M502.734 132.592C457.606 139.283 406.429 140.671 390.222 143.168L385.07 171.209C385.07 171.209 377.576 200.501 397.19 202.147C426.153 204.577 477.748 203.797 529.014 200.536C563.421 198.348 610.126 192.326 637.572 188.534C652.591 186.46 666.234 180.986 677.535 172.742C702.669 154.404 681.307 114.117 646.973 115.105L629.406 115.61C625.212 115.731 621.103 116.061 617.017 116.612C598.402 119.125 541.198 126.89 502.734 132.592Z" fill="#E8E8E8" stroke="white" stroke-width="4.20739"/>
<path d="M464.851 69.475C419.724 76.1656 368.546 77.5535 352.339 80.0507L347.187 108.092C347.187 108.092 339.693 137.384 359.307 139.03C388.271 141.459 439.865 140.68 491.132 137.419C525.538 135.23 572.244 129.208 599.689 125.417C614.709 123.342 628.351 117.869 639.652 109.624C664.786 91.2869 643.424 50.9997 609.09 51.9878L591.523 52.4933C587.329 52.614 583.22 52.9435 579.135 53.4949C560.519 56.0075 503.315 63.7725 464.851 69.475Z" fill="#E8E8E8" stroke="white" stroke-width="4.20739"/>
<path d="M363.199 301.333C325.101 330.738 265.975 313.479 240.575 305.677L233.183 295.262C188.515 232.322 191.412 147.291 240.262 87.5377L363.199 56.6847L377.547 105.78L387.954 128.523C402.51 160.334 406.901 195.861 400.528 230.26L399.164 237.621C394.597 262.268 381.941 284.688 363.199 301.333Z" fill="#E8E8E8" stroke="white" stroke-width="4.20739"/>
<path d="M367.66 143.45C354.609 153.256 321.564 168.719 293.792 152.117" stroke="white" stroke-width="4.20739"/>
<path d="M375.463 153.246C359.601 165.164 319.44 183.956 285.688 163.779" stroke="#E8E8E8" stroke-width="4.20739"/>
<path d="M293.065 74.8454L366.692 53.328C384.295 52.3799 422.951 62.2841 436.746 109.486C439.797 119.928 441.44 129.276 442.048 137.575C443.455 156.78 438.8 174.954 433.76 183.449C431.135 187.875 425.112 194.053 422.651 195.794C409.374 204.053 380.452 217.636 370.871 189.346C361.289 161.056 368.734 124.618 371.832 115.867L293.065 74.8454Z" fill="#E8E8E8"/>
<path d="M442.048 137.575C441.44 129.276 439.797 119.928 436.746 109.486C422.951 62.2841 384.295 52.3799 366.692 53.328L293.065 74.8454L371.832 115.867C368.734 124.618 361.289 161.056 370.871 189.346C380.452 217.636 409.374 204.053 422.651 195.794C425.112 194.053 431.135 187.875 433.76 183.449M442.048 137.575C428.971 135.713 402.875 136.681 403.104 155.443C403.332 174.206 423.464 183.463 433.76 183.449M442.048 137.575C443.455 156.78 438.8 174.954 433.76 183.449" stroke="white" stroke-width="4.20739"/>
<path d="M269 83.2766L303.263 74.0202L383.994 110.991L367.246 117.896L269 83.2766Z" fill="#E8E8E8"/>
</g>
<defs>
<clipPath id="clip0_974_1936">
<rect width="702" height="340" fill="white" transform="translate(702 340.696) rotate(-180)"/>
</clipPath>
</defs>
</svg>
