<svg width="514" height="513" viewBox="0 0 514 513" fill="none" xmlns="http://www.w3.org/2000/svg">
<rect x="25.084" y="193.279" width="463.093" height="126.284" rx="63.1418" fill="white"/>
<path d="M96.994 239.252H103.853V260.321C103.853 262.686 103.288 264.756 102.158 266.53C101.039 268.304 99.4704 269.688 97.4533 270.681C95.4363 271.663 93.0866 272.154 90.4042 272.154C87.7113 272.154 85.3563 271.663 83.3392 270.681C81.3222 269.688 79.7539 268.304 78.6345 266.53C77.5151 264.756 76.9554 262.686 76.9554 260.321V239.252H83.8144V259.735C83.8144 260.97 84.0837 262.068 84.6223 263.029C85.1715 263.99 85.9424 264.746 86.9351 265.295C87.9278 265.844 89.0841 266.118 90.4042 266.118C91.7348 266.118 92.8912 265.844 93.8733 265.295C94.866 264.746 95.6317 263.99 96.1702 263.029C96.7194 262.068 96.994 260.97 96.994 259.735V239.252ZM116.374 239.252L122.916 250.309H123.169L129.743 239.252H137.489L127.589 255.473L137.711 271.694H129.823L123.169 260.622H122.916L116.263 271.694H108.406L118.56 255.473L108.596 239.252H116.374ZM156.279 237.732L145.824 276.573H140.011L150.466 237.732H156.279ZM180.142 239.252H187.001V260.321C187.001 262.686 186.436 264.756 185.306 266.53C184.186 268.304 182.618 269.688 180.601 270.681C178.584 271.663 176.234 272.154 173.552 272.154C170.859 272.154 168.504 271.663 166.487 270.681C164.47 269.688 162.902 268.304 161.782 266.53C160.663 264.756 160.103 262.686 160.103 260.321V239.252H166.962V259.735C166.962 260.97 167.232 262.068 167.77 263.029C168.319 263.99 169.09 264.746 170.083 265.295C171.076 265.844 172.232 266.118 173.552 266.118C174.883 266.118 176.039 265.844 177.021 265.295C178.014 264.746 178.779 263.99 179.318 263.029C179.867 262.068 180.142 260.97 180.142 259.735V239.252ZM199.949 239.252V271.694H193.09V239.252H199.949ZM228.309 271.694H216.809V239.252H228.404C231.667 239.252 234.477 239.902 236.832 241.201C239.187 242.489 240.998 244.343 242.265 246.761C243.543 249.179 244.182 252.073 244.182 255.442C244.182 258.821 243.543 261.725 242.265 264.154C240.998 266.583 239.176 268.447 236.8 269.746C234.434 271.045 231.604 271.694 228.309 271.694ZM223.668 265.817H228.024C230.052 265.817 231.757 265.458 233.141 264.74C234.535 264.012 235.58 262.887 236.277 261.366C236.985 259.835 237.338 257.86 237.338 255.442C237.338 253.044 236.985 251.086 236.277 249.565C235.58 248.044 234.54 246.925 233.157 246.207C231.773 245.488 230.068 245.129 228.04 245.129H223.668V265.817ZM249.709 271.694V239.252H271.569V244.908H256.568V252.638H270.444V258.293H256.568V266.039H271.632V271.694H249.709ZM295.067 248.583C294.941 247.305 294.397 246.312 293.436 245.605C292.475 244.897 291.17 244.543 289.523 244.543C288.404 244.543 287.458 244.702 286.688 245.018C285.917 245.325 285.325 245.752 284.913 246.302C284.512 246.851 284.311 247.474 284.311 248.171C284.29 248.752 284.412 249.259 284.676 249.692C284.95 250.125 285.325 250.499 285.8 250.816C286.276 251.122 286.825 251.392 287.448 251.624C288.071 251.846 288.736 252.036 289.444 252.194L292.359 252.891C293.774 253.208 295.073 253.631 296.255 254.159C297.438 254.687 298.462 255.336 299.328 256.107C300.194 256.878 300.865 257.786 301.34 258.832C301.826 259.877 302.074 261.076 302.085 262.427C302.074 264.413 301.567 266.134 300.564 267.592C299.571 269.038 298.135 270.163 296.255 270.966C294.386 271.758 292.131 272.154 289.491 272.154C286.872 272.154 284.591 271.752 282.648 270.95C280.716 270.147 279.205 268.959 278.118 267.386C277.04 265.802 276.476 263.843 276.423 261.509H283.06C283.134 262.596 283.445 263.505 283.995 264.233C284.554 264.951 285.299 265.495 286.228 265.865C287.168 266.224 288.229 266.404 289.412 266.404C290.574 266.404 291.582 266.235 292.438 265.897C293.304 265.559 293.974 265.089 294.449 264.487C294.925 263.885 295.162 263.193 295.162 262.412C295.162 261.683 294.946 261.07 294.513 260.574C294.09 260.078 293.467 259.655 292.644 259.307C291.83 258.958 290.833 258.642 289.65 258.356L286.117 257.469C283.382 256.804 281.222 255.764 279.638 254.349C278.054 252.934 277.268 251.027 277.278 248.63C277.268 246.666 277.79 244.95 278.846 243.482C279.913 242.014 281.376 240.868 283.234 240.044C285.093 239.221 287.205 238.809 289.571 238.809C291.978 238.809 294.08 239.221 295.875 240.044C297.681 240.868 299.086 242.014 300.089 243.482C301.092 244.95 301.61 246.65 301.641 248.583H295.067ZM314.003 239.252V271.694H307.144V239.252H314.003ZM341.605 249.739C341.383 248.968 341.071 248.287 340.67 247.696C340.269 247.094 339.778 246.587 339.197 246.175C338.627 245.752 337.972 245.43 337.233 245.209C336.504 244.987 335.696 244.876 334.809 244.876C333.151 244.876 331.694 245.288 330.437 246.112C329.191 246.935 328.219 248.134 327.522 249.707C326.825 251.27 326.477 253.182 326.477 255.442C326.477 257.702 326.82 259.624 327.506 261.208C328.193 262.792 329.164 264.001 330.421 264.835C331.678 265.659 333.161 266.071 334.872 266.071C336.425 266.071 337.75 265.796 338.848 265.247C339.957 264.687 340.802 263.901 341.383 262.887C341.974 261.873 342.27 260.674 342.27 259.291L343.664 259.497H335.3V254.333H348.875V258.42C348.875 261.271 348.274 263.721 347.07 265.77C345.866 267.808 344.208 269.382 342.096 270.49C339.984 271.589 337.565 272.138 334.841 272.138C331.799 272.138 329.127 271.467 326.825 270.126C324.523 268.774 322.728 266.858 321.439 264.376C320.161 261.884 319.523 258.927 319.523 255.505C319.523 252.876 319.903 250.531 320.663 248.472C321.434 246.402 322.511 244.649 323.895 243.213C325.278 241.776 326.889 240.683 328.726 239.934C330.564 239.184 332.554 238.809 334.698 238.809C336.536 238.809 338.246 239.078 339.83 239.617C341.414 240.145 342.819 240.895 344.044 241.866C345.28 242.838 346.288 243.994 347.07 245.335C347.851 246.666 348.353 248.134 348.575 249.739H341.605ZM381.609 239.252V271.694H375.685L361.57 251.276H361.333V271.694H354.474V239.252H360.493L374.496 259.655H374.782V239.252H381.609ZM387.722 271.694V239.252H409.582V244.908H394.581V252.638H408.458V258.293H394.581V266.039H409.646V271.694H387.722ZM415.482 271.694V239.252H428.281C430.731 239.252 432.822 239.691 434.554 240.567C436.296 241.433 437.622 242.664 438.53 244.258C439.449 245.842 439.908 247.706 439.908 249.85C439.908 252.004 439.443 253.858 438.514 255.41C437.585 256.952 436.238 258.135 434.475 258.958C432.722 259.782 430.599 260.194 428.107 260.194H419.537V254.681H426.998C428.307 254.681 429.395 254.502 430.261 254.143C431.127 253.784 431.771 253.245 432.194 252.527C432.627 251.809 432.843 250.917 432.843 249.85C432.843 248.773 432.627 247.865 432.194 247.125C431.771 246.386 431.122 245.826 430.245 245.446C429.379 245.055 428.286 244.86 426.966 244.86H422.341V271.694H415.482ZM433.001 256.931L441.064 271.694H433.493L425.604 256.931H433.001Z" fill="black"/>
</svg>
