<svg width="737" height="120" viewBox="0 0 737 120" fill="none" xmlns="http://www.w3.org/2000/svg">
<rect x="0.695801" y="0.95459" width="226" height="118.702" rx="59.3509" fill="white"/>
<path d="M62.121 50.3054H60.6437L64.9164 38.6691H66.371L70.6437 50.3054H69.1664L65.6892 40.51H65.5983L62.121 50.3054ZM62.6664 45.76H68.621V47.01H62.6664V45.76ZM78.317 41.5781L75.0897 50.3054H73.7261L70.4988 41.5781H71.9534L74.3625 48.5327H74.4534L76.8625 41.5781H78.317ZM83.3198 50.4872C82.532 50.4872 81.8407 50.2997 81.246 49.9247C80.6551 49.5497 80.193 49.0251 79.8596 48.3509C79.5301 47.6766 79.3653 46.8888 79.3653 45.9872C79.3653 45.0781 79.5301 44.2846 79.8596 43.6066C80.193 42.9285 80.6551 42.402 81.246 42.027C81.8407 41.652 82.532 41.4645 83.3198 41.4645C84.1077 41.4645 84.7971 41.652 85.388 42.027C85.9827 42.402 86.4448 42.9285 86.7744 43.6066C87.1077 44.2846 87.2744 45.0781 87.2744 45.9872C87.2744 46.8888 87.1077 47.6766 86.7744 48.3509C86.4448 49.0251 85.9827 49.5497 85.388 49.9247C84.7971 50.2997 84.1077 50.4872 83.3198 50.4872ZM83.3198 49.2827C83.9183 49.2827 84.4108 49.1293 84.7971 48.8225C85.1835 48.5156 85.4695 48.1122 85.6551 47.6122C85.8407 47.1122 85.9335 46.5706 85.9335 45.9872C85.9335 45.4039 85.8407 44.8603 85.6551 44.3566C85.4695 43.8528 85.1835 43.4456 84.7971 43.135C84.4108 42.8244 83.9183 42.6691 83.3198 42.6691C82.7214 42.6691 82.2289 42.8244 81.8426 43.135C81.4562 43.4456 81.1702 43.8528 80.9846 44.3566C80.799 44.8603 80.7062 45.4039 80.7062 45.9872C80.7062 46.5706 80.799 47.1122 80.9846 47.6122C81.1702 48.1122 81.4562 48.5156 81.8426 48.8225C82.2289 49.1293 82.7214 49.2827 83.3198 49.2827ZM89.3213 50.3054V41.5781H90.6622V50.3054H89.3213ZM90.0031 40.1236C89.7417 40.1236 89.5163 40.0346 89.3269 39.8566C89.1413 39.6785 89.0485 39.4645 89.0485 39.2145C89.0485 38.9645 89.1413 38.7505 89.3269 38.5725C89.5163 38.3944 89.7417 38.3054 90.0031 38.3054C90.2644 38.3054 90.4879 38.3944 90.6735 38.5725C90.8629 38.7505 90.9576 38.9645 90.9576 39.2145C90.9576 39.4645 90.8629 39.6785 90.6735 39.8566C90.4879 40.0346 90.2644 40.1236 90.0031 40.1236ZM96.4136 50.4872C95.6863 50.4872 95.0443 50.3035 94.4875 49.9361C93.9306 49.5649 93.495 49.0422 93.1806 48.3679C92.8662 47.6899 92.7091 46.8888 92.7091 45.9645C92.7091 45.0478 92.8662 44.2524 93.1806 43.5781C93.495 42.9039 93.9325 42.3831 94.4931 42.0156C95.0537 41.6482 95.7015 41.4645 96.4363 41.4645C97.0045 41.4645 97.4534 41.5592 97.7829 41.7486C98.1162 41.9342 98.37 42.1463 98.5443 42.385C98.7223 42.6198 98.8606 42.813 98.9591 42.9645H99.0727V38.6691H100.414V50.3054H99.1181V48.9645H98.9591C98.8606 49.1236 98.7204 49.3244 98.5386 49.5668C98.3568 49.8054 98.0973 50.0194 97.7602 50.2088C97.4231 50.3944 96.9742 50.4872 96.4136 50.4872ZM96.5954 49.2827C97.1333 49.2827 97.5878 49.1425 97.9591 48.8622C98.3303 48.5781 98.6125 48.1861 98.8056 47.6861C98.9988 47.1823 99.0954 46.6009 99.0954 45.9418C99.0954 45.2903 99.0007 44.7202 98.8113 44.2316C98.6219 43.7391 98.3416 43.3566 97.9704 43.0838C97.5992 42.8073 97.1409 42.6691 96.5954 42.6691C96.0272 42.6691 95.5537 42.8149 95.175 43.1066C94.8 43.3944 94.5178 43.7865 94.3284 44.2827C94.1428 44.7751 94.05 45.3281 94.05 45.9418C94.05 46.563 94.1447 47.1274 94.3341 47.635C94.5272 48.1388 94.8113 48.5403 95.1863 48.8395C95.5651 49.135 96.0348 49.2827 96.5954 49.2827ZM108.897 45.0554V50.3054H107.556V41.5781H108.851V42.9418H108.965C109.169 42.4986 109.48 42.1425 109.897 41.8736C110.313 41.6009 110.851 41.4645 111.51 41.4645C112.101 41.4645 112.618 41.5857 113.061 41.8281C113.505 42.0668 113.849 42.4304 114.095 42.9191C114.342 43.4039 114.465 44.0175 114.465 44.76V50.3054H113.124V44.8509C113.124 44.1653 112.946 43.6312 112.59 43.2486C112.234 42.8622 111.745 42.6691 111.124 42.6691C110.696 42.6691 110.313 42.7619 109.976 42.9475C109.643 43.1331 109.38 43.4039 109.186 43.76C108.993 44.116 108.897 44.5478 108.897 45.0554ZM120.574 50.4872C119.733 50.4872 119.008 50.3016 118.398 49.9304C117.792 49.5554 117.324 49.0327 116.995 48.3622C116.669 47.688 116.506 46.9039 116.506 46.01C116.506 45.116 116.669 44.3281 116.995 43.6463C117.324 42.9607 117.782 42.4266 118.37 42.0441C118.96 41.6577 119.65 41.4645 120.438 41.4645C120.892 41.4645 121.341 41.5403 121.784 41.6918C122.228 41.8433 122.631 42.0895 122.995 42.4304C123.358 42.7675 123.648 43.2145 123.864 43.7713C124.08 44.3281 124.188 45.0138 124.188 45.8281V46.3963H117.46V45.2372H122.824C122.824 44.7448 122.726 44.3054 122.529 43.9191C122.335 43.5327 122.059 43.2278 121.699 43.0043C121.343 42.7808 120.923 42.6691 120.438 42.6691C119.904 42.6691 119.442 42.8016 119.051 43.0668C118.665 43.3281 118.368 43.6691 118.159 44.0895C117.951 44.51 117.847 44.9607 117.847 45.4418V46.2145C117.847 46.8736 117.96 47.4323 118.188 47.8906C118.419 48.3452 118.739 48.6918 119.148 48.9304C119.557 49.1653 120.032 49.2827 120.574 49.2827C120.926 49.2827 121.245 49.2335 121.529 49.135C121.817 49.0327 122.065 48.8812 122.273 48.6804C122.481 48.4759 122.642 48.2221 122.756 47.9191L124.051 48.2827C123.915 48.7221 123.686 49.1085 123.364 49.4418C123.042 49.7713 122.644 50.0289 122.171 50.2145C121.697 50.3963 121.165 50.4872 120.574 50.4872ZM129.887 50.4872C129.046 50.4872 128.32 50.3016 127.71 49.9304C127.104 49.5554 126.637 49.0327 126.307 48.3622C125.981 47.688 125.818 46.9039 125.818 46.01C125.818 45.116 125.981 44.3281 126.307 43.6463C126.637 42.9607 127.095 42.4266 127.682 42.0441C128.273 41.6577 128.962 41.4645 129.75 41.4645C130.205 41.4645 130.654 41.5403 131.097 41.6918C131.54 41.8433 131.943 42.0895 132.307 42.4304C132.671 42.7675 132.96 43.2145 133.176 43.7713C133.392 44.3281 133.5 45.0138 133.5 45.8281V46.3963H126.773V45.2372H132.137C132.137 44.7448 132.038 44.3054 131.841 43.9191C131.648 43.5327 131.371 43.2278 131.012 43.0043C130.656 42.7808 130.235 42.6691 129.75 42.6691C129.216 42.6691 128.754 42.8016 128.364 43.0668C127.978 43.3281 127.68 43.6691 127.472 44.0895C127.264 44.51 127.159 44.9607 127.159 45.4418V46.2145C127.159 46.8736 127.273 47.4323 127.5 47.8906C127.731 48.3452 128.051 48.6918 128.46 48.9304C128.87 49.1653 129.345 49.2827 129.887 49.2827C130.239 49.2827 130.557 49.2335 130.841 49.135C131.129 49.0327 131.377 48.8812 131.585 48.6804C131.794 48.4759 131.955 48.2221 132.068 47.9191L133.364 48.2827C133.228 48.7221 132.998 49.1085 132.676 49.4418C132.354 49.7713 131.957 50.0289 131.483 50.2145C131.01 50.3963 130.478 50.4872 129.887 50.4872ZM138.835 50.4872C138.108 50.4872 137.466 50.3035 136.909 49.9361C136.353 49.5649 135.917 49.0422 135.603 48.3679C135.288 47.6899 135.131 46.8888 135.131 45.9645C135.131 45.0478 135.288 44.2524 135.603 43.5781C135.917 42.9039 136.354 42.3831 136.915 42.0156C137.476 41.6482 138.123 41.4645 138.858 41.4645C139.426 41.4645 139.875 41.5592 140.205 41.7486C140.538 41.9342 140.792 42.1463 140.966 42.385C141.144 42.6198 141.282 42.813 141.381 42.9645H141.495V38.6691H142.835V50.3054H141.54V48.9645H141.381C141.282 49.1236 141.142 49.3244 140.96 49.5668C140.779 49.8054 140.519 50.0194 140.182 50.2088C139.845 50.3944 139.396 50.4872 138.835 50.4872ZM139.017 49.2827C139.555 49.2827 140.01 49.1425 140.381 48.8622C140.752 48.5781 141.034 48.1861 141.228 47.6861C141.421 47.1823 141.517 46.6009 141.517 45.9418C141.517 45.2903 141.423 44.7202 141.233 44.2316C141.044 43.7391 140.764 43.3566 140.392 43.0838C140.021 42.8073 139.563 42.6691 139.017 42.6691C138.449 42.6691 137.976 42.8149 137.597 43.1066C137.222 43.3944 136.94 43.7865 136.75 44.2827C136.565 44.7751 136.472 45.3281 136.472 45.9418C136.472 46.563 136.567 47.1274 136.756 47.635C136.949 48.1388 137.233 48.5403 137.608 48.8395C137.987 49.135 138.457 49.2827 139.017 49.2827ZM145.478 50.3054V41.5781H146.818V50.3054H145.478ZM146.159 40.1236C145.898 40.1236 145.673 40.0346 145.483 39.8566C145.298 39.6785 145.205 39.4645 145.205 39.2145C145.205 38.9645 145.298 38.7505 145.483 38.5725C145.673 38.3944 145.898 38.3054 146.159 38.3054C146.421 38.3054 146.644 38.3944 146.83 38.5725C147.019 38.7505 147.114 38.9645 147.114 39.2145C147.114 39.4645 147.019 39.6785 146.83 39.8566C146.644 40.0346 146.421 40.1236 146.159 40.1236ZM150.615 45.0554V50.3054H149.274V41.5781H150.57V42.9418H150.683C150.888 42.4986 151.199 42.1425 151.615 41.8736C152.032 41.6009 152.57 41.4645 153.229 41.4645C153.82 41.4645 154.337 41.5857 154.78 41.8281C155.223 42.0668 155.568 42.4304 155.814 42.9191C156.06 43.4039 156.183 44.0175 156.183 44.76V50.3054H154.843V44.8509C154.843 44.1653 154.665 43.6312 154.308 43.2486C153.952 42.8622 153.464 42.6691 152.843 42.6691C152.415 42.6691 152.032 42.7619 151.695 42.9475C151.362 43.1331 151.098 43.4039 150.905 43.76C150.712 44.116 150.615 44.5478 150.615 45.0554ZM162.156 53.76C161.509 53.76 160.952 53.6766 160.486 53.51C160.02 53.3471 159.632 53.1312 159.321 52.8622C159.014 52.5971 158.77 52.313 158.588 52.01L159.656 51.26C159.778 51.4191 159.931 51.6009 160.117 51.8054C160.302 52.0138 160.556 52.1937 160.878 52.3452C161.204 52.5005 161.63 52.5781 162.156 52.5781C162.861 52.5781 163.442 52.4077 163.901 52.0668C164.359 51.7259 164.588 51.1918 164.588 50.4645V48.6918H164.475C164.376 48.8509 164.236 49.0478 164.054 49.2827C163.876 49.5138 163.619 49.7202 163.281 49.902C162.948 50.08 162.497 50.1691 161.929 50.1691C161.225 50.1691 160.592 50.0024 160.031 49.6691C159.475 49.3357 159.033 48.8509 158.708 48.2145C158.386 47.5781 158.225 46.8054 158.225 45.8963C158.225 45.0024 158.382 44.224 158.696 43.5611C159.011 42.8944 159.448 42.3793 160.009 42.0156C160.569 41.6482 161.217 41.4645 161.952 41.4645C162.52 41.4645 162.971 41.5592 163.304 41.7486C163.641 41.9342 163.899 42.1463 164.077 42.385C164.259 42.6198 164.399 42.813 164.497 42.9645H164.634V41.5781H165.929V50.5554C165.929 51.3054 165.759 51.9153 165.418 52.385C165.081 52.8585 164.626 53.205 164.054 53.4247C163.486 53.6482 162.853 53.76 162.156 53.76ZM162.111 48.9645C162.649 48.9645 163.103 48.8414 163.475 48.5952C163.846 48.349 164.128 47.9948 164.321 47.5327C164.514 47.0706 164.611 46.5175 164.611 45.8736C164.611 45.2448 164.516 44.6899 164.327 44.2088C164.138 43.7278 163.857 43.3509 163.486 43.0781C163.115 42.8054 162.656 42.6691 162.111 42.6691C161.543 42.6691 161.069 42.813 160.691 43.1009C160.316 43.3888 160.033 43.7751 159.844 44.26C159.658 44.7448 159.566 45.2827 159.566 45.8736C159.566 46.4797 159.66 47.0156 159.85 47.4816C160.043 47.9437 160.327 48.3073 160.702 48.5725C161.081 48.8338 161.55 48.9645 162.111 48.9645ZM59.7652 57.5781V58.7145H55.2424V57.5781H59.7652ZM56.5606 55.4872H57.9015V63.8054C57.9015 64.1842 57.9564 64.4683 58.0663 64.6577C58.1799 64.8433 58.3239 64.9683 58.4981 65.0327C58.6761 65.0933 58.8636 65.1236 59.0606 65.1236C59.2083 65.1236 59.3296 65.116 59.4243 65.1009C59.5189 65.0819 59.5947 65.0668 59.6515 65.0554L59.9243 66.26C59.8333 66.2941 59.7064 66.3281 59.5436 66.3622C59.3807 66.4001 59.1743 66.4191 58.9243 66.4191C58.5455 66.4191 58.1742 66.3376 57.8106 66.1747C57.4508 66.0119 57.1515 65.7638 56.9129 65.4304C56.678 65.0971 56.5606 64.6766 56.5606 64.1691V55.4872ZM65.2339 66.4872C64.446 66.4872 63.7547 66.2997 63.16 65.9247C62.5691 65.5497 62.107 65.0251 61.7737 64.3509C61.4441 63.6766 61.2794 62.8888 61.2794 61.9872C61.2794 61.0781 61.4441 60.2846 61.7737 59.6066C62.107 58.9285 62.5691 58.402 63.16 58.027C63.7547 57.652 64.446 57.4645 65.2339 57.4645C66.0218 57.4645 66.7112 57.652 67.3021 58.027C67.8968 58.402 68.3589 58.9285 68.6885 59.6066C69.0218 60.2846 69.1885 61.0781 69.1885 61.9872C69.1885 62.8888 69.0218 63.6766 68.6885 64.3509C68.3589 65.0251 67.8968 65.5497 67.3021 65.9247C66.7112 66.2997 66.0218 66.4872 65.2339 66.4872ZM65.2339 65.2827C65.8324 65.2827 66.3248 65.1293 66.7112 64.8225C67.0975 64.5156 67.3835 64.1122 67.5691 63.6122C67.7547 63.1122 67.8475 62.5706 67.8475 61.9872C67.8475 61.4039 67.7547 60.8603 67.5691 60.3566C67.3835 59.8528 67.0975 59.4456 66.7112 59.135C66.3248 58.8244 65.8324 58.6691 65.2339 58.6691C64.6354 58.6691 64.143 58.8244 63.7566 59.135C63.3703 59.4456 63.0843 59.8528 62.8987 60.3566C62.7131 60.8603 62.6203 61.4039 62.6203 61.9872C62.6203 62.5706 62.7131 63.1122 62.8987 63.6122C63.0843 64.1122 63.3703 64.5156 63.7566 64.8225C64.143 65.1293 64.6354 65.2827 65.2339 65.2827ZM81.9171 59.5327L80.7126 59.8736C80.6368 59.6728 80.5251 59.4778 80.3774 59.2884C80.2334 59.0952 80.0365 58.9361 79.7865 58.8111C79.5365 58.6861 79.2164 58.6236 78.8262 58.6236C78.2921 58.6236 77.8471 58.7467 77.491 58.9929C77.1387 59.2353 76.9626 59.5441 76.9626 59.9191C76.9626 60.2524 77.0838 60.5156 77.3262 60.7088C77.5687 60.902 77.9475 61.063 78.4626 61.1918L79.7581 61.51C80.5384 61.6994 81.1198 61.9891 81.5024 62.3793C81.885 62.7656 82.0762 63.2638 82.0762 63.8736C82.0762 64.3736 81.9323 64.8206 81.6444 65.2145C81.3603 65.6085 80.9626 65.9191 80.4512 66.1463C79.9399 66.3736 79.3452 66.4872 78.6671 66.4872C77.777 66.4872 77.0403 66.2941 76.4569 65.9077C75.8736 65.5213 75.5043 64.9569 75.349 64.2145L76.6217 63.8963C76.7429 64.366 76.9721 64.7183 77.3092 64.9531C77.6501 65.188 78.0952 65.3054 78.6444 65.3054C79.2694 65.3054 79.7656 65.1728 80.1331 64.9077C80.5043 64.6388 80.6899 64.3168 80.6899 63.9418C80.6899 63.6388 80.5838 63.385 80.3717 63.1804C80.1596 62.9721 79.8338 62.8168 79.3944 62.7145L77.9399 62.3736C77.1406 62.1842 76.5535 61.8906 76.1785 61.4929C75.8073 61.0914 75.6217 60.5895 75.6217 59.9872C75.6217 59.4948 75.76 59.0592 76.0365 58.6804C76.3168 58.3016 76.6975 58.0043 77.1785 57.7884C77.6634 57.5725 78.2126 57.4645 78.8262 57.4645C79.6899 57.4645 80.3679 57.6539 80.8603 58.0327C81.3565 58.4115 81.7088 58.9115 81.9171 59.5327ZM89.5947 62.7372V57.5781H90.9356V66.3054H89.5947V64.8281H89.5038C89.2992 65.2713 88.9811 65.6482 88.5493 65.9588C88.1174 66.2656 87.572 66.4191 86.9129 66.4191C86.3674 66.4191 85.8826 66.2997 85.4583 66.0611C85.0341 65.8187 84.7008 65.455 84.4583 64.9702C84.2159 64.4816 84.0947 63.866 84.0947 63.1236V57.5781H85.4356V63.0327C85.4356 63.6691 85.6136 64.1766 85.9697 64.5554C86.3296 64.9342 86.7879 65.1236 87.3447 65.1236C87.678 65.1236 88.0171 65.0384 88.3618 64.8679C88.7102 64.6975 89.0019 64.4361 89.2368 64.0838C89.4754 63.7316 89.5947 63.2827 89.5947 62.7372ZM93.3916 66.3054V57.5781H94.687V58.8963H94.7779C94.937 58.4645 95.2249 58.1141 95.6416 57.8452C96.0582 57.5763 96.5279 57.4418 97.0507 57.4418C97.1492 57.4418 97.2723 57.4437 97.42 57.4475C97.5677 57.4513 97.6795 57.4569 97.7552 57.4645V58.8281C97.7098 58.8168 97.6056 58.7997 97.4427 58.777C97.2836 58.7505 97.1151 58.7372 96.937 58.7372C96.5128 58.7372 96.134 58.8263 95.8007 59.0043C95.4711 59.1785 95.2098 59.4209 95.0166 59.7316C94.8272 60.0384 94.7325 60.3888 94.7325 60.7827V66.3054H93.3916ZM103.778 57.5781V58.7145H99.0734V57.5781H103.778ZM100.482 66.3054V56.3736C100.482 55.8736 100.6 55.4569 100.835 55.1236C101.07 54.7903 101.375 54.5403 101.75 54.3736C102.125 54.2069 102.52 54.1236 102.937 54.1236C103.267 54.1236 103.536 54.1501 103.744 54.2031C103.952 54.2562 104.107 54.3054 104.21 54.3509L103.823 55.51C103.755 55.4872 103.661 55.4588 103.539 55.4247C103.422 55.3906 103.267 55.3736 103.073 55.3736C102.63 55.3736 102.31 55.4853 102.113 55.7088C101.92 55.9323 101.823 56.26 101.823 56.6918V66.3054H100.482ZM113.453 66.4872C112.725 66.4872 112.083 66.3035 111.527 65.9361C110.97 65.5649 110.534 65.0422 110.22 64.3679C109.905 63.6899 109.748 62.8888 109.748 61.9645C109.748 61.0478 109.905 60.2524 110.22 59.5781C110.534 58.9039 110.972 58.3831 111.532 58.0156C112.093 57.6482 112.741 57.4645 113.475 57.4645C114.044 57.4645 114.492 57.5592 114.822 57.7486C115.155 57.9342 115.409 58.1463 115.583 58.385C115.761 58.6198 115.9 58.813 115.998 58.9645H116.112V54.6691H117.453V66.3054H116.157V64.9645H115.998C115.9 65.1236 115.759 65.3244 115.578 65.5668C115.396 65.8054 115.136 66.0194 114.799 66.2088C114.462 66.3944 114.013 66.4872 113.453 66.4872ZM113.634 65.2827C114.172 65.2827 114.627 65.1425 114.998 64.8622C115.369 64.5781 115.652 64.1861 115.845 63.6861C116.038 63.1823 116.134 62.6009 116.134 61.9418C116.134 61.2903 116.04 60.7202 115.85 60.2316C115.661 59.7391 115.381 59.3566 115.009 59.0838C114.638 58.8073 114.18 58.6691 113.634 58.6691C113.066 58.6691 112.593 58.8149 112.214 59.1066C111.839 59.3944 111.557 59.7865 111.367 60.2827C111.182 60.7751 111.089 61.3281 111.089 61.9418C111.089 62.563 111.184 63.1274 111.373 63.635C111.566 64.1388 111.85 64.5403 112.225 64.8395C112.604 65.135 113.074 65.2827 113.634 65.2827ZM123.754 66.4872C122.913 66.4872 122.188 66.3016 121.578 65.9304C120.972 65.5554 120.504 65.0327 120.174 64.3622C119.848 63.688 119.686 62.9039 119.686 62.01C119.686 61.116 119.848 60.3281 120.174 59.6463C120.504 58.9607 120.962 58.4266 121.549 58.0441C122.14 57.6577 122.83 57.4645 123.617 57.4645C124.072 57.4645 124.521 57.5403 124.964 57.6918C125.407 57.8433 125.811 58.0895 126.174 58.4304C126.538 58.7675 126.828 59.2145 127.044 59.7713C127.259 60.3281 127.367 61.0138 127.367 61.8281V62.3963H120.64V61.2372H126.004C126.004 60.7448 125.905 60.3054 125.708 59.9191C125.515 59.5327 125.239 59.2278 124.879 59.0043C124.523 58.7808 124.102 58.6691 123.617 58.6691C123.083 58.6691 122.621 58.8016 122.231 59.0668C121.845 59.3281 121.547 59.6691 121.339 60.0895C121.131 60.51 121.027 60.9607 121.027 61.4418V62.2145C121.027 62.8736 121.14 63.4323 121.367 63.8906C121.598 64.3452 121.919 64.6918 122.328 64.9304C122.737 65.1653 123.212 65.2827 123.754 65.2827C124.106 65.2827 124.424 65.2335 124.708 65.135C124.996 65.0327 125.244 64.8812 125.453 64.6804C125.661 64.4759 125.822 64.2221 125.936 63.9191L127.231 64.2827C127.095 64.7221 126.866 65.1085 126.544 65.4418C126.222 65.7713 125.824 66.0289 125.35 66.2145C124.877 66.3963 124.345 66.4872 123.754 66.4872ZM133.066 66.4872C132.225 66.4872 131.5 66.3016 130.89 65.9304C130.284 65.5554 129.816 65.0327 129.487 64.3622C129.161 63.688 128.998 62.9039 128.998 62.01C128.998 61.116 129.161 60.3281 129.487 59.6463C129.816 58.9607 130.275 58.4266 130.862 58.0441C131.453 57.6577 132.142 57.4645 132.93 57.4645C133.384 57.4645 133.833 57.5403 134.277 57.6918C134.72 57.8433 135.123 58.0895 135.487 58.4304C135.85 58.7675 136.14 59.2145 136.356 59.7713C136.572 60.3281 136.68 61.0138 136.68 61.8281V62.3963H129.953V61.2372H135.316C135.316 60.7448 135.218 60.3054 135.021 59.9191C134.828 59.5327 134.551 59.2278 134.191 59.0043C133.835 58.7808 133.415 58.6691 132.93 58.6691C132.396 58.6691 131.934 58.8016 131.544 59.0668C131.157 59.3281 130.86 59.6691 130.652 60.0895C130.443 60.51 130.339 60.9607 130.339 61.4418V62.2145C130.339 62.8736 130.453 63.4323 130.68 63.8906C130.911 64.3452 131.231 64.6918 131.64 64.9304C132.049 65.1653 132.525 65.2827 133.066 65.2827C133.419 65.2827 133.737 65.2335 134.021 65.135C134.309 65.0327 134.557 64.8812 134.765 64.6804C134.973 64.4759 135.134 64.2221 135.248 63.9191L136.544 64.2827C136.407 64.7221 136.178 65.1085 135.856 65.4418C135.534 65.7713 135.136 66.0289 134.663 66.2145C134.189 66.3963 133.657 66.4872 133.066 66.4872ZM138.72 69.5781V57.5781H140.015V58.9645H140.174C140.273 58.813 140.409 58.6198 140.583 58.385C140.761 58.1463 141.015 57.9342 141.345 57.7486C141.678 57.5592 142.129 57.4645 142.697 57.4645C143.432 57.4645 144.08 57.6482 144.64 58.0156C145.201 58.3831 145.638 58.9039 145.953 59.5781C146.267 60.2524 146.424 61.0478 146.424 61.9645C146.424 62.8888 146.267 63.6899 145.953 64.3679C145.638 65.0422 145.203 65.5649 144.646 65.9361C144.089 66.3035 143.447 66.4872 142.72 66.4872C142.159 66.4872 141.71 66.3944 141.373 66.2088C141.036 66.0194 140.777 65.8054 140.595 65.5668C140.413 65.3244 140.273 65.1236 140.174 64.9645H140.061V69.5781H138.72ZM140.038 61.9418C140.038 62.6009 140.134 63.1823 140.328 63.6861C140.521 64.1861 140.803 64.5781 141.174 64.8622C141.545 65.1425 142 65.2827 142.538 65.2827C143.098 65.2827 143.566 65.135 143.941 64.8395C144.32 64.5403 144.604 64.1388 144.794 63.635C144.987 63.1274 145.083 62.563 145.083 61.9418C145.083 61.3281 144.989 60.7751 144.799 60.2827C144.614 59.7865 144.331 59.3944 143.953 59.1066C143.578 58.8149 143.106 58.6691 142.538 58.6691C141.992 58.6691 141.534 58.8073 141.163 59.0838C140.792 59.3566 140.511 59.7391 140.322 60.2316C140.133 60.7202 140.038 61.2903 140.038 61.9418ZM156.856 57.5781V58.7145H152.152V57.5781H156.856ZM153.561 66.3054V56.3736C153.561 55.8736 153.678 55.4569 153.913 55.1236C154.148 54.7903 154.453 54.5403 154.828 54.3736C155.203 54.2069 155.598 54.1236 156.015 54.1236C156.345 54.1236 156.614 54.1501 156.822 54.2031C157.03 54.2562 157.186 54.3054 157.288 54.3509L156.902 55.51C156.833 55.4872 156.739 55.4588 156.617 55.4247C156.5 55.3906 156.345 55.3736 156.152 55.3736C155.708 55.3736 155.388 55.4853 155.191 55.7088C154.998 55.9323 154.902 56.26 154.902 56.6918V66.3054H153.561ZM161.921 66.4872C161.134 66.4872 160.442 66.2997 159.848 65.9247C159.257 65.5497 158.795 65.0251 158.461 64.3509C158.132 63.6766 157.967 62.8888 157.967 61.9872C157.967 61.0781 158.132 60.2846 158.461 59.6066C158.795 58.9285 159.257 58.402 159.848 58.027C160.442 57.652 161.134 57.4645 161.921 57.4645C162.709 57.4645 163.399 57.652 163.99 58.027C164.584 58.402 165.046 58.9285 165.376 59.6066C165.709 60.2846 165.876 61.0781 165.876 61.9872C165.876 62.8888 165.709 63.6766 165.376 64.3509C165.046 65.0251 164.584 65.5497 163.99 65.9247C163.399 66.2997 162.709 66.4872 161.921 66.4872ZM161.921 65.2827C162.52 65.2827 163.012 65.1293 163.399 64.8225C163.785 64.5156 164.071 64.1122 164.257 63.6122C164.442 63.1122 164.535 62.5706 164.535 61.9872C164.535 61.4039 164.442 60.8603 164.257 60.3566C164.071 59.8528 163.785 59.4456 163.399 59.135C163.012 58.8244 162.52 58.6691 161.921 58.6691C161.323 58.6691 160.83 58.8244 160.444 59.135C160.058 59.4456 159.772 59.8528 159.586 60.3566C159.401 60.8603 159.308 61.4039 159.308 61.9872C159.308 62.5706 159.401 63.1122 159.586 63.6122C159.772 64.1122 160.058 64.5156 160.444 64.8225C160.83 65.1293 161.323 65.2827 161.921 65.2827ZM167.923 66.3054V57.5781H169.218V58.8963H169.309C169.468 58.4645 169.756 58.1141 170.173 57.8452C170.589 57.5763 171.059 57.4418 171.582 57.4418C171.68 57.4418 171.804 57.4437 171.951 57.4475C172.099 57.4513 172.211 57.4569 172.286 57.4645V58.8281C172.241 58.8168 172.137 58.7997 171.974 58.777C171.815 58.7505 171.646 58.7372 171.468 58.7372C171.044 58.7372 170.665 58.8263 170.332 59.0043C170.002 59.1785 169.741 59.4209 169.548 59.7316C169.358 60.0384 169.264 60.3888 169.264 60.7827V66.3054H167.923ZM82.197 82.3054L79.5379 73.5781H80.947L82.8333 80.26H82.9242L84.7879 73.5781H86.2197L88.0606 80.2372H88.1515L90.0379 73.5781H91.447L88.7879 82.3054H87.4697L85.5606 75.6009H85.4243L83.5152 82.3054H82.197ZM96.4683 82.4872C95.6804 82.4872 94.9891 82.2997 94.3944 81.9247C93.8035 81.5497 93.3414 81.0251 93.0081 80.3509C92.6785 79.6766 92.5137 78.8888 92.5137 77.9872C92.5137 77.0781 92.6785 76.2846 93.0081 75.6066C93.3414 74.9285 93.8035 74.402 94.3944 74.027C94.9891 73.652 95.6804 73.4645 96.4683 73.4645C97.2562 73.4645 97.9456 73.652 98.5365 74.027C99.1312 74.402 99.5933 74.9285 99.9228 75.6066C100.256 76.2846 100.423 77.0781 100.423 77.9872C100.423 78.8888 100.256 79.6766 99.9228 80.3509C99.5933 81.0251 99.1312 81.5497 98.5365 81.9247C97.9456 82.2997 97.2562 82.4872 96.4683 82.4872ZM96.4683 81.2827C97.0668 81.2827 97.5592 81.1293 97.9456 80.8225C98.3319 80.5156 98.6179 80.1122 98.8035 79.6122C98.9891 79.1122 99.0819 78.5706 99.0819 77.9872C99.0819 77.4039 98.9891 76.8603 98.8035 76.3566C98.6179 75.8528 98.3319 75.4456 97.9456 75.135C97.5592 74.8244 97.0668 74.6691 96.4683 74.6691C95.8698 74.6691 95.3774 74.8244 94.991 75.135C94.6046 75.4456 94.3187 75.8528 94.1331 76.3566C93.9475 76.8603 93.8546 77.4039 93.8546 77.9872C93.8546 78.5706 93.9475 79.1122 94.1331 79.6122C94.3187 80.1122 94.6046 80.5156 94.991 80.8225C95.3774 81.1293 95.8698 81.2827 96.4683 81.2827ZM102.47 82.3054V73.5781H103.765V74.8963H103.856C104.015 74.4645 104.303 74.1141 104.72 73.8452C105.136 73.5763 105.606 73.4418 106.129 73.4418C106.227 73.4418 106.35 73.4437 106.498 73.4475C106.646 73.4513 106.758 73.4569 106.833 73.4645V74.8281C106.788 74.8168 106.684 74.7997 106.521 74.777C106.362 74.7505 106.193 74.7372 106.015 74.7372C105.591 74.7372 105.212 74.8263 104.879 75.0043C104.549 75.1785 104.288 75.4209 104.095 75.7316C103.905 76.0384 103.811 76.3888 103.811 76.7827V82.3054H102.47ZM109.673 79.1236L109.65 77.4645H109.923L113.741 73.5781H115.4L111.332 77.6918H111.218L109.673 79.1236ZM108.423 82.3054V70.6691H109.764V82.3054H108.423ZM113.968 82.3054L110.559 77.9872L111.514 77.0554L115.673 82.3054H113.968ZM120.312 82.4872C119.524 82.4872 118.833 82.2997 118.238 81.9247C117.647 81.5497 117.185 81.0251 116.852 80.3509C116.522 79.6766 116.357 78.8888 116.357 77.9872C116.357 77.0781 116.522 76.2846 116.852 75.6066C117.185 74.9285 117.647 74.402 118.238 74.027C118.833 73.652 119.524 73.4645 120.312 73.4645C121.1 73.4645 121.789 73.652 122.38 74.027C122.975 74.402 123.437 74.9285 123.767 75.6066C124.1 76.2846 124.267 77.0781 124.267 77.9872C124.267 78.8888 124.1 79.6766 123.767 80.3509C123.437 81.0251 122.975 81.5497 122.38 81.9247C121.789 82.2997 121.1 82.4872 120.312 82.4872ZM120.312 81.2827C120.911 81.2827 121.403 81.1293 121.789 80.8225C122.176 80.5156 122.462 80.1122 122.647 79.6122C122.833 79.1122 122.926 78.5706 122.926 77.9872C122.926 77.4039 122.833 76.8603 122.647 76.3566C122.462 75.8528 122.176 75.4456 121.789 75.135C121.403 74.8244 120.911 74.6691 120.312 74.6691C119.714 74.6691 119.221 74.8244 118.835 75.135C118.448 75.4456 118.162 75.8528 117.977 76.3566C117.791 76.8603 117.698 77.4039 117.698 77.9872C117.698 78.5706 117.791 79.1122 117.977 79.6122C118.162 80.1122 118.448 80.5156 118.835 80.8225C119.221 81.1293 119.714 81.2827 120.312 81.2827ZM131.813 78.7372V73.5781H133.154V82.3054H131.813V80.8281H131.723C131.518 81.2713 131.2 81.6482 130.768 81.9588C130.336 82.2656 129.791 82.4191 129.132 82.4191C128.586 82.4191 128.101 82.2997 127.677 82.0611C127.253 81.8187 126.92 81.455 126.677 80.9702C126.435 80.4816 126.313 79.866 126.313 79.1236V73.5781H127.654V79.0327C127.654 79.6691 127.832 80.1766 128.188 80.5554C128.548 80.9342 129.007 81.1236 129.563 81.1236C129.897 81.1236 130.236 81.0384 130.581 80.8679C130.929 80.6975 131.221 80.4361 131.456 80.0838C131.694 79.7316 131.813 79.2827 131.813 78.7372ZM139.406 73.5781V74.7145H134.883V73.5781H139.406ZM136.201 71.4872H137.542V79.8054C137.542 80.1842 137.597 80.4683 137.707 80.6577C137.821 80.8433 137.964 80.9683 138.139 81.0327C138.317 81.0933 138.504 81.1236 138.701 81.1236C138.849 81.1236 138.97 81.116 139.065 81.1009C139.16 81.0819 139.235 81.0668 139.292 81.0554L139.565 82.26C139.474 82.2941 139.347 82.3281 139.184 82.3622C139.021 82.4001 138.815 82.4191 138.565 82.4191C138.186 82.4191 137.815 82.3376 137.451 82.1747C137.091 82.0119 136.792 81.7638 136.554 81.4304C136.319 81.0971 136.201 80.6766 136.201 80.1691V71.4872ZM147.448 75.5327L146.244 75.8736C146.168 75.6728 146.056 75.4778 145.909 75.2884C145.765 75.0952 145.568 74.9361 145.318 74.8111C145.068 74.6861 144.748 74.6236 144.357 74.6236C143.823 74.6236 143.378 74.7467 143.022 74.9929C142.67 75.2353 142.494 75.5441 142.494 75.9191C142.494 76.2524 142.615 76.5156 142.857 76.7088C143.1 76.902 143.479 77.063 143.994 77.1918L145.289 77.51C146.07 77.6994 146.651 77.9891 147.034 78.3793C147.416 78.7656 147.607 79.2638 147.607 79.8736C147.607 80.3736 147.464 80.8206 147.176 81.2145C146.892 81.6085 146.494 81.9191 145.982 82.1463C145.471 82.3736 144.876 82.4872 144.198 82.4872C143.308 82.4872 142.572 82.2941 141.988 81.9077C141.405 81.5213 141.036 80.9569 140.88 80.2145L142.153 79.8963C142.274 80.366 142.503 80.7183 142.84 80.9531C143.181 81.188 143.626 81.3054 144.176 81.3054C144.801 81.3054 145.297 81.1728 145.664 80.9077C146.036 80.6388 146.221 80.3168 146.221 79.9418C146.221 79.6388 146.115 79.385 145.903 79.1804C145.691 78.9721 145.365 78.8168 144.926 78.7145L143.471 78.3736C142.672 78.1842 142.085 77.8906 141.71 77.4929C141.339 77.0914 141.153 76.5895 141.153 75.9872C141.153 75.4948 141.291 75.0592 141.568 74.6804C141.848 74.3016 142.229 74.0043 142.71 73.7884C143.195 73.5725 143.744 73.4645 144.357 73.4645C145.221 73.4645 145.899 73.6539 146.392 74.0327C146.888 74.4115 147.24 74.9115 147.448 75.5327Z" fill="black"/>
<rect x="255.695" y="0.95459" width="226" height="118.702" rx="59.3509" fill="white"/>
<path d="M324.136 46.6691H325.817L329.772 56.3281H329.908L333.863 46.6691H335.545V58.3054H334.227V49.4645H334.113L330.477 58.3054H329.204L325.567 49.4645H325.454V58.3054H324.136V46.6691ZM340.756 58.51C340.203 58.51 339.701 58.4058 339.251 58.1975C338.8 57.9853 338.442 57.6804 338.177 57.2827C337.912 56.8812 337.779 56.3963 337.779 55.8281C337.779 55.3281 337.878 54.9228 338.075 54.6122C338.272 54.2978 338.535 54.0516 338.864 53.8736C339.194 53.6956 339.558 53.563 339.955 53.4759C340.357 53.385 340.76 53.313 341.165 53.26C341.696 53.1918 342.126 53.1406 342.455 53.1066C342.789 53.0687 343.031 53.0062 343.183 52.9191C343.338 52.8319 343.415 52.6804 343.415 52.4645V52.4191C343.415 51.8584 343.262 51.4228 342.955 51.1122C342.652 50.8016 342.192 50.6463 341.575 50.6463C340.934 50.6463 340.433 50.7865 340.069 51.0668C339.705 51.3471 339.45 51.6463 339.302 51.9645L338.029 51.51C338.256 50.9797 338.559 50.5668 338.938 50.2713C339.321 49.9721 339.737 49.7638 340.188 49.6463C340.643 49.5251 341.09 49.4645 341.529 49.4645C341.809 49.4645 342.131 49.4986 342.495 49.5668C342.862 49.6312 343.217 49.7656 343.558 49.9702C343.902 50.1747 344.188 50.4835 344.415 50.8963C344.643 51.3092 344.756 51.8622 344.756 52.5554V58.3054H343.415V57.1236H343.347C343.256 57.313 343.105 57.5156 342.893 57.7316C342.681 57.9475 342.398 58.1312 342.046 58.2827C341.694 58.4342 341.264 58.51 340.756 58.51ZM340.961 57.3054C341.491 57.3054 341.938 57.2013 342.302 56.9929C342.669 56.7846 342.946 56.5156 343.131 56.1861C343.321 55.8566 343.415 55.51 343.415 55.1463V53.9191C343.359 53.9872 343.234 54.0497 343.04 54.1066C342.851 54.1596 342.631 54.2069 342.381 54.2486C342.135 54.2865 341.895 54.3206 341.66 54.3509C341.429 54.3774 341.241 54.4001 341.097 54.4191C340.749 54.4645 340.423 54.5384 340.12 54.6406C339.821 54.7391 339.578 54.8888 339.393 55.0895C339.211 55.2865 339.12 55.5554 339.12 55.8963C339.12 56.3622 339.292 56.7145 339.637 56.9531C339.986 57.188 340.427 57.3054 340.961 57.3054ZM348.454 55.1236L348.431 53.4645H348.704L352.522 49.5781H354.181L350.113 53.6918H349.999L348.454 55.1236ZM347.204 58.3054V46.6691H348.545V58.3054H347.204ZM352.749 58.3054L349.34 53.9872L350.295 53.0554L354.454 58.3054H352.749ZM359.207 58.4872C358.366 58.4872 357.64 58.3016 357.031 57.9304C356.424 57.5554 355.957 57.0327 355.627 56.3622C355.301 55.688 355.138 54.9039 355.138 54.01C355.138 53.116 355.301 52.3281 355.627 51.6463C355.957 50.9607 356.415 50.4266 357.002 50.0441C357.593 49.6577 358.282 49.4645 359.07 49.4645C359.525 49.4645 359.974 49.5403 360.417 49.6918C360.86 49.8433 361.263 50.0895 361.627 50.4304C361.991 50.7675 362.281 51.2145 362.496 51.7713C362.712 52.3281 362.82 53.0138 362.82 53.8281V54.3963H356.093V53.2372H361.457C361.457 52.7448 361.358 52.3054 361.161 51.9191C360.968 51.5327 360.692 51.2278 360.332 51.0043C359.976 50.7808 359.555 50.6691 359.07 50.6691C358.536 50.6691 358.074 50.8016 357.684 51.0668C357.298 51.3281 357 51.6691 356.792 52.0895C356.584 52.51 356.479 52.9607 356.479 53.4418V54.2145C356.479 54.8736 356.593 55.4323 356.82 55.8906C357.051 56.3452 357.371 56.6918 357.781 56.9304C358.19 57.1653 358.665 57.2827 359.207 57.2827C359.559 57.2827 359.877 57.2335 360.161 57.135C360.449 57.0327 360.697 56.8812 360.906 56.6804C361.114 56.4759 361.275 56.2221 361.388 55.9191L362.684 56.2827C362.548 56.7221 362.318 57.1085 361.996 57.4418C361.674 57.7713 361.277 58.0289 360.803 58.2145C360.33 58.3963 359.798 58.4872 359.207 58.4872ZM371.928 58.51C371.375 58.51 370.873 58.4058 370.423 58.1975C369.972 57.9853 369.614 57.6804 369.349 57.2827C369.084 56.8812 368.951 56.3963 368.951 55.8281C368.951 55.3281 369.049 54.9228 369.246 54.6122C369.443 54.2978 369.707 54.0516 370.036 53.8736C370.366 53.6956 370.729 53.563 371.127 53.4759C371.529 53.385 371.932 53.313 372.337 53.26C372.868 53.1918 373.298 53.1406 373.627 53.1066C373.96 53.0687 374.203 53.0062 374.354 52.9191C374.51 52.8319 374.587 52.6804 374.587 52.4645V52.4191C374.587 51.8584 374.434 51.4228 374.127 51.1122C373.824 50.8016 373.364 50.6463 372.746 50.6463C372.106 50.6463 371.604 50.7865 371.241 51.0668C370.877 51.3471 370.621 51.6463 370.474 51.9645L369.201 51.51C369.428 50.9797 369.731 50.5668 370.11 50.2713C370.493 49.9721 370.909 49.7638 371.36 49.6463C371.815 49.5251 372.262 49.4645 372.701 49.4645C372.981 49.4645 373.303 49.4986 373.667 49.5668C374.034 49.6312 374.388 49.7656 374.729 49.9702C375.074 50.1747 375.36 50.4835 375.587 50.8963C375.815 51.3092 375.928 51.8622 375.928 52.5554V58.3054H374.587V57.1236H374.519C374.428 57.313 374.277 57.5156 374.065 57.7316C373.853 57.9475 373.57 58.1312 373.218 58.2827C372.866 58.4342 372.436 58.51 371.928 58.51ZM372.133 57.3054C372.663 57.3054 373.11 57.2013 373.474 56.9929C373.841 56.7846 374.118 56.5156 374.303 56.1861C374.493 55.8566 374.587 55.51 374.587 55.1463V53.9191C374.531 53.9872 374.406 54.0497 374.212 54.1066C374.023 54.1596 373.803 54.2069 373.553 54.2486C373.307 54.2865 373.067 54.3206 372.832 54.3509C372.601 54.3774 372.413 54.4001 372.269 54.4191C371.921 54.4645 371.595 54.5384 371.292 54.6406C370.993 54.7391 370.75 54.8888 370.565 55.0895C370.383 55.2865 370.292 55.5554 370.292 55.8963C370.292 56.3622 370.464 56.7145 370.809 56.9531C371.157 57.188 371.599 57.3054 372.133 57.3054ZM378.376 61.5781V49.5781H379.671V50.9645H379.83C379.929 50.813 380.065 50.6198 380.239 50.385C380.417 50.1463 380.671 49.9342 381.001 49.7486C381.334 49.5592 381.785 49.4645 382.353 49.4645C383.088 49.4645 383.736 49.6482 384.296 50.0156C384.857 50.3831 385.294 50.9039 385.609 51.5781C385.923 52.2524 386.08 53.0478 386.08 53.9645C386.08 54.8888 385.923 55.6899 385.609 56.3679C385.294 57.0422 384.859 57.5649 384.302 57.9361C383.745 58.3035 383.103 58.4872 382.376 58.4872C381.815 58.4872 381.366 58.3944 381.029 58.2088C380.692 58.0194 380.433 57.8054 380.251 57.5668C380.069 57.3244 379.929 57.1236 379.83 56.9645H379.717V61.5781H378.376ZM379.694 53.9418C379.694 54.6009 379.79 55.1823 379.984 55.6861C380.177 56.1861 380.459 56.5781 380.83 56.8622C381.201 57.1425 381.656 57.2827 382.194 57.2827C382.754 57.2827 383.222 57.135 383.597 56.8395C383.976 56.5403 384.26 56.1388 384.45 55.635C384.643 55.1274 384.739 54.563 384.739 53.9418C384.739 53.3281 384.645 52.7751 384.455 52.2827C384.27 51.7865 383.987 51.3944 383.609 51.1066C383.234 50.8149 382.762 50.6691 382.194 50.6691C381.648 50.6691 381.19 50.8073 380.819 51.0838C380.448 51.3566 380.167 51.7391 379.978 52.2316C379.789 52.7202 379.694 53.2903 379.694 53.9418ZM388.126 61.5781V49.5781H389.421V50.9645H389.58C389.679 50.813 389.815 50.6198 389.989 50.385C390.167 50.1463 390.421 49.9342 390.751 49.7486C391.084 49.5592 391.535 49.4645 392.103 49.4645C392.838 49.4645 393.486 49.6482 394.046 50.0156C394.607 50.3831 395.044 50.9039 395.359 51.5781C395.673 52.2524 395.83 53.0478 395.83 53.9645C395.83 54.8888 395.673 55.6899 395.359 56.3679C395.044 57.0422 394.609 57.5649 394.052 57.9361C393.495 58.3035 392.853 58.4872 392.126 58.4872C391.565 58.4872 391.116 58.3944 390.779 58.2088C390.442 58.0194 390.183 57.8054 390.001 57.5668C389.819 57.3244 389.679 57.1236 389.58 56.9645H389.467V61.5781H388.126ZM389.444 53.9418C389.444 54.6009 389.54 55.1823 389.734 55.6861C389.927 56.1861 390.209 56.5781 390.58 56.8622C390.951 57.1425 391.406 57.2827 391.944 57.2827C392.504 57.2827 392.972 57.135 393.347 56.8395C393.726 56.5403 394.01 56.1388 394.2 55.635C394.393 55.1274 394.489 54.563 394.489 53.9418C394.489 53.3281 394.395 52.7751 394.205 52.2827C394.02 51.7865 393.737 51.3944 393.359 51.1066C392.984 50.8149 392.512 50.6691 391.944 50.6691C391.398 50.6691 390.94 50.8073 390.569 51.0838C390.198 51.3566 389.917 51.7391 389.728 52.2316C389.539 52.7202 389.444 53.2903 389.444 53.9418ZM404.944 58.51C404.391 58.51 403.889 58.4058 403.438 58.1975C402.987 57.9853 402.629 57.6804 402.364 57.2827C402.099 56.8812 401.967 56.3963 401.967 55.8281C401.967 55.3281 402.065 54.9228 402.262 54.6122C402.459 54.2978 402.722 54.0516 403.052 53.8736C403.381 53.6956 403.745 53.563 404.143 53.4759C404.544 53.385 404.948 53.313 405.353 53.26C405.883 53.1918 406.313 53.1406 406.643 53.1066C406.976 53.0687 407.219 53.0062 407.37 52.9191C407.525 52.8319 407.603 52.6804 407.603 52.4645V52.4191C407.603 51.8584 407.45 51.4228 407.143 51.1122C406.84 50.8016 406.379 50.6463 405.762 50.6463C405.122 50.6463 404.62 50.7865 404.256 51.0668C403.893 51.3471 403.637 51.6463 403.489 51.9645L402.217 51.51C402.444 50.9797 402.747 50.5668 403.126 50.2713C403.508 49.9721 403.925 49.7638 404.376 49.6463C404.83 49.5251 405.277 49.4645 405.717 49.4645C405.997 49.4645 406.319 49.4986 406.683 49.5668C407.05 49.6312 407.404 49.7656 407.745 49.9702C408.09 50.1747 408.376 50.4835 408.603 50.8963C408.83 51.3092 408.944 51.8622 408.944 52.5554V58.3054H407.603V57.1236H407.535C407.444 57.313 407.292 57.5156 407.08 57.7316C406.868 57.9475 406.586 58.1312 406.234 58.2827C405.881 58.4342 405.451 58.51 404.944 58.51ZM405.148 57.3054C405.679 57.3054 406.126 57.2013 406.489 56.9929C406.857 56.7846 407.133 56.5156 407.319 56.1861C407.508 55.8566 407.603 55.51 407.603 55.1463V53.9191C407.546 53.9872 407.421 54.0497 407.228 54.1066C407.039 54.1596 406.819 54.2069 406.569 54.2486C406.323 54.2865 406.082 54.3206 405.847 54.3509C405.616 54.3774 405.429 54.4001 405.285 54.4191C404.936 54.4645 404.611 54.5384 404.308 54.6406C404.008 54.7391 403.766 54.8888 403.58 55.0895C403.398 55.2865 403.308 55.5554 403.308 55.8963C403.308 56.3622 403.48 56.7145 403.825 56.9531C404.173 57.188 404.614 57.3054 405.148 57.3054ZM316.006 69.0554V74.3054H314.665V62.6691H316.006V66.9418H316.119C316.324 66.491 316.631 66.1331 317.04 65.8679C317.453 65.599 318.002 65.4645 318.688 65.4645C319.282 65.4645 319.803 65.5838 320.25 65.8225C320.697 66.0573 321.044 66.4191 321.29 66.9077C321.54 67.3925 321.665 68.01 321.665 68.76V74.3054H320.324V68.8509C320.324 68.1577 320.144 67.6217 319.784 67.2429C319.428 66.8603 318.934 66.6691 318.301 66.6691C317.862 66.6691 317.468 66.7619 317.119 66.9475C316.775 67.1331 316.502 67.4039 316.301 67.76C316.104 68.116 316.006 68.5478 316.006 69.0554ZM327.777 74.4872C326.936 74.4872 326.211 74.3016 325.601 73.9304C324.995 73.5554 324.527 73.0327 324.197 72.3622C323.872 71.688 323.709 70.9039 323.709 70.01C323.709 69.116 323.872 68.3281 324.197 67.6463C324.527 66.9607 324.985 66.4266 325.572 66.0441C326.163 65.6577 326.853 65.4645 327.641 65.4645C328.095 65.4645 328.544 65.5403 328.987 65.6918C329.43 65.8433 329.834 66.0895 330.197 66.4304C330.561 66.7675 330.851 67.2145 331.067 67.7713C331.283 68.3281 331.391 69.0138 331.391 69.8281V70.3963H324.663V69.2372H330.027C330.027 68.7448 329.929 68.3054 329.732 67.9191C329.538 67.5327 329.262 67.2278 328.902 67.0043C328.546 66.7808 328.125 66.6691 327.641 66.6691C327.107 66.6691 326.644 66.8016 326.254 67.0668C325.868 67.3281 325.571 67.6691 325.362 68.0895C325.154 68.51 325.05 68.9607 325.05 69.4418V70.2145C325.05 70.8736 325.163 71.4323 325.391 71.8906C325.622 72.3452 325.942 72.6918 326.351 72.9304C326.76 73.1653 327.235 73.2827 327.777 73.2827C328.129 73.2827 328.447 73.2335 328.732 73.135C329.019 73.0327 329.268 72.8812 329.476 72.6804C329.684 72.4759 329.845 72.2221 329.959 71.9191L331.254 72.2827C331.118 72.7221 330.889 73.1085 330.567 73.4418C330.245 73.7713 329.847 74.0289 329.374 74.2145C328.9 74.3963 328.368 74.4872 327.777 74.4872ZM334.771 62.6691V74.3054H333.43V62.6691H334.771ZM337.227 77.5781V65.5781H338.523V66.9645H338.682C338.78 66.813 338.917 66.6198 339.091 66.385C339.269 66.1463 339.523 65.9342 339.852 65.7486C340.186 65.5592 340.636 65.4645 341.205 65.4645C341.939 65.4645 342.587 65.6482 343.148 66.0156C343.708 66.3831 344.146 66.9039 344.46 67.5781C344.775 68.2524 344.932 69.0478 344.932 69.9645C344.932 70.8888 344.775 71.6899 344.46 72.3679C344.146 73.0422 343.71 73.5649 343.153 73.9361C342.597 74.3035 341.955 74.4872 341.227 74.4872C340.667 74.4872 340.218 74.3944 339.881 74.2088C339.544 74.0194 339.284 73.8054 339.102 73.5668C338.92 73.3244 338.78 73.1236 338.682 72.9645H338.568V77.5781H337.227ZM338.545 69.9418C338.545 70.6009 338.642 71.1823 338.835 71.6861C339.028 72.1861 339.311 72.5781 339.682 72.8622C340.053 73.1425 340.508 73.2827 341.045 73.2827C341.606 73.2827 342.074 73.135 342.449 72.8395C342.828 72.5403 343.112 72.1388 343.301 71.635C343.494 71.1274 343.591 70.563 343.591 69.9418C343.591 69.3281 343.496 68.7751 343.307 68.2827C343.121 67.7865 342.839 67.3944 342.46 67.1066C342.085 66.8149 341.614 66.6691 341.045 66.6691C340.5 66.6691 340.042 66.8073 339.67 67.0838C339.299 67.3566 339.019 67.7391 338.83 68.2316C338.64 68.7202 338.545 69.2903 338.545 69.9418ZM350.864 65.5781V66.7145H346.159V65.5781H350.864ZM347.568 74.3054V64.3736C347.568 63.8736 347.686 63.4569 347.92 63.1236C348.155 62.7903 348.46 62.5403 348.835 62.3736C349.21 62.2069 349.606 62.1236 350.023 62.1236C350.352 62.1236 350.621 62.1501 350.83 62.2031C351.038 62.2562 351.193 62.3054 351.295 62.3509L350.909 63.51C350.841 63.4872 350.746 63.4588 350.625 63.4247C350.508 63.3906 350.352 63.3736 350.159 63.3736C349.716 63.3736 349.396 63.4853 349.199 63.7088C349.006 63.9323 348.909 64.26 348.909 64.6918V74.3054H347.568ZM358.243 70.7372V65.5781H359.584V74.3054H358.243V72.8281H358.152C357.947 73.2713 357.629 73.6482 357.197 73.9588C356.766 74.2656 356.22 74.4191 355.561 74.4191C355.016 74.4191 354.531 74.2997 354.107 74.0611C353.682 73.8187 353.349 73.455 353.107 72.9702C352.864 72.4816 352.743 71.866 352.743 71.1236V65.5781H354.084V71.0327C354.084 71.6691 354.262 72.1766 354.618 72.5554C354.978 72.9342 355.436 73.1236 355.993 73.1236C356.326 73.1236 356.665 73.0384 357.01 72.8679C357.358 72.6975 357.65 72.4361 357.885 72.0838C358.124 71.7316 358.243 71.2827 358.243 70.7372ZM363.381 62.6691V74.3054H362.04V62.6691H363.381ZM376.518 67.5327L375.314 67.8736C375.238 67.6728 375.126 67.4778 374.979 67.2884C374.835 67.0952 374.638 66.9361 374.388 66.8111C374.138 66.6861 373.818 66.6236 373.428 66.6236C372.893 66.6236 372.448 66.7467 372.092 66.9929C371.74 67.2353 371.564 67.5441 371.564 67.9191C371.564 68.2524 371.685 68.5156 371.928 68.7088C372.17 68.902 372.549 69.063 373.064 69.1918L374.359 69.51C375.14 69.6994 375.721 69.9891 376.104 70.3793C376.486 70.7656 376.678 71.2638 376.678 71.8736C376.678 72.3736 376.534 72.8206 376.246 73.2145C375.962 73.6085 375.564 73.9191 375.053 74.1463C374.541 74.3736 373.946 74.4872 373.268 74.4872C372.378 74.4872 371.642 74.2941 371.058 73.9077C370.475 73.5213 370.106 72.9569 369.95 72.2145L371.223 71.8963C371.344 72.366 371.573 72.7183 371.911 72.9531C372.251 73.188 372.696 73.3054 373.246 73.3054C373.871 73.3054 374.367 73.1728 374.734 72.9077C375.106 72.6388 375.291 72.3168 375.291 71.9418C375.291 71.6388 375.185 71.385 374.973 71.1804C374.761 70.9721 374.435 70.8168 373.996 70.7145L372.541 70.3736C371.742 70.1842 371.155 69.8906 370.78 69.4929C370.409 69.0914 370.223 68.5895 370.223 67.9872C370.223 67.4948 370.361 67.0592 370.638 66.6804C370.918 66.3016 371.299 66.0043 371.78 65.7884C372.265 65.5725 372.814 65.4645 373.428 65.4645C374.291 65.4645 374.969 65.6539 375.462 66.0327C375.958 66.4115 376.31 66.9115 376.518 67.5327ZM382.355 74.4872C381.514 74.4872 380.789 74.3016 380.179 73.9304C379.573 73.5554 379.105 73.0327 378.776 72.3622C378.45 71.688 378.287 70.9039 378.287 70.01C378.287 69.116 378.45 68.3281 378.776 67.6463C379.105 66.9607 379.563 66.4266 380.151 66.0441C380.741 65.6577 381.431 65.4645 382.219 65.4645C382.673 65.4645 383.122 65.5403 383.565 65.6918C384.009 65.8433 384.412 66.0895 384.776 66.4304C385.139 66.7675 385.429 67.2145 385.645 67.7713C385.861 68.3281 385.969 69.0138 385.969 69.8281V70.3963H379.241V69.2372H384.605C384.605 68.7448 384.507 68.3054 384.31 67.9191C384.116 67.5327 383.84 67.2278 383.48 67.0043C383.124 66.7808 382.704 66.6691 382.219 66.6691C381.685 66.6691 381.223 66.8016 380.832 67.0668C380.446 67.3281 380.149 67.6691 379.94 68.0895C379.732 68.51 379.628 68.9607 379.628 69.4418V70.2145C379.628 70.8736 379.741 71.4323 379.969 71.8906C380.2 72.3452 380.52 72.6918 380.929 72.9304C381.338 73.1653 381.813 73.2827 382.355 73.2827C382.707 73.2827 383.026 73.2335 383.31 73.135C383.598 73.0327 383.846 72.8812 384.054 72.6804C384.262 72.4759 384.423 72.2221 384.537 71.9191L385.832 72.2827C385.696 72.7221 385.467 73.1085 385.145 73.4418C384.823 73.7713 384.425 74.0289 383.952 74.2145C383.478 74.3963 382.946 74.4872 382.355 74.4872ZM388.009 74.3054V65.5781H389.304V66.8963H389.395C389.554 66.4645 389.842 66.1141 390.259 65.8452C390.675 65.5763 391.145 65.4418 391.668 65.4418C391.766 65.4418 391.889 65.4437 392.037 65.4475C392.185 65.4513 392.296 65.4569 392.372 65.4645V66.8281C392.327 66.8168 392.223 66.7997 392.06 66.777C391.901 66.7505 391.732 66.7372 391.554 66.7372C391.13 66.7372 390.751 66.8263 390.418 67.0043C390.088 67.1785 389.827 67.4209 389.634 67.7316C389.444 68.0384 389.349 68.3888 389.349 68.7827V74.3054H388.009ZM401.364 65.5781L398.136 74.3054H396.773L393.545 65.5781H395L397.409 72.5327H397.5L399.909 65.5781H401.364ZM403.134 74.3054V65.5781H404.474V74.3054H403.134ZM403.815 64.1236C403.554 64.1236 403.329 64.0346 403.139 63.8566C402.954 63.6785 402.861 63.4645 402.861 63.2145C402.861 62.9645 402.954 62.7505 403.139 62.5725C403.329 62.3944 403.554 62.3054 403.815 62.3054C404.077 62.3054 404.3 62.3944 404.486 62.5725C404.675 62.7505 404.77 62.9645 404.77 63.2145C404.77 63.4645 404.675 63.6785 404.486 63.8566C404.3 64.0346 404.077 64.1236 403.815 64.1236ZM410.476 74.4872C409.658 74.4872 408.953 74.2941 408.362 73.9077C407.771 73.5213 407.317 72.9891 406.999 72.3111C406.68 71.6331 406.521 70.8585 406.521 69.9872C406.521 69.1009 406.684 68.3187 407.01 67.6406C407.339 66.9588 407.798 66.4266 408.385 66.0441C408.976 65.6577 409.665 65.4645 410.453 65.4645C411.067 65.4645 411.62 65.5781 412.112 65.8054C412.605 66.0327 413.008 66.3509 413.322 66.76C413.637 67.1691 413.832 67.6463 413.908 68.1918H412.567C412.464 67.7941 412.237 67.4418 411.885 67.135C411.536 66.8244 411.067 66.6691 410.476 66.6691C409.953 66.6691 409.495 66.8054 409.101 67.0781C408.711 67.3471 408.406 67.7278 408.186 68.2202C407.97 68.7088 407.862 69.2827 407.862 69.9418C407.862 70.616 407.968 71.2031 408.18 71.7031C408.396 72.2031 408.699 72.5914 409.089 72.8679C409.483 73.1444 409.946 73.2827 410.476 73.2827C410.824 73.2827 411.141 73.2221 411.425 73.1009C411.709 72.9797 411.949 72.8054 412.146 72.5781C412.343 72.3509 412.483 72.0781 412.567 71.76H413.908C413.832 72.2751 413.644 72.7391 413.345 73.152C413.05 73.5611 412.658 73.8869 412.169 74.1293C411.684 74.3679 411.12 74.4872 410.476 74.4872ZM419.527 74.4872C418.686 74.4872 417.961 74.3016 417.351 73.9304C416.745 73.5554 416.277 73.0327 415.947 72.3622C415.622 71.688 415.459 70.9039 415.459 70.01C415.459 69.116 415.622 68.3281 415.947 67.6463C416.277 66.9607 416.735 66.4266 417.322 66.0441C417.913 65.6577 418.603 65.4645 419.391 65.4645C419.845 65.4645 420.294 65.5403 420.737 65.6918C421.18 65.8433 421.584 66.0895 421.947 66.4304C422.311 66.7675 422.601 67.2145 422.817 67.7713C423.033 68.3281 423.141 69.0138 423.141 69.8281V70.3963H416.413V69.2372H421.777C421.777 68.7448 421.679 68.3054 421.482 67.9191C421.288 67.5327 421.012 67.2278 420.652 67.0043C420.296 66.7808 419.875 66.6691 419.391 66.6691C418.857 66.6691 418.394 66.8016 418.004 67.0668C417.618 67.3281 417.321 67.6691 417.112 68.0895C416.904 68.51 416.8 68.9607 416.8 69.4418V70.2145C416.8 70.8736 416.913 71.4323 417.141 71.8906C417.372 72.3452 417.692 72.6918 418.101 72.9304C418.51 73.1653 418.985 73.2827 419.527 73.2827C419.879 73.2827 420.197 73.2335 420.482 73.135C420.769 73.0327 421.018 72.8812 421.226 72.6804C421.434 72.4759 421.595 72.2221 421.709 71.9191L423.004 72.2827C422.868 72.7221 422.639 73.1085 422.317 73.4418C421.995 73.7713 421.597 74.0289 421.124 74.2145C420.65 74.3963 420.118 74.4872 419.527 74.4872Z" fill="black"/>
<rect x="510.695" y="0.95459" width="226" height="118.702" rx="59.3509" fill="white"/>
<path d="M595.347 38.6691H597.028L600.983 48.3281H601.119L605.074 38.6691H606.756V50.3054H605.438V41.4645H605.324L601.688 50.3054H600.415L596.778 41.4645H596.665V50.3054H595.347V38.6691ZM611.967 50.51C611.414 50.51 610.912 50.4058 610.462 50.1975C610.011 49.9853 609.653 49.6804 609.388 49.2827C609.123 48.8812 608.99 48.3963 608.99 47.8281C608.99 47.3281 609.089 46.9228 609.286 46.6122C609.482 46.2978 609.746 46.0516 610.075 45.8736C610.405 45.6956 610.768 45.563 611.166 45.4759C611.568 45.385 611.971 45.313 612.376 45.26C612.907 45.1918 613.337 45.1406 613.666 45.1066C614 45.0687 614.242 45.0062 614.393 44.9191C614.549 44.8319 614.626 44.6804 614.626 44.4645V44.4191C614.626 43.8584 614.473 43.4228 614.166 43.1122C613.863 42.8016 613.403 42.6463 612.786 42.6463C612.145 42.6463 611.643 42.7865 611.28 43.0668C610.916 43.3471 610.661 43.6463 610.513 43.9645L609.24 43.51C609.467 42.9797 609.77 42.5668 610.149 42.2713C610.532 41.9721 610.948 41.7638 611.399 41.6463C611.854 41.5251 612.301 41.4645 612.74 41.4645C613.02 41.4645 613.342 41.4986 613.706 41.5668C614.073 41.6312 614.428 41.7656 614.768 41.9702C615.113 42.1747 615.399 42.4835 615.626 42.8963C615.854 43.3092 615.967 43.8622 615.967 44.5554V50.3054H614.626V49.1236H614.558C614.467 49.313 614.316 49.5156 614.104 49.7316C613.892 49.9475 613.609 50.1312 613.257 50.2827C612.905 50.4342 612.475 50.51 611.967 50.51ZM612.172 49.3054C612.702 49.3054 613.149 49.2013 613.513 48.9929C613.88 48.7846 614.157 48.5156 614.342 48.1861C614.532 47.8566 614.626 47.51 614.626 47.1463V45.9191C614.57 45.9872 614.445 46.0497 614.251 46.1066C614.062 46.1596 613.842 46.2069 613.592 46.2486C613.346 46.2865 613.106 46.3206 612.871 46.3509C612.64 46.3774 612.452 46.4001 612.308 46.4191C611.96 46.4645 611.634 46.5384 611.331 46.6406C611.032 46.7391 610.789 46.8888 610.604 47.0895C610.422 47.2865 610.331 47.5554 610.331 47.8963C610.331 48.3622 610.503 48.7145 610.848 48.9531C611.196 49.188 611.638 49.3054 612.172 49.3054ZM619.665 47.1236L619.642 45.4645H619.915L623.733 41.5781H625.392L621.324 45.6918H621.21L619.665 47.1236ZM618.415 50.3054V38.6691H619.756V50.3054H618.415ZM623.96 50.3054L620.551 45.9872L621.506 45.0554L625.665 50.3054H623.96ZM630.418 50.4872C629.577 50.4872 628.851 50.3016 628.241 49.9304C627.635 49.5554 627.168 49.0327 626.838 48.3622C626.512 47.688 626.349 46.9039 626.349 46.01C626.349 45.116 626.512 44.3281 626.838 43.6463C627.168 42.9607 627.626 42.4266 628.213 42.0441C628.804 41.6577 629.493 41.4645 630.281 41.4645C630.736 41.4645 631.185 41.5403 631.628 41.6918C632.071 41.8433 632.474 42.0895 632.838 42.4304C633.202 42.7675 633.491 43.2145 633.707 43.7713C633.923 44.3281 634.031 45.0138 634.031 45.8281V46.3963H627.304V45.2372H632.668C632.668 44.7448 632.569 44.3054 632.372 43.9191C632.179 43.5327 631.902 43.2278 631.543 43.0043C631.187 42.7808 630.766 42.6691 630.281 42.6691C629.747 42.6691 629.285 42.8016 628.895 43.0668C628.509 43.3281 628.211 43.6691 628.003 44.0895C627.795 44.51 627.69 44.9607 627.69 45.4418V46.2145C627.69 46.8736 627.804 47.4323 628.031 47.8906C628.262 48.3452 628.582 48.6918 628.991 48.9304C629.401 49.1653 629.876 49.2827 630.418 49.2827C630.77 49.2827 631.088 49.2335 631.372 49.135C631.66 49.0327 631.908 48.8812 632.116 48.6804C632.325 48.4759 632.486 48.2221 632.599 47.9191L633.895 48.2827C633.759 48.7221 633.529 49.1085 633.207 49.4418C632.885 49.7713 632.488 50.0289 632.014 50.2145C631.541 50.3963 631.009 50.4872 630.418 50.4872ZM640.571 50.3054V41.5781H641.912V50.3054H640.571ZM641.253 40.1236C640.991 40.1236 640.766 40.0346 640.577 39.8566C640.391 39.6785 640.298 39.4645 640.298 39.2145C640.298 38.9645 640.391 38.7505 640.577 38.5725C640.766 38.3944 640.991 38.3054 641.253 38.3054C641.514 38.3054 641.738 38.3944 641.923 38.5725C642.113 38.7505 642.207 38.9645 642.207 39.2145C642.207 39.4645 642.113 39.6785 641.923 39.8566C641.738 40.0346 641.514 40.1236 641.253 40.1236ZM648.163 41.5781V42.7145H643.641V41.5781H648.163ZM644.959 39.4872H646.3V47.8054C646.3 48.1842 646.355 48.4683 646.464 48.6577C646.578 48.8433 646.722 48.9683 646.896 49.0327C647.074 49.0933 647.262 49.1236 647.459 49.1236C647.607 49.1236 647.728 49.116 647.822 49.1009C647.917 49.0819 647.993 49.0668 648.05 49.0554L648.322 50.26C648.232 50.2941 648.105 50.3281 647.942 50.3622C647.779 50.4001 647.572 50.4191 647.322 50.4191C646.944 50.4191 646.572 50.3376 646.209 50.1747C645.849 50.0119 645.55 49.7638 645.311 49.4304C645.076 49.0971 644.959 48.6766 644.959 48.1691V39.4872ZM591.024 62.7372V57.5781H592.365V66.3054H591.024V64.8281H590.933C590.729 65.2713 590.411 65.6482 589.979 65.9588C589.547 66.2656 589.001 66.4191 588.342 66.4191C587.797 66.4191 587.312 66.2997 586.888 66.0611C586.464 65.8187 586.13 65.455 585.888 64.9702C585.645 64.4816 585.524 63.866 585.524 63.1236V57.5781H586.865V63.0327C586.865 63.6691 587.043 64.1766 587.399 64.5554C587.759 64.9342 588.217 65.1236 588.774 65.1236C589.107 65.1236 589.446 65.0384 589.791 64.8679C590.14 64.6975 590.431 64.4361 590.666 64.0838C590.905 63.7316 591.024 63.2827 591.024 62.7372ZM595.003 66.3054V54.6691H596.344V58.9645H596.457C596.556 58.813 596.692 58.6198 596.866 58.385C597.045 58.1463 597.298 57.9342 597.628 57.7486C597.961 57.5592 598.412 57.4645 598.98 57.4645C599.715 57.4645 600.363 57.6482 600.923 58.0156C601.484 58.3831 601.921 58.9039 602.236 59.5781C602.55 60.2524 602.707 61.0478 602.707 61.9645C602.707 62.8888 602.55 63.6899 602.236 64.3679C601.921 65.0422 601.486 65.5649 600.929 65.9361C600.372 66.3035 599.73 66.4872 599.003 66.4872C598.442 66.4872 597.993 66.3944 597.656 66.2088C597.319 66.0194 597.06 65.8054 596.878 65.5668C596.696 65.3244 596.556 65.1236 596.457 64.9645H596.298V66.3054H595.003ZM596.321 61.9418C596.321 62.6009 596.418 63.1823 596.611 63.6861C596.804 64.1861 597.086 64.5781 597.457 64.8622C597.829 65.1425 598.283 65.2827 598.821 65.2827C599.382 65.2827 599.849 65.135 600.224 64.8395C600.603 64.5403 600.887 64.1388 601.077 63.635C601.27 63.1274 601.366 62.563 601.366 61.9418C601.366 61.3281 601.272 60.7751 601.082 60.2827C600.897 59.7865 600.615 59.3944 600.236 59.1066C599.861 58.8149 599.389 58.6691 598.821 58.6691C598.276 58.6691 597.817 58.8073 597.446 59.0838C597.075 59.3566 596.795 59.7391 596.605 60.2316C596.416 60.7202 596.321 61.2903 596.321 61.9418ZM604.759 66.3054V57.5781H606.099V66.3054H604.759ZM605.44 56.1236C605.179 56.1236 604.954 56.0346 604.764 55.8566C604.579 55.6785 604.486 55.4645 604.486 55.2145C604.486 54.9645 604.579 54.7505 604.764 54.5725C604.954 54.3944 605.179 54.3054 605.44 54.3054C605.702 54.3054 605.925 54.3944 606.111 54.5725C606.3 54.7505 606.395 54.9645 606.395 55.2145C606.395 55.4645 606.3 55.6785 606.111 55.8566C605.925 56.0346 605.702 56.1236 605.44 56.1236ZM614.51 69.5781V64.9645H614.396C614.298 65.1236 614.158 65.3244 613.976 65.5668C613.794 65.8054 613.535 66.0194 613.197 66.2088C612.86 66.3944 612.411 66.4872 611.851 66.4872C611.124 66.4872 610.482 66.3035 609.925 65.9361C609.368 65.5649 608.932 65.0422 608.618 64.3679C608.304 63.6899 608.146 62.8888 608.146 61.9645C608.146 61.0478 608.304 60.2524 608.618 59.5781C608.932 58.9039 609.37 58.3831 609.93 58.0156C610.491 57.6482 611.139 57.4645 611.874 57.4645C612.442 57.4645 612.891 57.5592 613.22 57.7486C613.554 57.9342 613.807 58.1463 613.982 58.385C614.16 58.6198 614.298 58.813 614.396 58.9645H614.555V57.5781H615.851V69.5781H614.51ZM612.033 65.2827C612.571 65.2827 613.025 65.1425 613.396 64.8622C613.768 64.5781 614.05 64.1861 614.243 63.6861C614.436 63.1823 614.533 62.6009 614.533 61.9418C614.533 61.2903 614.438 60.7202 614.249 60.2316C614.059 59.7391 613.779 59.3566 613.408 59.0838C613.036 58.8073 612.578 58.6691 612.033 58.6691C611.464 58.6691 610.991 58.8149 610.612 59.1066C610.237 59.3944 609.955 59.7865 609.766 60.2827C609.58 60.7751 609.487 61.3281 609.487 61.9418C609.487 62.563 609.582 63.1274 609.771 63.635C609.964 64.1388 610.249 64.5403 610.624 64.8395C611.002 65.135 611.472 65.2827 612.033 65.2827ZM623.805 62.7372V57.5781H625.146V66.3054H623.805V64.8281H623.714C623.51 65.2713 623.192 65.6482 622.76 65.9588C622.328 66.2656 621.783 66.4191 621.124 66.4191C620.578 66.4191 620.093 66.2997 619.669 66.0611C619.245 65.8187 618.911 65.455 618.669 64.9702C618.427 64.4816 618.305 63.866 618.305 63.1236V57.5781H619.646V63.0327C619.646 63.6691 619.824 64.1766 620.18 64.5554C620.54 64.9342 620.999 65.1236 621.555 65.1236C621.889 65.1236 622.228 65.0384 622.572 64.8679C622.921 64.6975 623.213 64.4361 623.447 64.0838C623.686 63.7316 623.805 63.2827 623.805 62.7372ZM627.602 66.3054V57.5781H628.943V66.3054H627.602ZM628.284 56.1236C628.023 56.1236 627.797 56.0346 627.608 55.8566C627.422 55.6785 627.33 55.4645 627.33 55.2145C627.33 54.9645 627.422 54.7505 627.608 54.5725C627.797 54.3944 628.023 54.3054 628.284 54.3054C628.545 54.3054 628.769 54.3944 628.955 54.5725C629.144 54.7505 629.239 54.9645 629.239 55.2145C629.239 55.4645 629.144 55.6785 628.955 55.8566C628.769 56.0346 628.545 56.1236 628.284 56.1236ZM635.195 57.5781V58.7145H630.672V57.5781H635.195ZM631.99 55.4872H633.331V63.8054C633.331 64.1842 633.386 64.4683 633.496 64.6577C633.609 64.8433 633.753 64.9683 633.928 65.0327C634.106 65.0933 634.293 65.1236 634.49 65.1236C634.638 65.1236 634.759 65.116 634.854 65.1009C634.948 65.0819 635.024 65.0668 635.081 65.0554L635.354 66.26C635.263 66.2941 635.136 66.3281 634.973 66.3622C634.81 66.4001 634.604 66.4191 634.354 66.4191C633.975 66.4191 633.604 66.3376 633.24 66.1747C632.88 66.0119 632.581 65.7638 632.342 65.4304C632.107 65.0971 631.99 64.6766 631.99 64.1691V55.4872ZM640.663 66.4872C639.875 66.4872 639.184 66.2997 638.589 65.9247C637.999 65.5497 637.536 65.0251 637.203 64.3509C636.874 63.6766 636.709 62.8888 636.709 61.9872C636.709 61.0781 636.874 60.2846 637.203 59.6066C637.536 58.9285 637.999 58.402 638.589 58.027C639.184 57.652 639.875 57.4645 640.663 57.4645C641.451 57.4645 642.141 57.652 642.732 58.027C643.326 58.402 643.788 58.9285 644.118 59.6066C644.451 60.2846 644.618 61.0781 644.618 61.9872C644.618 62.8888 644.451 63.6766 644.118 64.3509C643.788 65.0251 643.326 65.5497 642.732 65.9247C642.141 66.2997 641.451 66.4872 640.663 66.4872ZM640.663 65.2827C641.262 65.2827 641.754 65.1293 642.141 64.8225C642.527 64.5156 642.813 64.1122 642.999 63.6122C643.184 63.1122 643.277 62.5706 643.277 61.9872C643.277 61.4039 643.184 60.8603 642.999 60.3566C642.813 59.8528 642.527 59.4456 642.141 59.135C641.754 58.8244 641.262 58.6691 640.663 58.6691C640.065 58.6691 639.572 58.8244 639.186 59.135C638.8 59.4456 638.514 59.8528 638.328 60.3566C638.143 60.8603 638.05 61.4039 638.05 61.9872C638.05 62.5706 638.143 63.1122 638.328 63.6122C638.514 64.1122 638.8 64.5156 639.186 64.8225C639.572 65.1293 640.065 65.2827 640.663 65.2827ZM652.165 62.7372V57.5781H653.506V66.3054H652.165V64.8281H652.074C651.869 65.2713 651.551 65.6482 651.119 65.9588C650.688 66.2656 650.142 66.4191 649.483 66.4191C648.938 66.4191 648.453 66.2997 648.028 66.0611C647.604 65.8187 647.271 65.455 647.028 64.9702C646.786 64.4816 646.665 63.866 646.665 63.1236V57.5781H648.006V63.0327C648.006 63.6691 648.184 64.1766 648.54 64.5554C648.9 64.9342 649.358 65.1236 649.915 65.1236C650.248 65.1236 650.587 65.0384 650.932 64.8679C651.28 64.6975 651.572 64.4361 651.807 64.0838C652.045 63.7316 652.165 63.2827 652.165 62.7372ZM662.143 59.5327L660.939 59.8736C660.863 59.6728 660.751 59.4778 660.604 59.2884C660.46 59.0952 660.263 58.9361 660.013 58.8111C659.763 58.6861 659.443 58.6236 659.053 58.6236C658.518 58.6236 658.073 58.7467 657.717 58.9929C657.365 59.2353 657.189 59.5441 657.189 59.9191C657.189 60.2524 657.31 60.5156 657.553 60.7088C657.795 60.902 658.174 61.063 658.689 61.1918L659.984 61.51C660.765 61.6994 661.346 61.9891 661.729 62.3793C662.111 62.7656 662.303 63.2638 662.303 63.8736C662.303 64.3736 662.159 64.8206 661.871 65.2145C661.587 65.6085 661.189 65.9191 660.678 66.1463C660.166 66.3736 659.571 66.4872 658.893 66.4872C658.003 66.4872 657.267 66.2941 656.683 65.9077C656.1 65.5213 655.731 64.9569 655.575 64.2145L656.848 63.8963C656.969 64.366 657.198 64.7183 657.536 64.9531C657.876 65.188 658.321 65.3054 658.871 65.3054C659.496 65.3054 659.992 65.1728 660.359 64.9077C660.731 64.6388 660.916 64.3168 660.916 63.9418C660.916 63.6388 660.81 63.385 660.598 63.1804C660.386 62.9721 660.06 62.8168 659.621 62.7145L658.166 62.3736C657.367 62.1842 656.78 61.8906 656.405 61.4929C656.034 61.0914 655.848 60.5895 655.848 59.9872C655.848 59.4948 655.986 59.0592 656.263 58.6804C656.543 58.3016 656.924 58.0043 657.405 57.7884C657.89 57.5725 658.439 57.4645 659.053 57.4645C659.916 57.4645 660.594 57.6539 661.087 58.0327C661.583 58.4115 661.935 58.9115 662.143 59.5327ZM585.124 82.51C584.571 82.51 584.069 82.4058 583.618 82.1975C583.167 81.9853 582.809 81.6804 582.544 81.2827C582.279 80.8812 582.146 80.3963 582.146 79.8281C582.146 79.3281 582.245 78.9228 582.442 78.6122C582.639 78.2978 582.902 78.0516 583.232 77.8736C583.561 77.6956 583.925 77.563 584.322 77.4759C584.724 77.385 585.127 77.313 585.533 77.26C586.063 77.1918 586.493 77.1406 586.822 77.1066C587.156 77.0687 587.398 77.0062 587.55 76.9191C587.705 76.8319 587.783 76.6804 587.783 76.4645V76.4191C587.783 75.8584 587.629 75.4228 587.322 75.1122C587.019 74.8016 586.559 74.6463 585.942 74.6463C585.302 74.6463 584.8 74.7865 584.436 75.0668C584.072 75.3471 583.817 75.6463 583.669 75.9645L582.396 75.51C582.624 74.9797 582.927 74.5668 583.305 74.2713C583.688 73.9721 584.105 73.7638 584.555 73.6463C585.01 73.5251 585.457 73.4645 585.896 73.4645C586.177 73.4645 586.499 73.4986 586.862 73.5668C587.23 73.6312 587.584 73.7656 587.925 73.9702C588.269 74.1747 588.555 74.4835 588.783 74.8963C589.01 75.3092 589.124 75.8622 589.124 76.5554V82.3054H587.783V81.1236H587.714C587.624 81.313 587.472 81.5156 587.26 81.7316C587.048 81.9475 586.766 82.1312 586.413 82.2827C586.061 82.4342 585.631 82.51 585.124 82.51ZM585.328 81.3054C585.858 81.3054 586.305 81.2013 586.669 80.9929C587.036 80.7846 587.313 80.5156 587.499 80.1861C587.688 79.8566 587.783 79.51 587.783 79.1463V77.9191C587.726 77.9872 587.601 78.0497 587.408 78.1066C587.218 78.1596 586.999 78.2069 586.749 78.2486C586.502 78.2865 586.262 78.3206 586.027 78.3509C585.796 78.3774 585.608 78.4001 585.464 78.4191C585.116 78.4645 584.79 78.5384 584.487 78.6406C584.188 78.7391 583.946 78.8888 583.76 79.0895C583.578 79.2865 583.487 79.5554 583.487 79.8963C583.487 80.3622 583.66 80.7145 584.004 80.9531C584.353 81.188 584.794 81.3054 585.328 81.3054ZM597.753 75.5327L596.548 75.8736C596.473 75.6728 596.361 75.4778 596.213 75.2884C596.069 75.0952 595.872 74.9361 595.622 74.8111C595.372 74.6861 595.052 74.6236 594.662 74.6236C594.128 74.6236 593.683 74.7467 593.327 74.9929C592.974 75.2353 592.798 75.5441 592.798 75.9191C592.798 76.2524 592.92 76.5156 593.162 76.7088C593.404 76.902 593.783 77.063 594.298 77.1918L595.594 77.51C596.374 77.6994 596.955 77.9891 597.338 78.3793C597.721 78.7656 597.912 79.2638 597.912 79.8736C597.912 80.3736 597.768 80.8206 597.48 81.2145C597.196 81.6085 596.798 81.9191 596.287 82.1463C595.776 82.3736 595.181 82.4872 594.503 82.4872C593.613 82.4872 592.876 82.2941 592.293 81.9077C591.709 81.5213 591.34 80.9569 591.185 80.2145L592.457 79.8963C592.579 80.366 592.808 80.7183 593.145 80.9531C593.486 81.188 593.931 81.3054 594.48 81.3054C595.105 81.3054 595.601 81.1728 595.969 80.9077C596.34 80.6388 596.526 80.3168 596.526 79.9418C596.526 79.6388 596.42 79.385 596.207 79.1804C595.995 78.9721 595.67 78.8168 595.23 78.7145L593.776 78.3736C592.976 78.1842 592.389 77.8906 592.014 77.4929C591.643 77.0914 591.457 76.5895 591.457 75.9872C591.457 75.4948 591.596 75.0592 591.872 74.6804C592.152 74.3016 592.533 74.0043 593.014 73.7884C593.499 73.5725 594.048 73.4645 594.662 73.4645C595.526 73.4645 596.204 73.6539 596.696 74.0327C597.192 74.4115 597.545 74.9115 597.753 75.5327ZM604.43 85.5781V73.5781H605.726V74.9645H605.885C605.983 74.813 606.12 74.6198 606.294 74.385C606.472 74.1463 606.726 73.9342 607.055 73.7486C607.389 73.5592 607.839 73.4645 608.408 73.4645C609.143 73.4645 609.79 73.6482 610.351 74.0156C610.911 74.3831 611.349 74.9039 611.663 75.5781C611.978 76.2524 612.135 77.0478 612.135 77.9645C612.135 78.8888 611.978 79.6899 611.663 80.3679C611.349 81.0422 610.913 81.5649 610.357 81.9361C609.8 82.3035 609.158 82.4872 608.43 82.4872C607.87 82.4872 607.421 82.3944 607.084 82.2088C606.747 82.0194 606.487 81.8054 606.305 81.5668C606.124 81.3244 605.983 81.1236 605.885 80.9645H605.771V85.5781H604.43ZM605.749 77.9418C605.749 78.6009 605.845 79.1823 606.038 79.6861C606.232 80.1861 606.514 80.5781 606.885 80.8622C607.256 81.1425 607.711 81.2827 608.249 81.2827C608.809 81.2827 609.277 81.135 609.652 80.8395C610.031 80.5403 610.315 80.1388 610.504 79.635C610.697 79.1274 610.794 78.563 610.794 77.9418C610.794 77.3281 610.699 76.7751 610.51 76.2827C610.324 75.7865 610.042 75.3944 609.663 75.1066C609.288 74.8149 608.817 74.6691 608.249 74.6691C607.703 74.6691 607.245 74.8073 606.874 75.0838C606.502 75.3566 606.222 75.7391 606.033 76.2316C605.843 76.7202 605.749 77.2903 605.749 77.9418ZM617.726 82.4872C616.938 82.4872 616.247 82.2997 615.652 81.9247C615.061 81.5497 614.599 81.0251 614.266 80.3509C613.936 79.6766 613.771 78.8888 613.771 77.9872C613.771 77.0781 613.936 76.2846 614.266 75.6066C614.599 74.9285 615.061 74.402 615.652 74.027C616.247 73.652 616.938 73.4645 617.726 73.4645C618.514 73.4645 619.203 73.652 619.794 74.027C620.389 74.402 620.851 74.9285 621.18 75.6066C621.514 76.2846 621.68 77.0781 621.68 77.9872C621.68 78.8888 621.514 79.6766 621.18 80.3509C620.851 81.0251 620.389 81.5497 619.794 81.9247C619.203 82.2997 618.514 82.4872 617.726 82.4872ZM617.726 81.2827C618.324 81.2827 618.817 81.1293 619.203 80.8225C619.589 80.5156 619.875 80.1122 620.061 79.6122C620.247 79.1122 620.339 78.5706 620.339 77.9872C620.339 77.4039 620.247 76.8603 620.061 76.3566C619.875 75.8528 619.589 75.4456 619.203 75.135C618.817 74.8244 618.324 74.6691 617.726 74.6691C617.127 74.6691 616.635 74.8244 616.249 75.135C615.862 75.4456 615.576 75.8528 615.391 76.3566C615.205 76.8603 615.112 77.4039 615.112 77.9872C615.112 78.5706 615.205 79.1122 615.391 79.6122C615.576 80.1122 615.862 80.5156 616.249 80.8225C616.635 81.1293 617.127 81.2827 617.726 81.2827ZM629.909 75.5327L628.705 75.8736C628.629 75.6728 628.517 75.4778 628.369 75.2884C628.225 75.0952 628.028 74.9361 627.778 74.8111C627.528 74.6861 627.208 74.6236 626.818 74.6236C626.284 74.6236 625.839 74.7467 625.483 74.9929C625.131 75.2353 624.955 75.5441 624.955 75.9191C624.955 76.2524 625.076 76.5156 625.318 76.7088C625.561 76.902 625.939 77.063 626.455 77.1918L627.75 77.51C628.53 77.6994 629.112 77.9891 629.494 78.3793C629.877 78.7656 630.068 79.2638 630.068 79.8736C630.068 80.3736 629.924 80.8206 629.636 81.2145C629.352 81.6085 628.955 81.9191 628.443 82.1463C627.932 82.3736 627.337 82.4872 626.659 82.4872C625.769 82.4872 625.032 82.2941 624.449 81.9077C623.866 81.5213 623.496 80.9569 623.341 80.2145L624.614 79.8963C624.735 80.366 624.964 80.7183 625.301 80.9531C625.642 81.188 626.087 81.3054 626.636 81.3054C627.261 81.3054 627.758 81.1728 628.125 80.9077C628.496 80.6388 628.682 80.3168 628.682 79.9418C628.682 79.6388 628.576 79.385 628.364 79.1804C628.152 78.9721 627.826 78.8168 627.386 78.7145L625.932 78.3736C625.133 78.1842 624.545 77.8906 624.17 77.4929C623.799 77.0914 623.614 76.5895 623.614 75.9872C623.614 75.4948 623.752 75.0592 624.028 74.6804C624.309 74.3016 624.689 74.0043 625.17 73.7884C625.655 73.5725 626.205 73.4645 626.818 73.4645C627.682 73.4645 628.36 73.6539 628.852 74.0327C629.348 74.4115 629.701 74.9115 629.909 75.5327ZM638.268 75.5327L637.064 75.8736C636.988 75.6728 636.876 75.4778 636.729 75.2884C636.585 75.0952 636.388 74.9361 636.138 74.8111C635.888 74.6861 635.568 74.6236 635.178 74.6236C634.643 74.6236 634.198 74.7467 633.842 74.9929C633.49 75.2353 633.314 75.5441 633.314 75.9191C633.314 76.2524 633.435 76.5156 633.678 76.7088C633.92 76.902 634.299 77.063 634.814 77.1918L636.109 77.51C636.89 77.6994 637.471 77.9891 637.854 78.3793C638.236 78.7656 638.428 79.2638 638.428 79.8736C638.428 80.3736 638.284 80.8206 637.996 81.2145C637.712 81.6085 637.314 81.9191 636.803 82.1463C636.291 82.3736 635.696 82.4872 635.018 82.4872C634.128 82.4872 633.392 82.2941 632.808 81.9077C632.225 81.5213 631.856 80.9569 631.7 80.2145L632.973 79.8963C633.094 80.366 633.323 80.7183 633.661 80.9531C634.001 81.188 634.446 81.3054 634.996 81.3054C635.621 81.3054 636.117 81.1728 636.484 80.9077C636.856 80.6388 637.041 80.3168 637.041 79.9418C637.041 79.6388 636.935 79.385 636.723 79.1804C636.511 78.9721 636.185 78.8168 635.746 78.7145L634.291 78.3736C633.492 78.1842 632.905 77.8906 632.53 77.4929C632.159 77.0914 631.973 76.5895 631.973 75.9872C631.973 75.4948 632.111 75.0592 632.388 74.6804C632.668 74.3016 633.049 74.0043 633.53 73.7884C634.015 73.5725 634.564 73.4645 635.178 73.4645C636.041 73.4645 636.719 73.6539 637.212 74.0327C637.708 74.4115 638.06 74.9115 638.268 75.5327ZM640.446 82.3054V73.5781H641.787V82.3054H640.446ZM641.128 72.1236C640.866 72.1236 640.641 72.0346 640.452 71.8566C640.266 71.6785 640.173 71.4645 640.173 71.2145C640.173 70.9645 640.266 70.7505 640.452 70.5725C640.641 70.3944 640.866 70.3054 641.128 70.3054C641.389 70.3054 641.613 70.3944 641.798 70.5725C641.988 70.7505 642.082 70.9645 642.082 71.2145C642.082 71.4645 641.988 71.6785 641.798 71.8566C641.613 72.0346 641.389 72.1236 641.128 72.1236ZM644.425 82.3054V70.6691H645.766V74.9645H645.879C645.978 74.813 646.114 74.6198 646.288 74.385C646.466 74.1463 646.72 73.9342 647.05 73.7486C647.383 73.5592 647.834 73.4645 648.402 73.4645C649.137 73.4645 649.785 73.6482 650.345 74.0156C650.906 74.3831 651.343 74.9039 651.658 75.5781C651.972 76.2524 652.129 77.0478 652.129 77.9645C652.129 78.8888 651.972 79.6899 651.658 80.3679C651.343 81.0422 650.908 81.5649 650.351 81.9361C649.794 82.3035 649.152 82.4872 648.425 82.4872C647.864 82.4872 647.415 82.3944 647.078 82.2088C646.741 82.0194 646.482 81.8054 646.3 81.5668C646.118 81.3244 645.978 81.1236 645.879 80.9645H645.72V82.3054H644.425ZM645.743 77.9418C645.743 78.6009 645.839 79.1823 646.033 79.6861C646.226 80.1861 646.508 80.5781 646.879 80.8622C647.25 81.1425 647.705 81.2827 648.243 81.2827C648.804 81.2827 649.271 81.135 649.646 80.8395C650.025 80.5403 650.309 80.1388 650.499 79.635C650.692 79.1274 650.788 78.563 650.788 77.9418C650.788 77.3281 650.694 76.7751 650.504 76.2827C650.319 75.7865 650.036 75.3944 649.658 75.1066C649.283 74.8149 648.811 74.6691 648.243 74.6691C647.697 74.6691 647.239 74.8073 646.868 75.0838C646.497 75.3566 646.216 75.7391 646.027 76.2316C645.838 76.7202 645.743 77.2903 645.743 77.9418ZM655.521 70.6691V82.3054H654.18V70.6691H655.521ZM661.636 82.4872C660.795 82.4872 660.07 82.3016 659.46 81.9304C658.854 81.5554 658.386 81.0327 658.057 80.3622C657.731 79.688 657.568 78.9039 657.568 78.01C657.568 77.116 657.731 76.3281 658.057 75.6463C658.386 74.9607 658.845 74.4266 659.432 74.0441C660.023 73.6577 660.712 73.4645 661.5 73.4645C661.955 73.4645 662.403 73.5403 662.847 73.6918C663.29 73.8433 663.693 74.0895 664.057 74.4304C664.42 74.7675 664.71 75.2145 664.926 75.7713C665.142 76.3281 665.25 77.0138 665.25 77.8281V78.3963H658.523V77.2372H663.886C663.886 76.7448 663.788 76.3054 663.591 75.9191C663.398 75.5327 663.121 75.2278 662.761 75.0043C662.405 74.7808 661.985 74.6691 661.5 74.6691C660.966 74.6691 660.504 74.8016 660.114 75.0668C659.727 75.3281 659.43 75.6691 659.222 76.0895C659.013 76.51 658.909 76.9607 658.909 77.4418V78.2145C658.909 78.8736 659.023 79.4323 659.25 79.8906C659.481 80.3452 659.801 80.6918 660.21 80.9304C660.619 81.1653 661.095 81.2827 661.636 81.2827C661.989 81.2827 662.307 81.2335 662.591 81.135C662.879 81.0327 663.127 80.8812 663.335 80.6804C663.544 80.4759 663.705 80.2221 663.818 79.9191L665.114 80.2827C664.977 80.7221 664.748 81.1085 664.426 81.4418C664.104 81.7713 663.706 82.0289 663.233 82.2145C662.759 82.3963 662.227 82.4872 661.636 82.4872Z" fill="black"/>
</svg>
