<svg width="825" height="309" viewBox="0 0 825 309" fill="none" xmlns="http://www.w3.org/2000/svg">
<rect x="0.0507812" y="0.214844" width="226" height="118.702" rx="59.3509" fill="#F5F5F5"/>
<rect x="285.445" y="0.205078" width="226" height="118.702" rx="59.3509" fill="#F5F5F5"/>
<rect x="598.562" y="0.205078" width="226" height="118.702" rx="59.3509" fill="#F5F5F5"/>
<path d="M218.051 59.5605C218.051 63.9788 221.633 67.5605 226.051 67.5605C230.469 67.5605 234.051 63.9788 234.051 59.5605C234.051 55.1423 230.469 51.5605 226.051 51.5605C221.633 51.5605 218.051 55.1423 218.051 59.5605ZM277.445 59.5605C277.445 63.9788 281.027 67.5605 285.445 67.5605C289.864 67.5605 293.445 63.9788 293.445 59.5605C293.445 55.1423 289.864 51.5605 285.445 51.5605C281.027 51.5605 277.445 55.1423 277.445 59.5605ZM226.051 61.0605H285.445V58.0605H226.051V61.0605Z" fill="black"/>
<path d="M324.813 47.5925V51.3205H328.877V52.5205H324.813V56.3605H329.357V57.5605H323.357V46.3925H329.357V47.5925H324.813ZM336.136 57.5605L334.056 54.2965L332.056 57.5605H330.536L333.368 53.2085L330.536 48.7925H332.184L334.264 52.0405L336.248 48.7925H337.768L334.952 53.1285L337.784 57.5605H336.136ZM340.672 50.4085C340.96 49.9072 341.387 49.4912 341.952 49.1605C342.528 48.8192 343.195 48.6485 343.952 48.6485C344.731 48.6485 345.435 48.8352 346.064 49.2085C346.704 49.5819 347.206 50.1099 347.568 50.7925C347.931 51.4645 348.112 52.2485 348.112 53.1445C348.112 54.0299 347.931 54.8192 347.568 55.5125C347.206 56.2059 346.704 56.7445 346.064 57.1285C345.435 57.5125 344.731 57.7045 343.952 57.7045C343.206 57.7045 342.544 57.5392 341.968 57.2085C341.403 56.8672 340.971 56.4459 340.672 55.9445V61.7205H339.216V48.7925H340.672V50.4085ZM346.624 53.1445C346.624 52.4832 346.491 51.9072 346.224 51.4165C345.958 50.9259 345.595 50.5525 345.136 50.2965C344.688 50.0405 344.192 49.9125 343.648 49.9125C343.115 49.9125 342.619 50.0459 342.16 50.3125C341.712 50.5685 341.35 50.9472 341.072 51.4485C340.806 51.9392 340.672 52.5099 340.672 53.1605C340.672 53.8219 340.806 54.4032 341.072 54.9045C341.35 55.3952 341.712 55.7739 342.16 56.0405C342.619 56.2965 343.115 56.4245 343.648 56.4245C344.192 56.4245 344.688 56.2965 345.136 56.0405C345.595 55.7739 345.958 55.3952 346.224 54.9045C346.491 54.4032 346.624 53.8165 346.624 53.1445ZM351.485 45.7205V57.5605H350.029V45.7205H351.485ZM357.79 57.7045C356.969 57.7045 356.222 57.5179 355.55 57.1445C354.889 56.7712 354.366 56.2432 353.982 55.5605C353.609 54.8672 353.422 54.0672 353.422 53.1605C353.422 52.2645 353.614 51.4752 353.998 50.7925C354.393 50.0992 354.926 49.5712 355.598 49.2085C356.27 48.8352 357.022 48.6485 357.854 48.6485C358.686 48.6485 359.438 48.8352 360.11 49.2085C360.782 49.5712 361.31 50.0939 361.694 50.7765C362.089 51.4592 362.286 52.2539 362.286 53.1605C362.286 54.0672 362.084 54.8672 361.678 55.5605C361.284 56.2432 360.745 56.7712 360.062 57.1445C359.38 57.5179 358.622 57.7045 357.79 57.7045ZM357.79 56.4245C358.313 56.4245 358.804 56.3019 359.262 56.0565C359.721 55.8112 360.089 55.4432 360.366 54.9525C360.654 54.4619 360.798 53.8645 360.798 53.1605C360.798 52.4565 360.66 51.8592 360.382 51.3685C360.105 50.8779 359.742 50.5152 359.294 50.2805C358.846 50.0352 358.361 49.9125 357.838 49.9125C357.305 49.9125 356.814 50.0352 356.366 50.2805C355.929 50.5152 355.577 50.8779 355.31 51.3685C355.044 51.8592 354.91 52.4565 354.91 53.1605C354.91 53.8752 355.038 54.4779 355.294 54.9685C355.561 55.4592 355.913 55.8272 356.35 56.0725C356.788 56.3072 357.268 56.4245 357.79 56.4245ZM365.657 50.2165C365.913 49.7152 366.275 49.3259 366.745 49.0485C367.225 48.7712 367.806 48.6325 368.489 48.6325V50.1365H368.105C366.473 50.1365 365.657 51.0219 365.657 52.7925V57.5605H364.201V48.7925H365.657V50.2165ZM378.17 52.8405C378.17 53.1179 378.154 53.4112 378.122 53.7205H371.114C371.167 54.5845 371.46 55.2619 371.994 55.7525C372.538 56.2325 373.194 56.4725 373.962 56.4725C374.591 56.4725 375.114 56.3285 375.53 56.0405C375.956 55.7419 376.255 55.3472 376.426 54.8565H377.994C377.759 55.6992 377.29 56.3872 376.586 56.9205C375.882 57.4432 375.007 57.7045 373.962 57.7045C373.13 57.7045 372.383 57.5179 371.722 57.1445C371.071 56.7712 370.559 56.2432 370.186 55.5605C369.812 54.8672 369.626 54.0672 369.626 53.1605C369.626 52.2539 369.807 51.4592 370.17 50.7765C370.532 50.0939 371.039 49.5712 371.69 49.2085C372.351 48.8352 373.108 48.6485 373.962 48.6485C374.794 48.6485 375.53 48.8299 376.17 49.1925C376.81 49.5552 377.3 50.0565 377.642 50.6965C377.994 51.3259 378.17 52.0405 378.17 52.8405ZM376.666 52.5365C376.666 51.9819 376.543 51.5072 376.298 51.1125C376.052 50.7072 375.716 50.4032 375.29 50.2005C374.874 49.9872 374.41 49.8805 373.898 49.8805C373.162 49.8805 372.532 50.1152 372.01 50.5845C371.498 51.0539 371.204 51.7045 371.13 52.5365H376.666ZM379.547 53.1445C379.547 52.2485 379.729 51.4645 380.091 50.7925C380.454 50.1099 380.95 49.5819 381.579 49.2085C382.219 48.8352 382.934 48.6485 383.723 48.6485C384.406 48.6485 385.041 48.8085 385.627 49.1285C386.214 49.4379 386.662 49.8485 386.971 50.3605V45.7205H388.443V57.5605H386.971V55.9125C386.683 56.4352 386.257 56.8672 385.691 57.2085C385.126 57.5392 384.465 57.7045 383.707 57.7045C382.929 57.7045 382.219 57.5125 381.579 57.1285C380.95 56.7445 380.454 56.2059 380.091 55.5125C379.729 54.8192 379.547 54.0299 379.547 53.1445ZM386.971 53.1605C386.971 52.4992 386.838 51.9232 386.571 51.4325C386.305 50.9419 385.942 50.5685 385.483 50.3125C385.035 50.0459 384.539 49.9125 383.995 49.9125C383.451 49.9125 382.955 50.0405 382.507 50.2965C382.059 50.5525 381.702 50.9259 381.435 51.4165C381.169 51.9072 381.035 52.4832 381.035 53.1445C381.035 53.8165 381.169 54.4032 381.435 54.9045C381.702 55.3952 382.059 55.7739 382.507 56.0405C382.955 56.2965 383.451 56.4245 383.995 56.4245C384.539 56.4245 385.035 56.2965 385.483 56.0405C385.942 55.7739 386.305 55.3952 386.571 54.9045C386.838 54.4032 386.971 53.8219 386.971 53.1605ZM406.85 48.7925L404.114 57.5605H402.61L400.498 50.6005L398.386 57.5605H396.882L394.13 48.7925H395.618L397.634 56.1525L399.81 48.7925H401.298L403.426 56.1685L405.41 48.7925H406.85ZM412.647 48.6325C413.308 48.6325 413.905 48.7765 414.439 49.0645C414.972 49.3419 415.388 49.7632 415.687 50.3285C415.996 50.8939 416.151 51.5819 416.151 52.3925V57.5605H414.711V52.6005C414.711 51.7259 414.492 51.0592 414.055 50.6005C413.617 50.1312 413.02 49.8965 412.263 49.8965C411.495 49.8965 410.881 50.1365 410.423 50.6165C409.975 51.0965 409.751 51.7952 409.751 52.7125V57.5605H408.295V45.7205H409.751V50.0405C410.039 49.5925 410.433 49.2459 410.935 49.0005C411.447 48.7552 412.017 48.6325 412.647 48.6325ZM417.985 53.1445C417.985 52.2485 418.166 51.4645 418.529 50.7925C418.892 50.1099 419.388 49.5819 420.017 49.2085C420.657 48.8352 421.366 48.6485 422.145 48.6485C422.913 48.6485 423.58 48.8139 424.145 49.1445C424.71 49.4752 425.132 49.8912 425.409 50.3925V48.7925H426.881V57.5605H425.409V55.9285C425.121 56.4405 424.689 56.8672 424.113 57.2085C423.548 57.5392 422.886 57.7045 422.129 57.7045C421.35 57.7045 420.646 57.5125 420.017 57.1285C419.388 56.7445 418.892 56.2059 418.529 55.5125C418.166 54.8192 417.985 54.0299 417.985 53.1445ZM425.409 53.1605C425.409 52.4992 425.276 51.9232 425.009 51.4325C424.742 50.9419 424.38 50.5685 423.921 50.3125C423.473 50.0459 422.977 49.9125 422.433 49.9125C421.889 49.9125 421.393 50.0405 420.945 50.2965C420.497 50.5525 420.14 50.9259 419.873 51.4165C419.606 51.9072 419.473 52.4832 419.473 53.1445C419.473 53.8165 419.606 54.4032 419.873 54.9045C420.14 55.3952 420.497 55.7739 420.945 56.0405C421.393 56.2965 421.889 56.4245 422.433 56.4245C422.977 56.4245 423.473 56.2965 423.921 56.0405C424.38 55.7739 424.742 55.3952 425.009 54.9045C425.276 54.4032 425.409 53.8219 425.409 53.1605ZM431.117 49.9925V55.1605C431.117 55.5872 431.208 55.8912 431.389 56.0725C431.571 56.2432 431.885 56.3285 432.333 56.3285H433.405V57.5605H432.093C431.283 57.5605 430.675 57.3739 430.269 57.0005C429.864 56.6272 429.661 56.0139 429.661 55.1605V49.9925H428.525V48.7925H429.661V46.5845H431.117V48.7925H433.405V49.9925H431.117ZM451.115 48.7925L448.379 57.5605H446.875L444.763 50.6005L442.651 57.5605H441.147L438.395 48.7925H439.883L441.899 56.1525L444.075 48.7925H445.563L447.691 56.1685L449.675 48.7925H451.115ZM452.016 53.1445C452.016 52.2485 452.197 51.4645 452.56 50.7925C452.923 50.1099 453.419 49.5819 454.048 49.2085C454.688 48.8352 455.397 48.6485 456.176 48.6485C456.944 48.6485 457.611 48.8139 458.176 49.1445C458.741 49.4752 459.163 49.8912 459.44 50.3925V48.7925H460.912V57.5605H459.44V55.9285C459.152 56.4405 458.72 56.8672 458.144 57.2085C457.579 57.5392 456.917 57.7045 456.16 57.7045C455.381 57.7045 454.677 57.5125 454.048 57.1285C453.419 56.7445 452.923 56.2059 452.56 55.5125C452.197 54.8192 452.016 54.0299 452.016 53.1445ZM459.44 53.1605C459.44 52.4992 459.307 51.9232 459.04 51.4325C458.773 50.9419 458.411 50.5685 457.952 50.3125C457.504 50.0459 457.008 49.9125 456.464 49.9125C455.92 49.9125 455.424 50.0405 454.976 50.2965C454.528 50.5525 454.171 50.9259 453.904 51.4165C453.637 51.9072 453.504 52.4832 453.504 53.1445C453.504 53.8165 453.637 54.4032 453.904 54.9045C454.171 55.3952 454.528 55.7739 454.976 56.0405C455.424 56.2965 455.92 56.4245 456.464 56.4245C457.008 56.4245 457.504 56.2965 457.952 56.0405C458.411 55.7739 458.773 55.3952 459.04 54.9045C459.307 54.4032 459.44 53.8219 459.44 53.1605ZM466.477 57.7045C465.805 57.7045 465.202 57.5925 464.669 57.3685C464.135 57.1339 463.714 56.8139 463.405 56.4085C463.095 55.9925 462.925 55.5179 462.893 54.9845H464.397C464.439 55.4219 464.642 55.7792 465.005 56.0565C465.378 56.3339 465.863 56.4725 466.461 56.4725C467.015 56.4725 467.453 56.3499 467.773 56.1045C468.093 55.8592 468.253 55.5499 468.253 55.1765C468.253 54.7925 468.082 54.5099 467.741 54.3285C467.399 54.1365 466.871 53.9499 466.157 53.7685C465.506 53.5979 464.973 53.4272 464.557 53.2565C464.151 53.0752 463.799 52.8139 463.501 52.4725C463.213 52.1205 463.069 51.6619 463.069 51.0965C463.069 50.6485 463.202 50.2379 463.469 49.8645C463.735 49.4912 464.114 49.1979 464.605 48.9845C465.095 48.7605 465.655 48.6485 466.285 48.6485C467.255 48.6485 468.039 48.8939 468.637 49.3845C469.234 49.8752 469.554 50.5472 469.597 51.4005H468.141C468.109 50.9419 467.922 50.5739 467.581 50.2965C467.25 50.0192 466.802 49.8805 466.237 49.8805C465.714 49.8805 465.298 49.9925 464.989 50.2165C464.679 50.4405 464.525 50.7339 464.525 51.0965C464.525 51.3845 464.615 51.6245 464.797 51.8165C464.989 51.9979 465.223 52.1472 465.501 52.2645C465.789 52.3712 466.183 52.4939 466.685 52.6325C467.314 52.8032 467.826 52.9739 468.221 53.1445C468.615 53.3045 468.951 53.5499 469.229 53.8805C469.517 54.2112 469.666 54.6432 469.677 55.1765C469.677 55.6565 469.543 56.0885 469.277 56.4725C469.01 56.8565 468.631 57.1605 468.141 57.3845C467.661 57.5979 467.106 57.7045 466.477 57.7045ZM347.909 64.6325C348.591 64.6325 349.199 64.7765 349.733 65.0645C350.266 65.3419 350.687 65.7632 350.997 66.3285C351.306 66.8939 351.461 67.5819 351.461 68.3925V73.5605H350.021V68.6005C350.021 67.7259 349.802 67.0592 349.365 66.6005C348.938 66.1312 348.357 65.8965 347.621 65.8965C346.863 65.8965 346.261 66.1419 345.813 66.6325C345.365 67.1125 345.141 67.8112 345.141 68.7285V73.5605H343.701V68.6005C343.701 67.7259 343.482 67.0592 343.045 66.6005C342.618 66.1312 342.037 65.8965 341.301 65.8965C340.543 65.8965 339.941 66.1419 339.493 66.6325C339.045 67.1125 338.821 67.8112 338.821 68.7285V73.5605H337.365V64.7925H338.821V66.0565C339.109 65.5979 339.493 65.2459 339.973 65.0005C340.463 64.7552 341.002 64.6325 341.589 64.6325C342.325 64.6325 342.975 64.7979 343.541 65.1285C344.106 65.4592 344.527 65.9445 344.805 66.5845C345.05 65.9659 345.455 65.4859 346.021 65.1445C346.586 64.8032 347.215 64.6325 347.909 64.6325ZM361.401 64.7925L356.121 77.6885H354.617L356.345 73.4645L352.809 64.7925H354.425L357.177 71.8965L359.897 64.7925H361.401ZM377.674 64.6325C378.357 64.6325 378.965 64.7765 379.498 65.0645C380.032 65.3419 380.453 65.7632 380.762 66.3285C381.072 66.8939 381.226 67.5819 381.226 68.3925V73.5605H379.786V68.6005C379.786 67.7259 379.568 67.0592 379.13 66.6005C378.704 66.1312 378.122 65.8965 377.386 65.8965C376.629 65.8965 376.026 66.1419 375.578 66.6325C375.13 67.1125 374.906 67.8112 374.906 68.7285V73.5605H373.466V68.6005C373.466 67.7259 373.248 67.0592 372.81 66.6005C372.384 66.1312 371.802 65.8965 371.066 65.8965C370.309 65.8965 369.706 66.1419 369.258 66.6325C368.81 67.1125 368.586 67.8112 368.586 68.7285V73.5605H367.13V64.7925H368.586V66.0565C368.874 65.5979 369.258 65.2459 369.738 65.0005C370.229 64.7552 370.768 64.6325 371.354 64.6325C372.09 64.6325 372.741 64.7979 373.306 65.1285C373.872 65.4592 374.293 65.9445 374.57 66.5845C374.816 65.9659 375.221 65.4859 375.786 65.1445C376.352 64.8032 376.981 64.6325 377.674 64.6325ZM387.439 73.7045C386.617 73.7045 385.871 73.5179 385.199 73.1445C384.537 72.7712 384.015 72.2432 383.631 71.5605C383.257 70.8672 383.071 70.0672 383.071 69.1605C383.071 68.2645 383.263 67.4752 383.647 66.7925C384.041 66.0992 384.575 65.5712 385.247 65.2085C385.919 64.8352 386.671 64.6485 387.503 64.6485C388.335 64.6485 389.087 64.8352 389.759 65.2085C390.431 65.5712 390.959 66.0939 391.343 66.7765C391.737 67.4592 391.935 68.2539 391.935 69.1605C391.935 70.0672 391.732 70.8672 391.327 71.5605C390.932 72.2432 390.393 72.7712 389.711 73.1445C389.028 73.5179 388.271 73.7045 387.439 73.7045ZM387.439 72.4245C387.961 72.4245 388.452 72.3019 388.911 72.0565C389.369 71.8112 389.737 71.4432 390.015 70.9525C390.303 70.4619 390.447 69.8645 390.447 69.1605C390.447 68.4565 390.308 67.8592 390.031 67.3685C389.753 66.8779 389.391 66.5152 388.943 66.2805C388.495 66.0352 388.009 65.9125 387.487 65.9125C386.953 65.9125 386.463 66.0352 386.015 66.2805C385.577 66.5152 385.225 66.8779 384.959 67.3685C384.692 67.8592 384.559 68.4565 384.559 69.1605C384.559 69.8752 384.687 70.4779 384.943 70.9685C385.209 71.4592 385.561 71.8272 385.999 72.0725C386.436 72.3072 386.916 72.4245 387.439 72.4245ZM395.625 65.9925V71.1605C395.625 71.5872 395.716 71.8912 395.897 72.0725C396.079 72.2432 396.393 72.3285 396.841 72.3285H397.913V73.5605H396.601C395.791 73.5605 395.183 73.3739 394.777 73.0005C394.372 72.6272 394.169 72.0139 394.169 71.1605V65.9925H393.033V64.7925H394.169V62.5845H395.625V64.7925H397.913V65.9925H395.625ZM400.429 63.3685C400.152 63.3685 399.917 63.2725 399.725 63.0805C399.533 62.8885 399.437 62.6539 399.437 62.3765C399.437 62.0992 399.533 61.8645 399.725 61.6725C399.917 61.4805 400.152 61.3845 400.429 61.3845C400.696 61.3845 400.92 61.4805 401.101 61.6725C401.293 61.8645 401.389 62.0992 401.389 62.3765C401.389 62.6539 401.293 62.8885 401.101 63.0805C400.92 63.2725 400.696 63.3685 400.429 63.3685ZM401.133 64.7925V73.5605H399.677V64.7925H401.133ZM406.879 72.2165L409.599 64.7925H411.151L407.711 73.5605H406.015L402.575 64.7925H404.143L406.879 72.2165ZM412.04 69.1445C412.04 68.2485 412.221 67.4645 412.584 66.7925C412.946 66.1099 413.442 65.5819 414.072 65.2085C414.712 64.8352 415.421 64.6485 416.2 64.6485C416.968 64.6485 417.634 64.8139 418.2 65.1445C418.765 65.4752 419.186 65.8912 419.464 66.3925V64.7925H420.936V73.5605H419.464V71.9285C419.176 72.4405 418.744 72.8672 418.168 73.2085C417.602 73.5392 416.941 73.7045 416.184 73.7045C415.405 73.7045 414.701 73.5125 414.072 73.1285C413.442 72.7445 412.946 72.2059 412.584 71.5125C412.221 70.8192 412.04 70.0299 412.04 69.1445ZM419.464 69.1605C419.464 68.4992 419.33 67.9232 419.064 67.4325C418.797 66.9419 418.434 66.5685 417.976 66.3125C417.528 66.0459 417.032 65.9125 416.488 65.9125C415.944 65.9125 415.448 66.0405 415 66.2965C414.552 66.5525 414.194 66.9259 413.928 67.4165C413.661 67.9072 413.528 68.4832 413.528 69.1445C413.528 69.8165 413.661 70.4032 413.928 70.9045C414.194 71.3952 414.552 71.7739 415 72.0405C415.448 72.2965 415.944 72.4245 416.488 72.4245C417.032 72.4245 417.528 72.2965 417.976 72.0405C418.434 71.7739 418.797 71.3952 419.064 70.9045C419.33 70.4032 419.464 69.8219 419.464 69.1605ZM425.172 65.9925V71.1605C425.172 71.5872 425.263 71.8912 425.444 72.0725C425.625 72.2432 425.94 72.3285 426.388 72.3285H427.46V73.5605H426.148C425.337 73.5605 424.729 73.3739 424.324 73.0005C423.919 72.6272 423.716 72.0139 423.716 71.1605V65.9925H422.58V64.7925H423.716V62.5845H425.172V64.7925H427.46V65.9925H425.172ZM429.976 63.3685C429.699 63.3685 429.464 63.2725 429.272 63.0805C429.08 62.8885 428.984 62.6539 428.984 62.3765C428.984 62.0992 429.08 61.8645 429.272 61.6725C429.464 61.4805 429.699 61.3845 429.976 61.3845C430.243 61.3845 430.467 61.4805 430.648 61.6725C430.84 61.8645 430.936 62.0992 430.936 62.3765C430.936 62.6539 430.84 62.8885 430.648 63.0805C430.467 63.2725 430.243 63.3685 429.976 63.3685ZM430.68 64.7925V73.5605H429.224V64.7925H430.68ZM436.986 73.7045C436.164 73.7045 435.418 73.5179 434.746 73.1445C434.084 72.7712 433.562 72.2432 433.178 71.5605C432.804 70.8672 432.618 70.0672 432.618 69.1605C432.618 68.2645 432.81 67.4752 433.194 66.7925C433.588 66.0992 434.122 65.5712 434.794 65.2085C435.466 64.8352 436.218 64.6485 437.05 64.6485C437.882 64.6485 438.634 64.8352 439.306 65.2085C439.978 65.5712 440.506 66.0939 440.89 66.7765C441.284 67.4592 441.482 68.2539 441.482 69.1605C441.482 70.0672 441.279 70.8672 440.874 71.5605C440.479 72.2432 439.94 72.7712 439.258 73.1445C438.575 73.5179 437.818 73.7045 436.986 73.7045ZM436.986 72.4245C437.508 72.4245 437.999 72.3019 438.458 72.0565C438.916 71.8112 439.284 71.4432 439.562 70.9525C439.85 70.4619 439.994 69.8645 439.994 69.1605C439.994 68.4565 439.855 67.8592 439.578 67.3685C439.3 66.8779 438.938 66.5152 438.49 66.2805C438.042 66.0352 437.556 65.9125 437.034 65.9125C436.5 65.9125 436.01 66.0352 435.562 66.2805C435.124 66.5152 434.772 66.8779 434.506 67.3685C434.239 67.8592 434.106 68.4565 434.106 69.1605C434.106 69.8752 434.234 70.4779 434.49 70.9685C434.756 71.4592 435.108 71.8272 435.546 72.0725C435.983 72.3072 436.463 72.4245 436.986 72.4245ZM447.668 64.6325C448.735 64.6325 449.599 64.9579 450.26 65.6085C450.921 66.2485 451.252 67.1765 451.252 68.3925V73.5605H449.812V68.6005C449.812 67.7259 449.593 67.0592 449.156 66.6005C448.719 66.1312 448.121 65.8965 447.364 65.8965C446.596 65.8965 445.983 66.1365 445.524 66.6165C445.076 67.0965 444.852 67.7952 444.852 68.7125V73.5605H443.396V64.7925H444.852V66.0405C445.14 65.5925 445.529 65.2459 446.02 65.0005C446.521 64.7552 447.071 64.6325 447.668 64.6325ZM456.734 73.7045C456.062 73.7045 455.46 73.5925 454.926 73.3685C454.393 73.1339 453.972 72.8139 453.662 72.4085C453.353 71.9925 453.182 71.5179 453.15 70.9845H454.654C454.697 71.4219 454.9 71.7792 455.262 72.0565C455.636 72.3339 456.121 72.4725 456.718 72.4725C457.273 72.4725 457.71 72.3499 458.03 72.1045C458.35 71.8592 458.51 71.5499 458.51 71.1765C458.51 70.7925 458.34 70.5099 457.998 70.3285C457.657 70.1365 457.129 69.9499 456.414 69.7685C455.764 69.5979 455.23 69.4272 454.814 69.2565C454.409 69.0752 454.057 68.8139 453.758 68.4725C453.47 68.1205 453.326 67.6619 453.326 67.0965C453.326 66.6485 453.46 66.2379 453.726 65.8645C453.993 65.4912 454.372 65.1979 454.862 64.9845C455.353 64.7605 455.913 64.6485 456.542 64.6485C457.513 64.6485 458.297 64.8939 458.894 65.3845C459.492 65.8752 459.812 66.5472 459.854 67.4005H458.398C458.366 66.9419 458.18 66.5739 457.838 66.2965C457.508 66.0192 457.06 65.8805 456.494 65.8805C455.972 65.8805 455.556 65.9925 455.246 66.2165C454.937 66.4405 454.782 66.7339 454.782 67.0965C454.782 67.3845 454.873 67.6245 455.054 67.8165C455.246 67.9979 455.481 68.1472 455.758 68.2645C456.046 68.3712 456.441 68.4939 456.942 68.6325C457.572 68.8032 458.084 68.9739 458.478 69.1445C458.873 69.3045 459.209 69.5499 459.486 69.8805C459.774 70.2112 459.924 70.6432 459.934 71.1765C459.934 71.6565 459.801 72.0885 459.534 72.4725C459.268 72.8565 458.889 73.1605 458.398 73.3845C457.918 73.5979 457.364 73.7045 456.734 73.7045Z" fill="black"/>
<path d="M606.566 59.5605C606.566 55.1423 602.985 51.5605 598.566 51.5605C594.148 51.5605 590.566 55.1423 590.566 59.5605C590.566 63.9788 594.148 67.5605 598.566 67.5605C602.985 67.5605 606.566 63.9788 606.566 59.5605ZM519.449 59.5605C519.449 55.1423 515.867 51.5605 511.449 51.5605C507.031 51.5605 503.449 55.1423 503.449 59.5605C503.449 63.9788 507.031 67.5605 511.449 67.5605C515.867 67.5605 519.449 63.9788 519.449 59.5605ZM598.566 58.0605L511.449 58.0605L511.449 61.0605L598.566 61.0605L598.566 58.0605Z" fill="black"/>
<path d="M719.519 117.971C718.997 113.584 715.017 110.451 710.629 110.973C706.242 111.495 703.109 115.475 703.631 119.862C704.153 124.249 708.133 127.383 712.52 126.861C716.907 126.339 720.041 122.359 719.519 117.971ZM120.999 189.2C120.477 184.813 116.497 181.679 112.11 182.201C107.722 182.723 104.589 186.703 105.111 191.091C105.633 195.478 109.613 198.611 114.001 198.089C118.388 197.567 121.521 193.587 120.999 189.2ZM113.055 154.531L113.055 153.031L111.555 153.031L111.555 154.531L113.055 154.531ZM711.572 154.531L711.572 156.031L713.072 156.031L713.072 154.531L711.572 154.531ZM111.555 154.531L111.555 190.145L114.555 190.145L114.555 154.531L111.555 154.531ZM710.075 118.917L710.072 154.531L713.072 154.531L713.075 118.917L710.075 118.917ZM711.572 153.031L113.055 153.031L113.055 156.031L711.572 156.031L711.572 153.031Z" fill="black"/>
<path d="M681.338 65.5566L678.682 60.9966H676.922V65.5566H675.466V54.4046H679.066C679.909 54.4046 680.618 54.5486 681.194 54.8366C681.781 55.1246 682.218 55.514 682.506 56.0046C682.794 56.4953 682.938 57.0553 682.938 57.6846C682.938 58.4526 682.714 59.13 682.266 59.7166C681.829 60.3033 681.168 60.6926 680.282 60.8846L683.082 65.5566H681.338ZM676.922 59.8286H679.066C679.856 59.8286 680.448 59.6366 680.842 59.2526C681.237 58.858 681.434 58.3353 681.434 57.6846C681.434 57.0233 681.237 56.5113 680.842 56.1486C680.458 55.786 679.866 55.6046 679.066 55.6046H676.922V59.8286ZM693.201 60.8366C693.201 61.114 693.185 61.4073 693.153 61.7166H686.145C686.198 62.5806 686.491 63.258 687.025 63.7486C687.569 64.2286 688.225 64.4686 688.993 64.4686C689.622 64.4686 690.145 64.3246 690.561 64.0366C690.987 63.738 691.286 63.3433 691.457 62.8526H693.025C692.79 63.6953 692.321 64.3833 691.617 64.9166C690.913 65.4393 690.038 65.7006 688.993 65.7006C688.161 65.7006 687.414 65.514 686.753 65.1406C686.102 64.7673 685.59 64.2393 685.217 63.5566C684.843 62.8633 684.657 62.0633 684.657 61.1566C684.657 60.25 684.838 59.4553 685.201 58.7726C685.563 58.09 686.07 57.5673 686.721 57.2046C687.382 56.8313 688.139 56.6446 688.993 56.6446C689.825 56.6446 690.561 56.826 691.201 57.1886C691.841 57.5513 692.331 58.0526 692.673 58.6926C693.025 59.322 693.201 60.0366 693.201 60.8366ZM691.697 60.5326C691.697 59.978 691.574 59.5033 691.329 59.1086C691.083 58.7033 690.747 58.3993 690.321 58.1966C689.905 57.9833 689.441 57.8766 688.929 57.8766C688.193 57.8766 687.563 58.1113 687.041 58.5806C686.529 59.05 686.235 59.7006 686.161 60.5326H691.697ZM698.227 65.7006C697.555 65.7006 696.952 65.5886 696.419 65.3646C695.885 65.13 695.464 64.81 695.155 64.4046C694.845 63.9886 694.675 63.514 694.643 62.9806H696.147C696.189 63.418 696.392 63.7753 696.755 64.0526C697.128 64.33 697.613 64.4686 698.211 64.4686C698.765 64.4686 699.203 64.346 699.523 64.1006C699.843 63.8553 700.003 63.546 700.003 63.1726C700.003 62.7886 699.832 62.506 699.491 62.3246C699.149 62.1326 698.621 61.946 697.907 61.7646C697.256 61.594 696.723 61.4233 696.307 61.2526C695.901 61.0713 695.549 60.81 695.251 60.4686C694.963 60.1166 694.819 59.658 694.819 59.0926C694.819 58.6446 694.952 58.234 695.219 57.8606C695.485 57.4873 695.864 57.194 696.355 56.9806C696.845 56.7566 697.405 56.6446 698.035 56.6446C699.005 56.6446 699.789 56.89 700.387 57.3806C700.984 57.8713 701.304 58.5433 701.347 59.3966H699.891C699.859 58.938 699.672 58.57 699.331 58.2926C699 58.0153 698.552 57.8766 697.987 57.8766C697.464 57.8766 697.048 57.9886 696.739 58.2126C696.429 58.4366 696.275 58.73 696.275 59.0926C696.275 59.3806 696.365 59.6206 696.547 59.8126C696.739 59.994 696.973 60.1433 697.251 60.2606C697.539 60.3673 697.933 60.49 698.435 60.6286C699.064 60.7993 699.576 60.97 699.971 61.1406C700.365 61.3006 700.701 61.546 700.979 61.8766C701.267 62.2073 701.416 62.6393 701.427 63.1726C701.427 63.6526 701.293 64.0846 701.027 64.4686C700.76 64.8526 700.381 65.1566 699.891 65.3806C699.411 65.594 698.856 65.7006 698.227 65.7006ZM711.482 60.8366C711.482 61.114 711.466 61.4073 711.434 61.7166H704.426C704.479 62.5806 704.773 63.258 705.306 63.7486C705.85 64.2286 706.506 64.4686 707.274 64.4686C707.903 64.4686 708.426 64.3246 708.842 64.0366C709.269 63.738 709.567 63.3433 709.738 62.8526H711.306C711.071 63.6953 710.602 64.3833 709.898 64.9166C709.194 65.4393 708.319 65.7006 707.274 65.7006C706.442 65.7006 705.695 65.514 705.034 65.1406C704.383 64.7673 703.871 64.2393 703.498 63.5566C703.125 62.8633 702.938 62.0633 702.938 61.1566C702.938 60.25 703.119 59.4553 703.482 58.7726C703.845 58.09 704.351 57.5673 705.002 57.2046C705.663 56.8313 706.421 56.6446 707.274 56.6446C708.106 56.6446 708.842 56.826 709.482 57.1886C710.122 57.5513 710.613 58.0526 710.954 58.6926C711.306 59.322 711.482 60.0366 711.482 60.8366ZM709.978 60.5326C709.978 59.978 709.855 59.5033 709.61 59.1086C709.365 58.7033 709.029 58.3993 708.602 58.1966C708.186 57.9833 707.722 57.8766 707.21 57.8766C706.474 57.8766 705.845 58.1113 705.322 58.5806C704.81 59.05 704.517 59.7006 704.442 60.5326H709.978ZM712.86 61.1406C712.86 60.2446 713.041 59.4606 713.404 58.7886C713.767 58.106 714.263 57.578 714.892 57.2046C715.532 56.8313 716.241 56.6446 717.02 56.6446C717.788 56.6446 718.455 56.81 719.02 57.1406C719.585 57.4713 720.007 57.8873 720.284 58.3886V56.7886H721.756V65.5566H720.284V63.9246C719.996 64.4366 719.564 64.8633 718.988 65.2046C718.423 65.5353 717.761 65.7006 717.004 65.7006C716.225 65.7006 715.521 65.5086 714.892 65.1246C714.263 64.7406 713.767 64.202 713.404 63.5086C713.041 62.8153 712.86 62.026 712.86 61.1406ZM720.284 61.1566C720.284 60.4953 720.151 59.9193 719.884 59.4286C719.617 58.938 719.255 58.5646 718.796 58.3086C718.348 58.042 717.852 57.9086 717.308 57.9086C716.764 57.9086 716.268 58.0366 715.82 58.2926C715.372 58.5486 715.015 58.922 714.748 59.4126C714.481 59.9033 714.348 60.4793 714.348 61.1406C714.348 61.8126 714.481 62.3993 714.748 62.9006C715.015 63.3913 715.372 63.77 715.82 64.0366C716.268 64.2926 716.764 64.4206 717.308 64.4206C717.852 64.4206 718.348 64.2926 718.796 64.0366C719.255 63.77 719.617 63.3913 719.884 62.9006C720.151 62.3993 720.284 61.818 720.284 61.1566ZM725.672 58.2126C725.928 57.7113 726.291 57.322 726.76 57.0446C727.24 56.7673 727.822 56.6286 728.504 56.6286V58.1326H728.12C726.488 58.1326 725.672 59.018 725.672 60.7886V65.5566H724.216V56.7886H725.672V58.2126ZM729.641 61.1566C729.641 60.25 729.822 59.4606 730.185 58.7886C730.548 58.106 731.049 57.578 731.689 57.2046C732.34 56.8313 733.081 56.6446 733.913 56.6446C734.99 56.6446 735.876 56.906 736.569 57.4286C737.273 57.9513 737.737 58.6766 737.961 59.6046H736.393C736.244 59.0713 735.95 58.65 735.513 58.3406C735.086 58.0313 734.553 57.8766 733.913 57.8766C733.081 57.8766 732.409 58.1646 731.897 58.7406C731.385 59.306 731.129 60.1113 731.129 61.1566C731.129 62.2126 731.385 63.0286 731.897 63.6046C732.409 64.1806 733.081 64.4686 733.913 64.4686C734.553 64.4686 735.086 64.3193 735.513 64.0206C735.94 63.722 736.233 63.2953 736.393 62.7406H737.961C737.726 63.6366 737.257 64.3566 736.553 64.9006C735.849 65.434 734.969 65.7006 733.913 65.7006C733.081 65.7006 732.34 65.514 731.689 65.1406C731.049 64.7673 730.548 64.2393 730.185 63.5566C729.822 62.874 729.641 62.074 729.641 61.1566ZM744.256 56.6286C744.917 56.6286 745.515 56.7726 746.048 57.0606C746.581 57.338 746.997 57.7593 747.296 58.3246C747.605 58.89 747.76 59.578 747.76 60.3886V65.5566H746.32V60.5966C746.32 59.722 746.101 59.0553 745.664 58.5966C745.227 58.1273 744.629 57.8926 743.872 57.8926C743.104 57.8926 742.491 58.1326 742.032 58.6126C741.584 59.0926 741.36 59.7913 741.36 60.7086V65.5566H739.904V53.7166H741.36V58.0366C741.648 57.5886 742.043 57.242 742.544 56.9966C743.056 56.7513 743.627 56.6286 744.256 56.6286Z" fill="black"/>
<path d="M64.1919 57.6784C64.1919 58.6064 63.8719 59.3797 63.2319 59.9984C62.6026 60.6064 61.6372 60.9104 60.3359 60.9104H58.1919V65.5664H56.7359V54.4144H60.3359C61.5946 54.4144 62.5492 54.7184 63.1999 55.3264C63.8612 55.9344 64.1919 56.7184 64.1919 57.6784ZM60.3359 59.7104C61.1466 59.7104 61.7439 59.5344 62.1279 59.1824C62.5119 58.8304 62.7039 58.3291 62.7039 57.6784C62.7039 56.3024 61.9146 55.6144 60.3359 55.6144H58.1919V59.7104H60.3359ZM71.8735 65.5664L69.2175 61.0064H67.4575V65.5664H66.0015V54.4144H69.6015C70.4442 54.4144 71.1535 54.5584 71.7295 54.8464C72.3162 55.1344 72.7535 55.5237 73.0415 56.0144C73.3295 56.5051 73.4735 57.0651 73.4735 57.6944C73.4735 58.4624 73.2495 59.1397 72.8015 59.7264C72.3642 60.3131 71.7029 60.7024 70.8175 60.8944L73.6175 65.5664H71.8735ZM67.4575 59.8384H69.6015C70.3909 59.8384 70.9829 59.6464 71.3775 59.2624C71.7722 58.8677 71.9695 58.3451 71.9695 57.6944C71.9695 57.0331 71.7722 56.5211 71.3775 56.1584C70.9935 55.7957 70.4015 55.6144 69.6015 55.6144H67.4575V59.8384ZM80.7919 65.6784C79.7572 65.6784 78.8132 65.4384 77.9599 64.9584C77.1066 64.4677 76.4292 63.7904 75.9279 62.9264C75.4372 62.0517 75.1919 61.0704 75.1919 59.9824C75.1919 58.8944 75.4372 57.9184 75.9279 57.0544C76.4292 56.1797 77.1066 55.5024 77.9599 55.0224C78.8132 54.5317 79.7572 54.2864 80.7919 54.2864C81.8372 54.2864 82.7866 54.5317 83.6399 55.0224C84.4932 55.5024 85.1652 56.1744 85.6559 57.0384C86.1466 57.9024 86.3919 58.8837 86.3919 59.9824C86.3919 61.0811 86.1466 62.0624 85.6559 62.9264C85.1652 63.7904 84.4932 64.4677 83.6399 64.9584C82.7866 65.4384 81.8372 65.6784 80.7919 65.6784ZM80.7919 64.4144C81.5706 64.4144 82.2692 64.2331 82.8879 63.8704C83.5172 63.5077 84.0079 62.9904 84.3599 62.3184C84.7226 61.6464 84.9039 60.8677 84.9039 59.9824C84.9039 59.0864 84.7226 58.3077 84.3599 57.6464C84.0079 56.9744 83.5226 56.4571 82.9039 56.0944C82.2852 55.7317 81.5812 55.5504 80.7919 55.5504C80.0026 55.5504 79.2986 55.7317 78.6799 56.0944C78.0612 56.4571 77.5706 56.9744 77.2079 57.6464C76.8559 58.3077 76.6799 59.0864 76.6799 59.9824C76.6799 60.8677 76.8559 61.6464 77.2079 62.3184C77.5706 62.9904 78.0612 63.5077 78.6799 63.8704C79.3092 64.2331 80.0132 64.4144 80.7919 64.4144ZM93.93 54.4144V62.6544C93.93 63.5717 93.6474 64.3077 93.082 64.8624C92.5167 65.4064 91.77 65.6784 90.842 65.6784C89.9034 65.6784 89.1514 65.4011 88.586 64.8464C88.0207 64.2811 87.738 63.5131 87.738 62.5424H89.194C89.2047 63.0864 89.3434 63.5291 89.61 63.8704C89.8874 64.2117 90.298 64.3824 90.842 64.3824C91.386 64.3824 91.7914 64.2224 92.058 63.9024C92.3247 63.5717 92.458 63.1557 92.458 62.6544V54.4144H93.93ZM98.2544 55.5984V59.3264H102.318V60.5264H98.2544V64.3664H102.798V65.5664H96.7984V54.3984H102.798V55.5984H98.2544ZM104.458 59.9824C104.458 58.8944 104.703 57.9184 105.194 57.0544C105.684 56.1797 106.351 55.4971 107.194 55.0064C108.047 54.5157 108.991 54.2704 110.026 54.2704C111.242 54.2704 112.303 54.5637 113.21 55.1504C114.116 55.7371 114.778 56.5691 115.194 57.6464H113.45C113.14 56.9744 112.692 56.4571 112.106 56.0944C111.53 55.7317 110.836 55.5504 110.026 55.5504C109.247 55.5504 108.548 55.7317 107.93 56.0944C107.311 56.4571 106.826 56.9744 106.474 57.6464C106.122 58.3077 105.946 59.0864 105.946 59.9824C105.946 60.8677 106.122 61.6464 106.474 62.3184C106.826 62.9797 107.311 63.4917 107.93 63.8544C108.548 64.2171 109.247 64.3984 110.026 64.3984C110.836 64.3984 111.53 64.2224 112.106 63.8704C112.692 63.5077 113.14 62.9904 113.45 62.3184H115.194C114.778 63.3851 114.116 64.2117 113.21 64.7984C112.303 65.3744 111.242 65.6624 110.026 65.6624C108.991 65.6624 108.047 65.4224 107.194 64.9424C106.351 64.4517 105.684 63.7744 105.194 62.9104C104.703 62.0464 104.458 61.0704 104.458 59.9824ZM124.225 54.4144V55.5984H121.185V65.5664H119.729V55.5984H116.673V54.4144H124.225ZM136.875 63.0864H132.011L131.115 65.5664H129.579L133.611 54.4784H135.291L139.307 65.5664H137.771L136.875 63.0864ZM136.459 61.9024L134.443 56.2704L132.427 61.9024H136.459ZM144.6 65.6784C143.864 65.6784 143.203 65.5504 142.616 65.2944C142.04 65.0277 141.587 64.6651 141.256 64.2064C140.925 63.7371 140.755 63.1984 140.744 62.5904H142.296C142.349 63.1131 142.563 63.5557 142.936 63.9184C143.32 64.2704 143.875 64.4464 144.6 64.4464C145.293 64.4464 145.837 64.2757 146.232 63.9344C146.637 63.5824 146.84 63.1344 146.84 62.5904C146.84 62.1637 146.723 61.8171 146.488 61.5504C146.253 61.2837 145.96 61.0811 145.608 60.9424C145.256 60.8037 144.781 60.6544 144.184 60.4944C143.448 60.3024 142.856 60.1104 142.408 59.9184C141.971 59.7264 141.592 59.4277 141.272 59.0224C140.963 58.6064 140.808 58.0517 140.808 57.3584C140.808 56.7504 140.963 56.2117 141.272 55.7424C141.581 55.2731 142.013 54.9104 142.568 54.6544C143.133 54.3984 143.779 54.2704 144.504 54.2704C145.549 54.2704 146.403 54.5317 147.064 55.0544C147.736 55.5771 148.115 56.2704 148.2 57.1344H146.6C146.547 56.7077 146.323 56.3344 145.928 56.0144C145.533 55.6837 145.011 55.5184 144.36 55.5184C143.752 55.5184 143.256 55.6784 142.872 55.9984C142.488 56.3077 142.296 56.7451 142.296 57.3104C142.296 57.7157 142.408 58.0464 142.632 58.3024C142.867 58.5584 143.149 58.7557 143.48 58.8944C143.821 59.0224 144.296 59.1717 144.904 59.3424C145.64 59.5451 146.232 59.7477 146.68 59.9504C147.128 60.1424 147.512 60.4464 147.832 60.8624C148.152 61.2677 148.312 61.8224 148.312 62.5264C148.312 63.0704 148.168 63.5824 147.88 64.0624C147.592 64.5424 147.165 64.9317 146.6 65.2304C146.035 65.5291 145.368 65.6784 144.6 65.6784ZM156.503 65.5664L151.911 60.4784V65.5664H150.455V54.4144H151.911V59.5824L156.519 54.4144H158.359L153.303 59.9984L158.407 65.5664H156.503ZM163.569 65.6784C162.833 65.6784 162.171 65.5504 161.585 65.2944C161.009 65.0277 160.555 64.6651 160.225 64.2064C159.894 63.7371 159.723 63.1984 159.713 62.5904H161.265C161.318 63.1131 161.531 63.5557 161.905 63.9184C162.289 64.2704 162.843 64.4464 163.569 64.4464C164.262 64.4464 164.806 64.2757 165.201 63.9344C165.606 63.5824 165.809 63.1344 165.809 62.5904C165.809 62.1637 165.691 61.8171 165.457 61.5504C165.222 61.2837 164.929 61.0811 164.577 60.9424C164.225 60.8037 163.75 60.6544 163.153 60.4944C162.417 60.3024 161.825 60.1104 161.377 59.9184C160.939 59.7264 160.561 59.4277 160.241 59.0224C159.931 58.6064 159.777 58.0517 159.777 57.3584C159.777 56.7504 159.931 56.2117 160.241 55.7424C160.55 55.2731 160.982 54.9104 161.537 54.6544C162.102 54.3984 162.747 54.2704 163.473 54.2704C164.518 54.2704 165.371 54.5317 166.033 55.0544C166.705 55.5771 167.083 56.2704 167.169 57.1344H165.569C165.515 56.7077 165.291 56.3344 164.897 56.0144C164.502 55.6837 163.979 55.5184 163.329 55.5184C162.721 55.5184 162.225 55.6784 161.841 55.9984C161.457 56.3077 161.265 56.7451 161.265 57.3104C161.265 57.7157 161.377 58.0464 161.601 58.3024C161.835 58.5584 162.118 58.7557 162.449 58.8944C162.79 59.0224 163.265 59.1717 163.873 59.3424C164.609 59.5451 165.201 59.7477 165.649 59.9504C166.097 60.1424 166.481 60.4464 166.801 60.8624C167.121 61.2677 167.281 61.8224 167.281 62.5264C167.281 63.0704 167.137 63.5824 166.849 64.0624C166.561 64.5424 166.134 64.9317 165.569 65.2304C165.003 65.5291 164.337 65.6784 163.569 65.6784ZM169.887 65.6624C169.61 65.6624 169.375 65.5664 169.183 65.3744C168.991 65.1824 168.895 64.9477 168.895 64.6704C168.895 64.3931 168.991 64.1584 169.183 63.9664C169.375 63.7744 169.61 63.6784 169.887 63.6784C170.154 63.6784 170.378 63.7744 170.559 63.9664C170.751 64.1584 170.847 64.3931 170.847 64.6704C170.847 64.9477 170.751 65.1824 170.559 65.3744C170.378 65.5664 170.154 65.6624 169.887 65.6624ZM169.887 58.8144C169.61 58.8144 169.375 58.7184 169.183 58.5264C168.991 58.3344 168.895 58.0997 168.895 57.8224C168.895 57.5451 168.991 57.3104 169.183 57.1184C169.375 56.9264 169.61 56.8304 169.887 56.8304C170.154 56.8304 170.378 56.9264 170.559 57.1184C170.751 57.3104 170.847 57.5451 170.847 57.8224C170.847 58.0997 170.751 58.3344 170.559 58.5264C170.378 58.7184 170.154 58.8144 169.887 58.8144Z" fill="black"/>
<rect x="0.0507812" y="190.145" width="226" height="118.702" rx="59.3509" fill="#F5F5F5"/>
<rect x="285.445" y="190.145" width="226" height="118.702" rx="59.3509" fill="#F5F5F5"/>
<rect x="598.562" y="190.145" width="225" height="118.702" rx="59.3509" fill="#0078FC"/>
<path d="M658.881 260.994V237.721H666.744C668.563 237.721 670.055 238.032 671.222 238.653C672.388 239.267 673.252 240.112 673.812 241.187C674.373 242.263 674.653 243.487 674.653 244.858C674.653 246.229 674.373 247.445 673.812 248.506C673.252 249.566 672.392 250.399 671.233 251.006C670.074 251.604 668.593 251.903 666.79 251.903H660.426V249.358H666.699C667.941 249.358 668.941 249.176 669.699 248.812C670.464 248.449 671.017 247.934 671.358 247.267C671.706 246.593 671.881 245.79 671.881 244.858C671.881 243.926 671.706 243.112 671.358 242.415C671.009 241.718 670.453 241.18 669.688 240.801C668.922 240.415 667.911 240.221 666.653 240.221H661.699V260.994H658.881ZM669.835 250.54L675.562 260.994H672.29L666.653 250.54H669.835ZM686.116 261.358C684.435 261.358 682.984 260.987 681.764 260.244C680.552 259.494 679.616 258.449 678.957 257.108C678.306 255.759 677.98 254.191 677.98 252.403C677.98 250.615 678.306 249.04 678.957 247.676C679.616 246.305 680.533 245.237 681.707 244.471C682.889 243.699 684.268 243.312 685.844 243.312C686.753 243.312 687.651 243.464 688.537 243.767C689.423 244.07 690.23 244.562 690.957 245.244C691.685 245.918 692.264 246.812 692.696 247.926C693.128 249.04 693.344 250.411 693.344 252.04V253.176H679.889V250.858H690.616C690.616 249.873 690.42 248.994 690.026 248.221C689.639 247.449 689.086 246.839 688.366 246.392C687.654 245.945 686.813 245.721 685.844 245.721C684.776 245.721 683.851 245.987 683.071 246.517C682.298 247.04 681.704 247.721 681.287 248.562C680.87 249.403 680.662 250.305 680.662 251.267V252.812C680.662 254.131 680.889 255.248 681.344 256.165C681.806 257.074 682.446 257.767 683.264 258.244C684.082 258.714 685.033 258.949 686.116 258.949C686.821 258.949 687.457 258.85 688.026 258.653C688.601 258.449 689.098 258.146 689.514 257.744C689.931 257.335 690.253 256.827 690.48 256.221L693.071 256.949C692.798 257.827 692.34 258.6 691.696 259.267C691.052 259.926 690.257 260.441 689.31 260.812C688.363 261.176 687.298 261.358 686.116 261.358ZM709.787 247.449L707.378 248.131C707.226 247.729 707.003 247.339 706.707 246.96C706.42 246.574 706.026 246.256 705.526 246.006C705.026 245.756 704.385 245.631 703.605 245.631C702.537 245.631 701.647 245.877 700.935 246.369C700.23 246.854 699.878 247.471 699.878 248.221C699.878 248.888 700.12 249.415 700.605 249.801C701.09 250.187 701.848 250.509 702.878 250.767L705.469 251.403C707.029 251.782 708.192 252.362 708.957 253.142C709.723 253.915 710.105 254.911 710.105 256.131C710.105 257.131 709.817 258.024 709.241 258.812C708.673 259.6 707.878 260.221 706.855 260.676C705.832 261.131 704.643 261.358 703.287 261.358C701.507 261.358 700.033 260.971 698.866 260.199C697.7 259.426 696.961 258.297 696.651 256.812L699.196 256.176C699.438 257.115 699.897 257.82 700.571 258.29C701.253 258.759 702.143 258.994 703.241 258.994C704.491 258.994 705.484 258.729 706.219 258.199C706.961 257.661 707.332 257.017 707.332 256.267C707.332 255.661 707.12 255.153 706.696 254.744C706.272 254.327 705.62 254.017 704.741 253.812L701.832 253.131C700.234 252.752 699.06 252.165 698.31 251.369C697.567 250.566 697.196 249.562 697.196 248.358C697.196 247.373 697.473 246.502 698.026 245.744C698.586 244.987 699.348 244.392 700.31 243.96C701.279 243.528 702.378 243.312 703.605 243.312C705.332 243.312 706.688 243.691 707.673 244.449C708.666 245.206 709.37 246.206 709.787 247.449ZM725.142 253.858V243.54H727.824V260.994H725.142V258.04H724.96C724.551 258.926 723.915 259.68 723.051 260.301C722.188 260.915 721.097 261.221 719.778 261.221C718.688 261.221 717.718 260.983 716.869 260.506C716.021 260.021 715.354 259.293 714.869 258.324C714.384 257.346 714.142 256.115 714.142 254.631V243.54H716.824V254.449C716.824 255.721 717.18 256.737 717.892 257.494C718.612 258.252 719.528 258.631 720.642 258.631C721.309 258.631 721.987 258.46 722.676 258.119C723.373 257.778 723.956 257.256 724.426 256.551C724.903 255.846 725.142 254.949 725.142 253.858ZM735.418 237.721V260.994H732.736V237.721H735.418ZM747.92 243.54V245.812H738.875V243.54H747.92ZM741.511 239.358H744.193V255.994C744.193 256.752 744.303 257.32 744.523 257.699C744.75 258.07 745.038 258.32 745.386 258.449C745.742 258.57 746.117 258.631 746.511 258.631C746.807 258.631 747.049 258.615 747.239 258.585C747.428 258.547 747.58 258.517 747.693 258.494L748.239 260.903C748.057 260.971 747.803 261.04 747.477 261.108C747.152 261.184 746.739 261.221 746.239 261.221C745.481 261.221 744.739 261.059 744.011 260.733C743.292 260.407 742.693 259.911 742.216 259.244C741.746 258.577 741.511 257.737 741.511 256.721V239.358ZM764.006 247.449L761.597 248.131C761.445 247.729 761.222 247.339 760.926 246.96C760.638 246.574 760.244 246.256 759.744 246.006C759.244 245.756 758.604 245.631 757.824 245.631C756.756 245.631 755.866 245.877 755.153 246.369C754.449 246.854 754.097 247.471 754.097 248.221C754.097 248.888 754.339 249.415 754.824 249.801C755.309 250.187 756.066 250.509 757.097 250.767L759.688 251.403C761.248 251.782 762.411 252.362 763.176 253.142C763.941 253.915 764.324 254.911 764.324 256.131C764.324 257.131 764.036 258.024 763.46 258.812C762.892 259.6 762.097 260.221 761.074 260.676C760.051 261.131 758.862 261.358 757.506 261.358C755.725 261.358 754.252 260.971 753.085 260.199C751.919 259.426 751.18 258.297 750.869 256.812L753.415 256.176C753.657 257.115 754.116 257.82 754.79 258.29C755.472 258.759 756.362 258.994 757.46 258.994C758.71 258.994 759.703 258.729 760.438 258.199C761.18 257.661 761.551 257.017 761.551 256.267C761.551 255.661 761.339 255.153 760.915 254.744C760.491 254.327 759.839 254.017 758.96 253.812L756.051 253.131C754.453 252.752 753.278 252.165 752.528 251.369C751.786 250.566 751.415 249.562 751.415 248.358C751.415 247.373 751.691 246.502 752.244 245.744C752.805 244.987 753.566 244.392 754.528 243.96C755.498 243.528 756.597 243.312 757.824 243.312C759.551 243.312 760.907 243.691 761.892 244.449C762.884 245.206 763.589 246.206 764.006 247.449Z" fill="white"/>
<path d="M218.051 249.496C218.051 253.914 221.633 257.496 226.051 257.496C230.469 257.496 234.051 253.914 234.051 249.496C234.051 245.078 230.469 241.496 226.051 241.496C221.633 241.496 218.051 245.078 218.051 249.496ZM277.445 249.496C277.445 253.914 281.027 257.496 285.445 257.496C289.864 257.496 293.445 253.914 293.445 249.496C293.445 245.078 289.864 241.496 285.445 241.496C281.027 241.496 277.445 245.078 277.445 249.496ZM226.051 250.996H285.445V247.996H226.051V250.996Z" fill="black"/>
<path d="M606.562 249.496C606.563 245.078 602.981 241.496 598.563 241.496C594.144 241.496 590.563 245.078 590.562 249.496C590.562 253.914 594.144 257.496 598.562 257.496C602.981 257.496 606.562 253.914 606.562 249.496ZM519.445 249.496C519.445 245.078 515.864 241.496 511.445 241.496C507.027 241.496 503.445 245.078 503.445 249.496C503.445 253.914 507.027 257.496 511.445 257.496C515.864 257.496 519.445 253.914 519.445 249.496ZM598.563 247.996L511.445 247.996L511.445 250.996L598.562 250.996L598.563 247.996Z" fill="black"/>
<path d="M100.5 249.752C100.905 249.816 101.273 249.981 101.604 250.248C101.945 250.515 102.212 250.845 102.404 251.24C102.606 251.635 102.708 252.056 102.708 252.504C102.708 253.069 102.564 253.581 102.276 254.04C101.988 254.488 101.566 254.845 101.012 255.112C100.468 255.368 99.8223 255.496 99.0756 255.496H94.9156V244.344H98.9156C99.6729 244.344 100.318 244.472 100.852 244.728C101.385 244.973 101.785 245.309 102.052 245.736C102.318 246.163 102.452 246.643 102.452 247.176C102.452 247.837 102.27 248.387 101.908 248.824C101.556 249.251 101.086 249.56 100.5 249.752ZM96.3716 249.16H98.8196C99.5023 249.16 100.03 249 100.404 248.68C100.777 248.36 100.964 247.917 100.964 247.352C100.964 246.787 100.777 246.344 100.404 246.024C100.03 245.704 99.4916 245.544 98.7876 245.544H96.3716V249.16ZM98.9476 254.296C99.6729 254.296 100.238 254.125 100.644 253.784C101.049 253.443 101.252 252.968 101.252 252.36C101.252 251.741 101.038 251.256 100.612 250.904C100.185 250.541 99.6143 250.36 98.8996 250.36H96.3716V254.296H98.9476ZM112.504 246.728V255.496H111.048V254.2C110.771 254.648 110.381 255 109.88 255.256C109.389 255.501 108.845 255.624 108.248 255.624C107.565 255.624 106.952 255.485 106.408 255.208C105.864 254.92 105.432 254.493 105.112 253.928C104.803 253.363 104.648 252.675 104.648 251.864V246.728H106.088V251.672C106.088 252.536 106.307 253.203 106.744 253.672C107.181 254.131 107.779 254.36 108.536 254.36C109.315 254.36 109.928 254.12 110.376 253.64C110.824 253.16 111.048 252.461 111.048 251.544V246.728H112.504ZM115.714 245.304C115.437 245.304 115.202 245.208 115.01 245.016C114.818 244.824 114.722 244.589 114.722 244.312C114.722 244.035 114.818 243.8 115.01 243.608C115.202 243.416 115.437 243.32 115.714 243.32C115.981 243.32 116.205 243.416 116.386 243.608C116.578 243.8 116.674 244.035 116.674 244.312C116.674 244.589 116.578 244.824 116.386 245.016C116.205 245.208 115.981 245.304 115.714 245.304ZM116.418 246.728V255.496H114.962V246.728H116.418ZM120.356 243.656V255.496H118.9V243.656H120.356ZM122.293 251.08C122.293 250.184 122.475 249.4 122.837 248.728C123.2 248.045 123.696 247.517 124.325 247.144C124.965 246.771 125.68 246.584 126.469 246.584C127.152 246.584 127.787 246.744 128.373 247.064C128.96 247.373 129.408 247.784 129.717 248.296V243.656H131.189V255.496H129.717V253.848C129.429 254.371 129.003 254.803 128.437 255.144C127.872 255.475 127.211 255.64 126.453 255.64C125.675 255.64 124.965 255.448 124.325 255.064C123.696 254.68 123.2 254.141 122.837 253.448C122.475 252.755 122.293 251.965 122.293 251.08ZM129.717 251.096C129.717 250.435 129.584 249.859 129.317 249.368C129.051 248.877 128.688 248.504 128.229 248.248C127.781 247.981 127.285 247.848 126.741 247.848C126.197 247.848 125.701 247.976 125.253 248.232C124.805 248.488 124.448 248.861 124.181 249.352C123.915 249.843 123.781 250.419 123.781 251.08C123.781 251.752 123.915 252.339 124.181 252.84C124.448 253.331 124.805 253.709 125.253 253.976C125.701 254.232 126.197 254.36 126.741 254.36C127.285 254.36 127.781 254.232 128.229 253.976C128.688 253.709 129.051 253.331 129.317 252.84C129.584 252.339 129.717 251.757 129.717 251.096Z" fill="black"/>
<path d="M380.542 255.496L377.886 250.936H376.126V255.496H374.67V244.344H378.27C379.112 244.344 379.822 244.488 380.398 244.776C380.984 245.064 381.422 245.453 381.71 245.944C381.998 246.435 382.142 246.995 382.142 247.624C382.142 248.392 381.918 249.069 381.47 249.656C381.032 250.243 380.371 250.632 379.486 250.824L382.286 255.496H380.542ZM376.126 249.768H378.27C379.059 249.768 379.651 249.576 380.046 249.192C380.44 248.797 380.638 248.275 380.638 247.624C380.638 246.963 380.44 246.451 380.046 246.088C379.662 245.725 379.07 245.544 378.27 245.544H376.126V249.768ZM392.404 250.776C392.404 251.053 392.388 251.347 392.356 251.656H385.348C385.401 252.52 385.695 253.197 386.228 253.688C386.772 254.168 387.428 254.408 388.196 254.408C388.825 254.408 389.348 254.264 389.764 253.976C390.191 253.677 390.489 253.283 390.66 252.792H392.228C391.993 253.635 391.524 254.323 390.82 254.856C390.116 255.379 389.241 255.64 388.196 255.64C387.364 255.64 386.617 255.453 385.956 255.08C385.305 254.707 384.793 254.179 384.42 253.496C384.047 252.803 383.86 252.003 383.86 251.096C383.86 250.189 384.041 249.395 384.404 248.712C384.767 248.029 385.273 247.507 385.924 247.144C386.585 246.771 387.343 246.584 388.196 246.584C389.028 246.584 389.764 246.765 390.404 247.128C391.044 247.491 391.535 247.992 391.876 248.632C392.228 249.261 392.404 249.976 392.404 250.776ZM390.9 250.472C390.9 249.917 390.777 249.443 390.532 249.048C390.287 248.643 389.951 248.339 389.524 248.136C389.108 247.923 388.644 247.816 388.132 247.816C387.396 247.816 386.767 248.051 386.244 248.52C385.732 248.989 385.439 249.64 385.364 250.472H390.9ZM397.894 247.928H396.054V255.496H394.598V247.928H393.462V246.728H394.598V246.104C394.598 245.123 394.848 244.408 395.35 243.96C395.862 243.501 396.678 243.272 397.798 243.272V244.488C397.158 244.488 396.704 244.616 396.438 244.872C396.182 245.117 396.054 245.528 396.054 246.104V246.728H397.894V247.928ZM400.343 245.304C400.066 245.304 399.831 245.208 399.639 245.016C399.447 244.824 399.351 244.589 399.351 244.312C399.351 244.035 399.447 243.8 399.639 243.608C399.831 243.416 400.066 243.32 400.343 243.32C400.61 243.32 400.834 243.416 401.015 243.608C401.207 243.8 401.303 244.035 401.303 244.312C401.303 244.589 401.207 244.824 401.015 245.016C400.834 245.208 400.61 245.304 400.343 245.304ZM401.047 246.728V255.496H399.591V246.728H401.047ZM407.801 246.568C408.868 246.568 409.732 246.893 410.393 247.544C411.054 248.184 411.385 249.112 411.385 250.328V255.496H409.945V250.536C409.945 249.661 409.726 248.995 409.289 248.536C408.852 248.067 408.254 247.832 407.497 247.832C406.729 247.832 406.116 248.072 405.657 248.552C405.209 249.032 404.985 249.731 404.985 250.648V255.496H403.529V246.728H404.985V247.976C405.273 247.528 405.662 247.181 406.153 246.936C406.654 246.691 407.204 246.568 407.801 246.568ZM421.763 250.776C421.763 251.053 421.747 251.347 421.715 251.656H414.707C414.761 252.52 415.054 253.197 415.587 253.688C416.131 254.168 416.787 254.408 417.555 254.408C418.185 254.408 418.707 254.264 419.123 253.976C419.55 253.677 419.849 253.283 420.019 252.792H421.587C421.353 253.635 420.883 254.323 420.179 254.856C419.475 255.379 418.601 255.64 417.555 255.64C416.723 255.64 415.977 255.453 415.315 255.08C414.665 254.707 414.153 254.179 413.779 253.496C413.406 252.803 413.219 252.003 413.219 251.096C413.219 250.189 413.401 249.395 413.763 248.712C414.126 248.029 414.633 247.507 415.283 247.144C415.945 246.771 416.702 246.584 417.555 246.584C418.387 246.584 419.123 246.765 419.763 247.128C420.403 247.491 420.894 247.992 421.235 248.632C421.587 249.261 421.763 249.976 421.763 250.776ZM420.259 250.472C420.259 249.917 420.137 249.443 419.891 249.048C419.646 248.643 419.31 248.339 418.883 248.136C418.467 247.923 418.003 247.816 417.491 247.816C416.755 247.816 416.126 248.051 415.603 248.52C415.091 248.989 414.798 249.64 414.723 250.472H420.259Z" fill="black"/>
</svg>
