<svg width="1617" height="1055" viewBox="0 0 1617 1055" fill="none" xmlns="http://www.w3.org/2000/svg">
<g clip-path="url(#clip0_1261_3125)">
<g clip-path="url(#clip1_1261_3125)">
<rect width="201.938" height="1055" fill="#FB574D"/>
<path d="M60.4927 580.794C56.0484 580.794 53.4776 579.194 52.6297 577.265C52.4246 576.814 52.3289 576.349 52.3289 575.898C52.3289 574.503 53.3818 573.546 54.8177 573.546C55.9117 573.546 56.6501 573.888 57.4296 574.982C58.1133 575.953 59.262 576.349 60.5611 576.349C62.2978 576.349 63.3645 575.638 63.3645 574.667C63.3645 573.737 62.5987 573.341 60.3833 572.944L58.4005 572.589C54.4758 571.891 52.3289 569.908 52.3289 566.845C52.3289 562.88 55.7476 560.377 60.438 560.377C64.349 560.377 67.1524 561.758 68.178 564.22C68.3421 564.616 68.4241 564.985 68.4241 565.437C68.4241 566.749 67.4669 567.638 66.0174 567.652C64.7866 567.652 64.0072 567.228 63.3098 566.175C62.667 565.191 61.7508 564.821 60.5064 564.821C58.8928 564.821 58.0723 565.532 58.0723 566.421C58.0723 567.31 58.9201 567.734 60.8893 568.09L62.8722 568.445C67.1114 569.211 69.1079 570.948 69.1079 574.148C69.1079 578.209 65.9353 580.794 60.4927 580.794ZM72.9915 580.794C71.1454 580.794 70.0378 579.741 70.0378 577.99C70.0378 577.484 70.1882 576.746 70.448 576.048L74.865 563.85C75.7128 561.457 77.1487 560.377 79.4597 560.377C81.9349 560.377 83.3571 561.416 84.2459 563.85L88.7039 576.048C88.9774 576.8 89.0868 577.347 89.0868 577.977C89.0868 579.617 87.8697 580.794 86.1877 580.794C84.4784 580.794 83.5895 580.014 83.0972 578.1L82.7554 576.759H76.3282L75.9863 578.004C75.4393 579.987 74.5641 580.794 72.9915 580.794ZM77.4222 572.438H81.5383L79.4871 565.273H79.3777L77.4222 572.438ZM99.3019 580.794C94.0918 580.794 90.6047 577.922 90.6047 573.423V563.413C90.6047 561.471 91.6577 560.377 93.5038 560.377C95.3499 560.377 96.4028 561.471 96.4028 563.413V572.78C96.4028 574.859 97.4284 575.994 99.3019 575.994C101.175 575.994 102.201 574.859 102.201 572.78V563.413C102.201 561.471 103.254 560.377 105.1 560.377C106.946 560.377 107.999 561.471 107.999 563.413V573.423C107.999 577.922 104.512 580.794 99.3019 580.794ZM113.469 580.794C111.732 580.794 110.734 579.782 110.734 577.922V563.057C110.734 561.307 111.691 560.377 113.469 560.377C114.522 560.377 115.329 560.856 116.163 561.963L122.85 570.948H122.959V563.249C122.959 561.389 123.971 560.377 125.694 560.377C127.431 560.377 128.429 561.389 128.429 563.249V578.113C128.429 579.85 127.486 580.794 125.763 580.794C124.655 580.794 123.876 580.329 123.055 579.207L116.313 570.059H116.204V577.922C116.204 579.782 115.192 580.794 113.469 580.794ZM133.708 580.794C131.862 580.794 130.754 579.741 130.754 577.99C130.754 577.484 130.904 576.746 131.164 576.048L135.581 563.85C136.429 561.457 137.865 560.377 140.176 560.377C142.651 560.377 144.073 561.416 144.962 563.85L149.42 576.048C149.694 576.8 149.803 577.347 149.803 577.977C149.803 579.617 148.586 580.794 146.904 580.794C145.195 580.794 144.306 580.014 143.813 578.1L143.472 576.759H137.044L136.703 578.004C136.156 579.987 135.28 580.794 133.708 580.794ZM138.138 572.438H142.255L140.203 565.273H140.094L138.138 572.438ZM77.2718 606.794C75.4257 606.794 74.3727 605.7 74.3727 603.758V589.755C74.3727 587.813 75.4257 586.719 77.2718 586.719H83.1383C88.4031 586.719 91.1107 589.194 91.1107 593.42C91.1107 595.608 90.1808 597.672 88.3073 598.766L90.3722 602.158C90.8782 603.006 90.9876 603.457 90.9876 604.141C90.9876 605.686 89.7842 606.794 88.1022 606.794C86.68 606.794 86.1057 606.288 85.0801 604.469L82.4819 599.833H80.1708V603.758C80.1708 605.7 79.1179 606.794 77.2718 606.794ZM80.1708 596.004H82.5639C84.1912 596.004 85.1895 595.006 85.1895 593.515C85.1895 592.052 84.1365 590.999 82.5776 590.999H80.1708V596.004ZM96.3618 606.452C94.5157 606.452 93.4628 605.358 93.4628 603.416V589.755C93.4628 587.813 94.5157 586.719 96.3618 586.719H105.1C106.659 586.719 107.657 587.553 107.657 589.03C107.657 590.507 106.632 591.341 105.1 591.341H99.2609V594.514H104.868C106.249 594.514 107.151 595.266 107.151 596.592C107.151 597.919 106.276 598.671 104.868 598.671H99.2609V601.83H105.1C106.632 601.83 107.657 602.664 107.657 604.141C107.657 605.617 106.659 606.452 105.1 606.452H96.3618ZM112.99 606.452C111.144 606.452 110.091 605.358 110.091 603.416V589.755C110.091 587.813 111.144 586.719 112.99 586.719H118.529C124.518 586.719 128.033 590.124 128.033 596.442C128.033 602.759 124.505 606.452 118.529 606.452H112.99ZM115.889 601.843H117.708C120.607 601.843 122.125 600.079 122.125 596.442C122.125 593.119 120.484 591.327 117.708 591.327H115.889V601.843Z" fill="white"/>
<rect x="66.0742" y="634.242" width="69.792" height="26.792" rx="7.37001" fill="white"/>
<path d="M74.7685 652.138H73.324L73.771 649.793H72.3265L72.5921 648.388H74.043L74.4187 646.419H72.9224L73.1945 645.026H74.6843L75.1183 642.791H76.5563L76.1288 645.026H77.8324L78.2664 642.791H79.7109L79.2834 645.026H80.7991L80.5335 646.419H79.0178L78.6356 648.388H80.1967L79.9311 649.793H78.37L77.9231 652.138H76.4721L76.9191 649.793H75.209L74.7685 652.138ZM75.3839 648.465H77.2494L77.6575 646.341H75.7985L75.3839 648.465ZM81.5764 652.138V642.791H87.6977V644.404H83.5327V646.911H87.335V648.459H83.5327V652.138H81.5764ZM88.8572 652.138V642.791H92.9251C94.687 642.791 95.7947 643.698 95.7947 645.136V645.149C95.7947 646.172 95.0173 647.047 93.9874 647.183V647.222C95.2894 647.319 96.2286 648.239 96.2286 649.463V649.476C96.2286 651.115 94.9914 652.138 92.9964 652.138H88.8572ZM92.4198 644.242H90.8134V646.697H92.1802C93.2814 646.697 93.8708 646.237 93.8708 645.427V645.414C93.8708 644.67 93.3332 644.242 92.4198 644.242ZM92.4134 648.025H90.8134V650.681H92.4976C93.6182 650.681 94.2336 650.221 94.2336 649.353V649.34C94.2336 648.485 93.6117 648.025 92.4134 648.025ZM100.815 652.3C98.7808 652.3 97.4335 651.115 97.3169 649.554L97.3104 649.456H99.1176L99.1306 649.502C99.2666 650.208 99.9209 650.752 100.821 650.752C101.845 650.752 102.564 650.052 102.564 649.055V649.042C102.557 648.057 101.838 647.364 100.828 647.364C100.348 647.364 99.9403 647.507 99.6229 647.759C99.435 647.902 99.2861 648.083 99.1759 648.278H97.4723L97.8999 642.791H103.866V644.346H99.4545L99.2278 646.976H99.2666C99.6553 646.347 100.426 645.965 101.372 645.965C103.147 645.965 104.429 647.241 104.429 649.003V649.016C104.429 650.972 102.952 652.3 100.815 652.3ZM106.003 652.138L110.026 644.385V644.346H105.271V642.791H111.956V644.365L108.057 652.138H106.003ZM116.853 652.138V650.422H112.202V648.789L115.953 642.791H118.712V648.861H119.943V650.422H118.712V652.138H116.853ZM113.906 648.912H116.892V644.203H116.847L113.906 648.861V648.912ZM121.102 652.138V642.791H124.672C127.47 642.791 129.128 644.456 129.128 647.416V647.429C129.128 650.396 127.476 652.138 124.672 652.138H121.102ZM123.059 650.519H124.438C126.187 650.519 127.133 649.456 127.133 647.435V647.423C127.133 645.473 126.155 644.404 124.438 644.404H123.059V650.519Z" fill="#FB574D"/>
</g>
<g clip-path="url(#clip2_1261_3125)">
<rect width="202.149" height="1055" transform="translate(201.938)" fill="#5166E5"/>
<path d="M284.242 580.794C282.396 580.794 281.343 579.7 281.343 577.758V563.413C281.343 561.471 282.396 560.377 284.242 560.377C286.088 560.377 287.141 561.471 287.141 563.413V577.758C287.141 579.7 286.088 580.794 284.242 580.794ZM299.339 580.794C293.076 580.794 289.398 577.088 289.398 570.578C289.398 564.069 293.158 560.377 299.12 560.377C302.895 560.377 305.684 561.813 307.243 564.562C307.64 565.245 307.845 565.97 307.845 566.667C307.845 568.144 306.847 569.102 305.329 569.102C304.071 569.102 303.305 568.609 302.676 567.392C301.801 565.71 300.707 564.931 299.189 564.931C296.809 564.931 295.305 567.037 295.305 570.565C295.305 574.134 296.796 576.24 299.202 576.24C300.789 576.24 301.896 575.433 302.731 573.683C303.319 572.438 304.016 571.96 305.233 571.96C306.888 571.96 307.968 572.972 307.968 574.517C307.968 575.009 307.859 575.529 307.654 576.035C306.505 578.893 303.182 580.794 299.339 580.794ZM313.479 580.452C311.633 580.452 310.58 579.358 310.58 577.416V563.755C310.58 561.813 311.633 560.719 313.479 560.719H322.217C323.776 560.719 324.774 561.553 324.774 563.03C324.774 564.507 323.749 565.341 322.217 565.341H316.378V568.514H321.985C323.366 568.514 324.268 569.266 324.268 570.592C324.268 571.919 323.393 572.671 321.985 572.671H316.378V575.83H322.217C323.749 575.83 324.774 576.664 324.774 578.141C324.774 579.617 323.776 580.452 322.217 580.452H313.479ZM271.62 606.452C269.774 606.452 268.721 605.358 268.721 603.416V589.755C268.721 587.813 269.774 586.719 271.62 586.719H278.417C282.451 586.719 284.817 588.565 284.817 591.642C284.817 593.912 283.094 595.621 280.81 595.908V596.018C283.476 596.086 285.705 598.096 285.705 600.708C285.705 604.168 282.97 606.452 278.745 606.452H271.62ZM274.519 594.623H276.762C278.253 594.623 279.183 593.843 279.183 592.654C279.183 591.437 278.307 590.698 276.844 590.698H274.519V594.623ZM274.519 602.472H276.995C278.786 602.472 279.812 601.665 279.812 600.175C279.812 598.766 278.772 597.946 277.036 597.946H274.519V602.472ZM290.519 606.452C288.673 606.452 287.62 605.358 287.62 603.416V589.413C287.62 587.471 288.673 586.377 290.519 586.377C292.365 586.377 293.418 587.471 293.418 589.413V601.83H298.874C300.406 601.83 301.431 602.664 301.431 604.141C301.431 605.617 300.433 606.452 298.874 606.452H290.519ZM311.77 606.794C306.56 606.794 303.072 603.922 303.072 599.423V589.413C303.072 587.471 304.125 586.377 305.972 586.377C307.818 586.377 308.871 587.471 308.871 589.413V598.78C308.871 600.859 309.896 601.994 311.77 601.994C313.643 601.994 314.669 600.859 314.669 598.78V589.413C314.669 587.471 315.722 586.377 317.568 586.377C319.414 586.377 320.467 587.471 320.467 589.413V599.423C320.467 603.922 316.98 606.794 311.77 606.794ZM326.101 606.452C324.255 606.452 323.202 605.358 323.202 603.416V589.755C323.202 587.813 324.255 586.719 326.101 586.719H334.839C336.398 586.719 337.396 587.553 337.396 589.03C337.396 590.507 336.371 591.341 334.839 591.341H329V594.514H334.607C335.988 594.514 336.89 595.266 336.89 596.592C336.89 597.919 336.015 598.671 334.607 598.671H329V601.83H334.839C336.371 601.83 337.396 602.664 337.396 604.141C337.396 605.617 336.398 606.452 334.839 606.452H326.101Z" fill="white"/>
<rect x="267.512" y="634.242" width="70.792" height="26.792" rx="7.37001" fill="white"/>
<path d="M276.13 652.138H274.686L275.133 649.793H273.688L273.954 648.388H275.405L275.78 646.419H274.284L274.556 645.026H276.046L276.48 642.791H277.918L277.49 645.026H279.194L279.628 642.791H281.073L280.645 645.026H282.161L281.895 646.419H280.379L279.997 648.388H281.558L281.293 649.793H279.732L279.285 652.138H277.834L278.281 649.793H276.571L276.13 652.138ZM276.746 648.465H278.611L279.019 646.341H277.16L276.746 648.465ZM287.278 652.138V650.422H282.627V648.789L286.378 642.791H289.137V648.861H290.368V650.422H289.137V652.138H287.278ZM284.331 648.912H287.317V644.203H287.272L284.331 648.861V648.912ZM291.527 652.138V642.791H297.72V644.404H293.483V646.645H297.48V648.174H293.483V650.525H297.72V652.138H291.527ZM302.604 652.3C300.57 652.3 299.223 651.115 299.106 649.554L299.1 649.456H300.907L300.92 649.502C301.056 650.208 301.71 650.752 302.61 650.752C303.634 650.752 304.353 650.052 304.353 649.055V649.042C304.346 648.057 303.627 647.364 302.617 647.364C302.137 647.364 301.729 647.507 301.412 647.759C301.224 647.902 301.075 648.083 300.965 648.278H299.261L299.689 642.791H305.655V644.346H301.244L301.017 646.976H301.056C301.444 646.347 302.215 645.965 303.161 645.965C304.936 645.965 306.218 647.241 306.218 649.003V649.016C306.218 650.972 304.741 652.3 302.604 652.3ZM307.423 652.138V642.791H310.992C313.791 642.791 315.449 644.456 315.449 647.416V647.429C315.449 650.396 313.797 652.138 310.992 652.138H307.423ZM309.379 650.519H310.759C312.508 650.519 313.454 649.456 313.454 647.435V647.423C313.454 645.473 312.476 644.404 310.759 644.404H309.379V650.519ZM316.712 652.138V642.791H322.905V644.404H318.668V646.645H322.665V648.174H318.668V650.525H322.905V652.138H316.712ZM328.657 652.138V650.422H324.006V648.789L327.756 642.791H330.516V648.861H331.746V650.422H330.516V652.138H328.657ZM325.709 648.912H328.695V644.203H328.65L325.709 648.861V648.912Z" fill="#5166E5"/>
</g>
<g clip-path="url(#clip3_1261_3125)">
<rect width="202.149" height="1055" transform="translate(404.087)" fill="black"/>
<path d="M474.654 580.794C468.391 580.794 464.712 577.088 464.712 570.578C464.712 564.069 468.473 560.377 474.435 560.377C478.209 560.377 480.999 561.813 482.558 564.562C482.954 565.245 483.16 565.97 483.16 566.667C483.16 568.144 482.161 569.102 480.643 569.102C479.385 569.102 478.619 568.609 477.99 567.392C477.115 565.71 476.021 564.931 474.503 564.931C472.124 564.931 470.62 567.037 470.62 570.565C470.62 574.134 472.11 576.24 474.517 576.24C476.103 576.24 477.211 575.433 478.045 573.683C478.633 572.438 479.331 571.96 480.548 571.96C482.202 571.96 483.283 572.972 483.283 574.517C483.283 575.009 483.173 575.529 482.968 576.035C481.819 578.893 478.496 580.794 474.654 580.794ZM488.794 580.794C486.947 580.794 485.894 579.7 485.894 577.758V563.413C485.894 561.471 486.947 560.377 488.794 560.377C490.64 560.377 491.693 561.471 491.693 563.413V568.213H498.639V563.413C498.639 561.471 499.692 560.377 501.538 560.377C503.385 560.377 504.438 561.471 504.438 563.413V577.758C504.438 579.7 503.385 580.794 501.538 580.794C499.692 580.794 498.639 579.7 498.639 577.758V572.821H491.693V577.758C491.693 579.7 490.64 580.794 488.794 580.794ZM509.716 580.794C507.87 580.794 506.762 579.741 506.762 577.99C506.762 577.484 506.913 576.746 507.173 576.048L511.589 563.85C512.437 561.457 513.873 560.377 516.184 560.377C518.659 560.377 520.082 561.416 520.97 563.85L525.428 576.048C525.702 576.8 525.811 577.347 525.811 577.977C525.811 579.617 524.594 580.794 522.912 580.794C521.203 580.794 520.314 580.014 519.822 578.1L519.48 576.759H513.053L512.711 578.004C512.164 579.987 511.289 580.794 509.716 580.794ZM514.147 572.438H518.263L516.212 565.273H516.102L514.147 572.438ZM531.049 580.794C529.203 580.794 528.15 579.7 528.15 577.758V563.755C528.15 561.813 529.203 560.719 531.049 560.719H536.915C542.18 560.719 544.888 563.194 544.888 567.42C544.888 569.608 543.958 571.672 542.084 572.766L544.149 576.158C544.655 577.006 544.765 577.457 544.765 578.141C544.765 579.686 543.561 580.794 541.879 580.794C540.457 580.794 539.883 580.288 538.857 578.469L536.259 573.833H533.948V577.758C533.948 579.7 532.895 580.794 531.049 580.794ZM533.948 570.004H536.341C537.968 570.004 538.966 569.006 538.966 567.515C538.966 566.052 537.914 564.999 536.355 564.999H533.948V570.004ZM461.758 606.452C459.912 606.452 458.859 605.358 458.859 603.416V589.755C458.859 587.813 459.912 586.719 461.758 586.719H468.555C472.589 586.719 474.955 588.565 474.955 591.642C474.955 593.912 473.232 595.621 470.948 595.908V596.018C473.614 596.086 475.843 598.096 475.843 600.708C475.843 604.168 473.109 606.452 468.883 606.452H461.758ZM464.657 594.623H466.9C468.391 594.623 469.321 593.843 469.321 592.654C469.321 591.437 468.445 590.698 466.982 590.698H464.657V594.623ZM464.657 602.472H467.133C468.924 602.472 469.95 601.665 469.95 600.175C469.95 598.766 468.91 597.946 467.174 597.946H464.657V602.472ZM480.657 606.452C478.811 606.452 477.758 605.358 477.758 603.416V589.413C477.758 587.471 478.811 586.377 480.657 586.377C482.503 586.377 483.556 587.471 483.556 589.413V601.83H489.012C490.544 601.83 491.57 602.664 491.57 604.141C491.57 605.617 490.571 606.452 489.012 606.452H480.657ZM496.028 606.794C494.181 606.794 493.074 605.741 493.074 603.99C493.074 603.484 493.224 602.746 493.484 602.048L497.901 589.85C498.749 587.457 500.185 586.377 502.496 586.377C504.971 586.377 506.393 587.416 507.282 589.85L511.74 602.048C512.013 602.8 512.123 603.347 512.123 603.977C512.123 605.617 510.906 606.794 509.224 606.794C507.514 606.794 506.626 606.014 506.133 604.1L505.791 602.759H499.364L499.022 604.004C498.475 605.987 497.6 606.794 496.028 606.794ZM500.458 598.438H504.574L502.523 591.273H502.414L500.458 598.438ZM522.557 606.794C516.294 606.794 512.615 603.088 512.615 596.578C512.615 590.069 516.376 586.377 522.338 586.377C526.112 586.377 528.902 587.813 530.461 590.562C530.857 591.245 531.062 591.97 531.062 592.667C531.062 594.144 530.064 595.102 528.546 595.102C527.288 595.102 526.522 594.609 525.893 593.392C525.018 591.71 523.924 590.931 522.406 590.931C520.027 590.931 518.523 593.037 518.523 596.565C518.523 600.134 520.013 602.24 522.42 602.24C524.006 602.24 525.114 601.433 525.948 599.683C526.536 598.438 527.233 597.96 528.451 597.96C530.105 597.96 531.186 598.972 531.186 600.517C531.186 601.009 531.076 601.529 530.871 602.035C529.722 604.893 526.399 606.794 522.557 606.794ZM536.696 606.794C534.85 606.794 533.797 605.7 533.797 603.758V589.413C533.797 587.471 534.85 586.377 536.696 586.377C538.543 586.377 539.596 587.471 539.596 589.413V594.541H539.705L545.763 587.69C546.597 586.76 547.349 586.377 548.334 586.377C549.852 586.377 551.082 587.567 551.082 589.057C551.082 589.932 550.782 590.562 549.961 591.437L545.886 595.785L550.152 601.064C551.151 602.295 551.575 603.17 551.575 603.99C551.575 605.576 550.371 606.794 548.785 606.794C547.541 606.794 546.693 606.329 545.749 605.125L541.319 599.505L539.596 601.283V603.758C539.596 605.7 538.543 606.794 536.696 606.794Z" fill="white"/>
<rect x="468.452" y="634.242" width="72.792" height="26.792" rx="7.37001" fill="white"/>
<path d="M476.936 652.138H475.492L475.938 649.793H474.494L474.76 648.388H476.211L476.586 646.419H475.09L475.362 645.026H476.852L477.286 642.791H478.724L478.296 645.026H480L480.434 642.791H481.878L481.451 645.026H482.967L482.701 646.419H481.185L480.803 648.388H482.364L482.099 649.793H480.538L480.091 652.138H478.64L479.087 649.793H477.376L476.936 652.138ZM477.551 648.465H479.417L479.825 646.341H477.966L477.551 648.465ZM487.32 652.3C484.949 652.3 483.511 650.441 483.511 647.468V647.455C483.511 644.482 484.949 642.629 487.32 642.629C489.69 642.629 491.128 644.482 491.128 647.455V647.468C491.128 650.441 489.69 652.3 487.32 652.3ZM487.32 650.733C488.485 650.733 489.153 649.521 489.153 647.468V647.455C489.153 645.402 488.485 644.197 487.32 644.197C486.154 644.197 485.486 645.402 485.486 647.455V647.468C485.486 649.521 486.154 650.733 487.32 650.733ZM496.025 652.3C493.655 652.3 492.217 650.441 492.217 647.468V647.455C492.217 644.482 493.655 642.629 496.025 642.629C498.396 642.629 499.834 644.482 499.834 647.455V647.468C499.834 650.441 498.396 652.3 496.025 652.3ZM496.025 650.733C497.191 650.733 497.859 649.521 497.859 647.468V647.455C497.859 645.402 497.191 644.197 496.025 644.197C494.859 644.197 494.192 645.402 494.192 647.455V647.468C494.192 649.521 494.859 650.733 496.025 650.733ZM504.731 652.3C502.36 652.3 500.922 650.441 500.922 647.468V647.455C500.922 644.482 502.36 642.629 504.731 642.629C507.102 642.629 508.54 644.482 508.54 647.455V647.468C508.54 650.441 507.102 652.3 504.731 652.3ZM504.731 650.733C505.897 650.733 506.564 649.521 506.564 647.468V647.455C506.564 645.402 505.897 644.197 504.731 644.197C503.565 644.197 502.898 645.402 502.898 647.455V647.468C502.898 649.521 503.565 650.733 504.731 650.733ZM513.437 652.3C511.066 652.3 509.628 650.441 509.628 647.468V647.455C509.628 644.482 511.066 642.629 513.437 642.629C515.808 642.629 517.246 644.482 517.246 647.455V647.468C517.246 650.441 515.808 652.3 513.437 652.3ZM513.437 650.733C514.603 650.733 515.27 649.521 515.27 647.468V647.455C515.27 645.402 514.603 644.197 513.437 644.197C512.271 644.197 511.604 645.402 511.604 647.455V647.468C511.604 649.521 512.271 650.733 513.437 650.733ZM522.143 652.3C519.772 652.3 518.334 650.441 518.334 647.468V647.455C518.334 644.482 519.772 642.629 522.143 642.629C524.514 642.629 525.952 644.482 525.952 647.455V647.468C525.952 650.441 524.514 652.3 522.143 652.3ZM522.143 650.733C523.309 650.733 523.976 649.521 523.976 647.468V647.455C523.976 645.402 523.309 644.197 522.143 644.197C520.977 644.197 520.31 645.402 520.31 647.455V647.468C520.31 649.521 520.977 650.733 522.143 650.733ZM530.849 652.3C528.478 652.3 527.04 650.441 527.04 647.468V647.455C527.04 644.482 528.478 642.629 530.849 642.629C533.219 642.629 534.657 644.482 534.657 647.455V647.468C534.657 650.441 533.219 652.3 530.849 652.3ZM530.849 650.733C532.015 650.733 532.682 649.521 532.682 647.468V647.455C532.682 645.402 532.015 644.197 530.849 644.197C529.683 644.197 529.016 645.402 529.016 647.455V647.468C529.016 649.521 529.683 650.733 530.849 650.733Z" fill="black"/>
</g>
<g clip-path="url(#clip4_1261_3125)">
<rect width="202.149" height="1055" transform="translate(606.236)" fill="#171717"/>
<path d="M654.682 580.794C652.836 580.794 651.783 579.7 651.783 577.758V563.755C651.783 561.813 652.836 560.719 654.682 560.719H660.549C665.814 560.719 668.521 563.194 668.521 567.42C668.521 569.608 667.591 571.672 665.718 572.766L667.783 576.158C668.289 577.006 668.398 577.457 668.398 578.141C668.398 579.686 667.195 580.794 665.513 580.794C664.091 580.794 663.516 580.288 662.491 578.469L659.892 573.833H657.581V577.758C657.581 579.7 656.528 580.794 654.682 580.794ZM657.581 570.004H659.975C661.602 570.004 662.6 569.006 662.6 567.515C662.6 566.052 661.547 564.999 659.988 564.999H657.581V570.004ZM679.571 580.794C674.36 580.794 670.873 577.922 670.873 573.423V563.413C670.873 561.471 671.926 560.377 673.772 560.377C675.619 560.377 676.671 561.471 676.671 563.413V572.78C676.671 574.859 677.697 575.994 679.571 575.994C681.444 575.994 682.47 574.859 682.47 572.78V563.413C682.47 561.471 683.523 560.377 685.369 560.377C687.215 560.377 688.268 561.471 688.268 563.413V573.423C688.268 577.922 684.781 580.794 679.571 580.794ZM693.902 580.452C692.056 580.452 691.003 579.358 691.003 577.416V563.755C691.003 561.813 692.056 560.719 693.902 560.719H700.698C704.732 560.719 707.098 562.565 707.098 565.642C707.098 567.912 705.375 569.621 703.091 569.908V570.018C705.758 570.086 707.987 572.096 707.987 574.708C707.987 578.168 705.252 580.452 701.026 580.452H693.902ZM696.801 568.623H699.044C700.534 568.623 701.464 567.843 701.464 566.654C701.464 565.437 700.589 564.698 699.126 564.698H696.801V568.623ZM696.801 576.472H699.276C701.067 576.472 702.093 575.665 702.093 574.175C702.093 572.766 701.054 571.946 699.317 571.946H696.801V576.472ZM712.8 580.452C710.954 580.452 709.901 579.358 709.901 577.416V563.755C709.901 561.813 710.954 560.719 712.8 560.719H719.597C723.631 560.719 725.997 562.565 725.997 565.642C725.997 567.912 724.274 569.621 721.99 569.908V570.018C724.656 570.086 726.885 572.096 726.885 574.708C726.885 578.168 724.15 580.452 719.925 580.452H712.8ZM715.699 568.623H717.942C719.433 568.623 720.363 567.843 720.363 566.654C720.363 565.437 719.487 564.698 718.024 564.698H715.699V568.623ZM715.699 576.472H718.175C719.966 576.472 720.992 575.665 720.992 574.175C720.992 572.766 719.952 571.946 718.216 571.946H715.699V576.472ZM731.699 580.452C729.853 580.452 728.8 579.358 728.8 577.416V563.755C728.8 561.813 729.853 560.719 731.699 560.719H740.437C741.996 560.719 742.994 561.553 742.994 563.03C742.994 564.507 741.969 565.341 740.437 565.341H734.598V568.514H740.205C741.586 568.514 742.488 569.266 742.488 570.592C742.488 571.919 741.613 572.671 740.205 572.671H734.598V575.83H740.437C741.969 575.83 742.994 576.664 742.994 578.141C742.994 579.617 741.996 580.452 740.437 580.452H731.699ZM748.328 580.794C746.481 580.794 745.429 579.7 745.429 577.758V563.755C745.429 561.813 746.481 560.719 748.328 560.719H754.194C759.459 560.719 762.167 563.194 762.167 567.42C762.167 569.608 761.237 571.672 759.363 572.766L761.428 576.158C761.934 577.006 762.043 577.457 762.043 578.141C762.043 579.686 760.84 580.794 759.158 580.794C757.736 580.794 757.162 580.288 756.136 578.469L753.538 573.833H751.227V577.758C751.227 579.7 750.174 580.794 748.328 580.794ZM751.227 570.004H753.62C755.247 570.004 756.245 569.006 756.245 567.515C756.245 566.052 755.192 564.999 753.633 564.999H751.227V570.004ZM678.6 606.794C672.337 606.794 668.631 603.115 668.631 596.565C668.631 590.097 672.337 586.377 678.422 586.377C682.374 586.377 685.355 588.073 686.517 590.151C686.805 590.685 686.914 591.15 686.914 591.642C686.914 593.091 685.902 594.09 684.425 594.09C683.29 594.09 682.429 593.652 681.718 592.708C680.788 591.464 679.844 590.944 678.449 590.944C675.988 590.944 674.538 592.968 674.538 596.483C674.538 600.079 676.193 602.226 678.736 602.226C680.624 602.226 681.964 601.173 682.128 599.587L682.155 599.313H681.02C679.721 599.313 678.873 598.63 678.873 597.385C678.873 596.141 679.707 595.457 681.02 595.457H684.835C686.681 595.457 687.734 596.551 687.734 598.493C687.734 603.183 684.48 606.794 678.6 606.794ZM692.931 606.794C691.085 606.794 690.032 605.7 690.032 603.758V589.755C690.032 587.813 691.085 586.719 692.931 586.719H698.797C704.062 586.719 706.77 589.194 706.77 593.42C706.77 595.608 705.84 597.672 703.966 598.766L706.031 602.158C706.537 603.006 706.647 603.457 706.647 604.141C706.647 605.686 705.443 606.794 703.761 606.794C702.339 606.794 701.765 606.288 700.739 604.469L698.141 599.833H695.83V603.758C695.83 605.7 694.777 606.794 692.931 606.794ZM695.83 596.004H698.223C699.85 596.004 700.849 595.006 700.849 593.515C700.849 592.052 699.796 590.999 698.237 590.999H695.83V596.004ZM711.665 606.794C709.819 606.794 708.712 605.741 708.712 603.99C708.712 603.484 708.862 602.746 709.122 602.048L713.539 589.85C714.387 587.457 715.823 586.377 718.134 586.377C720.609 586.377 722.031 587.416 722.92 589.85L727.378 602.048C727.651 602.8 727.761 603.347 727.761 603.977C727.761 605.617 726.544 606.794 724.862 606.794C723.152 606.794 722.263 606.014 721.771 604.1L721.429 602.759H715.002L714.66 604.004C714.113 605.987 713.238 606.794 711.665 606.794ZM716.096 598.438H720.212L718.161 591.273H718.052L716.096 598.438ZM735.774 606.794C733.928 606.794 732.875 605.7 732.875 603.758V600.202L727.214 591.163C726.817 590.52 726.612 589.837 726.612 589.167C726.612 587.553 727.856 586.377 729.566 586.377C730.837 586.377 731.521 586.856 732.301 588.291L735.788 594.719H735.897L739.398 588.278C740.136 586.924 740.902 586.377 742.065 586.377C743.719 586.377 744.936 587.539 744.936 589.112C744.936 589.809 744.731 590.479 744.321 591.136L738.673 600.202V603.758C738.673 605.7 737.62 606.794 735.774 606.794Z" fill="white"/>
<rect x="675.387" y="634.242" width="62.792" height="26.792" rx="7.37001" fill="white"/>
<path d="M684.041 652.138H682.596L683.043 649.793H681.599L681.864 648.388H683.315L683.691 646.419H682.195L682.467 645.026H683.957L684.391 642.791H685.829L685.401 645.026H687.105L687.539 642.791H688.983L688.556 645.026H690.071L689.806 646.419H688.29L687.908 648.388H689.469L689.203 649.793H687.642L687.195 652.138H685.744L686.191 649.793H684.481L684.041 652.138ZM684.656 648.465H686.522L686.93 646.341H685.071L684.656 648.465ZM693.07 652.138V644.585H693.032L690.648 646.205V644.469L693.064 642.791H695.007V652.138H693.07ZM697.592 652.138L701.614 644.385V644.346H696.86V642.791H703.545V644.365L699.645 652.138H697.592ZM707.036 652.138V644.585H706.997L704.613 646.205V644.469L707.03 642.791H708.973V652.138H707.036ZM711.557 652.138L715.58 644.385V644.346H710.825V642.791H717.51V644.365L713.611 652.138H711.557ZM721.002 652.138V644.585H720.963L718.579 646.205V644.469L720.995 642.791H722.938V652.138H721.002ZM725.523 652.138L729.546 644.385V644.346H724.791V642.791H731.476V644.365L727.576 652.138H725.523Z" fill="#171717"/>
</g>
<g clip-path="url(#clip5_1261_3125)">
<rect width="202.149" height="1055" transform="translate(808.385)" fill="#2C2C2C"/>
<path d="M863.336 580.794C861.723 580.794 860.806 579.823 860.806 578.113V564.179C860.806 561.744 862.147 560.377 864.567 560.377C866.605 560.377 867.685 561.184 868.505 563.331L871.924 572.233H872.033L875.439 563.331C876.259 561.184 877.339 560.377 879.377 560.377C881.797 560.377 883.137 561.744 883.137 564.179V578.113C883.137 579.823 882.221 580.794 880.608 580.794C878.994 580.794 878.078 579.823 878.078 578.113V569.02H877.968L874.044 578.906C873.647 579.905 873.018 580.356 871.992 580.356C870.953 580.356 870.283 579.891 869.9 578.906L865.976 569.02H865.866V578.113C865.866 579.823 864.95 580.794 863.336 580.794ZM888.785 580.452C886.939 580.452 885.886 579.358 885.886 577.416V563.755C885.886 561.813 886.939 560.719 888.785 560.719H897.523C899.082 560.719 900.081 561.553 900.081 563.03C900.081 564.507 899.055 565.341 897.523 565.341H891.684V568.514H897.291C898.672 568.514 899.575 569.266 899.575 570.592C899.575 571.919 898.699 572.671 897.291 572.671H891.684V575.83H897.523C899.055 575.83 900.081 576.664 900.081 578.141C900.081 579.617 899.082 580.452 897.523 580.452H888.785ZM909.858 580.794C908.012 580.794 906.959 579.7 906.959 577.758V565.341H904.046C902.515 565.341 901.489 564.507 901.489 563.03C901.489 561.553 902.487 560.719 904.046 560.719H915.67C917.229 560.719 918.227 561.553 918.227 563.03C918.227 564.507 917.201 565.341 915.67 565.341H912.757V577.758C912.757 579.7 911.704 580.794 909.858 580.794ZM919.882 580.794C918.036 580.794 916.928 579.741 916.928 577.99C916.928 577.484 917.078 576.746 917.338 576.048L921.755 563.85C922.603 561.457 924.039 560.377 926.35 560.377C928.825 560.377 930.247 561.416 931.136 563.85L935.594 576.048C935.868 576.8 935.977 577.347 935.977 577.977C935.977 579.617 934.76 580.794 933.078 580.794C931.369 580.794 930.48 580.014 929.987 578.1L929.646 576.759H923.218L922.876 578.004C922.329 579.987 921.454 580.794 919.882 580.794ZM924.312 572.438H928.428L926.377 565.273H926.268L924.312 572.438ZM941.214 580.452C939.368 580.452 938.315 579.358 938.315 577.416V563.413C938.315 561.471 939.368 560.377 941.214 560.377C943.061 560.377 944.113 561.471 944.113 563.413V575.83H949.57C951.101 575.83 952.127 576.664 952.127 578.141C952.127 579.617 951.129 580.452 949.57 580.452H941.214ZM880.539 606.794C874.276 606.794 870.57 603.115 870.57 596.565C870.57 590.097 874.276 586.377 880.361 586.377C884.313 586.377 887.295 588.073 888.457 590.151C888.744 590.685 888.854 591.15 888.854 591.642C888.854 593.091 887.842 594.09 886.365 594.09C885.23 594.09 884.368 593.652 883.657 592.708C882.727 591.464 881.784 590.944 880.389 590.944C877.927 590.944 876.478 592.968 876.478 596.483C876.478 600.079 878.132 602.226 880.676 602.226C882.563 602.226 883.903 601.173 884.067 599.587L884.095 599.313H882.96C881.661 599.313 880.813 598.63 880.813 597.385C880.813 596.141 881.647 595.457 882.96 595.457H886.775C888.621 595.457 889.674 596.551 889.674 598.493C889.674 603.183 886.419 606.794 880.539 606.794ZM894.87 606.794C893.024 606.794 891.971 605.7 891.971 603.758V589.755C891.971 587.813 893.024 586.719 894.87 586.719H900.737C906.002 586.719 908.709 589.194 908.709 593.42C908.709 595.608 907.779 597.672 905.906 598.766L907.971 602.158C908.477 603.006 908.586 603.457 908.586 604.141C908.586 605.686 907.383 606.794 905.701 606.794C904.279 606.794 903.704 606.288 902.679 604.469L900.081 599.833H897.77V603.758C897.77 605.7 896.717 606.794 894.87 606.794ZM897.77 596.004H900.163C901.79 596.004 902.788 595.006 902.788 593.515C902.788 592.052 901.735 590.999 900.176 590.999H897.77V596.004ZM913.605 606.794C911.759 606.794 910.651 605.741 910.651 603.99C910.651 603.484 910.802 602.746 911.061 602.048L915.478 589.85C916.326 587.457 917.762 586.377 920.073 586.377C922.548 586.377 923.97 587.416 924.859 589.85L929.317 602.048C929.591 602.8 929.7 603.347 929.7 603.977C929.7 605.617 928.483 606.794 926.801 606.794C925.092 606.794 924.203 606.014 923.711 604.1L923.369 602.759H916.942L916.6 604.004C916.053 605.987 915.178 606.794 913.605 606.794ZM918.036 598.438H922.152L920.1 591.273H919.991L918.036 598.438ZM937.714 606.794C935.868 606.794 934.815 605.7 934.815 603.758V600.202L929.153 591.163C928.757 590.52 928.552 589.837 928.552 589.167C928.552 587.553 929.796 586.377 931.505 586.377C932.777 586.377 933.461 586.856 934.24 588.291L937.727 594.719H937.837L941.337 588.278C942.076 586.924 942.842 586.377 944.004 586.377C945.659 586.377 946.876 587.539 946.876 589.112C946.876 589.809 946.671 590.479 946.26 591.136L940.613 600.202V603.758C940.613 605.7 939.56 606.794 937.714 606.794Z" fill="white"/>
<rect x="872.327" y="634.242" width="72.792" height="26.792" rx="7.37001" fill="white"/>
<path d="M880.889 652.138H879.445L879.891 649.793H878.447L878.713 648.388H880.164L880.539 646.419H879.043L879.315 645.026H880.805L881.239 642.791H882.677L882.249 645.026H883.953L884.387 642.791H885.831L885.404 645.026H886.92L886.654 646.419H885.138L884.756 648.388H886.317L886.052 649.793H884.491L884.044 652.138H882.593L883.04 649.793H881.329L880.889 652.138ZM881.504 648.465H883.37L883.778 646.341H881.919L881.504 648.465ZM887.58 652.138V650.797L890.884 647.708C892.089 646.58 892.341 646.121 892.341 645.473V645.46C892.335 644.695 891.752 644.151 890.923 644.151C889.964 644.151 889.316 644.78 889.29 645.622L889.284 645.68H887.47V645.628C887.47 643.866 888.934 642.629 890.91 642.629C892.885 642.629 894.246 643.756 894.246 645.35V645.363C894.246 646.496 893.708 647.235 892.095 648.718L890.139 650.506V650.584H894.375V652.138H887.58ZM899.758 652.3C897.025 652.3 895.308 650.473 895.308 647.461V647.455C895.308 644.443 897.031 642.629 899.758 642.629C902.025 642.629 903.651 644.061 903.832 646.043L903.839 646.101H901.935L901.909 645.991C901.688 644.961 900.924 644.287 899.758 644.287C898.262 644.287 897.303 645.492 897.303 647.448V647.455C897.303 649.424 898.262 650.642 899.758 650.642C900.885 650.642 901.675 649.994 901.928 648.886L901.941 648.822H903.845L903.839 648.893C903.658 650.882 902.019 652.3 899.758 652.3ZM904.94 652.138V650.797L908.244 647.708C909.449 646.58 909.701 646.121 909.701 645.473V645.46C909.695 644.695 909.112 644.151 908.283 644.151C907.324 644.151 906.676 644.78 906.65 645.622L906.644 645.68H904.83V645.628C904.83 643.866 906.294 642.629 908.27 642.629C910.245 642.629 911.606 643.756 911.606 645.35V645.363C911.606 646.496 911.068 647.235 909.455 648.718L907.499 650.506V650.584H911.735V652.138H904.94ZM917.118 652.3C914.384 652.3 912.668 650.473 912.668 647.461V647.455C912.668 644.443 914.391 642.629 917.118 642.629C919.385 642.629 921.011 644.061 921.192 646.043L921.199 646.101H919.294L919.268 645.991C919.048 644.961 918.284 644.287 917.118 644.287C915.622 644.287 914.663 645.492 914.663 647.448V647.455C914.663 649.424 915.622 650.642 917.118 650.642C918.245 650.642 919.035 649.994 919.288 648.886L919.301 648.822H921.205L921.199 648.893C921.017 650.882 919.379 652.3 917.118 652.3ZM922.3 652.138V650.797L925.604 647.708C926.808 646.58 927.061 646.121 927.061 645.473V645.46C927.054 644.695 926.472 644.151 925.642 644.151C924.684 644.151 924.036 644.78 924.01 645.622L924.004 645.68H922.19V645.628C922.19 643.866 923.654 642.629 925.629 642.629C927.605 642.629 928.965 643.756 928.965 645.35V645.363C928.965 646.496 928.428 647.235 926.815 648.718L924.859 650.506V650.584H929.095V652.138H922.3ZM934.478 652.3C931.744 652.3 930.028 650.473 930.028 647.461V647.455C930.028 644.443 931.751 642.629 934.478 642.629C936.745 642.629 938.371 644.061 938.552 646.043L938.559 646.101H936.654L936.628 645.991C936.408 644.961 935.644 644.287 934.478 644.287C932.981 644.287 932.023 645.492 932.023 647.448V647.455C932.023 649.424 932.981 650.642 934.478 650.642C935.605 650.642 936.395 649.994 936.648 648.886L936.661 648.822H938.565L938.559 648.893C938.377 650.882 936.738 652.3 934.478 652.3Z" fill="#2C2C2C"/>
</g>
<g clip-path="url(#clip6_1261_3125)">
<rect width="202.149" height="1055" transform="translate(1010.53)" fill="#3B3B3B"/>
<path d="M1055.88 580.452C1054.03 580.452 1052.98 579.358 1052.98 577.416V563.413C1052.98 561.471 1054.03 560.377 1055.88 560.377C1057.73 560.377 1058.78 561.471 1058.78 563.413V575.83H1064.23C1065.77 575.83 1066.79 576.664 1066.79 578.141C1066.79 579.617 1065.79 580.452 1064.23 580.452H1055.88ZM1077.35 580.794C1071.24 580.794 1067.41 576.896 1067.41 570.592C1067.41 564.288 1071.25 560.377 1077.35 560.377C1083.45 560.377 1087.29 564.288 1087.29 570.592C1087.29 576.896 1083.45 580.794 1077.35 580.794ZM1077.35 576.171C1079.78 576.171 1081.38 573.997 1081.38 570.592C1081.38 567.173 1079.77 564.999 1077.35 564.999C1074.93 564.999 1073.31 567.173 1073.31 570.592C1073.31 573.997 1074.91 576.171 1077.35 576.171ZM1099.01 580.794C1092.75 580.794 1089.07 577.088 1089.07 570.578C1089.07 564.069 1092.83 560.377 1098.79 560.377C1102.57 560.377 1105.35 561.813 1106.91 564.562C1107.31 565.245 1107.52 565.97 1107.52 566.667C1107.52 568.144 1106.52 569.102 1105 569.102C1103.74 569.102 1102.98 568.609 1102.35 567.392C1101.47 565.71 1100.38 564.931 1098.86 564.931C1096.48 564.931 1094.98 567.037 1094.98 570.565C1094.98 574.134 1096.47 576.24 1098.87 576.24C1100.46 576.24 1101.57 575.433 1102.4 573.683C1102.99 572.438 1103.69 571.96 1104.9 571.96C1106.56 571.96 1107.64 572.972 1107.64 574.517C1107.64 575.009 1107.53 575.529 1107.32 576.035C1106.18 578.893 1102.85 580.794 1099.01 580.794ZM1113.15 580.794C1111.3 580.794 1110.25 579.7 1110.25 577.758V563.413C1110.25 561.471 1111.3 560.377 1113.15 560.377C1115 560.377 1116.05 561.471 1116.05 563.413V568.541H1116.16L1122.22 561.69C1123.05 560.76 1123.8 560.377 1124.79 560.377C1126.3 560.377 1127.54 561.567 1127.54 563.057C1127.54 563.932 1127.23 564.562 1126.41 565.437L1122.34 569.785L1126.61 575.064C1127.6 576.295 1128.03 577.17 1128.03 577.99C1128.03 579.576 1126.82 580.794 1125.24 580.794C1123.99 580.794 1123.15 580.329 1122.2 579.125L1117.77 573.505L1116.05 575.283V577.758C1116.05 579.7 1115 580.794 1113.15 580.794ZM1132.92 580.452C1131.08 580.452 1130.02 579.358 1130.02 577.416V563.755C1130.02 561.813 1131.08 560.719 1132.92 560.719H1141.66C1143.22 560.719 1144.22 561.553 1144.22 563.03C1144.22 564.507 1143.19 565.341 1141.66 565.341H1135.82V568.514H1141.43C1142.81 568.514 1143.71 569.266 1143.71 570.592C1143.71 571.919 1142.84 572.671 1141.43 572.671H1135.82V575.83H1141.66C1143.19 575.83 1144.22 576.664 1144.22 578.141C1144.22 579.617 1143.22 580.452 1141.66 580.452H1132.92ZM1149.55 580.794C1147.71 580.794 1146.65 579.7 1146.65 577.758V563.755C1146.65 561.813 1147.71 560.719 1149.55 560.719H1155.42C1160.68 560.719 1163.39 563.194 1163.39 567.42C1163.39 569.608 1162.46 571.672 1160.59 572.766L1162.65 576.158C1163.16 577.006 1163.27 577.457 1163.27 578.141C1163.27 579.686 1162.06 580.794 1160.38 580.794C1158.96 580.794 1158.39 580.288 1157.36 578.469L1154.76 573.833H1152.45V577.758C1152.45 579.7 1151.4 580.794 1149.55 580.794ZM1152.45 570.004H1154.84C1156.47 570.004 1157.47 569.006 1157.47 567.515C1157.47 566.052 1156.42 564.999 1154.86 564.999H1152.45V570.004ZM1082.48 606.794C1076.21 606.794 1072.51 603.115 1072.51 596.565C1072.51 590.097 1076.21 586.377 1082.3 586.377C1086.25 586.377 1089.23 588.073 1090.39 590.151C1090.68 590.685 1090.79 591.15 1090.79 591.642C1090.79 593.091 1089.78 594.09 1088.3 594.09C1087.17 594.09 1086.31 593.652 1085.59 592.708C1084.66 591.464 1083.72 590.944 1082.33 590.944C1079.86 590.944 1078.42 592.968 1078.42 596.483C1078.42 600.079 1080.07 602.226 1082.61 602.226C1084.5 602.226 1085.84 601.173 1086 599.587L1086.03 599.313H1084.9C1083.6 599.313 1082.75 598.63 1082.75 597.385C1082.75 596.141 1083.58 595.457 1084.9 595.457H1088.71C1090.56 595.457 1091.61 596.551 1091.61 598.493C1091.61 603.183 1088.36 606.794 1082.48 606.794ZM1096.81 606.794C1094.96 606.794 1093.91 605.7 1093.91 603.758V589.755C1093.91 587.813 1094.96 586.719 1096.81 586.719H1102.67C1107.94 586.719 1110.65 589.194 1110.65 593.42C1110.65 595.608 1109.72 597.672 1107.84 598.766L1109.91 602.158C1110.41 603.006 1110.52 603.457 1110.52 604.141C1110.52 605.686 1109.32 606.794 1107.64 606.794C1106.22 606.794 1105.64 606.288 1104.62 604.469L1102.02 599.833H1099.71V603.758C1099.71 605.7 1098.65 606.794 1096.81 606.794ZM1099.71 596.004H1102.1C1103.73 596.004 1104.73 595.006 1104.73 593.515C1104.73 592.052 1103.67 590.999 1102.11 590.999H1099.71V596.004ZM1115.54 606.794C1113.7 606.794 1112.59 605.741 1112.59 603.99C1112.59 603.484 1112.74 602.746 1113 602.048L1117.42 589.85C1118.26 587.457 1119.7 586.377 1122.01 586.377C1124.49 586.377 1125.91 587.416 1126.8 589.85L1131.25 602.048C1131.53 602.8 1131.64 603.347 1131.64 603.977C1131.64 605.617 1130.42 606.794 1128.74 606.794C1127.03 606.794 1126.14 606.014 1125.65 604.1L1125.31 602.759H1118.88L1118.54 604.004C1117.99 605.987 1117.12 606.794 1115.54 606.794ZM1119.97 598.438H1124.09L1122.04 591.273H1121.93L1119.97 598.438ZM1139.65 606.794C1137.81 606.794 1136.75 605.7 1136.75 603.758V600.202L1131.09 591.163C1130.69 590.52 1130.49 589.837 1130.49 589.167C1130.49 587.553 1131.73 586.377 1133.44 586.377C1134.71 586.377 1135.4 586.856 1136.18 588.291L1139.66 594.719H1139.77L1143.28 588.278C1144.01 586.924 1144.78 586.377 1145.94 586.377C1147.6 586.377 1148.81 587.539 1148.81 589.112C1148.81 589.809 1148.61 590.479 1148.2 591.136L1142.55 600.202V603.758C1142.55 605.7 1141.5 606.794 1139.65 606.794Z" fill="white"/>
<rect x="1075.26" y="634.242" width="70.792" height="26.792" rx="7.37001" fill="white"/>
<path d="M1083.6 652.138H1082.16L1082.61 649.793H1081.16L1081.43 648.388H1082.88L1083.25 646.419H1081.76L1082.03 645.026H1083.52L1083.95 642.791H1085.39L1084.96 645.026H1086.67L1087.1 642.791H1088.55L1088.12 645.026H1089.63L1089.37 646.419H1087.85L1087.47 648.388H1089.03L1088.77 649.793H1087.21L1086.76 652.138H1085.31L1085.75 649.793H1084.04L1083.6 652.138ZM1084.22 648.465H1086.08L1086.49 646.341H1084.63L1084.22 648.465ZM1093.77 652.3C1091.66 652.3 1090.27 651.186 1090.14 649.573L1090.13 649.489H1092L1092.01 649.56C1092.1 650.227 1092.76 650.726 1093.77 650.726C1094.77 650.726 1095.42 650.188 1095.42 649.424V649.411C1095.42 648.517 1094.75 648.025 1093.62 648.025H1092.56V646.632H1093.6C1094.58 646.632 1095.21 646.114 1095.21 645.356V645.343C1095.21 644.585 1094.67 644.132 1093.75 644.132C1092.84 644.132 1092.22 644.605 1092.14 645.33L1092.13 645.389H1090.34L1090.35 645.311C1090.48 643.691 1091.79 642.629 1093.75 642.629C1095.77 642.629 1097.06 643.614 1097.06 645.084V645.097C1097.06 646.263 1096.21 647.021 1095.11 647.248V647.286C1096.5 647.416 1097.41 648.219 1097.41 649.489V649.502C1097.41 651.173 1095.96 652.3 1093.77 652.3ZM1098.77 652.138V642.791H1102.84C1104.6 642.791 1105.71 643.698 1105.71 645.136V645.149C1105.71 646.172 1104.93 647.047 1103.9 647.183V647.222C1105.2 647.319 1106.14 648.239 1106.14 649.463V649.476C1106.14 651.115 1104.9 652.138 1102.91 652.138H1098.77ZM1102.33 644.242H1100.72V646.697H1102.09C1103.19 646.697 1103.78 646.237 1103.78 645.427V645.414C1103.78 644.67 1103.24 644.242 1102.33 644.242ZM1102.32 648.025H1100.72V650.681H1102.41C1103.53 650.681 1104.14 650.221 1104.14 649.353V649.34C1104.14 648.485 1103.52 648.025 1102.32 648.025ZM1110.62 652.3C1108.5 652.3 1107.11 651.186 1106.98 649.573L1106.97 649.489H1108.84L1108.85 649.56C1108.94 650.227 1109.6 650.726 1110.61 650.726C1111.61 650.726 1112.26 650.188 1112.26 649.424V649.411C1112.26 648.517 1111.59 648.025 1110.47 648.025H1109.4V646.632H1110.44C1111.42 646.632 1112.05 646.114 1112.05 645.356V645.343C1112.05 644.585 1111.52 644.132 1110.6 644.132C1109.68 644.132 1109.06 644.605 1108.98 645.33L1108.98 645.389H1107.18L1107.19 645.311C1107.32 643.691 1108.63 642.629 1110.6 642.629C1112.61 642.629 1113.91 643.614 1113.91 645.084V645.097C1113.91 646.263 1113.05 647.021 1111.96 647.248V647.286C1113.34 647.416 1114.25 648.219 1114.25 649.489V649.502C1114.25 651.173 1112.8 652.3 1110.62 652.3ZM1115.61 652.138V642.791H1119.68C1121.44 642.791 1122.55 643.698 1122.55 645.136V645.149C1122.55 646.172 1121.77 647.047 1120.74 647.183V647.222C1122.04 647.319 1122.98 648.239 1122.98 649.463V649.476C1122.98 651.115 1121.74 652.138 1119.75 652.138H1115.61ZM1119.17 644.242H1117.57V646.697H1118.93C1120.03 646.697 1120.62 646.237 1120.62 645.427V645.414C1120.62 644.67 1120.09 644.242 1119.17 644.242ZM1119.17 648.025H1117.57V650.681H1119.25C1120.37 650.681 1120.99 650.221 1120.99 649.353V649.34C1120.99 648.485 1120.36 648.025 1119.17 648.025ZM1127.46 652.3C1125.34 652.3 1123.95 651.186 1123.82 649.573L1123.82 649.489H1125.68L1125.69 649.56C1125.78 650.227 1126.44 650.726 1127.45 650.726C1128.45 650.726 1129.1 650.188 1129.1 649.424V649.411C1129.1 648.517 1128.43 648.025 1127.31 648.025H1126.24V646.632H1127.28C1128.26 646.632 1128.89 646.114 1128.89 645.356V645.343C1128.89 644.585 1128.36 644.132 1127.44 644.132C1126.52 644.132 1125.9 644.605 1125.82 645.33L1125.82 645.389H1124.02L1124.03 645.311C1124.16 643.691 1125.47 642.629 1127.44 642.629C1129.45 642.629 1130.75 643.614 1130.75 645.084V645.097C1130.75 646.263 1129.89 647.021 1128.8 647.248V647.286C1130.18 647.416 1131.09 648.219 1131.09 649.489V649.502C1131.09 651.173 1129.64 652.3 1127.46 652.3ZM1132.45 652.138V642.791H1136.52C1138.28 642.791 1139.39 643.698 1139.39 645.136V645.149C1139.39 646.172 1138.61 647.047 1137.58 647.183V647.222C1138.88 647.319 1139.82 648.239 1139.82 649.463V649.476C1139.82 651.115 1138.59 652.138 1136.59 652.138H1132.45ZM1136.01 644.242H1134.41V646.697H1135.77C1136.88 646.697 1137.46 646.237 1137.46 645.427V645.414C1137.46 644.67 1136.93 644.242 1136.01 644.242ZM1136.01 648.025H1134.41V650.681H1136.09C1137.21 650.681 1137.83 650.221 1137.83 649.353V649.34C1137.83 648.485 1137.21 648.025 1136.01 648.025Z" fill="#3B3B3B"/>
</g>
<g clip-path="url(#clip7_1261_3125)">
<rect width="202.149" height="1055" transform="translate(1212.68)" fill="white"/>
<path d="M1269.65 580.794C1267.8 580.794 1266.75 579.7 1266.75 577.758V565.341H1263.84C1262.3 565.341 1261.28 564.507 1261.28 563.03C1261.28 561.553 1262.28 560.719 1263.84 560.719H1275.46C1277.02 560.719 1278.02 561.553 1278.02 563.03C1278.02 564.507 1276.99 565.341 1275.46 565.341H1272.55V577.758C1272.55 579.7 1271.49 580.794 1269.65 580.794ZM1288.23 580.794C1282.12 580.794 1278.29 576.896 1278.29 570.592C1278.29 564.288 1282.13 560.377 1288.23 560.377C1294.33 560.377 1298.17 564.288 1298.17 570.592C1298.17 576.896 1294.33 580.794 1288.23 580.794ZM1288.23 576.171C1290.67 576.171 1292.27 573.997 1292.27 570.592C1292.27 567.173 1290.65 564.999 1288.23 564.999C1285.81 564.999 1284.2 567.173 1284.2 570.592C1284.2 573.997 1285.8 576.171 1288.23 576.171ZM1306.73 580.794C1304.87 580.794 1303.86 579.905 1303.29 577.758L1299.87 565.026C1299.68 564.302 1299.54 563.481 1299.54 562.962C1299.54 561.321 1300.59 560.377 1302.4 560.377C1303.92 560.377 1304.82 561.211 1305.16 562.948L1307.18 573.19H1307.29L1309.77 562.674C1310.14 561.102 1311 560.377 1312.48 560.377C1313.9 560.377 1314.83 561.17 1315.18 562.674L1317.66 573.19H1317.77L1319.79 562.948C1320.14 561.211 1321.04 560.377 1322.56 560.377C1324.36 560.377 1325.41 561.321 1325.41 562.962C1325.41 563.468 1325.29 564.274 1325.09 565.026L1321.65 577.799C1321.08 579.891 1320.07 580.794 1318.26 580.794C1316.36 580.794 1315.34 579.905 1314.77 577.771L1312.53 569.156H1312.42L1310.18 577.771C1309.65 579.85 1308.57 580.794 1306.73 580.794ZM1330.84 580.452C1329 580.452 1327.94 579.358 1327.94 577.416V563.755C1327.94 561.813 1329 560.719 1330.84 560.719H1339.58C1341.14 560.719 1342.14 561.553 1342.14 563.03C1342.14 564.507 1341.11 565.341 1339.58 565.341H1333.74V568.514H1339.35C1340.73 568.514 1341.63 569.266 1341.63 570.592C1341.63 571.919 1340.76 572.671 1339.35 572.671H1333.74V575.83H1339.58C1341.11 575.83 1342.14 576.664 1342.14 578.141C1342.14 579.617 1341.14 580.452 1339.58 580.452H1330.84ZM1347.47 580.452C1345.62 580.452 1344.57 579.358 1344.57 577.416V563.413C1344.57 561.471 1345.62 560.377 1347.47 560.377C1349.32 560.377 1350.37 561.471 1350.37 563.413V575.83H1355.83C1357.36 575.83 1358.38 576.664 1358.38 578.141C1358.38 579.617 1357.39 580.452 1355.83 580.452H1347.47ZM1274.93 606.794C1273.07 606.794 1272.05 605.905 1271.48 603.758L1268.06 591.026C1267.87 590.302 1267.73 589.481 1267.73 588.962C1267.73 587.321 1268.79 586.377 1270.59 586.377C1272.11 586.377 1273.01 587.211 1273.35 588.948L1275.38 599.19H1275.49L1277.96 588.674C1278.33 587.102 1279.19 586.377 1280.67 586.377C1282.09 586.377 1283.02 587.17 1283.38 588.674L1285.85 599.19H1285.96L1287.99 588.948C1288.33 587.211 1289.23 586.377 1290.75 586.377C1292.55 586.377 1293.61 587.321 1293.61 588.962C1293.61 589.468 1293.48 590.274 1293.28 591.026L1289.85 603.799C1289.27 605.891 1288.26 606.794 1286.45 606.794C1284.55 606.794 1283.53 605.905 1282.97 603.771L1280.72 595.156H1280.61L1278.37 603.771C1277.84 605.85 1276.76 606.794 1274.93 606.794ZM1299.03 606.794C1297.19 606.794 1296.14 605.7 1296.14 603.758V589.413C1296.14 587.471 1297.19 586.377 1299.03 586.377C1300.88 586.377 1301.93 587.471 1301.93 589.413V594.213H1308.88V589.413C1308.88 587.471 1309.93 586.377 1311.78 586.377C1313.63 586.377 1314.68 587.471 1314.68 589.413V603.758C1314.68 605.7 1313.63 606.794 1311.78 606.794C1309.93 606.794 1308.88 605.7 1308.88 603.758V598.821H1301.93V603.758C1301.93 605.7 1300.88 606.794 1299.03 606.794ZM1320.31 606.794C1318.47 606.794 1317.41 605.7 1317.41 603.758V589.413C1317.41 587.471 1318.47 586.377 1320.31 586.377C1322.16 586.377 1323.21 587.471 1323.21 589.413V603.758C1323.21 605.7 1322.16 606.794 1320.31 606.794ZM1333.29 606.794C1331.44 606.794 1330.39 605.7 1330.39 603.758V591.341H1327.48C1325.95 591.341 1324.92 590.507 1324.92 589.03C1324.92 587.553 1325.92 586.719 1327.48 586.719H1339.1C1340.66 586.719 1341.66 587.553 1341.66 589.03C1341.66 590.507 1340.63 591.341 1339.1 591.341H1336.19V603.758C1336.19 605.7 1335.14 606.794 1333.29 606.794ZM1346.27 606.452C1344.42 606.452 1343.37 605.358 1343.37 603.416V589.755C1343.37 587.813 1344.42 586.719 1346.27 586.719H1355.01C1356.56 586.719 1357.56 587.553 1357.56 589.03C1357.56 590.507 1356.54 591.341 1355.01 591.341H1349.17V594.514H1354.77C1356.15 594.514 1357.06 595.266 1357.06 596.592C1357.06 597.919 1356.18 598.671 1354.77 598.671H1349.17V601.83H1355.01C1356.54 601.83 1357.56 602.664 1357.56 604.141C1357.56 605.617 1356.56 606.452 1355.01 606.452H1346.27Z" fill="black"/>
<rect x="1280.2" y="634.242" width="64.792" height="26.792" rx="7.37001" fill="#171717"/>
<path d="M1288.96 652.138H1287.52L1287.97 649.793H1286.52L1286.79 648.388H1288.24L1288.61 646.419H1287.12L1287.39 645.026H1288.88L1289.31 642.791H1290.75L1290.32 645.026H1292.03L1292.46 642.791H1293.91L1293.48 645.026H1294.99L1294.73 646.419H1293.21L1292.83 648.388H1294.39L1294.13 649.793H1292.57L1292.12 652.138H1290.67L1291.11 649.793H1289.4L1288.96 652.138ZM1289.58 648.465H1291.44L1291.85 646.341H1289.99L1289.58 648.465ZM1295.77 652.138V642.791H1301.89V644.404H1297.73V646.911H1301.53V648.459H1297.73V652.138H1295.77ZM1303.05 652.138V642.791H1309.17V644.404H1305.01V646.911H1308.81V648.459H1305.01V652.138H1303.05ZM1310.33 652.138V642.791H1316.45V644.404H1312.29V646.911H1316.09V648.459H1312.29V652.138H1310.33ZM1317.61 652.138V642.791H1323.74V644.404H1319.57V646.911H1323.37V648.459H1319.57V652.138H1317.61ZM1324.89 652.138V642.791H1331.02V644.404H1326.85V646.911H1330.65V648.459H1326.85V652.138H1324.89ZM1332.18 652.138V642.791H1338.3V644.404H1334.13V646.911H1337.93V648.459H1334.13V652.138H1332.18Z" fill="white"/>
</g>
<g clip-path="url(#clip8_1261_3125)">
<rect width="202.149" height="1055" transform="translate(1414.83)" fill="#FFD84F"/>
<path d="M1463.11 580.794C1456.85 580.794 1453.17 577.088 1453.17 570.578C1453.17 564.069 1456.93 560.377 1462.89 560.377C1466.67 560.377 1469.46 561.813 1471.02 564.562C1471.41 565.245 1471.62 565.97 1471.62 566.667C1471.62 568.144 1470.62 569.102 1469.1 569.102C1467.84 569.102 1467.08 568.609 1466.45 567.392C1465.57 565.71 1464.48 564.931 1462.96 564.931C1460.58 564.931 1459.08 567.037 1459.08 570.565C1459.08 574.134 1460.57 576.24 1462.97 576.24C1464.56 576.24 1465.67 575.433 1466.5 573.683C1467.09 572.438 1467.79 571.96 1469 571.96C1470.66 571.96 1471.74 572.972 1471.74 574.517C1471.74 575.009 1471.63 575.529 1471.43 576.035C1470.28 578.893 1466.95 580.794 1463.11 580.794ZM1477.25 580.794C1475.4 580.794 1474.35 579.7 1474.35 577.758V563.413C1474.35 561.471 1475.4 560.377 1477.25 560.377C1479.1 560.377 1480.15 561.471 1480.15 563.413V568.213H1487.1V563.413C1487.1 561.471 1488.15 560.377 1490 560.377C1491.84 560.377 1492.89 561.471 1492.89 563.413V577.758C1492.89 579.7 1491.84 580.794 1490 580.794C1488.15 580.794 1487.1 579.7 1487.1 577.758V572.821H1480.15V577.758C1480.15 579.7 1479.1 580.794 1477.25 580.794ZM1498.17 580.794C1496.33 580.794 1495.22 579.741 1495.22 577.99C1495.22 577.484 1495.37 576.746 1495.63 576.048L1500.05 563.85C1500.89 561.457 1502.33 560.377 1504.64 560.377C1507.12 560.377 1508.54 561.416 1509.43 563.85L1513.89 576.048C1514.16 576.8 1514.27 577.347 1514.27 577.977C1514.27 579.617 1513.05 580.794 1511.37 580.794C1509.66 580.794 1508.77 580.014 1508.28 578.1L1507.94 576.759H1501.51L1501.17 578.004C1500.62 579.987 1499.75 580.794 1498.17 580.794ZM1502.6 572.438H1506.72L1504.67 565.273H1504.56L1502.6 572.438ZM1519.51 580.794C1517.66 580.794 1516.61 579.7 1516.61 577.758V563.755C1516.61 561.813 1517.66 560.719 1519.51 560.719H1525.37C1530.64 560.719 1533.35 563.194 1533.35 567.42C1533.35 569.608 1532.42 571.672 1530.54 572.766L1532.61 576.158C1533.11 577.006 1533.22 577.457 1533.22 578.141C1533.22 579.686 1532.02 580.794 1530.34 580.794C1528.91 580.794 1528.34 580.288 1527.31 578.469L1524.72 573.833H1522.41V577.758C1522.41 579.7 1521.35 580.794 1519.51 580.794ZM1522.41 570.004H1524.8C1526.43 570.004 1527.42 569.006 1527.42 567.515C1527.42 566.052 1526.37 564.999 1524.81 564.999H1522.41V570.004ZM1545.19 580.794C1538.92 580.794 1535.22 577.115 1535.22 570.565C1535.22 564.097 1538.92 560.377 1545.01 560.377C1548.96 560.377 1551.94 562.073 1553.11 564.151C1553.39 564.685 1553.5 565.15 1553.5 565.642C1553.5 567.091 1552.49 568.09 1551.01 568.09C1549.88 568.09 1549.02 567.652 1548.31 566.708C1547.38 565.464 1546.43 564.944 1545.04 564.944C1542.58 564.944 1541.13 566.968 1541.13 570.483C1541.13 574.079 1542.78 576.226 1545.32 576.226C1547.21 576.226 1548.55 575.173 1548.72 573.587L1548.74 573.313H1547.61C1546.31 573.313 1545.46 572.63 1545.46 571.385C1545.46 570.141 1546.3 569.457 1547.61 569.457H1551.42C1553.27 569.457 1554.32 570.551 1554.32 572.493C1554.32 577.183 1551.07 580.794 1545.19 580.794ZM1559.52 580.452C1557.67 580.452 1556.62 579.358 1556.62 577.416V563.755C1556.62 561.813 1557.67 560.719 1559.52 560.719H1568.26C1569.82 560.719 1570.81 561.553 1570.81 563.03C1570.81 564.507 1569.79 565.341 1568.26 565.341H1562.42V568.514H1568.02C1569.41 568.514 1570.31 569.266 1570.31 570.592C1570.31 571.919 1569.43 572.671 1568.02 572.671H1562.42V575.83H1568.26C1569.79 575.83 1570.81 576.664 1570.81 578.141C1570.81 579.617 1569.82 580.452 1568.26 580.452H1559.52ZM1466.53 606.794C1464.68 606.794 1463.63 605.7 1463.63 603.758V600.202L1457.97 591.163C1457.57 590.52 1457.37 589.837 1457.37 589.167C1457.37 587.553 1458.61 586.377 1460.32 586.377C1461.59 586.377 1462.28 586.856 1463.06 588.291L1466.54 594.719H1466.65L1470.15 588.278C1470.89 586.924 1471.66 586.377 1472.82 586.377C1474.47 586.377 1475.69 587.539 1475.69 589.112C1475.69 589.809 1475.49 590.479 1475.08 591.136L1469.43 600.202V603.758C1469.43 605.7 1468.38 606.794 1466.53 606.794ZM1480.85 606.452C1479 606.452 1477.95 605.358 1477.95 603.416V589.755C1477.95 587.813 1479 586.719 1480.85 586.719H1489.59C1491.14 586.719 1492.14 587.553 1492.14 589.03C1492.14 590.507 1491.12 591.341 1489.59 591.341H1483.75V594.514H1489.35C1490.73 594.514 1491.64 595.266 1491.64 596.592C1491.64 597.919 1490.76 598.671 1489.35 598.671H1483.75V601.83H1489.59C1491.12 601.83 1492.14 602.664 1492.14 604.141C1492.14 605.617 1491.14 606.452 1489.59 606.452H1480.85ZM1497.48 606.452C1495.63 606.452 1494.58 605.358 1494.58 603.416V589.413C1494.58 587.471 1495.63 586.377 1497.48 586.377C1499.32 586.377 1500.38 587.471 1500.38 589.413V601.83H1505.83C1507.36 601.83 1508.39 602.664 1508.39 604.141C1508.39 605.617 1507.39 606.452 1505.83 606.452H1497.48ZM1513.2 606.452C1511.36 606.452 1510.3 605.358 1510.3 603.416V589.413C1510.3 587.471 1511.36 586.377 1513.2 586.377C1515.05 586.377 1516.1 587.471 1516.1 589.413V601.83H1521.56C1523.09 601.83 1524.11 602.664 1524.11 604.141C1524.11 605.617 1523.12 606.452 1521.56 606.452H1513.2ZM1534.67 606.794C1528.56 606.794 1524.73 602.896 1524.73 596.592C1524.73 590.288 1528.57 586.377 1534.67 586.377C1540.77 586.377 1544.61 590.288 1544.61 596.592C1544.61 602.896 1540.77 606.794 1534.67 606.794ZM1534.67 602.171C1537.11 602.171 1538.71 599.997 1538.71 596.592C1538.71 593.173 1537.09 590.999 1534.67 590.999C1532.25 590.999 1530.64 593.173 1530.64 596.592C1530.64 599.997 1532.24 602.171 1534.67 602.171ZM1553.17 606.794C1551.31 606.794 1550.3 605.905 1549.73 603.758L1546.31 591.026C1546.12 590.302 1545.98 589.481 1545.98 588.962C1545.98 587.321 1547.03 586.377 1548.84 586.377C1550.36 586.377 1551.26 587.211 1551.6 588.948L1553.62 599.19H1553.73L1556.21 588.674C1556.58 587.102 1557.44 586.377 1558.92 586.377C1560.34 586.377 1561.27 587.17 1561.62 588.674L1564.1 599.19H1564.21L1566.23 588.948C1566.57 587.211 1567.48 586.377 1569 586.377C1570.8 586.377 1571.85 587.321 1571.85 588.962C1571.85 589.468 1571.73 590.274 1571.53 591.026L1568.09 603.799C1567.52 605.891 1566.51 606.794 1564.7 606.794C1562.8 606.794 1561.77 605.905 1561.21 603.771L1558.97 595.156H1558.86L1556.62 603.771C1556.09 605.85 1555.01 606.794 1553.17 606.794Z" fill="black"/>
<rect x="1480.35" y="634.242" width="68.792" height="26.792" rx="7.37001" fill="#171717"/>
<path d="M1488.79 652.138H1487.34L1487.79 649.793H1486.34L1486.61 648.388H1488.06L1488.44 646.419H1486.94L1487.21 645.026H1488.7L1489.14 642.791H1490.57L1490.15 645.026H1491.85L1492.28 642.791H1493.73L1493.3 645.026H1494.82L1494.55 646.419H1493.03L1492.65 648.388H1494.21L1493.95 649.793H1492.39L1491.94 652.138H1490.49L1490.94 649.793H1489.23L1488.79 652.138ZM1489.4 648.465H1491.27L1491.67 646.341H1489.82L1489.4 648.465ZM1495.59 652.138V642.791H1501.71V644.404H1497.55V646.911H1501.35V648.459H1497.55V652.138H1495.59ZM1502.87 652.138V642.791H1509V644.404H1504.83V646.911H1508.63V648.459H1504.83V652.138H1502.87ZM1510.15 652.138V642.791H1513.72C1516.52 642.791 1518.18 644.456 1518.18 647.416V647.429C1518.18 650.396 1516.53 652.138 1513.72 652.138H1510.15ZM1512.11 650.519H1513.49C1515.24 650.519 1516.19 649.456 1516.19 647.435V647.423C1516.19 645.473 1515.21 644.404 1513.49 644.404H1512.11V650.519ZM1522.97 652.3C1520.75 652.3 1519.2 651.192 1519.2 649.586V649.573C1519.2 648.362 1520.1 647.468 1521.36 647.222V647.183C1520.28 646.917 1519.55 646.133 1519.55 645.136V645.123C1519.55 643.679 1520.95 642.629 1522.97 642.629C1524.99 642.629 1526.4 643.679 1526.4 645.123V645.136C1526.4 646.133 1525.66 646.917 1524.59 647.183V647.222C1525.84 647.468 1526.74 648.362 1526.74 649.573V649.586C1526.74 651.192 1525.2 652.3 1522.97 652.3ZM1522.97 646.593C1523.85 646.593 1524.46 646.069 1524.46 645.317V645.304C1524.46 644.559 1523.85 644.041 1522.97 644.041C1522.1 644.041 1521.48 644.559 1521.48 645.304V645.317C1521.48 646.069 1522.09 646.593 1522.97 646.593ZM1522.97 650.875C1523.99 650.875 1524.71 650.279 1524.71 649.456V649.444C1524.71 648.614 1524 648.012 1522.97 648.012C1521.94 648.012 1521.23 648.614 1521.23 649.444V649.456C1521.23 650.279 1521.95 650.875 1522.97 650.875ZM1532.4 652.138V650.422H1527.75V648.789L1531.5 642.791H1534.26V648.861H1535.49V650.422H1534.26V652.138H1532.4ZM1529.45 648.912H1532.44V644.203H1532.39L1529.45 648.861V648.912ZM1536.65 652.138V642.791H1542.77V644.404H1538.6V646.911H1542.41V648.459H1538.6V652.138H1536.65Z" fill="white"/>
</g>
</g>
<defs>
<clipPath id="clip0_1261_3125">
<rect width="1616.98" height="1055" fill="white"/>
</clipPath>
<clipPath id="clip1_1261_3125">
<rect width="201.938" height="1055" fill="white"/>
</clipPath>
<clipPath id="clip2_1261_3125">
<rect width="202.149" height="1055" fill="white" transform="translate(201.938)"/>
</clipPath>
<clipPath id="clip3_1261_3125">
<rect width="202.149" height="1055" fill="white" transform="translate(404.087)"/>
</clipPath>
<clipPath id="clip4_1261_3125">
<rect width="202.149" height="1055" fill="white" transform="translate(606.236)"/>
</clipPath>
<clipPath id="clip5_1261_3125">
<rect width="202.149" height="1055" fill="white" transform="translate(808.385)"/>
</clipPath>
<clipPath id="clip6_1261_3125">
<rect width="202.149" height="1055" fill="white" transform="translate(1010.53)"/>
</clipPath>
<clipPath id="clip7_1261_3125">
<rect width="202.149" height="1055" fill="white" transform="translate(1212.68)"/>
</clipPath>
<clipPath id="clip8_1261_3125">
<rect width="202.149" height="1055" fill="white" transform="translate(1414.83)"/>
</clipPath>
</defs>
</svg>
