<svg width="2287" height="858" viewBox="0 0 2287 858" fill="none" xmlns="http://www.w3.org/2000/svg">
<rect y="0.978516" width="626.871" height="329.251" rx="164.626" fill="#F5F5F5"/>
<rect x="791.617" y="0.951172" width="626.871" height="329.251" rx="164.626" fill="#F5F5F5"/>
<rect x="1660.13" y="0.951172" width="626.871" height="329.251" rx="164.626" fill="#F5F5F5"/>
<path d="M604.681 165.588C604.681 177.843 614.616 187.778 626.871 187.778C639.126 187.778 649.061 177.843 649.061 165.588C649.061 153.333 639.126 143.398 626.871 143.398C614.616 143.398 604.681 153.333 604.681 165.588ZM769.428 165.588C769.428 177.843 779.362 187.778 791.618 187.778C803.873 187.778 813.808 177.843 813.808 165.588C813.808 153.333 803.873 143.398 791.618 143.398C779.362 143.398 769.428 153.333 769.428 165.588ZM626.871 169.749H791.618V161.427H626.871V169.749Z" fill="#A4A4A4"/>
<path d="M900.624 131.56V141.901H911.897V145.229H900.624V155.88H913.228V159.209H896.586V128.232H913.228V131.56H900.624ZM932.032 159.209L926.263 150.155L920.715 159.209H916.499L924.354 147.138L916.499 134.889H921.07L926.84 143.898L932.343 134.889H936.559L928.748 146.916L936.603 159.209H932.032ZM944.615 139.371C945.413 137.98 946.597 136.827 948.165 135.909C949.763 134.963 951.612 134.489 953.713 134.489C955.872 134.489 957.825 135.007 959.571 136.042C961.346 137.078 962.737 138.543 963.742 140.436C964.748 142.3 965.251 144.475 965.251 146.96C965.251 149.416 964.748 151.605 963.742 153.528C962.737 155.451 961.346 156.946 959.571 158.011C957.825 159.076 955.872 159.608 953.713 159.608C951.641 159.608 949.807 159.15 948.209 158.233C946.641 157.286 945.443 156.117 944.615 154.727V170.748H940.576V134.889H944.615V139.371ZM961.124 146.96C961.124 145.126 960.754 143.528 960.015 142.167C959.275 140.806 958.269 139.77 956.997 139.06C955.754 138.35 954.378 137.995 952.869 137.995C951.39 137.995 950.014 138.365 948.742 139.105C947.499 139.815 946.493 140.865 945.724 142.256C944.984 143.617 944.615 145.2 944.615 147.004C944.615 148.839 944.984 150.451 945.724 151.842C946.493 153.203 947.499 154.253 948.742 154.993C950.014 155.703 951.39 156.058 952.869 156.058C954.378 156.058 955.754 155.703 956.997 154.993C958.269 154.253 959.275 153.203 960.015 151.842C960.754 150.451 961.124 148.824 961.124 146.96ZM974.606 126.368V159.209H970.567V126.368H974.606ZM992.096 159.608C989.818 159.608 987.747 159.091 985.883 158.055C984.048 157.02 982.599 155.555 981.533 153.661C980.498 151.738 979.98 149.519 979.98 147.004C979.98 144.519 980.513 142.33 981.578 140.436C982.673 138.513 984.152 137.048 986.016 136.042C987.88 135.007 989.966 134.489 992.273 134.489C994.581 134.489 996.667 135.007 998.531 136.042C1000.4 137.048 1001.86 138.498 1002.92 140.392C1004.02 142.285 1004.57 144.49 1004.57 147.004C1004.57 149.519 1004 151.738 1002.88 153.661C1001.79 155.555 1000.29 157.02 998.398 158.055C996.504 159.091 994.404 159.608 992.096 159.608ZM992.096 156.058C993.546 156.058 994.907 155.718 996.179 155.037C997.451 154.357 998.472 153.336 999.241 151.975C1000.04 150.614 1000.44 148.957 1000.44 147.004C1000.44 145.052 1000.05 143.395 999.286 142.034C998.516 140.673 997.51 139.667 996.268 139.016C995.025 138.335 993.679 137.995 992.229 137.995C990.75 137.995 989.389 138.335 988.146 139.016C986.933 139.667 985.957 140.673 985.217 142.034C984.477 143.395 984.107 145.052 984.107 147.004C984.107 148.987 984.463 150.658 985.173 152.019C985.912 153.38 986.889 154.401 988.102 155.082C989.315 155.733 990.646 156.058 992.096 156.058ZM1013.92 138.838C1014.63 137.448 1015.63 136.368 1016.93 135.599C1018.26 134.829 1019.88 134.445 1021.77 134.445V138.617H1020.71C1016.18 138.617 1013.92 141.072 1013.92 145.984V159.209H1009.88V134.889H1013.92V138.838ZM1048.62 146.117C1048.62 146.886 1048.58 147.7 1048.49 148.558H1029.05C1029.2 150.954 1030.01 152.833 1031.49 154.194C1033 155.525 1034.82 156.191 1036.95 156.191C1038.7 156.191 1040.15 155.792 1041.3 154.993C1042.48 154.164 1043.31 153.07 1043.79 151.709H1048.13C1047.48 154.046 1046.18 155.954 1044.23 157.434C1042.28 158.884 1039.85 159.608 1036.95 159.608C1034.64 159.608 1032.57 159.091 1030.74 158.055C1028.93 157.02 1027.51 155.555 1026.48 153.661C1025.44 151.738 1024.92 149.519 1024.92 147.004C1024.92 144.49 1025.43 142.285 1026.43 140.392C1027.44 138.498 1028.84 137.048 1030.65 136.042C1032.48 135.007 1034.58 134.489 1036.95 134.489C1039.26 134.489 1041.3 134.992 1043.08 135.998C1044.85 137.004 1046.21 138.395 1047.16 140.17C1048.13 141.915 1048.62 143.898 1048.62 146.117ZM1044.45 145.274C1044.45 143.735 1044.11 142.418 1043.43 141.324C1042.75 140.199 1041.82 139.356 1040.63 138.794C1039.48 138.202 1038.19 137.906 1036.77 137.906C1034.73 137.906 1032.99 138.557 1031.54 139.859C1030.12 141.161 1029.3 142.966 1029.1 145.274H1044.45ZM1052.44 146.96C1052.44 144.475 1052.95 142.3 1053.95 140.436C1054.96 138.543 1056.34 137.078 1058.08 136.042C1059.86 135.007 1061.84 134.489 1064.03 134.489C1065.92 134.489 1067.68 134.933 1069.31 135.821C1070.94 136.679 1072.18 137.818 1073.04 139.238V126.368H1077.12V159.209H1073.04V154.638C1072.24 156.088 1071.05 157.286 1069.49 158.233C1067.92 159.15 1066.08 159.608 1063.98 159.608C1061.82 159.608 1059.86 159.076 1058.08 158.011C1056.34 156.946 1054.96 155.451 1053.95 153.528C1052.95 151.605 1052.44 149.416 1052.44 146.96ZM1073.04 147.004C1073.04 145.17 1072.67 143.572 1071.93 142.211C1071.19 140.85 1070.18 139.815 1068.91 139.105C1067.67 138.365 1066.29 137.995 1064.78 137.995C1063.27 137.995 1061.9 138.35 1060.66 139.06C1059.41 139.77 1058.42 140.806 1057.68 142.167C1056.94 143.528 1056.57 145.126 1056.57 146.96C1056.57 148.824 1056.94 150.451 1057.68 151.842C1058.42 153.203 1059.41 154.253 1060.66 154.993C1061.9 155.703 1063.27 156.058 1064.78 156.058C1066.29 156.058 1067.67 155.703 1068.91 154.993C1070.18 154.253 1071.19 153.203 1071.93 151.842C1072.67 150.451 1073.04 148.839 1073.04 147.004ZM1128.17 134.889L1120.59 159.209H1116.41L1110.56 139.904L1104.7 159.209H1100.53L1092.89 134.889H1097.02L1102.61 155.304L1108.65 134.889H1112.77L1118.68 155.348L1124.18 134.889H1128.17ZM1144.25 134.445C1146.09 134.445 1147.75 134.844 1149.22 135.643C1150.7 136.412 1151.86 137.581 1152.69 139.149C1153.54 140.717 1153.97 142.626 1153.97 144.874V159.209H1149.98V145.451C1149.98 143.025 1149.37 141.176 1148.16 139.904C1146.95 138.602 1145.29 137.951 1143.19 137.951C1141.06 137.951 1139.36 138.617 1138.09 139.948C1136.84 141.279 1136.22 143.217 1136.22 145.762V159.209H1132.18V126.368H1136.22V138.35C1137.02 137.108 1138.11 136.146 1139.51 135.466C1140.93 134.785 1142.51 134.445 1144.25 134.445ZM1159.06 146.96C1159.06 144.475 1159.56 142.3 1160.57 140.436C1161.58 138.543 1162.95 137.078 1164.7 136.042C1166.47 135.007 1168.44 134.489 1170.6 134.489C1172.73 134.489 1174.58 134.948 1176.15 135.865C1177.72 136.782 1178.88 137.936 1179.65 139.327V134.889H1183.74V159.209H1179.65V154.682C1178.86 156.102 1177.66 157.286 1176.06 158.233C1174.49 159.15 1172.66 159.608 1170.56 159.608C1168.4 159.608 1166.44 159.076 1164.7 158.011C1162.95 156.946 1161.58 155.451 1160.57 153.528C1159.56 151.605 1159.06 149.416 1159.06 146.96ZM1179.65 147.004C1179.65 145.17 1179.28 143.572 1178.54 142.211C1177.8 140.85 1176.8 139.815 1175.53 139.105C1174.28 138.365 1172.91 137.995 1171.4 137.995C1169.89 137.995 1168.51 138.35 1167.27 139.06C1166.03 139.77 1165.04 140.806 1164.3 142.167C1163.56 143.528 1163.19 145.126 1163.19 146.96C1163.19 148.824 1163.56 150.451 1164.3 151.842C1165.04 153.203 1166.03 154.253 1167.27 154.993C1168.51 155.703 1169.89 156.058 1171.4 156.058C1172.91 156.058 1174.28 155.703 1175.53 154.993C1176.8 154.253 1177.8 153.203 1178.54 151.842C1179.28 150.451 1179.65 148.839 1179.65 147.004ZM1195.49 138.217V152.552C1195.49 153.735 1195.74 154.579 1196.24 155.082C1196.75 155.555 1197.62 155.792 1198.86 155.792H1201.83V159.209H1198.2C1195.95 159.209 1194.26 158.691 1193.14 157.656C1192.01 156.62 1191.45 154.919 1191.45 152.552V138.217H1188.3V134.889H1191.45V128.764H1195.49V134.889H1201.83V138.217H1195.49ZM1250.96 134.889L1243.37 159.209H1239.2L1233.34 139.904L1227.48 159.209H1223.31L1215.67 134.889H1219.8L1225.39 155.304L1231.43 134.889H1235.56L1241.46 155.348L1246.96 134.889H1250.96ZM1253.46 146.96C1253.46 144.475 1253.96 142.3 1254.97 140.436C1255.97 138.543 1257.35 137.078 1259.09 136.042C1260.87 135.007 1262.84 134.489 1265 134.489C1267.13 134.489 1268.97 134.948 1270.54 135.865C1272.11 136.782 1273.28 137.936 1274.05 139.327V134.889H1278.13V159.209H1274.05V154.682C1273.25 156.102 1272.05 157.286 1270.45 158.233C1268.89 159.15 1267.05 159.608 1264.95 159.608C1262.79 159.608 1260.84 159.076 1259.09 158.011C1257.35 156.946 1255.97 155.451 1254.97 153.528C1253.96 151.605 1253.46 149.416 1253.46 146.96ZM1274.05 147.004C1274.05 145.17 1273.68 143.572 1272.94 142.211C1272.2 140.85 1271.19 139.815 1269.92 139.105C1268.68 138.365 1267.3 137.995 1265.79 137.995C1264.29 137.995 1262.91 138.35 1261.67 139.06C1260.42 139.77 1259.43 140.806 1258.69 142.167C1257.95 143.528 1257.58 145.126 1257.58 146.96C1257.58 148.824 1257.95 150.451 1258.69 151.842C1259.43 153.203 1260.42 154.253 1261.67 154.993C1262.91 155.703 1264.29 156.058 1265.79 156.058C1267.3 156.058 1268.68 155.703 1269.92 154.993C1271.19 154.253 1272.2 153.203 1272.94 151.842C1273.68 150.451 1274.05 148.839 1274.05 147.004ZM1293.57 159.608C1291.7 159.608 1290.03 159.298 1288.55 158.676C1287.07 158.026 1285.9 157.138 1285.05 156.014C1284.19 154.86 1283.71 153.543 1283.63 152.064H1287.8C1287.92 153.277 1288.48 154.268 1289.48 155.037C1290.52 155.806 1291.87 156.191 1293.52 156.191C1295.06 156.191 1296.27 155.851 1297.16 155.17C1298.05 154.49 1298.49 153.632 1298.49 152.596C1298.49 151.531 1298.02 150.747 1297.07 150.244C1296.13 149.712 1294.66 149.194 1292.68 148.691C1290.87 148.217 1289.39 147.744 1288.24 147.271C1287.12 146.768 1286.14 146.043 1285.31 145.096C1284.51 144.12 1284.11 142.847 1284.11 141.279C1284.11 140.037 1284.48 138.898 1285.22 137.862C1285.96 136.827 1287.01 136.013 1288.37 135.421C1289.73 134.8 1291.29 134.489 1293.03 134.489C1295.73 134.489 1297.9 135.17 1299.56 136.531C1301.21 137.892 1302.1 139.756 1302.22 142.123H1298.18C1298.09 140.85 1297.58 139.83 1296.63 139.06C1295.71 138.291 1294.47 137.906 1292.9 137.906C1291.45 137.906 1290.3 138.217 1289.44 138.838C1288.58 139.46 1288.15 140.273 1288.15 141.279C1288.15 142.078 1288.4 142.744 1288.91 143.276C1289.44 143.779 1290.09 144.194 1290.86 144.519C1291.66 144.815 1292.75 145.155 1294.14 145.54C1295.89 146.013 1297.31 146.487 1298.4 146.96C1299.5 147.404 1300.43 148.084 1301.2 149.002C1302 149.919 1302.41 151.117 1302.44 152.596C1302.44 153.928 1302.07 155.126 1301.33 156.191C1300.59 157.256 1299.54 158.099 1298.18 158.721C1296.85 159.313 1295.31 159.608 1293.57 159.608ZM964.687 178.445C966.58 178.445 968.267 178.844 969.746 179.643C971.225 180.412 972.394 181.581 973.252 183.149C974.11 184.717 974.539 186.626 974.539 188.874V203.209H970.545V189.451C970.545 187.025 969.938 185.176 968.725 183.904C967.542 182.602 965.929 181.951 963.888 181.951C961.787 181.951 960.116 182.631 958.873 183.992C957.63 185.324 957.009 187.262 957.009 189.806V203.209H953.015V189.451C953.015 187.025 952.408 185.176 951.195 183.904C950.012 182.602 948.399 181.951 946.358 181.951C944.257 181.951 942.585 182.631 941.343 183.992C940.1 185.324 939.479 187.262 939.479 189.806V203.209H935.44V178.889H939.479V182.395C940.278 181.122 941.343 180.146 942.674 179.466C944.035 178.785 945.529 178.445 947.157 178.445C949.198 178.445 951.003 178.903 952.571 179.821C954.139 180.738 955.308 182.084 956.077 183.859C956.757 182.143 957.882 180.812 959.45 179.865C961.018 178.918 962.764 178.445 964.687 178.445ZM1002.11 178.889L987.466 214.659H983.294L988.087 202.943L978.279 178.889H982.762L990.395 198.593L997.94 178.889H1002.11ZM1047.25 178.445C1049.14 178.445 1050.83 178.844 1052.31 179.643C1053.79 180.412 1054.96 181.581 1055.82 183.149C1056.67 184.717 1057.1 186.626 1057.1 188.874V203.209H1053.11V189.451C1053.11 187.025 1052.5 185.176 1051.29 183.904C1050.1 182.602 1048.49 181.951 1046.45 181.951C1044.35 181.951 1042.68 182.631 1041.44 183.992C1040.19 185.324 1039.57 187.262 1039.57 189.806V203.209H1035.58V189.451C1035.58 187.025 1034.97 185.176 1033.76 183.904C1032.57 182.602 1030.96 181.951 1028.92 181.951C1026.82 181.951 1025.15 182.631 1023.91 183.992C1022.66 185.324 1022.04 187.262 1022.04 189.806V203.209H1018V178.889H1022.04V182.395C1022.84 181.122 1023.91 180.146 1025.24 179.466C1026.6 178.785 1028.09 178.445 1029.72 178.445C1031.76 178.445 1033.57 178.903 1035.13 179.821C1036.7 180.738 1037.87 182.084 1038.64 183.859C1039.32 182.143 1040.44 180.812 1042.01 179.865C1043.58 178.918 1045.33 178.445 1047.25 178.445ZM1074.33 203.608C1072.06 203.608 1069.98 203.091 1068.12 202.055C1066.29 201.02 1064.84 199.555 1063.77 197.661C1062.74 195.738 1062.22 193.519 1062.22 191.004C1062.22 188.519 1062.75 186.33 1063.82 184.436C1064.91 182.513 1066.39 181.048 1068.25 180.042C1070.12 179.007 1072.2 178.489 1074.51 178.489C1076.82 178.489 1078.9 179.007 1080.77 180.042C1082.63 181.048 1084.1 182.498 1085.16 184.392C1086.26 186.285 1086.8 188.49 1086.8 191.004C1086.8 193.519 1086.24 195.738 1085.12 197.661C1084.02 199.555 1082.53 201.02 1080.64 202.055C1078.74 203.091 1076.64 203.608 1074.33 203.608ZM1074.33 200.058C1075.78 200.058 1077.14 199.718 1078.42 199.037C1079.69 198.357 1080.71 197.336 1081.48 195.975C1082.28 194.614 1082.68 192.957 1082.68 191.004C1082.68 189.052 1082.29 187.395 1081.52 186.034C1080.75 184.673 1079.75 183.667 1078.51 183.016C1077.26 182.335 1075.92 181.995 1074.47 181.995C1072.99 181.995 1071.63 182.335 1070.38 183.016C1069.17 183.667 1068.19 184.673 1067.45 186.034C1066.72 187.395 1066.35 189.052 1066.35 191.004C1066.35 192.987 1066.7 194.658 1067.41 196.019C1068.15 197.38 1069.13 198.401 1070.34 199.082C1071.55 199.733 1072.88 200.058 1074.33 200.058ZM1097.04 182.217V196.552C1097.04 197.735 1097.29 198.579 1097.8 199.082C1098.3 199.555 1099.17 199.792 1100.41 199.792H1103.39V203.209H1099.75C1097.5 203.209 1095.81 202.691 1094.69 201.656C1093.56 200.62 1093 198.919 1093 196.552V182.217H1089.85V178.889H1093V172.764H1097.04V178.889H1103.39V182.217H1097.04ZM1110.37 174.939C1109.6 174.939 1108.95 174.672 1108.41 174.14C1107.88 173.607 1107.61 172.956 1107.61 172.187C1107.61 171.418 1107.88 170.767 1108.41 170.234C1108.95 169.702 1109.6 169.436 1110.37 169.436C1111.11 169.436 1111.73 169.702 1112.23 170.234C1112.76 170.767 1113.03 171.418 1113.03 172.187C1113.03 172.956 1112.76 173.607 1112.23 174.14C1111.73 174.672 1111.11 174.939 1110.37 174.939ZM1112.32 178.889V203.209H1108.28V178.889H1112.32ZM1128.26 199.481L1135.8 178.889H1140.11L1130.56 203.209H1125.86L1116.32 178.889H1120.67L1128.26 199.481ZM1142.57 190.96C1142.57 188.475 1143.07 186.3 1144.08 184.436C1145.09 182.543 1146.46 181.078 1148.21 180.042C1149.98 179.007 1151.95 178.489 1154.11 178.489C1156.24 178.489 1158.09 178.948 1159.66 179.865C1161.23 180.782 1162.39 181.936 1163.16 183.327V178.889H1167.25V203.209H1163.16V198.682C1162.36 200.102 1161.17 201.286 1159.57 202.233C1158 203.15 1156.17 203.608 1154.07 203.608C1151.91 203.608 1149.95 203.076 1148.21 202.011C1146.46 200.946 1145.09 199.451 1144.08 197.528C1143.07 195.605 1142.57 193.416 1142.57 190.96ZM1163.16 191.004C1163.16 189.17 1162.79 187.572 1162.05 186.211C1161.31 184.85 1160.31 183.815 1159.04 183.105C1157.79 182.365 1156.42 181.995 1154.91 181.995C1153.4 181.995 1152.02 182.35 1150.78 183.06C1149.54 183.77 1148.55 184.806 1147.81 186.167C1147.07 187.528 1146.7 189.126 1146.7 190.96C1146.7 192.824 1147.07 194.451 1147.81 195.842C1148.55 197.203 1149.54 198.253 1150.78 198.993C1152.02 199.703 1153.4 200.058 1154.91 200.058C1156.42 200.058 1157.79 199.703 1159.04 198.993C1160.31 198.253 1161.31 197.203 1162.05 195.842C1162.79 194.451 1163.16 192.839 1163.16 191.004ZM1179 182.217V196.552C1179 197.735 1179.25 198.579 1179.75 199.082C1180.25 199.555 1181.13 199.792 1182.37 199.792H1185.34V203.209H1181.7C1179.46 203.209 1177.77 202.691 1176.64 201.656C1175.52 200.62 1174.96 198.919 1174.96 196.552V182.217H1171.81V178.889H1174.96V172.764H1179V178.889H1185.34V182.217H1179ZM1192.32 174.939C1191.55 174.939 1190.9 174.672 1190.37 174.14C1189.84 173.607 1189.57 172.956 1189.57 172.187C1189.57 171.418 1189.84 170.767 1190.37 170.234C1190.9 169.702 1191.55 169.436 1192.32 169.436C1193.06 169.436 1193.68 169.702 1194.19 170.234C1194.72 170.767 1194.99 171.418 1194.99 172.187C1194.99 172.956 1194.72 173.607 1194.19 174.14C1193.68 174.672 1193.06 174.939 1192.32 174.939ZM1194.28 178.889V203.209H1190.24V178.889H1194.28ZM1211.77 203.608C1209.49 203.608 1207.42 203.091 1205.55 202.055C1203.72 201.02 1202.27 199.555 1201.2 197.661C1200.17 195.738 1199.65 193.519 1199.65 191.004C1199.65 188.519 1200.18 186.33 1201.25 184.436C1202.34 182.513 1203.82 181.048 1205.69 180.042C1207.55 179.007 1209.64 178.489 1211.94 178.489C1214.25 178.489 1216.34 179.007 1218.2 180.042C1220.06 181.048 1221.53 182.498 1222.59 184.392C1223.69 186.285 1224.24 188.49 1224.24 191.004C1224.24 193.519 1223.67 195.738 1222.55 197.661C1221.46 199.555 1219.96 201.02 1218.07 202.055C1216.17 203.091 1214.07 203.608 1211.77 203.608ZM1211.77 200.058C1213.22 200.058 1214.58 199.718 1215.85 199.037C1217.12 198.357 1218.14 197.336 1218.91 195.975C1219.71 194.614 1220.11 192.957 1220.11 191.004C1220.11 189.052 1219.72 187.395 1218.95 186.034C1218.19 184.673 1217.18 183.667 1215.94 183.016C1214.69 182.335 1213.35 181.995 1211.9 181.995C1210.42 181.995 1209.06 182.335 1207.82 183.016C1206.6 183.667 1205.63 184.673 1204.89 186.034C1204.15 187.395 1203.78 189.052 1203.78 191.004C1203.78 192.987 1204.13 194.658 1204.84 196.019C1205.58 197.38 1206.56 198.401 1207.77 199.082C1208.98 199.733 1210.32 200.058 1211.77 200.058ZM1241.4 178.445C1244.35 178.445 1246.75 179.347 1248.59 181.152C1250.42 182.927 1251.34 185.501 1251.34 188.874V203.209H1247.34V189.451C1247.34 187.025 1246.74 185.176 1245.52 183.904C1244.31 182.602 1242.65 181.951 1240.55 181.951C1238.42 181.951 1236.72 182.617 1235.45 183.948C1234.21 185.279 1233.58 187.217 1233.58 189.762V203.209H1229.55V178.889H1233.58V182.35C1234.38 181.108 1235.46 180.146 1236.82 179.466C1238.22 178.785 1239.74 178.445 1241.4 178.445ZM1266.54 203.608C1264.68 203.608 1263.01 203.298 1261.53 202.676C1260.05 202.026 1258.88 201.138 1258.02 200.014C1257.16 198.86 1256.69 197.543 1256.6 196.064H1260.77C1260.89 197.277 1261.45 198.268 1262.46 199.037C1263.5 199.806 1264.84 200.191 1266.5 200.191C1268.04 200.191 1269.25 199.851 1270.14 199.17C1271.03 198.49 1271.47 197.632 1271.47 196.596C1271.47 195.531 1271 194.747 1270.05 194.244C1269.1 193.712 1267.64 193.194 1265.66 192.691C1263.85 192.217 1262.37 191.744 1261.22 191.271C1260.09 190.768 1259.12 190.043 1258.29 189.096C1257.49 188.12 1257.09 186.847 1257.09 185.279C1257.09 184.037 1257.46 182.898 1258.2 181.862C1258.94 180.827 1259.99 180.013 1261.35 179.421C1262.71 178.8 1264.27 178.489 1266.01 178.489C1268.7 178.489 1270.88 179.17 1272.54 180.531C1274.19 181.892 1275.08 183.756 1275.2 186.123H1271.16C1271.07 184.85 1270.55 183.83 1269.61 183.06C1268.69 182.291 1267.45 181.906 1265.88 181.906C1264.43 181.906 1263.27 182.217 1262.42 182.838C1261.56 183.46 1261.13 184.273 1261.13 185.279C1261.13 186.078 1261.38 186.744 1261.88 187.276C1262.42 187.779 1263.07 188.194 1263.84 188.519C1264.64 188.815 1265.73 189.155 1267.12 189.54C1268.87 190.013 1270.29 190.487 1271.38 190.96C1272.48 191.404 1273.41 192.084 1274.18 193.002C1274.98 193.919 1275.39 195.117 1275.42 196.596C1275.42 197.928 1275.05 199.126 1274.31 200.191C1273.57 201.256 1272.52 202.099 1271.16 202.721C1269.83 203.313 1268.29 203.608 1266.54 203.608Z" fill="black"/>
<path d="M1682.33 165.588C1682.33 153.333 1672.4 143.398 1660.14 143.398C1647.89 143.398 1637.95 153.333 1637.95 165.588C1637.95 177.843 1647.89 187.778 1660.14 187.778C1672.4 187.778 1682.33 177.843 1682.33 165.588ZM1440.69 165.588C1440.69 153.333 1430.75 143.398 1418.5 143.398C1406.24 143.398 1396.31 153.333 1396.31 165.588C1396.31 177.843 1406.24 187.778 1418.5 187.778C1430.75 187.778 1440.69 177.843 1440.69 165.588ZM1660.14 161.427L1418.5 161.427L1418.5 169.749L1660.14 169.749L1660.14 161.427Z" fill="#A4A4A4"/>
<path d="M1995.63 327.606C1994.19 315.436 1983.15 306.745 1970.98 308.193C1958.81 309.641 1950.12 320.681 1951.56 332.85C1953.01 345.02 1964.05 353.711 1976.22 352.262C1988.39 350.814 1997.08 339.775 1995.63 327.606ZM335.48 525.177C334.032 513.007 322.992 504.316 310.823 505.765C298.653 507.213 289.962 518.252 291.411 530.421C292.859 542.591 303.898 551.282 316.067 549.834C328.237 548.386 336.928 537.346 335.48 525.177ZM313.445 429.014L313.445 424.853L309.285 424.853L309.285 429.014L313.445 429.014ZM1973.59 429.013L1973.59 433.174L1977.75 433.174L1977.75 429.014L1973.59 429.013ZM309.285 429.014L309.284 527.799L317.606 527.799L317.606 429.014L309.285 429.014ZM1969.44 330.228L1969.43 429.013L1977.75 429.014L1977.76 330.228L1969.44 330.228ZM1973.59 424.853L313.445 424.853L313.445 433.174L1973.59 433.174L1973.59 424.853Z" fill="#A4A4A4"/>
<path d="M1889.72 181.389L1882.35 168.74H1877.47V181.389H1873.43V150.456H1883.42C1885.75 150.456 1887.72 150.855 1889.32 151.654C1890.95 152.453 1892.16 153.533 1892.96 154.894C1893.76 156.255 1894.16 157.808 1894.16 159.554C1894.16 161.684 1893.53 163.563 1892.29 165.19C1891.08 166.817 1889.24 167.897 1886.79 168.43L1894.56 181.389H1889.72ZM1877.47 165.501H1883.42C1885.61 165.501 1887.25 164.968 1888.34 163.903C1889.44 162.808 1889.98 161.358 1889.98 159.554C1889.98 157.719 1889.44 156.299 1888.34 155.293C1887.28 154.287 1885.63 153.784 1883.42 153.784H1877.47V165.501ZM1922.62 168.296C1922.62 169.066 1922.58 169.879 1922.49 170.737H1903.05C1903.2 173.134 1904.01 175.013 1905.49 176.374C1907 177.705 1908.82 178.371 1910.95 178.371C1912.69 178.371 1914.14 177.971 1915.3 177.173C1916.48 176.344 1917.31 175.249 1917.78 173.888H1922.13C1921.48 176.226 1920.18 178.134 1918.23 179.613C1916.27 181.063 1913.85 181.788 1910.95 181.788C1908.64 181.788 1906.57 181.27 1904.74 180.235C1902.93 179.199 1901.51 177.735 1900.48 175.841C1899.44 173.918 1898.92 171.699 1898.92 169.184C1898.92 166.669 1899.43 164.465 1900.43 162.571C1901.44 160.678 1902.84 159.228 1904.65 158.222C1906.48 157.187 1908.58 156.669 1910.95 156.669C1913.26 156.669 1915.3 157.172 1917.07 158.178C1918.85 159.184 1920.21 160.574 1921.16 162.35C1922.13 164.095 1922.62 166.077 1922.62 168.296ZM1918.45 167.453C1918.45 165.915 1918.11 164.598 1917.43 163.503C1916.75 162.379 1915.82 161.536 1914.63 160.974C1913.48 160.382 1912.19 160.086 1910.77 160.086C1908.73 160.086 1906.98 160.737 1905.53 162.039C1904.11 163.341 1903.3 165.145 1903.09 167.453H1918.45ZM1936.56 181.788C1934.7 181.788 1933.03 181.477 1931.55 180.856C1930.07 180.205 1928.9 179.318 1928.04 178.193C1927.18 177.039 1926.71 175.723 1926.62 174.243H1930.79C1930.91 175.457 1931.47 176.448 1932.48 177.217C1933.51 177.986 1934.86 178.371 1936.52 178.371C1938.06 178.371 1939.27 178.031 1940.16 177.35C1941.04 176.67 1941.49 175.812 1941.49 174.776C1941.49 173.711 1941.01 172.927 1940.07 172.424C1939.12 171.891 1937.66 171.374 1935.67 170.871C1933.87 170.397 1932.39 169.924 1931.24 169.45C1930.11 168.947 1929.14 168.223 1928.31 167.276C1927.51 166.299 1927.11 165.027 1927.11 163.459C1927.11 162.216 1927.48 161.077 1928.22 160.042C1928.96 159.006 1930.01 158.193 1931.37 157.601C1932.73 156.98 1934.28 156.669 1936.03 156.669C1938.72 156.669 1940.9 157.349 1942.55 158.71C1944.21 160.071 1945.1 161.935 1945.22 164.302H1941.18C1941.09 163.03 1940.57 162.009 1939.62 161.24C1938.71 160.471 1937.46 160.086 1935.9 160.086C1934.45 160.086 1933.29 160.397 1932.43 161.018C1931.58 161.639 1931.15 162.453 1931.15 163.459C1931.15 164.258 1931.4 164.924 1931.9 165.456C1932.43 165.959 1933.09 166.373 1933.85 166.699C1934.65 166.995 1935.75 167.335 1937.14 167.72C1938.88 168.193 1940.3 168.666 1941.4 169.14C1942.49 169.584 1943.43 170.264 1944.2 171.181C1944.99 172.098 1945.41 173.297 1945.44 174.776C1945.44 176.107 1945.07 177.306 1944.33 178.371C1943.59 179.436 1942.54 180.279 1941.18 180.9C1939.85 181.492 1938.31 181.788 1936.56 181.788ZM1973.33 168.296C1973.33 169.066 1973.28 169.879 1973.2 170.737H1953.76C1953.91 173.134 1954.72 175.013 1956.2 176.374C1957.71 177.705 1959.53 178.371 1961.66 178.371C1963.4 178.371 1964.85 177.971 1966.01 177.173C1967.19 176.344 1968.02 175.249 1968.49 173.888H1972.84C1972.19 176.226 1970.89 178.134 1968.94 179.613C1966.98 181.063 1964.56 181.788 1961.66 181.788C1959.35 181.788 1957.28 181.27 1955.44 180.235C1953.64 179.199 1952.22 177.735 1951.18 175.841C1950.15 173.918 1949.63 171.699 1949.63 169.184C1949.63 166.669 1950.13 164.465 1951.14 162.571C1952.15 160.678 1953.55 159.228 1955.36 158.222C1957.19 157.187 1959.29 156.669 1961.66 156.669C1963.97 156.669 1966.01 157.172 1967.78 158.178C1969.56 159.184 1970.92 160.574 1971.86 162.35C1972.84 164.095 1973.33 166.077 1973.33 168.296ZM1969.16 167.453C1969.16 165.915 1968.82 164.598 1968.14 163.503C1967.46 162.379 1966.52 161.536 1965.34 160.974C1964.19 160.382 1962.9 160.086 1961.48 160.086C1959.44 160.086 1957.69 160.737 1956.24 162.039C1954.82 163.341 1954.01 165.145 1953.8 167.453H1969.16ZM1977.15 169.14C1977.15 166.654 1977.65 164.48 1978.66 162.616C1979.67 160.722 1981.04 159.258 1982.79 158.222C1984.56 157.187 1986.53 156.669 1988.69 156.669C1990.82 156.669 1992.67 157.127 1994.24 158.045C1995.81 158.962 1996.97 160.116 1997.74 161.506V157.068H2001.83V181.389H1997.74V176.862C1996.94 178.282 1995.75 179.466 1994.15 180.412C1992.58 181.329 1990.75 181.788 1988.65 181.788C1986.49 181.788 1984.53 181.256 1982.79 180.19C1981.04 179.125 1979.67 177.631 1978.66 175.708C1977.65 173.785 1977.15 171.595 1977.15 169.14ZM1997.74 169.184C1997.74 167.35 1997.37 165.752 1996.63 164.391C1995.89 163.03 1994.89 161.994 1993.62 161.284C1992.37 160.545 1991 160.175 1989.49 160.175C1987.98 160.175 1986.6 160.53 1985.36 161.24C1984.12 161.95 1983.13 162.986 1982.39 164.347C1981.65 165.708 1981.28 167.305 1981.28 169.14C1981.28 171.004 1981.65 172.631 1982.39 174.022C1983.13 175.383 1984.12 176.433 1985.36 177.173C1986.6 177.883 1987.98 178.238 1989.49 178.238C1991 178.238 1992.37 177.883 1993.62 177.173C1994.89 176.433 1995.89 175.383 1996.63 174.022C1997.37 172.631 1997.74 171.018 1997.74 169.184ZM2012.69 161.018C2013.4 159.628 2014.41 158.548 2015.71 157.778C2017.04 157.009 2018.65 156.624 2020.55 156.624V160.796H2019.48C2014.95 160.796 2012.69 163.252 2012.69 168.163V181.389H2008.65V157.068H2012.69V161.018ZM2023.7 169.184C2023.7 166.669 2024.2 164.48 2025.21 162.616C2026.21 160.722 2027.6 159.258 2029.38 158.222C2031.18 157.187 2033.24 156.669 2035.55 156.669C2038.54 156.669 2040.99 157.394 2042.92 158.843C2044.87 160.293 2046.15 162.305 2046.78 164.879H2042.43C2042.01 163.4 2041.2 162.231 2039.99 161.373C2038.8 160.515 2037.32 160.086 2035.55 160.086C2033.24 160.086 2031.38 160.885 2029.96 162.483C2028.54 164.051 2027.83 166.285 2027.83 169.184C2027.83 172.113 2028.54 174.377 2029.96 175.974C2031.38 177.572 2033.24 178.371 2035.55 178.371C2037.32 178.371 2038.8 177.957 2039.99 177.128C2041.17 176.3 2041.98 175.116 2042.43 173.578H2046.78C2046.13 176.063 2044.82 178.06 2042.87 179.569C2040.92 181.048 2038.48 181.788 2035.55 181.788C2033.24 181.788 2031.18 181.27 2029.38 180.235C2027.6 179.199 2026.21 177.735 2025.21 175.841C2024.2 173.948 2023.7 171.729 2023.7 169.184ZM2064.24 156.624C2066.07 156.624 2067.73 157.024 2069.21 157.823C2070.69 158.592 2071.84 159.761 2072.67 161.329C2073.53 162.897 2073.96 164.805 2073.96 167.054V181.389H2069.96V167.631C2069.96 165.205 2069.35 163.355 2068.14 162.083C2066.93 160.781 2065.27 160.131 2063.17 160.131C2061.04 160.131 2059.34 160.796 2058.07 162.128C2056.82 163.459 2056.2 165.397 2056.2 167.941V181.389H2052.16V148.547H2056.2V160.53C2057 159.287 2058.1 158.326 2059.49 157.645C2060.91 156.965 2062.49 156.624 2064.24 156.624Z" fill="black"/>
<path d="M177.145 159.435C177.145 162.009 176.257 164.154 174.482 165.87C172.736 167.557 170.059 168.4 166.449 168.4H160.502V181.314H156.463V150.381H166.449C169.94 150.381 172.588 151.225 174.393 152.911C176.227 154.598 177.145 156.772 177.145 159.435ZM166.449 165.071C168.698 165.071 170.354 164.583 171.42 163.607C172.485 162.63 173.017 161.24 173.017 159.435C173.017 155.618 170.828 153.71 166.449 153.71H160.502V165.071H166.449ZM198.452 181.314L191.085 168.666H186.203V181.314H182.164V150.381H192.15C194.487 150.381 196.455 150.781 198.052 151.58C199.68 152.379 200.893 153.458 201.691 154.819C202.49 156.18 202.89 157.734 202.89 159.479C202.89 161.61 202.268 163.488 201.026 165.116C199.813 166.743 197.978 167.823 195.523 168.355L203.289 181.314H198.452ZM186.203 165.426H192.15C194.339 165.426 195.981 164.894 197.076 163.829C198.171 162.734 198.718 161.284 198.718 159.479C198.718 157.645 198.171 156.225 197.076 155.219C196.011 154.213 194.369 153.71 192.15 153.71H186.203V165.426ZM223.189 181.625C220.319 181.625 217.701 180.959 215.334 179.628C212.967 178.267 211.088 176.388 209.698 173.992C208.337 171.566 207.656 168.844 207.656 165.826C207.656 162.808 208.337 160.101 209.698 157.704C211.088 155.278 212.967 153.399 215.334 152.068C217.701 150.707 220.319 150.026 223.189 150.026C226.089 150.026 228.722 150.707 231.089 152.068C233.456 153.399 235.32 155.263 236.681 157.66C238.042 160.056 238.722 162.778 238.722 165.826C238.722 168.873 238.042 171.595 236.681 173.992C235.32 176.388 233.456 178.267 231.089 179.628C228.722 180.959 226.089 181.625 223.189 181.625ZM223.189 178.119C225.349 178.119 227.287 177.616 229.003 176.61C230.749 175.604 232.11 174.169 233.086 172.305C234.092 170.441 234.595 168.281 234.595 165.826C234.595 163.34 234.092 161.181 233.086 159.346C232.11 157.482 230.763 156.047 229.047 155.041C227.331 154.035 225.379 153.532 223.189 153.532C221 153.532 219.047 154.035 217.331 155.041C215.615 156.047 214.254 157.482 213.248 159.346C212.272 161.181 211.783 163.34 211.783 165.826C211.783 168.281 212.272 170.441 213.248 172.305C214.254 174.169 215.615 175.604 217.331 176.61C219.077 177.616 221.029 178.119 223.189 178.119ZM259.631 150.381V173.237C259.631 175.782 258.847 177.823 257.279 179.362C255.711 180.871 253.64 181.625 251.066 181.625C248.462 181.625 246.376 180.856 244.808 179.317C243.24 177.749 242.456 175.619 242.456 172.927H246.495C246.524 174.436 246.909 175.663 247.649 176.61C248.418 177.557 249.557 178.03 251.066 178.03C252.575 178.03 253.699 177.587 254.439 176.699C255.178 175.782 255.548 174.628 255.548 173.237V150.381H259.631ZM271.626 153.666V164.006H282.899V167.335H271.626V177.986H284.23V181.314H267.588V150.337H284.23V153.666H271.626ZM288.832 165.826C288.832 162.808 289.513 160.101 290.874 157.704C292.235 155.278 294.084 153.384 296.421 152.023C298.788 150.662 301.407 149.982 304.276 149.982C307.649 149.982 310.593 150.796 313.108 152.423C315.623 154.05 317.457 156.358 318.611 159.346H313.774C312.916 157.482 311.673 156.047 310.046 155.041C308.448 154.035 306.525 153.532 304.276 153.532C302.117 153.532 300.179 154.035 298.463 155.041C296.747 156.047 295.4 157.482 294.424 159.346C293.448 161.181 292.96 163.34 292.96 165.826C292.96 168.281 293.448 170.441 294.424 172.305C295.4 174.14 296.747 175.56 298.463 176.566C300.179 177.572 302.117 178.075 304.276 178.075C306.525 178.075 308.448 177.587 310.046 176.61C311.673 175.604 312.916 174.169 313.774 172.305H318.611C317.457 175.264 315.623 177.557 313.108 179.184C310.593 180.782 307.649 181.581 304.276 181.581C301.407 181.581 298.788 180.915 296.421 179.584C294.084 178.223 292.235 176.344 290.874 173.947C289.513 171.551 288.832 168.844 288.832 165.826ZM343.662 150.381V153.666H335.23V181.314H331.191V153.666H322.715V150.381H343.662ZM378.75 174.436H365.258L362.773 181.314H358.513L369.696 150.559H374.356L385.496 181.314H381.235L378.75 174.436ZM377.596 171.151L372.004 155.53L366.412 171.151H377.596ZM400.178 181.625C398.137 181.625 396.302 181.27 394.675 180.56C393.077 179.82 391.82 178.814 390.903 177.542C389.985 176.24 389.512 174.746 389.482 173.06H393.787C393.935 174.509 394.527 175.737 395.563 176.743C396.628 177.72 398.166 178.208 400.178 178.208C402.101 178.208 403.61 177.734 404.705 176.788C405.829 175.811 406.391 174.569 406.391 173.06C406.391 171.876 406.066 170.915 405.415 170.175C404.764 169.435 403.95 168.873 402.974 168.489C401.998 168.104 400.681 167.69 399.024 167.246C396.983 166.713 395.341 166.181 394.098 165.648C392.885 165.116 391.835 164.287 390.947 163.163C390.089 162.009 389.66 160.471 389.66 158.547C389.66 156.861 390.089 155.367 390.947 154.065C391.805 152.763 393.003 151.757 394.542 151.047C396.11 150.337 397.9 149.982 399.912 149.982C402.811 149.982 405.178 150.707 407.013 152.157C408.877 153.606 409.927 155.53 410.164 157.926H405.726C405.578 156.743 404.956 155.707 403.862 154.819C402.767 153.902 401.317 153.444 399.512 153.444C397.826 153.444 396.45 153.887 395.385 154.775C394.32 155.633 393.787 156.846 393.787 158.414C393.787 159.539 394.098 160.456 394.719 161.166C395.37 161.876 396.154 162.423 397.071 162.808C398.018 163.163 399.335 163.577 401.021 164.051C403.063 164.613 404.705 165.175 405.948 165.737C407.19 166.27 408.255 167.113 409.143 168.267C410.031 169.391 410.474 170.929 410.474 172.882C410.474 174.391 410.075 175.811 409.276 177.143C408.477 178.474 407.294 179.554 405.726 180.382C404.158 181.211 402.308 181.625 400.178 181.625ZM433.193 181.314L420.456 167.202V181.314H416.417V150.381H420.456V164.716L433.238 150.381H438.341L424.317 165.87L438.474 181.314H433.193ZM452.793 181.625C450.752 181.625 448.917 181.27 447.29 180.56C445.692 179.82 444.435 178.814 443.518 177.542C442.6 176.24 442.127 174.746 442.097 173.06H446.402C446.55 174.509 447.142 175.737 448.177 176.743C449.243 177.72 450.781 178.208 452.793 178.208C454.716 178.208 456.225 177.734 457.32 176.788C458.444 175.811 459.006 174.569 459.006 173.06C459.006 171.876 458.681 170.915 458.03 170.175C457.379 169.435 456.565 168.873 455.589 168.489C454.613 168.104 453.296 167.69 451.639 167.246C449.598 166.713 447.956 166.181 446.713 165.648C445.5 165.116 444.45 164.287 443.562 163.163C442.704 162.009 442.275 160.471 442.275 158.547C442.275 156.861 442.704 155.367 443.562 154.065C444.42 152.763 445.618 151.757 447.157 151.047C448.725 150.337 450.515 149.982 452.527 149.982C455.426 149.982 457.793 150.707 459.628 152.157C461.492 153.606 462.542 155.53 462.779 157.926H458.341C458.193 156.743 457.571 155.707 456.477 154.819C455.382 153.902 453.932 153.444 452.127 153.444C450.441 153.444 449.065 153.887 448 154.775C446.935 155.633 446.402 156.846 446.402 158.414C446.402 159.539 446.713 160.456 447.334 161.166C447.985 161.876 448.769 162.423 449.686 162.808C450.633 163.163 451.95 163.577 453.636 164.051C455.678 164.613 457.32 165.175 458.562 165.737C459.805 166.27 460.87 167.113 461.758 168.267C462.645 169.391 463.089 170.929 463.089 172.882C463.089 174.391 462.69 175.811 461.891 177.143C461.092 178.474 459.909 179.554 458.341 180.382C456.772 181.211 454.923 181.625 452.793 181.625ZM470.319 181.581C469.55 181.581 468.899 181.314 468.367 180.782C467.834 180.249 467.568 179.598 467.568 178.829C467.568 178.06 467.834 177.409 468.367 176.876C468.899 176.344 469.55 176.078 470.319 176.078C471.059 176.078 471.68 176.344 472.183 176.876C472.716 177.409 472.982 178.06 472.982 178.829C472.982 179.598 472.716 180.249 472.183 180.782C471.68 181.314 471.059 181.581 470.319 181.581ZM470.319 162.586C469.55 162.586 468.899 162.32 468.367 161.787C467.834 161.255 467.568 160.604 467.568 159.834C467.568 159.065 467.834 158.414 468.367 157.882C468.899 157.349 469.55 157.083 470.319 157.083C471.059 157.083 471.68 157.349 472.183 157.882C472.716 158.414 472.982 159.065 472.982 159.834C472.982 160.604 472.716 161.255 472.183 161.787C471.68 162.32 471.059 162.586 470.319 162.586Z" fill="black"/>
<rect y="527.799" width="626.871" height="329.251" rx="164.626" fill="#F5F5F5"/>
<rect x="791.617" y="527.799" width="626.871" height="329.251" rx="164.626" fill="#F5F5F5"/>
<rect x="1660.13" y="527.799" width="624.098" height="329.251" rx="164.626" fill="#0078FC"/>
<path d="M1827.44 724.332V659.779H1849.25C1854.3 659.779 1858.44 660.64 1861.67 662.364C1864.91 664.066 1867.3 666.409 1868.86 669.393C1870.41 672.376 1871.19 675.77 1871.19 679.574C1871.19 683.377 1870.41 686.75 1868.86 689.691C1867.3 692.633 1864.92 694.945 1861.7 696.626C1858.49 698.286 1854.38 699.116 1849.38 699.116H1831.73V692.055H1849.13C1852.57 692.055 1855.35 691.551 1857.45 690.542C1859.57 689.534 1861.11 688.105 1862.05 686.256C1863.02 684.386 1863.5 682.158 1863.5 679.574C1863.5 676.989 1863.02 674.73 1862.05 672.797C1861.08 670.863 1859.54 669.372 1857.42 668.321C1855.3 667.249 1852.49 666.713 1849 666.713H1835.26V724.332H1827.44ZM1857.83 695.334L1873.71 724.332H1864.64L1849 695.334H1857.83ZM1902.99 725.341C1898.32 725.341 1894.3 724.311 1890.92 722.252C1887.55 720.171 1884.96 717.272 1883.13 713.552C1881.32 709.812 1880.42 705.462 1880.42 700.503C1880.42 695.544 1881.32 691.173 1883.13 687.39C1884.96 683.587 1887.5 680.624 1890.76 678.502C1894.04 676.358 1897.86 675.287 1902.23 675.287C1904.75 675.287 1907.24 675.707 1909.7 676.548C1912.16 677.388 1914.4 678.754 1916.42 680.645C1918.43 682.515 1920.04 684.995 1921.24 688.084C1922.44 691.173 1923.03 694.976 1923.03 699.494V702.646H1885.71V696.216H1915.47C1915.47 693.484 1914.92 691.047 1913.83 688.903C1912.76 686.76 1911.22 685.069 1909.23 683.829C1907.25 682.589 1904.92 681.969 1902.23 681.969C1899.27 681.969 1896.7 682.705 1894.54 684.175C1892.4 685.625 1890.75 687.517 1889.59 689.849C1888.44 692.182 1887.86 694.682 1887.86 697.351V701.638C1887.86 705.294 1888.49 708.393 1889.75 710.936C1891.03 713.458 1892.81 715.38 1895.08 716.704C1897.35 718.007 1899.98 718.658 1902.99 718.658C1904.94 718.658 1906.71 718.385 1908.28 717.839C1909.88 717.272 1911.26 716.431 1912.41 715.317C1913.57 714.183 1914.46 712.775 1915.09 711.094L1922.28 713.111C1921.52 715.548 1920.25 717.692 1918.46 719.541C1916.68 721.369 1914.47 722.798 1911.84 723.828C1909.22 724.836 1906.27 725.341 1902.99 725.341ZM1968.64 686.76L1961.96 688.651C1961.54 687.538 1960.92 686.455 1960.1 685.405C1959.3 684.333 1958.21 683.45 1956.82 682.757C1955.44 682.064 1953.66 681.717 1951.5 681.717C1948.53 681.717 1946.07 682.4 1944.09 683.766C1942.14 685.111 1941.16 686.823 1941.16 688.903C1941.16 690.753 1941.83 692.213 1943.18 693.285C1944.52 694.356 1946.62 695.249 1949.48 695.964L1956.67 697.729C1961 698.78 1964.22 700.387 1966.34 702.552C1968.47 704.695 1969.53 707.458 1969.53 710.841C1969.53 713.615 1968.73 716.095 1967.13 718.28C1965.56 720.466 1963.35 722.189 1960.51 723.449C1957.68 724.71 1954.38 725.341 1950.61 725.341C1945.68 725.341 1941.59 724.269 1938.35 722.126C1935.12 719.982 1933.07 716.851 1932.21 712.733L1939.27 710.968C1939.94 713.573 1941.21 715.527 1943.08 716.83C1944.97 718.133 1947.44 718.784 1950.49 718.784C1953.96 718.784 1956.71 718.049 1958.75 716.578C1960.81 715.086 1961.84 713.3 1961.84 711.22C1961.84 709.539 1961.25 708.131 1960.07 706.996C1958.89 705.84 1957.09 704.979 1954.65 704.411L1946.58 702.52C1942.15 701.469 1938.89 699.841 1936.81 697.635C1934.75 695.407 1933.72 692.623 1933.72 689.282C1933.72 686.55 1934.49 684.133 1936.02 682.032C1937.58 679.931 1939.69 678.281 1942.36 677.083C1945.05 675.886 1948.09 675.287 1951.5 675.287C1956.29 675.287 1960.05 676.337 1962.78 678.439C1965.53 680.54 1967.49 683.314 1968.64 686.76ZM2011.24 704.537V675.917H2018.67V724.332H2011.24V716.137H2010.73C2009.6 718.595 2007.83 720.686 2005.44 722.409C2003.04 724.111 2000.01 724.962 1996.36 724.962C1993.33 724.962 1990.64 724.301 1988.29 722.977C1985.94 721.632 1984.09 719.615 1982.74 716.925C1981.4 714.214 1980.72 710.799 1980.72 706.681V675.917H1988.16V706.176C1988.16 709.707 1989.15 712.523 1991.13 714.624C1993.12 716.725 1995.66 717.776 1998.75 717.776C2000.6 717.776 2002.48 717.303 2004.4 716.357C2006.33 715.412 2007.95 713.962 2009.25 712.008C2010.57 710.053 2011.24 707.563 2011.24 704.537ZM2039.74 659.779V724.332H2032.3V659.779H2039.74ZM2074.42 675.917V682.221H2049.33V675.917H2074.42ZM2056.64 664.318H2064.08V710.463C2064.08 712.565 2064.38 714.141 2064.99 715.191C2065.62 716.221 2066.42 716.914 2067.39 717.272C2068.38 717.608 2069.42 717.776 2070.51 717.776C2071.33 717.776 2072 717.734 2072.53 717.65C2073.05 717.545 2073.47 717.461 2073.79 717.398L2075.3 724.08C2074.8 724.269 2074.09 724.458 2073.19 724.647C2072.28 724.857 2071.14 724.962 2069.75 724.962C2067.65 724.962 2065.59 724.511 2063.57 723.607C2061.58 722.703 2059.92 721.327 2058.59 719.478C2057.29 717.629 2056.64 715.296 2056.64 712.48V664.318ZM2119.03 686.76L2112.35 688.651C2111.93 687.538 2111.31 686.455 2110.49 685.405C2109.69 684.333 2108.6 683.45 2107.21 682.757C2105.83 682.064 2104.05 681.717 2101.89 681.717C2098.92 681.717 2096.46 682.4 2094.48 683.766C2092.53 685.111 2091.55 686.823 2091.55 688.903C2091.55 690.753 2092.22 692.213 2093.57 693.285C2094.91 694.356 2097.01 695.249 2099.87 695.964L2107.06 697.729C2111.39 698.78 2114.61 700.387 2116.73 702.552C2118.86 704.695 2119.92 707.458 2119.92 710.841C2119.92 713.615 2119.12 716.095 2117.52 718.28C2115.95 720.466 2113.74 722.189 2110.9 723.449C2108.07 724.71 2104.77 725.341 2101 725.341C2096.07 725.341 2091.98 724.269 2088.74 722.126C2085.51 719.982 2083.46 716.851 2082.6 712.733L2089.66 710.968C2090.33 713.573 2091.6 715.527 2093.47 716.83C2095.36 718.133 2097.83 718.784 2100.88 718.784C2104.35 718.784 2107.1 718.049 2109.14 716.578C2111.2 715.086 2112.23 713.3 2112.23 711.22C2112.23 709.539 2111.64 708.131 2110.46 706.996C2109.28 705.84 2107.48 704.979 2105.04 704.411L2096.97 702.52C2092.54 701.469 2089.28 699.841 2087.2 697.635C2085.14 695.407 2084.11 692.623 2084.11 689.282C2084.11 686.55 2084.88 684.133 2086.41 682.032C2087.97 679.931 2090.08 678.281 2092.75 677.083C2095.44 675.886 2098.48 675.287 2101.89 675.287C2106.68 675.287 2110.44 676.337 2113.17 678.439C2115.92 680.54 2117.88 683.314 2119.03 686.76Z" fill="white"/>
<path d="M604.681 692.426C604.681 704.681 614.616 714.616 626.871 714.616C639.126 714.616 649.061 704.681 649.061 692.426C649.061 680.171 639.126 670.236 626.871 670.236C614.616 670.236 604.681 680.171 604.681 692.426ZM769.428 692.426C769.428 704.681 779.362 714.616 791.618 714.616C803.873 714.616 813.808 704.681 813.808 692.426C813.808 680.171 803.873 670.236 791.618 670.236C779.362 670.236 769.428 680.171 769.428 692.426ZM626.871 696.586H791.618V688.265H626.871V696.586Z" fill="#A4A4A4"/>
<path d="M1682.32 692.426C1682.32 680.171 1672.39 670.236 1660.13 670.236C1647.88 670.236 1637.94 680.171 1637.94 692.426C1637.94 704.681 1647.88 714.616 1660.13 714.616C1672.39 714.616 1682.32 704.681 1682.32 692.426ZM1440.68 692.426C1440.68 680.17 1430.75 670.236 1418.49 670.236C1406.23 670.236 1396.3 680.17 1396.3 692.426C1396.3 704.681 1406.23 714.616 1418.49 714.616C1430.75 714.616 1440.68 704.681 1440.68 692.426ZM1660.13 688.265L1418.49 688.265L1418.49 696.586L1660.13 696.586L1660.13 688.265Z" fill="#A4A4A4"/>
<path d="M278.534 692.304C279.658 692.481 280.679 692.94 281.596 693.68C282.543 694.419 283.282 695.336 283.815 696.431C284.377 697.526 284.658 698.695 284.658 699.937C284.658 701.505 284.259 702.925 283.46 704.198C282.661 705.44 281.492 706.432 279.954 707.171C278.445 707.881 276.655 708.236 274.584 708.236H263.045V677.303H274.14C276.241 677.303 278.031 677.658 279.51 678.368C280.989 679.049 282.099 679.981 282.838 681.164C283.578 682.348 283.948 683.679 283.948 685.159C283.948 686.993 283.445 688.517 282.439 689.73C281.463 690.913 280.161 691.771 278.534 692.304ZM267.083 690.662H273.874C275.767 690.662 277.232 690.218 278.267 689.33C279.303 688.443 279.821 687.215 279.821 685.647C279.821 684.079 279.303 682.851 278.267 681.963C277.232 681.076 275.738 680.632 273.785 680.632H267.083V690.662ZM274.229 704.908C276.241 704.908 277.809 704.434 278.933 703.488C280.057 702.541 280.619 701.224 280.619 699.538C280.619 697.822 280.028 696.476 278.844 695.499C277.661 694.493 276.078 693.99 274.096 693.99H267.083V704.908H274.229ZM311.831 683.916V708.236H307.793V704.642C307.023 705.884 305.943 706.861 304.553 707.571C303.192 708.251 301.683 708.591 300.026 708.591C298.133 708.591 296.431 708.207 294.922 707.437C293.413 706.639 292.215 705.455 291.328 703.887C290.47 702.319 290.041 700.411 290.041 698.162V683.916H294.035V697.629C294.035 700.026 294.641 701.875 295.854 703.177C297.067 704.449 298.724 705.085 300.825 705.085C302.985 705.085 304.686 704.42 305.929 703.088C307.171 701.757 307.793 699.819 307.793 697.274V683.916H311.831ZM320.736 679.966C319.967 679.966 319.316 679.7 318.783 679.167C318.251 678.635 317.985 677.984 317.985 677.215C317.985 676.445 318.251 675.794 318.783 675.262C319.316 674.729 319.967 674.463 320.736 674.463C321.476 674.463 322.097 674.729 322.6 675.262C323.133 675.794 323.399 676.445 323.399 677.215C323.399 677.984 323.133 678.635 322.6 679.167C322.097 679.7 321.476 679.966 320.736 679.966ZM322.689 683.916V708.236H318.65V683.916H322.689ZM333.611 675.395V708.236H329.572V675.395H333.611ZM338.985 695.987C338.985 693.502 339.488 691.327 340.494 689.463C341.5 687.57 342.875 686.105 344.621 685.07C346.396 684.034 348.379 683.517 350.568 683.517C352.462 683.517 354.222 683.96 355.849 684.848C357.477 685.706 358.719 686.845 359.577 688.265V675.395H363.66V708.236H359.577V703.665C358.778 705.115 357.595 706.313 356.027 707.26C354.459 708.177 352.624 708.636 350.524 708.636C348.364 708.636 346.396 708.103 344.621 707.038C342.875 705.973 341.5 704.479 340.494 702.556C339.488 700.633 338.985 698.443 338.985 695.987ZM359.577 696.032C359.577 694.197 359.207 692.6 358.468 691.239C357.728 689.878 356.722 688.842 355.45 688.132C354.207 687.392 352.831 687.023 351.322 687.023C349.814 687.023 348.438 687.378 347.195 688.088C345.952 688.798 344.961 689.833 344.222 691.194C343.482 692.555 343.112 694.153 343.112 695.987C343.112 697.851 343.482 699.479 344.222 700.869C344.961 702.23 345.952 703.281 347.195 704.02C348.438 704.73 349.814 705.085 351.322 705.085C352.831 705.085 354.207 704.73 355.45 704.02C356.722 703.281 357.728 702.23 358.468 700.869C359.207 699.479 359.577 697.866 359.577 696.032Z" fill="black"/>
<path d="M1054.05 708.236L1046.68 695.588H1041.8V708.236H1037.76V677.303H1047.75C1050.09 677.303 1052.05 677.703 1053.65 678.502C1055.28 679.3 1056.49 680.38 1057.29 681.741C1058.09 683.102 1058.49 684.656 1058.49 686.401C1058.49 688.531 1057.87 690.41 1056.62 692.038C1055.41 693.665 1053.58 694.745 1051.12 695.277L1058.89 708.236H1054.05ZM1041.8 692.348H1047.75C1049.94 692.348 1051.58 691.816 1052.67 690.75C1053.77 689.656 1054.32 688.206 1054.32 686.401C1054.32 684.567 1053.77 683.147 1052.67 682.141C1051.61 681.135 1049.97 680.632 1047.75 680.632H1041.8V692.348ZM1086.95 695.144C1086.95 695.913 1086.91 696.727 1086.82 697.585H1067.38C1067.53 699.982 1068.34 701.86 1069.82 703.221C1071.33 704.553 1073.15 705.218 1075.28 705.218C1077.03 705.218 1078.48 704.819 1079.63 704.02C1080.81 703.192 1081.64 702.097 1082.12 700.736H1086.47C1085.81 703.073 1084.51 704.982 1082.56 706.461C1080.61 707.911 1078.18 708.636 1075.28 708.636C1072.97 708.636 1070.9 708.118 1069.07 707.082C1067.26 706.047 1065.84 704.582 1064.81 702.689C1063.77 700.766 1063.25 698.547 1063.25 696.032C1063.25 693.517 1063.76 691.313 1064.76 689.419C1065.77 687.526 1067.17 686.076 1068.98 685.07C1070.81 684.034 1072.91 683.517 1075.28 683.517C1077.59 683.517 1079.63 684.019 1081.41 685.025C1083.18 686.031 1084.54 687.422 1085.49 689.197C1086.47 690.943 1086.95 692.925 1086.95 695.144ZM1082.78 694.301C1082.78 692.762 1082.44 691.446 1081.76 690.351C1081.08 689.227 1080.15 688.384 1078.97 687.821C1077.81 687.23 1076.52 686.934 1075.1 686.934C1073.06 686.934 1071.32 687.585 1069.87 688.887C1068.45 690.188 1067.63 691.993 1067.43 694.301H1082.78ZM1102.18 687.244H1097.08V708.236H1093.04V687.244H1089.89V683.916H1093.04V682.185C1093.04 679.463 1093.73 677.481 1095.12 676.238C1096.54 674.966 1098.81 674.33 1101.91 674.33V677.703C1100.14 677.703 1098.88 678.058 1098.14 678.768C1097.43 679.448 1097.08 680.587 1097.08 682.185V683.916H1102.18V687.244ZM1108.98 679.966C1108.21 679.966 1107.56 679.7 1107.02 679.167C1106.49 678.635 1106.22 677.984 1106.22 677.215C1106.22 676.445 1106.49 675.794 1107.02 675.262C1107.56 674.729 1108.21 674.463 1108.98 674.463C1109.72 674.463 1110.34 674.729 1110.84 675.262C1111.37 675.794 1111.64 676.445 1111.64 677.215C1111.64 677.984 1111.37 678.635 1110.84 679.167C1110.34 679.7 1109.72 679.966 1108.98 679.966ZM1110.93 683.916V708.236H1106.89V683.916H1110.93ZM1129.66 683.472C1132.62 683.472 1135.02 684.375 1136.85 686.179C1138.69 687.955 1139.6 690.529 1139.6 693.901V708.236H1135.61V694.478C1135.61 692.052 1135 690.203 1133.79 688.931C1132.58 687.629 1130.92 686.978 1128.82 686.978C1126.69 686.978 1124.99 687.644 1123.71 688.975C1122.47 690.307 1121.85 692.245 1121.85 694.789V708.236H1117.81V683.916H1121.85V687.378C1122.65 686.135 1123.73 685.173 1125.09 684.493C1126.48 683.812 1128 683.472 1129.66 683.472ZM1168.39 695.144C1168.39 695.913 1168.35 696.727 1168.26 697.585H1148.82C1148.97 699.982 1149.78 701.86 1151.26 703.221C1152.77 704.553 1154.59 705.218 1156.72 705.218C1158.46 705.218 1159.91 704.819 1161.07 704.02C1162.25 703.192 1163.08 702.097 1163.55 700.736H1167.9C1167.25 703.073 1165.95 704.982 1164 706.461C1162.04 707.911 1159.62 708.636 1156.72 708.636C1154.41 708.636 1152.34 708.118 1150.5 707.082C1148.7 706.047 1147.28 704.582 1146.24 702.689C1145.21 700.766 1144.69 698.547 1144.69 696.032C1144.69 693.517 1145.19 691.313 1146.2 689.419C1147.21 687.526 1148.61 686.076 1150.42 685.07C1152.25 684.034 1154.35 683.517 1156.72 683.517C1159.03 683.517 1161.07 684.019 1162.84 685.025C1164.62 686.031 1165.98 687.422 1166.93 689.197C1167.9 690.943 1168.39 692.925 1168.39 695.144ZM1164.22 694.301C1164.22 692.762 1163.88 691.446 1163.2 690.351C1162.52 689.227 1161.58 688.384 1160.4 687.821C1159.25 687.23 1157.96 686.934 1156.54 686.934C1154.5 686.934 1152.75 687.585 1151.3 688.887C1149.88 690.188 1149.07 691.993 1148.86 694.301H1164.22Z" fill="black"/>
</svg>
