<svg width="2194" height="921" viewBox="0 0 2194 921" fill="none" xmlns="http://www.w3.org/2000/svg">
<rect width="274" height="921" fill="#FB574D"/>
<path d="M82.0784 787.272C76.0481 787.272 72.5598 785.102 71.4094 782.485C71.1311 781.873 71.0012 781.242 71.0012 780.63C71.0012 778.737 72.4299 777.438 74.3782 777.438C75.8625 777.438 76.8645 777.902 77.9221 779.387C78.8499 780.704 80.4084 781.242 82.1711 781.242C84.5276 781.242 85.9749 780.277 85.9749 778.96C85.9749 777.698 84.9358 777.16 81.9299 776.622L79.2395 776.14C73.9143 775.193 71.0012 772.503 71.0012 768.347C71.0012 762.966 75.6399 759.57 82.0042 759.57C87.3108 759.57 91.1145 761.444 92.5061 764.784C92.7288 765.322 92.8401 765.823 92.8401 766.436C92.8401 768.217 91.5413 769.423 89.5745 769.441C87.9045 769.441 86.8469 768.866 85.9006 767.438C85.0286 766.102 83.7854 765.601 82.0969 765.601C79.9075 765.601 78.7942 766.565 78.7942 767.771C78.7942 768.978 79.9446 769.553 82.6165 770.035L85.3069 770.518C91.0588 771.557 93.7678 773.913 93.7678 778.255C93.7678 783.766 89.4631 787.272 82.0784 787.272ZM99.0374 787.272C96.5325 787.272 95.0295 785.844 95.0295 783.469C95.0295 782.782 95.2336 781.78 95.5862 780.834L101.579 764.283C102.73 761.036 104.678 759.57 107.814 759.57C111.172 759.57 113.102 760.98 114.308 764.283L120.357 780.834C120.728 781.854 120.876 782.597 120.876 783.45C120.876 785.677 119.225 787.272 116.943 787.272C114.623 787.272 113.417 786.215 112.749 783.617L112.285 781.799H103.565L103.101 783.487C102.359 786.178 101.171 787.272 99.0374 787.272ZM105.049 775.936H110.634L107.851 766.213H107.702L105.049 775.936ZM134.737 787.272C127.667 787.272 122.936 783.376 122.936 777.271V763.689C122.936 761.055 124.365 759.57 126.869 759.57C129.374 759.57 130.803 761.055 130.803 763.689V776.399C130.803 779.22 132.195 780.76 134.737 780.76C137.279 780.76 138.67 779.22 138.67 776.399V763.689C138.67 761.055 140.099 759.57 142.604 759.57C145.109 759.57 146.537 761.055 146.537 763.689V777.271C146.537 783.376 141.806 787.272 134.737 787.272ZM153.959 787.272C151.603 787.272 150.248 785.899 150.248 783.376V763.207C150.248 760.832 151.547 759.57 153.959 759.57C155.388 759.57 156.483 760.22 157.615 761.723L166.688 773.913H166.836V763.467C166.836 760.943 168.209 759.57 170.547 759.57C172.904 759.57 174.258 760.943 174.258 763.467V783.636C174.258 785.992 172.978 787.272 170.64 787.272C169.137 787.272 168.079 786.642 166.966 785.12L157.819 772.707H157.67V783.376C157.67 785.899 156.297 787.272 153.959 787.272ZM181.42 787.272C178.915 787.272 177.412 785.844 177.412 783.469C177.412 782.782 177.616 781.78 177.969 780.834L183.962 764.283C185.113 761.036 187.061 759.57 190.197 759.57C193.555 759.57 195.485 760.98 196.691 764.283L202.74 780.834C203.111 781.854 203.259 782.597 203.259 783.45C203.259 785.677 201.608 787.272 199.325 787.272C197.006 787.272 195.8 786.215 195.132 783.617L194.668 781.799H185.948L185.484 783.487C184.741 786.178 183.554 787.272 181.42 787.272ZM187.432 775.936H193.017L190.234 766.213H190.085L187.432 775.936ZM104.845 823.272C102.34 823.272 100.911 821.788 100.911 819.153V800.153C100.911 797.519 102.34 796.034 104.845 796.034H112.805C119.948 796.034 123.622 799.393 123.622 805.126C123.622 808.095 122.361 810.896 119.819 812.381L122.62 816.982C123.307 818.133 123.455 818.745 123.455 819.673C123.455 821.77 121.823 823.272 119.54 823.272C117.611 823.272 116.831 822.586 115.44 820.118L111.914 813.828H108.779V819.153C108.779 821.788 107.35 823.272 104.845 823.272ZM108.779 808.633H112.026C114.234 808.633 115.588 807.278 115.588 805.256C115.588 803.271 114.159 801.842 112.044 801.842H108.779V808.633ZM130.747 822.809C128.242 822.809 126.814 821.324 126.814 818.689V800.153C126.814 797.519 128.242 796.034 130.747 796.034H142.604C144.719 796.034 146.073 797.166 146.073 799.17C146.073 801.174 144.682 802.306 142.604 802.306H134.681V806.61H142.288C144.162 806.61 145.387 807.631 145.387 809.431C145.387 811.23 144.199 812.251 142.288 812.251H134.681V816.537H142.604C144.682 816.537 146.073 817.669 146.073 819.673C146.073 821.677 144.719 822.809 142.604 822.809H130.747ZM153.31 822.809C150.805 822.809 149.376 821.324 149.376 818.689V800.153C149.376 797.519 150.805 796.034 153.31 796.034H160.824C168.951 796.034 173.72 800.654 173.72 809.227C173.72 817.799 168.933 822.809 160.824 822.809H153.31ZM157.243 816.556H159.711C163.645 816.556 165.704 814.162 165.704 809.227C165.704 804.718 163.478 802.287 159.711 802.287H157.243V816.556Z" fill="white"/>
<rect x="92" y="860.57" width="90" height="36" rx="10" fill="white"/>
<path d="M102.951 884.57H101.668L102.31 881.134H100.244L100.499 879.851H102.547L103.18 876.484H101.044L101.299 875.201H103.417L104.041 871.888H105.324L104.7 875.201H107.645L108.277 871.888H109.561L108.937 875.201H111.125L110.87 876.484H108.699L108.066 879.851H110.316L110.062 881.134H107.829L107.188 884.57H105.904L106.528 881.134H103.584L102.951 884.57ZM103.786 879.886H106.801L107.451 876.449H104.437L103.786 879.886ZM112.355 884.57V871.888H120.055V873.312H113.938V877.671H119.554V879.077H113.938V884.57H112.355ZM121.865 884.57V871.888H126.673C128.844 871.888 130.312 873.153 130.312 875.052V875.069C130.312 876.379 129.327 877.653 128.018 877.838V877.873C129.846 878.084 130.953 879.314 130.953 880.993V881.011C130.953 883.243 129.354 884.57 126.655 884.57H121.865ZM126.312 873.285H123.447V877.354H125.82C127.692 877.354 128.712 876.607 128.712 875.236V875.219C128.712 873.971 127.842 873.285 126.312 873.285ZM126.269 878.717H123.447V883.173H126.418C128.316 883.173 129.327 882.408 129.327 880.949V880.932C129.327 879.464 128.29 878.717 126.269 878.717ZM136.903 884.781C134.478 884.781 132.746 883.27 132.562 881.204L132.553 881.107H134.108L134.117 881.178C134.275 882.435 135.4 883.393 136.921 883.393C138.644 883.393 139.839 882.197 139.839 880.492V880.475C139.83 878.805 138.626 877.609 136.947 877.609C136.086 877.609 135.348 877.864 134.785 878.374C134.557 878.585 134.354 878.831 134.188 879.121H132.79L133.44 871.888H140.7V873.294H134.741L134.311 877.557H134.346C134.943 876.704 135.998 876.247 137.229 876.247C139.663 876.247 141.421 878.014 141.421 880.448V880.466C141.412 883.006 139.54 884.781 136.903 884.781ZM143.803 884.57L149.542 873.329V873.294H142.713V871.888H151.106V873.355L145.464 884.57H143.803ZM157.716 884.57V881.934H151.344V880.501L156.907 871.888H159.245V880.545H161.038V881.934H159.245V884.57H157.716ZM152.908 880.545H157.716V873.241H157.663L152.908 880.51V880.545ZM162.77 884.57V871.888H167.032C170.785 871.888 173.018 874.226 173.018 878.207V878.225C173.018 882.224 170.803 884.57 167.032 884.57H162.77ZM164.352 883.146H166.927C169.801 883.146 171.4 881.389 171.4 878.242V878.225C171.4 875.061 169.801 873.312 166.927 873.312H164.352V883.146Z" fill="#FB574D"/>
<rect width="274.286" height="921" transform="translate(274)" fill="#5166E5"/>
<path d="M385.673 787.272C383.168 787.272 381.74 785.788 381.74 783.153V763.689C381.74 761.055 383.168 759.57 385.673 759.57C388.178 759.57 389.607 761.055 389.607 763.689V783.153C389.607 785.788 388.178 787.272 385.673 787.272ZM406.157 787.272C397.659 787.272 392.668 782.244 392.668 773.412C392.668 764.58 397.771 759.57 405.861 759.57C410.982 759.57 414.767 761.519 416.882 765.248C417.42 766.176 417.698 767.159 417.698 768.105C417.698 770.109 416.344 771.408 414.284 771.408C412.577 771.408 411.538 770.74 410.685 769.089C409.497 766.807 408.013 765.749 405.953 765.749C402.725 765.749 400.684 768.606 400.684 773.394C400.684 778.236 402.706 781.094 405.972 781.094C408.124 781.094 409.627 779.999 410.759 777.624C411.557 775.936 412.503 775.286 414.155 775.286C416.4 775.286 417.865 776.659 417.865 778.756C417.865 779.424 417.717 780.129 417.439 780.815C415.88 784.693 411.371 787.272 406.157 787.272ZM425.343 786.809C422.838 786.809 421.409 785.324 421.409 782.689V764.153C421.409 761.519 422.838 760.034 425.343 760.034H437.199C439.315 760.034 440.669 761.166 440.669 763.17C440.669 765.174 439.278 766.306 437.199 766.306H429.277V770.61H436.884C438.758 770.61 439.983 771.631 439.983 773.431C439.983 775.23 438.795 776.251 436.884 776.251H429.277V780.537H437.199C439.278 780.537 440.669 781.669 440.669 783.673C440.669 785.677 439.315 786.809 437.199 786.809H425.343ZM368.547 822.809C366.042 822.809 364.614 821.324 364.614 818.689V800.153C364.614 797.519 366.042 796.034 368.547 796.034H377.769C383.242 796.034 386.452 798.539 386.452 802.714C386.452 805.794 384.115 808.113 381.016 808.503V808.651C384.634 808.744 387.658 811.472 387.658 815.016C387.658 819.71 383.948 822.809 378.214 822.809H368.547ZM372.481 806.759H375.524C377.546 806.759 378.808 805.701 378.808 804.087C378.808 802.436 377.62 801.434 375.635 801.434H372.481V806.759ZM372.481 817.409H375.839C378.27 817.409 379.661 816.314 379.661 814.292C379.661 812.381 378.251 811.268 375.895 811.268H372.481V817.409ZM394.19 822.809C391.685 822.809 390.256 821.324 390.256 818.689V799.689C390.256 797.055 391.685 795.57 394.19 795.57C396.695 795.57 398.123 797.055 398.123 799.689V816.537H405.527C407.605 816.537 408.996 817.669 408.996 819.673C408.996 821.677 407.642 822.809 405.527 822.809H394.19ZM423.024 823.272C415.954 823.272 411.223 819.376 411.223 813.271V799.689C411.223 797.055 412.652 795.57 415.156 795.57C417.661 795.57 419.09 797.055 419.09 799.689V812.399C419.09 815.22 420.482 816.76 423.024 816.76C425.566 816.76 426.957 815.22 426.957 812.399V799.689C426.957 797.055 428.386 795.57 430.891 795.57C433.396 795.57 434.824 797.055 434.824 799.689V813.271C434.824 819.376 430.093 823.272 423.024 823.272ZM442.469 822.809C439.964 822.809 438.535 821.324 438.535 818.689V800.153C438.535 797.519 439.964 796.034 442.469 796.034H454.325C456.441 796.034 457.795 797.166 457.795 799.17C457.795 801.174 456.404 802.306 454.325 802.306H446.403V806.61H454.01C455.884 806.61 457.109 807.631 457.109 809.431C457.109 811.23 455.921 812.251 454.01 812.251H446.403V816.537H454.325C456.404 816.537 457.795 817.669 457.795 819.673C457.795 821.677 456.441 822.809 454.325 822.809H442.469Z" fill="white"/>
<rect x="365" y="860.57" width="92" height="36" rx="10" fill="white"/>
<path d="M376.063 884.57H374.78L375.422 881.134H373.356L373.611 879.851H375.659L376.292 876.484H374.156L374.411 875.201H376.529L377.153 871.888H378.437L377.812 875.201H380.757L381.39 871.888H382.673L382.049 875.201H384.237L383.982 876.484H381.812L381.179 879.851H383.429L383.174 881.134H380.941L380.3 884.57H379.017L379.641 881.134H376.696L376.063 884.57ZM376.898 879.886H379.913L380.563 876.449H377.549L376.898 879.886ZM391.295 884.57V881.934H384.923V880.501L390.486 871.888H392.824V880.545H394.617V881.934H392.824V884.57H391.295ZM386.487 880.545H391.295V873.241H391.242L386.487 880.51V880.545ZM396.349 884.57V871.888H404.206V873.312H397.931V877.381H403.881V878.787H397.931V883.146H404.206V884.57H396.349ZM410.455 884.781C408.029 884.781 406.298 883.27 406.113 881.204L406.104 881.107H407.66L407.669 881.178C407.827 882.435 408.952 883.393 410.473 883.393C412.195 883.393 413.391 882.197 413.391 880.492V880.475C413.382 878.805 412.178 877.609 410.499 877.609C409.638 877.609 408.899 877.864 408.337 878.374C408.108 878.585 407.906 878.831 407.739 879.121H406.342L406.992 871.888H414.252V873.294H408.293L407.862 877.557H407.897C408.495 876.704 409.55 876.247 410.78 876.247C413.215 876.247 414.973 878.014 414.973 880.448V880.466C414.964 883.006 413.092 884.781 410.455 884.781ZM416.827 884.57V871.888H421.09C424.843 871.888 427.075 874.226 427.075 878.207V878.225C427.075 882.224 424.86 884.57 421.09 884.57H416.827ZM418.409 883.146H420.984C423.858 883.146 425.458 881.389 425.458 878.242V878.225C425.458 875.061 423.858 873.312 420.984 873.312H418.409V883.146ZM429.044 884.57V871.888H436.901V873.312H430.626V877.381H436.576V878.787H430.626V883.146H436.901V884.57H429.044ZM444.82 884.57V881.934H438.448V880.501L444.012 871.888H446.35V880.545H448.143V881.934H446.35V884.57H444.82ZM440.013 880.545H444.82V873.241H444.768L440.013 880.51V880.545Z" fill="#5166E5"/>
<g clip-path="url(#clip0_1122_11960)">
<rect width="274.286" height="921" transform="translate(548.285)" fill="black"/>
<path d="M644.031 787.272C635.533 787.272 630.542 782.244 630.542 773.412C630.542 764.58 635.645 759.57 643.735 759.57C648.856 759.57 652.641 761.519 654.756 765.248C655.294 766.176 655.573 767.159 655.573 768.105C655.573 770.109 654.218 771.408 652.158 771.408C650.451 771.408 649.412 770.74 648.559 769.089C647.371 766.807 645.887 765.749 643.827 765.749C640.599 765.749 638.558 768.606 638.558 773.394C638.558 778.236 640.58 781.094 643.846 781.094C645.998 781.094 647.501 779.999 648.633 777.624C649.431 775.936 650.377 775.286 652.029 775.286C654.274 775.286 655.74 776.659 655.74 778.756C655.74 779.424 655.591 780.129 655.313 780.815C653.754 784.693 649.245 787.272 644.031 787.272ZM663.217 787.272C660.712 787.272 659.283 785.788 659.283 783.153V763.689C659.283 761.055 660.712 759.57 663.217 759.57C665.722 759.57 667.151 761.055 667.151 763.689V770.202H676.576V763.689C676.576 761.055 678.005 759.57 680.51 759.57C683.015 759.57 684.444 761.055 684.444 763.689V783.153C684.444 785.788 683.015 787.272 680.51 787.272C678.005 787.272 676.576 785.788 676.576 783.153V776.455H667.151V783.153C667.151 785.788 665.722 787.272 663.217 787.272ZM691.606 787.272C689.101 787.272 687.598 785.844 687.598 783.469C687.598 782.782 687.802 781.78 688.155 780.834L694.148 764.283C695.298 761.036 697.246 759.57 700.382 759.57C703.74 759.57 705.67 760.98 706.876 764.283L712.925 780.834C713.296 781.854 713.445 782.597 713.445 783.45C713.445 785.677 711.793 787.272 709.511 787.272C707.192 787.272 705.986 786.215 705.318 783.617L704.854 781.799H696.133L695.669 783.487C694.927 786.178 693.74 787.272 691.606 787.272ZM697.617 775.936H703.202L700.419 766.213H700.271L697.617 775.936ZM720.551 787.272C718.046 787.272 716.617 785.788 716.617 783.153V764.153C716.617 761.519 718.046 760.034 720.551 760.034H728.511C735.655 760.034 739.328 763.393 739.328 769.126C739.328 772.095 738.067 774.896 735.525 776.381L738.326 780.982C739.013 782.133 739.161 782.745 739.161 783.673C739.161 785.77 737.529 787.272 735.246 787.272C733.317 787.272 732.537 786.586 731.146 784.118L727.62 777.828H724.485V783.153C724.485 785.788 723.056 787.272 720.551 787.272ZM724.485 772.633H727.732C729.94 772.633 731.294 771.278 731.294 769.256C731.294 767.271 729.865 765.842 727.75 765.842H724.485V772.633ZM626.534 822.809C624.03 822.809 622.601 821.324 622.601 818.689V800.153C622.601 797.519 624.03 796.034 626.534 796.034H635.756C641.23 796.034 644.44 798.539 644.44 802.714C644.44 805.794 642.102 808.113 639.003 808.503V808.651C642.621 808.744 645.646 811.472 645.646 815.016C645.646 819.71 641.935 822.809 636.201 822.809H626.534ZM630.468 806.759H633.511C635.533 806.759 636.795 805.701 636.795 804.087C636.795 802.436 635.608 801.434 633.622 801.434H630.468V806.759ZM630.468 817.409H633.826C636.257 817.409 637.649 816.314 637.649 814.292C637.649 812.381 636.239 811.268 633.882 811.268H630.468V817.409ZM652.177 822.809C649.672 822.809 648.243 821.324 648.243 818.689V799.689C648.243 797.055 649.672 795.57 652.177 795.57C654.682 795.57 656.111 797.055 656.111 799.689V816.537H663.514C665.592 816.537 666.984 817.669 666.984 819.673C666.984 821.677 665.629 822.809 663.514 822.809H652.177ZM673.032 823.272C670.528 823.272 669.025 821.844 669.025 819.469C669.025 818.782 669.229 817.78 669.581 816.834L675.574 800.283C676.725 797.036 678.673 795.57 681.809 795.57C685.167 795.57 687.097 796.98 688.303 800.283L694.352 816.834C694.723 817.854 694.871 818.597 694.871 819.45C694.871 821.677 693.22 823.272 690.938 823.272C688.618 823.272 687.412 822.215 686.744 819.617L686.281 817.799H677.56L677.096 819.487C676.354 822.178 675.166 823.272 673.032 823.272ZM679.044 811.936H684.629L681.846 802.213H681.698L679.044 811.936ZM709.029 823.272C700.531 823.272 695.539 818.244 695.539 809.412C695.539 800.58 700.642 795.57 708.732 795.57C713.853 795.57 717.638 797.519 719.753 801.248C720.291 802.176 720.57 803.159 720.57 804.105C720.57 806.109 719.215 807.408 717.156 807.408C715.448 807.408 714.409 806.74 713.556 805.089C712.368 802.807 710.884 801.749 708.824 801.749C705.596 801.749 703.555 804.606 703.555 809.394C703.555 814.236 705.577 817.094 708.843 817.094C710.995 817.094 712.498 815.999 713.63 813.624C714.428 811.936 715.374 811.286 717.026 811.286C719.271 811.286 720.737 812.659 720.737 814.756C720.737 815.424 720.588 816.129 720.31 816.815C718.751 820.693 714.242 823.272 709.029 823.272ZM728.214 823.272C725.709 823.272 724.281 821.788 724.281 819.153V799.689C724.281 797.055 725.709 795.57 728.214 795.57C730.719 795.57 732.148 797.055 732.148 799.689V806.647H732.296L740.516 797.352C741.648 796.09 742.668 795.57 744.004 795.57C746.064 795.57 747.734 797.185 747.734 799.207C747.734 800.395 747.325 801.248 746.212 802.436L740.683 808.336L746.472 815.498C747.826 817.168 748.402 818.355 748.402 819.469C748.402 821.621 746.769 823.272 744.616 823.272C742.928 823.272 741.778 822.642 740.497 821.009L734.486 813.383L732.148 815.795V819.153C732.148 821.788 730.719 823.272 728.214 823.272Z" fill="white"/>
<rect x="638.5" y="860.57" width="93" height="36" rx="10" fill="white"/>
<path d="M649.519 884.57H648.235L648.877 881.134H646.812L647.066 879.851H649.114L649.747 876.484H647.611L647.866 875.201H649.984L650.608 871.888H651.892L651.268 875.201H654.212L654.845 871.888H656.128L655.504 875.201H657.692L657.438 876.484H655.267L654.634 879.851H656.884L656.629 881.134H654.396L653.755 884.57H652.472L653.096 881.134H650.151L649.519 884.57ZM650.354 879.886H653.368L654.019 876.449H651.004L650.354 879.886ZM663.142 884.781C660.224 884.781 658.492 882.259 658.492 878.233V878.216C658.492 874.19 660.224 871.677 663.142 871.677C666.06 871.677 667.809 874.19 667.809 878.216V878.233C667.809 882.259 666.06 884.781 663.142 884.781ZM663.142 883.401C665.075 883.401 666.218 881.415 666.218 878.233V878.216C666.218 875.034 665.075 873.065 663.142 873.065C661.208 873.065 660.083 875.034 660.083 878.216V878.233C660.083 881.415 661.208 883.401 663.142 883.401ZM674.058 884.781C671.14 884.781 669.408 882.259 669.408 878.233V878.216C669.408 874.19 671.14 871.677 674.058 871.677C676.976 871.677 678.725 874.19 678.725 878.216V878.233C678.725 882.259 676.976 884.781 674.058 884.781ZM674.058 883.401C675.991 883.401 677.134 881.415 677.134 878.233V878.216C677.134 875.034 675.991 873.065 674.058 873.065C672.124 873.065 670.999 875.034 670.999 878.216V878.233C670.999 881.415 672.124 883.401 674.058 883.401ZM684.974 884.781C682.056 884.781 680.324 882.259 680.324 878.233V878.216C680.324 874.19 682.056 871.677 684.974 871.677C687.892 871.677 689.641 874.19 689.641 878.216V878.233C689.641 882.259 687.892 884.781 684.974 884.781ZM684.974 883.401C686.907 883.401 688.05 881.415 688.05 878.233V878.216C688.05 875.034 686.907 873.065 684.974 873.065C683.04 873.065 681.915 875.034 681.915 878.216V878.233C681.915 881.415 683.04 883.401 684.974 883.401ZM695.89 884.781C692.972 884.781 691.24 882.259 691.24 878.233V878.216C691.24 874.19 692.972 871.677 695.89 871.677C698.808 871.677 700.557 874.19 700.557 878.216V878.233C700.557 882.259 698.808 884.781 695.89 884.781ZM695.89 883.401C697.823 883.401 698.966 881.415 698.966 878.233V878.216C698.966 875.034 697.823 873.065 695.89 873.065C693.956 873.065 692.831 875.034 692.831 878.216V878.233C692.831 881.415 693.956 883.401 695.89 883.401ZM706.806 884.781C703.888 884.781 702.156 882.259 702.156 878.233V878.216C702.156 874.19 703.888 871.677 706.806 871.677C709.724 871.677 711.473 874.19 711.473 878.216V878.233C711.473 882.259 709.724 884.781 706.806 884.781ZM706.806 883.401C708.739 883.401 709.882 881.415 709.882 878.233V878.216C709.882 875.034 708.739 873.065 706.806 873.065C704.872 873.065 703.747 875.034 703.747 878.216V878.233C703.747 881.415 704.872 883.401 706.806 883.401ZM717.722 884.781C714.804 884.781 713.072 882.259 713.072 878.233V878.216C713.072 874.19 714.804 871.677 717.722 871.677C720.64 871.677 722.389 874.19 722.389 878.216V878.233C722.389 882.259 720.64 884.781 717.722 884.781ZM717.722 883.401C719.655 883.401 720.798 881.415 720.798 878.233V878.216C720.798 875.034 719.655 873.065 717.722 873.065C715.788 873.065 714.663 875.034 714.663 878.216V878.233C714.663 881.415 715.788 883.401 717.722 883.401Z" fill="black"/>
</g>
<g clip-path="url(#clip1_1122_11960)">
<rect width="274.286" height="921" transform="translate(822.572)" fill="#171717"/>
<path d="M888.307 787.272C885.802 787.272 884.373 785.788 884.373 783.153V764.153C884.373 761.519 885.802 760.034 888.307 760.034H896.267C903.41 760.034 907.084 763.393 907.084 769.126C907.084 772.095 905.823 774.896 903.281 776.381L906.082 780.982C906.769 782.133 906.917 782.745 906.917 783.673C906.917 785.77 905.284 787.272 903.002 787.272C901.073 787.272 900.293 786.586 898.902 784.118L895.376 777.828H892.24V783.153C892.24 785.788 890.812 787.272 888.307 787.272ZM892.24 772.633H895.488C897.696 772.633 899.05 771.278 899.05 769.256C899.05 767.271 897.621 765.842 895.506 765.842H892.24V772.633ZM922.076 787.272C915.007 787.272 910.276 783.376 910.276 777.271V763.689C910.276 761.055 911.704 759.57 914.209 759.57C916.714 759.57 918.143 761.055 918.143 763.689V776.399C918.143 779.22 919.534 780.76 922.076 780.76C924.618 780.76 926.01 779.22 926.01 776.399V763.689C926.01 761.055 927.439 759.57 929.944 759.57C932.448 759.57 933.877 761.055 933.877 763.689V777.271C933.877 783.376 929.146 787.272 922.076 787.272ZM941.522 786.809C939.017 786.809 937.588 785.324 937.588 782.689V764.153C937.588 761.519 939.017 760.034 941.522 760.034H950.743C956.217 760.034 959.427 762.539 959.427 766.714C959.427 769.794 957.089 772.113 953.99 772.503V772.651C957.609 772.744 960.633 775.472 960.633 779.016C960.633 783.71 956.922 786.809 951.189 786.809H941.522ZM945.455 770.759H948.498C950.521 770.759 951.782 769.701 951.782 768.087C951.782 766.436 950.595 765.434 948.61 765.434H945.455V770.759ZM945.455 781.409H948.814C951.244 781.409 952.636 780.314 952.636 778.292C952.636 776.381 951.226 775.268 948.869 775.268H945.455V781.409ZM967.164 786.809C964.659 786.809 963.231 785.324 963.231 782.689V764.153C963.231 761.519 964.659 760.034 967.164 760.034H976.386C981.86 760.034 985.07 762.539 985.07 766.714C985.07 769.794 982.732 772.113 979.633 772.503V772.651C983.251 772.744 986.276 775.472 986.276 779.016C986.276 783.71 982.565 786.809 976.831 786.809H967.164ZM971.098 770.759H974.141C976.163 770.759 977.425 769.701 977.425 768.087C977.425 766.436 976.238 765.434 974.252 765.434H971.098V770.759ZM971.098 781.409H974.456C976.887 781.409 978.279 780.314 978.279 778.292C978.279 776.381 976.868 775.268 974.512 775.268H971.098V781.409ZM992.807 786.809C990.302 786.809 988.873 785.324 988.873 782.689V764.153C988.873 761.519 990.302 760.034 992.807 760.034H1004.66C1006.78 760.034 1008.13 761.166 1008.13 763.17C1008.13 765.174 1006.74 766.306 1004.66 766.306H996.74V770.61H1004.35C1006.22 770.61 1007.45 771.631 1007.45 773.431C1007.45 775.23 1006.26 776.251 1004.35 776.251H996.74V780.537H1004.66C1006.74 780.537 1008.13 781.669 1008.13 783.673C1008.13 785.677 1006.78 786.809 1004.66 786.809H992.807ZM1015.37 787.272C1012.86 787.272 1011.44 785.788 1011.44 783.153V764.153C1011.44 761.519 1012.86 760.034 1015.37 760.034H1023.33C1030.47 760.034 1034.15 763.393 1034.15 769.126C1034.15 772.095 1032.89 774.896 1030.34 776.381L1033.14 780.982C1033.83 782.133 1033.98 782.745 1033.98 783.673C1033.98 785.77 1032.35 787.272 1030.06 787.272C1028.14 787.272 1027.36 786.586 1025.96 784.118L1022.44 777.828H1019.3V783.153C1019.3 785.788 1017.87 787.272 1015.37 787.272ZM1019.3 772.633H1022.55C1024.76 772.633 1026.11 771.278 1026.11 769.256C1026.11 767.271 1024.68 765.842 1022.57 765.842H1019.3V772.633ZM920.759 823.272C912.261 823.272 907.233 818.281 907.233 809.394C907.233 800.617 912.261 795.57 920.518 795.57C925.88 795.57 929.925 797.871 931.502 800.691C931.892 801.415 932.04 802.046 932.04 802.714C932.04 804.681 930.667 806.035 928.663 806.035C927.123 806.035 925.954 805.441 924.99 804.161C923.728 802.473 922.448 801.768 920.555 801.768C917.215 801.768 915.248 804.514 915.248 809.282C915.248 814.162 917.493 817.075 920.945 817.075C923.505 817.075 925.323 815.646 925.546 813.494L925.583 813.123H924.043C922.281 813.123 921.13 812.195 921.13 810.507C921.13 808.818 922.262 807.891 924.043 807.891H929.22C931.725 807.891 933.154 809.375 933.154 812.01C933.154 818.374 928.738 823.272 920.759 823.272ZM940.204 823.272C937.699 823.272 936.271 821.788 936.271 819.153V800.153C936.271 797.519 937.699 796.034 940.204 796.034H948.164C955.308 796.034 958.982 799.393 958.982 805.126C958.982 808.095 957.72 810.896 955.178 812.381L957.98 816.982C958.666 818.133 958.815 818.745 958.815 819.673C958.815 821.77 957.182 823.272 954.9 823.272C952.97 823.272 952.191 822.586 950.799 820.118L947.274 813.828H944.138V819.153C944.138 821.788 942.709 823.272 940.204 823.272ZM944.138 808.633H947.385C949.593 808.633 950.948 807.278 950.948 805.256C950.948 803.271 949.519 801.842 947.404 801.842H944.138V808.633ZM965.624 823.272C963.119 823.272 961.616 821.844 961.616 819.469C961.616 818.782 961.821 817.78 962.173 816.834L968.166 800.283C969.317 797.036 971.265 795.57 974.401 795.57C977.759 795.57 979.689 796.98 980.895 800.283L986.944 816.834C987.315 817.854 987.463 818.597 987.463 819.45C987.463 821.677 985.812 823.272 983.53 823.272C981.21 823.272 980.004 822.215 979.336 819.617L978.872 817.799H970.152L969.688 819.487C968.946 822.178 967.758 823.272 965.624 823.272ZM971.636 811.936H977.221L974.438 802.213H974.289L971.636 811.936ZM998.336 823.272C995.831 823.272 994.403 821.788 994.403 819.153V814.329L986.721 802.064C986.183 801.192 985.905 800.265 985.905 799.355C985.905 797.166 987.593 795.57 989.912 795.57C991.638 795.57 992.566 796.22 993.623 798.168L998.355 806.889H998.503L1003.25 798.149C1004.26 796.312 1005.29 795.57 1006.87 795.57C1009.12 795.57 1010.77 797.147 1010.77 799.281C1010.77 800.228 1010.49 801.137 1009.93 802.027L1002.27 814.329V819.153C1002.27 821.788 1000.84 823.272 998.336 823.272Z" fill="white"/>
<rect x="918.5" y="860.57" width="81" height="36" rx="10" fill="white"/>
<path d="M929.53 884.57H928.247L928.889 881.134H926.823L927.078 879.851H929.126L929.759 876.484H927.623L927.878 875.201H929.996L930.62 871.888H931.903L931.279 875.201H934.224L934.856 871.888H936.14L935.516 875.201H937.704L937.449 876.484H935.278L934.646 879.851H936.896L936.641 881.134H934.408L933.767 884.57H932.483L933.107 881.134H930.163L929.53 884.57ZM930.365 879.886H933.38L934.03 876.449H931.016L930.365 879.886ZM941.967 884.57V873.566H941.932L938.574 875.904V874.313L941.949 871.888H943.496V884.57H941.967ZM947.442 884.57L953.182 873.329V873.294H946.353V871.888H954.746V873.355L949.104 884.57H947.442ZM959.791 884.57V873.566H959.756L956.398 875.904V874.313L959.773 871.888H961.32V884.57H959.791ZM965.267 884.57L971.006 873.329V873.294H964.177V871.888H972.57V873.355L966.928 884.57H965.267ZM977.615 884.57V873.566H977.58L974.223 875.904V874.313L977.598 871.888H979.145V884.57H977.615ZM983.091 884.57L988.83 873.329V873.294H982.001V871.888H990.395V873.355L984.752 884.57H983.091Z" fill="#171717"/>
</g>
<g clip-path="url(#clip2_1122_11960)">
<rect width="274.286" height="921" transform="translate(1096.86)" fill="#2C2C2C"/>
<path d="M1171.42 787.272C1169.23 787.272 1167.98 785.955 1167.98 783.636V764.729C1167.98 761.426 1169.8 759.57 1173.09 759.57C1175.85 759.57 1177.32 760.665 1178.43 763.578L1183.07 775.657H1183.22L1187.84 763.578C1188.95 760.665 1190.42 759.57 1193.18 759.57C1196.47 759.57 1198.28 761.426 1198.28 764.729V783.636C1198.28 785.955 1197.04 787.272 1194.85 787.272C1192.66 787.272 1191.42 785.955 1191.42 783.636V771.297H1191.27L1185.95 784.712C1185.41 786.066 1184.55 786.679 1183.16 786.679C1181.75 786.679 1180.84 786.048 1180.32 784.712L1175 771.297H1174.85V783.636C1174.85 785.955 1173.61 787.272 1171.42 787.272ZM1205.95 786.809C1203.44 786.809 1202.01 785.324 1202.01 782.689V764.153C1202.01 761.519 1203.44 760.034 1205.95 760.034H1217.8C1219.92 760.034 1221.27 761.166 1221.27 763.17C1221.27 765.174 1219.88 766.306 1217.8 766.306H1209.88V770.61H1217.49C1219.36 770.61 1220.59 771.631 1220.59 773.431C1220.59 775.23 1219.4 776.251 1217.49 776.251H1209.88V780.537H1217.8C1219.88 780.537 1221.27 781.669 1221.27 783.673C1221.27 785.677 1219.92 786.809 1217.8 786.809H1205.95ZM1234.54 787.272C1232.04 787.272 1230.61 785.788 1230.61 783.153V766.306H1226.65C1224.58 766.306 1223.18 765.174 1223.18 763.17C1223.18 761.166 1224.54 760.034 1226.65 760.034H1242.43C1244.54 760.034 1245.9 761.166 1245.9 763.17C1245.9 765.174 1244.5 766.306 1242.43 766.306H1238.47V783.153C1238.47 785.788 1237.05 787.272 1234.54 787.272ZM1248.14 787.272C1245.64 787.272 1244.13 785.844 1244.13 783.469C1244.13 782.782 1244.34 781.78 1244.69 780.834L1250.68 764.283C1251.83 761.036 1253.78 759.57 1256.92 759.57C1260.28 759.57 1262.21 760.98 1263.41 764.283L1269.46 780.834C1269.83 781.854 1269.98 782.597 1269.98 783.45C1269.98 785.677 1268.33 787.272 1266.05 787.272C1263.73 787.272 1262.52 786.215 1261.85 783.617L1261.39 781.799H1252.67L1252.2 783.487C1251.46 786.178 1250.27 787.272 1248.14 787.272ZM1254.15 775.936H1259.74L1256.95 766.213H1256.81L1254.15 775.936ZM1277.09 786.809C1274.58 786.809 1273.15 785.324 1273.15 782.689V763.689C1273.15 761.055 1274.58 759.57 1277.09 759.57C1279.59 759.57 1281.02 761.055 1281.02 763.689V780.537H1288.42C1290.5 780.537 1291.89 781.669 1291.89 783.673C1291.89 785.677 1290.54 786.809 1288.42 786.809H1277.09ZM1194.76 823.272C1186.26 823.272 1181.23 818.281 1181.23 809.394C1181.23 800.617 1186.26 795.57 1194.52 795.57C1199.88 795.57 1203.93 797.871 1205.5 800.691C1205.89 801.415 1206.04 802.046 1206.04 802.714C1206.04 804.681 1204.67 806.035 1202.66 806.035C1201.12 806.035 1199.95 805.441 1198.99 804.161C1197.73 802.473 1196.45 801.768 1194.55 801.768C1191.22 801.768 1189.25 804.514 1189.25 809.282C1189.25 814.162 1191.49 817.075 1194.94 817.075C1197.51 817.075 1199.32 815.646 1199.55 813.494L1199.58 813.123H1198.04C1196.28 813.123 1195.13 812.195 1195.13 810.507C1195.13 808.818 1196.26 807.891 1198.04 807.891H1203.22C1205.72 807.891 1207.15 809.375 1207.15 812.01C1207.15 818.374 1202.74 823.272 1194.76 823.272ZM1214.2 823.272C1211.7 823.272 1210.27 821.788 1210.27 819.153V800.153C1210.27 797.519 1211.7 796.034 1214.2 796.034H1222.16C1229.31 796.034 1232.98 799.393 1232.98 805.126C1232.98 808.095 1231.72 810.896 1229.18 812.381L1231.98 816.982C1232.67 818.133 1232.81 818.745 1232.81 819.673C1232.81 821.77 1231.18 823.272 1228.9 823.272C1226.97 823.272 1226.19 822.586 1224.8 820.118L1221.27 813.828H1218.14V819.153C1218.14 821.788 1216.71 823.272 1214.2 823.272ZM1218.14 808.633H1221.39C1223.59 808.633 1224.95 807.278 1224.95 805.256C1224.95 803.271 1223.52 801.842 1221.4 801.842H1218.14V808.633ZM1239.62 823.272C1237.12 823.272 1235.62 821.844 1235.62 819.469C1235.62 818.782 1235.82 817.78 1236.17 816.834L1242.17 800.283C1243.32 797.036 1245.26 795.57 1248.4 795.57C1251.76 795.57 1253.69 796.98 1254.89 800.283L1260.94 816.834C1261.31 817.854 1261.46 818.597 1261.46 819.45C1261.46 821.677 1259.81 823.272 1257.53 823.272C1255.21 823.272 1254 822.215 1253.34 819.617L1252.87 817.799H1244.15L1243.69 819.487C1242.95 822.178 1241.76 823.272 1239.62 823.272ZM1245.64 811.936H1251.22L1248.44 802.213H1248.29L1245.64 811.936ZM1272.34 823.272C1269.83 823.272 1268.4 821.788 1268.4 819.153V814.329L1260.72 802.064C1260.18 801.192 1259.9 800.265 1259.9 799.355C1259.9 797.166 1261.59 795.57 1263.91 795.57C1265.64 795.57 1266.57 796.22 1267.62 798.168L1272.35 806.889H1272.5L1277.25 798.149C1278.26 796.312 1279.29 795.57 1280.87 795.57C1283.12 795.57 1284.77 797.147 1284.77 799.281C1284.77 800.228 1284.49 801.137 1283.93 802.027L1276.27 814.329V819.153C1276.27 821.788 1274.84 823.272 1272.34 823.272Z" fill="white"/>
<rect x="1185.5" y="860.57" width="95" height="36" rx="10" fill="white"/>
<path d="M1196.44 884.57H1195.15L1195.8 881.134H1193.73L1193.99 879.851H1196.03L1196.67 876.484H1194.53L1194.79 875.201H1196.9L1197.53 871.888H1198.81L1198.19 875.201H1201.13L1201.76 871.888H1203.05L1202.42 875.201H1204.61L1204.36 876.484H1202.19L1201.55 879.851H1203.8L1203.55 881.134H1201.32L1200.67 884.57H1199.39L1200.01 881.134H1197.07L1196.44 884.57ZM1197.27 879.886H1200.29L1200.94 876.449H1197.92L1197.27 879.886ZM1205.64 884.57V883.48L1210.1 878.822C1211.82 877.038 1212.21 876.353 1212.21 875.298V875.28C1212.21 873.988 1211.23 873.057 1209.85 873.057C1208.27 873.057 1207.09 874.146 1207.09 875.509V875.553H1205.56V875.5C1205.56 873.303 1207.46 871.677 1209.82 871.677C1212.12 871.677 1213.8 873.215 1213.8 875.201V875.219C1213.8 876.607 1213.15 877.653 1210.83 880.035L1207.81 883.129V883.164H1214.01V884.57H1205.64ZM1221.34 884.781C1217.81 884.781 1215.54 882.215 1215.54 878.225V878.216C1215.54 874.226 1217.8 871.677 1221.34 871.677C1223.97 871.677 1226.02 873.276 1226.5 875.676L1226.52 875.764H1224.92L1224.86 875.57C1224.37 874.032 1223.12 873.136 1221.34 873.136C1218.81 873.136 1217.17 875.131 1217.17 878.216V878.225C1217.17 881.31 1218.81 883.322 1221.34 883.322C1223.11 883.322 1224.34 882.443 1224.9 880.773L1224.92 880.694H1226.52L1226.5 880.782C1226.02 883.208 1223.99 884.781 1221.34 884.781ZM1228.19 884.57V883.48L1232.66 878.822C1234.37 877.038 1234.77 876.353 1234.77 875.298V875.28C1234.76 873.988 1233.78 873.057 1232.4 873.057C1230.82 873.057 1229.64 874.146 1229.64 875.509V875.553H1228.11V875.5C1228.11 873.303 1230.01 871.677 1232.38 871.677C1234.67 871.677 1236.35 873.215 1236.35 875.201V875.219C1236.35 876.607 1235.71 877.653 1233.38 880.035L1230.36 883.129V883.164H1236.56V884.57H1228.19ZM1243.89 884.781C1240.37 884.781 1238.1 882.215 1238.1 878.225V878.216C1238.1 874.226 1240.36 871.677 1243.89 871.677C1246.53 871.677 1248.57 873.276 1249.06 875.676L1249.08 875.764H1247.48L1247.41 875.57C1246.92 874.032 1245.67 873.136 1243.89 873.136C1241.36 873.136 1239.72 875.131 1239.72 878.216V878.225C1239.72 881.31 1241.37 883.322 1243.89 883.322C1245.67 883.322 1246.9 882.443 1247.45 880.773L1247.48 880.694H1249.08L1249.06 880.782C1248.57 883.208 1246.54 884.781 1243.89 884.781ZM1250.75 884.57V883.48L1255.21 878.822C1256.92 877.038 1257.32 876.353 1257.32 875.298V875.28C1257.31 873.988 1256.33 873.057 1254.96 873.057C1253.37 873.057 1252.2 874.146 1252.2 875.509V875.553H1250.67V875.5C1250.67 873.303 1252.56 871.677 1254.93 871.677C1257.22 871.677 1258.9 873.215 1258.9 875.201V875.219C1258.9 876.607 1258.26 877.653 1255.93 880.035L1252.92 883.129V883.164H1259.11V884.57H1250.75ZM1266.44 884.781C1262.92 884.781 1260.65 882.215 1260.65 878.225V878.216C1260.65 874.226 1262.91 871.677 1266.44 871.677C1269.08 871.677 1271.13 873.276 1271.61 875.676L1271.63 875.764H1270.03L1269.97 875.57C1269.47 874.032 1268.23 873.136 1266.44 873.136C1263.91 873.136 1262.28 875.131 1262.28 878.216V878.225C1262.28 881.31 1263.92 883.322 1266.44 883.322C1268.22 883.322 1269.45 882.443 1270 880.773L1270.03 880.694H1271.63L1271.61 880.782C1271.13 883.208 1269.1 884.781 1266.44 884.781Z" fill="#2C2C2C"/>
</g>
<g clip-path="url(#clip3_1122_11960)">
<rect width="274.286" height="921" transform="translate(1371.14)" fill="#3B3B3B"/>
<path d="M1432.67 786.809C1430.17 786.809 1428.74 785.324 1428.74 782.689V763.689C1428.74 761.055 1430.17 759.57 1432.67 759.57C1435.18 759.57 1436.6 761.055 1436.6 763.689V780.537H1444.01C1446.09 780.537 1447.48 781.669 1447.48 783.673C1447.48 785.677 1446.12 786.809 1444.01 786.809H1432.67ZM1461.8 787.272C1453.51 787.272 1448.31 781.984 1448.31 773.431C1448.31 764.877 1453.53 759.57 1461.8 759.57C1470.08 759.57 1475.29 764.877 1475.29 773.431C1475.29 781.984 1470.08 787.272 1461.8 787.272ZM1461.8 781.001C1465.1 781.001 1467.27 778.051 1467.27 773.431C1467.27 768.792 1465.09 765.842 1461.8 765.842C1458.52 765.842 1456.33 768.792 1456.33 773.431C1456.33 778.051 1458.5 781.001 1461.8 781.001ZM1491.19 787.272C1482.69 787.272 1477.7 782.244 1477.7 773.412C1477.7 764.58 1482.8 759.57 1490.89 759.57C1496.02 759.57 1499.8 761.519 1501.92 765.248C1502.45 766.176 1502.73 767.159 1502.73 768.105C1502.73 770.109 1501.38 771.408 1499.32 771.408C1497.61 771.408 1496.57 770.74 1495.72 769.089C1494.53 766.807 1493.05 765.749 1490.99 765.749C1487.76 765.749 1485.72 768.606 1485.72 773.394C1485.72 778.236 1487.74 781.094 1491.01 781.094C1493.16 781.094 1494.66 779.999 1495.79 777.624C1496.59 775.936 1497.54 775.286 1499.19 775.286C1501.43 775.286 1502.9 776.659 1502.9 778.756C1502.9 779.424 1502.75 780.129 1502.47 780.815C1500.91 784.693 1496.41 787.272 1491.19 787.272ZM1510.38 787.272C1507.87 787.272 1506.44 785.788 1506.44 783.153V763.689C1506.44 761.055 1507.87 759.57 1510.38 759.57C1512.88 759.57 1514.31 761.055 1514.31 763.689V770.647H1514.46L1522.68 761.352C1523.81 760.09 1524.83 759.57 1526.17 759.57C1528.23 759.57 1529.9 761.185 1529.9 763.207C1529.9 764.395 1529.49 765.248 1528.38 766.436L1522.85 772.336L1528.64 779.498C1529.99 781.168 1530.56 782.355 1530.56 783.469C1530.56 785.621 1528.93 787.272 1526.78 787.272C1525.09 787.272 1523.94 786.642 1522.66 785.009L1516.65 777.383L1514.31 779.795V783.153C1514.31 785.788 1512.88 787.272 1510.38 787.272ZM1537.21 786.809C1534.7 786.809 1533.27 785.324 1533.27 782.689V764.153C1533.27 761.519 1534.7 760.034 1537.21 760.034H1549.06C1551.18 760.034 1552.53 761.166 1552.53 763.17C1552.53 765.174 1551.14 766.306 1549.06 766.306H1541.14V770.61H1548.75C1550.62 770.61 1551.85 771.631 1551.85 773.431C1551.85 775.23 1550.66 776.251 1548.75 776.251H1541.14V780.537H1549.06C1551.14 780.537 1552.53 781.669 1552.53 783.673C1552.53 785.677 1551.18 786.809 1549.06 786.809H1537.21ZM1559.77 787.272C1557.26 787.272 1555.84 785.788 1555.84 783.153V764.153C1555.84 761.519 1557.26 760.034 1559.77 760.034H1567.73C1574.87 760.034 1578.55 763.393 1578.55 769.126C1578.55 772.095 1577.29 774.896 1574.74 776.381L1577.55 780.982C1578.23 782.133 1578.38 782.745 1578.38 783.673C1578.38 785.77 1576.75 787.272 1574.47 787.272C1572.54 787.272 1571.76 786.586 1570.36 784.118L1566.84 777.828H1563.7V783.153C1563.7 785.788 1562.27 787.272 1559.77 787.272ZM1563.7 772.633H1566.95C1569.16 772.633 1570.51 771.278 1570.51 769.256C1570.51 767.271 1569.08 765.842 1566.97 765.842H1563.7V772.633ZM1468.76 823.272C1460.26 823.272 1455.23 818.281 1455.23 809.394C1455.23 800.617 1460.26 795.57 1468.52 795.57C1473.88 795.57 1477.93 797.871 1479.5 800.691C1479.89 801.415 1480.04 802.046 1480.04 802.714C1480.04 804.681 1478.67 806.035 1476.66 806.035C1475.12 806.035 1473.95 805.441 1472.99 804.161C1471.73 802.473 1470.45 801.768 1468.55 801.768C1465.22 801.768 1463.25 804.514 1463.25 809.282C1463.25 814.162 1465.49 817.075 1468.94 817.075C1471.51 817.075 1473.32 815.646 1473.55 813.494L1473.58 813.123H1472.04C1470.28 813.123 1469.13 812.195 1469.13 810.507C1469.13 808.818 1470.26 807.891 1472.04 807.891H1477.22C1479.72 807.891 1481.15 809.375 1481.15 812.01C1481.15 818.374 1476.74 823.272 1468.76 823.272ZM1488.2 823.272C1485.7 823.272 1484.27 821.788 1484.27 819.153V800.153C1484.27 797.519 1485.7 796.034 1488.2 796.034H1496.16C1503.31 796.034 1506.98 799.393 1506.98 805.126C1506.98 808.095 1505.72 810.896 1503.18 812.381L1505.98 816.982C1506.67 818.133 1506.81 818.745 1506.81 819.673C1506.81 821.77 1505.18 823.272 1502.9 823.272C1500.97 823.272 1500.19 822.586 1498.8 820.118L1495.27 813.828H1492.14V819.153C1492.14 821.788 1490.71 823.272 1488.2 823.272ZM1492.14 808.633H1495.39C1497.59 808.633 1498.95 807.278 1498.95 805.256C1498.95 803.271 1497.52 801.842 1495.4 801.842H1492.14V808.633ZM1513.62 823.272C1511.12 823.272 1509.62 821.844 1509.62 819.469C1509.62 818.782 1509.82 817.78 1510.17 816.834L1516.17 800.283C1517.32 797.036 1519.26 795.57 1522.4 795.57C1525.76 795.57 1527.69 796.98 1528.89 800.283L1534.94 816.834C1535.31 817.854 1535.46 818.597 1535.46 819.45C1535.46 821.677 1533.81 823.272 1531.53 823.272C1529.21 823.272 1528 822.215 1527.34 819.617L1526.87 817.799H1518.15L1517.69 819.487C1516.95 822.178 1515.76 823.272 1513.62 823.272ZM1519.64 811.936H1525.22L1522.44 802.213H1522.29L1519.64 811.936ZM1546.34 823.272C1543.83 823.272 1542.4 821.788 1542.4 819.153V814.329L1534.72 802.064C1534.18 801.192 1533.9 800.265 1533.9 799.355C1533.9 797.166 1535.59 795.57 1537.91 795.57C1539.64 795.57 1540.57 796.22 1541.62 798.168L1546.35 806.889H1546.5L1551.25 798.149C1552.26 796.312 1553.29 795.57 1554.87 795.57C1557.12 795.57 1558.77 797.147 1558.77 799.281C1558.77 800.228 1558.49 801.137 1557.93 802.027L1550.27 814.329V819.153C1550.27 821.788 1548.84 823.272 1546.34 823.272Z" fill="white"/>
<rect x="1461" y="860.57" width="92" height="36" rx="10" fill="white"/>
<path d="M1471.97 884.57H1470.68L1471.33 881.134H1469.26L1469.51 879.851H1471.56L1472.2 876.484H1470.06L1470.31 875.201H1472.43L1473.06 871.888H1474.34L1473.72 875.201H1476.66L1477.29 871.888H1478.58L1477.95 875.201H1480.14L1479.89 876.484H1477.71L1477.08 879.851H1479.33L1479.08 881.134H1476.84L1476.2 884.57H1474.92L1475.54 881.134H1472.6L1471.97 884.57ZM1472.8 879.886H1475.82L1476.47 876.449H1473.45L1472.8 879.886ZM1485.44 884.781C1482.82 884.781 1481.12 883.322 1480.96 881.318L1480.95 881.213H1482.47L1482.48 881.301C1482.61 882.549 1483.75 883.41 1485.44 883.41C1487.1 883.41 1488.24 882.479 1488.24 881.134V881.116C1488.24 879.561 1487.12 878.69 1485.34 878.69H1483.75V877.354H1485.27C1486.79 877.354 1487.84 876.423 1487.84 875.157V875.14C1487.84 873.812 1486.97 873.048 1485.42 873.048C1483.93 873.048 1482.87 873.839 1482.73 875.122L1482.72 875.21H1481.2L1481.21 875.122C1481.42 873.057 1483.05 871.677 1485.42 871.677C1487.84 871.677 1489.43 873.021 1489.43 874.946V874.964C1489.43 876.528 1488.32 877.601 1486.74 877.935V877.97C1488.59 878.128 1489.84 879.279 1489.84 881.081V881.099C1489.84 883.217 1487.98 884.781 1485.44 884.781ZM1492.02 884.57V871.888H1496.83C1499 871.888 1500.47 873.153 1500.47 875.052V875.069C1500.47 876.379 1499.49 877.653 1498.18 877.838V877.873C1500 878.084 1501.11 879.314 1501.11 880.993V881.011C1501.11 883.243 1499.51 884.57 1496.81 884.57H1492.02ZM1496.47 873.285H1493.61V877.354H1495.98C1497.85 877.354 1498.87 876.607 1498.87 875.236V875.219C1498.87 873.971 1498 873.285 1496.47 873.285ZM1496.43 878.717H1493.61V883.173H1496.58C1498.47 883.173 1499.49 882.408 1499.49 880.949V880.932C1499.49 879.464 1498.45 878.717 1496.43 878.717ZM1506.97 884.781C1504.35 884.781 1502.66 883.322 1502.49 881.318L1502.48 881.213H1504L1504.01 881.301C1504.14 882.549 1505.29 883.41 1506.97 883.41C1508.63 883.41 1509.77 882.479 1509.77 881.134V881.116C1509.77 879.561 1508.65 878.69 1506.88 878.69H1505.29V877.354H1506.81C1508.32 877.354 1509.37 876.423 1509.37 875.157V875.14C1509.37 873.812 1508.5 873.048 1506.96 873.048C1505.46 873.048 1504.4 873.839 1504.27 875.122L1504.26 875.21H1502.74L1502.75 875.122C1502.95 873.057 1504.58 871.677 1506.96 871.677C1509.37 871.677 1510.96 873.021 1510.96 874.946V874.964C1510.96 876.528 1509.86 877.601 1508.27 877.935V877.97C1510.12 878.128 1511.38 879.279 1511.38 881.081V881.099C1511.38 883.217 1509.51 884.781 1506.97 884.781ZM1513.56 884.57V871.888H1518.36C1520.54 871.888 1522 873.153 1522 875.052V875.069C1522 876.379 1521.02 877.653 1519.71 877.838V877.873C1521.54 878.084 1522.64 879.314 1522.64 880.993V881.011C1522.64 883.243 1521.04 884.57 1518.35 884.57H1513.56ZM1518 873.285H1515.14V877.354H1517.51C1519.38 877.354 1520.4 876.607 1520.4 875.236V875.219C1520.4 873.971 1519.53 873.285 1518 873.285ZM1517.96 878.717H1515.14V883.173H1518.11C1520.01 883.173 1521.02 882.408 1521.02 880.949V880.932C1521.02 879.464 1519.98 878.717 1517.96 878.717ZM1528.51 884.781C1525.89 884.781 1524.19 883.322 1524.02 881.318L1524.02 881.213H1525.54L1525.54 881.301C1525.68 882.549 1526.82 883.41 1528.51 883.41C1530.17 883.41 1531.3 882.479 1531.3 881.134V881.116C1531.3 879.561 1530.19 878.69 1528.41 878.69H1526.82V877.354H1528.34C1529.85 877.354 1530.91 876.423 1530.91 875.157V875.14C1530.91 873.812 1530.04 873.048 1528.49 873.048C1527 873.048 1525.93 873.839 1525.8 875.122L1525.79 875.21H1524.27L1524.28 875.122C1524.48 873.057 1526.12 871.677 1528.49 871.677C1530.91 871.677 1532.5 873.021 1532.5 874.946V874.964C1532.5 876.528 1531.39 877.601 1529.81 877.935V877.97C1531.65 878.128 1532.91 879.279 1532.91 881.081V881.099C1532.91 883.217 1531.05 884.781 1528.51 884.781ZM1535.09 884.57V871.888H1539.9C1542.07 871.888 1543.54 873.153 1543.54 875.052V875.069C1543.54 876.379 1542.55 877.653 1541.24 877.838V877.873C1543.07 878.084 1544.18 879.314 1544.18 880.993V881.011C1544.18 883.243 1542.58 884.57 1539.88 884.57H1535.09ZM1539.54 873.285H1536.67V877.354H1539.04C1540.92 877.354 1541.94 876.607 1541.94 875.236V875.219C1541.94 873.971 1541.07 873.285 1539.54 873.285ZM1539.49 878.717H1536.67V883.173H1539.64C1541.54 883.173 1542.55 882.408 1542.55 880.949V880.932C1542.55 879.464 1541.51 878.717 1539.49 878.717Z" fill="#3B3B3B"/>
</g>
<g clip-path="url(#clip4_1122_11960)">
<rect width="274.286" height="921" transform="translate(1645.43)" fill="white"/>
<path d="M1722.72 787.272C1720.22 787.272 1718.79 785.788 1718.79 783.153V766.306H1714.83C1712.76 766.306 1711.36 765.174 1711.36 763.17C1711.36 761.166 1712.72 760.034 1714.83 760.034H1730.61C1732.72 760.034 1734.08 761.166 1734.08 763.17C1734.08 765.174 1732.68 766.306 1730.61 766.306H1726.65V783.153C1726.65 785.788 1725.22 787.272 1722.72 787.272ZM1747.94 787.272C1739.64 787.272 1734.45 781.984 1734.45 773.431C1734.45 764.877 1739.66 759.57 1747.94 759.57C1756.21 759.57 1761.43 764.877 1761.43 773.431C1761.43 781.984 1756.21 787.272 1747.94 787.272ZM1747.94 781.001C1751.24 781.001 1753.41 778.051 1753.41 773.431C1753.41 768.792 1751.22 765.842 1747.94 765.842C1744.65 765.842 1742.46 768.792 1742.46 773.431C1742.46 778.051 1744.63 781.001 1747.94 781.001ZM1773.04 787.272C1770.52 787.272 1769.14 786.066 1768.36 783.153L1763.73 765.879C1763.47 764.896 1763.28 763.782 1763.28 763.077C1763.28 760.851 1764.71 759.57 1767.16 759.57C1769.22 759.57 1770.44 760.702 1770.91 763.059L1773.65 776.956H1773.8L1777.16 762.688C1777.66 760.554 1778.83 759.57 1780.83 759.57C1782.76 759.57 1784.02 760.646 1784.51 762.688L1787.87 776.956H1788.01L1790.76 763.059C1791.22 760.702 1792.45 759.57 1794.51 759.57C1796.96 759.57 1798.39 760.851 1798.39 763.077C1798.39 763.764 1798.22 764.858 1797.94 765.879L1793.28 783.209C1792.5 786.048 1791.13 787.272 1788.68 787.272C1786.1 787.272 1784.71 786.066 1783.95 783.172L1780.91 771.482H1780.76L1777.72 783.172C1776.99 785.992 1775.53 787.272 1773.04 787.272ZM1805.75 786.809C1803.25 786.809 1801.82 785.324 1801.82 782.689V764.153C1801.82 761.519 1803.25 760.034 1805.75 760.034H1817.61C1819.72 760.034 1821.08 761.166 1821.08 763.17C1821.08 765.174 1819.69 766.306 1817.61 766.306H1809.69V770.61H1817.29C1819.17 770.61 1820.39 771.631 1820.39 773.431C1820.39 775.23 1819.2 776.251 1817.29 776.251H1809.69V780.537H1817.61C1819.69 780.537 1821.08 781.669 1821.08 783.673C1821.08 785.677 1819.72 786.809 1817.61 786.809H1805.75ZM1828.31 786.809C1825.81 786.809 1824.38 785.324 1824.38 782.689V763.689C1824.38 761.055 1825.81 759.57 1828.31 759.57C1830.82 759.57 1832.25 761.055 1832.25 763.689V780.537H1839.65C1841.73 780.537 1843.12 781.669 1843.12 783.673C1843.12 785.677 1841.77 786.809 1839.65 786.809H1828.31ZM1729.88 823.272C1727.36 823.272 1725.99 822.066 1725.21 819.153L1720.57 801.879C1720.31 800.896 1720.12 799.782 1720.12 799.077C1720.12 796.851 1721.55 795.57 1724 795.57C1726.06 795.57 1727.28 796.702 1727.75 799.059L1730.49 812.956H1730.64L1734 798.688C1734.5 796.554 1735.67 795.57 1737.68 795.57C1739.6 795.57 1740.87 796.646 1741.35 798.688L1744.71 812.956H1744.86L1747.6 799.059C1748.07 796.702 1749.29 795.57 1751.35 795.57C1753.8 795.57 1755.23 796.851 1755.23 799.077C1755.23 799.764 1755.06 800.858 1754.78 801.879L1750.13 819.209C1749.35 822.048 1747.97 823.272 1745.52 823.272C1742.94 823.272 1741.55 822.066 1740.79 819.172L1737.75 807.482H1737.6L1734.56 819.172C1733.83 821.992 1732.37 823.272 1729.88 823.272ZM1762.59 823.272C1760.09 823.272 1758.66 821.788 1758.66 819.153V799.689C1758.66 797.055 1760.09 795.57 1762.59 795.57C1765.1 795.57 1766.53 797.055 1766.53 799.689V806.202H1775.95V799.689C1775.95 797.055 1777.38 795.57 1779.89 795.57C1782.39 795.57 1783.82 797.055 1783.82 799.689V819.153C1783.82 821.788 1782.39 823.272 1779.89 823.272C1777.38 823.272 1775.95 821.788 1775.95 819.153V812.455H1766.53V819.153C1766.53 821.788 1765.1 823.272 1762.59 823.272ZM1791.47 823.272C1788.96 823.272 1787.53 821.788 1787.53 819.153V799.689C1787.53 797.055 1788.96 795.57 1791.47 795.57C1793.97 795.57 1795.4 797.055 1795.4 799.689V819.153C1795.4 821.788 1793.97 823.272 1791.47 823.272ZM1809.07 823.272C1806.57 823.272 1805.14 821.788 1805.14 819.153V802.306H1801.19C1799.11 802.306 1797.72 801.174 1797.72 799.17C1797.72 797.166 1799.07 796.034 1801.19 796.034H1816.96C1819.07 796.034 1820.43 797.166 1820.43 799.17C1820.43 801.174 1819.04 802.306 1816.96 802.306H1813.01V819.153C1813.01 821.788 1811.58 823.272 1809.07 823.272ZM1826.68 822.809C1824.18 822.809 1822.75 821.324 1822.75 818.689V800.153C1822.75 797.519 1824.18 796.034 1826.68 796.034H1838.54C1840.65 796.034 1842.01 797.166 1842.01 799.17C1842.01 801.174 1840.62 802.306 1838.54 802.306H1830.62V806.61H1838.22C1840.1 806.61 1841.32 807.631 1841.32 809.431C1841.32 811.23 1840.13 812.251 1838.22 812.251H1830.62V816.537H1838.54C1840.62 816.537 1842.01 817.669 1842.01 819.673C1842.01 821.677 1840.65 822.809 1838.54 822.809H1826.68Z" fill="black"/>
<rect x="1735" y="860.57" width="92" height="36" rx="10" fill="black"/>
<path d="M1745.97 884.57H1744.68L1745.33 881.134H1743.26L1743.51 879.851H1745.56L1746.2 876.484H1744.06L1744.31 875.201H1746.43L1747.06 871.888H1748.34L1747.72 875.201H1750.66L1751.29 871.888H1752.58L1751.95 875.201H1754.14L1753.89 876.484H1751.71L1751.08 879.851H1753.33L1753.08 881.134H1750.84L1750.2 884.57H1748.92L1749.54 881.134H1746.6L1745.97 884.57ZM1746.8 879.886H1749.82L1750.47 876.449H1747.45L1746.8 879.886ZM1759.44 884.781C1756.82 884.781 1755.12 883.322 1754.96 881.318L1754.95 881.213H1756.47L1756.48 881.301C1756.61 882.549 1757.75 883.41 1759.44 883.41C1761.1 883.41 1762.24 882.479 1762.24 881.134V881.116C1762.24 879.561 1761.12 878.69 1759.34 878.69H1757.75V877.354H1759.27C1760.79 877.354 1761.84 876.423 1761.84 875.157V875.14C1761.84 873.812 1760.97 873.048 1759.42 873.048C1757.93 873.048 1756.87 873.839 1756.73 875.122L1756.72 875.21H1755.2L1755.21 875.122C1755.42 873.057 1757.05 871.677 1759.42 871.677C1761.84 871.677 1763.43 873.021 1763.43 874.946V874.964C1763.43 876.528 1762.32 877.601 1760.74 877.935V877.97C1762.59 878.128 1763.84 879.279 1763.84 881.081V881.099C1763.84 883.217 1761.98 884.781 1759.44 884.781ZM1766.02 884.57V871.888H1770.83C1773 871.888 1774.47 873.153 1774.47 875.052V875.069C1774.47 876.379 1773.49 877.653 1772.18 877.838V877.873C1774 878.084 1775.11 879.314 1775.11 880.993V881.011C1775.11 883.243 1773.51 884.57 1770.81 884.57H1766.02ZM1770.47 873.285H1767.61V877.354H1769.98C1771.85 877.354 1772.87 876.607 1772.87 875.236V875.219C1772.87 873.971 1772 873.285 1770.47 873.285ZM1770.43 878.717H1767.61V883.173H1770.58C1772.47 883.173 1773.49 882.408 1773.49 880.949V880.932C1773.49 879.464 1772.45 878.717 1770.43 878.717ZM1780.97 884.781C1778.35 884.781 1776.66 883.322 1776.49 881.318L1776.48 881.213H1778L1778.01 881.301C1778.14 882.549 1779.29 883.41 1780.97 883.41C1782.63 883.41 1783.77 882.479 1783.77 881.134V881.116C1783.77 879.561 1782.65 878.69 1780.88 878.69H1779.29V877.354H1780.81C1782.32 877.354 1783.37 876.423 1783.37 875.157V875.14C1783.37 873.812 1782.5 873.048 1780.96 873.048C1779.46 873.048 1778.4 873.839 1778.27 875.122L1778.26 875.21H1776.74L1776.75 875.122C1776.95 873.057 1778.58 871.677 1780.96 871.677C1783.37 871.677 1784.96 873.021 1784.96 874.946V874.964C1784.96 876.528 1783.86 877.601 1782.27 877.935V877.97C1784.12 878.128 1785.38 879.279 1785.38 881.081V881.099C1785.38 883.217 1783.51 884.781 1780.97 884.781ZM1787.56 884.57V871.888H1792.36C1794.54 871.888 1796 873.153 1796 875.052V875.069C1796 876.379 1795.02 877.653 1793.71 877.838V877.873C1795.54 878.084 1796.64 879.314 1796.64 880.993V881.011C1796.64 883.243 1795.04 884.57 1792.35 884.57H1787.56ZM1792 873.285H1789.14V877.354H1791.51C1793.38 877.354 1794.4 876.607 1794.4 875.236V875.219C1794.4 873.971 1793.53 873.285 1792 873.285ZM1791.96 878.717H1789.14V883.173H1792.11C1794.01 883.173 1795.02 882.408 1795.02 880.949V880.932C1795.02 879.464 1793.98 878.717 1791.96 878.717ZM1802.51 884.781C1799.89 884.781 1798.19 883.322 1798.02 881.318L1798.02 881.213H1799.54L1799.54 881.301C1799.68 882.549 1800.82 883.41 1802.51 883.41C1804.17 883.41 1805.3 882.479 1805.3 881.134V881.116C1805.3 879.561 1804.19 878.69 1802.41 878.69H1800.82V877.354H1802.34C1803.85 877.354 1804.91 876.423 1804.91 875.157V875.14C1804.91 873.812 1804.04 873.048 1802.49 873.048C1801 873.048 1799.93 873.839 1799.8 875.122L1799.79 875.21H1798.27L1798.28 875.122C1798.48 873.057 1800.12 871.677 1802.49 871.677C1804.91 871.677 1806.5 873.021 1806.5 874.946V874.964C1806.5 876.528 1805.39 877.601 1803.81 877.935V877.97C1805.65 878.128 1806.91 879.279 1806.91 881.081V881.099C1806.91 883.217 1805.05 884.781 1802.51 884.781ZM1809.09 884.57V871.888H1813.9C1816.07 871.888 1817.54 873.153 1817.54 875.052V875.069C1817.54 876.379 1816.55 877.653 1815.24 877.838V877.873C1817.07 878.084 1818.18 879.314 1818.18 880.993V881.011C1818.18 883.243 1816.58 884.57 1813.88 884.57H1809.09ZM1813.54 873.285H1810.67V877.354H1813.04C1814.92 877.354 1815.94 876.607 1815.94 875.236V875.219C1815.94 873.971 1815.07 873.285 1813.54 873.285ZM1813.49 878.717H1810.67V883.173H1813.64C1815.54 883.173 1816.55 882.408 1816.55 880.949V880.932C1816.55 879.464 1815.51 878.717 1813.49 878.717Z" fill="white"/>
</g>
<g clip-path="url(#clip5_1122_11960)">
<rect width="274.286" height="921" transform="translate(1919.71)" fill="#FFD84F"/>
<path d="M1985.22 787.272C1976.72 787.272 1971.73 782.244 1971.73 773.412C1971.73 764.58 1976.84 759.57 1984.93 759.57C1990.05 759.57 1993.83 761.519 1995.95 765.248C1996.49 766.176 1996.76 767.159 1996.76 768.105C1996.76 770.109 1995.41 771.408 1993.35 771.408C1991.64 771.408 1990.6 770.74 1989.75 769.089C1988.56 766.807 1987.08 765.749 1985.02 765.749C1981.79 765.749 1979.75 768.606 1979.75 773.394C1979.75 778.236 1981.77 781.094 1985.04 781.094C1987.19 781.094 1988.69 779.999 1989.82 777.624C1990.62 775.936 1991.57 775.286 1993.22 775.286C1995.47 775.286 1996.93 776.659 1996.93 778.756C1996.93 779.424 1996.78 780.129 1996.5 780.815C1994.95 784.693 1990.44 787.272 1985.22 787.272ZM2004.41 787.272C2001.9 787.272 2000.47 785.788 2000.47 783.153V763.689C2000.47 761.055 2001.9 759.57 2004.41 759.57C2006.91 759.57 2008.34 761.055 2008.34 763.689V770.202H2017.77V763.689C2017.77 761.055 2019.2 759.57 2021.7 759.57C2024.21 759.57 2025.64 761.055 2025.64 763.689V783.153C2025.64 785.788 2024.21 787.272 2021.7 787.272C2019.2 787.272 2017.77 785.788 2017.77 783.153V776.455H2008.34V783.153C2008.34 785.788 2006.91 787.272 2004.41 787.272ZM2032.8 787.272C2030.29 787.272 2028.79 785.844 2028.79 783.469C2028.79 782.782 2028.99 781.78 2029.35 780.834L2035.34 764.283C2036.49 761.036 2038.44 759.57 2041.57 759.57C2044.93 759.57 2046.86 760.98 2048.07 764.283L2054.12 780.834C2054.49 781.854 2054.64 782.597 2054.64 783.45C2054.64 785.677 2052.98 787.272 2050.7 787.272C2048.38 787.272 2047.18 786.215 2046.51 783.617L2046.05 781.799H2037.32L2036.86 783.487C2036.12 786.178 2034.93 787.272 2032.8 787.272ZM2038.81 775.936H2044.39L2041.61 766.213H2041.46L2038.81 775.936ZM2061.74 787.272C2059.24 787.272 2057.81 785.788 2057.81 783.153V764.153C2057.81 761.519 2059.24 760.034 2061.74 760.034H2069.7C2076.85 760.034 2080.52 763.393 2080.52 769.126C2080.52 772.095 2079.26 774.896 2076.72 776.381L2079.52 780.982C2080.2 782.133 2080.35 782.745 2080.35 783.673C2080.35 785.77 2078.72 787.272 2076.44 787.272C2074.51 787.272 2073.73 786.586 2072.34 784.118L2068.81 777.828H2065.68V783.153C2065.68 785.788 2064.25 787.272 2061.74 787.272ZM2065.68 772.633H2068.92C2071.13 772.633 2072.49 771.278 2072.49 769.256C2072.49 767.271 2071.06 765.842 2068.94 765.842H2065.68V772.633ZM2096.59 787.272C2088.09 787.272 2083.06 782.281 2083.06 773.394C2083.06 764.617 2088.09 759.57 2096.35 759.57C2101.71 759.57 2105.75 761.871 2107.33 764.691C2107.72 765.415 2107.87 766.046 2107.87 766.714C2107.87 768.681 2106.5 770.035 2104.49 770.035C2102.95 770.035 2101.78 769.441 2100.82 768.161C2099.56 766.473 2098.28 765.768 2096.38 765.768C2093.04 765.768 2091.08 768.514 2091.08 773.282C2091.08 778.162 2093.32 781.075 2096.77 781.075C2099.33 781.075 2101.15 779.646 2101.38 777.494L2101.41 777.123H2099.87C2098.11 777.123 2096.96 776.195 2096.96 774.507C2096.96 772.818 2098.09 771.891 2099.87 771.891H2105.05C2107.55 771.891 2108.98 773.375 2108.98 776.01C2108.98 782.374 2104.57 787.272 2096.59 787.272ZM2116.03 786.809C2113.53 786.809 2112.1 785.324 2112.1 782.689V764.153C2112.1 761.519 2113.53 760.034 2116.03 760.034H2127.89C2130.01 760.034 2131.36 761.166 2131.36 763.17C2131.36 765.174 2129.97 766.306 2127.89 766.306H2119.97V770.61H2127.57C2129.45 770.61 2130.67 771.631 2130.67 773.431C2130.67 775.23 2129.49 776.251 2127.57 776.251H2119.97V780.537H2127.89C2129.97 780.537 2131.36 781.669 2131.36 783.673C2131.36 785.677 2130.01 786.809 2127.89 786.809H2116.03ZM1989.86 823.272C1987.36 823.272 1985.93 821.788 1985.93 819.153V814.329L1978.25 802.064C1977.71 801.192 1977.43 800.265 1977.43 799.355C1977.43 797.166 1979.12 795.57 1981.44 795.57C1983.16 795.57 1984.09 796.22 1985.15 798.168L1989.88 806.889H1990.03L1994.78 798.149C1995.78 796.312 1996.82 795.57 1998.4 795.57C2000.64 795.57 2002.29 797.147 2002.29 799.281C2002.29 800.228 2002.01 801.137 2001.46 802.027L1993.8 814.329V819.153C1993.8 821.788 1992.37 823.272 1989.86 823.272ZM2009.29 822.809C2006.78 822.809 2005.35 821.324 2005.35 818.689V800.153C2005.35 797.519 2006.78 796.034 2009.29 796.034H2021.14C2023.26 796.034 2024.61 797.166 2024.61 799.17C2024.61 801.174 2023.22 802.306 2021.14 802.306H2013.22V806.61H2020.83C2022.7 806.61 2023.93 807.631 2023.93 809.431C2023.93 811.23 2022.74 812.251 2020.83 812.251H2013.22V816.537H2021.14C2023.22 816.537 2024.61 817.669 2024.61 819.673C2024.61 821.677 2023.26 822.809 2021.14 822.809H2009.29ZM2031.85 822.809C2029.35 822.809 2027.92 821.324 2027.92 818.689V799.689C2027.92 797.055 2029.35 795.57 2031.85 795.57C2034.36 795.57 2035.78 797.055 2035.78 799.689V816.537H2043.19C2045.27 816.537 2046.66 817.669 2046.66 819.673C2046.66 821.677 2045.3 822.809 2043.19 822.809H2031.85ZM2053.19 822.809C2050.68 822.809 2049.26 821.324 2049.26 818.689V799.689C2049.26 797.055 2050.68 795.57 2053.19 795.57C2055.69 795.57 2057.12 797.055 2057.12 799.689V816.537H2064.53C2066.6 816.537 2068 817.669 2068 819.673C2068 821.677 2066.64 822.809 2064.53 822.809H2053.19ZM2082.32 823.272C2074.03 823.272 2068.83 817.984 2068.83 809.431C2068.83 800.877 2074.04 795.57 2082.32 795.57C2090.59 795.57 2095.81 800.877 2095.81 809.431C2095.81 817.984 2090.59 823.272 2082.32 823.272ZM2082.32 817.001C2085.62 817.001 2087.79 814.051 2087.79 809.431C2087.79 804.792 2085.6 801.842 2082.32 801.842C2079.04 801.842 2076.85 804.792 2076.85 809.431C2076.85 814.051 2079.02 817.001 2082.32 817.001ZM2107.42 823.272C2104.9 823.272 2103.53 822.066 2102.75 819.153L2098.11 801.879C2097.85 800.896 2097.66 799.782 2097.66 799.077C2097.66 796.851 2099.09 795.57 2101.54 795.57C2103.6 795.57 2104.83 796.702 2105.29 799.059L2108.04 812.956H2108.18L2111.54 798.688C2112.04 796.554 2113.21 795.57 2115.22 795.57C2117.15 795.57 2118.41 796.646 2118.89 798.688L2122.25 812.956H2122.4L2125.14 799.059C2125.61 796.702 2126.83 795.57 2128.89 795.57C2131.34 795.57 2132.77 796.851 2132.77 799.077C2132.77 799.764 2132.6 800.858 2132.32 801.879L2127.67 819.209C2126.89 822.048 2125.51 823.272 2123.07 823.272C2120.49 823.272 2119.09 822.066 2118.33 819.172L2115.29 807.482H2115.14L2112.1 819.172C2111.38 821.992 2109.91 823.272 2107.42 823.272Z" fill="black"/>
<rect x="2010.29" y="860.57" width="90" height="36" rx="10" fill="black"/>
<path d="M2021.34 884.57H2020.06L2020.7 881.134H2018.63L2018.89 879.851H2020.94L2021.57 876.484H2019.43L2019.69 875.201H2021.81L2022.43 871.888H2023.71L2023.09 875.201H2026.04L2026.67 871.888H2027.95L2027.33 875.201H2029.52L2029.26 876.484H2027.09L2026.46 879.851H2028.71L2028.45 881.134H2026.22L2025.58 884.57H2024.29L2024.92 881.134H2021.97L2021.34 884.57ZM2022.18 879.886H2025.19L2025.84 876.449H2022.83L2022.18 879.886ZM2030.75 884.57V871.888H2038.45V873.312H2032.33V877.671H2037.94V879.077H2032.33V884.57H2030.75ZM2040.26 884.57V871.888H2047.96V873.312H2041.84V877.671H2047.45V879.077H2041.84V884.57H2040.26ZM2049.77 884.57V871.888H2054.03C2057.78 871.888 2060.01 874.226 2060.01 878.207V878.225C2060.01 882.224 2057.8 884.57 2054.03 884.57H2049.77ZM2051.35 883.146H2053.92C2056.8 883.146 2058.4 881.389 2058.4 878.242V878.225C2058.4 875.061 2056.8 873.312 2053.92 873.312H2051.35V883.146ZM2066.15 884.781C2063.46 884.781 2061.54 883.27 2061.54 881.143V881.125C2061.54 879.561 2062.64 878.26 2064.27 877.882V877.847C2062.88 877.416 2062 876.361 2062 875.025V875.008C2062 873.092 2063.75 871.677 2066.15 871.677C2068.55 871.677 2070.3 873.092 2070.3 875.008V875.025C2070.3 876.361 2069.42 877.416 2068.03 877.847V877.882C2069.66 878.26 2070.75 879.561 2070.75 881.125V881.143C2070.75 883.27 2068.84 884.781 2066.15 884.781ZM2066.15 877.258C2067.68 877.258 2068.72 876.388 2068.72 875.157V875.14C2068.72 873.909 2067.68 873.039 2066.15 873.039C2064.62 873.039 2063.57 873.909 2063.57 875.14V875.157C2063.57 876.388 2064.62 877.258 2066.15 877.258ZM2066.15 883.401C2067.9 883.401 2069.15 882.417 2069.15 881.046V881.028C2069.15 879.64 2067.91 878.646 2066.15 878.646C2064.39 878.646 2063.15 879.64 2063.15 881.028V881.046C2063.15 882.417 2064.4 883.401 2066.15 883.401ZM2078.6 884.57V881.934H2072.23V880.501L2077.79 871.888H2080.13V880.545H2081.92V881.934H2080.13V884.57H2078.6ZM2073.79 880.545H2078.6V873.241H2078.55L2073.79 880.51V880.545ZM2083.66 884.57V871.888H2091.36V873.312H2085.24V877.671H2090.85V879.077H2085.24V884.57H2083.66Z" fill="white"/>
</g>
<defs>
<clipPath id="clip0_1122_11960">
<rect width="274.286" height="921" fill="white" transform="translate(548.285)"/>
</clipPath>
<clipPath id="clip1_1122_11960">
<rect width="274.286" height="921" fill="white" transform="translate(822.572)"/>
</clipPath>
<clipPath id="clip2_1122_11960">
<rect width="274.286" height="921" fill="white" transform="translate(1096.86)"/>
</clipPath>
<clipPath id="clip3_1122_11960">
<rect width="274.286" height="921" fill="white" transform="translate(1371.14)"/>
</clipPath>
<clipPath id="clip4_1122_11960">
<rect width="274.286" height="921" fill="white" transform="translate(1645.43)"/>
</clipPath>
<clipPath id="clip5_1122_11960">
<rect width="274.286" height="921" fill="white" transform="translate(1919.71)"/>
</clipPath>
</defs>
</svg>
