<svg width="1617" height="680" viewBox="0 0 1617 680" fill="none" xmlns="http://www.w3.org/2000/svg">
<g clip-path="url(#clip0_1147_16531)">
<g clip-path="url(#clip1_1147_16531)">
<rect width="201.938" height="678.778" transform="translate(0 0.25)" fill="#FB574D"/>
<path d="M60.4929 581.043C56.0486 581.043 53.4777 579.443 52.6298 577.515C52.4247 577.064 52.329 576.599 52.329 576.147C52.329 574.753 53.382 573.795 54.8178 573.795C55.9118 573.795 56.6502 574.137 57.4297 575.231C58.1134 576.202 59.2621 576.599 60.5612 576.599C62.2979 576.599 63.3646 575.888 63.3646 574.917C63.3646 573.987 62.5988 573.59 60.3835 573.194L58.4006 572.838C54.4759 572.141 52.329 570.158 52.329 567.095C52.329 563.129 55.7477 560.627 60.4382 560.627C64.3492 560.627 67.1525 562.008 68.1781 564.469C68.3422 564.866 68.4243 565.235 68.4243 565.686C68.4243 566.999 67.467 567.888 66.0175 567.902C64.7868 567.902 64.0073 567.478 63.3099 566.425C62.6672 565.44 61.751 565.071 60.5065 565.071C58.8929 565.071 58.0724 565.782 58.0724 566.671C58.0724 567.56 58.9203 567.984 60.8894 568.339L62.8723 568.695C67.1115 569.46 69.108 571.197 69.108 574.397C69.108 578.459 65.9354 581.043 60.4929 581.043ZM72.9917 581.043C71.1456 581.043 70.0379 579.99 70.0379 578.24C70.0379 577.734 70.1883 576.995 70.4481 576.298L74.8651 564.1C75.7129 561.707 77.1488 560.627 79.4599 560.627C81.935 560.627 83.3572 561.666 84.246 564.1L88.704 576.298C88.9775 577.05 89.0869 577.597 89.0869 578.226C89.0869 579.867 87.8699 581.043 86.1879 581.043C84.4785 581.043 83.5896 580.264 83.0974 578.349L82.7555 577.009H76.3283L75.9864 578.253C75.4395 580.236 74.5643 581.043 72.9917 581.043ZM77.4223 572.688H81.5384L79.4872 565.522H79.3778L77.4223 572.688ZM99.302 581.043C94.0919 581.043 90.6048 578.171 90.6048 573.672V563.662C90.6048 561.721 91.6578 560.627 93.5039 560.627C95.35 560.627 96.403 561.721 96.403 563.662V573.03C96.403 575.108 97.4286 576.243 99.302 576.243C101.175 576.243 102.201 575.108 102.201 573.03V563.662C102.201 561.721 103.254 560.627 105.1 560.627C106.946 560.627 107.999 561.721 107.999 563.662V573.672C107.999 578.171 104.512 581.043 99.302 581.043ZM113.469 581.043C111.732 581.043 110.734 580.031 110.734 578.171V563.307C110.734 561.556 111.691 560.627 113.469 560.627C114.522 560.627 115.329 561.105 116.163 562.213L122.85 571.197H122.959V563.498C122.959 561.638 123.971 560.627 125.694 560.627C127.431 560.627 128.429 561.638 128.429 563.498V578.363C128.429 580.099 127.486 581.043 125.763 581.043C124.655 581.043 123.876 580.578 123.055 579.457L116.314 570.308H116.204V578.171C116.204 580.031 115.192 581.043 113.469 581.043ZM133.708 581.043C131.862 581.043 130.754 579.99 130.754 578.24C130.754 577.734 130.905 576.995 131.164 576.298L135.581 564.1C136.429 561.707 137.865 560.627 140.176 560.627C142.651 560.627 144.073 561.666 144.962 564.1L149.42 576.298C149.694 577.05 149.803 577.597 149.803 578.226C149.803 579.867 148.586 581.043 146.904 581.043C145.195 581.043 144.306 580.264 143.814 578.349L143.472 577.009H137.045L136.703 578.253C136.156 580.236 135.28 581.043 133.708 581.043ZM138.139 572.688H142.255L140.203 565.522H140.094L138.139 572.688ZM77.2719 607.043C75.4258 607.043 74.3728 605.949 74.3728 604.007V590.004C74.3728 588.062 75.4258 586.968 77.2719 586.968H83.1384C88.4032 586.968 91.1108 589.444 91.1108 593.669C91.1108 595.857 90.1809 597.922 88.3075 599.016L90.3724 602.407C90.8783 603.255 90.9877 603.706 90.9877 604.39C90.9877 605.935 89.7843 607.043 88.1023 607.043C86.6802 607.043 86.1058 606.537 85.0802 604.718L82.482 600.083H80.1709V604.007C80.1709 605.949 79.118 607.043 77.2719 607.043ZM80.1709 596.254H82.564C84.1913 596.254 85.1896 595.255 85.1896 593.765C85.1896 592.302 84.1366 591.249 82.5777 591.249H80.1709V596.254ZM96.3619 606.701C94.5158 606.701 93.4629 605.607 93.4629 603.665V590.004C93.4629 588.062 94.5158 586.968 96.3619 586.968H105.1C106.659 586.968 107.657 587.803 107.657 589.279C107.657 590.756 106.632 591.59 105.1 591.59H99.261V594.763H104.868C106.249 594.763 107.151 595.515 107.151 596.842C107.151 598.168 106.276 598.92 104.868 598.92H99.261V602.079H105.1C106.632 602.079 107.657 602.913 107.657 604.39C107.657 605.867 106.659 606.701 105.1 606.701H96.3619ZM112.991 606.701C111.144 606.701 110.091 605.607 110.091 603.665V590.004C110.091 588.062 111.144 586.968 112.991 586.968H118.529C124.518 586.968 128.033 590.373 128.033 596.691C128.033 603.009 124.505 606.701 118.529 606.701H112.991ZM115.89 602.093H117.708C120.607 602.093 122.125 600.329 122.125 596.691C122.125 593.368 120.484 591.577 117.708 591.577H115.89V602.093Z" fill="white"/>
<rect x="66.0742" y="634.491" width="69.792" height="26.792" rx="7.37001" fill="white"/>
<path d="M74.769 652.388H73.3245L73.7715 650.043H72.327L72.5926 648.637H74.0435L74.4192 646.668H72.9229L73.195 645.275H74.6848L75.1188 643.041H76.5568L76.1293 645.275H77.8329L78.2669 643.041H79.7114L79.2839 645.275H80.7996L80.534 646.668H79.0183L78.6361 648.637H80.1972L79.9316 650.043H78.3705L77.9236 652.388H76.4726L76.9196 650.043H75.2095L74.769 652.388ZM75.3844 648.715H77.2499L77.658 646.59H75.7989L75.3844 648.715ZM81.5769 652.388V643.041H87.6982V644.654H83.5331V647.16H87.3355V648.708H83.5331V652.388H81.5769ZM88.8577 652.388V643.041H92.9256C94.6875 643.041 95.7951 643.947 95.7951 645.385V645.398C95.7951 646.422 95.0178 647.296 93.9879 647.432V647.471C95.2899 647.568 96.2291 648.488 96.2291 649.712V649.725C96.2291 651.364 94.9919 652.388 92.9968 652.388H88.8577ZM92.4203 644.492H90.8139V646.947H92.1807C93.2819 646.947 93.8713 646.487 93.8713 645.677V645.664C93.8713 644.919 93.3337 644.492 92.4203 644.492ZM92.4139 648.274H90.8139V650.93H92.4981C93.6187 650.93 94.2341 650.47 94.2341 649.602V649.589C94.2341 648.734 93.6122 648.274 92.4139 648.274ZM100.815 652.55C98.7813 652.55 97.434 651.364 97.3174 649.803L97.3109 649.706H99.1181L99.1311 649.751C99.2671 650.457 99.9213 651.001 100.822 651.001C101.845 651.001 102.564 650.302 102.564 649.304V649.291C102.558 648.307 101.839 647.614 100.828 647.614C100.349 647.614 99.9408 647.756 99.6234 648.009C99.4355 648.151 99.2865 648.333 99.1764 648.527H97.4728L97.9003 643.041H103.866V644.595H99.455L99.2282 647.225H99.2671C99.6558 646.597 100.427 646.215 101.372 646.215C103.147 646.215 104.43 647.491 104.43 649.253V649.266C104.43 651.222 102.953 652.55 100.815 652.55ZM106.004 652.388L110.026 644.634V644.595H105.272V643.041H111.957V644.615L108.057 652.388H106.004ZM116.854 652.388V650.671H112.203V649.039L115.953 643.041H118.713V649.11H119.943V650.671H118.713V652.388H116.854ZM113.906 649.162H116.893V644.453H116.847L113.906 649.11V649.162ZM121.103 652.388V643.041H124.672C127.47 643.041 129.129 644.705 129.129 647.666V647.679C129.129 650.645 127.477 652.388 124.672 652.388H121.103ZM123.059 650.768H124.439C126.188 650.768 127.134 649.706 127.134 647.685V647.672C127.134 645.722 126.155 644.654 124.439 644.654H123.059V650.768Z" fill="#FB574D"/>
</g>
<g clip-path="url(#clip2_1147_16531)">
<rect width="202.149" height="678.778" transform="translate(201.938 0.25)" fill="#5166E5"/>
<path d="M284.243 581.043C282.397 581.043 281.344 579.949 281.344 578.007V563.662C281.344 561.721 282.397 560.627 284.243 560.627C286.089 560.627 287.142 561.721 287.142 563.662V578.007C287.142 579.949 286.089 581.043 284.243 581.043ZM299.34 581.043C293.077 581.043 289.398 577.337 289.398 570.828C289.398 564.319 293.159 560.627 299.121 560.627C302.895 560.627 305.685 562.062 307.244 564.811C307.64 565.495 307.845 566.22 307.845 566.917C307.845 568.394 306.847 569.351 305.329 569.351C304.071 569.351 303.305 568.859 302.676 567.642C301.801 565.96 300.707 565.18 299.189 565.18C296.81 565.18 295.306 567.286 295.306 570.814C295.306 574.383 296.796 576.489 299.203 576.489C300.789 576.489 301.897 575.683 302.731 573.932C303.319 572.688 304.016 572.209 305.234 572.209C306.888 572.209 307.969 573.221 307.969 574.766C307.969 575.259 307.859 575.778 307.654 576.284C306.505 579.142 303.182 581.043 299.34 581.043ZM313.479 580.701C311.633 580.701 310.58 579.607 310.58 577.665V564.004C310.58 562.062 311.633 560.968 313.479 560.968H322.218C323.777 560.968 324.775 561.803 324.775 563.279C324.775 564.756 323.749 565.59 322.218 565.59H316.379V568.763H321.985C323.366 568.763 324.269 569.515 324.269 570.842C324.269 572.168 323.394 572.92 321.985 572.92H316.379V576.079H322.218C323.749 576.079 324.775 576.913 324.775 578.39C324.775 579.867 323.777 580.701 322.218 580.701H313.479ZM271.621 606.701C269.775 606.701 268.722 605.607 268.722 603.665V590.004C268.722 588.062 269.775 586.968 271.621 586.968H278.417C282.451 586.968 284.817 588.815 284.817 591.891C284.817 594.161 283.094 595.871 280.81 596.158V596.267C283.477 596.336 285.706 598.346 285.706 600.958C285.706 604.417 282.971 606.701 278.745 606.701H271.621ZM274.52 594.872H276.763C278.253 594.872 279.183 594.093 279.183 592.903C279.183 591.686 278.308 590.948 276.845 590.948H274.52V594.872ZM274.52 602.722H276.995C278.786 602.722 279.812 601.915 279.812 600.424C279.812 599.016 278.773 598.195 277.036 598.195H274.52V602.722ZM290.519 606.701C288.673 606.701 287.62 605.607 287.62 603.665V589.662C287.62 587.721 288.673 586.627 290.519 586.627C292.366 586.627 293.418 587.721 293.418 589.662V602.079H298.875C300.406 602.079 301.432 602.913 301.432 604.39C301.432 605.867 300.434 606.701 298.875 606.701H290.519ZM311.77 607.043C306.56 607.043 303.073 604.171 303.073 599.672V589.662C303.073 587.721 304.126 586.627 305.972 586.627C307.818 586.627 308.871 587.721 308.871 589.662V599.03C308.871 601.108 309.897 602.243 311.77 602.243C313.644 602.243 314.669 601.108 314.669 599.03V589.662C314.669 587.721 315.722 586.627 317.568 586.627C319.414 586.627 320.467 587.721 320.467 589.662V599.672C320.467 604.171 316.98 607.043 311.77 607.043ZM326.101 606.701C324.255 606.701 323.202 605.607 323.202 603.665V590.004C323.202 588.062 324.255 586.968 326.101 586.968H334.84C336.398 586.968 337.397 587.803 337.397 589.279C337.397 590.756 336.371 591.59 334.84 591.59H329V594.763H334.607C335.988 594.763 336.891 595.515 336.891 596.842C336.891 598.168 336.016 598.92 334.607 598.92H329V602.079H334.84C336.371 602.079 337.397 602.913 337.397 604.39C337.397 605.867 336.398 606.701 334.84 606.701H326.101Z" fill="white"/>
<rect x="267.513" y="634.491" width="70.792" height="26.792" rx="7.37001" fill="white"/>
<path d="M276.131 652.388H274.686L275.133 650.043H273.689L273.955 648.637H275.406L275.781 646.668H274.285L274.557 645.275H276.047L276.481 643.041H277.919L277.491 645.275H279.195L279.629 643.041H281.073L280.646 645.275H282.162L281.896 646.668H280.38L279.998 648.637H281.559L281.294 650.043H279.733L279.286 652.388H277.835L278.282 650.043H276.571L276.131 652.388ZM276.746 648.715H278.612L279.02 646.59H277.161L276.746 648.715ZM287.279 652.388V650.671H282.628V649.039L286.378 643.041H289.138V649.11H290.369V650.671H289.138V652.388H287.279ZM284.332 649.162H287.318V644.453H287.272L284.332 649.11V649.162ZM291.528 652.388V643.041H297.721V644.654H293.484V646.895H297.481V648.423H293.484V650.775H297.721V652.388H291.528ZM302.605 652.55C300.571 652.55 299.223 651.364 299.107 649.803L299.1 649.706H300.908L300.921 649.751C301.057 650.457 301.711 651.001 302.611 651.001C303.635 651.001 304.354 650.302 304.354 649.304V649.291C304.347 648.307 303.628 647.614 302.618 647.614C302.138 647.614 301.73 647.756 301.413 648.009C301.225 648.151 301.076 648.333 300.966 648.527H299.262L299.69 643.041H305.656V644.595H301.244L301.018 647.225H301.057C301.445 646.597 302.216 646.215 303.162 646.215C304.937 646.215 306.219 647.491 306.219 649.253V649.266C306.219 651.222 304.742 652.55 302.605 652.55ZM307.424 652.388V643.041H310.993C313.791 643.041 315.45 644.705 315.45 647.666V647.679C315.45 650.645 313.798 652.388 310.993 652.388H307.424ZM309.38 650.768H310.76C312.509 650.768 313.455 649.706 313.455 647.685V647.672C313.455 645.722 312.477 644.654 310.76 644.654H309.38V650.768ZM316.713 652.388V643.041H322.905V644.654H318.669V646.895H322.666V648.423H318.669V650.775H322.905V652.388H316.713ZM328.657 652.388V650.671H324.007V649.039L327.757 643.041H330.516V649.11H331.747V650.671H330.516V652.388H328.657ZM325.71 649.162H328.696V644.453H328.651L325.71 649.11V649.162Z" fill="#5166E5"/>
</g>
<g clip-path="url(#clip3_1147_16531)">
<rect width="202.149" height="678.778" transform="translate(404.087 0.25)" fill="black"/>
<path d="M474.653 581.043C468.39 581.043 464.712 577.337 464.712 570.828C464.712 564.319 468.472 560.627 474.434 560.627C478.209 560.627 480.998 562.062 482.557 564.811C482.954 565.495 483.159 566.22 483.159 566.917C483.159 568.394 482.161 569.351 480.643 569.351C479.385 569.351 478.619 568.859 477.99 567.642C477.115 565.96 476.021 565.18 474.503 565.18C472.123 565.18 470.619 567.286 470.619 570.814C470.619 574.383 472.11 576.489 474.517 576.489C476.103 576.489 477.21 575.683 478.045 573.932C478.633 572.688 479.33 572.209 480.547 572.209C482.202 572.209 483.282 573.221 483.282 574.766C483.282 575.259 483.173 575.778 482.968 576.284C481.819 579.142 478.496 581.043 474.653 581.043ZM488.793 581.043C486.947 581.043 485.894 579.949 485.894 578.007V563.662C485.894 561.721 486.947 560.627 488.793 560.627C490.639 560.627 491.692 561.721 491.692 563.662V568.462H498.639V563.662C498.639 561.721 499.692 560.627 501.538 560.627C503.384 560.627 504.437 561.721 504.437 563.662V578.007C504.437 579.949 503.384 581.043 501.538 581.043C499.692 581.043 498.639 579.949 498.639 578.007V573.071H491.692V578.007C491.692 579.949 490.639 581.043 488.793 581.043ZM509.716 581.043C507.869 581.043 506.762 579.99 506.762 578.24C506.762 577.734 506.912 576.995 507.172 576.298L511.589 564.1C512.437 561.707 513.873 560.627 516.184 560.627C518.659 560.627 520.081 561.666 520.97 564.1L525.428 576.298C525.701 577.05 525.811 577.597 525.811 578.226C525.811 579.867 524.594 581.043 522.912 581.043C521.202 581.043 520.314 580.264 519.821 578.349L519.479 577.009H513.052L512.71 578.253C512.163 580.236 511.288 581.043 509.716 581.043ZM514.146 572.688H518.262L516.211 565.522H516.102L514.146 572.688ZM531.048 581.043C529.202 581.043 528.149 579.949 528.149 578.007V564.004C528.149 562.062 529.202 560.968 531.048 560.968H536.915C542.18 560.968 544.887 563.444 544.887 567.669C544.887 569.857 543.957 571.922 542.084 573.016L544.149 576.407C544.655 577.255 544.764 577.706 544.764 578.39C544.764 579.935 543.561 581.043 541.879 581.043C540.457 581.043 539.882 580.537 538.857 578.718L536.258 574.083H533.947V578.007C533.947 579.949 532.894 581.043 531.048 581.043ZM533.947 570.254H536.34C537.968 570.254 538.966 569.255 538.966 567.765C538.966 566.302 537.913 565.249 536.354 565.249H533.947V570.254ZM461.758 606.701C459.912 606.701 458.859 605.607 458.859 603.665V590.004C458.859 588.062 459.912 586.968 461.758 586.968H468.554C472.588 586.968 474.954 588.815 474.954 591.891C474.954 594.161 473.231 595.871 470.947 596.158V596.267C473.614 596.336 475.843 598.346 475.843 600.958C475.843 604.417 473.108 606.701 468.883 606.701H461.758ZM464.657 594.872H466.9C468.39 594.872 469.32 594.093 469.32 592.903C469.32 591.686 468.445 590.948 466.982 590.948H464.657V594.872ZM464.657 602.722H467.132C468.924 602.722 469.949 601.915 469.949 600.424C469.949 599.016 468.91 598.195 467.173 598.195H464.657V602.722ZM480.657 606.701C478.81 606.701 477.757 605.607 477.757 603.665V589.662C477.757 587.721 478.81 586.627 480.657 586.627C482.503 586.627 483.556 587.721 483.556 589.662V602.079H489.012C490.543 602.079 491.569 602.913 491.569 604.39C491.569 605.867 490.571 606.701 489.012 606.701H480.657ZM496.027 607.043C494.181 607.043 493.073 605.99 493.073 604.24C493.073 603.734 493.224 602.995 493.484 602.298L497.9 590.1C498.748 587.707 500.184 586.627 502.495 586.627C504.97 586.627 506.393 587.666 507.281 590.1L511.739 602.298C512.013 603.05 512.122 603.597 512.122 604.226C512.122 605.867 510.905 607.043 509.223 607.043C507.514 607.043 506.625 606.264 506.133 604.349L505.791 603.009H499.364L499.022 604.253C498.475 606.236 497.6 607.043 496.027 607.043ZM500.458 598.688H504.574L502.523 591.522H502.413L500.458 598.688ZM522.556 607.043C516.293 607.043 512.615 603.337 512.615 596.828C512.615 590.319 516.375 586.627 522.337 586.627C526.112 586.627 528.901 588.062 530.46 590.811C530.857 591.495 531.062 592.22 531.062 592.917C531.062 594.394 530.064 595.351 528.546 595.351C527.288 595.351 526.522 594.859 525.893 593.642C525.018 591.96 523.924 591.18 522.406 591.18C520.026 591.18 518.522 593.286 518.522 596.814C518.522 600.383 520.013 602.489 522.419 602.489C524.006 602.489 525.113 601.683 525.948 599.932C526.536 598.688 527.233 598.209 528.45 598.209C530.105 598.209 531.185 599.221 531.185 600.766C531.185 601.259 531.076 601.778 530.871 602.284C529.722 605.142 526.399 607.043 522.556 607.043ZM536.696 607.043C534.85 607.043 533.797 605.949 533.797 604.007V589.662C533.797 587.721 534.85 586.627 536.696 586.627C538.542 586.627 539.595 587.721 539.595 589.662V594.79H539.704L545.762 587.939C546.597 587.009 547.349 586.627 548.333 586.627C549.851 586.627 551.082 587.816 551.082 589.307C551.082 590.182 550.781 590.811 549.961 591.686L545.885 596.035L550.152 601.313C551.15 602.544 551.574 603.419 551.574 604.24C551.574 605.826 550.371 607.043 548.785 607.043C547.54 607.043 546.692 606.578 545.749 605.375L541.318 599.754L539.595 601.532V604.007C539.595 605.949 538.542 607.043 536.696 607.043Z" fill="white"/>
<rect x="468.451" y="634.491" width="72.792" height="26.792" rx="7.37001" fill="white"/>
<path d="M476.936 652.388H475.491L475.938 650.043H474.494L474.759 648.637H476.21L476.586 646.668H475.09L475.362 645.275H476.852L477.286 643.041H478.724L478.296 645.275H480L480.434 643.041H481.878L481.451 645.275H482.966L482.701 646.668H481.185L480.803 648.637H482.364L482.099 650.043H480.537L480.09 652.388H478.639L479.086 650.043H477.376L476.936 652.388ZM477.551 648.715H479.417L479.825 646.59H477.966L477.551 648.715ZM487.319 652.55C484.949 652.55 483.511 650.691 483.511 647.717V647.704C483.511 644.731 484.949 642.879 487.319 642.879C489.69 642.879 491.128 644.731 491.128 647.704V647.717C491.128 650.691 489.69 652.55 487.319 652.55ZM487.319 650.982C488.485 650.982 489.153 649.771 489.153 647.717V647.704C489.153 645.651 488.485 644.446 487.319 644.446C486.153 644.446 485.486 645.651 485.486 647.704V647.717C485.486 649.771 486.153 650.982 487.319 650.982ZM496.025 652.55C493.654 652.55 492.216 650.691 492.216 647.717V647.704C492.216 644.731 493.654 642.879 496.025 642.879C498.396 642.879 499.834 644.731 499.834 647.704V647.717C499.834 650.691 498.396 652.55 496.025 652.55ZM496.025 650.982C497.191 650.982 497.858 649.771 497.858 647.717V647.704C497.858 645.651 497.191 644.446 496.025 644.446C494.859 644.446 494.192 645.651 494.192 647.704V647.717C494.192 649.771 494.859 650.982 496.025 650.982ZM504.731 652.55C502.36 652.55 500.922 650.691 500.922 647.717V647.704C500.922 644.731 502.36 642.879 504.731 642.879C507.102 642.879 508.54 644.731 508.54 647.704V647.717C508.54 650.691 507.102 652.55 504.731 652.55ZM504.731 650.982C505.897 650.982 506.564 649.771 506.564 647.717V647.704C506.564 645.651 505.897 644.446 504.731 644.446C503.565 644.446 502.898 645.651 502.898 647.704V647.717C502.898 649.771 503.565 650.982 504.731 650.982ZM513.437 652.55C511.066 652.55 509.628 650.691 509.628 647.717V647.704C509.628 644.731 511.066 642.879 513.437 642.879C515.808 642.879 517.246 644.731 517.246 647.704V647.717C517.246 650.691 515.808 652.55 513.437 652.55ZM513.437 650.982C514.603 650.982 515.27 649.771 515.27 647.717V647.704C515.27 645.651 514.603 644.446 513.437 644.446C512.271 644.446 511.604 645.651 511.604 647.704V647.717C511.604 649.771 512.271 650.982 513.437 650.982ZM522.143 652.55C519.772 652.55 518.334 650.691 518.334 647.717V647.704C518.334 644.731 519.772 642.879 522.143 642.879C524.513 642.879 525.952 644.731 525.952 647.704V647.717C525.952 650.691 524.513 652.55 522.143 652.55ZM522.143 650.982C523.309 650.982 523.976 649.771 523.976 647.717V647.704C523.976 645.651 523.309 644.446 522.143 644.446C520.977 644.446 520.31 645.651 520.31 647.704V647.717C520.31 649.771 520.977 650.982 522.143 650.982ZM530.849 652.55C528.478 652.55 527.04 650.691 527.04 647.717V647.704C527.04 644.731 528.478 642.879 530.849 642.879C533.219 642.879 534.657 644.731 534.657 647.704V647.717C534.657 650.691 533.219 652.55 530.849 652.55ZM530.849 650.982C532.014 650.982 532.682 649.771 532.682 647.717V647.704C532.682 645.651 532.014 644.446 530.849 644.446C529.683 644.446 529.015 645.651 529.015 647.704V647.717C529.015 649.771 529.683 650.982 530.849 650.982Z" fill="black"/>
</g>
<g clip-path="url(#clip4_1147_16531)">
<rect width="202.149" height="678.778" transform="translate(606.236 0.25)" fill="#171717"/>
<path d="M654.683 581.043C652.837 581.043 651.784 579.949 651.784 578.007V564.004C651.784 562.062 652.837 560.968 654.683 560.968H660.549C665.814 560.968 668.522 563.444 668.522 567.669C668.522 569.857 667.592 571.922 665.718 573.016L667.783 576.407C668.289 577.255 668.399 577.706 668.399 578.39C668.399 579.935 667.195 581.043 665.513 581.043C664.091 581.043 663.517 580.537 662.491 578.718L659.893 574.083H657.582V578.007C657.582 579.949 656.529 581.043 654.683 581.043ZM657.582 570.254H659.975C661.602 570.254 662.6 569.255 662.6 567.765C662.6 566.302 661.548 565.249 659.989 565.249H657.582V570.254ZM679.571 581.043C674.361 581.043 670.874 578.171 670.874 573.672V563.662C670.874 561.721 671.927 560.627 673.773 560.627C675.619 560.627 676.672 561.721 676.672 563.662V573.03C676.672 575.108 677.697 576.243 679.571 576.243C681.444 576.243 682.47 575.108 682.47 573.03V563.662C682.47 561.721 683.523 560.627 685.369 560.627C687.215 560.627 688.268 561.721 688.268 563.662V573.672C688.268 578.171 684.781 581.043 679.571 581.043ZM693.902 580.701C692.056 580.701 691.003 579.607 691.003 577.665V564.004C691.003 562.062 692.056 560.968 693.902 560.968H700.699C704.733 560.968 707.098 562.815 707.098 565.891C707.098 568.161 705.375 569.871 703.092 570.158V570.267C705.758 570.336 707.987 572.346 707.987 574.958C707.987 578.417 705.252 580.701 701.027 580.701H693.902ZM696.801 568.872H699.044C700.534 568.872 701.464 568.093 701.464 566.903C701.464 565.686 700.589 564.948 699.126 564.948H696.801V568.872ZM696.801 576.722H699.276C701.068 576.722 702.093 575.915 702.093 574.424C702.093 573.016 701.054 572.195 699.317 572.195H696.801V576.722ZM712.801 580.701C710.955 580.701 709.902 579.607 709.902 577.665V564.004C709.902 562.062 710.955 560.968 712.801 560.968H719.597C723.631 560.968 725.997 562.815 725.997 565.891C725.997 568.161 724.274 569.871 721.99 570.158V570.267C724.657 570.336 726.886 572.346 726.886 574.958C726.886 578.417 724.151 580.701 719.925 580.701H712.801ZM715.7 568.872H717.942C719.433 568.872 720.363 568.093 720.363 566.903C720.363 565.686 719.488 564.948 718.025 564.948H715.7V568.872ZM715.7 576.722H718.175C719.966 576.722 720.992 575.915 720.992 574.424C720.992 573.016 719.953 572.195 718.216 572.195H715.7V576.722ZM731.699 580.701C729.853 580.701 728.8 579.607 728.8 577.665V564.004C728.8 562.062 729.853 560.968 731.699 560.968H740.438C741.997 560.968 742.995 561.803 742.995 563.279C742.995 564.756 741.969 565.59 740.438 565.59H734.598V568.763H740.205C741.586 568.763 742.489 569.515 742.489 570.842C742.489 572.168 741.614 572.92 740.205 572.92H734.598V576.079H740.438C741.969 576.079 742.995 576.913 742.995 578.39C742.995 579.867 741.997 580.701 740.438 580.701H731.699ZM748.328 581.043C746.482 581.043 745.429 579.949 745.429 578.007V564.004C745.429 562.062 746.482 560.968 748.328 560.968H754.194C759.459 560.968 762.167 563.444 762.167 567.669C762.167 569.857 761.237 571.922 759.364 573.016L761.428 576.407C761.934 577.255 762.044 577.706 762.044 578.39C762.044 579.935 760.84 581.043 759.158 581.043C757.736 581.043 757.162 580.537 756.136 578.718L753.538 574.083H751.227V578.007C751.227 579.949 750.174 581.043 748.328 581.043ZM751.227 570.254H753.62C755.247 570.254 756.246 569.255 756.246 567.765C756.246 566.302 755.193 565.249 753.634 565.249H751.227V570.254ZM678.6 607.043C672.337 607.043 668.631 603.365 668.631 596.814C668.631 590.346 672.337 586.627 678.422 586.627C682.374 586.627 685.355 588.322 686.518 590.401C686.805 590.934 686.914 591.399 686.914 591.891C686.914 593.341 685.902 594.339 684.425 594.339C683.29 594.339 682.429 593.902 681.718 592.958C680.788 591.714 679.844 591.194 678.45 591.194C675.988 591.194 674.539 593.218 674.539 596.732C674.539 600.329 676.193 602.476 678.737 602.476C680.624 602.476 681.964 601.423 682.128 599.836L682.155 599.563H681.02C679.721 599.563 678.874 598.879 678.874 597.635C678.874 596.39 679.708 595.707 681.02 595.707H684.836C686.682 595.707 687.735 596.801 687.735 598.742C687.735 603.433 684.48 607.043 678.6 607.043ZM692.931 607.043C691.085 607.043 690.032 605.949 690.032 604.007V590.004C690.032 588.062 691.085 586.968 692.931 586.968H698.798C704.063 586.968 706.77 589.444 706.77 593.669C706.77 595.857 705.84 597.922 703.967 599.016L706.032 602.407C706.538 603.255 706.647 603.706 706.647 604.39C706.647 605.935 705.444 607.043 703.762 607.043C702.34 607.043 701.765 606.537 700.74 604.718L698.141 600.083H695.83V604.007C695.83 605.949 694.777 607.043 692.931 607.043ZM695.83 596.254H698.223C699.851 596.254 700.849 595.255 700.849 593.765C700.849 592.302 699.796 591.249 698.237 591.249H695.83V596.254ZM711.666 607.043C709.82 607.043 708.712 605.99 708.712 604.24C708.712 603.734 708.862 602.995 709.122 602.298L713.539 590.1C714.387 587.707 715.823 586.627 718.134 586.627C720.609 586.627 722.031 587.666 722.92 590.1L727.378 602.298C727.652 603.05 727.761 603.597 727.761 604.226C727.761 605.867 726.544 607.043 724.862 607.043C723.153 607.043 722.264 606.264 721.771 604.349L721.43 603.009H715.002L714.661 604.253C714.114 606.236 713.238 607.043 711.666 607.043ZM716.096 598.688H720.213L718.161 591.522H718.052L716.096 598.688ZM735.774 607.043C733.928 607.043 732.875 605.949 732.875 604.007V600.452L727.214 591.413C726.817 590.77 726.612 590.086 726.612 589.416C726.612 587.803 727.857 586.627 729.566 586.627C730.838 586.627 731.522 587.105 732.301 588.541L735.788 594.968H735.898L739.398 588.527C740.137 587.174 740.903 586.627 742.065 586.627C743.72 586.627 744.937 587.789 744.937 589.361C744.937 590.059 744.731 590.729 744.321 591.385L738.674 600.452V604.007C738.674 605.949 737.621 607.043 735.774 607.043Z" fill="white"/>
<rect x="675.388" y="634.491" width="62.792" height="26.792" rx="7.37001" fill="white"/>
<path d="M684.042 652.388H682.597L683.044 650.043H681.599L681.865 648.637H683.316L683.692 646.668H682.195L682.467 645.275H683.957L684.391 643.041H685.829L685.402 645.275H687.105L687.539 643.041H688.984L688.556 645.275H690.072L689.807 646.668H688.291L687.909 648.637H689.47L689.204 650.043H687.643L687.196 652.388H685.745L686.192 650.043H684.482L684.042 652.388ZM684.657 648.715H686.522L686.93 646.59H685.071L684.657 648.715ZM693.071 652.388V644.835H693.032L690.649 646.454V644.718L693.065 643.041H695.008V652.388H693.071ZM697.593 652.388L701.615 644.634V644.595H696.861V643.041H703.545V644.615L699.646 652.388H697.593ZM707.037 652.388V644.835H706.998L704.614 646.454V644.718L707.03 643.041H708.974V652.388H707.037ZM711.558 652.388L715.581 644.634V644.595H710.826V643.041H717.511V644.615L713.612 652.388H711.558ZM721.002 652.388V644.835H720.964L718.58 646.454V644.718L720.996 643.041H722.939V652.388H721.002ZM725.524 652.388L729.546 644.634V644.595H724.792V643.041H731.477V644.615L727.577 652.388H725.524Z" fill="#171717"/>
</g>
<g clip-path="url(#clip5_1147_16531)">
<rect width="202.149" height="678.778" transform="translate(808.385 0.25)" fill="#2C2C2C"/>
<path d="M863.337 581.043C861.723 581.043 860.807 580.072 860.807 578.363V564.428C860.807 561.994 862.147 560.627 864.567 560.627C866.605 560.627 867.685 561.433 868.506 563.58L871.924 572.483H872.034L875.439 563.58C876.259 561.433 877.34 560.627 879.377 560.627C881.798 560.627 883.138 561.994 883.138 564.428V578.363C883.138 580.072 882.221 581.043 880.608 581.043C878.994 581.043 878.078 580.072 878.078 578.363V569.269H877.969L874.044 579.156C873.647 580.154 873.018 580.605 871.993 580.605C870.953 580.605 870.283 580.141 869.9 579.156L865.976 569.269H865.866V578.363C865.866 580.072 864.95 581.043 863.337 581.043ZM888.785 580.701C886.939 580.701 885.886 579.607 885.886 577.665V564.004C885.886 562.062 886.939 560.968 888.785 560.968H897.524C899.083 560.968 900.081 561.803 900.081 563.279C900.081 564.756 899.055 565.59 897.524 565.59H891.684V568.763H897.291C898.672 568.763 899.575 569.515 899.575 570.842C899.575 572.168 898.7 572.92 897.291 572.92H891.684V576.079H897.524C899.055 576.079 900.081 576.913 900.081 578.39C900.081 579.867 899.083 580.701 897.524 580.701H888.785ZM909.858 581.043C908.012 581.043 906.959 579.949 906.959 578.007V565.59H904.046C902.515 565.59 901.489 564.756 901.489 563.279C901.489 561.803 902.488 560.968 904.046 560.968H915.67C917.229 560.968 918.227 561.803 918.227 563.279C918.227 564.756 917.202 565.59 915.67 565.59H912.757V578.007C912.757 579.949 911.704 581.043 909.858 581.043ZM919.882 581.043C918.036 581.043 916.928 579.99 916.928 578.24C916.928 577.734 917.079 576.995 917.338 576.298L921.755 564.1C922.603 561.707 924.039 560.627 926.35 560.627C928.825 560.627 930.247 561.666 931.136 564.1L935.594 576.298C935.868 577.05 935.977 577.597 935.977 578.226C935.977 579.867 934.76 581.043 933.078 581.043C931.369 581.043 930.48 580.264 929.988 578.349L929.646 577.009H923.219L922.877 578.253C922.33 580.236 921.455 581.043 919.882 581.043ZM924.313 572.688H928.429L926.377 565.522H926.268L924.313 572.688ZM941.215 580.701C939.369 580.701 938.316 579.607 938.316 577.665V563.662C938.316 561.721 939.369 560.627 941.215 560.627C943.061 560.627 944.114 561.721 944.114 563.662V576.079H949.57C951.102 576.079 952.127 576.913 952.127 578.39C952.127 579.867 951.129 580.701 949.57 580.701H941.215ZM880.539 607.043C874.276 607.043 870.571 603.365 870.571 596.814C870.571 590.346 874.276 586.627 880.362 586.627C884.314 586.627 887.295 588.322 888.457 590.401C888.744 590.934 888.854 591.399 888.854 591.891C888.854 593.341 887.842 594.339 886.365 594.339C885.23 594.339 884.368 593.902 883.657 592.958C882.727 591.714 881.784 591.194 880.389 591.194C877.928 591.194 876.478 593.218 876.478 596.732C876.478 600.329 878.133 602.476 880.676 602.476C882.563 602.476 883.903 601.423 884.068 599.836L884.095 599.563H882.96C881.661 599.563 880.813 598.879 880.813 597.635C880.813 596.39 881.647 595.707 882.96 595.707H886.775C888.621 595.707 889.674 596.801 889.674 598.742C889.674 603.433 886.42 607.043 880.539 607.043ZM894.871 607.043C893.025 607.043 891.972 605.949 891.972 604.007V590.004C891.972 588.062 893.025 586.968 894.871 586.968H900.737C906.002 586.968 908.71 589.444 908.71 593.669C908.71 595.857 907.78 597.922 905.906 599.016L907.971 602.407C908.477 603.255 908.587 603.706 908.587 604.39C908.587 605.935 907.383 607.043 905.701 607.043C904.279 607.043 903.705 606.537 902.679 604.718L900.081 600.083H897.77V604.007C897.77 605.949 896.717 607.043 894.871 607.043ZM897.77 596.254H900.163C901.79 596.254 902.788 595.255 902.788 593.765C902.788 592.302 901.735 591.249 900.177 591.249H897.77V596.254ZM913.605 607.043C911.759 607.043 910.651 605.99 910.651 604.24C910.651 603.734 910.802 602.995 911.062 602.298L915.479 590.1C916.326 587.707 917.762 586.627 920.073 586.627C922.549 586.627 923.971 587.666 924.86 590.1L929.318 602.298C929.591 603.05 929.7 603.597 929.7 604.226C929.7 605.867 928.483 607.043 926.801 607.043C925.092 607.043 924.203 606.264 923.711 604.349L923.369 603.009H916.942L916.6 604.253C916.053 606.236 915.178 607.043 913.605 607.043ZM918.036 598.688H922.152L920.101 591.522H919.991L918.036 598.688ZM937.714 607.043C935.868 607.043 934.815 605.949 934.815 604.007V600.452L929.153 591.413C928.757 590.77 928.552 590.086 928.552 589.416C928.552 587.803 929.796 586.627 931.506 586.627C932.777 586.627 933.461 587.105 934.241 588.541L937.728 594.968H937.837L941.338 588.527C942.076 587.174 942.842 586.627 944.004 586.627C945.659 586.627 946.876 587.789 946.876 589.361C946.876 590.059 946.671 590.729 946.261 591.385L940.613 600.452V604.007C940.613 605.949 939.56 607.043 937.714 607.043Z" fill="white"/>
<rect x="872.327" y="634.491" width="72.792" height="26.792" rx="7.37001" fill="white"/>
<path d="M880.89 652.388H879.445L879.892 650.043H878.448L878.713 648.637H880.164L880.54 646.668H879.044L879.316 645.275H880.805L881.239 643.041H882.677L882.25 645.275H883.953L884.387 643.041H885.832L885.404 645.275H886.92L886.655 646.668H885.139L884.757 648.637H886.318L886.052 650.043H884.491L884.044 652.388H882.593L883.04 650.043H881.33L880.89 652.388ZM881.505 648.715H883.371L883.779 646.59H881.92L881.505 648.715ZM887.581 652.388V651.047L890.884 647.957C892.089 646.83 892.342 646.37 892.342 645.722V645.709C892.335 644.945 891.752 644.401 890.923 644.401C889.965 644.401 889.317 645.029 889.291 645.871L889.285 645.93H887.471V645.878C887.471 644.116 888.935 642.879 890.91 642.879C892.886 642.879 894.246 644.006 894.246 645.599V645.612C894.246 646.746 893.709 647.484 892.096 648.968L890.14 650.755V650.833H894.376V652.388H887.581ZM899.759 652.55C897.025 652.55 895.309 650.723 895.309 647.711V647.704C895.309 644.692 897.032 642.879 899.759 642.879C902.026 642.879 903.652 644.31 903.833 646.292L903.84 646.351H901.935L901.909 646.241C901.689 645.211 900.925 644.537 899.759 644.537C898.262 644.537 897.304 645.742 897.304 647.698V647.704C897.304 649.674 898.262 650.891 899.759 650.891C900.886 650.891 901.676 650.244 901.929 649.136L901.942 649.071H903.846L903.84 649.142C903.658 651.131 902.019 652.55 899.759 652.55ZM904.941 652.388V651.047L908.244 647.957C909.449 646.83 909.702 646.37 909.702 645.722V645.709C909.695 644.945 909.112 644.401 908.283 644.401C907.324 644.401 906.677 645.029 906.651 645.871L906.644 645.93H904.831V645.878C904.831 644.116 906.295 642.879 908.27 642.879C910.246 642.879 911.606 644.006 911.606 645.599V645.612C911.606 646.746 911.069 647.484 909.456 648.968L907.499 650.755V650.833H911.736V652.388H904.941ZM917.119 652.55C914.385 652.55 912.668 650.723 912.668 647.711V647.704C912.668 644.692 914.391 642.879 917.119 642.879C919.386 642.879 921.012 644.31 921.193 646.292L921.199 646.351H919.295L919.269 646.241C919.049 645.211 918.284 644.537 917.119 644.537C915.622 644.537 914.664 645.742 914.664 647.698V647.704C914.664 649.674 915.622 650.891 917.119 650.891C918.246 650.891 919.036 650.244 919.289 649.136L919.301 649.071H921.206L921.199 649.142C921.018 651.131 919.379 652.55 917.119 652.55ZM922.301 652.388V651.047L925.604 647.957C926.809 646.83 927.062 646.37 927.062 645.722V645.709C927.055 644.945 926.472 644.401 925.643 644.401C924.684 644.401 924.037 645.029 924.011 645.871L924.004 645.93H922.19V645.878C922.19 644.116 923.654 642.879 925.63 642.879C927.606 642.879 928.966 644.006 928.966 645.599V645.612C928.966 646.746 928.428 647.484 926.815 648.968L924.859 650.755V650.833H929.096V652.388H922.301ZM934.478 652.55C931.745 652.55 930.028 650.723 930.028 647.711V647.704C930.028 644.692 931.751 642.879 934.478 642.879C936.746 642.879 938.371 644.31 938.553 646.292L938.559 646.351H936.655L936.629 646.241C936.409 645.211 935.644 644.537 934.478 644.537C932.982 644.537 932.023 645.742 932.023 647.698V647.704C932.023 649.674 932.982 650.891 934.478 650.891C935.605 650.891 936.396 650.244 936.648 649.136L936.661 649.071H938.566L938.559 649.142C938.378 651.131 936.739 652.55 934.478 652.55Z" fill="#2C2C2C"/>
</g>
<g clip-path="url(#clip6_1147_16531)">
<rect width="202.149" height="678.778" transform="translate(1010.53 0.25)" fill="#3B3B3B"/>
<path d="M1055.88 580.701C1054.03 580.701 1052.98 579.607 1052.98 577.665V563.662C1052.98 561.721 1054.03 560.627 1055.88 560.627C1057.73 560.627 1058.78 561.721 1058.78 563.662V576.079H1064.23C1065.77 576.079 1066.79 576.913 1066.79 578.39C1066.79 579.867 1065.79 580.701 1064.23 580.701H1055.88ZM1077.35 581.043C1071.24 581.043 1067.41 577.146 1067.41 570.842C1067.41 564.538 1071.25 560.627 1077.35 560.627C1083.45 560.627 1087.29 564.538 1087.29 570.842C1087.29 577.146 1083.45 581.043 1077.35 581.043ZM1077.35 576.421C1079.78 576.421 1081.38 574.247 1081.38 570.842C1081.38 567.423 1079.77 565.249 1077.35 565.249C1074.93 565.249 1073.31 567.423 1073.31 570.842C1073.31 574.247 1074.91 576.421 1077.35 576.421ZM1099.01 581.043C1092.75 581.043 1089.07 577.337 1089.07 570.828C1089.07 564.319 1092.83 560.627 1098.79 560.627C1102.57 560.627 1105.35 562.062 1106.91 564.811C1107.31 565.495 1107.52 566.22 1107.52 566.917C1107.52 568.394 1106.52 569.351 1105 569.351C1103.74 569.351 1102.98 568.859 1102.35 567.642C1101.47 565.96 1100.38 565.18 1098.86 565.18C1096.48 565.18 1094.98 567.286 1094.98 570.814C1094.98 574.383 1096.47 576.489 1098.87 576.489C1100.46 576.489 1101.57 575.683 1102.4 573.932C1102.99 572.688 1103.69 572.209 1104.9 572.209C1106.56 572.209 1107.64 573.221 1107.64 574.766C1107.64 575.259 1107.53 575.778 1107.32 576.284C1106.18 579.142 1102.85 581.043 1099.01 581.043ZM1113.15 581.043C1111.3 581.043 1110.25 579.949 1110.25 578.007V563.662C1110.25 561.721 1111.3 560.627 1113.15 560.627C1115 560.627 1116.05 561.721 1116.05 563.662V568.79H1116.16L1122.22 561.939C1123.05 561.009 1123.8 560.627 1124.79 560.627C1126.3 560.627 1127.54 561.816 1127.54 563.307C1127.54 564.182 1127.23 564.811 1126.41 565.686L1122.34 570.035L1126.61 575.313C1127.6 576.544 1128.03 577.419 1128.03 578.24C1128.03 579.826 1126.82 581.043 1125.24 581.043C1123.99 581.043 1123.15 580.578 1122.2 579.375L1117.77 573.754L1116.05 575.532V578.007C1116.05 579.949 1115 581.043 1113.15 581.043ZM1132.92 580.701C1131.08 580.701 1130.02 579.607 1130.02 577.665V564.004C1130.02 562.062 1131.08 560.968 1132.92 560.968H1141.66C1143.22 560.968 1144.22 561.803 1144.22 563.279C1144.22 564.756 1143.19 565.59 1141.66 565.59H1135.82V568.763H1141.43C1142.81 568.763 1143.71 569.515 1143.71 570.842C1143.71 572.168 1142.84 572.92 1141.43 572.92H1135.82V576.079H1141.66C1143.19 576.079 1144.22 576.913 1144.22 578.39C1144.22 579.867 1143.22 580.701 1141.66 580.701H1132.92ZM1149.55 581.043C1147.71 581.043 1146.65 579.949 1146.65 578.007V564.004C1146.65 562.062 1147.71 560.968 1149.55 560.968H1155.42C1160.68 560.968 1163.39 563.444 1163.39 567.669C1163.39 569.857 1162.46 571.922 1160.59 573.016L1162.65 576.407C1163.16 577.255 1163.27 577.706 1163.27 578.39C1163.27 579.935 1162.06 581.043 1160.38 581.043C1158.96 581.043 1158.39 580.537 1157.36 578.718L1154.76 574.083H1152.45V578.007C1152.45 579.949 1151.4 581.043 1149.55 581.043ZM1152.45 570.254H1154.84C1156.47 570.254 1157.47 569.255 1157.47 567.765C1157.47 566.302 1156.42 565.249 1154.86 565.249H1152.45V570.254ZM1082.48 607.043C1076.21 607.043 1072.51 603.365 1072.51 596.814C1072.51 590.346 1076.21 586.627 1082.3 586.627C1086.25 586.627 1089.23 588.322 1090.39 590.401C1090.68 590.934 1090.79 591.399 1090.79 591.891C1090.79 593.341 1089.78 594.339 1088.3 594.339C1087.17 594.339 1086.31 593.902 1085.59 592.958C1084.66 591.714 1083.72 591.194 1082.33 591.194C1079.87 591.194 1078.42 593.218 1078.42 596.732C1078.42 600.329 1080.07 602.476 1082.61 602.476C1084.5 602.476 1085.84 601.423 1086.01 599.836L1086.03 599.563H1084.9C1083.6 599.563 1082.75 598.879 1082.75 597.635C1082.75 596.39 1083.58 595.707 1084.9 595.707H1088.71C1090.56 595.707 1091.61 596.801 1091.61 598.742C1091.61 603.433 1088.36 607.043 1082.48 607.043ZM1096.81 607.043C1094.96 607.043 1093.91 605.949 1093.91 604.007V590.004C1093.91 588.062 1094.96 586.968 1096.81 586.968H1102.67C1107.94 586.968 1110.65 589.444 1110.65 593.669C1110.65 595.857 1109.72 597.922 1107.84 599.016L1109.91 602.407C1110.41 603.255 1110.52 603.706 1110.52 604.39C1110.52 605.935 1109.32 607.043 1107.64 607.043C1106.22 607.043 1105.64 606.537 1104.62 604.718L1102.02 600.083H1099.71V604.007C1099.71 605.949 1098.65 607.043 1096.81 607.043ZM1099.71 596.254H1102.1C1103.73 596.254 1104.73 595.255 1104.73 593.765C1104.73 592.302 1103.67 591.249 1102.11 591.249H1099.71V596.254ZM1115.54 607.043C1113.7 607.043 1112.59 605.99 1112.59 604.24C1112.59 603.734 1112.74 602.995 1113 602.298L1117.42 590.1C1118.26 587.707 1119.7 586.627 1122.01 586.627C1124.49 586.627 1125.91 587.666 1126.8 590.1L1131.26 602.298C1131.53 603.05 1131.64 603.597 1131.64 604.226C1131.64 605.867 1130.42 607.043 1128.74 607.043C1127.03 607.043 1126.14 606.264 1125.65 604.349L1125.31 603.009H1118.88L1118.54 604.253C1117.99 606.236 1117.12 607.043 1115.54 607.043ZM1119.97 598.688H1124.09L1122.04 591.522H1121.93L1119.97 598.688ZM1139.65 607.043C1137.81 607.043 1136.75 605.949 1136.75 604.007V600.452L1131.09 591.413C1130.69 590.77 1130.49 590.086 1130.49 589.416C1130.49 587.803 1131.73 586.627 1133.44 586.627C1134.71 586.627 1135.4 587.105 1136.18 588.541L1139.67 594.968H1139.77L1143.28 588.527C1144.01 587.174 1144.78 586.627 1145.94 586.627C1147.6 586.627 1148.81 587.789 1148.81 589.361C1148.81 590.059 1148.61 590.729 1148.2 591.385L1142.55 600.452V604.007C1142.55 605.949 1141.5 607.043 1139.65 607.043Z" fill="white"/>
<rect x="1075.26" y="634.491" width="70.792" height="26.792" rx="7.37001" fill="white"/>
<path d="M1083.6 652.388H1082.16L1082.61 650.043H1081.16L1081.43 648.637H1082.88L1083.25 646.668H1081.76L1082.03 645.275H1083.52L1083.95 643.041H1085.39L1084.96 645.275H1086.67L1087.1 643.041H1088.55L1088.12 645.275H1089.64L1089.37 646.668H1087.85L1087.47 648.637H1089.03L1088.77 650.043H1087.21L1086.76 652.388H1085.31L1085.75 650.043H1084.04L1083.6 652.388ZM1084.22 648.715H1086.09L1086.49 646.59H1084.63L1084.22 648.715ZM1093.77 652.55C1091.66 652.55 1090.27 651.435 1090.14 649.823L1090.13 649.738H1092L1092.01 649.81C1092.1 650.477 1092.76 650.976 1093.77 650.976C1094.77 650.976 1095.42 650.438 1095.42 649.674V649.661C1095.42 648.767 1094.75 648.274 1093.63 648.274H1092.56V646.882H1093.6C1094.58 646.882 1095.21 646.364 1095.21 645.606V645.593C1095.21 644.835 1094.67 644.381 1093.75 644.381C1092.84 644.381 1092.22 644.854 1092.14 645.58L1092.14 645.638H1090.34L1090.35 645.56C1090.48 643.941 1091.79 642.879 1093.75 642.879C1095.77 642.879 1097.06 643.863 1097.06 645.334V645.347C1097.06 646.513 1096.21 647.27 1095.12 647.497V647.536C1096.5 647.666 1097.41 648.469 1097.41 649.738V649.751C1097.41 651.423 1095.96 652.55 1093.77 652.55ZM1098.77 652.388V643.041H1102.84C1104.6 643.041 1105.71 643.947 1105.71 645.385V645.398C1105.71 646.422 1104.93 647.296 1103.9 647.432V647.471C1105.2 647.568 1106.14 648.488 1106.14 649.712V649.725C1106.14 651.364 1104.9 652.388 1102.91 652.388H1098.77ZM1102.33 644.492H1100.72V646.947H1102.09C1103.19 646.947 1103.78 646.487 1103.78 645.677V645.664C1103.78 644.919 1103.24 644.492 1102.33 644.492ZM1102.32 648.274H1100.72V650.93H1102.41C1103.53 650.93 1104.14 650.47 1104.14 649.602V649.589C1104.14 648.734 1103.52 648.274 1102.32 648.274ZM1110.62 652.55C1108.5 652.55 1107.11 651.435 1106.98 649.823L1106.98 649.738H1108.84L1108.85 649.81C1108.94 650.477 1109.6 650.976 1110.61 650.976C1111.61 650.976 1112.26 650.438 1112.26 649.674V649.661C1112.26 648.767 1111.59 648.274 1110.47 648.274H1109.4V646.882H1110.44C1111.42 646.882 1112.05 646.364 1112.05 645.606V645.593C1112.05 644.835 1111.52 644.381 1110.6 644.381C1109.68 644.381 1109.06 644.854 1108.98 645.58L1108.98 645.638H1107.18L1107.19 645.56C1107.32 643.941 1108.63 642.879 1110.6 642.879C1112.61 642.879 1113.91 643.863 1113.91 645.334V645.347C1113.91 646.513 1113.05 647.27 1111.96 647.497V647.536C1113.34 647.666 1114.25 648.469 1114.25 649.738V649.751C1114.25 651.423 1112.8 652.55 1110.62 652.55ZM1115.61 652.388V643.041H1119.68C1121.44 643.041 1122.55 643.947 1122.55 645.385V645.398C1122.55 646.422 1121.77 647.296 1120.74 647.432V647.471C1122.04 647.568 1122.98 648.488 1122.98 649.712V649.725C1122.98 651.364 1121.74 652.388 1119.75 652.388H1115.61ZM1119.17 644.492H1117.57V646.947H1118.93C1120.03 646.947 1120.62 646.487 1120.62 645.677V645.664C1120.62 644.919 1120.09 644.492 1119.17 644.492ZM1119.17 648.274H1117.57V650.93H1119.25C1120.37 650.93 1120.99 650.47 1120.99 649.602V649.589C1120.99 648.734 1120.36 648.274 1119.17 648.274ZM1127.46 652.55C1125.34 652.55 1123.95 651.435 1123.82 649.823L1123.82 649.738H1125.68L1125.7 649.81C1125.78 650.477 1126.44 650.976 1127.45 650.976C1128.45 650.976 1129.1 650.438 1129.1 649.674V649.661C1129.1 648.767 1128.44 648.274 1127.31 648.274H1126.24V646.882H1127.28C1128.26 646.882 1128.9 646.364 1128.9 645.606V645.593C1128.9 644.835 1128.36 644.381 1127.44 644.381C1126.52 644.381 1125.9 644.854 1125.83 645.58L1125.82 645.638H1124.02L1124.03 645.56C1124.16 643.941 1125.48 642.879 1127.44 642.879C1129.45 642.879 1130.75 643.863 1130.75 645.334V645.347C1130.75 646.513 1129.89 647.27 1128.8 647.497V647.536C1130.18 647.666 1131.09 648.469 1131.09 649.738V649.751C1131.09 651.423 1129.64 652.55 1127.46 652.55ZM1132.45 652.388V643.041H1136.52C1138.28 643.041 1139.39 643.947 1139.39 645.385V645.398C1139.39 646.422 1138.61 647.296 1137.58 647.432V647.471C1138.88 647.568 1139.82 648.488 1139.82 649.712V649.725C1139.82 651.364 1138.59 652.388 1136.59 652.388H1132.45ZM1136.01 644.492H1134.41V646.947H1135.77C1136.88 646.947 1137.47 646.487 1137.47 645.677V645.664C1137.47 644.919 1136.93 644.492 1136.01 644.492ZM1136.01 648.274H1134.41V650.93H1136.09C1137.21 650.93 1137.83 650.47 1137.83 649.602V649.589C1137.83 648.734 1137.21 648.274 1136.01 648.274Z" fill="#3B3B3B"/>
</g>
<g clip-path="url(#clip7_1147_16531)">
<rect width="202.149" height="678.778" transform="translate(1212.68 0.25)" fill="white"/>
<path d="M1269.65 581.043C1267.8 581.043 1266.75 579.949 1266.75 578.007V565.59H1263.84C1262.3 565.59 1261.28 564.756 1261.28 563.279C1261.28 561.803 1262.28 560.968 1263.84 560.968H1275.46C1277.02 560.968 1278.02 561.803 1278.02 563.279C1278.02 564.756 1276.99 565.59 1275.46 565.59H1272.55V578.007C1272.55 579.949 1271.49 581.043 1269.65 581.043ZM1288.23 581.043C1282.12 581.043 1278.29 577.146 1278.29 570.842C1278.29 564.538 1282.13 560.627 1288.23 560.627C1294.33 560.627 1298.17 564.538 1298.17 570.842C1298.17 577.146 1294.33 581.043 1288.23 581.043ZM1288.23 576.421C1290.67 576.421 1292.27 574.247 1292.27 570.842C1292.27 567.423 1290.65 565.249 1288.23 565.249C1285.81 565.249 1284.2 567.423 1284.2 570.842C1284.2 574.247 1285.8 576.421 1288.23 576.421ZM1306.73 581.043C1304.87 581.043 1303.86 580.154 1303.29 578.007L1299.87 565.276C1299.68 564.551 1299.54 563.731 1299.54 563.211C1299.54 561.57 1300.59 560.627 1302.4 560.627C1303.92 560.627 1304.82 561.461 1305.16 563.197L1307.19 573.44H1307.29L1309.77 562.924C1310.14 561.351 1311 560.627 1312.48 560.627C1313.9 560.627 1314.83 561.42 1315.18 562.924L1317.66 573.44H1317.77L1319.79 563.197C1320.14 561.461 1321.04 560.627 1322.56 560.627C1324.36 560.627 1325.41 561.57 1325.41 563.211C1325.41 563.717 1325.29 564.524 1325.09 565.276L1321.65 578.048C1321.08 580.141 1320.07 581.043 1318.26 581.043C1316.36 581.043 1315.34 580.154 1314.77 578.021L1312.53 569.406H1312.42L1310.18 578.021C1309.65 580.099 1308.57 581.043 1306.73 581.043ZM1330.84 580.701C1329 580.701 1327.94 579.607 1327.94 577.665V564.004C1327.94 562.062 1329 560.968 1330.84 560.968H1339.58C1341.14 560.968 1342.14 561.803 1342.14 563.279C1342.14 564.756 1341.11 565.59 1339.58 565.59H1333.74V568.763H1339.35C1340.73 568.763 1341.63 569.515 1341.63 570.842C1341.63 572.168 1340.76 572.92 1339.35 572.92H1333.74V576.079H1339.58C1341.11 576.079 1342.14 576.913 1342.14 578.39C1342.14 579.867 1341.14 580.701 1339.58 580.701H1330.84ZM1347.47 580.701C1345.62 580.701 1344.57 579.607 1344.57 577.665V563.662C1344.57 561.721 1345.62 560.627 1347.47 560.627C1349.32 560.627 1350.37 561.721 1350.37 563.662V576.079H1355.83C1357.36 576.079 1358.38 576.913 1358.38 578.39C1358.38 579.867 1357.39 580.701 1355.83 580.701H1347.47ZM1274.93 607.043C1273.07 607.043 1272.05 606.154 1271.48 604.007L1268.06 591.276C1267.87 590.551 1267.73 589.731 1267.73 589.211C1267.73 587.57 1268.79 586.627 1270.59 586.627C1272.11 586.627 1273.01 587.461 1273.35 589.197L1275.38 599.44H1275.49L1277.96 588.924C1278.33 587.351 1279.19 586.627 1280.67 586.627C1282.09 586.627 1283.02 587.42 1283.38 588.924L1285.85 599.44H1285.96L1287.99 589.197C1288.33 587.461 1289.23 586.627 1290.75 586.627C1292.55 586.627 1293.61 587.57 1293.61 589.211C1293.61 589.717 1293.48 590.524 1293.28 591.276L1289.85 604.048C1289.27 606.141 1288.26 607.043 1286.45 607.043C1284.55 607.043 1283.53 606.154 1282.97 604.021L1280.72 595.406H1280.61L1278.37 604.021C1277.84 606.099 1276.76 607.043 1274.93 607.043ZM1299.03 607.043C1297.19 607.043 1296.14 605.949 1296.14 604.007V589.662C1296.14 587.721 1297.19 586.627 1299.03 586.627C1300.88 586.627 1301.93 587.721 1301.93 589.662V594.462H1308.88V589.662C1308.88 587.721 1309.93 586.627 1311.78 586.627C1313.63 586.627 1314.68 587.721 1314.68 589.662V604.007C1314.68 605.949 1313.63 607.043 1311.78 607.043C1309.93 607.043 1308.88 605.949 1308.88 604.007V599.071H1301.93V604.007C1301.93 605.949 1300.88 607.043 1299.03 607.043ZM1320.31 607.043C1318.47 607.043 1317.41 605.949 1317.41 604.007V589.662C1317.41 587.721 1318.47 586.627 1320.31 586.627C1322.16 586.627 1323.21 587.721 1323.21 589.662V604.007C1323.21 605.949 1322.16 607.043 1320.31 607.043ZM1333.29 607.043C1331.44 607.043 1330.39 605.949 1330.39 604.007V591.59H1327.48C1325.95 591.59 1324.92 590.756 1324.92 589.279C1324.92 587.803 1325.92 586.968 1327.48 586.968H1339.1C1340.66 586.968 1341.66 587.803 1341.66 589.279C1341.66 590.756 1340.63 591.59 1339.1 591.59H1336.19V604.007C1336.19 605.949 1335.14 607.043 1333.29 607.043ZM1346.27 606.701C1344.42 606.701 1343.37 605.607 1343.37 603.665V590.004C1343.37 588.062 1344.42 586.968 1346.27 586.968H1355.01C1356.56 586.968 1357.56 587.803 1357.56 589.279C1357.56 590.756 1356.54 591.59 1355.01 591.59H1349.17V594.763H1354.77C1356.15 594.763 1357.06 595.515 1357.06 596.842C1357.06 598.168 1356.18 598.92 1354.77 598.92H1349.17V602.079H1355.01C1356.54 602.079 1357.56 602.913 1357.56 604.39C1357.56 605.867 1356.56 606.701 1355.01 606.701H1346.27Z" fill="black"/>
<rect x="1280.2" y="634.491" width="64.792" height="26.792" rx="7.37001" fill="#171717"/>
<path d="M1288.96 652.388H1287.52L1287.97 650.043H1286.52L1286.79 648.637H1288.24L1288.61 646.668H1287.12L1287.39 645.275H1288.88L1289.31 643.041H1290.75L1290.32 645.275H1292.03L1292.46 643.041H1293.91L1293.48 645.275H1294.99L1294.73 646.668H1293.21L1292.83 648.637H1294.39L1294.13 650.043H1292.57L1292.12 652.388H1290.67L1291.11 650.043H1289.4L1288.96 652.388ZM1289.58 648.715H1291.44L1291.85 646.59H1289.99L1289.58 648.715ZM1295.77 652.388V643.041H1301.89V644.654H1297.73V647.16H1301.53V648.708H1297.73V652.388H1295.77ZM1303.05 652.388V643.041H1309.17V644.654H1305.01V647.16H1308.81V648.708H1305.01V652.388H1303.05ZM1310.33 652.388V643.041H1316.45V644.654H1312.29V647.16H1316.09V648.708H1312.29V652.388H1310.33ZM1317.61 652.388V643.041H1323.74V644.654H1319.57V647.16H1323.37V648.708H1319.57V652.388H1317.61ZM1324.89 652.388V643.041H1331.02V644.654H1326.85V647.16H1330.65V648.708H1326.85V652.388H1324.89ZM1332.18 652.388V643.041H1338.3V644.654H1334.13V647.16H1337.93V648.708H1334.13V652.388H1332.18Z" fill="white"/>
</g>
<g clip-path="url(#clip8_1147_16531)">
<rect width="202.149" height="678.778" transform="translate(1414.83 0.25)" fill="#FFD84F"/>
<path d="M1463.11 581.043C1456.85 581.043 1453.17 577.337 1453.17 570.828C1453.17 564.319 1456.93 560.627 1462.89 560.627C1466.67 560.627 1469.46 562.062 1471.02 564.811C1471.41 565.495 1471.62 566.22 1471.62 566.917C1471.62 568.394 1470.62 569.351 1469.1 569.351C1467.84 569.351 1467.08 568.859 1466.45 567.642C1465.57 565.96 1464.48 565.18 1462.96 565.18C1460.58 565.18 1459.08 567.286 1459.08 570.814C1459.08 574.383 1460.57 576.489 1462.97 576.489C1464.56 576.489 1465.67 575.683 1466.5 573.932C1467.09 572.688 1467.79 572.209 1469.01 572.209C1470.66 572.209 1471.74 573.221 1471.74 574.766C1471.74 575.259 1471.63 575.778 1471.43 576.284C1470.28 579.142 1466.95 581.043 1463.11 581.043ZM1477.25 581.043C1475.41 581.043 1474.35 579.949 1474.35 578.007V563.662C1474.35 561.721 1475.41 560.627 1477.25 560.627C1479.1 560.627 1480.15 561.721 1480.15 563.662V568.462H1487.1V563.662C1487.1 561.721 1488.15 560.627 1490 560.627C1491.84 560.627 1492.9 561.721 1492.9 563.662V578.007C1492.9 579.949 1491.84 581.043 1490 581.043C1488.15 581.043 1487.1 579.949 1487.1 578.007V573.071H1480.15V578.007C1480.15 579.949 1479.1 581.043 1477.25 581.043ZM1498.17 581.043C1496.33 581.043 1495.22 579.99 1495.22 578.24C1495.22 577.734 1495.37 576.995 1495.63 576.298L1500.05 564.1C1500.9 561.707 1502.33 560.627 1504.64 560.627C1507.12 560.627 1508.54 561.666 1509.43 564.1L1513.89 576.298C1514.16 577.05 1514.27 577.597 1514.27 578.226C1514.27 579.867 1513.05 581.043 1511.37 581.043C1509.66 581.043 1508.77 580.264 1508.28 578.349L1507.94 577.009H1501.51L1501.17 578.253C1500.62 580.236 1499.75 581.043 1498.17 581.043ZM1502.6 572.688H1506.72L1504.67 565.522H1504.56L1502.6 572.688ZM1519.51 581.043C1517.66 581.043 1516.61 579.949 1516.61 578.007V564.004C1516.61 562.062 1517.66 560.968 1519.51 560.968H1525.37C1530.64 560.968 1533.35 563.444 1533.35 567.669C1533.35 569.857 1532.42 571.922 1530.54 573.016L1532.61 576.407C1533.11 577.255 1533.22 577.706 1533.22 578.39C1533.22 579.935 1532.02 581.043 1530.34 581.043C1528.91 581.043 1528.34 580.537 1527.31 578.718L1524.72 574.083H1522.41V578.007C1522.41 579.949 1521.35 581.043 1519.51 581.043ZM1522.41 570.254H1524.8C1526.43 570.254 1527.42 569.255 1527.42 567.765C1527.42 566.302 1526.37 565.249 1524.81 565.249H1522.41V570.254ZM1545.19 581.043C1538.92 581.043 1535.22 577.365 1535.22 570.814C1535.22 564.346 1538.92 560.627 1545.01 560.627C1548.96 560.627 1551.94 562.322 1553.11 564.401C1553.39 564.934 1553.5 565.399 1553.5 565.891C1553.5 567.341 1552.49 568.339 1551.01 568.339C1549.88 568.339 1549.02 567.902 1548.31 566.958C1547.38 565.714 1546.43 565.194 1545.04 565.194C1542.58 565.194 1541.13 567.218 1541.13 570.732C1541.13 574.329 1542.78 576.476 1545.32 576.476C1547.21 576.476 1548.55 575.423 1548.72 573.836L1548.74 573.563H1547.61C1546.31 573.563 1545.46 572.879 1545.46 571.635C1545.46 570.39 1546.3 569.707 1547.61 569.707H1551.42C1553.27 569.707 1554.32 570.801 1554.32 572.742C1554.32 577.433 1551.07 581.043 1545.19 581.043ZM1559.52 580.701C1557.67 580.701 1556.62 579.607 1556.62 577.665V564.004C1556.62 562.062 1557.67 560.968 1559.52 560.968H1568.26C1569.82 560.968 1570.81 561.803 1570.81 563.279C1570.81 564.756 1569.79 565.59 1568.26 565.59H1562.42V568.763H1568.02C1569.41 568.763 1570.31 569.515 1570.31 570.842C1570.31 572.168 1569.43 572.92 1568.02 572.92H1562.42V576.079H1568.26C1569.79 576.079 1570.81 576.913 1570.81 578.39C1570.81 579.867 1569.82 580.701 1568.26 580.701H1559.52ZM1466.53 607.043C1464.68 607.043 1463.63 605.949 1463.63 604.007V600.452L1457.97 591.413C1457.57 590.77 1457.37 590.086 1457.37 589.416C1457.37 587.803 1458.61 586.627 1460.32 586.627C1461.59 586.627 1462.28 587.105 1463.06 588.541L1466.54 594.968H1466.65L1470.15 588.527C1470.89 587.174 1471.66 586.627 1472.82 586.627C1474.48 586.627 1475.69 587.789 1475.69 589.361C1475.69 590.059 1475.49 590.729 1475.08 591.385L1469.43 600.452V604.007C1469.43 605.949 1468.38 607.043 1466.53 607.043ZM1480.85 606.701C1479 606.701 1477.95 605.607 1477.95 603.665V590.004C1477.95 588.062 1479 586.968 1480.85 586.968H1489.59C1491.14 586.968 1492.14 587.803 1492.14 589.279C1492.14 590.756 1491.12 591.59 1489.59 591.59H1483.75V594.763H1489.35C1490.73 594.763 1491.64 595.515 1491.64 596.842C1491.64 598.168 1490.76 598.92 1489.35 598.92H1483.75V602.079H1489.59C1491.12 602.079 1492.14 602.913 1492.14 604.39C1492.14 605.867 1491.14 606.701 1489.59 606.701H1480.85ZM1497.48 606.701C1495.63 606.701 1494.58 605.607 1494.58 603.665V589.662C1494.58 587.721 1495.63 586.627 1497.48 586.627C1499.32 586.627 1500.38 587.721 1500.38 589.662V602.079H1505.83C1507.36 602.079 1508.39 602.913 1508.39 604.39C1508.39 605.867 1507.39 606.701 1505.83 606.701H1497.48ZM1513.2 606.701C1511.36 606.701 1510.3 605.607 1510.3 603.665V589.662C1510.3 587.721 1511.36 586.627 1513.2 586.627C1515.05 586.627 1516.1 587.721 1516.1 589.662V602.079H1521.56C1523.09 602.079 1524.11 602.913 1524.11 604.39C1524.11 605.867 1523.12 606.701 1521.56 606.701H1513.2ZM1534.67 607.043C1528.56 607.043 1524.73 603.146 1524.73 596.842C1524.73 590.538 1528.57 586.627 1534.67 586.627C1540.77 586.627 1544.61 590.538 1544.61 596.842C1544.61 603.146 1540.77 607.043 1534.67 607.043ZM1534.67 602.421C1537.11 602.421 1538.71 600.247 1538.71 596.842C1538.71 593.423 1537.09 591.249 1534.67 591.249C1532.25 591.249 1530.64 593.423 1530.64 596.842C1530.64 600.247 1532.24 602.421 1534.67 602.421ZM1553.17 607.043C1551.31 607.043 1550.3 606.154 1549.73 604.007L1546.31 591.276C1546.12 590.551 1545.98 589.731 1545.98 589.211C1545.98 587.57 1547.03 586.627 1548.84 586.627C1550.36 586.627 1551.26 587.461 1551.6 589.197L1553.63 599.44H1553.73L1556.21 588.924C1556.58 587.351 1557.44 586.627 1558.92 586.627C1560.34 586.627 1561.27 587.42 1561.62 588.924L1564.1 599.44H1564.21L1566.23 589.197C1566.58 587.461 1567.48 586.627 1569 586.627C1570.8 586.627 1571.85 587.57 1571.85 589.211C1571.85 589.717 1571.73 590.524 1571.53 591.276L1568.09 604.048C1567.52 606.141 1566.51 607.043 1564.7 607.043C1562.8 607.043 1561.78 606.154 1561.21 604.021L1558.97 595.406H1558.86L1556.62 604.021C1556.09 606.099 1555.01 607.043 1553.17 607.043Z" fill="black"/>
<rect x="1480.35" y="634.491" width="68.792" height="26.792" rx="7.37001" fill="#171717"/>
<path d="M1488.79 652.388H1487.34L1487.79 650.043H1486.34L1486.61 648.637H1488.06L1488.44 646.668H1486.94L1487.21 645.275H1488.7L1489.14 643.041H1490.57L1490.15 645.275H1491.85L1492.28 643.041H1493.73L1493.3 645.275H1494.82L1494.55 646.668H1493.04L1492.65 648.637H1494.21L1493.95 650.043H1492.39L1491.94 652.388H1490.49L1490.94 650.043H1489.23L1488.79 652.388ZM1489.4 648.715H1491.27L1491.68 646.59H1489.82L1489.4 648.715ZM1495.59 652.388V643.041H1501.72V644.654H1497.55V647.16H1501.35V648.708H1497.55V652.388H1495.59ZM1502.87 652.388V643.041H1509V644.654H1504.83V647.16H1508.63V648.708H1504.83V652.388H1502.87ZM1510.16 652.388V643.041H1513.72C1516.52 643.041 1518.18 644.705 1518.18 647.666V647.679C1518.18 650.645 1516.53 652.388 1513.72 652.388H1510.16ZM1512.11 650.768H1513.49C1515.24 650.768 1516.19 649.706 1516.19 647.685V647.672C1516.19 645.722 1515.21 644.654 1513.49 644.654H1512.11V650.768ZM1522.97 652.55C1520.75 652.55 1519.2 651.442 1519.2 649.836V649.823C1519.2 648.611 1520.1 647.717 1521.36 647.471V647.432C1520.28 647.167 1519.55 646.383 1519.55 645.385V645.373C1519.55 643.928 1520.95 642.879 1522.97 642.879C1524.99 642.879 1526.4 643.928 1526.4 645.373V645.385C1526.4 646.383 1525.66 647.167 1524.59 647.432V647.471C1525.84 647.717 1526.74 648.611 1526.74 649.823V649.836C1526.74 651.442 1525.2 652.55 1522.97 652.55ZM1522.97 646.843C1523.86 646.843 1524.46 646.318 1524.46 645.567V645.554C1524.46 644.809 1523.85 644.291 1522.97 644.291C1522.1 644.291 1521.48 644.809 1521.48 645.554V645.567C1521.48 646.318 1522.09 646.843 1522.97 646.843ZM1522.97 651.125C1523.99 651.125 1524.71 650.529 1524.71 649.706V649.693C1524.71 648.864 1524 648.261 1522.97 648.261C1521.94 648.261 1521.23 648.864 1521.23 649.693V649.706C1521.23 650.529 1521.95 651.125 1522.97 651.125ZM1532.4 652.388V650.671H1527.75V649.039L1531.5 643.041H1534.26V649.11H1535.49V650.671H1534.26V652.388H1532.4ZM1529.45 649.162H1532.44V644.453H1532.39L1529.45 649.11V649.162ZM1536.65 652.388V643.041H1542.77V644.654H1538.6V647.16H1542.41V648.708H1538.6V652.388H1536.65Z" fill="white"/>
</g>
</g>
<defs>
<clipPath id="clip0_1147_16531">
<rect width="1616.98" height="678.778" fill="white" transform="translate(0 0.25)"/>
</clipPath>
<clipPath id="clip1_1147_16531">
<rect width="201.938" height="678.778" fill="white" transform="translate(0 0.25)"/>
</clipPath>
<clipPath id="clip2_1147_16531">
<rect width="202.149" height="678.778" fill="white" transform="translate(201.938 0.25)"/>
</clipPath>
<clipPath id="clip3_1147_16531">
<rect width="202.149" height="678.778" fill="white" transform="translate(404.087 0.25)"/>
</clipPath>
<clipPath id="clip4_1147_16531">
<rect width="202.149" height="678.778" fill="white" transform="translate(606.236 0.25)"/>
</clipPath>
<clipPath id="clip5_1147_16531">
<rect width="202.149" height="678.778" fill="white" transform="translate(808.385 0.25)"/>
</clipPath>
<clipPath id="clip6_1147_16531">
<rect width="202.149" height="678.778" fill="white" transform="translate(1010.53 0.25)"/>
</clipPath>
<clipPath id="clip7_1147_16531">
<rect width="202.149" height="678.778" fill="white" transform="translate(1212.68 0.25)"/>
</clipPath>
<clipPath id="clip8_1147_16531">
<rect width="202.149" height="678.778" fill="white" transform="translate(1414.83 0.25)"/>
</clipPath>
</defs>
</svg>
