<svg width="1482" height="267" viewBox="0 0 1482 267" fill="none" xmlns="http://www.w3.org/2000/svg">
<path d="M68.2076 158.226C64.126 158.226 61.2449 155.185 61.2449 150.783V57.0672H60.9248L39.3166 72.1929C37.716 73.3134 36.1954 73.8736 34.4347 73.8736C31.0735 73.8736 28.7526 71.4727 28.7526 67.9513C28.7526 65.3903 29.7129 63.7097 32.7541 61.5489L57.4835 43.8621C61.9652 40.6609 63.886 39.8606 67.1672 39.8606C72.1291 39.8606 75.1703 42.9018 75.1703 47.9437V150.783C75.1703 155.185 72.2892 158.226 68.2076 158.226ZM144.957 158.706C117.987 158.706 102.381 135.497 102.381 99.0031C102.381 62.8294 118.147 39.3804 144.957 39.3804C171.767 39.3804 187.373 62.6693 187.373 98.9231C187.373 135.417 171.847 158.706 144.957 158.706ZM144.957 146.141C162.964 146.141 172.887 127.814 172.887 99.0031C172.887 70.5923 162.804 52.0253 144.957 52.0253C127.11 52.0253 116.866 70.7524 116.866 98.9231C116.866 127.734 126.87 146.141 144.957 146.141Z" fill="white"/>
<path d="M5.22361 256.554C4.12319 256.554 3.42292 255.833 3.42292 254.693V228.983C3.42292 227.843 4.12319 227.122 5.22361 227.122C6.32403 227.122 7.0243 227.843 7.0243 228.983V254.693C7.0243 255.833 6.32403 256.554 5.22361 256.554ZM13.8269 256.634C12.8065 256.634 12.0862 255.873 12.0862 254.773V236.866C12.0862 235.826 12.7665 235.105 13.7268 235.105C14.6872 235.105 15.3675 235.826 15.3675 236.866V238.787H15.4475C16.6079 236.546 18.8288 235.105 22.05 235.105C26.6118 235.105 29.2528 238.046 29.2528 242.768V254.773C29.2528 255.873 28.5325 256.634 27.5121 256.634C26.4917 256.634 25.7714 255.873 25.7714 254.773V243.389C25.7714 240.027 24.1908 238.187 20.9896 238.187C17.7084 238.187 15.5675 240.507 15.5675 244.029V254.773C15.5675 255.873 14.8473 256.634 13.8269 256.634ZM34.8149 251.472V238.327H33.0742C32.0738 238.327 31.5136 237.806 31.5136 236.886C31.5136 235.986 32.0738 235.466 33.0742 235.466H34.8149V231.904C34.8149 230.804 35.5352 230.043 36.5555 230.043C37.5759 230.043 38.2962 230.804 38.2962 231.904V235.466H40.9772C41.9776 235.466 42.5378 235.986 42.5378 236.886C42.5378 237.806 41.9776 238.327 40.9772 238.327H38.2962V250.711C38.2962 252.472 38.9164 253.312 40.6571 253.432L40.9572 253.452C42.0977 253.532 42.6179 253.993 42.6179 254.813C42.6179 255.873 42.0176 256.433 40.0769 256.433H39.8568C36.4955 256.433 34.8149 254.793 34.8149 251.472ZM54.1823 256.634C48.0399 256.634 44.4385 252.672 44.4385 245.95C44.4385 239.387 48.14 235.105 53.8821 235.105C59.2042 235.105 62.9456 239.087 62.9456 244.789C62.9456 246.05 62.2253 246.81 61.0249 246.81H48.0199C48.0199 251.011 50.3208 253.612 54.0422 253.612C56.5232 253.612 58.0437 252.732 59.6643 250.371C60.0245 249.871 60.4246 249.671 60.9648 249.671C61.8852 249.671 62.5054 250.271 62.5054 251.192C62.5054 251.472 62.4054 251.832 62.2453 252.212C60.9048 255.033 57.9837 256.634 54.1823 256.634ZM48.0399 244.089H59.3442C59.2642 240.487 57.0433 238.127 53.8221 238.127C50.5809 238.127 48.26 240.507 48.0399 244.089ZM68.2076 256.634C67.1872 256.634 66.4669 255.873 66.4669 254.773V236.866C66.4669 235.826 67.1472 235.105 68.1076 235.105C69.0679 235.105 69.7482 235.826 69.7482 236.866V238.867H69.8282C70.4284 236.706 72.4692 235.105 74.55 235.105C75.3103 235.105 75.8505 235.285 76.1906 235.606C76.4908 235.886 76.6308 236.286 76.6308 236.766C76.6308 237.306 76.4507 237.706 76.0906 237.986C75.7305 238.287 75.1903 238.427 74.43 238.427C71.2888 238.427 69.9483 240.688 69.9483 243.349V254.773C69.9483 255.873 69.228 256.634 68.2076 256.634ZM86.7347 256.634C85.5942 256.634 84.954 256.133 84.4538 254.873L77.8313 237.606C77.7112 237.306 77.6512 237.006 77.6512 236.706C77.6512 235.746 78.3515 235.105 79.3919 235.105C80.1722 235.105 80.6924 235.526 81.0125 236.426L86.7146 252.572H86.7947L92.5169 236.426C92.837 235.526 93.3572 235.105 94.1175 235.105C95.1579 235.105 95.8381 235.746 95.8381 236.706C95.8381 237.006 95.7781 237.306 95.6581 237.606L89.0555 254.873C88.5954 256.073 87.8551 256.634 86.7347 256.634ZM100.84 231.964C99.6596 231.964 98.6792 230.984 98.6792 229.803C98.6792 228.603 99.6596 227.643 100.84 227.643C102.04 227.643 103.021 228.603 103.021 229.803C103.021 230.984 102.04 231.964 100.84 231.964ZM100.84 256.634C99.8196 256.634 99.0994 255.873 99.0994 254.773V236.966C99.0994 235.866 99.8196 235.105 100.84 235.105C101.86 235.105 102.581 235.866 102.581 236.966V254.773C102.581 255.873 101.86 256.634 100.84 256.634ZM116.006 256.634C109.863 256.634 106.262 252.672 106.262 245.95C106.262 239.387 109.964 235.105 115.706 235.105C121.028 235.105 124.769 239.087 124.769 244.789C124.769 246.05 124.049 246.81 122.848 246.81H109.843C109.843 251.011 112.144 253.612 115.866 253.612C118.347 253.612 119.867 252.732 121.488 250.371C121.848 249.871 122.248 249.671 122.788 249.671C123.709 249.671 124.329 250.271 124.329 251.192C124.329 251.472 124.229 251.832 124.069 252.212C122.728 255.033 119.807 256.634 116.006 256.634ZM109.863 244.089H121.168C121.088 240.487 118.867 238.127 115.646 238.127C112.404 238.127 110.084 240.507 109.863 244.089ZM134.153 256.634C133.052 256.634 132.392 256.113 132.052 254.953L126.97 237.506C126.87 237.166 126.83 236.866 126.83 236.606C126.83 235.686 127.49 235.105 128.531 235.105C129.391 235.105 129.851 235.506 130.111 236.526L134.213 252.392H134.293L138.654 236.666C138.935 235.646 139.635 235.105 140.695 235.105C141.736 235.105 142.396 235.626 142.676 236.646L147.078 252.392H147.158L151.259 236.526C151.519 235.506 151.98 235.105 152.84 235.105C153.88 235.105 154.54 235.686 154.54 236.606C154.54 236.866 154.5 237.166 154.4 237.506L149.318 254.953C148.998 256.073 148.278 256.634 147.198 256.634C146.037 256.634 145.377 256.133 145.037 254.953L140.715 240.167H140.635L136.334 254.953C136.013 256.053 135.253 256.634 134.153 256.634ZM166.345 256.634C160.203 256.634 156.601 252.672 156.601 245.95C156.601 239.387 160.303 235.105 166.045 235.105C171.367 235.105 175.108 239.087 175.108 244.789C175.108 246.05 174.388 246.81 173.188 246.81H160.183C160.183 251.011 162.484 253.612 166.205 253.612C168.686 253.612 170.206 252.732 171.827 250.371C172.187 249.871 172.587 249.671 173.128 249.671C174.048 249.671 174.668 250.271 174.668 251.192C174.668 251.472 174.568 251.832 174.408 252.212C173.068 255.033 170.146 256.634 166.345 256.634ZM160.203 244.089H171.507C171.427 240.487 169.206 238.127 165.985 238.127C162.744 238.127 160.423 240.507 160.203 244.089ZM187.353 256.634C181.211 256.634 177.609 252.672 177.609 245.95C177.609 239.387 181.311 235.105 187.053 235.105C192.375 235.105 196.116 239.087 196.116 244.789C196.116 246.05 195.396 246.81 194.196 246.81H181.191C181.191 251.011 183.492 253.612 187.213 253.612C189.694 253.612 191.214 252.732 192.835 250.371C193.195 249.871 193.595 249.671 194.136 249.671C195.056 249.671 195.676 250.271 195.676 251.192C195.676 251.472 195.576 251.832 195.416 252.212C194.076 255.033 191.154 256.634 187.353 256.634ZM181.211 244.089H192.515C192.435 240.487 190.214 238.127 186.993 238.127C183.752 238.127 181.431 240.507 181.211 244.089ZM206.86 256.634C203.159 256.634 200.258 254.973 199.258 252.372C199.137 252.072 199.097 251.812 199.097 251.552C199.097 250.631 199.778 250.111 200.678 250.111C201.298 250.111 201.798 250.431 202.199 251.151C203.239 252.972 204.48 253.792 207.141 253.792C209.802 253.792 211.602 252.632 211.602 250.691C211.602 249.191 210.742 248.39 208.401 247.81L205.22 247.01C201.198 246.01 199.258 244.109 199.258 241.188C199.258 237.566 202.439 235.105 207.141 235.105C210.562 235.105 213.603 237.026 214.143 239.527C214.183 239.727 214.203 239.887 214.203 240.047C214.203 240.868 213.683 241.408 212.843 241.408C212.162 241.408 211.682 241.188 211.302 240.467C210.402 238.727 209.061 237.966 206.94 237.966C204.439 237.966 202.699 239.227 202.699 241.008C202.699 242.448 203.819 243.449 206.1 244.009L209.201 244.769C213.543 245.829 215.144 247.35 215.144 250.411C215.144 254.133 211.802 256.634 206.86 256.634Z" fill="white"/>
<path d="M392.152 0.785156V266.273" stroke="white" stroke-width="2.92683"/>
<path d="M681.463 158.706C654.492 158.706 638.886 135.497 638.886 99.0031C638.886 62.8294 654.652 39.3804 681.463 39.3804C708.273 39.3804 723.879 62.6693 723.879 98.9231C723.879 135.417 708.353 158.706 681.463 158.706ZM681.463 146.141C699.47 146.141 709.393 127.814 709.393 99.0031C709.393 70.5923 699.309 52.0253 681.463 52.0253C663.616 52.0253 653.372 70.7524 653.372 98.9231C653.372 127.734 663.376 146.141 681.463 146.141ZM745.407 156.785C741.165 156.785 738.444 154.464 738.444 150.863C738.444 147.902 739.085 146.621 742.526 143.02L779.5 104.445C795.026 88.199 798.707 82.0367 798.707 72.353C798.707 60.5885 789.664 51.9452 777.259 51.9452C764.774 51.9452 756.051 58.4277 752.13 70.8324C751.169 73.7935 749.569 75.8743 745.647 75.8743C741.405 75.8743 739.005 73.2333 739.005 69.4719C739.005 68.4315 739.085 67.5512 739.245 66.5908C740.925 54.7463 753.65 39.3804 777.259 39.3804C798.067 39.3804 813.113 52.8256 813.113 71.4727C813.113 84.1175 807.351 93.6411 787.583 113.889L758.612 143.66V143.98H809.031C813.113 143.98 815.834 146.541 815.834 150.383C815.834 154.224 813.113 156.785 809.031 156.785H745.407Z" fill="white"/>
<path d="M579.984 256.273C578.883 256.273 578.183 255.553 578.183 254.413V229.263C578.183 228.123 578.883 227.402 579.984 227.402H587.887C596.45 227.402 601.512 232.744 601.512 241.828C601.512 250.931 596.47 256.273 587.887 256.273H579.984ZM581.784 253.032H587.646C594.189 253.032 597.83 249.031 597.83 241.868C597.83 234.645 594.209 230.644 587.646 230.644H581.784V253.032ZM614.177 256.634C608.034 256.634 604.433 252.672 604.433 245.95C604.433 239.387 608.134 235.105 613.876 235.105C619.198 235.105 622.94 239.087 622.94 244.789C622.94 246.05 622.22 246.81 621.019 246.81H608.014C608.014 251.011 610.315 253.612 614.036 253.612C616.517 253.612 618.038 252.732 619.659 250.371C620.019 249.871 620.419 249.671 620.959 249.671C621.879 249.671 622.5 250.271 622.5 251.192C622.5 251.472 622.4 251.832 622.24 252.212C620.899 255.033 617.978 256.634 614.177 256.634ZM608.034 244.089H619.339C619.258 240.487 617.038 238.127 613.816 238.127C610.575 238.127 608.254 240.507 608.034 244.089ZM634.084 256.634C632.944 256.634 632.303 256.133 631.803 254.873L625.181 237.606C625.061 237.306 625.001 237.006 625.001 236.706C625.001 235.746 625.701 235.105 626.741 235.105C627.522 235.105 628.042 235.526 628.362 236.426L634.064 252.572H634.144L639.866 236.426C640.186 235.526 640.707 235.105 641.467 235.105C642.507 235.105 643.188 235.746 643.188 236.706C643.188 237.006 643.128 237.306 643.008 237.606L636.405 254.873C635.945 256.073 635.205 256.634 634.084 256.634ZM648.19 231.964C647.009 231.964 646.029 230.984 646.029 229.803C646.029 228.603 647.009 227.643 648.19 227.643C649.39 227.643 650.37 228.603 650.37 229.803C650.37 230.984 649.39 231.964 648.19 231.964ZM648.19 256.634C647.169 256.634 646.449 255.873 646.449 254.773V236.966C646.449 235.866 647.169 235.105 648.19 235.105C649.21 235.105 649.93 235.866 649.93 236.966V254.773C649.93 255.873 649.21 256.634 648.19 256.634ZM663.215 256.634C657.453 256.634 653.612 252.492 653.612 245.909C653.612 239.367 657.413 235.105 663.175 235.105C667.097 235.105 670.518 237.326 671.318 240.207C671.398 240.467 671.438 240.728 671.438 240.948C671.438 241.868 670.858 242.468 669.958 242.468C669.198 242.468 668.777 242.148 668.297 241.248C667.197 239.187 665.616 238.167 663.215 238.167C659.594 238.167 657.153 241.208 657.153 245.869C657.153 250.651 659.634 253.572 663.215 253.572C665.716 253.572 667.237 252.492 668.317 250.491C668.817 249.551 669.198 249.271 669.958 249.271C670.858 249.271 671.458 249.891 671.458 250.791C671.458 251.051 671.398 251.352 671.298 251.672C670.298 254.553 666.997 256.634 663.215 256.634ZM683.883 256.634C677.741 256.634 674.139 252.672 674.139 245.95C674.139 239.387 677.841 235.105 683.583 235.105C688.905 235.105 692.646 239.087 692.646 244.789C692.646 246.05 691.926 246.81 690.726 246.81H677.721C677.721 251.011 680.022 253.612 683.743 253.612C686.224 253.612 687.745 252.732 689.365 250.371C689.725 249.871 690.125 249.671 690.666 249.671C691.586 249.671 692.206 250.271 692.206 251.192C692.206 251.472 692.106 251.832 691.946 252.212C690.606 255.033 687.685 256.634 683.883 256.634ZM677.741 244.089H689.045C688.965 240.487 686.744 238.127 683.523 238.127C680.282 238.127 677.961 240.507 677.741 244.089ZM703.391 256.634C699.689 256.634 696.788 254.973 695.788 252.372C695.668 252.072 695.628 251.812 695.628 251.552C695.628 250.631 696.308 250.111 697.208 250.111C697.828 250.111 698.329 250.431 698.729 251.151C699.769 252.972 701.01 253.792 703.671 253.792C706.332 253.792 708.132 252.632 708.132 250.691C708.132 249.191 707.272 248.39 704.931 247.81L701.75 247.01C697.728 246.01 695.788 244.109 695.788 241.188C695.788 237.566 698.969 235.105 703.671 235.105C707.092 235.105 710.133 237.026 710.673 239.527C710.713 239.727 710.733 239.887 710.733 240.047C710.733 240.868 710.213 241.408 709.373 241.408C708.693 241.408 708.212 241.188 707.832 240.467C706.932 238.727 705.591 237.966 703.471 237.966C700.97 237.966 699.229 239.227 699.229 241.008C699.229 242.448 700.349 243.449 702.63 244.009L705.731 244.769C710.073 245.829 711.674 247.35 711.674 250.411C711.674 254.133 708.332 256.634 703.391 256.634ZM724.779 251.472V238.327H723.038C722.038 238.327 721.477 237.806 721.477 236.886C721.477 235.986 722.038 235.466 723.038 235.466H724.779V231.904C724.779 230.804 725.499 230.043 726.519 230.043C727.54 230.043 728.26 230.804 728.26 231.904V235.466H730.941C731.941 235.466 732.502 235.986 732.502 236.886C732.502 237.806 731.941 238.327 730.941 238.327H728.26V250.711C728.26 252.472 728.88 253.312 730.621 253.432L730.921 253.452C732.061 253.532 732.582 253.993 732.582 254.813C732.582 255.873 731.981 256.433 730.041 256.433H729.821C726.459 256.433 724.779 254.793 724.779 251.472ZM744.046 256.634C738.284 256.634 734.402 252.492 734.402 245.869C734.402 239.227 738.284 235.105 744.046 235.105C749.788 235.105 753.67 239.227 753.67 245.869C753.67 252.492 749.788 256.634 744.046 256.634ZM744.046 253.572C747.727 253.572 750.128 250.771 750.128 245.869C750.128 240.968 747.727 238.167 744.046 238.167C740.365 238.167 737.944 240.968 737.944 245.869C737.944 250.771 740.365 253.572 744.046 253.572ZM773.477 256.634C768.175 256.634 764.574 252.392 764.574 245.869C764.574 239.347 768.155 235.105 773.397 235.105C776.378 235.105 778.779 236.566 780.02 238.847H780.1V228.903C780.1 227.803 780.82 227.042 781.84 227.042C782.861 227.042 783.581 227.803 783.581 228.903V254.933C783.581 255.933 782.881 256.634 781.88 256.634C780.9 256.634 780.1 255.953 780.1 254.933V252.552H780.04C778.899 255.033 776.738 256.634 773.477 256.634ZM774.137 253.572C777.719 253.572 780.12 250.531 780.12 245.869C780.12 241.228 777.719 238.167 774.137 238.167C770.456 238.167 768.135 241.168 768.135 245.869C768.135 250.591 770.456 253.572 774.137 253.572ZM797.006 256.634C790.864 256.634 787.262 252.672 787.262 245.95C787.262 239.387 790.964 235.105 796.706 235.105C802.028 235.105 805.77 239.087 805.77 244.789C805.77 246.05 805.049 246.81 803.849 246.81H790.844C790.844 251.011 793.145 253.612 796.866 253.612C799.347 253.612 800.868 252.732 802.488 250.371C802.848 249.871 803.249 249.671 803.789 249.671C804.709 249.671 805.329 250.271 805.329 251.192C805.329 251.472 805.229 251.832 805.069 252.212C803.729 255.033 800.808 256.634 797.006 256.634ZM790.864 244.089H802.168C802.088 240.487 799.867 238.127 796.646 238.127C793.405 238.127 791.084 240.507 790.864 244.089ZM816.514 256.634C812.812 256.634 809.911 254.973 808.911 252.372C808.791 252.072 808.751 251.812 808.751 251.552C808.751 250.631 809.431 250.111 810.331 250.111C810.952 250.111 811.452 250.431 811.852 251.151C812.892 252.972 814.133 253.792 816.794 253.792C819.455 253.792 821.255 252.632 821.255 250.691C821.255 249.191 820.395 248.39 818.054 247.81L814.873 247.01C810.851 246.01 808.911 244.109 808.911 241.188C808.911 237.566 812.092 235.105 816.794 235.105C820.215 235.105 823.256 237.026 823.796 239.527C823.836 239.727 823.856 239.887 823.856 240.047C823.856 240.868 823.336 241.408 822.496 241.408C821.816 241.408 821.335 241.188 820.955 240.467C820.055 238.727 818.714 237.966 816.594 237.966C814.093 237.966 812.352 239.227 812.352 241.008C812.352 242.448 813.472 243.449 815.753 244.009L818.855 244.769C823.196 245.829 824.797 247.35 824.797 250.411C824.797 254.133 821.456 256.634 816.514 256.634ZM830.299 231.964C829.118 231.964 828.138 230.984 828.138 229.803C828.138 228.603 829.118 227.643 830.299 227.643C831.499 227.643 832.48 228.603 832.48 229.803C832.48 230.984 831.499 231.964 830.299 231.964ZM830.299 256.634C829.279 256.634 828.558 255.873 828.558 254.773V236.966C828.558 235.866 829.279 235.105 830.299 235.105C831.319 235.105 832.04 235.866 832.04 236.966V254.773C832.04 255.873 831.319 256.634 830.299 256.634ZM845.145 264.116C841.663 264.076 838.762 262.696 837.302 260.395C837.021 259.955 836.901 259.555 836.901 259.095C836.901 258.214 837.542 257.594 838.462 257.594C839.042 257.594 839.382 257.794 839.923 258.394C841.703 260.355 843.164 261.115 845.285 261.155C849.006 261.215 851.267 259.075 851.267 255.973V252.692H851.187C849.906 254.953 847.425 256.433 844.504 256.433C839.202 256.433 835.721 252.252 835.721 245.789C835.721 239.267 839.202 235.105 844.584 235.105C847.525 235.105 849.826 236.546 851.207 238.887H851.267V236.906C851.267 235.826 852.007 235.105 853.008 235.105C854.008 235.105 854.748 235.826 854.748 236.906V255.853C854.748 260.815 851.067 264.176 845.145 264.116ZM845.205 253.372C848.826 253.372 851.267 250.371 851.267 245.789C851.267 241.208 848.826 238.167 845.205 238.167C841.623 238.167 839.282 241.128 839.282 245.789C839.282 250.451 841.623 253.372 845.205 253.372ZM861.011 256.634C859.99 256.634 859.27 255.873 859.27 254.773V236.866C859.27 235.826 859.95 235.105 860.911 235.105C861.871 235.105 862.551 235.826 862.551 236.866V238.787H862.631C863.792 236.546 866.012 235.105 869.234 235.105C873.795 235.105 876.436 238.046 876.436 242.768V254.773C876.436 255.873 875.716 256.634 874.696 256.634C873.675 256.634 872.955 255.873 872.955 254.773V243.389C872.955 240.027 871.375 238.187 868.173 238.187C864.892 238.187 862.751 240.507 862.751 244.029V254.773C862.751 255.873 862.031 256.634 861.011 256.634Z" fill="white"/>
<path d="M1061.85 0.785156V266.273" stroke="white" stroke-width="2.92683"/>
<path d="M1320.88 158.226C1316.8 158.226 1313.92 155.185 1313.92 150.783V57.0672H1313.6L1291.99 72.1929C1290.39 73.3134 1288.87 73.8736 1287.11 73.8736C1283.75 73.8736 1281.43 71.4727 1281.43 67.9513C1281.43 65.3903 1282.39 63.7097 1285.43 61.5489L1310.16 43.8621C1314.64 40.6609 1316.56 39.8606 1319.84 39.8606C1324.8 39.8606 1327.84 42.9018 1327.84 47.9437V150.783C1327.84 155.185 1324.96 158.226 1320.88 158.226ZM1396.91 158.706C1380.02 158.706 1365.78 150.303 1360.34 137.258C1359.3 134.777 1358.66 132.536 1358.66 129.575C1358.66 125.493 1361.3 122.852 1365.38 122.852C1368.9 122.852 1370.82 124.453 1372.1 128.534C1375.62 139.739 1384.67 146.061 1397.23 146.061C1412.76 146.061 1423.64 135.097 1423.64 119.411C1423.64 104.205 1412.6 93.401 1397.15 93.401C1389.23 93.401 1381.87 96.3621 1377.06 101.484C1371.94 106.926 1370.74 107.646 1367.14 107.646C1362.66 107.646 1360.18 104.365 1360.18 100.204C1360.18 99.5634 1360.18 99.0832 1360.26 98.3629L1364.34 52.5855C1365.06 44.5024 1368.82 41.3012 1377.3 41.3012H1425.56C1429.64 41.3012 1432.36 43.8621 1432.36 47.7036C1432.36 51.5451 1429.64 54.106 1425.56 54.106H1377.22L1373.54 92.0405H1373.86C1379.06 84.9978 1388.59 80.9963 1399.87 80.9963C1422.2 80.9963 1438.05 96.7623 1438.05 119.011C1438.05 142.3 1421.08 158.706 1396.91 158.706Z" fill="white"/>
<path d="M1248.09 256.554C1247.01 256.554 1246.41 256.013 1246.07 254.833L1239.01 229.763C1238.89 229.323 1238.85 229.083 1238.85 228.763C1238.85 227.803 1239.59 227.122 1240.63 227.122C1241.57 227.122 1242.17 227.643 1242.41 228.563L1248.09 250.971H1248.25L1254.34 229.143C1254.74 227.703 1255.38 227.122 1256.6 227.122C1257.78 227.122 1258.42 227.703 1258.8 229.063L1264.9 250.971H1265.06L1270.74 228.563C1270.98 227.623 1271.6 227.122 1272.52 227.122C1273.56 227.122 1274.3 227.803 1274.3 228.763C1274.3 229.083 1274.26 229.323 1274.14 229.763L1267.08 254.833C1266.74 256.013 1266.14 256.554 1265.06 256.554C1263.94 256.554 1263.34 256.053 1262.98 254.853L1256.68 233.365H1256.48L1250.18 254.853C1249.82 256.053 1249.22 256.554 1248.09 256.554ZM1284.29 256.634C1278.15 256.634 1274.54 252.672 1274.54 245.95C1274.54 239.387 1278.25 235.105 1283.99 235.105C1289.31 235.105 1293.05 239.087 1293.05 244.789C1293.05 246.05 1292.33 246.81 1291.13 246.81H1278.13C1278.13 251.011 1280.43 253.612 1284.15 253.612C1286.63 253.612 1288.15 252.732 1289.77 250.371C1290.13 249.871 1290.53 249.671 1291.07 249.671C1291.99 249.671 1292.61 250.271 1292.61 251.192C1292.61 251.472 1292.51 251.832 1292.35 252.212C1291.01 255.033 1288.09 256.634 1284.29 256.634ZM1278.15 244.089H1289.45C1289.37 240.487 1287.15 238.127 1283.93 238.127C1280.69 238.127 1278.37 240.507 1278.15 244.089ZM1305.3 256.634C1299.15 256.634 1295.55 252.672 1295.55 245.95C1295.55 239.387 1299.25 235.105 1305 235.105C1310.32 235.105 1314.06 239.087 1314.06 244.789C1314.06 246.05 1313.34 246.81 1312.14 246.81H1299.13C1299.13 251.011 1301.43 253.612 1305.16 253.612C1307.64 253.612 1309.16 252.732 1310.78 250.371C1311.14 249.871 1311.54 249.671 1312.08 249.671C1313 249.671 1313.62 250.271 1313.62 251.192C1313.62 251.472 1313.52 251.832 1313.36 252.212C1312.02 255.033 1309.1 256.634 1305.3 256.634ZM1299.15 244.089H1310.46C1310.38 240.487 1308.16 238.127 1304.94 238.127C1301.7 238.127 1299.37 240.507 1299.15 244.089ZM1319.5 256.634C1318.48 256.634 1317.76 255.873 1317.76 254.773V228.903C1317.76 227.803 1318.48 227.042 1319.5 227.042C1320.52 227.042 1321.24 227.803 1321.24 228.903V244.709L1330.55 235.686C1330.97 235.265 1331.31 235.105 1331.81 235.105C1332.63 235.105 1333.29 235.766 1333.29 236.546C1333.29 237.026 1333.15 237.326 1332.73 237.726L1325.64 244.449L1333.47 253.973C1333.81 254.393 1333.91 254.713 1333.91 255.153C1333.91 255.993 1333.21 256.634 1332.31 256.634C1331.77 256.634 1331.41 256.474 1331.01 255.993L1323.18 246.59L1321.24 248.43V254.773C1321.24 255.873 1320.52 256.634 1319.5 256.634ZM1343.89 256.634C1340.19 256.634 1337.29 254.973 1336.29 252.372C1336.17 252.072 1336.13 251.812 1336.13 251.552C1336.13 250.631 1336.81 250.111 1337.71 250.111C1338.33 250.111 1338.83 250.431 1339.23 251.151C1340.27 252.972 1341.51 253.792 1344.17 253.792C1346.83 253.792 1348.63 252.632 1348.63 250.691C1348.63 249.191 1347.77 248.39 1345.43 247.81L1342.25 247.01C1338.23 246.01 1336.29 244.109 1336.29 241.188C1336.29 237.566 1339.47 235.105 1344.17 235.105C1347.59 235.105 1350.63 237.026 1351.17 239.527C1351.21 239.727 1351.23 239.887 1351.23 240.047C1351.23 240.868 1350.71 241.408 1349.87 241.408C1349.19 241.408 1348.71 241.188 1348.33 240.467C1347.43 238.727 1346.09 237.966 1343.97 237.966C1341.47 237.966 1339.73 239.227 1339.73 241.008C1339.73 242.448 1340.85 243.449 1343.13 244.009L1346.23 244.769C1350.57 245.829 1352.17 247.35 1352.17 250.411C1352.17 254.133 1348.83 256.634 1343.89 256.634ZM1366.5 256.554C1365.4 256.554 1364.7 255.833 1364.7 254.693V229.263C1364.7 228.123 1365.4 227.402 1366.5 227.402H1375C1380.43 227.402 1384.25 231.204 1384.25 236.666C1384.25 242.148 1380.39 245.97 1374.96 245.97H1368.3V254.693C1368.3 255.833 1367.6 256.554 1366.5 256.554ZM1368.3 242.768H1374.06C1378.18 242.768 1380.55 240.507 1380.55 236.666C1380.55 232.845 1378.2 230.604 1374.06 230.604H1368.3V242.768ZM1389.59 256.634C1388.57 256.634 1387.85 255.873 1387.85 254.773V236.866C1387.85 235.826 1388.53 235.105 1389.49 235.105C1390.45 235.105 1391.13 235.826 1391.13 236.866V238.867H1391.21C1391.81 236.706 1393.85 235.105 1395.93 235.105C1396.69 235.105 1397.23 235.285 1397.57 235.606C1397.87 235.886 1398.01 236.286 1398.01 236.766C1398.01 237.306 1397.83 237.706 1397.47 237.986C1397.11 238.287 1396.57 238.427 1395.81 238.427C1392.67 238.427 1391.33 240.688 1391.33 243.349V254.773C1391.33 255.873 1390.61 256.634 1389.59 256.634ZM1408.12 256.634C1402.35 256.634 1398.47 252.492 1398.47 245.869C1398.47 239.227 1402.35 235.105 1408.12 235.105C1413.86 235.105 1417.74 239.227 1417.74 245.869C1417.74 252.492 1413.86 256.634 1408.12 256.634ZM1408.12 253.572C1411.8 253.572 1414.2 250.771 1414.2 245.869C1414.2 240.968 1411.8 238.167 1408.12 238.167C1404.43 238.167 1402.01 240.968 1402.01 245.869C1402.01 250.771 1404.43 253.572 1408.12 253.572ZM1423.18 231.964C1422 231.964 1421.02 230.984 1421.02 229.803C1421.02 228.603 1422 227.643 1423.18 227.643C1424.38 227.643 1425.36 228.603 1425.36 229.803C1425.36 230.984 1424.38 231.964 1423.18 231.964ZM1423.18 235.105C1424.2 235.105 1424.92 235.866 1424.92 236.966V257.794C1424.92 261.515 1422.96 263.416 1419.6 263.416C1418.32 263.416 1417.54 262.816 1417.54 261.916C1417.54 261.155 1418 260.615 1419.1 260.455L1419.24 260.435C1420.86 260.195 1421.44 259.295 1421.44 257.454V236.966C1421.44 235.866 1422.16 235.105 1423.18 235.105ZM1438.35 256.634C1432.2 256.634 1428.6 252.672 1428.6 245.95C1428.6 239.387 1432.3 235.105 1438.05 235.105C1443.37 235.105 1447.11 239.087 1447.11 244.789C1447.11 246.05 1446.39 246.81 1445.19 246.81H1432.18C1432.18 251.011 1434.49 253.612 1438.21 253.612C1440.69 253.612 1442.21 252.732 1443.83 250.371C1444.19 249.871 1444.59 249.671 1445.13 249.671C1446.05 249.671 1446.67 250.271 1446.67 251.192C1446.67 251.472 1446.57 251.832 1446.41 252.212C1445.07 255.033 1442.15 256.634 1438.35 256.634ZM1432.2 244.089H1443.51C1443.43 240.487 1441.21 238.127 1437.99 238.127C1434.75 238.127 1432.42 240.507 1432.2 244.089ZM1459.22 256.634C1453.45 256.634 1449.61 252.492 1449.61 245.909C1449.61 239.367 1453.41 235.105 1459.18 235.105C1463.1 235.105 1466.52 237.326 1467.32 240.207C1467.4 240.467 1467.44 240.728 1467.44 240.948C1467.44 241.868 1466.86 242.468 1465.96 242.468C1465.2 242.468 1464.78 242.148 1464.3 241.248C1463.2 239.187 1461.62 238.167 1459.22 238.167C1455.59 238.167 1453.15 241.208 1453.15 245.869C1453.15 250.651 1455.63 253.572 1459.22 253.572C1461.72 253.572 1463.24 252.492 1464.32 250.491C1464.82 249.551 1465.2 249.271 1465.96 249.271C1466.86 249.271 1467.46 249.891 1467.46 250.791C1467.46 251.051 1467.4 251.352 1467.3 251.672C1466.3 254.553 1463 256.634 1459.22 256.634ZM1472.28 251.472V238.327H1470.54C1469.54 238.327 1468.98 237.806 1468.98 236.886C1468.98 235.986 1469.54 235.466 1470.54 235.466H1472.28V231.904C1472.28 230.804 1473 230.043 1474.02 230.043C1475.04 230.043 1475.76 230.804 1475.76 231.904V235.466H1478.44C1479.44 235.466 1480 235.986 1480 236.886C1480 237.806 1479.44 238.327 1478.44 238.327H1475.76V250.711C1475.76 252.472 1476.38 253.312 1478.12 253.432L1478.42 253.452C1479.56 253.532 1480.08 253.993 1480.08 254.813C1480.08 255.873 1479.48 256.433 1477.54 256.433H1477.32C1473.96 256.433 1472.28 254.793 1472.28 251.472Z" fill="white"/>
</svg>
