<svg width="737" height="120" viewBox="0 0 737 120" fill="none" xmlns="http://www.w3.org/2000/svg">
<rect x="1.6958" y="1.95459" width="224" height="116.702" rx="58.3509" fill="#EEF4FE" stroke="black" stroke-width="2"/>
<path d="M49.9884 58.3054H48.5111L52.7839 46.6691H54.2384L58.5111 58.3054H57.0339L53.5566 48.51H53.4657L49.9884 58.3054ZM50.5339 53.76H56.4884V55.01H50.5339V53.76ZM66.1844 49.5781L62.9572 58.3054H61.5935L58.3663 49.5781H59.8208L62.2299 56.5327H62.3208L64.7299 49.5781H66.1844ZM71.1873 58.4872C70.3994 58.4872 69.7081 58.2997 69.1134 57.9247C68.5225 57.5497 68.0604 57.0251 67.7271 56.3509C67.3975 55.6766 67.2327 54.8888 67.2327 53.9872C67.2327 53.0781 67.3975 52.2846 67.7271 51.6066C68.0604 50.9285 68.5225 50.402 69.1134 50.027C69.7081 49.652 70.3994 49.4645 71.1873 49.4645C71.9752 49.4645 72.6646 49.652 73.2555 50.027C73.8502 50.402 74.3123 50.9285 74.6418 51.6066C74.9752 52.2846 75.1418 53.0781 75.1418 53.9872C75.1418 54.8888 74.9752 55.6766 74.6418 56.3509C74.3123 57.0251 73.8502 57.5497 73.2555 57.9247C72.6646 58.2997 71.9752 58.4872 71.1873 58.4872ZM71.1873 57.2827C71.7858 57.2827 72.2782 57.1293 72.6646 56.8225C73.0509 56.5156 73.3369 56.1122 73.5225 55.6122C73.7081 55.1122 73.8009 54.5706 73.8009 53.9872C73.8009 53.4039 73.7081 52.8603 73.5225 52.3566C73.3369 51.8528 73.0509 51.4456 72.6646 51.135C72.2782 50.8244 71.7858 50.6691 71.1873 50.6691C70.5888 50.6691 70.0964 50.8244 69.71 51.135C69.3236 51.4456 69.0377 51.8528 68.8521 52.3566C68.6664 52.8603 68.5736 53.4039 68.5736 53.9872C68.5736 54.5706 68.6664 55.1122 68.8521 55.6122C69.0377 56.1122 69.3236 56.5156 69.71 56.8225C70.0964 57.1293 70.5888 57.2827 71.1873 57.2827ZM77.1887 58.3054V49.5781H78.5296V58.3054H77.1887ZM77.8705 48.1236C77.6092 48.1236 77.3838 48.0346 77.1944 47.8566C77.0088 47.6785 76.916 47.4645 76.916 47.2145C76.916 46.9645 77.0088 46.7505 77.1944 46.5725C77.3838 46.3944 77.6092 46.3054 77.8705 46.3054C78.1319 46.3054 78.3554 46.3944 78.541 46.5725C78.7304 46.7505 78.8251 46.9645 78.8251 47.2145C78.8251 47.4645 78.7304 47.6785 78.541 47.8566C78.3554 48.0346 78.1319 48.1236 77.8705 48.1236ZM84.281 58.4872C83.5538 58.4872 82.9117 58.3035 82.3549 57.9361C81.7981 57.5649 81.3625 57.0422 81.0481 56.3679C80.7337 55.6899 80.5765 54.8888 80.5765 53.9645C80.5765 53.0478 80.7337 52.2524 81.0481 51.5781C81.3625 50.9039 81.8 50.3831 82.3606 50.0156C82.9212 49.6482 83.5689 49.4645 84.3038 49.4645C84.8719 49.4645 85.3208 49.5592 85.6503 49.7486C85.9837 49.9342 86.2375 50.1463 86.4117 50.385C86.5897 50.6198 86.728 50.813 86.8265 50.9645H86.9401V46.6691H88.281V58.3054H86.9856V56.9645H86.8265C86.728 57.1236 86.5878 57.3244 86.406 57.5668C86.2242 57.8054 85.9647 58.0194 85.6276 58.2088C85.2905 58.3944 84.8416 58.4872 84.281 58.4872ZM84.4628 57.2827C85.0007 57.2827 85.4553 57.1425 85.8265 56.8622C86.1977 56.5781 86.4799 56.1861 86.6731 55.6861C86.8663 55.1823 86.9628 54.6009 86.9628 53.9418C86.9628 53.2903 86.8681 52.7202 86.6788 52.2316C86.4894 51.7391 86.2091 51.3566 85.8378 51.0838C85.4666 50.8073 85.0083 50.6691 84.4628 50.6691C83.8947 50.6691 83.4212 50.8149 83.0424 51.1066C82.6674 51.3944 82.3852 51.7865 82.1958 52.2827C82.0102 52.7751 81.9174 53.3281 81.9174 53.9418C81.9174 54.563 82.0121 55.1274 82.2015 55.635C82.3947 56.1388 82.6788 56.5403 83.0538 56.8395C83.4325 57.135 83.9022 57.2827 84.4628 57.2827ZM96.764 53.0554V58.3054H95.4231V49.5781H96.7185V50.9418H96.8322C97.0367 50.4986 97.3473 50.1425 97.764 49.8736C98.1806 49.6009 98.7185 49.4645 99.3776 49.4645C99.9685 49.4645 100.486 49.5857 100.929 49.8281C101.372 50.0668 101.717 50.4304 101.963 50.9191C102.209 51.4039 102.332 52.0175 102.332 52.76V58.3054H100.991V52.8509C100.991 52.1653 100.813 51.6312 100.457 51.2486C100.101 50.8622 99.6125 50.6691 98.9913 50.6691C98.5632 50.6691 98.1806 50.7619 97.8435 50.9475C97.5102 51.1331 97.2469 51.4039 97.0538 51.76C96.8606 52.116 96.764 52.5478 96.764 53.0554ZM108.442 58.4872C107.601 58.4872 106.875 58.3016 106.265 57.9304C105.659 57.5554 105.192 57.0327 104.862 56.3622C104.536 55.688 104.373 54.9039 104.373 54.01C104.373 53.116 104.536 52.3281 104.862 51.6463C105.192 50.9607 105.65 50.4266 106.237 50.0441C106.828 49.6577 107.517 49.4645 108.305 49.4645C108.76 49.4645 109.209 49.5403 109.652 49.6918C110.095 49.8433 110.498 50.0895 110.862 50.4304C111.226 50.7675 111.515 51.2145 111.731 51.7713C111.947 52.3281 112.055 53.0138 112.055 53.8281V54.3963H105.328V53.2372H110.692C110.692 52.7448 110.593 52.3054 110.396 51.9191C110.203 51.5327 109.926 51.2278 109.567 51.0043C109.21 50.7808 108.79 50.6691 108.305 50.6691C107.771 50.6691 107.309 50.8016 106.919 51.0668C106.532 51.3281 106.235 51.6691 106.027 52.0895C105.818 52.51 105.714 52.9607 105.714 53.4418V54.2145C105.714 54.8736 105.828 55.4323 106.055 55.8906C106.286 56.3452 106.606 56.6918 107.015 56.9304C107.424 57.1653 107.9 57.2827 108.442 57.2827C108.794 57.2827 109.112 57.2335 109.396 57.135C109.684 57.0327 109.932 56.8812 110.14 56.6804C110.349 56.4759 110.51 56.2221 110.623 55.9191L111.919 56.2827C111.782 56.7221 111.553 57.1085 111.231 57.4418C110.909 57.7713 110.512 58.0289 110.038 58.2145C109.565 58.3963 109.032 58.4872 108.442 58.4872ZM117.754 58.4872C116.913 58.4872 116.188 58.3016 115.578 57.9304C114.972 57.5554 114.504 57.0327 114.174 56.3622C113.849 55.688 113.686 54.9039 113.686 54.01C113.686 53.116 113.849 52.3281 114.174 51.6463C114.504 50.9607 114.962 50.4266 115.549 50.0441C116.14 49.6577 116.83 49.4645 117.618 49.4645C118.072 49.4645 118.521 49.5403 118.964 49.6918C119.407 49.8433 119.811 50.0895 120.174 50.4304C120.538 50.7675 120.828 51.2145 121.044 51.7713C121.26 52.3281 121.368 53.0138 121.368 53.8281V54.3963H114.64V53.2372H120.004C120.004 52.7448 119.906 52.3054 119.709 51.9191C119.515 51.5327 119.239 51.2278 118.879 51.0043C118.523 50.7808 118.103 50.6691 117.618 50.6691C117.084 50.6691 116.621 50.8016 116.231 51.0668C115.845 51.3281 115.548 51.6691 115.339 52.0895C115.131 52.51 115.027 52.9607 115.027 53.4418V54.2145C115.027 54.8736 115.14 55.4323 115.368 55.8906C115.599 56.3452 115.919 56.6918 116.328 56.9304C116.737 57.1653 117.212 57.2827 117.754 57.2827C118.106 57.2827 118.424 57.2335 118.709 57.135C118.996 57.0327 119.245 56.8812 119.453 56.6804C119.661 56.4759 119.822 56.2221 119.936 55.9191L121.231 56.2827C121.095 56.7221 120.866 57.1085 120.544 57.4418C120.222 57.7713 119.824 58.0289 119.351 58.2145C118.877 58.3963 118.345 58.4872 117.754 58.4872ZM126.703 58.4872C125.976 58.4872 125.334 58.3035 124.777 57.9361C124.22 57.5649 123.784 57.0422 123.47 56.3679C123.156 55.6899 122.998 54.8888 122.998 53.9645C122.998 53.0478 123.156 52.2524 123.47 51.5781C123.784 50.9039 124.222 50.3831 124.782 50.0156C125.343 49.6482 125.991 49.4645 126.726 49.4645C127.294 49.4645 127.743 49.5592 128.072 49.7486C128.406 49.9342 128.659 50.1463 128.834 50.385C129.012 50.6198 129.15 50.813 129.248 50.9645H129.362V46.6691H130.703V58.3054H129.407V56.9645H129.248C129.15 57.1236 129.01 57.3244 128.828 57.5668C128.646 57.8054 128.387 58.0194 128.049 58.2088C127.712 58.3944 127.264 58.4872 126.703 58.4872ZM126.885 57.2827C127.423 57.2827 127.877 57.1425 128.248 56.8622C128.62 56.5781 128.902 56.1861 129.095 55.6861C129.288 55.1823 129.385 54.6009 129.385 53.9418C129.385 53.2903 129.29 52.7202 129.101 52.2316C128.911 51.7391 128.631 51.3566 128.26 51.0838C127.889 50.8073 127.43 50.6691 126.885 50.6691C126.317 50.6691 125.843 50.8149 125.464 51.1066C125.089 51.3944 124.807 51.7865 124.618 52.2827C124.432 52.7751 124.339 53.3281 124.339 53.9418C124.339 54.563 124.434 55.1274 124.623 55.635C124.817 56.1388 125.101 56.5403 125.476 56.8395C125.854 57.135 126.324 57.2827 126.885 57.2827ZM133.345 58.3054V49.5781H134.686V58.3054H133.345ZM134.027 48.1236C133.765 48.1236 133.54 48.0346 133.351 47.8566C133.165 47.6785 133.072 47.4645 133.072 47.2145C133.072 46.9645 133.165 46.7505 133.351 46.5725C133.54 46.3944 133.765 46.3054 134.027 46.3054C134.288 46.3054 134.512 46.3944 134.697 46.5725C134.887 46.7505 134.981 46.9645 134.981 47.2145C134.981 47.4645 134.887 47.6785 134.697 47.8566C134.512 48.0346 134.288 48.1236 134.027 48.1236ZM138.483 53.0554V58.3054H137.142V49.5781H138.437V50.9418H138.551C138.755 50.4986 139.066 50.1425 139.483 49.8736C139.899 49.6009 140.437 49.4645 141.096 49.4645C141.687 49.4645 142.204 49.5857 142.648 49.8281C143.091 50.0668 143.435 50.4304 143.682 50.9191C143.928 51.4039 144.051 52.0175 144.051 52.76V58.3054H142.71V52.8509C142.71 52.1653 142.532 51.6312 142.176 51.2486C141.82 50.8622 141.331 50.6691 140.71 50.6691C140.282 50.6691 139.899 50.7619 139.562 50.9475C139.229 51.1331 138.966 51.4039 138.773 51.76C138.579 52.116 138.483 52.5478 138.483 53.0554ZM150.024 61.76C149.376 61.76 148.819 61.6766 148.353 61.51C147.888 61.3471 147.499 61.1312 147.189 60.8622C146.882 60.5971 146.638 60.313 146.456 60.01L147.524 59.26C147.645 59.4191 147.799 59.6009 147.984 59.8054C148.17 60.0138 148.424 60.1937 148.746 60.3452C149.071 60.5005 149.497 60.5781 150.024 60.5781C150.728 60.5781 151.31 60.4077 151.768 60.0668C152.227 59.7259 152.456 59.1918 152.456 58.4645V56.6918H152.342C152.244 56.8509 152.103 57.0478 151.922 57.2827C151.744 57.5138 151.486 57.7202 151.149 57.902C150.816 58.08 150.365 58.1691 149.797 58.1691C149.092 58.1691 148.46 58.0024 147.899 57.6691C147.342 57.3357 146.901 56.8509 146.575 56.2145C146.253 55.5781 146.092 54.8054 146.092 53.8963C146.092 53.0024 146.249 52.224 146.564 51.5611C146.878 50.8944 147.316 50.3793 147.876 50.0156C148.437 49.6482 149.085 49.4645 149.819 49.4645C150.388 49.4645 150.838 49.5592 151.172 49.7486C151.509 49.9342 151.766 50.1463 151.944 50.385C152.126 50.6198 152.266 50.813 152.365 50.9645H152.501V49.5781H153.797V58.5554C153.797 59.3054 153.626 59.9153 153.285 60.385C152.948 60.8585 152.494 61.205 151.922 61.4247C151.353 61.6482 150.721 61.76 150.024 61.76ZM149.978 56.9645C150.516 56.9645 150.971 56.8414 151.342 56.5952C151.713 56.349 151.996 55.9948 152.189 55.5327C152.382 55.0706 152.478 54.5175 152.478 53.8736C152.478 53.2448 152.384 52.6899 152.194 52.2088C152.005 51.7278 151.725 51.3509 151.353 51.0781C150.982 50.8054 150.524 50.6691 149.978 50.6691C149.41 50.6691 148.937 50.813 148.558 51.1009C148.183 51.3888 147.901 51.7751 147.711 52.26C147.526 52.7448 147.433 53.2827 147.433 53.8736C147.433 54.4797 147.528 55.0156 147.717 55.4816C147.91 55.9437 148.194 56.3073 148.569 56.5725C148.948 56.8338 149.418 56.9645 149.978 56.9645ZM164.547 49.5781V50.7145H160.024V49.5781H164.547ZM161.342 47.4872H162.683V55.8054C162.683 56.1842 162.738 56.4683 162.848 56.6577C162.961 56.8433 163.105 56.9683 163.28 57.0327C163.458 57.0933 163.645 57.1236 163.842 57.1236C163.99 57.1236 164.111 57.116 164.206 57.1009C164.3 57.0819 164.376 57.0668 164.433 57.0554L164.706 58.26C164.615 58.2941 164.488 58.3281 164.325 58.3622C164.162 58.4001 163.956 58.4191 163.706 58.4191C163.327 58.4191 162.956 58.3376 162.592 58.1747C162.232 58.0119 161.933 57.7638 161.694 57.4304C161.46 57.0971 161.342 56.6766 161.342 56.1691V47.4872ZM170.015 58.4872C169.228 58.4872 168.536 58.2997 167.942 57.9247C167.351 57.5497 166.889 57.0251 166.555 56.3509C166.226 55.6766 166.061 54.8888 166.061 53.9872C166.061 53.0781 166.226 52.2846 166.555 51.6066C166.889 50.9285 167.351 50.402 167.942 50.027C168.536 49.652 169.228 49.4645 170.015 49.4645C170.803 49.4645 171.493 49.652 172.084 50.027C172.678 50.402 173.14 50.9285 173.47 51.6066C173.803 52.2846 173.97 53.0781 173.97 53.9872C173.97 54.8888 173.803 55.6766 173.47 56.3509C173.14 57.0251 172.678 57.5497 172.084 57.9247C171.493 58.2997 170.803 58.4872 170.015 58.4872ZM170.015 57.2827C170.614 57.2827 171.106 57.1293 171.493 56.8225C171.879 56.5156 172.165 56.1122 172.351 55.6122C172.536 55.1122 172.629 54.5706 172.629 53.9872C172.629 53.4039 172.536 52.8603 172.351 52.3566C172.165 51.8528 171.879 51.4456 171.493 51.135C171.106 50.8244 170.614 50.6691 170.015 50.6691C169.417 50.6691 168.924 50.8244 168.538 51.135C168.152 51.4456 167.866 51.8528 167.68 52.3566C167.495 52.8603 167.402 53.4039 167.402 53.9872C167.402 54.5706 167.495 55.1122 167.68 55.6122C167.866 56.1122 168.152 56.5156 168.538 56.8225C168.924 57.1293 169.417 57.2827 170.015 57.2827ZM35.0815 67.5327L33.8769 67.8736C33.8012 67.6728 33.6894 67.4778 33.5417 67.2884C33.3977 67.0952 33.2008 66.9361 32.9508 66.8111C32.7008 66.6861 32.3807 66.6236 31.9905 66.6236C31.4565 66.6236 31.0114 66.7467 30.6553 66.9929C30.303 67.2353 30.1269 67.5441 30.1269 67.9191C30.1269 68.2524 30.2481 68.5156 30.4905 68.7088C30.733 68.902 31.1118 69.063 31.6269 69.1918L32.9224 69.51C33.7027 69.6994 34.2841 69.9891 34.6667 70.3793C35.0493 70.7656 35.2405 71.2638 35.2405 71.8736C35.2405 72.3736 35.0966 72.8206 34.8087 73.2145C34.5246 73.6085 34.1269 73.9191 33.6155 74.1463C33.1042 74.3736 32.5095 74.4872 31.8315 74.4872C30.9413 74.4872 30.2046 74.2941 29.6212 73.9077C29.0379 73.5213 28.6686 72.9569 28.5133 72.2145L29.786 71.8963C29.9072 72.366 30.1364 72.7183 30.4735 72.9531C30.8144 73.188 31.2595 73.3054 31.8087 73.3054C32.4337 73.3054 32.9299 73.1728 33.2974 72.9077C33.6686 72.6388 33.8542 72.3168 33.8542 71.9418C33.8542 71.6388 33.7481 71.385 33.536 71.1804C33.3239 70.9721 32.9981 70.8168 32.5587 70.7145L31.1042 70.3736C30.3049 70.1842 29.7178 69.8906 29.3428 69.4929C28.9716 69.0914 28.786 68.5895 28.786 67.9872C28.786 67.4948 28.9243 67.0592 29.2008 66.6804C29.4811 66.3016 29.8618 66.0043 30.3428 65.7884C30.8277 65.5725 31.3769 65.4645 31.9905 65.4645C32.8542 65.4645 33.5322 65.6539 34.0246 66.0327C34.5208 66.4115 34.8731 66.9115 35.0815 67.5327ZM42.759 70.7372V65.5781H44.0999V74.3054H42.759V72.8281H42.6681C42.4636 73.2713 42.1454 73.6482 41.7136 73.9588C41.2817 74.2656 40.7363 74.4191 40.0772 74.4191C39.5317 74.4191 39.0469 74.2997 38.6226 74.0611C38.1984 73.8187 37.8651 73.455 37.6226 72.9702C37.3802 72.4816 37.259 71.866 37.259 71.1236V65.5781H38.5999V71.0327C38.5999 71.6691 38.778 72.1766 39.134 72.5554C39.4939 72.9342 39.9522 73.1236 40.509 73.1236C40.8423 73.1236 41.1814 73.0384 41.5261 72.8679C41.8745 72.6975 42.1662 72.4361 42.4011 72.0838C42.6397 71.7316 42.759 71.2827 42.759 70.7372ZM46.5559 74.3054V65.5781H47.8513V66.8963H47.9422C48.1013 66.4645 48.3892 66.1141 48.8059 65.8452C49.2226 65.5763 49.6922 65.4418 50.215 65.4418C50.3135 65.4418 50.4366 65.4437 50.5843 65.4475C50.732 65.4513 50.8438 65.4569 50.9195 65.4645V66.8281C50.8741 66.8168 50.7699 66.7997 50.607 66.777C50.4479 66.7505 50.2794 66.7372 50.1013 66.7372C49.6771 66.7372 49.2983 66.8263 48.965 67.0043C48.6354 67.1785 48.3741 67.4209 48.1809 67.7316C47.9915 68.0384 47.8968 68.3888 47.8968 68.7827V74.3054H46.5559ZM56.9422 65.5781V66.7145H52.2377V65.5781H56.9422ZM53.6468 74.3054V64.3736C53.6468 63.8736 53.7642 63.4569 53.9991 63.1236C54.2339 62.7903 54.5388 62.5403 54.9138 62.3736C55.2888 62.2069 55.6847 62.1236 56.1013 62.1236C56.4309 62.1236 56.6998 62.1501 56.9082 62.2031C57.1165 62.2562 57.2718 62.3054 57.3741 62.3509L56.9877 63.51C56.9195 63.4872 56.8248 63.4588 56.7036 63.4247C56.5862 63.3906 56.4309 63.3736 56.2377 63.3736C55.7945 63.3736 55.4744 63.4853 55.2775 63.7088C55.0843 63.9323 54.9877 64.26 54.9877 64.6918V74.3054H53.6468ZM66.617 74.4872C65.8897 74.4872 65.2476 74.3035 64.6908 73.9361C64.134 73.5649 63.6984 73.0422 63.384 72.3679C63.0696 71.6899 62.9124 70.8888 62.9124 69.9645C62.9124 69.0478 63.0696 68.2524 63.384 67.5781C63.6984 66.9039 64.1359 66.3831 64.6965 66.0156C65.2571 65.6482 65.9048 65.4645 66.6397 65.4645C67.2079 65.4645 67.6567 65.5592 67.9863 65.7486C68.3196 65.9342 68.5734 66.1463 68.7476 66.385C68.9257 66.6198 69.0639 66.813 69.1624 66.9645H69.2761V62.6691H70.617V74.3054H69.3215V72.9645H69.1624C69.0639 73.1236 68.9238 73.3244 68.742 73.5668C68.5601 73.8054 68.3007 74.0194 67.9636 74.2088C67.6264 74.3944 67.1776 74.4872 66.617 74.4872ZM66.7988 73.2827C67.3367 73.2827 67.7912 73.1425 68.1624 72.8622C68.5336 72.5781 68.8158 72.1861 69.009 71.6861C69.2022 71.1823 69.2988 70.6009 69.2988 69.9418C69.2988 69.2903 69.2041 68.7202 69.0147 68.2316C68.8253 67.7391 68.545 67.3566 68.1738 67.0838C67.8026 66.8073 67.3442 66.6691 66.7988 66.6691C66.2306 66.6691 65.7571 66.8149 65.3783 67.1066C65.0033 67.3944 64.7211 67.7865 64.5317 68.2827C64.3461 68.7751 64.2533 69.3281 64.2533 69.9418C64.2533 70.563 64.348 71.1274 64.5374 71.635C64.7306 72.1388 65.0147 72.5403 65.3897 72.8395C65.7685 73.135 66.2382 73.2827 66.7988 73.2827ZM76.9181 74.4872C76.0772 74.4872 75.3518 74.3016 74.742 73.9304C74.1359 73.5554 73.6681 73.0327 73.3386 72.3622C73.0128 71.688 72.8499 70.9039 72.8499 70.01C72.8499 69.116 73.0128 68.3281 73.3386 67.6463C73.6681 66.9607 74.1264 66.4266 74.7136 66.0441C75.3045 65.6577 75.9939 65.4645 76.7817 65.4645C77.2363 65.4645 77.6851 65.5403 78.1283 65.6918C78.5715 65.8433 78.9749 66.0895 79.3386 66.4304C79.7022 66.7675 79.992 67.2145 80.2079 67.7713C80.4238 68.3281 80.5317 69.0138 80.5317 69.8281V70.3963H73.8045V69.2372H79.1681C79.1681 68.7448 79.0696 68.3054 78.8726 67.9191C78.6795 67.5327 78.403 67.2278 78.0431 67.0043C77.687 66.7808 77.2666 66.6691 76.7817 66.6691C76.2476 66.6691 75.7855 66.8016 75.3954 67.0668C75.009 67.3281 74.7117 67.6691 74.5033 68.0895C74.295 68.51 74.1908 68.9607 74.1908 69.4418V70.2145C74.1908 70.8736 74.3045 71.4323 74.5317 71.8906C74.7628 72.3452 75.0829 72.6918 75.492 72.9304C75.9011 73.1653 76.3764 73.2827 76.9181 73.2827C77.2704 73.2827 77.5886 73.2335 77.8726 73.135C78.1605 73.0327 78.4086 72.8812 78.617 72.6804C78.8253 72.4759 78.9863 72.2221 79.0999 71.9191L80.3954 72.2827C80.259 72.7221 80.0298 73.1085 79.7079 73.4418C79.3859 73.7713 78.9882 74.0289 78.5147 74.2145C78.0412 74.3963 77.509 74.4872 76.9181 74.4872ZM86.2306 74.4872C85.3897 74.4872 84.6643 74.3016 84.0545 73.9304C83.4484 73.5554 82.9806 73.0327 82.6511 72.3622C82.3253 71.688 82.1624 70.9039 82.1624 70.01C82.1624 69.116 82.3253 68.3281 82.6511 67.6463C82.9806 66.9607 83.4389 66.4266 84.0261 66.0441C84.617 65.6577 85.3064 65.4645 86.0942 65.4645C86.5488 65.4645 86.9976 65.5403 87.4408 65.6918C87.884 65.8433 88.2874 66.0895 88.6511 66.4304C89.0147 66.7675 89.3045 67.2145 89.5204 67.7713C89.7363 68.3281 89.8442 69.0138 89.8442 69.8281V70.3963H83.117V69.2372H88.4806C88.4806 68.7448 88.3821 68.3054 88.1851 67.9191C87.992 67.5327 87.7155 67.2278 87.3556 67.0043C86.9995 66.7808 86.5791 66.6691 86.0942 66.6691C85.5601 66.6691 85.098 66.8016 84.7079 67.0668C84.3215 67.3281 84.0242 67.6691 83.8158 68.0895C83.6075 68.51 83.5033 68.9607 83.5033 69.4418V70.2145C83.5033 70.8736 83.617 71.4323 83.8442 71.8906C84.0753 72.3452 84.3954 72.6918 84.8045 72.9304C85.2136 73.1653 85.6889 73.2827 86.2306 73.2827C86.5829 73.2827 86.9011 73.2335 87.1851 73.135C87.473 73.0327 87.7211 72.8812 87.9295 72.6804C88.1378 72.4759 88.2988 72.2221 88.4124 71.9191L89.7079 72.2827C89.5715 72.7221 89.3423 73.1085 89.0204 73.4418C88.6984 73.7713 88.3007 74.0289 87.8272 74.2145C87.3537 74.3963 86.8215 74.4872 86.2306 74.4872ZM91.884 77.5781V65.5781H93.1795V66.9645H93.3386C93.437 66.813 93.5734 66.6198 93.7476 66.385C93.9257 66.1463 94.1795 65.9342 94.509 65.7486C94.8423 65.5592 95.2931 65.4645 95.8613 65.4645C96.5961 65.4645 97.2439 65.6482 97.8045 66.0156C98.3651 66.3831 98.8026 66.9039 99.117 67.5781C99.4314 68.2524 99.5886 69.0478 99.5886 69.9645C99.5886 70.8888 99.4314 71.6899 99.117 72.3679C98.8026 73.0422 98.367 73.5649 97.8101 73.9361C97.2533 74.3035 96.6113 74.4872 95.884 74.4872C95.3234 74.4872 94.8745 74.3944 94.5374 74.2088C94.2003 74.0194 93.9408 73.8054 93.759 73.5668C93.5772 73.3244 93.437 73.1236 93.3386 72.9645H93.2249V77.5781H91.884ZM93.2022 69.9418C93.2022 70.6009 93.2988 71.1823 93.492 71.6861C93.6851 72.1861 93.9673 72.5781 94.3386 72.8622C94.7098 73.1425 95.1643 73.2827 95.7022 73.2827C96.2628 73.2827 96.7306 73.135 97.1056 72.8395C97.4844 72.5403 97.7685 72.1388 97.9579 71.635C98.1511 71.1274 98.2476 70.563 98.2476 69.9418C98.2476 69.3281 98.153 68.7751 97.9636 68.2827C97.778 67.7865 97.4958 67.3944 97.117 67.1066C96.742 66.8149 96.2704 66.6691 95.7022 66.6691C95.1567 66.6691 94.6984 66.8073 94.3272 67.0838C93.956 67.3566 93.6757 67.7391 93.4863 68.2316C93.2969 68.7202 93.2022 69.2903 93.2022 69.9418ZM110.02 65.5781V66.7145H105.316V65.5781H110.02ZM106.725 74.3054V64.3736C106.725 63.8736 106.842 63.4569 107.077 63.1236C107.312 62.7903 107.617 62.5403 107.992 62.3736C108.367 62.2069 108.763 62.1236 109.179 62.1236C109.509 62.1236 109.778 62.1501 109.986 62.2031C110.195 62.2562 110.35 62.3054 110.452 62.3509L110.066 63.51C109.998 63.4872 109.903 63.4588 109.782 63.4247C109.664 63.3906 109.509 63.3736 109.316 63.3736C108.873 63.3736 108.553 63.4853 108.356 63.7088C108.162 63.9323 108.066 64.26 108.066 64.6918V74.3054H106.725ZM115.086 74.4872C114.298 74.4872 113.607 74.2997 113.012 73.9247C112.421 73.5497 111.959 73.0251 111.625 72.3509C111.296 71.6766 111.131 70.8888 111.131 69.9872C111.131 69.0781 111.296 68.2846 111.625 67.6066C111.959 66.9285 112.421 66.402 113.012 66.027C113.607 65.652 114.298 65.4645 115.086 65.4645C115.874 65.4645 116.563 65.652 117.154 66.027C117.749 66.402 118.211 66.9285 118.54 67.6066C118.874 68.2846 119.04 69.0781 119.04 69.9872C119.04 70.8888 118.874 71.6766 118.54 72.3509C118.211 73.0251 117.749 73.5497 117.154 73.9247C116.563 74.2997 115.874 74.4872 115.086 74.4872ZM115.086 73.2827C115.684 73.2827 116.177 73.1293 116.563 72.8225C116.949 72.5156 117.235 72.1122 117.421 71.6122C117.607 71.1122 117.699 70.5706 117.699 69.9872C117.699 69.4039 117.607 68.8603 117.421 68.3566C117.235 67.8528 116.949 67.4456 116.563 67.135C116.177 66.8244 115.684 66.6691 115.086 66.6691C114.487 66.6691 113.995 66.8244 113.608 67.135C113.222 67.4456 112.936 67.8528 112.75 68.3566C112.565 68.8603 112.472 69.4039 112.472 69.9872C112.472 70.5706 112.565 71.1122 112.75 71.6122C112.936 72.1122 113.222 72.5156 113.608 72.8225C113.995 73.1293 114.487 73.2827 115.086 73.2827ZM121.087 74.3054V65.5781H122.383V66.8963H122.473C122.633 66.4645 122.92 66.1141 123.337 65.8452C123.754 65.5763 124.223 65.4418 124.746 65.4418C124.845 65.4418 124.968 65.4437 125.116 65.4475C125.263 65.4513 125.375 65.4569 125.451 65.4645V66.8281C125.405 66.8168 125.301 66.7997 125.138 66.777C124.979 66.7505 124.811 66.7372 124.633 66.7372C124.208 66.7372 123.83 66.8263 123.496 67.0043C123.167 67.1785 122.905 67.4209 122.712 67.7316C122.523 68.0384 122.428 68.3888 122.428 68.7827V74.3054H121.087ZM133.518 74.3054L130.858 65.5781H132.268L134.154 72.26H134.245L136.108 65.5781H137.54L139.381 72.2372H139.472L141.358 65.5781H142.768L140.108 74.3054H138.79L136.881 67.6009H136.745L134.836 74.3054H133.518ZM147.789 74.4872C147.001 74.4872 146.31 74.2997 145.715 73.9247C145.124 73.5497 144.662 73.0251 144.329 72.3509C143.999 71.6766 143.834 70.8888 143.834 69.9872C143.834 69.0781 143.999 68.2846 144.329 67.6066C144.662 66.9285 145.124 66.402 145.715 66.027C146.31 65.652 147.001 65.4645 147.789 65.4645C148.577 65.4645 149.266 65.652 149.857 66.027C150.452 66.402 150.914 66.9285 151.243 67.6066C151.577 68.2846 151.743 69.0781 151.743 69.9872C151.743 70.8888 151.577 71.6766 151.243 72.3509C150.914 73.0251 150.452 73.5497 149.857 73.9247C149.266 74.2997 148.577 74.4872 147.789 74.4872ZM147.789 73.2827C148.387 73.2827 148.88 73.1293 149.266 72.8225C149.652 72.5156 149.938 72.1122 150.124 71.6122C150.31 71.1122 150.402 70.5706 150.402 69.9872C150.402 69.4039 150.31 68.8603 150.124 68.3566C149.938 67.8528 149.652 67.4456 149.266 67.135C148.88 66.8244 148.387 66.6691 147.789 66.6691C147.19 66.6691 146.698 66.8244 146.312 67.135C145.925 67.4456 145.639 67.8528 145.454 68.3566C145.268 68.8603 145.175 69.4039 145.175 69.9872C145.175 70.5706 145.268 71.1122 145.454 71.6122C145.639 72.1122 145.925 72.5156 146.312 72.8225C146.698 73.1293 147.19 73.2827 147.789 73.2827ZM153.79 74.3054V65.5781H155.086V66.8963H155.177C155.336 66.4645 155.624 66.1141 156.04 65.8452C156.457 65.5763 156.927 65.4418 157.449 65.4418C157.548 65.4418 157.671 65.4437 157.819 65.4475C157.966 65.4513 158.078 65.4569 158.154 65.4645V66.8281C158.108 66.8168 158.004 66.7997 157.841 66.777C157.682 66.7505 157.514 66.7372 157.336 66.7372C156.911 66.7372 156.533 66.8263 156.199 67.0043C155.87 67.1785 155.608 67.4209 155.415 67.7316C155.226 68.0384 155.131 68.3888 155.131 68.7827V74.3054H153.79ZM160.993 71.1236L160.971 69.4645H161.243L165.062 65.5781H166.721L162.652 69.6918H162.539L160.993 71.1236ZM159.743 74.3054V62.6691H161.084V74.3054H159.743ZM165.289 74.3054L161.88 69.9872L162.834 69.0554L166.993 74.3054H165.289ZM171.633 74.4872C170.845 74.4872 170.153 74.2997 169.559 73.9247C168.968 73.5497 168.506 73.0251 168.172 72.3509C167.843 71.6766 167.678 70.8888 167.678 69.9872C167.678 69.0781 167.843 68.2846 168.172 67.6066C168.506 66.9285 168.968 66.402 169.559 66.027C170.153 65.652 170.845 65.4645 171.633 65.4645C172.42 65.4645 173.11 65.652 173.701 66.027C174.295 66.402 174.758 66.9285 175.087 67.6066C175.42 68.2846 175.587 69.0781 175.587 69.9872C175.587 70.8888 175.42 71.6766 175.087 72.3509C174.758 73.0251 174.295 73.5497 173.701 73.9247C173.11 74.2997 172.42 74.4872 171.633 74.4872ZM171.633 73.2827C172.231 73.2827 172.723 73.1293 173.11 72.8225C173.496 72.5156 173.782 72.1122 173.968 71.6122C174.153 71.1122 174.246 70.5706 174.246 69.9872C174.246 69.4039 174.153 68.8603 173.968 68.3566C173.782 67.8528 173.496 67.4456 173.11 67.135C172.723 66.8244 172.231 66.6691 171.633 66.6691C171.034 66.6691 170.542 66.8244 170.155 67.135C169.769 67.4456 169.483 67.8528 169.297 68.3566C169.112 68.8603 169.019 69.4039 169.019 69.9872C169.019 70.5706 169.112 71.1122 169.297 71.6122C169.483 72.1122 169.769 72.5156 170.155 72.8225C170.542 73.1293 171.034 73.2827 171.633 73.2827ZM183.134 70.7372V65.5781H184.475V74.3054H183.134V72.8281H183.043C182.839 73.2713 182.52 73.6482 182.089 73.9588C181.657 74.2656 181.111 74.4191 180.452 74.4191C179.907 74.4191 179.422 74.2997 178.998 74.0611C178.573 73.8187 178.24 73.455 177.998 72.9702C177.755 72.4816 177.634 71.866 177.634 71.1236V65.5781H178.975V71.0327C178.975 71.6691 179.153 72.1766 179.509 72.5554C179.869 72.9342 180.327 73.1236 180.884 73.1236C181.217 73.1236 181.556 73.0384 181.901 72.8679C182.25 72.6975 182.541 72.4361 182.776 72.0838C183.015 71.7316 183.134 71.2827 183.134 70.7372ZM190.726 65.5781V66.7145H186.204V65.5781H190.726ZM187.522 63.4872H188.863V71.8054C188.863 72.1842 188.918 72.4683 189.027 72.6577C189.141 72.8433 189.285 72.9683 189.459 73.0327C189.637 73.0933 189.825 73.1236 190.022 73.1236C190.17 73.1236 190.291 73.116 190.385 73.1009C190.48 73.0819 190.556 73.0668 190.613 73.0554L190.885 74.26C190.795 74.2941 190.668 74.3281 190.505 74.3622C190.342 74.4001 190.135 74.4191 189.885 74.4191C189.507 74.4191 189.135 74.3376 188.772 74.1747C188.412 74.0119 188.113 73.7638 187.874 73.4304C187.639 73.0971 187.522 72.6766 187.522 72.1691V63.4872ZM198.769 67.5327L197.564 67.8736C197.489 67.6728 197.377 67.4778 197.229 67.2884C197.085 67.0952 196.888 66.9361 196.638 66.8111C196.388 66.6861 196.068 66.6236 195.678 66.6236C195.144 66.6236 194.699 66.7467 194.343 66.9929C193.991 67.2353 193.814 67.5441 193.814 67.9191C193.814 68.2524 193.936 68.5156 194.178 68.7088C194.42 68.902 194.799 69.063 195.314 69.1918L196.61 69.51C197.39 69.6994 197.972 69.9891 198.354 70.3793C198.737 70.7656 198.928 71.2638 198.928 71.8736C198.928 72.3736 198.784 72.8206 198.496 73.2145C198.212 73.6085 197.814 73.9191 197.303 74.1463C196.792 74.3736 196.197 74.4872 195.519 74.4872C194.629 74.4872 193.892 74.2941 193.309 73.9077C192.725 73.5213 192.356 72.9569 192.201 72.2145L193.473 71.8963C193.595 72.366 193.824 72.7183 194.161 72.9531C194.502 73.188 194.947 73.3054 195.496 73.3054C196.121 73.3054 196.617 73.1728 196.985 72.9077C197.356 72.6388 197.542 72.3168 197.542 71.9418C197.542 71.6388 197.436 71.385 197.223 71.1804C197.011 70.9721 196.686 70.8168 196.246 70.7145L194.792 70.3736C193.992 70.1842 193.405 69.8906 193.03 69.4929C192.659 69.0914 192.473 68.5895 192.473 67.9872C192.473 67.4948 192.612 67.0592 192.888 66.6804C193.169 66.3016 193.549 66.0043 194.03 65.7884C194.515 65.5725 195.064 65.4645 195.678 65.4645C196.542 65.4645 197.22 65.6539 197.712 66.0327C198.208 66.4115 198.561 66.9115 198.769 67.5327Z" fill="black"/>
<rect x="256.695" y="1.95459" width="224" height="116.702" rx="58.3509" fill="#EEF4FE" stroke="black" stroke-width="2"/>
<path d="M324.136 46.6691H325.817L329.772 56.3281H329.908L333.863 46.6691H335.545V58.3054H334.227V49.4645H334.113L330.477 58.3054H329.204L325.567 49.4645H325.454V58.3054H324.136V46.6691ZM340.756 58.51C340.203 58.51 339.701 58.4058 339.251 58.1975C338.8 57.9853 338.442 57.6804 338.177 57.2827C337.912 56.8812 337.779 56.3963 337.779 55.8281C337.779 55.3281 337.878 54.9228 338.075 54.6122C338.272 54.2978 338.535 54.0516 338.864 53.8736C339.194 53.6956 339.558 53.563 339.955 53.4759C340.357 53.385 340.76 53.313 341.165 53.26C341.696 53.1918 342.126 53.1406 342.455 53.1066C342.789 53.0687 343.031 53.0062 343.183 52.9191C343.338 52.8319 343.415 52.6804 343.415 52.4645V52.4191C343.415 51.8584 343.262 51.4228 342.955 51.1122C342.652 50.8016 342.192 50.6463 341.575 50.6463C340.934 50.6463 340.433 50.7865 340.069 51.0668C339.705 51.3471 339.45 51.6463 339.302 51.9645L338.029 51.51C338.256 50.9797 338.559 50.5668 338.938 50.2713C339.321 49.9721 339.737 49.7638 340.188 49.6463C340.643 49.5251 341.09 49.4645 341.529 49.4645C341.809 49.4645 342.131 49.4986 342.495 49.5668C342.862 49.6312 343.217 49.7656 343.558 49.9702C343.902 50.1747 344.188 50.4835 344.415 50.8963C344.643 51.3092 344.756 51.8622 344.756 52.5554V58.3054H343.415V57.1236H343.347C343.256 57.313 343.105 57.5156 342.893 57.7316C342.681 57.9475 342.398 58.1312 342.046 58.2827C341.694 58.4342 341.264 58.51 340.756 58.51ZM340.961 57.3054C341.491 57.3054 341.938 57.2013 342.302 56.9929C342.669 56.7846 342.946 56.5156 343.131 56.1861C343.321 55.8566 343.415 55.51 343.415 55.1463V53.9191C343.359 53.9872 343.234 54.0497 343.04 54.1066C342.851 54.1596 342.631 54.2069 342.381 54.2486C342.135 54.2865 341.895 54.3206 341.66 54.3509C341.429 54.3774 341.241 54.4001 341.097 54.4191C340.749 54.4645 340.423 54.5384 340.12 54.6406C339.821 54.7391 339.578 54.8888 339.393 55.0895C339.211 55.2865 339.12 55.5554 339.12 55.8963C339.12 56.3622 339.292 56.7145 339.637 56.9531C339.986 57.188 340.427 57.3054 340.961 57.3054ZM348.454 55.1236L348.431 53.4645H348.704L352.522 49.5781H354.181L350.113 53.6918H349.999L348.454 55.1236ZM347.204 58.3054V46.6691H348.545V58.3054H347.204ZM352.749 58.3054L349.34 53.9872L350.295 53.0554L354.454 58.3054H352.749ZM359.207 58.4872C358.366 58.4872 357.64 58.3016 357.031 57.9304C356.424 57.5554 355.957 57.0327 355.627 56.3622C355.301 55.688 355.138 54.9039 355.138 54.01C355.138 53.116 355.301 52.3281 355.627 51.6463C355.957 50.9607 356.415 50.4266 357.002 50.0441C357.593 49.6577 358.282 49.4645 359.07 49.4645C359.525 49.4645 359.974 49.5403 360.417 49.6918C360.86 49.8433 361.263 50.0895 361.627 50.4304C361.991 50.7675 362.281 51.2145 362.496 51.7713C362.712 52.3281 362.82 53.0138 362.82 53.8281V54.3963H356.093V53.2372H361.457C361.457 52.7448 361.358 52.3054 361.161 51.9191C360.968 51.5327 360.692 51.2278 360.332 51.0043C359.976 50.7808 359.555 50.6691 359.07 50.6691C358.536 50.6691 358.074 50.8016 357.684 51.0668C357.298 51.3281 357 51.6691 356.792 52.0895C356.584 52.51 356.479 52.9607 356.479 53.4418V54.2145C356.479 54.8736 356.593 55.4323 356.82 55.8906C357.051 56.3452 357.371 56.6918 357.781 56.9304C358.19 57.1653 358.665 57.2827 359.207 57.2827C359.559 57.2827 359.877 57.2335 360.161 57.135C360.449 57.0327 360.697 56.8812 360.906 56.6804C361.114 56.4759 361.275 56.2221 361.388 55.9191L362.684 56.2827C362.548 56.7221 362.318 57.1085 361.996 57.4418C361.674 57.7713 361.277 58.0289 360.803 58.2145C360.33 58.3963 359.798 58.4872 359.207 58.4872ZM371.928 58.51C371.375 58.51 370.873 58.4058 370.423 58.1975C369.972 57.9853 369.614 57.6804 369.349 57.2827C369.084 56.8812 368.951 56.3963 368.951 55.8281C368.951 55.3281 369.049 54.9228 369.246 54.6122C369.443 54.2978 369.707 54.0516 370.036 53.8736C370.366 53.6956 370.729 53.563 371.127 53.4759C371.529 53.385 371.932 53.313 372.337 53.26C372.868 53.1918 373.298 53.1406 373.627 53.1066C373.96 53.0687 374.203 53.0062 374.354 52.9191C374.51 52.8319 374.587 52.6804 374.587 52.4645V52.4191C374.587 51.8584 374.434 51.4228 374.127 51.1122C373.824 50.8016 373.364 50.6463 372.746 50.6463C372.106 50.6463 371.604 50.7865 371.241 51.0668C370.877 51.3471 370.621 51.6463 370.474 51.9645L369.201 51.51C369.428 50.9797 369.731 50.5668 370.11 50.2713C370.493 49.9721 370.909 49.7638 371.36 49.6463C371.815 49.5251 372.262 49.4645 372.701 49.4645C372.981 49.4645 373.303 49.4986 373.667 49.5668C374.034 49.6312 374.388 49.7656 374.729 49.9702C375.074 50.1747 375.36 50.4835 375.587 50.8963C375.815 51.3092 375.928 51.8622 375.928 52.5554V58.3054H374.587V57.1236H374.519C374.428 57.313 374.277 57.5156 374.065 57.7316C373.853 57.9475 373.57 58.1312 373.218 58.2827C372.866 58.4342 372.436 58.51 371.928 58.51ZM372.133 57.3054C372.663 57.3054 373.11 57.2013 373.474 56.9929C373.841 56.7846 374.118 56.5156 374.303 56.1861C374.493 55.8566 374.587 55.51 374.587 55.1463V53.9191C374.531 53.9872 374.406 54.0497 374.212 54.1066C374.023 54.1596 373.803 54.2069 373.553 54.2486C373.307 54.2865 373.067 54.3206 372.832 54.3509C372.601 54.3774 372.413 54.4001 372.269 54.4191C371.921 54.4645 371.595 54.5384 371.292 54.6406C370.993 54.7391 370.75 54.8888 370.565 55.0895C370.383 55.2865 370.292 55.5554 370.292 55.8963C370.292 56.3622 370.464 56.7145 370.809 56.9531C371.157 57.188 371.599 57.3054 372.133 57.3054ZM378.376 61.5781V49.5781H379.671V50.9645H379.83C379.929 50.813 380.065 50.6198 380.239 50.385C380.417 50.1463 380.671 49.9342 381.001 49.7486C381.334 49.5592 381.785 49.4645 382.353 49.4645C383.088 49.4645 383.736 49.6482 384.296 50.0156C384.857 50.3831 385.294 50.9039 385.609 51.5781C385.923 52.2524 386.08 53.0478 386.08 53.9645C386.08 54.8888 385.923 55.6899 385.609 56.3679C385.294 57.0422 384.859 57.5649 384.302 57.9361C383.745 58.3035 383.103 58.4872 382.376 58.4872C381.815 58.4872 381.366 58.3944 381.029 58.2088C380.692 58.0194 380.433 57.8054 380.251 57.5668C380.069 57.3244 379.929 57.1236 379.83 56.9645H379.717V61.5781H378.376ZM379.694 53.9418C379.694 54.6009 379.79 55.1823 379.984 55.6861C380.177 56.1861 380.459 56.5781 380.83 56.8622C381.201 57.1425 381.656 57.2827 382.194 57.2827C382.754 57.2827 383.222 57.135 383.597 56.8395C383.976 56.5403 384.26 56.1388 384.45 55.635C384.643 55.1274 384.739 54.563 384.739 53.9418C384.739 53.3281 384.645 52.7751 384.455 52.2827C384.27 51.7865 383.987 51.3944 383.609 51.1066C383.234 50.8149 382.762 50.6691 382.194 50.6691C381.648 50.6691 381.19 50.8073 380.819 51.0838C380.448 51.3566 380.167 51.7391 379.978 52.2316C379.789 52.7202 379.694 53.2903 379.694 53.9418ZM388.126 61.5781V49.5781H389.421V50.9645H389.58C389.679 50.813 389.815 50.6198 389.989 50.385C390.167 50.1463 390.421 49.9342 390.751 49.7486C391.084 49.5592 391.535 49.4645 392.103 49.4645C392.838 49.4645 393.486 49.6482 394.046 50.0156C394.607 50.3831 395.044 50.9039 395.359 51.5781C395.673 52.2524 395.83 53.0478 395.83 53.9645C395.83 54.8888 395.673 55.6899 395.359 56.3679C395.044 57.0422 394.609 57.5649 394.052 57.9361C393.495 58.3035 392.853 58.4872 392.126 58.4872C391.565 58.4872 391.116 58.3944 390.779 58.2088C390.442 58.0194 390.183 57.8054 390.001 57.5668C389.819 57.3244 389.679 57.1236 389.58 56.9645H389.467V61.5781H388.126ZM389.444 53.9418C389.444 54.6009 389.54 55.1823 389.734 55.6861C389.927 56.1861 390.209 56.5781 390.58 56.8622C390.951 57.1425 391.406 57.2827 391.944 57.2827C392.504 57.2827 392.972 57.135 393.347 56.8395C393.726 56.5403 394.01 56.1388 394.2 55.635C394.393 55.1274 394.489 54.563 394.489 53.9418C394.489 53.3281 394.395 52.7751 394.205 52.2827C394.02 51.7865 393.737 51.3944 393.359 51.1066C392.984 50.8149 392.512 50.6691 391.944 50.6691C391.398 50.6691 390.94 50.8073 390.569 51.0838C390.198 51.3566 389.917 51.7391 389.728 52.2316C389.539 52.7202 389.444 53.2903 389.444 53.9418ZM404.944 58.51C404.391 58.51 403.889 58.4058 403.438 58.1975C402.987 57.9853 402.629 57.6804 402.364 57.2827C402.099 56.8812 401.967 56.3963 401.967 55.8281C401.967 55.3281 402.065 54.9228 402.262 54.6122C402.459 54.2978 402.722 54.0516 403.052 53.8736C403.381 53.6956 403.745 53.563 404.143 53.4759C404.544 53.385 404.948 53.313 405.353 53.26C405.883 53.1918 406.313 53.1406 406.643 53.1066C406.976 53.0687 407.219 53.0062 407.37 52.9191C407.525 52.8319 407.603 52.6804 407.603 52.4645V52.4191C407.603 51.8584 407.45 51.4228 407.143 51.1122C406.84 50.8016 406.379 50.6463 405.762 50.6463C405.122 50.6463 404.62 50.7865 404.256 51.0668C403.893 51.3471 403.637 51.6463 403.489 51.9645L402.217 51.51C402.444 50.9797 402.747 50.5668 403.126 50.2713C403.508 49.9721 403.925 49.7638 404.376 49.6463C404.83 49.5251 405.277 49.4645 405.717 49.4645C405.997 49.4645 406.319 49.4986 406.683 49.5668C407.05 49.6312 407.404 49.7656 407.745 49.9702C408.09 50.1747 408.376 50.4835 408.603 50.8963C408.83 51.3092 408.944 51.8622 408.944 52.5554V58.3054H407.603V57.1236H407.535C407.444 57.313 407.292 57.5156 407.08 57.7316C406.868 57.9475 406.586 58.1312 406.234 58.2827C405.881 58.4342 405.451 58.51 404.944 58.51ZM405.148 57.3054C405.679 57.3054 406.126 57.2013 406.489 56.9929C406.857 56.7846 407.133 56.5156 407.319 56.1861C407.508 55.8566 407.603 55.51 407.603 55.1463V53.9191C407.546 53.9872 407.421 54.0497 407.228 54.1066C407.039 54.1596 406.819 54.2069 406.569 54.2486C406.323 54.2865 406.082 54.3206 405.847 54.3509C405.616 54.3774 405.429 54.4001 405.285 54.4191C404.936 54.4645 404.611 54.5384 404.308 54.6406C404.008 54.7391 403.766 54.8888 403.58 55.0895C403.398 55.2865 403.308 55.5554 403.308 55.8963C403.308 56.3622 403.48 56.7145 403.825 56.9531C404.173 57.188 404.614 57.3054 405.148 57.3054ZM316.006 69.0554V74.3054H314.665V62.6691H316.006V66.9418H316.119C316.324 66.491 316.631 66.1331 317.04 65.8679C317.453 65.599 318.002 65.4645 318.688 65.4645C319.282 65.4645 319.803 65.5838 320.25 65.8225C320.697 66.0573 321.044 66.4191 321.29 66.9077C321.54 67.3925 321.665 68.01 321.665 68.76V74.3054H320.324V68.8509C320.324 68.1577 320.144 67.6217 319.784 67.2429C319.428 66.8603 318.934 66.6691 318.301 66.6691C317.862 66.6691 317.468 66.7619 317.119 66.9475C316.775 67.1331 316.502 67.4039 316.301 67.76C316.104 68.116 316.006 68.5478 316.006 69.0554ZM327.777 74.4872C326.936 74.4872 326.211 74.3016 325.601 73.9304C324.995 73.5554 324.527 73.0327 324.197 72.3622C323.872 71.688 323.709 70.9039 323.709 70.01C323.709 69.116 323.872 68.3281 324.197 67.6463C324.527 66.9607 324.985 66.4266 325.572 66.0441C326.163 65.6577 326.853 65.4645 327.641 65.4645C328.095 65.4645 328.544 65.5403 328.987 65.6918C329.43 65.8433 329.834 66.0895 330.197 66.4304C330.561 66.7675 330.851 67.2145 331.067 67.7713C331.283 68.3281 331.391 69.0138 331.391 69.8281V70.3963H324.663V69.2372H330.027C330.027 68.7448 329.929 68.3054 329.732 67.9191C329.538 67.5327 329.262 67.2278 328.902 67.0043C328.546 66.7808 328.125 66.6691 327.641 66.6691C327.107 66.6691 326.644 66.8016 326.254 67.0668C325.868 67.3281 325.571 67.6691 325.362 68.0895C325.154 68.51 325.05 68.9607 325.05 69.4418V70.2145C325.05 70.8736 325.163 71.4323 325.391 71.8906C325.622 72.3452 325.942 72.6918 326.351 72.9304C326.76 73.1653 327.235 73.2827 327.777 73.2827C328.129 73.2827 328.447 73.2335 328.732 73.135C329.019 73.0327 329.268 72.8812 329.476 72.6804C329.684 72.4759 329.845 72.2221 329.959 71.9191L331.254 72.2827C331.118 72.7221 330.889 73.1085 330.567 73.4418C330.245 73.7713 329.847 74.0289 329.374 74.2145C328.9 74.3963 328.368 74.4872 327.777 74.4872ZM334.771 62.6691V74.3054H333.43V62.6691H334.771ZM337.227 77.5781V65.5781H338.523V66.9645H338.682C338.78 66.813 338.917 66.6198 339.091 66.385C339.269 66.1463 339.523 65.9342 339.852 65.7486C340.186 65.5592 340.636 65.4645 341.205 65.4645C341.939 65.4645 342.587 65.6482 343.148 66.0156C343.708 66.3831 344.146 66.9039 344.46 67.5781C344.775 68.2524 344.932 69.0478 344.932 69.9645C344.932 70.8888 344.775 71.6899 344.46 72.3679C344.146 73.0422 343.71 73.5649 343.153 73.9361C342.597 74.3035 341.955 74.4872 341.227 74.4872C340.667 74.4872 340.218 74.3944 339.881 74.2088C339.544 74.0194 339.284 73.8054 339.102 73.5668C338.92 73.3244 338.78 73.1236 338.682 72.9645H338.568V77.5781H337.227ZM338.545 69.9418C338.545 70.6009 338.642 71.1823 338.835 71.6861C339.028 72.1861 339.311 72.5781 339.682 72.8622C340.053 73.1425 340.508 73.2827 341.045 73.2827C341.606 73.2827 342.074 73.135 342.449 72.8395C342.828 72.5403 343.112 72.1388 343.301 71.635C343.494 71.1274 343.591 70.563 343.591 69.9418C343.591 69.3281 343.496 68.7751 343.307 68.2827C343.121 67.7865 342.839 67.3944 342.46 67.1066C342.085 66.8149 341.614 66.6691 341.045 66.6691C340.5 66.6691 340.042 66.8073 339.67 67.0838C339.299 67.3566 339.019 67.7391 338.83 68.2316C338.64 68.7202 338.545 69.2903 338.545 69.9418ZM350.864 65.5781V66.7145H346.159V65.5781H350.864ZM347.568 74.3054V64.3736C347.568 63.8736 347.686 63.4569 347.92 63.1236C348.155 62.7903 348.46 62.5403 348.835 62.3736C349.21 62.2069 349.606 62.1236 350.023 62.1236C350.352 62.1236 350.621 62.1501 350.83 62.2031C351.038 62.2562 351.193 62.3054 351.295 62.3509L350.909 63.51C350.841 63.4872 350.746 63.4588 350.625 63.4247C350.508 63.3906 350.352 63.3736 350.159 63.3736C349.716 63.3736 349.396 63.4853 349.199 63.7088C349.006 63.9323 348.909 64.26 348.909 64.6918V74.3054H347.568ZM358.243 70.7372V65.5781H359.584V74.3054H358.243V72.8281H358.152C357.947 73.2713 357.629 73.6482 357.197 73.9588C356.766 74.2656 356.22 74.4191 355.561 74.4191C355.016 74.4191 354.531 74.2997 354.107 74.0611C353.682 73.8187 353.349 73.455 353.107 72.9702C352.864 72.4816 352.743 71.866 352.743 71.1236V65.5781H354.084V71.0327C354.084 71.6691 354.262 72.1766 354.618 72.5554C354.978 72.9342 355.436 73.1236 355.993 73.1236C356.326 73.1236 356.665 73.0384 357.01 72.8679C357.358 72.6975 357.65 72.4361 357.885 72.0838C358.124 71.7316 358.243 71.2827 358.243 70.7372ZM363.381 62.6691V74.3054H362.04V62.6691H363.381ZM376.518 67.5327L375.314 67.8736C375.238 67.6728 375.126 67.4778 374.979 67.2884C374.835 67.0952 374.638 66.9361 374.388 66.8111C374.138 66.6861 373.818 66.6236 373.428 66.6236C372.893 66.6236 372.448 66.7467 372.092 66.9929C371.74 67.2353 371.564 67.5441 371.564 67.9191C371.564 68.2524 371.685 68.5156 371.928 68.7088C372.17 68.902 372.549 69.063 373.064 69.1918L374.359 69.51C375.14 69.6994 375.721 69.9891 376.104 70.3793C376.486 70.7656 376.678 71.2638 376.678 71.8736C376.678 72.3736 376.534 72.8206 376.246 73.2145C375.962 73.6085 375.564 73.9191 375.053 74.1463C374.541 74.3736 373.946 74.4872 373.268 74.4872C372.378 74.4872 371.642 74.2941 371.058 73.9077C370.475 73.5213 370.106 72.9569 369.95 72.2145L371.223 71.8963C371.344 72.366 371.573 72.7183 371.911 72.9531C372.251 73.188 372.696 73.3054 373.246 73.3054C373.871 73.3054 374.367 73.1728 374.734 72.9077C375.106 72.6388 375.291 72.3168 375.291 71.9418C375.291 71.6388 375.185 71.385 374.973 71.1804C374.761 70.9721 374.435 70.8168 373.996 70.7145L372.541 70.3736C371.742 70.1842 371.155 69.8906 370.78 69.4929C370.409 69.0914 370.223 68.5895 370.223 67.9872C370.223 67.4948 370.361 67.0592 370.638 66.6804C370.918 66.3016 371.299 66.0043 371.78 65.7884C372.265 65.5725 372.814 65.4645 373.428 65.4645C374.291 65.4645 374.969 65.6539 375.462 66.0327C375.958 66.4115 376.31 66.9115 376.518 67.5327ZM382.355 74.4872C381.514 74.4872 380.789 74.3016 380.179 73.9304C379.573 73.5554 379.105 73.0327 378.776 72.3622C378.45 71.688 378.287 70.9039 378.287 70.01C378.287 69.116 378.45 68.3281 378.776 67.6463C379.105 66.9607 379.563 66.4266 380.151 66.0441C380.741 65.6577 381.431 65.4645 382.219 65.4645C382.673 65.4645 383.122 65.5403 383.565 65.6918C384.009 65.8433 384.412 66.0895 384.776 66.4304C385.139 66.7675 385.429 67.2145 385.645 67.7713C385.861 68.3281 385.969 69.0138 385.969 69.8281V70.3963H379.241V69.2372H384.605C384.605 68.7448 384.507 68.3054 384.31 67.9191C384.116 67.5327 383.84 67.2278 383.48 67.0043C383.124 66.7808 382.704 66.6691 382.219 66.6691C381.685 66.6691 381.223 66.8016 380.832 67.0668C380.446 67.3281 380.149 67.6691 379.94 68.0895C379.732 68.51 379.628 68.9607 379.628 69.4418V70.2145C379.628 70.8736 379.741 71.4323 379.969 71.8906C380.2 72.3452 380.52 72.6918 380.929 72.9304C381.338 73.1653 381.813 73.2827 382.355 73.2827C382.707 73.2827 383.026 73.2335 383.31 73.135C383.598 73.0327 383.846 72.8812 384.054 72.6804C384.262 72.4759 384.423 72.2221 384.537 71.9191L385.832 72.2827C385.696 72.7221 385.467 73.1085 385.145 73.4418C384.823 73.7713 384.425 74.0289 383.952 74.2145C383.478 74.3963 382.946 74.4872 382.355 74.4872ZM388.009 74.3054V65.5781H389.304V66.8963H389.395C389.554 66.4645 389.842 66.1141 390.259 65.8452C390.675 65.5763 391.145 65.4418 391.668 65.4418C391.766 65.4418 391.889 65.4437 392.037 65.4475C392.185 65.4513 392.296 65.4569 392.372 65.4645V66.8281C392.327 66.8168 392.223 66.7997 392.06 66.777C391.901 66.7505 391.732 66.7372 391.554 66.7372C391.13 66.7372 390.751 66.8263 390.418 67.0043C390.088 67.1785 389.827 67.4209 389.634 67.7316C389.444 68.0384 389.349 68.3888 389.349 68.7827V74.3054H388.009ZM401.364 65.5781L398.136 74.3054H396.773L393.545 65.5781H395L397.409 72.5327H397.5L399.909 65.5781H401.364ZM403.134 74.3054V65.5781H404.474V74.3054H403.134ZM403.815 64.1236C403.554 64.1236 403.329 64.0346 403.139 63.8566C402.954 63.6785 402.861 63.4645 402.861 63.2145C402.861 62.9645 402.954 62.7505 403.139 62.5725C403.329 62.3944 403.554 62.3054 403.815 62.3054C404.077 62.3054 404.3 62.3944 404.486 62.5725C404.675 62.7505 404.77 62.9645 404.77 63.2145C404.77 63.4645 404.675 63.6785 404.486 63.8566C404.3 64.0346 404.077 64.1236 403.815 64.1236ZM410.476 74.4872C409.658 74.4872 408.953 74.2941 408.362 73.9077C407.771 73.5213 407.317 72.9891 406.999 72.3111C406.68 71.6331 406.521 70.8585 406.521 69.9872C406.521 69.1009 406.684 68.3187 407.01 67.6406C407.339 66.9588 407.798 66.4266 408.385 66.0441C408.976 65.6577 409.665 65.4645 410.453 65.4645C411.067 65.4645 411.62 65.5781 412.112 65.8054C412.605 66.0327 413.008 66.3509 413.322 66.76C413.637 67.1691 413.832 67.6463 413.908 68.1918H412.567C412.464 67.7941 412.237 67.4418 411.885 67.135C411.536 66.8244 411.067 66.6691 410.476 66.6691C409.953 66.6691 409.495 66.8054 409.101 67.0781C408.711 67.3471 408.406 67.7278 408.186 68.2202C407.97 68.7088 407.862 69.2827 407.862 69.9418C407.862 70.616 407.968 71.2031 408.18 71.7031C408.396 72.2031 408.699 72.5914 409.089 72.8679C409.483 73.1444 409.946 73.2827 410.476 73.2827C410.824 73.2827 411.141 73.2221 411.425 73.1009C411.709 72.9797 411.949 72.8054 412.146 72.5781C412.343 72.3509 412.483 72.0781 412.567 71.76H413.908C413.832 72.2751 413.644 72.7391 413.345 73.152C413.05 73.5611 412.658 73.8869 412.169 74.1293C411.684 74.3679 411.12 74.4872 410.476 74.4872ZM419.527 74.4872C418.686 74.4872 417.961 74.3016 417.351 73.9304C416.745 73.5554 416.277 73.0327 415.947 72.3622C415.622 71.688 415.459 70.9039 415.459 70.01C415.459 69.116 415.622 68.3281 415.947 67.6463C416.277 66.9607 416.735 66.4266 417.322 66.0441C417.913 65.6577 418.603 65.4645 419.391 65.4645C419.845 65.4645 420.294 65.5403 420.737 65.6918C421.18 65.8433 421.584 66.0895 421.947 66.4304C422.311 66.7675 422.601 67.2145 422.817 67.7713C423.033 68.3281 423.141 69.0138 423.141 69.8281V70.3963H416.413V69.2372H421.777C421.777 68.7448 421.679 68.3054 421.482 67.9191C421.288 67.5327 421.012 67.2278 420.652 67.0043C420.296 66.7808 419.875 66.6691 419.391 66.6691C418.857 66.6691 418.394 66.8016 418.004 67.0668C417.618 67.3281 417.321 67.6691 417.112 68.0895C416.904 68.51 416.8 68.9607 416.8 69.4418V70.2145C416.8 70.8736 416.913 71.4323 417.141 71.8906C417.372 72.3452 417.692 72.6918 418.101 72.9304C418.51 73.1653 418.985 73.2827 419.527 73.2827C419.879 73.2827 420.197 73.2335 420.482 73.135C420.769 73.0327 421.018 72.8812 421.226 72.6804C421.434 72.4759 421.595 72.2221 421.709 71.9191L423.004 72.2827C422.868 72.7221 422.639 73.1085 422.317 73.4418C421.995 73.7713 421.597 74.0289 421.124 74.2145C420.65 74.3963 420.118 74.4872 419.527 74.4872Z" fill="black"/>
<rect x="511.695" y="1.95459" width="224" height="116.702" rx="58.3509" fill="#EEF4FE" stroke="black" stroke-width="2"/>
<path d="M595.347 46.6691H597.028L600.983 56.3281H601.119L605.074 46.6691H606.756V58.3054H605.438V49.4645H605.324L601.688 58.3054H600.415L596.778 49.4645H596.665V58.3054H595.347V46.6691ZM611.967 58.51C611.414 58.51 610.912 58.4058 610.462 58.1975C610.011 57.9853 609.653 57.6804 609.388 57.2827C609.123 56.8812 608.99 56.3963 608.99 55.8281C608.99 55.3281 609.089 54.9228 609.286 54.6122C609.482 54.2978 609.746 54.0516 610.075 53.8736C610.405 53.6956 610.768 53.563 611.166 53.4759C611.568 53.385 611.971 53.313 612.376 53.26C612.907 53.1918 613.337 53.1406 613.666 53.1066C614 53.0687 614.242 53.0062 614.393 52.9191C614.549 52.8319 614.626 52.6804 614.626 52.4645V52.4191C614.626 51.8584 614.473 51.4228 614.166 51.1122C613.863 50.8016 613.403 50.6463 612.786 50.6463C612.145 50.6463 611.643 50.7865 611.28 51.0668C610.916 51.3471 610.661 51.6463 610.513 51.9645L609.24 51.51C609.467 50.9797 609.77 50.5668 610.149 50.2713C610.532 49.9721 610.948 49.7638 611.399 49.6463C611.854 49.5251 612.301 49.4645 612.74 49.4645C613.02 49.4645 613.342 49.4986 613.706 49.5668C614.073 49.6312 614.428 49.7656 614.768 49.9702C615.113 50.1747 615.399 50.4835 615.626 50.8963C615.854 51.3092 615.967 51.8622 615.967 52.5554V58.3054H614.626V57.1236H614.558C614.467 57.313 614.316 57.5156 614.104 57.7316C613.892 57.9475 613.609 58.1312 613.257 58.2827C612.905 58.4342 612.475 58.51 611.967 58.51ZM612.172 57.3054C612.702 57.3054 613.149 57.2013 613.513 56.9929C613.88 56.7846 614.157 56.5156 614.342 56.1861C614.532 55.8566 614.626 55.51 614.626 55.1463V53.9191C614.57 53.9872 614.445 54.0497 614.251 54.1066C614.062 54.1596 613.842 54.2069 613.592 54.2486C613.346 54.2865 613.106 54.3206 612.871 54.3509C612.64 54.3774 612.452 54.4001 612.308 54.4191C611.96 54.4645 611.634 54.5384 611.331 54.6406C611.032 54.7391 610.789 54.8888 610.604 55.0895C610.422 55.2865 610.331 55.5554 610.331 55.8963C610.331 56.3622 610.503 56.7145 610.848 56.9531C611.196 57.188 611.638 57.3054 612.172 57.3054ZM619.665 55.1236L619.642 53.4645H619.915L623.733 49.5781H625.392L621.324 53.6918H621.21L619.665 55.1236ZM618.415 58.3054V46.6691H619.756V58.3054H618.415ZM623.96 58.3054L620.551 53.9872L621.506 53.0554L625.665 58.3054H623.96ZM630.418 58.4872C629.577 58.4872 628.851 58.3016 628.241 57.9304C627.635 57.5554 627.168 57.0327 626.838 56.3622C626.512 55.688 626.349 54.9039 626.349 54.01C626.349 53.116 626.512 52.3281 626.838 51.6463C627.168 50.9607 627.626 50.4266 628.213 50.0441C628.804 49.6577 629.493 49.4645 630.281 49.4645C630.736 49.4645 631.185 49.5403 631.628 49.6918C632.071 49.8433 632.474 50.0895 632.838 50.4304C633.202 50.7675 633.491 51.2145 633.707 51.7713C633.923 52.3281 634.031 53.0138 634.031 53.8281V54.3963H627.304V53.2372H632.668C632.668 52.7448 632.569 52.3054 632.372 51.9191C632.179 51.5327 631.902 51.2278 631.543 51.0043C631.187 50.7808 630.766 50.6691 630.281 50.6691C629.747 50.6691 629.285 50.8016 628.895 51.0668C628.509 51.3281 628.211 51.6691 628.003 52.0895C627.795 52.51 627.69 52.9607 627.69 53.4418V54.2145C627.69 54.8736 627.804 55.4323 628.031 55.8906C628.262 56.3452 628.582 56.6918 628.991 56.9304C629.401 57.1653 629.876 57.2827 630.418 57.2827C630.77 57.2827 631.088 57.2335 631.372 57.135C631.66 57.0327 631.908 56.8812 632.116 56.6804C632.325 56.4759 632.486 56.2221 632.599 55.9191L633.895 56.2827C633.759 56.7221 633.529 57.1085 633.207 57.4418C632.885 57.7713 632.488 58.0289 632.014 58.2145C631.541 58.3963 631.009 58.4872 630.418 58.4872ZM640.571 58.3054V49.5781H641.912V58.3054H640.571ZM641.253 48.1236C640.991 48.1236 640.766 48.0346 640.577 47.8566C640.391 47.6785 640.298 47.4645 640.298 47.2145C640.298 46.9645 640.391 46.7505 640.577 46.5725C640.766 46.3944 640.991 46.3054 641.253 46.3054C641.514 46.3054 641.738 46.3944 641.923 46.5725C642.113 46.7505 642.207 46.9645 642.207 47.2145C642.207 47.4645 642.113 47.6785 641.923 47.8566C641.738 48.0346 641.514 48.1236 641.253 48.1236ZM648.163 49.5781V50.7145H643.641V49.5781H648.163ZM644.959 47.4872H646.3V55.8054C646.3 56.1842 646.355 56.4683 646.464 56.6577C646.578 56.8433 646.722 56.9683 646.896 57.0327C647.074 57.0933 647.262 57.1236 647.459 57.1236C647.607 57.1236 647.728 57.116 647.822 57.1009C647.917 57.0819 647.993 57.0668 648.05 57.0554L648.322 58.26C648.232 58.2941 648.105 58.3281 647.942 58.3622C647.779 58.4001 647.572 58.4191 647.322 58.4191C646.944 58.4191 646.572 58.3376 646.209 58.1747C645.849 58.0119 645.55 57.7638 645.311 57.4304C645.076 57.0971 644.959 56.6766 644.959 56.1691V47.4872ZM546.407 70.7372V65.5781H547.748V74.3054H546.407V72.8281H546.316C546.112 73.2713 545.793 73.6482 545.362 73.9588C544.93 74.2656 544.384 74.4191 543.725 74.4191C543.18 74.4191 542.695 74.2997 542.271 74.0611C541.846 73.8187 541.513 73.455 541.271 72.9702C541.028 72.4816 540.907 71.866 540.907 71.1236V65.5781H542.248V71.0327C542.248 71.6691 542.426 72.1766 542.782 72.5554C543.142 72.9342 543.6 73.1236 544.157 73.1236C544.49 73.1236 544.829 73.0384 545.174 72.8679C545.522 72.6975 545.814 72.4361 546.049 72.0838C546.288 71.7316 546.407 71.2827 546.407 70.7372ZM550.386 74.3054V62.6691H551.727V66.9645H551.84C551.939 66.813 552.075 66.6198 552.249 66.385C552.427 66.1463 552.681 65.9342 553.011 65.7486C553.344 65.5592 553.795 65.4645 554.363 65.4645C555.098 65.4645 555.746 65.6482 556.306 66.0156C556.867 66.3831 557.304 66.9039 557.619 67.5781C557.933 68.2524 558.09 69.0478 558.09 69.9645C558.09 70.8888 557.933 71.6899 557.619 72.3679C557.304 73.0422 556.869 73.5649 556.312 73.9361C555.755 74.3035 555.113 74.4872 554.386 74.4872C553.825 74.4872 553.376 74.3944 553.039 74.2088C552.702 74.0194 552.442 73.8054 552.261 73.5668C552.079 73.3244 551.939 73.1236 551.84 72.9645H551.681V74.3054H550.386ZM551.704 69.9418C551.704 70.6009 551.8 71.1823 551.994 71.6861C552.187 72.1861 552.469 72.5781 552.84 72.8622C553.211 73.1425 553.666 73.2827 554.204 73.2827C554.764 73.2827 555.232 73.135 555.607 72.8395C555.986 72.5403 556.27 72.1388 556.46 71.635C556.653 71.1274 556.749 70.563 556.749 69.9418C556.749 69.3281 556.655 68.7751 556.465 68.2827C556.28 67.7865 555.997 67.3944 555.619 67.1066C555.244 66.8149 554.772 66.6691 554.204 66.6691C553.658 66.6691 553.2 66.8073 552.829 67.0838C552.458 67.3566 552.177 67.7391 551.988 68.2316C551.799 68.7202 551.704 69.2903 551.704 69.9418ZM560.141 74.3054V65.5781H561.482V74.3054H560.141ZM560.823 64.1236C560.562 64.1236 560.336 64.0346 560.147 63.8566C559.961 63.6785 559.869 63.4645 559.869 63.2145C559.869 62.9645 559.961 62.7505 560.147 62.5725C560.336 62.3944 560.562 62.3054 560.823 62.3054C561.085 62.3054 561.308 62.3944 561.494 62.5725C561.683 62.7505 561.778 62.9645 561.778 63.2145C561.778 63.4645 561.683 63.6785 561.494 63.8566C561.308 64.0346 561.085 64.1236 560.823 64.1236ZM569.893 77.5781V72.9645H569.779C569.681 73.1236 569.54 73.3244 569.359 73.5668C569.177 73.8054 568.917 74.0194 568.58 74.2088C568.243 74.3944 567.794 74.4872 567.234 74.4872C566.506 74.4872 565.864 74.3035 565.308 73.9361C564.751 73.5649 564.315 73.0422 564.001 72.3679C563.686 71.6899 563.529 70.8888 563.529 69.9645C563.529 69.0478 563.686 68.2524 564.001 67.5781C564.315 66.9039 564.753 66.3831 565.313 66.0156C565.874 65.6482 566.522 65.4645 567.256 65.4645C567.825 65.4645 568.273 65.5592 568.603 65.7486C568.936 65.9342 569.19 66.1463 569.364 66.385C569.542 66.6198 569.681 66.813 569.779 66.9645H569.938V65.5781H571.234V77.5781H569.893ZM567.415 73.2827C567.953 73.2827 568.408 73.1425 568.779 72.8622C569.15 72.5781 569.433 72.1861 569.626 71.6861C569.819 71.1823 569.915 70.6009 569.915 69.9418C569.915 69.2903 569.821 68.7202 569.631 68.2316C569.442 67.7391 569.162 67.3566 568.79 67.0838C568.419 66.8073 567.961 66.6691 567.415 66.6691C566.847 66.6691 566.374 66.8149 565.995 67.1066C565.62 67.3944 565.338 67.7865 565.148 68.2827C564.963 68.7751 564.87 69.3281 564.87 69.9418C564.87 70.563 564.965 71.1274 565.154 71.635C565.347 72.1388 565.631 72.5403 566.006 72.8395C566.385 73.135 566.855 73.2827 567.415 73.2827ZM579.188 70.7372V65.5781H580.529V74.3054H579.188V72.8281H579.097C578.893 73.2713 578.575 73.6482 578.143 73.9588C577.711 74.2656 577.165 74.4191 576.506 74.4191C575.961 74.4191 575.476 74.2997 575.052 74.0611C574.628 73.8187 574.294 73.455 574.052 72.9702C573.809 72.4816 573.688 71.866 573.688 71.1236V65.5781H575.029V71.0327C575.029 71.6691 575.207 72.1766 575.563 72.5554C575.923 72.9342 576.381 73.1236 576.938 73.1236C577.272 73.1236 577.611 73.0384 577.955 72.8679C578.304 72.6975 578.595 72.4361 578.83 72.0838C579.069 71.7316 579.188 71.2827 579.188 70.7372ZM582.985 74.3054V65.5781H584.326V74.3054H582.985ZM583.667 64.1236C583.406 64.1236 583.18 64.0346 582.991 63.8566C582.805 63.6785 582.712 63.4645 582.712 63.2145C582.712 62.9645 582.805 62.7505 582.991 62.5725C583.18 62.3944 583.406 62.3054 583.667 62.3054C583.928 62.3054 584.152 62.3944 584.337 62.5725C584.527 62.7505 584.621 62.9645 584.621 63.2145C584.621 63.4645 584.527 63.6785 584.337 63.8566C584.152 64.0346 583.928 64.1236 583.667 64.1236ZM590.577 65.5781V66.7145H586.055V65.5781H590.577ZM587.373 63.4872H588.714V71.8054C588.714 72.1842 588.769 72.4683 588.879 72.6577C588.992 72.8433 589.136 72.9683 589.31 73.0327C589.488 73.0933 589.676 73.1236 589.873 73.1236C590.021 73.1236 590.142 73.116 590.237 73.1009C590.331 73.0819 590.407 73.0668 590.464 73.0554L590.737 74.26C590.646 74.2941 590.519 74.3281 590.356 74.3622C590.193 74.4001 589.987 74.4191 589.737 74.4191C589.358 74.4191 588.987 74.3376 588.623 74.1747C588.263 74.0119 587.964 73.7638 587.725 73.4304C587.49 73.0971 587.373 72.6766 587.373 72.1691V63.4872ZM596.046 74.4872C595.258 74.4872 594.567 74.2997 593.972 73.9247C593.381 73.5497 592.919 73.0251 592.586 72.3509C592.256 71.6766 592.092 70.8888 592.092 69.9872C592.092 69.0781 592.256 68.2846 592.586 67.6066C592.919 66.9285 593.381 66.402 593.972 66.027C594.567 65.652 595.258 65.4645 596.046 65.4645C596.834 65.4645 597.523 65.652 598.114 66.027C598.709 66.402 599.171 66.9285 599.501 67.6066C599.834 68.2846 600.001 69.0781 600.001 69.9872C600.001 70.8888 599.834 71.6766 599.501 72.3509C599.171 73.0251 598.709 73.5497 598.114 73.9247C597.523 74.2997 596.834 74.4872 596.046 74.4872ZM596.046 73.2827C596.645 73.2827 597.137 73.1293 597.523 72.8225C597.91 72.5156 598.196 72.1122 598.381 71.6122C598.567 71.1122 598.66 70.5706 598.66 69.9872C598.66 69.4039 598.567 68.8603 598.381 68.3566C598.196 67.8528 597.91 67.4456 597.523 67.135C597.137 66.8244 596.645 66.6691 596.046 66.6691C595.448 66.6691 594.955 66.8244 594.569 67.135C594.183 67.4456 593.897 67.8528 593.711 68.3566C593.525 68.8603 593.433 69.4039 593.433 69.9872C593.433 70.5706 593.525 71.1122 593.711 71.6122C593.897 72.1122 594.183 72.5156 594.569 72.8225C594.955 73.1293 595.448 73.2827 596.046 73.2827ZM607.548 70.7372V65.5781H608.888V74.3054H607.548V72.8281H607.457C607.252 73.2713 606.934 73.6482 606.502 73.9588C606.07 74.2656 605.525 74.4191 604.866 74.4191C604.32 74.4191 603.835 74.2997 603.411 74.0611C602.987 73.8187 602.654 73.455 602.411 72.9702C602.169 72.4816 602.048 71.866 602.048 71.1236V65.5781H603.388V71.0327C603.388 71.6691 603.567 72.1766 603.923 72.5554C604.282 72.9342 604.741 73.1236 605.298 73.1236C605.631 73.1236 605.97 73.0384 606.315 72.8679C606.663 72.6975 606.955 72.4361 607.19 72.0838C607.428 71.7316 607.548 71.2827 607.548 70.7372ZM617.526 67.5327L616.322 67.8736C616.246 67.6728 616.134 67.4778 615.987 67.2884C615.843 67.0952 615.646 66.9361 615.396 66.8111C615.146 66.6861 614.826 66.6236 614.435 66.6236C613.901 66.6236 613.456 66.7467 613.1 66.9929C612.748 67.2353 612.572 67.5441 612.572 67.9191C612.572 68.2524 612.693 68.5156 612.935 68.7088C613.178 68.902 613.557 69.063 614.072 69.1918L615.367 69.51C616.147 69.6994 616.729 69.9891 617.112 70.3793C617.494 70.7656 617.685 71.2638 617.685 71.8736C617.685 72.3736 617.541 72.8206 617.254 73.2145C616.969 73.6085 616.572 73.9191 616.06 74.1463C615.549 74.3736 614.954 74.4872 614.276 74.4872C613.386 74.4872 612.649 74.2941 612.066 73.9077C611.483 73.5213 611.113 72.9569 610.958 72.2145L612.231 71.8963C612.352 72.366 612.581 72.7183 612.918 72.9531C613.259 73.188 613.704 73.3054 614.254 73.3054C614.879 73.3054 615.375 73.1728 615.742 72.9077C616.113 72.6388 616.299 72.3168 616.299 71.9418C616.299 71.6388 616.193 71.385 615.981 71.1804C615.769 70.9721 615.443 70.8168 615.004 70.7145L613.549 70.3736C612.75 70.1842 612.163 69.8906 611.788 69.4929C611.416 69.0914 611.231 68.5895 611.231 67.9872C611.231 67.4948 611.369 67.0592 611.646 66.6804C611.926 66.3016 612.307 66.0043 612.788 65.7884C613.272 65.5725 613.822 65.4645 614.435 65.4645C615.299 65.4645 615.977 65.6539 616.469 66.0327C616.966 66.4115 617.318 66.9115 617.526 67.5327ZM626.772 74.51C626.219 74.51 625.717 74.4058 625.266 74.1975C624.816 73.9853 624.458 73.6804 624.192 73.2827C623.927 72.8812 623.795 72.3963 623.795 71.8281C623.795 71.3281 623.893 70.9228 624.09 70.6122C624.287 70.2978 624.55 70.0516 624.88 69.8736C625.21 69.6956 625.573 69.563 625.971 69.4759C626.372 69.385 626.776 69.313 627.181 69.26C627.711 69.1918 628.141 69.1406 628.471 69.1066C628.804 69.0687 629.047 69.0062 629.198 68.9191C629.353 68.8319 629.431 68.6804 629.431 68.4645V68.4191C629.431 67.8584 629.278 67.4228 628.971 67.1122C628.668 66.8016 628.208 66.6463 627.59 66.6463C626.95 66.6463 626.448 66.7865 626.085 67.0668C625.721 67.3471 625.465 67.6463 625.317 67.9645L624.045 67.51C624.272 66.9797 624.575 66.5668 624.954 66.2713C625.336 65.9721 625.753 65.7638 626.204 65.6463C626.658 65.5251 627.105 65.4645 627.545 65.4645C627.825 65.4645 628.147 65.4986 628.511 65.5668C628.878 65.6312 629.232 65.7656 629.573 65.9702C629.918 66.1747 630.204 66.4835 630.431 66.8963C630.658 67.3092 630.772 67.8622 630.772 68.5554V74.3054H629.431V73.1236H629.363C629.272 73.313 629.121 73.5156 628.908 73.7316C628.696 73.9475 628.414 74.1312 628.062 74.2827C627.71 74.4342 627.28 74.51 626.772 74.51ZM626.977 73.3054C627.507 73.3054 627.954 73.2013 628.317 72.9929C628.685 72.7846 628.961 72.5156 629.147 72.1861C629.336 71.8566 629.431 71.51 629.431 71.1463V69.9191C629.374 69.9872 629.249 70.0497 629.056 70.1066C628.867 70.1596 628.647 70.2069 628.397 70.2486C628.151 70.2865 627.91 70.3206 627.675 70.3509C627.444 70.3774 627.257 70.4001 627.113 70.4191C626.764 70.4645 626.439 70.5384 626.136 70.6406C625.836 70.7391 625.594 70.8888 625.408 71.0895C625.227 71.2865 625.136 71.5554 625.136 71.8963C625.136 72.3622 625.308 72.7145 625.653 72.9531C626.001 73.188 626.442 73.3054 626.977 73.3054ZM639.401 67.5327L638.197 67.8736C638.121 67.6728 638.009 67.4778 637.862 67.2884C637.718 67.0952 637.521 66.9361 637.271 66.8111C637.021 66.6861 636.701 66.6236 636.31 66.6236C635.776 66.6236 635.331 66.7467 634.975 66.9929C634.623 67.2353 634.447 67.5441 634.447 67.9191C634.447 68.2524 634.568 68.5156 634.81 68.7088C635.053 68.902 635.432 69.063 635.947 69.1918L637.242 69.51C638.022 69.6994 638.604 69.9891 638.987 70.3793C639.369 70.7656 639.56 71.2638 639.56 71.8736C639.56 72.3736 639.416 72.8206 639.129 73.2145C638.844 73.6085 638.447 73.9191 637.935 74.1463C637.424 74.3736 636.829 74.4872 636.151 74.4872C635.261 74.4872 634.524 74.2941 633.941 73.9077C633.358 73.5213 632.988 72.9569 632.833 72.2145L634.106 71.8963C634.227 72.366 634.456 72.7183 634.793 72.9531C635.134 73.188 635.579 73.3054 636.129 73.3054C636.754 73.3054 637.25 73.1728 637.617 72.9077C637.988 72.6388 638.174 72.3168 638.174 71.9418C638.174 71.6388 638.068 71.385 637.856 71.1804C637.644 70.9721 637.318 70.8168 636.879 70.7145L635.424 70.3736C634.625 70.1842 634.038 69.8906 633.663 69.4929C633.291 69.0914 633.106 68.5895 633.106 67.9872C633.106 67.4948 633.244 67.0592 633.521 66.6804C633.801 66.3016 634.182 66.0043 634.663 65.7884C635.147 65.5725 635.697 65.4645 636.31 65.4645C637.174 65.4645 637.852 65.6539 638.344 66.0327C638.841 66.4115 639.193 66.9115 639.401 67.5327ZM646.079 77.5781V65.5781H647.374V66.9645H647.533C647.632 66.813 647.768 66.6198 647.942 66.385C648.121 66.1463 648.374 65.9342 648.704 65.7486C649.037 65.5592 649.488 65.4645 650.056 65.4645C650.791 65.4645 651.439 65.6482 651.999 66.0156C652.56 66.3831 652.997 66.9039 653.312 67.5781C653.626 68.2524 653.783 69.0478 653.783 69.9645C653.783 70.8888 653.626 71.6899 653.312 72.3679C652.997 73.0422 652.562 73.5649 652.005 73.9361C651.448 74.3035 650.806 74.4872 650.079 74.4872C649.518 74.4872 649.069 74.3944 648.732 74.2088C648.395 74.0194 648.136 73.8054 647.954 73.5668C647.772 73.3244 647.632 73.1236 647.533 72.9645H647.42V77.5781H646.079ZM647.397 69.9418C647.397 70.6009 647.494 71.1823 647.687 71.6861C647.88 72.1861 648.162 72.5781 648.533 72.8622C648.905 73.1425 649.359 73.2827 649.897 73.2827C650.458 73.2827 650.925 73.135 651.3 72.8395C651.679 72.5403 651.963 72.1388 652.153 71.635C652.346 71.1274 652.442 70.563 652.442 69.9418C652.442 69.3281 652.348 68.7751 652.158 68.2827C651.973 67.7865 651.691 67.3944 651.312 67.1066C650.937 66.8149 650.465 66.6691 649.897 66.6691C649.352 66.6691 648.893 66.8073 648.522 67.0838C648.151 67.3566 647.871 67.7391 647.681 68.2316C647.492 68.7202 647.397 69.2903 647.397 69.9418ZM659.374 74.4872C658.586 74.4872 657.895 74.2997 657.3 73.9247C656.71 73.5497 656.247 73.0251 655.914 72.3509C655.585 71.6766 655.42 70.8888 655.42 69.9872C655.42 69.0781 655.585 68.2846 655.914 67.6066C656.247 66.9285 656.71 66.402 657.3 66.027C657.895 65.652 658.586 65.4645 659.374 65.4645C660.162 65.4645 660.852 65.652 661.442 66.027C662.037 66.402 662.499 66.9285 662.829 67.6066C663.162 68.2846 663.329 69.0781 663.329 69.9872C663.329 70.8888 663.162 71.6766 662.829 72.3509C662.499 73.0251 662.037 73.5497 661.442 73.9247C660.852 74.2997 660.162 74.4872 659.374 74.4872ZM659.374 73.2827C659.973 73.2827 660.465 73.1293 660.852 72.8225C661.238 72.5156 661.524 72.1122 661.71 71.6122C661.895 71.1122 661.988 70.5706 661.988 69.9872C661.988 69.4039 661.895 68.8603 661.71 68.3566C661.524 67.8528 661.238 67.4456 660.852 67.135C660.465 66.8244 659.973 66.6691 659.374 66.6691C658.776 66.6691 658.283 66.8244 657.897 67.135C657.511 67.4456 657.225 67.8528 657.039 68.3566C656.853 68.8603 656.761 69.4039 656.761 69.9872C656.761 70.5706 656.853 71.1122 657.039 71.6122C657.225 72.1122 657.511 72.5156 657.897 72.8225C658.283 73.1293 658.776 73.2827 659.374 73.2827ZM671.558 67.5327L670.353 67.8736C670.277 67.6728 670.165 67.4778 670.018 67.2884C669.874 67.0952 669.677 66.9361 669.427 66.8111C669.177 66.6861 668.857 66.6236 668.467 66.6236C667.933 66.6236 667.487 66.7467 667.131 66.9929C666.779 67.2353 666.603 67.5441 666.603 67.9191C666.603 68.2524 666.724 68.5156 666.967 68.7088C667.209 68.902 667.588 69.063 668.103 69.1918L669.398 69.51C670.179 69.6994 670.76 69.9891 671.143 70.3793C671.525 70.7656 671.717 71.2638 671.717 71.8736C671.717 72.3736 671.573 72.8206 671.285 73.2145C671.001 73.6085 670.603 73.9191 670.092 74.1463C669.58 74.3736 668.986 74.4872 668.308 74.4872C667.417 74.4872 666.681 74.2941 666.097 73.9077C665.514 73.5213 665.145 72.9569 664.989 72.2145L666.262 71.8963C666.383 72.366 666.612 72.7183 666.95 72.9531C667.29 73.188 667.736 73.3054 668.285 73.3054C668.91 73.3054 669.406 73.1728 669.773 72.9077C670.145 72.6388 670.33 72.3168 670.33 71.9418C670.33 71.6388 670.224 71.385 670.012 71.1804C669.8 70.9721 669.474 70.8168 669.035 70.7145L667.58 70.3736C666.781 70.1842 666.194 69.8906 665.819 69.4929C665.448 69.0914 665.262 68.5895 665.262 67.9872C665.262 67.4948 665.4 67.0592 665.677 66.6804C665.957 66.3016 666.338 66.0043 666.819 65.7884C667.304 65.5725 667.853 65.4645 668.467 65.4645C669.33 65.4645 670.008 65.6539 670.501 66.0327C670.997 66.4115 671.349 66.9115 671.558 67.5327ZM679.917 67.5327L678.712 67.8736C678.637 67.6728 678.525 67.4778 678.377 67.2884C678.233 67.0952 678.036 66.9361 677.786 66.8111C677.536 66.6861 677.216 66.6236 676.826 66.6236C676.292 66.6236 675.847 66.7467 675.491 66.9929C675.138 67.2353 674.962 67.5441 674.962 67.9191C674.962 68.2524 675.084 68.5156 675.326 68.7088C675.568 68.902 675.947 69.063 676.462 69.1918L677.758 69.51C678.538 69.6994 679.12 69.9891 679.502 70.3793C679.885 70.7656 680.076 71.2638 680.076 71.8736C680.076 72.3736 679.932 72.8206 679.644 73.2145C679.36 73.6085 678.962 73.9191 678.451 74.1463C677.94 74.3736 677.345 74.4872 676.667 74.4872C675.777 74.4872 675.04 74.2941 674.457 73.9077C673.873 73.5213 673.504 72.9569 673.349 72.2145L674.621 71.8963C674.743 72.366 674.972 72.7183 675.309 72.9531C675.65 73.188 676.095 73.3054 676.644 73.3054C677.269 73.3054 677.765 73.1728 678.133 72.9077C678.504 72.6388 678.69 72.3168 678.69 71.9418C678.69 71.6388 678.584 71.385 678.371 71.1804C678.159 70.9721 677.834 70.8168 677.394 70.7145L675.94 70.3736C675.14 70.1842 674.553 69.8906 674.178 69.4929C673.807 69.0914 673.621 68.5895 673.621 67.9872C673.621 67.4948 673.76 67.0592 674.036 66.6804C674.317 66.3016 674.697 66.0043 675.178 65.7884C675.663 65.5725 676.212 65.4645 676.826 65.4645C677.69 65.4645 678.368 65.6539 678.86 66.0327C679.356 66.4115 679.709 66.9115 679.917 67.5327ZM682.094 74.3054V65.5781H683.435V74.3054H682.094ZM682.776 64.1236C682.515 64.1236 682.29 64.0346 682.1 63.8566C681.915 63.6785 681.822 63.4645 681.822 63.2145C681.822 62.9645 681.915 62.7505 682.1 62.5725C682.29 62.3944 682.515 62.3054 682.776 62.3054C683.038 62.3054 683.261 62.3944 683.447 62.5725C683.636 62.7505 683.731 62.9645 683.731 63.2145C683.731 63.4645 683.636 63.6785 683.447 63.8566C683.261 64.0346 683.038 64.1236 682.776 64.1236ZM686.073 74.3054V62.6691H687.414V66.9645H687.528C687.626 66.813 687.763 66.6198 687.937 66.385C688.115 66.1463 688.369 65.9342 688.698 65.7486C689.031 65.5592 689.482 65.4645 690.05 65.4645C690.785 65.4645 691.433 65.6482 691.994 66.0156C692.554 66.3831 692.992 66.9039 693.306 67.5781C693.621 68.2524 693.778 69.0478 693.778 69.9645C693.778 70.8888 693.621 71.6899 693.306 72.3679C692.992 73.0422 692.556 73.5649 691.999 73.9361C691.442 74.3035 690.8 74.4872 690.073 74.4872C689.513 74.4872 689.064 74.3944 688.727 74.2088C688.389 74.0194 688.13 73.8054 687.948 73.5668C687.766 73.3244 687.626 73.1236 687.528 72.9645H687.369V74.3054H686.073ZM687.391 69.9418C687.391 70.6009 687.488 71.1823 687.681 71.6861C687.874 72.1861 688.156 72.5781 688.528 72.8622C688.899 73.1425 689.353 73.2827 689.891 73.2827C690.452 73.2827 690.92 73.135 691.295 72.8395C691.674 72.5403 691.958 72.1388 692.147 71.635C692.34 71.1274 692.437 70.563 692.437 69.9418C692.437 69.3281 692.342 68.7751 692.153 68.2827C691.967 67.7865 691.685 67.3944 691.306 67.1066C690.931 66.8149 690.46 66.6691 689.891 66.6691C689.346 66.6691 688.888 66.8073 688.516 67.0838C688.145 67.3566 687.865 67.7391 687.675 68.2316C687.486 68.7202 687.391 69.2903 687.391 69.9418ZM697.17 62.6691V74.3054H695.829V62.6691H697.17ZM703.285 74.4872C702.444 74.4872 701.719 74.3016 701.109 73.9304C700.503 73.5554 700.035 73.0327 699.705 72.3622C699.379 71.688 699.217 70.9039 699.217 70.01C699.217 69.116 699.379 68.3281 699.705 67.6463C700.035 66.9607 700.493 66.4266 701.08 66.0441C701.671 65.6577 702.361 65.4645 703.148 65.4645C703.603 65.4645 704.052 65.5403 704.495 65.6918C704.938 65.8433 705.342 66.0895 705.705 66.4304C706.069 66.7675 706.359 67.2145 706.575 67.7713C706.79 68.3281 706.898 69.0138 706.898 69.8281V70.3963H700.171V69.2372H705.535C705.535 68.7448 705.436 68.3054 705.239 67.9191C705.046 67.5327 704.77 67.2278 704.41 67.0043C704.054 66.7808 703.633 66.6691 703.148 66.6691C702.614 66.6691 702.152 66.8016 701.762 67.0668C701.376 67.3281 701.078 67.6691 700.87 68.0895C700.662 68.51 700.558 68.9607 700.558 69.4418V70.2145C700.558 70.8736 700.671 71.4323 700.898 71.8906C701.129 72.3452 701.45 72.6918 701.859 72.9304C702.268 73.1653 702.743 73.2827 703.285 73.2827C703.637 73.2827 703.955 73.2335 704.239 73.135C704.527 73.0327 704.775 72.8812 704.984 72.6804C705.192 72.4759 705.353 72.2221 705.467 71.9191L706.762 72.2827C706.626 72.7221 706.397 73.1085 706.075 73.4418C705.753 73.7713 705.355 74.0289 704.881 74.2145C704.408 74.3963 703.876 74.4872 703.285 74.4872Z" fill="black"/>
</svg>
