<svg width="514" height="514" viewBox="0 0 514 514" fill="none" xmlns="http://www.w3.org/2000/svg">
<path d="M63.7657 198.209H449.495C482.111 198.209 508.552 224.65 508.552 257.266C508.552 289.882 482.111 316.322 449.495 316.322H63.7657C31.1496 316.322 4.70898 289.882 4.70898 257.266C4.70898 224.65 31.1496 198.209 63.7657 198.209Z" fill="black" stroke="white" stroke-width="9"/>
<path d="M77.9397 273.739L68.5961 241.084H76.138L81.5433 263.774H81.8143L87.7777 241.084H94.2354L100.183 263.822H100.47L105.875 241.084H113.417L104.073 273.739H97.3446L91.1261 252.389H90.871L84.6685 273.739H77.9397ZM117.561 273.739V241.084H139.565V246.776H124.465V254.558H138.433V260.25H124.465V268.047H139.629V273.739H117.561ZM145.503 273.739V241.084H158.578C160.98 241.084 162.984 241.44 164.589 242.152C166.194 242.865 167.401 243.853 168.209 245.118C169.017 246.373 169.421 247.818 169.421 249.455C169.421 250.731 169.165 251.852 168.655 252.82C168.145 253.776 167.443 254.563 166.55 255.179C165.668 255.785 164.658 256.216 163.521 256.471V256.79C164.765 256.843 165.929 257.194 167.013 257.842C168.108 258.491 168.995 259.4 169.676 260.569C170.356 261.727 170.696 263.109 170.696 264.714C170.696 266.447 170.266 267.994 169.405 269.354C168.554 270.704 167.295 271.773 165.626 272.559C163.957 273.346 161.9 273.739 159.455 273.739H145.503ZM152.407 268.095H158.036C159.96 268.095 161.363 267.728 162.245 266.995C163.128 266.25 163.569 265.262 163.569 264.029C163.569 263.125 163.351 262.328 162.915 261.637C162.479 260.946 161.857 260.404 161.049 260.011C160.252 259.617 159.301 259.421 158.195 259.421H152.407V268.095ZM152.407 254.749H157.526C158.472 254.749 159.311 254.584 160.045 254.255C160.789 253.914 161.374 253.436 161.799 252.82C162.235 252.203 162.453 251.464 162.453 250.603C162.453 249.423 162.033 248.472 161.193 247.749C160.364 247.026 159.184 246.665 157.653 246.665H152.407V254.749ZM186.479 273.739V241.084H199.362C201.839 241.084 203.949 241.557 205.692 242.503C207.436 243.439 208.764 244.741 209.678 246.41C210.603 248.068 211.066 249.981 211.066 252.15C211.066 254.318 210.598 256.232 209.662 257.89C208.727 259.548 207.372 260.84 205.597 261.765C203.832 262.689 201.695 263.152 199.187 263.152H190.975V257.619H198.071C199.399 257.619 200.494 257.39 201.355 256.933C202.227 256.466 202.875 255.823 203.3 255.004C203.736 254.175 203.954 253.224 203.954 252.15C203.954 251.066 203.736 250.12 203.3 249.312C202.875 248.493 202.227 247.861 201.355 247.414C200.484 246.957 199.378 246.729 198.039 246.729H193.383V273.739H186.479ZM246.007 257.412C246.007 260.973 245.332 264.002 243.982 266.5C242.643 268.998 240.815 270.906 238.497 272.224C236.191 273.532 233.597 274.186 230.716 274.186C227.814 274.186 225.21 273.527 222.903 272.209C220.597 270.89 218.774 268.982 217.434 266.484C216.095 263.986 215.425 260.962 215.425 257.412C215.425 253.851 216.095 250.821 217.434 248.323C218.774 245.825 220.597 243.922 222.903 242.615C225.21 241.297 227.814 240.638 230.716 240.638C233.597 240.638 236.191 241.297 238.497 242.615C240.815 243.922 242.643 245.825 243.982 248.323C245.332 250.821 246.007 253.851 246.007 257.412ZM239.008 257.412C239.008 255.105 238.662 253.16 237.971 251.576C237.291 249.992 236.329 248.791 235.085 247.972C233.841 247.154 232.385 246.745 230.716 246.745C229.047 246.745 227.591 247.154 226.347 247.972C225.104 248.791 224.136 249.992 223.445 251.576C222.765 253.16 222.425 255.105 222.425 257.412C222.425 259.718 222.765 261.664 223.445 263.248C224.136 264.831 225.104 266.033 226.347 266.851C227.591 267.67 229.047 268.079 230.716 268.079C232.385 268.079 233.841 267.67 235.085 266.851C236.329 266.033 237.291 264.831 237.971 263.248C238.662 261.664 239.008 259.718 239.008 257.412ZM251.571 273.739V241.084H264.454C266.92 241.084 269.025 241.525 270.768 242.408C272.522 243.279 273.856 244.518 274.77 246.123C275.695 247.717 276.158 249.593 276.158 251.751C276.158 253.92 275.69 255.785 274.754 257.348C273.819 258.9 272.464 260.09 270.689 260.92C268.924 261.749 266.787 262.163 264.279 262.163H255.653V256.614H263.163C264.481 256.614 265.576 256.434 266.447 256.072C267.319 255.711 267.967 255.169 268.392 254.446C268.828 253.723 269.046 252.825 269.046 251.751C269.046 250.667 268.828 249.753 268.392 249.009C267.967 248.265 267.314 247.701 266.431 247.319C265.56 246.925 264.459 246.729 263.131 246.729H258.475V273.739H251.571ZM269.206 258.879L277.322 273.739H269.7L261.759 258.879H269.206ZM280.242 246.776V241.084H307.061V246.776H297.064V273.739H290.239V246.776H280.242ZM311.927 273.739V241.084H333.548V246.776H318.831V254.558H332.113V260.25H318.831V273.739H311.927ZM368.649 257.412C368.649 260.973 367.974 264.002 366.624 266.5C365.285 268.998 363.457 270.906 361.139 272.224C358.833 273.532 356.239 274.186 353.358 274.186C350.456 274.186 347.852 273.527 345.545 272.209C343.239 270.89 341.416 268.982 340.076 266.484C338.737 263.986 338.067 260.962 338.067 257.412C338.067 253.851 338.737 250.821 340.076 248.323C341.416 245.825 343.239 243.922 345.545 242.615C347.852 241.297 350.456 240.638 353.358 240.638C356.239 240.638 358.833 241.297 361.139 242.615C363.457 243.922 365.285 245.825 366.624 248.323C367.974 250.821 368.649 253.851 368.649 257.412ZM361.65 257.412C361.65 255.105 361.304 253.16 360.613 251.576C359.933 249.992 358.971 248.791 357.727 247.972C356.484 247.154 355.027 246.745 353.358 246.745C351.689 246.745 350.233 247.154 348.989 247.972C347.746 248.791 346.778 249.992 346.087 251.576C345.407 253.16 345.067 255.105 345.067 257.412C345.067 259.718 345.407 261.664 346.087 263.248C346.778 264.831 347.746 266.033 348.989 266.851C350.233 267.67 351.689 268.079 353.358 268.079C355.027 268.079 356.484 267.67 357.727 266.851C358.971 266.033 359.933 264.831 360.613 263.248C361.304 261.664 361.65 259.718 361.65 257.412ZM374.213 273.739V241.084H381.117V268.047H395.117V273.739H374.213ZM407.042 241.084V273.739H400.138V241.084H407.042ZM443.179 257.412C443.179 260.973 442.504 264.002 441.154 266.5C439.815 268.998 437.987 270.906 435.669 272.224C433.363 273.532 430.769 274.186 427.888 274.186C424.986 274.186 422.382 273.527 420.075 272.209C417.769 270.89 415.946 268.982 414.606 266.484C413.267 263.986 412.597 260.962 412.597 257.412C412.597 253.851 413.267 250.821 414.606 248.323C415.946 245.825 417.769 243.922 420.075 242.615C422.382 241.297 424.986 240.638 427.888 240.638C430.769 240.638 433.363 241.297 435.669 242.615C437.987 243.922 439.815 245.825 441.154 248.323C442.504 250.821 443.179 253.851 443.179 257.412ZM436.18 257.412C436.18 255.105 435.834 253.16 435.143 251.576C434.463 249.992 433.501 248.791 432.257 247.972C431.013 247.154 429.557 246.745 427.888 246.745C426.219 246.745 424.763 247.154 423.519 247.972C422.276 248.791 421.308 249.992 420.617 251.576C419.937 253.16 419.597 255.105 419.597 257.412C419.597 259.718 419.937 261.664 420.617 263.248C421.308 264.831 422.276 266.033 423.519 266.851C424.763 267.67 426.219 268.079 427.888 268.079C429.557 268.079 431.013 267.67 432.257 266.851C433.501 266.033 434.463 264.831 435.143 263.248C435.834 261.664 436.18 259.718 436.18 257.412Z" fill="white"/>
</svg>
