<svg width="1920" height="1080" viewBox="0 0 1920 1080" fill="none" xmlns="http://www.w3.org/2000/svg">
<rect width="1920" height="1080" fill="#02053A"/>
<path d="M405.591 493.232H482.301V496.812C467.982 501.415 457.243 510.109 444.969 541.304L355.986 757.114H353.429L276.719 578.636L199.498 757.114H196.429L108.469 541.815C97.2181 513.688 84.9445 499.881 67.557 496.812V493.232H191.827V496.812C175.462 499.881 168.302 506.529 168.302 519.314C168.302 525.962 170.348 533.633 174.951 544.884L225.068 672.222L270.071 562.783L258.82 536.19C249.615 513.177 239.898 499.881 225.068 496.812V493.232H349.849V496.812C328.882 497.835 320.188 507.04 320.188 519.314C320.188 526.473 322.233 533.633 325.813 543.861L377.464 673.756L429.116 545.395C433.207 534.656 435.252 528.008 435.252 519.825C435.252 507.552 426.047 497.835 405.591 496.812V493.232ZM556.65 460.503C535.682 460.503 520.34 444.65 520.34 424.705C520.34 403.738 535.682 388.396 556.65 388.396C577.106 388.396 592.959 404.249 592.959 424.705C592.959 444.65 577.106 460.503 556.65 460.503ZM589.89 717.736C589.89 738.192 599.607 744.84 623.131 748.42V752H495.793V748.42C519.317 744.84 529.545 738.192 529.545 717.736V552.043C529.545 522.894 521.874 517.268 495.793 517.268V514.2L589.89 488.63V717.736ZM738.679 759.671C707.484 759.671 672.709 749.443 649.696 733.59L662.992 657.903L667.084 658.414C674.243 709.554 709.53 743.818 752.487 743.818C785.217 743.818 801.07 725.407 801.07 702.906C801.07 682.961 788.796 671.199 764.249 661.994L703.904 636.424C667.084 621.082 655.321 594.489 655.321 567.385C655.321 524.939 687.54 485.561 754.533 485.561C782.148 485.561 813.344 492.721 834.311 505.506L819.992 573.011H815.901C805.161 518.291 774.477 499.881 740.214 499.881C707.484 499.881 694.188 516.245 694.188 536.19C694.188 552.555 703.393 566.874 727.429 576.59L786.751 601.137C821.015 615.457 838.402 636.424 838.402 670.176C838.402 720.293 801.581 759.671 738.679 759.671ZM865.298 752V748.42C888.823 744.84 899.051 738.192 899.051 717.736V442.093C899.051 415.5 891.38 408.852 865.298 408.852V405.272L959.396 378.679V539.258C968.09 508.574 997.751 485.561 1037.13 485.561C1087.76 485.561 1112.3 517.268 1112.3 565.34V717.736C1112.3 738.192 1122.02 744.84 1145.54 748.42V752H1022.81V748.42C1044.8 745.352 1051.45 739.215 1051.45 720.293V570.454C1051.45 532.61 1036.62 513.177 1006.44 513.177C980.363 513.177 966.555 529.03 959.396 546.929V720.293C959.396 739.215 966.044 745.352 988.034 748.42V752H865.298ZM1287.66 383.793C1310.16 383.793 1330.1 389.419 1344.93 398.624L1327.55 452.832L1324.48 452.321C1321.41 422.148 1303.51 399.647 1274.87 399.647C1244.19 399.647 1233.45 425.216 1233.45 443.627C1233.45 463.571 1239.07 480.959 1257.49 493.232H1309.14V501.926H1262.6V717.736C1262.6 739.215 1272.83 745.863 1306.07 748.42V752H1168.5V748.42C1192.03 744.84 1202.25 738.192 1202.25 717.736V501.926H1170.04V493.232H1202.25V474.822C1202.25 410.386 1236.01 383.793 1287.66 383.793ZM1573.58 712.111C1573.58 738.192 1584.32 745.352 1606.82 748.42V752H1512.72V706.997C1502.5 735.635 1474.88 759.671 1439.08 759.671C1393.06 759.671 1363.91 733.59 1363.91 676.313V541.815C1363.91 512.666 1356.75 506.529 1330.16 507.04V503.46L1424.25 487.096V671.71C1424.25 708.02 1441.64 728.476 1470.28 727.453C1489.2 726.941 1505.05 716.202 1512.72 699.326V541.304C1512.72 512.154 1506.59 506.017 1483.06 506.017V502.949L1573.58 487.096V712.111ZM1721.5 717.736C1721.5 738.192 1731.22 744.84 1754.74 748.42V752H1627.4V748.42C1650.93 744.84 1661.15 738.192 1661.15 717.736V442.093C1661.15 415.5 1653.48 408.852 1627.4 408.852V405.272L1721.5 378.679V717.736Z" fill="white"/>
<path d="M84.35 926C76.775 926 71.825 929.9 71.825 939.35V942.05H67.1V943.325H71.825V974.975C71.825 977.975 70.325 978.95 66.875 979.475V980H87.05V979.475C82.175 979.1 80.675 978.125 80.675 974.975V943.325H87.5V942.05H79.925C77.225 940.25 76.4 937.7 76.4 934.775C76.4 932.075 77.975 928.325 82.475 928.325C86.675 928.325 89.3 931.625 89.75 936.05L90.2 936.125L92.75 928.175C90.575 926.825 87.65 926 84.35 926ZM109.438 981.125C120.838 981.125 128.113 972.65 128.113 961.025C128.113 949.4 120.838 940.925 109.438 940.925C98.0375 940.925 90.7625 949.4 90.7625 961.025C90.7625 972.65 98.0375 981.125 109.438 981.125ZM109.438 979.175C102.913 979.175 100.213 973.025 100.213 961.025C100.213 949.025 102.913 942.875 109.438 942.875C115.888 942.875 118.588 949.025 118.588 961.025C118.588 973.025 115.888 979.175 109.438 979.175ZM156.382 940.925C149.857 940.925 145.582 945.8 144.907 956.75H144.607V941.15L131.182 944.9V945.425C135.007 945.35 136.132 946.475 136.132 950.9V974.975C136.132 977.975 134.632 978.95 131.182 979.475V980H151.357V979.475C146.482 979.1 144.982 978.125 144.982 974.975V962.225C144.982 952.1 148.207 949.175 153.157 949.175C154.732 949.175 155.932 949.4 156.607 949.775H156.982V940.925H156.382ZM213.429 972.65C212.604 975.575 210.954 976.625 209.379 976.625C207.579 976.625 206.454 975.125 206.454 972.425V956C206.454 946.7 202.179 940.925 192.954 940.925C184.629 940.925 179.154 946.1 178.104 954.425L178.629 954.575C180.054 948.65 183.729 945.95 188.829 945.95C195.204 945.95 197.604 949.775 197.604 956.3V958.1L190.479 959.525C182.004 961.25 176.904 965.375 176.904 971.975C176.904 976.925 180.429 981.125 187.029 981.125C192.954 981.125 196.779 977.3 197.679 973.7L197.829 974.6C198.129 978.575 200.529 981.125 204.729 981.125C209.529 981.125 212.904 978.05 214.104 972.725L213.429 972.65ZM191.454 976.7C187.329 976.7 185.379 973.25 185.379 969.35C185.379 965.975 186.279 961.85 193.329 960.5L197.604 959.6V972.5C196.404 975.5 194.379 976.7 191.454 976.7ZM257.217 940.925C252.117 940.925 247.167 943.925 245.442 948.05V925.25L231.642 929.15V929.675C235.467 929.675 236.592 930.65 236.592 934.55V977.825C240.192 979.85 245.292 981.125 249.867 981.125C262.017 981.125 270.717 972.275 270.717 958.55C270.717 947.75 265.167 940.925 257.217 940.925ZM251.367 979.4C247.917 979.4 246.117 977.525 245.442 976.55V949.4C246.567 946.475 249.342 945.2 251.892 945.2C257.817 945.2 261.117 950.675 261.117 961.775C261.117 973.4 257.217 979.4 251.367 979.4ZM306.078 966.5C303.903 972.575 299.928 973.775 295.728 973.775C288.003 973.775 282.828 967.85 282.303 957.425H306.303C306.603 946.4 300.153 940.925 292.278 940.925C281.853 940.925 275.553 949.625 275.553 961.7C275.553 974.45 282.978 981.125 291.903 981.125C298.728 981.125 304.878 976.925 306.678 966.65L306.078 966.5ZM290.553 942.725C294.828 942.725 297.978 946.4 297.828 955.85H282.303C282.303 947.825 285.528 942.725 290.553 942.725ZM334.091 971.75C333.041 974.825 331.316 976.625 328.316 976.625C325.391 976.625 323.966 974.15 323.966 970.475V943.4H332.066V942.125H323.966V930.35H323.591C320.591 936.725 316.166 940.55 310.241 942.95V943.4H315.116V971.9C315.116 977.525 317.966 981.125 323.591 981.125C329.291 981.125 333.041 977.45 334.691 971.975L334.091 971.75ZM359.872 971.75C358.822 974.825 357.097 976.625 354.097 976.625C351.172 976.625 349.747 974.15 349.747 970.475V943.4H357.847V942.125H349.747V930.35H349.372C346.372 936.725 341.947 940.55 336.022 942.95V943.4H340.897V971.9C340.897 977.525 343.747 981.125 349.372 981.125C355.072 981.125 358.822 977.45 360.472 971.975L359.872 971.75ZM393.455 966.5C391.28 972.575 387.305 973.775 383.105 973.775C375.38 973.775 370.205 967.85 369.68 957.425H393.68C393.98 946.4 387.53 940.925 379.655 940.925C369.23 940.925 362.93 949.625 362.93 961.7C362.93 974.45 370.355 981.125 379.28 981.125C386.105 981.125 392.255 976.925 394.055 966.65L393.455 966.5ZM377.93 942.725C382.205 942.725 385.355 946.4 385.205 955.85H369.68C369.68 947.825 372.905 942.725 377.93 942.725ZM422.983 940.925C416.458 940.925 412.183 945.8 411.508 956.75H411.208V941.15L397.783 944.9V945.425C401.608 945.35 402.733 946.475 402.733 950.9V974.975C402.733 977.975 401.233 978.95 397.783 979.475V980H417.958V979.475C413.083 979.1 411.583 978.125 411.583 974.975V962.225C411.583 952.1 414.808 949.175 419.758 949.175C421.333 949.175 422.533 949.4 423.208 949.775H423.583V940.925H422.983ZM465.781 971.75C464.731 974.825 463.006 976.625 460.006 976.625C457.081 976.625 455.656 974.15 455.656 970.475V943.4H463.756V942.125H455.656V930.35H455.281C452.281 936.725 447.856 940.55 441.931 942.95V943.4H446.806V971.9C446.806 977.525 449.656 981.125 455.281 981.125C460.981 981.125 464.731 977.45 466.381 971.975L465.781 971.75ZM487.147 981.125C498.547 981.125 505.822 972.65 505.822 961.025C505.822 949.4 498.547 940.925 487.147 940.925C475.747 940.925 468.472 949.4 468.472 961.025C468.472 972.65 475.747 981.125 487.147 981.125ZM487.147 979.175C480.622 979.175 477.922 973.025 477.922 961.025C477.922 949.025 480.622 942.875 487.147 942.875C493.597 942.875 496.297 949.025 496.297 961.025C496.297 973.025 493.597 979.175 487.147 979.175ZM564.767 974.975V952.55C564.767 945.725 561.392 940.925 554.192 940.925C548.717 940.925 544.892 944.075 543.242 948.575C542.117 943.925 538.817 940.925 533.117 940.925C527.942 940.925 524.042 943.925 522.692 948.275V941.15L508.892 944.9V945.425C512.717 945.35 513.842 946.25 513.842 950.45V974.975C513.842 977.975 512.342 978.95 508.892 979.475V980H526.892V979.475C523.667 979.025 522.692 978.125 522.692 975.35V949.475C523.667 947 525.542 944.9 528.692 944.9C532.892 944.9 534.842 947.75 534.842 953.3V975.35C534.842 978.125 533.867 979.025 530.567 979.475V980H547.967V979.475C544.742 979.025 543.692 978.125 543.692 975.35V952.55C543.692 951.575 543.617 950.675 543.467 949.775C544.517 947.15 546.467 944.9 549.767 944.9C553.892 944.9 555.917 947.75 555.917 953.3V976.625C555.767 978.65 554.717 979.1 551.792 979.475V980H569.642V979.475C566.192 978.95 564.767 977.975 564.767 974.975ZM590.932 981.125C602.332 981.125 609.607 972.65 609.607 961.025C609.607 949.4 602.332 940.925 590.932 940.925C579.532 940.925 572.257 949.4 572.257 961.025C572.257 972.65 579.532 981.125 590.932 981.125ZM590.932 979.175C584.407 979.175 581.707 973.025 581.707 961.025C581.707 949.025 584.407 942.875 590.932 942.875C597.382 942.875 600.082 949.025 600.082 961.025C600.082 973.025 597.382 979.175 590.932 979.175ZM637.876 940.925C631.351 940.925 627.076 945.8 626.401 956.75H626.101V941.15L612.676 944.9V945.425C616.501 945.35 617.626 946.475 617.626 950.9V974.975C617.626 977.975 616.126 978.95 612.676 979.475V980H632.851V979.475C627.976 979.1 626.476 978.125 626.476 974.975V962.225C626.476 952.1 629.701 949.175 634.651 949.175C636.226 949.175 637.426 949.4 638.101 949.775H638.476V940.925H637.876ZM666.806 940.925C660.281 940.925 656.006 945.8 655.331 956.75H655.031V941.15L641.606 944.9V945.425C645.431 945.35 646.556 946.475 646.556 950.9V974.975C646.556 977.975 645.056 978.95 641.606 979.475V980H661.781V979.475C656.906 979.1 655.406 978.125 655.406 974.975V962.225C655.406 952.1 658.631 949.175 663.581 949.175C665.156 949.175 666.356 949.4 667.031 949.775H667.406V940.925H666.806ZM688.93 981.125C700.33 981.125 707.605 972.65 707.605 961.025C707.605 949.4 700.33 940.925 688.93 940.925C677.53 940.925 670.255 949.4 670.255 961.025C670.255 972.65 677.53 981.125 688.93 981.125ZM688.93 979.175C682.405 979.175 679.705 973.025 679.705 961.025C679.705 949.025 682.405 942.875 688.93 942.875C695.38 942.875 698.08 949.025 698.08 961.025C698.08 973.025 695.38 979.175 688.93 979.175ZM757.284 942.05V942.575C760.284 942.725 761.634 944.15 761.634 945.95C761.634 947.15 761.334 948.125 760.734 949.7L753.159 968.525L745.584 949.475C745.059 947.975 744.759 946.925 744.759 945.875C744.759 944.075 746.034 942.725 749.109 942.575V942.05H730.809V942.575C732.984 943.025 734.409 944.975 735.759 948.35L737.409 952.25L730.809 968.3L723.459 949.625C722.784 947.975 722.484 946.85 722.484 945.875C722.484 944 723.534 943.025 725.934 942.575V942.05H707.709V942.575C710.259 943.025 712.059 945.05 713.709 949.175L726.609 980.75H727.059L738.384 954.575L749.634 980.75H750.009L763.059 949.1C764.859 944.525 766.434 943.25 768.534 942.575V942.05H757.284Z" fill="white"/>
<path d="M77.816 406.96H75.968V414.52H68.912V406.96H67.064V424H68.912V416.056H75.968V424H77.816V406.96ZM88.6188 422.416V407.32H87.2268C86.7708 408.928 85.4268 410.176 83.0268 410.176H82.4268V411.76H83.1708C85.0428 411.76 86.3148 411.136 86.9388 410.296V422.416H82.2108V424H92.8428V422.416H88.6188ZM113.608 416.536V418.12H120.544V416.536H113.608ZM148.15 422.416V407.32H146.758C146.302 408.928 144.958 410.176 142.558 410.176H141.958V411.76H142.702C144.574 411.76 145.846 411.136 146.47 410.296V422.416H141.742V424H152.374V422.416H148.15ZM156.193 424H167.065V422.416H158.545C160.225 421.264 162.073 419.656 163.369 418.408C165.697 416.2 166.801 414.208 166.801 411.928C166.801 408.784 164.881 406.96 161.665 406.96C158.329 406.96 156.409 408.88 156.409 411.736C156.409 412.168 156.457 412.648 156.577 413.128L158.353 413.296C158.233 412.672 158.161 412.168 158.161 411.76C158.161 409.816 159.385 408.496 161.569 408.496C163.705 408.496 164.953 409.768 164.953 411.952C164.953 413.944 164.185 415.456 162.241 417.352C160.129 419.416 157.849 421.288 156.193 422.536V424ZM175.684 424H177.532L182.428 412H180.7L177.22 420.592C176.98 421.24 176.812 421.792 176.668 422.272H176.572C176.428 421.792 176.212 421.216 175.972 420.592L172.564 412H170.788L175.684 424ZM184.807 412L187.303 424H189.367L191.191 415.72C191.287 415.264 191.383 414.4 191.407 413.944H191.551C191.599 414.4 191.695 415.264 191.791 415.72L193.615 424H195.679L198.174 412H196.423L194.911 420.592C194.815 421.216 194.719 421.72 194.647 422.224H194.503C194.407 421.696 194.335 421.288 194.143 420.352L192.343 412H190.639L188.839 420.352C188.647 421.288 188.575 421.696 188.479 422.224H188.335C188.263 421.72 188.167 421.216 188.071 420.592L186.559 412H184.807Z" fill="white"/>
<path d="M77.432 250.96H67.64V268H77.6V266.416H69.464V260.032H77.024V258.496H69.464V252.544H77.432V250.96ZM83.8428 256H81.9468L86.6988 267.904L86.3868 268.792C85.8108 270.448 85.0188 271.288 83.4588 271.288C83.1468 271.288 82.8828 271.264 82.5708 271.24V272.728C82.9308 272.8 83.2908 272.824 83.6268 272.824C85.6428 272.824 86.9868 271.744 88.0668 268.768L92.8428 256H91.0668L87.5148 266.056L83.8428 256ZM107.15 262.36C107.15 262.12 107.174 261.856 107.174 261.616C107.174 258.376 105.83 255.712 102.158 255.712C98.8696 255.712 96.8056 258.112 96.8056 261.784C96.8056 265.744 98.6296 268.288 102.302 268.288C104.63 268.288 106.262 267.088 107.126 265.048L105.686 264.328C105.158 265.624 104.15 266.8 102.302 266.8C99.9256 266.8 98.5096 265 98.5096 262.408V262.36H107.15ZM102.086 257.032C104.51 257.032 105.47 258.88 105.446 260.968H98.5096C98.5336 259 99.7336 257.032 102.086 257.032ZM114.064 250.6H112.408V268H113.68L113.992 265.6C114.592 267.28 116.176 268.288 117.88 268.288C121.024 268.288 122.896 265.72 122.896 261.976C122.896 258.328 121.072 255.712 117.952 255.712C116.224 255.712 114.712 256.792 114.064 258.448V250.6ZM114.04 262.312V261.736C114.04 259.048 115.36 257.2 117.568 257.2C119.872 257.2 121.12 259.12 121.12 261.976C121.12 264.904 119.8 266.8 117.52 266.8C115.336 266.8 114.04 264.928 114.04 262.312ZM129.739 259.552V256H128.083V268H129.763V263.512C129.763 259.552 132.163 257.32 135.067 257.32C135.907 257.32 136.723 257.44 137.203 257.584V256.024C136.723 255.88 136.003 255.76 135.115 255.76C132.811 255.76 130.651 257.128 129.739 259.552ZM146.854 268.288C150.166 268.288 152.35 265.84 152.35 262C152.35 258.16 150.166 255.712 146.854 255.712C143.542 255.712 141.358 258.16 141.358 262C141.358 265.792 143.542 268.288 146.854 268.288ZM146.854 266.824C144.55 266.824 143.134 265.024 143.134 262C143.134 258.976 144.55 257.176 146.854 257.176C149.158 257.176 150.574 259 150.574 262C150.574 265.024 149.158 266.824 146.854 266.824ZM155.041 256L157.537 268H159.601L161.425 259.72C161.521 259.264 161.617 258.4 161.641 257.944H161.785C161.833 258.4 161.929 259.264 162.025 259.72L163.849 268H165.913L168.409 256H166.657L165.145 264.592C165.049 265.216 164.953 265.72 164.881 266.224H164.737C164.641 265.696 164.569 265.288 164.377 264.352L162.577 256H160.873L159.073 264.352C158.881 265.288 158.809 265.696 158.713 266.224H158.569C158.497 265.72 158.401 265.216 158.305 264.592L156.793 256H155.041ZM185.119 250.96V252.544H190.567V268H192.415V252.544H197.863V250.96H185.119ZM211.329 262.36C211.329 262.12 211.353 261.856 211.353 261.616C211.353 258.376 210.009 255.712 206.337 255.712C203.049 255.712 200.985 258.112 200.985 261.784C200.985 265.744 202.809 268.288 206.481 268.288C208.809 268.288 210.441 267.088 211.305 265.048L209.865 264.328C209.337 265.624 208.329 266.8 206.481 266.8C204.105 266.8 202.689 265 202.689 262.408V262.36H211.329ZM206.265 257.032C208.689 257.032 209.649 258.88 209.625 260.968H202.689C202.713 259 203.913 257.032 206.265 257.032ZM221.244 262.96L224.7 268H226.692L222.324 261.904L226.38 256H224.34L221.292 260.68L218.1 256H216.132L220.236 261.784L215.82 268H217.812L221.244 262.96ZM230.871 257.368H234.351V264.304C234.351 266.656 235.767 268.216 238.527 268.216C239.487 268.216 240.135 268.072 240.759 267.928V266.392C240.039 266.536 239.271 266.608 238.527 266.608C236.943 266.608 236.031 265.792 236.031 264.088V257.368H240.759V256H236.031V252.112L234.351 252.832V256H230.871V257.368ZM262.437 260.536V262.12H269.373V260.536H262.437ZM290.138 268H301.01V266.416H292.49C294.17 265.264 296.018 263.656 297.314 262.408C299.642 260.2 300.746 258.208 300.746 255.928C300.746 252.784 298.826 250.96 295.61 250.96C292.274 250.96 290.354 252.88 290.354 255.736C290.354 256.168 290.402 256.648 290.522 257.128L292.298 257.296C292.178 256.672 292.106 256.168 292.106 255.76C292.106 253.816 293.33 252.496 295.514 252.496C297.65 252.496 298.898 253.768 298.898 255.952C298.898 257.944 298.13 259.456 296.186 261.352C294.074 263.416 291.794 265.288 290.138 266.536V268ZM310.565 250.96C306.845 250.96 304.661 253.6 304.637 259.672C304.661 265.696 306.821 268.36 310.565 268.36C314.285 268.36 316.469 265.72 316.493 259.672C316.469 253.624 314.309 250.96 310.565 250.96ZM310.565 252.448C311.933 252.448 313.013 252.976 313.757 254.296L306.845 263.656C306.557 262.624 306.389 261.304 306.389 259.672C306.413 254.368 307.997 252.448 310.565 252.448ZM310.565 266.872C309.149 266.872 308.045 266.296 307.325 264.904L314.261 255.52C314.573 256.576 314.741 257.944 314.741 259.672C314.717 264.928 313.133 266.872 310.565 266.872ZM322.352 256H320.768V272.68H322.424V265.744C322.976 267.256 324.56 268.288 326.168 268.288C329.36 268.288 331.256 265.72 331.256 261.976C331.256 258.328 329.432 255.712 326.288 255.712C324.488 255.712 322.952 257.008 322.352 258.544V256ZM322.4 262.24V261.712C322.4 259.096 323.792 257.2 325.976 257.2C328.28 257.2 329.48 259.12 329.48 261.976C329.48 264.904 328.184 266.8 325.928 266.8C323.72 266.8 322.4 264.904 322.4 262.24ZM335.051 257.368H338.531V264.304C338.531 266.656 339.947 268.216 342.707 268.216C343.667 268.216 344.315 268.072 344.939 267.928V266.392C344.219 266.536 343.451 266.608 342.707 266.608C341.123 266.608 340.211 265.792 340.211 264.088V257.368H344.939V256H340.211V252.112L338.531 252.832V256H335.051V257.368Z" fill="white"/>
<path d="M79.496 307.24L77.216 298.792H74.504L72.176 307.24L68.816 296.464H65.216L70.808 313H73.472L75.824 304.024L78.224 313H80.888L86.504 296.464H82.88L79.496 307.24ZM95.8951 306.352H102.063V303.352H95.8951V299.416H102.927V296.464H92.5591V313H103.143V310.048H95.8951V306.352ZM113.516 296.464H110.18V313H119.78V310.048H113.516V296.464ZM132.756 313.288C135.564 313.288 138.012 311.944 139.5 309.856L136.956 308.008C136.02 309.328 134.628 310.144 132.852 310.144C129.852 310.144 127.692 307.672 127.692 304.72C127.692 301.768 129.876 299.32 132.876 299.32C134.628 299.32 136.02 300.136 136.956 301.456L139.5 299.608C138.012 297.52 135.564 296.176 132.756 296.176C128.076 296.176 124.356 300.064 124.356 304.72C124.356 309.424 128.076 313.288 132.756 313.288ZM153.19 313.288C157.87 313.288 161.614 309.424 161.614 304.744C161.614 300.04 157.87 296.176 153.19 296.176C148.486 296.176 144.79 300.04 144.79 304.744C144.79 309.424 148.486 313.288 153.19 313.288ZM153.19 310.144C150.214 310.144 148.126 307.72 148.126 304.744C148.126 301.768 150.214 299.32 153.19 299.32C156.142 299.32 158.254 301.768 158.254 304.744C158.254 307.72 156.142 310.144 153.19 310.144ZM185.451 296.464H182.571L177.507 307.312L172.395 296.464H169.563L167.523 313H170.931L172.131 302.752L176.211 311.128H178.827L182.859 302.752L184.059 313H187.467L185.451 296.464ZM197.783 306.352H203.951V303.352H197.783V299.416H204.815V296.464H194.447V313H205.031V310.048H197.783V306.352ZM219.317 296.464V299.416H223.877V313H227.213V299.416H231.773V296.464H219.317ZM244.882 313.288C249.562 313.288 253.306 309.424 253.306 304.744C253.306 300.04 249.562 296.176 244.882 296.176C240.178 296.176 236.482 300.04 236.482 304.744C236.482 309.424 240.178 313.288 244.882 313.288ZM244.882 310.144C241.906 310.144 239.818 307.72 239.818 304.744C239.818 301.768 241.906 299.32 244.882 299.32C247.834 299.32 249.946 301.768 249.946 304.744C249.946 307.72 247.834 310.144 244.882 310.144Z" fill="white"/>
<path d="M922.536 865.96H917.232V883H923.04C927.264 883 928.464 880.456 928.464 878.296C928.464 876.04 927.216 874.48 924.984 874.144C927.12 873.664 928.008 872.104 928.008 870.424C928.008 868.408 926.88 865.96 922.536 865.96ZM919.08 867.496H922.512C925.44 867.496 926.136 869.032 926.136 870.568C926.136 871.864 925.632 873.52 922.584 873.52H919.08V867.496ZM919.08 875.032H923.088C925.632 875.032 926.592 876.424 926.592 878.152C926.592 879.832 925.8 881.464 922.896 881.464H919.08V875.032ZM937.323 883.288C940.635 883.288 942.819 880.84 942.819 877C942.819 873.16 940.635 870.712 937.323 870.712C934.011 870.712 931.827 873.16 931.827 877C931.827 880.792 934.011 883.288 937.323 883.288ZM937.323 881.824C935.019 881.824 933.603 880.024 933.603 877C933.603 873.976 935.019 872.176 937.323 872.176C939.627 872.176 941.043 874 941.043 877C941.043 880.024 939.627 881.824 937.323 881.824ZM955.134 865.6V873.184C954.534 871.696 953.262 870.712 951.51 870.712C948.342 870.712 946.302 873.232 946.302 876.976C946.302 880.768 948.222 883.288 951.246 883.288C953.262 883.288 954.558 882.208 955.23 880.456V883H956.814V865.6H955.134ZM955.158 876.736V877.24C955.158 879.952 953.79 881.8 951.582 881.8C949.398 881.8 948.078 879.952 948.078 876.976C948.078 874 949.398 872.2 951.654 872.2C953.838 872.2 955.158 874.048 955.158 876.736ZM963.608 871H961.712L966.464 882.904L966.152 883.792C965.576 885.448 964.784 886.288 963.224 886.288C962.912 886.288 962.648 886.264 962.336 886.24V887.728C962.696 887.8 963.056 887.824 963.392 887.824C965.408 887.824 966.752 886.744 967.832 883.768L972.608 871H970.832L967.28 881.056L963.608 871ZM990.47 865.96V867.544H995.918V883H997.766V867.544H1003.21V865.96H990.47ZM1016.68 877.36C1016.68 877.12 1016.7 876.856 1016.7 876.616C1016.7 873.376 1015.36 870.712 1011.69 870.712C1008.4 870.712 1006.34 873.112 1006.34 876.784C1006.34 880.744 1008.16 883.288 1011.83 883.288C1014.16 883.288 1015.79 882.088 1016.66 880.048L1015.22 879.328C1014.69 880.624 1013.68 881.8 1011.83 881.8C1009.46 881.8 1008.04 880 1008.04 877.408V877.36H1016.68ZM1011.62 872.032C1014.04 872.032 1015 873.88 1014.98 875.968H1008.04C1008.06 874 1009.26 872.032 1011.62 872.032ZM1026.6 877.96L1030.05 883H1032.04L1027.68 876.904L1031.73 871H1029.69L1026.64 875.68L1023.45 871H1021.48L1025.59 876.784L1021.17 883H1023.16L1026.6 877.96ZM1036.22 872.368H1039.7V879.304C1039.7 881.656 1041.12 883.216 1043.88 883.216C1044.84 883.216 1045.49 883.072 1046.11 882.928V881.392C1045.39 881.536 1044.62 881.608 1043.88 881.608C1042.29 881.608 1041.38 880.792 1041.38 879.088V872.368H1046.11V871H1041.38V867.112L1039.7 867.832V871H1036.22V872.368ZM1067.79 875.536V877.12H1074.72V875.536H1067.79ZM1102.33 881.416V866.32H1100.94C1100.48 867.928 1099.14 869.176 1096.74 869.176H1096.14V870.76H1096.88C1098.75 870.76 1100.03 870.136 1100.65 869.296V881.416H1095.92V883H1106.55V881.416H1102.33ZM1116.37 871.864C1114.36 871.864 1112.65 872.872 1111.91 874.744C1111.91 870.112 1113.35 867.448 1116.23 867.448C1118.08 867.448 1119.11 868.528 1119.49 870.496L1121.27 870.136C1120.76 867.424 1118.99 865.96 1116.25 865.96C1112.29 865.96 1110.18 869.32 1110.18 874.984C1110.18 880.6 1112.27 883.36 1116.11 883.36C1119.37 883.36 1121.48 880.96 1121.48 877.576C1121.48 874.12 1119.47 871.864 1116.37 871.864ZM1116.13 881.872C1113.78 881.872 1112.34 879.976 1112 877.144C1112.53 874.672 1114.07 873.352 1116.06 873.352C1118.29 873.352 1119.73 875.008 1119.73 877.6C1119.73 880.144 1118.34 881.872 1116.13 881.872ZM1127.7 871H1126.12V887.68H1127.78V880.744C1128.33 882.256 1129.91 883.288 1131.52 883.288C1134.71 883.288 1136.61 880.72 1136.61 876.976C1136.61 873.328 1134.78 870.712 1131.64 870.712C1129.84 870.712 1128.3 872.008 1127.7 873.544V871ZM1127.75 877.24V876.712C1127.75 874.096 1129.14 872.2 1131.33 872.2C1133.63 872.2 1134.83 874.12 1134.83 876.976C1134.83 879.904 1133.54 881.8 1131.28 881.8C1129.07 881.8 1127.75 879.904 1127.75 877.24ZM1140.4 872.368H1143.88V879.304C1143.88 881.656 1145.3 883.216 1148.06 883.216C1149.02 883.216 1149.67 883.072 1150.29 882.928V881.392C1149.57 881.536 1148.8 881.608 1148.06 881.608C1146.47 881.608 1145.56 880.792 1145.56 879.088V872.368H1150.29V871H1145.56V867.112L1143.88 867.832V871H1140.4V872.368Z" fill="white"/>
<path d="M77.72 867.448V865.96H67.16V867.448H71.504V881.512H67.16V883H77.72V881.512H73.352V867.448H77.72ZM84.0108 873.64V871H82.4268V883H84.1068V876.688C84.1068 874.72 84.9948 872.2 87.7308 872.2C89.0988 872.2 90.5388 872.824 90.5388 875.704V883H92.2188V875.632C92.2188 873.688 91.8108 872.512 91.0188 871.744C90.2268 870.976 89.1468 870.712 88.1148 870.712C86.0508 870.712 84.6588 871.888 84.0108 873.64ZM99.1096 871H97.5256V887.68H99.1816V880.744C99.7336 882.256 101.318 883.288 102.926 883.288C106.118 883.288 108.014 880.72 108.014 876.976C108.014 873.328 106.19 870.712 103.046 870.712C101.246 870.712 99.7096 872.008 99.1096 873.544V871ZM99.1576 877.24V876.712C99.1576 874.096 100.55 872.2 102.734 872.2C105.038 872.2 106.238 874.12 106.238 876.976C106.238 879.904 104.942 881.8 102.686 881.8C100.478 881.8 99.1576 879.904 99.1576 877.24ZM120.136 880.528V883H121.72V871H120.04V877.384C120.04 879.304 119.224 881.848 116.656 881.848C115.216 881.848 113.848 881.2 113.848 878.392V871H112.12V878.416C112.12 880.336 112.48 881.488 113.248 882.232C114.088 883.024 115.192 883.288 116.296 883.288C118.192 883.288 119.632 881.896 120.136 880.528ZM126.691 872.368H130.171V879.304C130.171 881.656 131.587 883.216 134.347 883.216C135.307 883.216 135.955 883.072 136.579 882.928V881.392C135.859 881.536 135.091 881.608 134.347 881.608C132.763 881.608 131.851 880.792 131.851 879.088V872.368H136.579V871H131.851V867.112L130.171 867.832V871H126.691V872.368ZM155.353 865.96V867.544H160.801V883H162.649V867.544H168.097V865.96H155.353ZM173.14 871H171.244L175.996 882.904L175.684 883.792C175.108 885.448 174.316 886.288 172.756 886.288C172.444 886.288 172.18 886.264 171.868 886.24V887.728C172.228 887.8 172.588 887.824 172.924 887.824C174.94 887.824 176.284 886.744 177.364 883.768L182.14 871H180.364L176.812 881.056L173.14 871ZM188.407 871H186.823V887.68H188.479V880.744C189.031 882.256 190.615 883.288 192.223 883.288C195.415 883.288 197.311 880.72 197.311 876.976C197.311 873.328 195.487 870.712 192.343 870.712C190.543 870.712 189.007 872.008 188.407 873.544V871ZM188.455 877.24V876.712C188.455 874.096 189.847 872.2 192.031 872.2C194.335 872.2 195.535 874.12 195.535 876.976C195.535 879.904 194.239 881.8 191.983 881.8C189.775 881.8 188.455 879.904 188.455 877.24ZM211.329 877.36C211.329 877.12 211.353 876.856 211.353 876.616C211.353 873.376 210.009 870.712 206.337 870.712C203.049 870.712 200.985 873.112 200.985 876.784C200.985 880.744 202.809 883.288 206.481 883.288C208.809 883.288 210.441 882.088 211.305 880.048L209.865 879.328C209.337 880.624 208.329 881.8 206.481 881.8C204.105 881.8 202.689 880 202.689 877.408V877.36H211.329ZM206.265 872.032C208.689 872.032 209.649 873.88 209.625 875.968H202.689C202.713 874 203.913 872.032 206.265 872.032ZM232.671 875.536V877.12H239.607V875.536H232.671ZM263.517 883H265.437V882.64C265.461 877.408 267.429 872.08 271.389 867.736V866.32H260.541V867.952H269.373C265.629 872.488 263.493 877.552 263.517 882.784V883ZM280.703 883.36C284.159 883.36 286.343 880.96 286.343 877.48C286.343 873.928 284.447 871.672 281.327 871.672C279.431 871.672 278.039 872.488 277.223 874.072L277.871 867.856H285.551V866.32H276.527L275.567 875.944L277.271 876.136C277.703 874.408 278.879 873.16 280.871 873.16C283.391 873.16 284.591 875.032 284.591 877.576C284.591 880.264 283.127 881.848 280.775 881.848C278.687 881.848 277.487 880.552 277.127 878.728L275.303 878.944C275.735 881.656 277.823 883.36 280.703 883.36ZM292.586 871H291.002V887.68H292.658V880.744C293.21 882.256 294.794 883.288 296.402 883.288C299.594 883.288 301.49 880.72 301.49 876.976C301.49 873.328 299.666 870.712 296.522 870.712C294.722 870.712 293.186 872.008 292.586 873.544V871ZM292.634 877.24V876.712C292.634 874.096 294.026 872.2 296.21 872.2C298.514 872.2 299.714 874.12 299.714 876.976C299.714 879.904 298.418 881.8 296.162 881.8C293.954 881.8 292.634 879.904 292.634 877.24ZM305.285 872.368H308.765V879.304C308.765 881.656 310.181 883.216 312.941 883.216C313.901 883.216 314.549 883.072 315.173 882.928V881.392C314.453 881.536 313.685 881.608 312.941 881.608C311.357 881.608 310.445 880.792 310.445 879.088V872.368H315.173V871H310.445V867.112L308.765 867.832V871H305.285V872.368Z" fill="white"/>
<path d="M919.704 951.192C921.992 951.192 923.384 949.608 923.384 947.896C923.384 946.328 922.264 945.368 920.392 944.872L918.952 944.488C917.48 944.104 917.352 943.336 917.352 942.952C917.352 941.864 918.376 941.128 919.48 941.128C920.664 941.128 921.576 941.88 921.576 942.984H923.016C923.016 941.016 921.464 939.784 919.528 939.784C917.608 939.784 915.896 941.064 915.896 942.968C915.896 943.864 916.264 945.24 918.6 945.8L920.024 946.152C920.952 946.392 921.928 946.872 921.928 947.944C921.928 948.92 921.128 949.848 919.704 949.848C918.232 949.848 917.304 948.856 917.256 947.88H915.816C915.832 949.592 917.384 951.192 919.704 951.192ZM929.197 943.336C928.381 943.336 927.165 943.752 926.717 944.664V939.464H925.325V951H926.717V946.952C926.717 945.336 927.965 944.712 929.005 944.712C930.045 944.712 930.813 945.512 930.813 946.76V951H932.205V946.68C932.221 944.584 931.053 943.336 929.197 943.336ZM940.417 944.696C939.921 943.816 938.865 943.336 937.745 943.336C935.633 943.336 934.017 945.048 934.017 947.256C934.017 949.544 935.729 951.192 937.681 951.192C938.881 951.192 939.921 950.568 940.417 949.672V951H941.809V943.528H940.417V944.696ZM937.889 949.88C936.513 949.88 935.424 948.68 935.424 947.256C935.424 945.848 936.513 944.648 937.873 944.648C939.121 944.648 940.417 945.72 940.417 947.256C940.417 948.776 939.217 949.88 937.889 949.88ZM947.751 943.336C946.759 943.336 946.039 943.912 945.655 945.224V943.528H944.247V951H945.655V948.264C945.655 946.296 946.247 944.68 947.735 944.68C948.023 944.68 948.423 944.744 948.823 944.936L949.047 943.624C948.823 943.48 948.279 943.336 947.751 943.336ZM957.241 947.24C957.241 944.872 955.657 943.336 953.529 943.336C951.401 943.336 949.689 944.872 949.689 947.24C949.689 949.608 951.401 951.192 953.529 951.192C954.969 951.192 956.313 950.488 956.953 949.192L955.753 948.712C955.321 949.464 954.489 949.88 953.577 949.88C952.297 949.88 951.337 949.192 951.129 947.864H957.209C957.225 947.656 957.241 947.448 957.241 947.24ZM951.145 946.664C951.369 945.32 952.265 944.648 953.529 944.648C954.761 944.648 955.673 945.384 955.849 946.664H951.145ZM969.073 944.696C968.577 943.816 967.521 943.336 966.401 943.336C964.289 943.336 962.673 945.048 962.673 947.256C962.673 949.544 964.385 951.192 966.337 951.192C967.537 951.192 968.577 950.568 969.073 949.672V951H970.465V943.528H969.073V944.696ZM966.545 949.88C965.169 949.88 964.081 948.68 964.081 947.256C964.081 945.848 965.169 944.648 966.529 944.648C967.777 944.648 969.073 945.72 969.073 947.256C969.073 948.776 967.873 949.88 966.545 949.88ZM984.55 948.84L982.63 943.528H981.27L979.366 948.84L977.462 943.528H975.958L978.806 951H979.958L981.942 945.448L984.006 951H985.174L987.958 943.528H986.454L984.55 948.84ZM990.107 941.704C990.651 941.704 991.099 941.304 991.099 940.776C991.099 940.248 990.651 939.848 990.107 939.848C989.579 939.848 989.131 940.248 989.131 940.776C989.131 941.304 989.579 941.704 990.107 941.704ZM990.811 951V943.528H989.419V951H990.811ZM995.424 951.192C996.976 951.192 998.32 950.312 998.32 948.92C998.32 948.072 997.92 947.144 996.368 946.76L995.264 946.488C994.784 946.376 994.304 946.104 994.304 945.592C994.304 945.016 994.784 944.552 995.504 944.552C996.096 944.552 996.688 944.936 996.704 945.512H998.048C998.048 944.008 996.736 943.336 995.472 943.336C993.968 943.336 992.912 944.312 992.912 945.544C992.912 946.744 993.632 947.352 994.88 947.688L995.904 947.928C996.496 948.056 996.928 948.344 996.928 948.904C996.928 949.512 996.368 949.976 995.424 949.976C994.512 949.976 993.952 949.448 993.936 948.808H992.64C992.704 950.344 994.08 951.192 995.424 951.192ZM1004.06 943.336C1003.24 943.336 1002.02 943.752 1001.58 944.664V939.464H1000.18V951H1001.58V946.952C1001.58 945.336 1002.82 944.712 1003.86 944.712C1004.9 944.712 1005.67 945.512 1005.67 946.76V951H1007.06V946.68C1007.08 944.584 1005.91 943.336 1004.06 943.336ZM1021.03 948.84L1019.11 943.528H1017.75L1015.85 948.84L1013.95 943.528H1012.44L1015.29 951H1016.44L1018.43 945.448L1020.49 951H1021.66L1024.44 943.528H1022.94L1021.03 948.84ZM1026.59 941.704C1027.14 941.704 1027.58 941.304 1027.58 940.776C1027.58 940.248 1027.14 939.848 1026.59 939.848C1026.06 939.848 1025.62 940.248 1025.62 940.776C1025.62 941.304 1026.06 941.704 1026.59 941.704ZM1027.3 951V943.528H1025.9V951H1027.3ZM1031.68 943.528V940.712H1030.29V943.528H1028.95V944.728H1030.29V951H1031.68V944.728H1033.3V943.528H1031.68ZM1038.73 943.336C1037.91 943.336 1036.7 943.752 1036.25 944.664V939.464H1034.86V951H1036.25V946.952C1036.25 945.336 1037.5 944.712 1038.54 944.712C1039.58 944.712 1040.34 945.512 1040.34 946.76V951H1041.74V946.68C1041.75 944.584 1040.58 943.336 1038.73 943.336ZM1050.07 943.528V940.712H1048.68V943.528H1047.34V944.728H1048.68V951H1050.07V944.728H1051.69V943.528H1050.07ZM1057.12 943.336C1056.3 943.336 1055.09 943.752 1054.64 944.664V939.464H1053.25V951H1054.64V946.952C1054.64 945.336 1055.89 944.712 1056.93 944.712C1057.97 944.712 1058.74 945.512 1058.74 946.76V951H1060.13V946.68C1060.14 944.584 1058.98 943.336 1057.12 943.336ZM1069.51 947.24C1069.51 944.872 1067.92 943.336 1065.79 943.336C1063.67 943.336 1061.95 944.872 1061.95 947.24C1061.95 949.608 1063.67 951.192 1065.79 951.192C1067.23 951.192 1068.58 950.488 1069.22 949.192L1068.02 948.712C1067.59 949.464 1066.75 949.88 1065.84 949.88C1064.56 949.88 1063.6 949.192 1063.39 947.864H1069.47C1069.49 947.656 1069.51 947.448 1069.51 947.24ZM1063.41 946.664C1063.63 945.32 1064.53 944.648 1065.79 944.648C1067.03 944.648 1067.94 945.384 1068.11 946.664H1063.41ZM1083.05 948.84L1081.13 943.528H1079.77L1077.87 948.84L1075.96 943.528H1074.46L1077.31 951H1078.46L1080.44 945.448L1082.51 951H1083.67L1086.46 943.528H1084.95L1083.05 948.84ZM1091.19 951.192C1093.31 951.192 1095.11 949.624 1095.11 947.256C1095.11 944.888 1093.31 943.336 1091.19 943.336C1089.06 943.336 1087.28 944.888 1087.28 947.256C1087.28 949.624 1089.06 951.192 1091.19 951.192ZM1091.19 949.88C1089.83 949.88 1088.69 948.808 1088.69 947.256C1088.69 945.72 1089.83 944.648 1091.19 944.648C1092.56 944.648 1093.71 945.72 1093.71 947.256C1093.71 948.808 1092.56 949.88 1091.19 949.88ZM1100.55 943.336C1099.56 943.336 1098.84 943.912 1098.45 945.224V943.528H1097.04V951H1098.45V948.264C1098.45 946.296 1099.04 944.68 1100.53 944.68C1100.82 944.68 1101.22 944.744 1101.62 944.936L1101.84 943.624C1101.62 943.48 1101.08 943.336 1100.55 943.336ZM1104.62 951V939.464H1103.23V951H1104.62ZM1112.95 944.696C1112.45 943.816 1111.4 943.336 1110.28 943.336C1108.23 943.336 1106.55 944.888 1106.55 947.256C1106.55 949.608 1108.24 951.192 1110.29 951.192C1111.36 951.192 1112.45 950.68 1112.95 949.832V951H1114.34V939.464H1112.95V944.696ZM1110.4 949.88C1109.04 949.88 1107.96 948.728 1107.96 947.24C1107.96 945.736 1109.04 944.648 1110.4 944.648C1111.64 944.648 1112.95 945.624 1112.95 947.24C1112.95 948.84 1111.75 949.88 1110.4 949.88ZM1126.71 944.696C1126.22 943.816 1125.16 943.336 1124.04 943.336C1121.93 943.336 1120.31 945.048 1120.31 947.256C1120.31 949.544 1122.03 951.192 1123.98 951.192C1125.18 951.192 1126.22 950.568 1126.71 949.672V951H1128.11V943.528H1126.71V944.696ZM1124.19 949.88C1122.81 949.88 1121.72 948.68 1121.72 947.256C1121.72 945.848 1122.81 944.648 1124.17 944.648C1125.42 944.648 1126.71 945.72 1126.71 947.256C1126.71 948.776 1125.51 949.88 1124.19 949.88ZM1134.42 943.336C1133.6 943.336 1132.38 943.752 1131.94 944.664V943.528H1130.54V951H1131.94V946.952C1131.94 945.336 1133.18 944.712 1134.22 944.712C1135.26 944.712 1136.03 945.512 1136.03 946.76V951H1137.42V946.68C1137.44 944.584 1136.27 943.336 1134.42 943.336ZM1145.65 944.696C1145.16 943.816 1144.1 943.336 1142.98 943.336C1140.93 943.336 1139.25 944.888 1139.25 947.256C1139.25 949.608 1140.95 951.192 1143 951.192C1144.07 951.192 1145.16 950.68 1145.65 949.832V951H1147.04V939.464H1145.65V944.696ZM1143.11 949.88C1141.75 949.88 1140.66 948.728 1140.66 947.24C1140.66 945.736 1141.75 944.648 1143.11 944.648C1144.34 944.648 1145.65 945.624 1145.65 947.24C1145.65 948.84 1144.45 949.88 1143.11 949.88ZM1161.13 948.84L1159.21 943.528H1157.85L1155.94 948.84L1154.04 943.528H1152.54L1155.38 951H1156.54L1158.52 945.448L1160.58 951H1161.75L1164.54 943.528H1163.03L1161.13 948.84ZM1171.76 944.696C1171.26 943.816 1170.21 943.336 1169.09 943.336C1166.98 943.336 1165.36 945.048 1165.36 947.256C1165.36 949.544 1167.07 951.192 1169.02 951.192C1170.22 951.192 1171.26 950.568 1171.76 949.672V951H1173.15V943.528H1171.76V944.696ZM1169.23 949.88C1167.86 949.88 1166.77 948.68 1166.77 947.256C1166.77 945.848 1167.86 944.648 1169.22 944.648C1170.46 944.648 1171.76 945.72 1171.76 947.256C1171.76 948.776 1170.56 949.88 1169.23 949.88ZM1177.56 943.528V940.712H1176.17V943.528H1174.82V944.728H1176.17V951H1177.56V944.728H1179.18V943.528H1177.56ZM1184.06 951.192C1185.23 951.192 1186.26 950.744 1186.91 950.008L1186.03 949.096C1185.57 949.576 1184.9 949.88 1184.11 949.88C1182.64 949.88 1181.46 948.792 1181.46 947.256C1181.46 945.72 1182.64 944.648 1184.11 944.648C1184.9 944.648 1185.57 944.952 1186.03 945.432L1186.91 944.52C1186.26 943.8 1185.23 943.336 1184.06 943.336C1181.92 943.336 1180.05 944.888 1180.05 947.256C1180.05 949.624 1181.92 951.192 1184.06 951.192ZM1192.54 943.336C1191.73 943.336 1190.51 943.752 1190.06 944.664V939.464H1188.67V951H1190.06V946.952C1190.06 945.336 1191.31 944.712 1192.35 944.712C1193.39 944.712 1194.16 945.512 1194.16 946.76V951H1195.55V946.68C1195.57 944.584 1194.4 943.336 1192.54 943.336ZM1202.61 941.704C1203.15 941.704 1203.6 941.304 1203.6 940.776C1203.6 940.248 1203.15 939.848 1202.61 939.848C1202.08 939.848 1201.63 940.248 1201.63 940.776C1201.63 941.304 1202.08 941.704 1202.61 941.704ZM1203.31 951V943.528H1201.92V951H1203.31ZM1207.7 943.528V940.712H1206.31V943.528H1204.96V944.728H1206.31V951H1207.7V944.728H1209.32V943.528H1207.7ZM919.704 975.192C920.872 975.192 921.896 974.744 922.552 974.008L921.672 973.096C921.208 973.576 920.536 973.88 919.752 973.88C918.28 973.88 917.096 972.792 917.096 971.256C917.096 969.72 918.28 968.648 919.752 968.648C920.536 968.648 921.208 968.952 921.672 969.432L922.552 968.52C921.896 967.8 920.872 967.336 919.704 967.336C917.56 967.336 915.688 968.888 915.688 971.256C915.688 973.624 917.56 975.192 919.704 975.192ZM927.514 975.192C929.642 975.192 931.434 973.624 931.434 971.256C931.434 968.888 929.642 967.336 927.514 967.336C925.386 967.336 923.61 968.888 923.61 971.256C923.61 973.624 925.386 975.192 927.514 975.192ZM927.514 973.88C926.154 973.88 925.018 972.808 925.018 971.256C925.018 969.72 926.154 968.648 927.514 968.648C928.89 968.648 930.042 969.72 930.042 971.256C930.042 972.808 928.89 973.88 927.514 973.88ZM942.236 967.336C941.484 967.336 940.316 967.592 939.628 968.936C939.196 967.912 938.252 967.336 937.164 967.336C936.108 967.336 935.132 967.864 934.764 968.68V967.528H933.372V975H934.764V970.952C934.764 969.368 935.82 968.68 936.876 968.68C937.868 968.68 938.556 969.496 938.556 970.76V975H939.948V971.256C939.948 969.592 940.636 968.664 941.964 968.68C943.052 968.68 943.74 969.512 943.74 970.76V975H945.132V970.68C945.132 968.584 944.108 967.336 942.236 967.336ZM954.506 971.24C954.506 968.872 952.922 967.336 950.794 967.336C948.666 967.336 946.954 968.872 946.954 971.24C946.954 973.608 948.666 975.192 950.794 975.192C952.234 975.192 953.578 974.488 954.218 973.192L953.018 972.712C952.586 973.464 951.754 973.88 950.842 973.88C949.562 973.88 948.602 973.192 948.394 971.864H954.474C954.49 971.656 954.506 971.448 954.506 971.24ZM948.41 970.664C948.634 969.32 949.53 968.648 950.794 968.648C952.026 968.648 952.938 969.384 953.114 970.664H948.41ZM962.418 967.528V964.712H961.026V967.528H959.682V968.728H961.026V975H962.418V968.728H964.034V967.528H962.418ZM968.827 975.192C970.955 975.192 972.747 973.624 972.747 971.256C972.747 968.888 970.955 967.336 968.827 967.336C966.699 967.336 964.923 968.888 964.923 971.256C964.923 973.624 966.699 975.192 968.827 975.192ZM968.827 973.88C967.467 973.88 966.331 972.808 966.331 971.256C966.331 969.72 967.467 968.648 968.827 968.648C970.203 968.648 971.355 969.72 971.355 971.256C971.355 972.808 970.203 973.88 968.827 973.88ZM980.124 975V963.464H978.732V975H980.124ZM983.232 965.704C983.776 965.704 984.224 965.304 984.224 964.776C984.224 964.248 983.776 963.848 983.232 963.848C982.704 963.848 982.256 964.248 982.256 964.776C982.256 965.304 982.704 965.704 983.232 965.704ZM983.936 975V967.528H982.544V975H983.936ZM990.581 964.776V963.464H989.781C987.781 963.464 986.965 964.808 986.965 966.76V967.528H985.525V968.728H986.965V975H988.357V968.728H990.101V967.528H988.357V966.568C988.341 965.592 988.693 964.776 990.021 964.776H990.581ZM998.522 971.24C998.522 968.872 996.938 967.336 994.81 967.336C992.682 967.336 990.97 968.872 990.97 971.24C990.97 973.608 992.682 975.192 994.81 975.192C996.25 975.192 997.594 974.488 998.234 973.192L997.034 972.712C996.602 973.464 995.77 973.88 994.858 973.88C993.578 973.88 992.618 973.192 992.41 971.864H998.49C998.506 971.656 998.522 971.448 998.522 971.24ZM992.426 970.664C992.65 969.32 993.546 968.648 994.81 968.648C996.042 968.648 996.954 969.384 997.13 970.664H992.426ZM1010.35 968.696C1009.86 967.816 1008.8 967.336 1007.68 967.336C1005.57 967.336 1003.95 969.048 1003.95 971.256C1003.95 973.544 1005.67 975.192 1007.62 975.192C1008.82 975.192 1009.86 974.568 1010.35 973.672V975H1011.75V967.528H1010.35V968.696ZM1007.83 973.88C1006.45 973.88 1005.36 972.68 1005.36 971.256C1005.36 969.848 1006.45 968.648 1007.81 968.648C1009.06 968.648 1010.35 969.72 1010.35 971.256C1010.35 972.776 1009.15 973.88 1007.83 973.88ZM1016.38 975.192C1017.93 975.192 1019.27 974.312 1019.27 972.92C1019.27 972.072 1018.87 971.144 1017.32 970.76L1016.22 970.488C1015.74 970.376 1015.26 970.104 1015.26 969.592C1015.26 969.016 1015.74 968.552 1016.46 968.552C1017.05 968.552 1017.64 968.936 1017.66 969.512H1019C1019 968.008 1017.69 967.336 1016.42 967.336C1014.92 967.336 1013.86 968.312 1013.86 969.544C1013.86 970.744 1014.58 971.352 1015.83 971.688L1016.86 971.928C1017.45 972.056 1017.88 972.344 1017.88 972.904C1017.88 973.512 1017.32 973.976 1016.38 973.976C1015.46 973.976 1014.9 973.448 1014.89 972.808H1013.59C1013.66 974.344 1015.03 975.192 1016.38 975.192ZM1031.07 968.696C1030.58 967.816 1029.52 967.336 1028.4 967.336C1026.29 967.336 1024.67 969.048 1024.67 971.256C1024.67 973.544 1026.38 975.192 1028.34 975.192C1029.54 975.192 1030.58 974.568 1031.07 973.672V975H1032.46V967.528H1031.07V968.696ZM1028.54 973.88C1027.17 973.88 1026.08 972.68 1026.08 971.256C1026.08 969.848 1027.17 968.648 1028.53 968.648C1029.78 968.648 1031.07 969.72 1031.07 971.256C1031.07 972.776 1029.87 973.88 1028.54 973.88ZM1043 967.336C1041.93 967.336 1040.84 967.848 1040.34 968.696V967.528H1038.95V978.632H1040.34V973.832C1040.84 974.712 1041.89 975.192 1043.01 975.192C1045.06 975.192 1046.74 973.64 1046.74 971.272C1046.74 968.92 1045.05 967.336 1043 967.336ZM1042.87 973.88C1041.65 973.88 1040.34 972.904 1040.34 971.288C1040.34 969.688 1041.54 968.648 1042.87 968.648C1044.25 968.648 1045.33 969.8 1045.33 971.288C1045.33 972.792 1044.25 973.88 1042.87 973.88ZM1055.74 971.24C1055.74 968.872 1054.16 967.336 1052.03 967.336C1049.9 967.336 1048.19 968.872 1048.19 971.24C1048.19 973.608 1049.9 975.192 1052.03 975.192C1053.47 975.192 1054.81 974.488 1055.45 973.192L1054.25 972.712C1053.82 973.464 1052.99 973.88 1052.08 973.88C1050.8 973.88 1049.84 973.192 1049.63 971.864H1055.71C1055.72 971.656 1055.74 971.448 1055.74 971.24ZM1049.64 970.664C1049.87 969.32 1050.76 968.648 1052.03 968.648C1053.26 968.648 1054.17 969.384 1054.35 970.664H1049.64ZM1061.14 967.336C1060.15 967.336 1059.43 967.912 1059.05 969.224V967.528H1057.64V975H1059.05V972.264C1059.05 970.296 1059.64 968.68 1061.13 968.68C1061.41 968.68 1061.81 968.744 1062.21 968.936L1062.44 967.624C1062.21 967.48 1061.67 967.336 1061.14 967.336ZM1065.92 975.192C1067.48 975.192 1068.82 974.312 1068.82 972.92C1068.82 972.072 1068.42 971.144 1066.87 970.76L1065.76 970.488C1065.28 970.376 1064.8 970.104 1064.8 969.592C1064.8 969.016 1065.28 968.552 1066 968.552C1066.6 968.552 1067.19 968.936 1067.2 969.512H1068.55C1068.55 968.008 1067.24 967.336 1065.97 967.336C1064.47 967.336 1063.41 968.312 1063.41 969.544C1063.41 970.744 1064.13 971.352 1065.38 971.688L1066.4 971.928C1067 972.056 1067.43 972.344 1067.43 972.904C1067.43 973.512 1066.87 973.976 1065.92 973.976C1065.01 973.976 1064.45 973.448 1064.44 972.808H1063.14C1063.2 974.344 1064.58 975.192 1065.92 975.192ZM1074.08 975.192C1076.2 975.192 1078 973.624 1078 971.256C1078 968.888 1076.2 967.336 1074.08 967.336C1071.95 967.336 1070.17 968.888 1070.17 971.256C1070.17 973.624 1071.95 975.192 1074.08 975.192ZM1074.08 973.88C1072.72 973.88 1071.58 972.808 1071.58 971.256C1071.58 969.72 1072.72 968.648 1074.08 968.648C1075.45 968.648 1076.6 969.72 1076.6 971.256C1076.6 972.808 1075.45 973.88 1074.08 973.88ZM1083.81 967.336C1082.99 967.336 1081.77 967.752 1081.33 968.664V967.528H1079.93V975H1081.33V970.952C1081.33 969.336 1082.57 968.712 1083.61 968.712C1084.65 968.712 1085.42 969.512 1085.42 970.76V975H1086.81V970.68C1086.83 968.584 1085.66 967.336 1083.81 967.336ZM1095.03 968.696C1094.53 967.816 1093.47 967.336 1092.35 967.336C1090.24 967.336 1088.63 969.048 1088.63 971.256C1088.63 973.544 1090.34 975.192 1092.29 975.192C1093.49 975.192 1094.53 974.568 1095.03 973.672V975H1096.42V967.528H1095.03V968.696ZM1092.5 973.88C1091.12 973.88 1090.03 972.68 1090.03 971.256C1090.03 969.848 1091.12 968.648 1092.48 968.648C1093.73 968.648 1095.03 969.72 1095.03 971.256C1095.03 972.776 1093.83 973.88 1092.5 973.88ZM1100.25 975V963.464H1098.86V975H1100.25ZM1103.36 965.704C1103.9 965.704 1104.35 965.304 1104.35 964.776C1104.35 964.248 1103.9 963.848 1103.36 963.848C1102.83 963.848 1102.38 964.248 1102.38 964.776C1102.38 965.304 1102.83 965.704 1103.36 965.704ZM1104.06 975V967.528H1102.67V975H1104.06ZM1106.15 967.528V968.84H1110.43L1105.91 973.848V975H1112.47V973.688H1107.86L1112.47 968.68V967.528H1106.15ZM1121.37 971.24C1121.37 968.872 1119.78 967.336 1117.65 967.336C1115.53 967.336 1113.81 968.872 1113.81 971.24C1113.81 973.608 1115.53 975.192 1117.65 975.192C1119.09 975.192 1120.44 974.488 1121.08 973.192L1119.88 972.712C1119.45 973.464 1118.61 973.88 1117.7 973.88C1116.42 973.88 1115.46 973.192 1115.25 971.864H1121.33C1121.35 971.656 1121.37 971.448 1121.37 971.24ZM1115.27 970.664C1115.49 969.32 1116.39 968.648 1117.65 968.648C1118.89 968.648 1119.8 969.384 1119.97 970.664H1115.27ZM1129.17 968.696C1128.67 967.816 1127.61 967.336 1126.49 967.336C1124.45 967.336 1122.77 968.888 1122.77 971.256C1122.77 973.608 1124.46 975.192 1126.51 975.192C1127.58 975.192 1128.67 974.68 1129.17 973.832V975H1130.56V963.464H1129.17V968.696ZM1126.62 973.88C1125.26 973.88 1124.17 972.728 1124.17 971.24C1124.17 969.736 1125.26 968.648 1126.62 968.648C1127.85 968.648 1129.17 969.624 1129.17 971.24C1129.17 972.84 1127.97 973.88 1126.62 973.88ZM1142.95 968.696C1142.45 967.816 1141.4 967.336 1140.28 967.336C1138.23 967.336 1136.55 968.888 1136.55 971.256C1136.55 973.608 1138.24 975.192 1140.29 975.192C1141.36 975.192 1142.45 974.68 1142.95 973.832V975H1144.34V963.464H1142.95V968.696ZM1140.4 973.88C1139.04 973.88 1137.96 972.728 1137.96 971.24C1137.96 969.736 1139.04 968.648 1140.4 968.648C1141.64 968.648 1142.95 969.624 1142.95 971.24C1142.95 972.84 1141.75 973.88 1140.4 973.88ZM1147.47 965.704C1148.01 965.704 1148.46 965.304 1148.46 964.776C1148.46 964.248 1148.01 963.848 1147.47 963.848C1146.94 963.848 1146.49 964.248 1146.49 964.776C1146.49 965.304 1146.94 965.704 1147.47 965.704ZM1148.17 975V967.528H1146.78V975H1148.17ZM1156.5 968.696C1156 967.832 1154.94 967.336 1153.82 967.336C1151.78 967.336 1150.1 968.888 1150.1 971.256C1150.1 973.608 1151.79 975.192 1153.84 975.192C1154.91 975.192 1156 974.68 1156.5 973.832V974.056C1156.5 976.584 1155.47 977.512 1153.82 977.512C1152.99 977.512 1152.11 977.048 1151.65 976.2L1150.46 976.824C1151.2 978.136 1152.46 978.824 1153.82 978.824C1156.29 978.824 1157.89 977.496 1157.89 973.96V967.528H1156.5V968.696ZM1153.95 973.88C1152.59 973.88 1151.5 972.728 1151.5 971.24C1151.5 969.736 1152.59 968.648 1153.95 968.648C1155.18 968.648 1156.5 969.624 1156.5 971.24C1156.5 972.84 1155.3 973.88 1153.95 973.88ZM1161.01 965.704C1161.56 965.704 1162.01 965.304 1162.01 964.776C1162.01 964.248 1161.56 963.848 1161.01 963.848C1160.49 963.848 1160.04 964.248 1160.04 964.776C1160.04 965.304 1160.49 965.704 1161.01 965.704ZM1161.72 975V967.528H1160.33V975H1161.72ZM1166.11 967.528V964.712H1164.71V967.528H1163.37V968.728H1164.71V975H1166.11V968.728H1167.72V967.528H1166.11ZM1175.01 968.696C1174.51 967.816 1173.46 967.336 1172.34 967.336C1170.23 967.336 1168.61 969.048 1168.61 971.256C1168.61 973.544 1170.32 975.192 1172.27 975.192C1173.47 975.192 1174.51 974.568 1175.01 973.672V975H1176.4V967.528H1175.01V968.696ZM1172.48 973.88C1171.11 973.88 1170.02 972.68 1170.02 971.256C1170.02 969.848 1171.11 968.648 1172.47 968.648C1173.71 968.648 1175.01 969.72 1175.01 971.256C1175.01 972.776 1173.81 973.88 1172.48 973.88ZM1180.23 975V963.464H1178.84V975H1180.23ZM1187.52 965.704C1188.06 965.704 1188.51 965.304 1188.51 964.776C1188.51 964.248 1188.06 963.848 1187.52 963.848C1186.99 963.848 1186.54 964.248 1186.54 964.776C1186.54 965.304 1186.99 965.704 1187.52 965.704ZM1185.55 978.632C1187.56 978.632 1188.22 977.288 1188.22 975.432V967.528H1186.83V975.416C1186.84 976.296 1186.67 977.32 1185.44 977.32H1184.59V978.632H1185.55ZM1197.69 971.24C1197.69 968.872 1196.11 967.336 1193.98 967.336C1191.85 967.336 1190.14 968.872 1190.14 971.24C1190.14 973.608 1191.85 975.192 1193.98 975.192C1195.42 975.192 1196.77 974.488 1197.41 973.192L1196.21 972.712C1195.77 973.464 1194.94 973.88 1194.03 973.88C1192.75 973.88 1191.79 973.192 1191.58 971.864H1197.66C1197.68 971.656 1197.69 971.448 1197.69 971.24ZM1191.6 970.664C1191.82 969.32 1192.72 968.648 1193.98 968.648C1195.21 968.648 1196.13 969.384 1196.3 970.664H1191.6ZM1200.98 975V963.464H1199.59V975H1200.98ZM1204.8 975V963.464H1203.4V975H1204.8ZM1210.03 973.032L1207.78 967.528H1206.27L1209.28 974.776L1207.71 978.632H1209.18L1213.82 967.528H1212.32L1210.03 973.032ZM1219.47 964.776V963.464H1218.67C1216.67 963.464 1215.86 964.808 1215.86 966.76V967.528H1214.42V968.728H1215.86V975H1217.25V968.728H1218.99V967.528H1217.25V966.568C1217.23 965.592 1217.58 964.776 1218.91 964.776H1219.47ZM1221.2 965.704C1221.74 965.704 1222.19 965.304 1222.19 964.776C1222.19 964.248 1221.74 963.848 1221.2 963.848C1220.67 963.848 1220.22 964.248 1220.22 964.776C1220.22 965.304 1220.67 965.704 1221.2 965.704ZM1221.9 975V967.528H1220.51V975H1221.9ZM1226.52 975.192C1228.07 975.192 1229.41 974.312 1229.41 972.92C1229.41 972.072 1229.01 971.144 1227.46 970.76L1226.36 970.488C1225.88 970.376 1225.4 970.104 1225.4 969.592C1225.4 969.016 1225.88 968.552 1226.6 968.552C1227.19 968.552 1227.78 968.936 1227.8 969.512H1229.14C1229.14 968.008 1227.83 967.336 1226.57 967.336C1225.06 967.336 1224.01 968.312 1224.01 969.544C1224.01 970.744 1224.73 971.352 1225.97 971.688L1227 971.928C1227.59 972.056 1228.02 972.344 1228.02 972.904C1228.02 973.512 1227.46 973.976 1226.52 973.976C1225.61 973.976 1225.05 973.448 1225.03 972.808H1223.73C1223.8 974.344 1225.17 975.192 1226.52 975.192ZM1235.15 967.336C1234.33 967.336 1233.12 967.752 1232.67 968.664V963.464H1231.28V975H1232.67V970.952C1232.67 969.336 1233.92 968.712 1234.96 968.712C1236 968.712 1236.77 969.512 1236.77 970.76V975H1238.16V970.68C1238.17 968.584 1237.01 967.336 1235.15 967.336ZM1241.2 975.16C1241.76 975.16 1242.24 974.76 1242.24 974.2C1242.24 973.624 1241.76 973.208 1241.2 973.208C1240.66 973.208 1240.19 973.624 1240.19 974.2C1240.19 974.76 1240.66 975.16 1241.2 975.16Z" fill="white"/>
<path d="M1666.61 88.6582C1668.26 88.0218 1668.82 86.4691 1668.82 84.9418C1668.82 82.1927 1666.99 80.4618 1664.09 80.4618H1657.5V98H1664.65C1667.86 98 1669.77 95.5818 1669.77 93.0618C1669.77 91.1527 1668.67 89.1164 1666.61 88.6582ZM1666.51 85.1709C1666.51 86.6727 1665.72 87.7673 1664.14 87.7673H1659.81V82.6H1664.06C1665.67 82.6 1666.51 83.6691 1666.51 85.1709ZM1659.81 95.8618V89.8036H1664.29C1666.43 89.8036 1667.45 91.28 1667.45 92.8582C1667.45 94.4873 1666.33 95.8618 1664.17 95.8618H1659.81ZM1678.45 85.8073C1676.87 85.8073 1675.72 86.7236 1675.11 88.8109V86.1127H1672.87V98H1675.11V93.6473C1675.11 90.5164 1676.05 87.9455 1678.42 87.9455C1678.88 87.9455 1679.52 88.0473 1680.15 88.3527L1680.51 86.2655C1680.15 86.0364 1679.29 85.8073 1678.45 85.8073ZM1691.69 87.9709C1690.9 86.5709 1689.22 85.8073 1687.43 85.8073C1684.07 85.8073 1681.5 88.5309 1681.5 92.0436C1681.5 95.6836 1684.23 98.3055 1687.33 98.3055C1689.24 98.3055 1690.9 97.3127 1691.69 95.8873V98H1693.9V86.1127H1691.69V87.9709ZM1687.66 96.2182C1685.47 96.2182 1683.74 94.3091 1683.74 92.0436C1683.74 89.8036 1685.47 87.8945 1687.64 87.8945C1689.62 87.8945 1691.69 89.6 1691.69 92.0436C1691.69 94.4618 1689.78 96.2182 1687.66 96.2182ZM1703.94 85.8073C1702.64 85.8073 1700.71 86.4691 1699.99 87.92V86.1127H1697.78V98H1699.99V91.56C1699.99 88.9891 1701.98 87.9964 1703.63 87.9964C1705.29 87.9964 1706.51 89.2691 1706.51 91.2545V98H1708.73V91.1273C1708.75 87.7927 1706.89 85.8073 1703.94 85.8073ZM1721.81 87.9709C1721.02 86.5709 1719.34 85.8073 1717.56 85.8073C1714.3 85.8073 1711.63 88.2764 1711.63 92.0436C1711.63 95.7855 1714.33 98.3055 1717.59 98.3055C1719.29 98.3055 1721.02 97.4909 1721.81 96.1418V98H1724.03V79.6473H1721.81V87.9709ZM1717.77 96.2182C1715.6 96.2182 1713.87 94.3855 1713.87 92.0182C1713.87 89.6255 1715.6 87.8945 1717.77 87.8945C1719.73 87.8945 1721.81 89.4473 1721.81 92.0182C1721.81 94.5636 1719.9 96.2182 1717.77 96.2182ZM1742.52 98.3055C1747.51 98.3055 1750.81 95.3527 1750.81 89.2182H1743.18V91.2291H1748.27C1748.27 94.0291 1745.67 96.1673 1742.52 96.1673C1738.83 96.1673 1735.95 93.0364 1735.95 89.2691C1735.95 85.5018 1738.83 82.2945 1742.52 82.2945C1744.17 82.2945 1745.7 82.9564 1746.82 83.9491L1748.42 82.4473C1746.89 81.0473 1744.83 80.1564 1742.52 80.1564C1737.53 80.1564 1733.63 84.28 1733.63 89.2691C1733.63 94.2327 1737.53 98.3055 1742.52 98.3055ZM1762.19 92.6545C1762.16 95.2255 1760.18 96.2182 1758.52 96.2182C1756.87 96.2182 1755.67 94.9455 1755.67 92.9345V86.1127H1753.46V92.9855C1753.43 96.32 1755.27 98.3055 1758.24 98.3055C1759.57 98.3055 1761.48 97.6436 1762.19 96.1418V98H1764.4V86.1127H1762.19V92.6545ZM1769.35 83.2109C1770.21 83.2109 1770.92 82.5745 1770.92 81.7345C1770.92 80.8945 1770.21 80.2582 1769.35 80.2582C1768.51 80.2582 1767.79 80.8945 1767.79 81.7345C1767.79 82.5745 1768.51 83.2109 1769.35 83.2109ZM1770.47 98V86.1127H1768.25V98H1770.47ZM1783.71 87.9709C1782.92 86.5709 1781.24 85.8073 1779.46 85.8073C1776.2 85.8073 1773.53 88.2764 1773.53 92.0436C1773.53 95.7855 1776.23 98.3055 1779.48 98.3055C1781.19 98.3055 1782.92 97.4909 1783.71 96.1418V98H1785.92V79.6473H1783.71V87.9709ZM1779.66 96.2182C1777.5 96.2182 1775.77 94.3855 1775.77 92.0182C1775.77 89.6255 1777.5 87.8945 1779.66 87.8945C1781.62 87.8945 1783.71 89.4473 1783.71 92.0182C1783.71 94.5636 1781.8 96.2182 1779.66 96.2182ZM1792.02 98V79.6473H1789.8V98H1792.02ZM1796.96 83.2109C1797.83 83.2109 1798.54 82.5745 1798.54 81.7345C1798.54 80.8945 1797.83 80.2582 1796.96 80.2582C1796.12 80.2582 1795.41 80.8945 1795.41 81.7345C1795.41 82.5745 1796.12 83.2109 1796.96 83.2109ZM1798.08 98V86.1127H1795.87V98H1798.08ZM1808.09 85.8073C1806.8 85.8073 1804.86 86.4691 1804.15 87.92V86.1127H1801.93V98H1804.15V91.56C1804.15 88.9891 1806.13 87.9964 1807.79 87.9964C1809.44 87.9964 1810.67 89.2691 1810.67 91.2545V98H1812.88V91.1273C1812.91 87.7927 1811.05 85.8073 1808.09 85.8073ZM1827.8 92.0182C1827.8 88.2509 1825.28 85.8073 1821.9 85.8073C1818.51 85.8073 1815.79 88.2509 1815.79 92.0182C1815.79 95.7855 1818.51 98.3055 1821.9 98.3055C1824.19 98.3055 1826.32 97.1855 1827.34 95.1236L1825.43 94.36C1824.75 95.5564 1823.42 96.2182 1821.97 96.2182C1819.94 96.2182 1818.41 95.1236 1818.08 93.0109H1827.75C1827.78 92.68 1827.8 92.3491 1827.8 92.0182ZM1818.1 91.1018C1818.46 88.9636 1819.88 87.8945 1821.9 87.8945C1823.86 87.8945 1825.31 89.0655 1825.59 91.1018H1818.1ZM1834.31 98.3055C1836.78 98.3055 1838.91 96.9055 1838.91 94.6909C1838.91 93.3418 1838.28 91.8655 1835.81 91.2545L1834.05 90.8218C1833.29 90.6436 1832.52 90.2109 1832.52 89.3964C1832.52 88.48 1833.29 87.7418 1834.43 87.7418C1835.38 87.7418 1836.32 88.3527 1836.34 89.2691H1838.48C1838.48 86.8764 1836.39 85.8073 1834.38 85.8073C1831.99 85.8073 1830.31 87.36 1830.31 89.32C1830.31 91.2291 1831.46 92.1964 1833.44 92.7309L1835.07 93.1127C1836.01 93.3164 1836.7 93.7745 1836.7 94.6655C1836.7 95.6327 1835.81 96.3709 1834.31 96.3709C1832.86 96.3709 1831.96 95.5309 1831.94 94.5127H1829.88C1829.98 96.9564 1832.17 98.3055 1834.31 98.3055Z" fill="white"/>
<path d="M126 89H65" stroke="white" stroke-width="3"/>
<path d="M142.262 98V82.4218H136.713V79.7745H150.586V82.4218H145.037V98H142.262ZM152.622 103.625C151.825 103.625 151.138 103.498 150.561 103.244V100.647C150.713 100.749 150.959 100.859 151.299 100.978C151.655 101.097 152.037 101.156 152.444 101.156C152.987 101.156 153.446 101.004 153.819 100.698C154.192 100.393 154.557 99.8158 154.913 98.9673L155.448 97.6945L150.102 84.6109H153.157L156.822 94.0545H156.924L160.539 84.6109H163.517L157.255 99.8836C156.695 101.258 156.059 102.225 155.346 102.785C154.65 103.345 153.742 103.625 152.622 103.625ZM165.724 103.498V84.6109H168.295V86.3673H168.448C168.787 85.7903 169.313 85.2897 170.026 84.8655C170.756 84.4242 171.604 84.2036 172.571 84.2036C173.742 84.2036 174.778 84.4921 175.677 85.0691C176.576 85.6291 177.281 86.4436 177.79 87.5127C178.299 88.5648 178.553 89.8291 178.553 91.3055C178.553 92.7818 178.299 94.0545 177.79 95.1236C177.281 96.1758 176.576 96.9903 175.677 97.5673C174.778 98.1273 173.742 98.4073 172.571 98.4073C171.553 98.4073 170.688 98.2036 169.975 97.7964C169.279 97.3721 168.77 96.88 168.448 96.32H168.295L168.448 98.2036V103.498H165.724ZM172.062 95.8873C173.148 95.8873 174.048 95.5055 174.761 94.7418C175.473 93.9612 175.83 92.8158 175.83 91.3055C175.83 89.7952 175.473 88.6582 174.761 87.8945C174.048 87.1139 173.148 86.7236 172.062 86.7236C170.993 86.7236 170.094 87.1139 169.364 87.8945C168.651 88.6582 168.295 89.7952 168.295 91.3055C168.295 92.8158 168.651 93.9612 169.364 94.7418C170.094 95.5055 170.993 95.8873 172.062 95.8873ZM187.034 98.4073C185.744 98.4073 184.616 98.1103 183.648 97.5164C182.698 96.9055 181.96 96.0739 181.434 95.0218C180.925 93.9527 180.67 92.7224 180.67 91.3309C180.67 89.9055 180.942 88.6582 181.485 87.5891C182.028 86.52 182.774 85.6885 183.725 85.0945C184.692 84.5006 185.795 84.2036 187.034 84.2036C189.053 84.2036 190.581 84.7721 191.616 85.9091C192.668 87.0461 193.194 88.5988 193.194 90.5673C193.194 91.0594 193.168 91.5006 193.117 91.8909H183.343C183.428 93.2145 183.818 94.2242 184.514 94.92C185.21 95.6158 186.084 95.9636 187.136 95.9636C188.069 95.9636 188.79 95.76 189.299 95.3527C189.825 94.9285 190.207 94.4024 190.445 93.7745L192.837 94.4109C192.498 95.5648 191.853 96.5236 190.903 97.2873C189.953 98.0339 188.663 98.4073 187.034 98.4073ZM187.059 86.52C186.143 86.52 185.362 86.8 184.717 87.36C184.09 87.92 183.674 88.743 183.47 89.8291H190.496C190.445 88.8279 190.131 88.0303 189.554 87.4364C188.977 86.8255 188.145 86.52 187.059 86.52Z" fill="white"/>
</svg>
