<svg width="1920" height="1080" viewBox="0 0 1920 1080" fill="none" xmlns="http://www.w3.org/2000/svg">
<rect width="1920" height="1080" fill="#02053A"/>
<rect x="67" y="658" width="318.824" height="70" rx="35" fill="white" fill-opacity="0.1"/>
<path d="M119.249 702.393C122.824 702.393 124.999 699.918 124.999 697.243C124.999 694.793 123.249 693.293 120.324 692.518L118.074 691.918C115.774 691.318 115.574 690.118 115.574 689.518C115.574 687.818 117.174 686.668 118.899 686.668C120.749 686.668 122.174 687.843 122.174 689.568H124.424C124.424 686.493 121.999 684.568 118.974 684.568C115.974 684.568 113.299 686.568 113.299 689.543C113.299 690.943 113.874 693.093 117.524 693.968L119.749 694.518C121.199 694.893 122.724 695.643 122.724 697.318C122.724 698.843 121.474 700.293 119.249 700.293C116.949 700.293 115.499 698.743 115.424 697.218H113.174C113.199 699.893 115.624 702.393 119.249 702.393ZM134.083 690.118C132.808 690.118 130.908 690.768 130.208 692.193V684.068H128.033V702.093H130.208V695.768C130.208 693.243 132.158 692.268 133.783 692.268C135.408 692.268 136.608 693.518 136.608 695.468V702.093H138.783V695.343C138.808 692.068 136.983 690.118 134.083 690.118ZM151.613 692.243C150.838 690.868 149.188 690.118 147.438 690.118C144.138 690.118 141.613 692.793 141.613 696.243C141.613 699.818 144.288 702.393 147.338 702.393C149.213 702.393 150.838 701.418 151.613 700.018V702.093H153.788V690.418H151.613V692.243ZM147.663 700.343C145.513 700.343 143.813 698.468 143.813 696.243C143.813 694.043 145.513 692.168 147.638 692.168C149.588 692.168 151.613 693.843 151.613 696.243C151.613 698.618 149.738 700.343 147.663 700.343ZM163.073 690.118C161.523 690.118 160.398 691.018 159.798 693.068V690.418H157.598V702.093H159.798V697.818C159.798 694.743 160.723 692.218 163.048 692.218C163.498 692.218 164.123 692.318 164.748 692.618L165.098 690.568C164.748 690.343 163.898 690.118 163.073 690.118ZM177.901 696.218C177.901 692.518 175.426 690.118 172.101 690.118C168.776 690.118 166.101 692.518 166.101 696.218C166.101 699.918 168.776 702.393 172.101 702.393C174.351 702.393 176.451 701.293 177.451 699.268L175.576 698.518C174.901 699.693 173.601 700.343 172.176 700.343C170.176 700.343 168.676 699.268 168.351 697.193H177.851C177.876 696.868 177.901 696.543 177.901 696.218ZM168.376 695.318C168.726 693.218 170.126 692.168 172.101 692.168C174.026 692.168 175.451 693.318 175.726 695.318H168.376ZM192.16 691.918L187.16 684.868H184.46L191.01 694.143V702.093H193.285V694.143L199.91 684.868H197.185L192.16 691.918ZM204.353 702.393C207.678 702.393 210.478 699.943 210.478 696.243C210.478 692.543 207.678 690.118 204.353 690.118C201.028 690.118 198.253 692.543 198.253 696.243C198.253 699.943 201.028 702.393 204.353 702.393ZM204.353 700.343C202.228 700.343 200.453 698.668 200.453 696.243C200.453 693.843 202.228 692.168 204.353 692.168C206.503 692.168 208.303 693.843 208.303 696.243C208.303 698.668 206.503 700.343 204.353 700.343ZM221.932 696.843C221.907 699.368 219.957 700.343 218.332 700.343C216.707 700.343 215.532 699.093 215.532 697.118V690.418H213.357V697.168C213.332 700.443 215.132 702.393 218.057 702.393C219.357 702.393 221.232 701.743 221.932 700.268V702.093H224.107V690.418H221.932V696.843ZM233.361 690.118C231.811 690.118 230.686 691.018 230.086 693.068V690.418H227.886V702.093H230.086V697.818C230.086 694.743 231.011 692.218 233.336 692.218C233.786 692.218 234.411 692.318 235.036 692.618L235.386 690.568C235.036 690.343 234.186 690.118 233.361 690.118ZM256.132 698.443L252.907 687.218H251.182L247.982 698.493L243.582 684.868H241.157L246.982 702.093H248.957L252.032 691.218L255.132 702.093H257.107L262.932 684.868H260.507L256.132 698.443ZM266.315 687.568C267.165 687.568 267.865 686.943 267.865 686.118C267.865 685.293 267.165 684.668 266.315 684.668C265.49 684.668 264.79 685.293 264.79 686.118C264.79 686.943 265.49 687.568 266.315 687.568ZM267.415 702.093V690.418H265.24V702.093H267.415ZM274.622 702.393C277.047 702.393 279.147 701.018 279.147 698.843C279.147 697.518 278.522 696.068 276.097 695.468L274.372 695.043C273.622 694.868 272.872 694.443 272.872 693.643C272.872 692.743 273.622 692.018 274.747 692.018C275.672 692.018 276.597 692.618 276.622 693.518H278.722C278.722 691.168 276.672 690.118 274.697 690.118C272.347 690.118 270.697 691.643 270.697 693.568C270.697 695.443 271.822 696.393 273.772 696.918L275.372 697.293C276.297 697.493 276.972 697.943 276.972 698.818C276.972 699.768 276.097 700.493 274.622 700.493C273.197 700.493 272.322 699.668 272.297 698.668H270.272C270.372 701.068 272.522 702.393 274.622 702.393ZM288.111 690.118C286.836 690.118 284.936 690.768 284.236 692.193V684.068H282.061V702.093H284.236V695.768C284.236 693.243 286.186 692.268 287.811 692.268C289.436 692.268 290.636 693.518 290.636 695.468V702.093H292.811V695.343C292.836 692.068 291.011 690.118 288.111 690.118Z" fill="white"/>
<path d="M318.196 692.5L338.196 692.5" stroke="white" stroke-width="3" stroke-linecap="round" stroke-linejoin="round"/>
<path d="M330.196 683.5L339.196 692.5L330.196 701.5" stroke="white" stroke-width="3" stroke-linecap="round" stroke-linejoin="round"/>
<circle cx="174" cy="799" r="32" fill="white" fill-opacity="0.1"/>
<line x1="162.5" y1="805.5" x2="185.5" y2="805.5" stroke="white" stroke-width="3" stroke-linecap="round"/>
<line x1="162.5" y1="793.5" x2="185.5" y2="793.5" stroke="white" stroke-width="3" stroke-linecap="round"/>
<circle cx="176" cy="947" r="31.5" fill="white" fill-opacity="0.1" stroke="white"/>
<line x1="164.5" y1="953.5" x2="187.5" y2="953.5" stroke="white" stroke-width="3" stroke-linecap="round"/>
<line x1="164.5" y1="941.5" x2="187.5" y2="941.5" stroke="white" stroke-width="3" stroke-linecap="round"/>
<g filter="url(#filter0_b_1078_1922)">
<path d="M711 548H984.731C1002.04 548 1016.07 562.033 1016.07 579.343V618H711V548Z" fill="white" fill-opacity="0.1"/>
</g>
<path d="M753.389 579.41V582.237L756.859 580.904V592.075H759.893V576.813H759.641L753.389 579.41ZM763.699 579.824H769.997L764.366 592.075H767.86L774.594 577.318V577.019H763.699V579.824ZM785.304 583.616C786.223 583.179 786.981 582.076 786.981 580.674C786.981 578.353 784.936 576.813 782.27 576.813C779.603 576.813 777.558 578.353 777.558 580.674C777.558 582.076 778.316 583.179 779.236 583.616C777.604 584.122 776.408 585.662 776.408 587.57C776.408 590.397 779.006 592.351 782.27 592.351C785.533 592.351 788.108 590.397 788.108 587.57C788.108 585.662 786.936 584.122 785.304 583.616ZM782.27 579.41C783.304 579.41 784.062 580.145 784.062 581.019C784.062 581.892 783.304 582.605 782.27 582.605C781.235 582.605 780.477 581.892 780.477 581.019C780.477 580.145 781.235 579.41 782.27 579.41ZM782.27 589.638C780.684 589.638 779.534 588.604 779.534 587.271C779.534 585.938 780.707 584.949 782.27 584.949C783.833 584.949 785.005 585.915 785.005 587.294C785.005 588.581 783.901 589.638 782.27 589.638Z" fill="url(#paint0_linear_1078_1922)"/>
<path d="M753.389 579.41V582.237L756.859 580.904V592.075H759.893V576.813H759.641L753.389 579.41ZM763.699 579.824H769.997L764.366 592.075H767.86L774.594 577.318V577.019H763.699V579.824ZM785.304 583.616C786.223 583.179 786.981 582.076 786.981 580.674C786.981 578.353 784.936 576.813 782.27 576.813C779.603 576.813 777.558 578.353 777.558 580.674C777.558 582.076 778.316 583.179 779.236 583.616C777.604 584.122 776.408 585.662 776.408 587.57C776.408 590.397 779.006 592.351 782.27 592.351C785.533 592.351 788.108 590.397 788.108 587.57C788.108 585.662 786.936 584.122 785.304 583.616ZM782.27 579.41C783.304 579.41 784.062 580.145 784.062 581.019C784.062 581.892 783.304 582.605 782.27 582.605C781.235 582.605 780.477 581.892 780.477 581.019C780.477 580.145 781.235 579.41 782.27 579.41ZM782.27 589.638C780.684 589.638 779.534 588.604 779.534 587.271C779.534 585.938 780.707 584.949 782.27 584.949C783.833 584.949 785.005 585.915 785.005 587.294C785.005 588.581 783.901 589.638 782.27 589.638Z" fill="white"/>
<path d="M813.292 589.164L810.472 579.384H809.332L806.512 589.104L802.652 577.384H801.252L805.912 591.164H807.152L809.892 581.604L812.652 591.164H813.892L818.552 577.384H817.152L813.292 589.164ZM825.517 591.164V577.384H824.197V591.164H825.517ZM836.448 591.404C839.448 591.404 841.048 589.304 841.048 587.364C841.048 585.364 839.548 584.224 837.368 583.684L835.488 583.204C833.448 582.704 833.248 581.624 833.248 580.984C833.248 579.444 834.708 578.384 836.268 578.384C837.908 578.384 839.188 579.364 839.268 580.884H840.568C840.488 578.584 838.648 577.144 836.308 577.144C834.028 577.144 831.928 578.704 831.928 580.984C831.928 582.084 832.328 583.744 835.188 584.424L837.048 584.864C838.408 585.204 839.728 585.924 839.728 587.424C839.728 588.724 838.648 590.164 836.448 590.164C834.508 590.164 833.248 588.864 833.128 587.504H831.828C831.928 589.504 833.728 591.404 836.448 591.404ZM856.157 583.724H848.577V577.384H847.257V591.164H848.577V584.904H856.157V591.164H857.477V577.384H856.157V583.724ZM866.054 585.024H871.774V583.784H866.054V578.624H872.614V577.384H864.754V591.164H872.834V589.924H866.054V585.024ZM882.786 591.404C885.786 591.404 887.386 589.304 887.386 587.364C887.386 585.364 885.886 584.224 883.706 583.684L881.826 583.204C879.786 582.704 879.586 581.624 879.586 580.984C879.586 579.444 881.046 578.384 882.606 578.384C884.246 578.384 885.526 579.364 885.606 580.884H886.906C886.826 578.584 884.986 577.144 882.646 577.144C880.366 577.144 878.266 578.704 878.266 580.984C878.266 582.084 878.666 583.744 881.526 584.424L883.386 584.864C884.746 585.204 886.066 585.924 886.066 587.424C886.066 588.724 884.986 590.164 882.786 590.164C880.846 590.164 879.586 588.864 879.466 587.504H878.166C878.266 589.504 880.066 591.404 882.786 591.404ZM915.99 577.384H914.77L909.47 588.324L904.17 577.384H902.93L901.23 591.164H902.51L903.93 579.704L908.87 589.744H910.09L914.99 579.744L916.41 591.164H917.71L915.99 577.384ZM934.175 591.164L928.935 577.384H927.535L922.275 591.164H923.675L925.055 587.504H931.415L932.795 591.164H934.175ZM928.235 579.124L930.955 586.324H925.515L928.235 579.124ZM939.563 577.384V591.164H944.783C948.683 591.164 950.943 588.204 950.943 584.304C950.943 580.384 948.683 577.384 944.783 577.384H939.563ZM940.883 589.924V578.624H944.783C947.923 578.624 949.623 581.104 949.623 584.304C949.623 587.484 947.923 589.924 944.783 589.924H940.883ZM958.574 585.024H964.294V583.784H958.574V578.624H965.134V577.384H957.274V591.164H965.354V589.924H958.574V585.024Z" fill="white"/>
<g filter="url(#filter1_b_1078_1922)">
<path d="M1050 548H1323.73C1341.04 548 1355.07 562.033 1355.07 579.343V618H1050V548Z" fill="white" fill-opacity="0.1"/>
</g>
<g filter="url(#filter2_d_1078_1922)">
<path d="M1092.39 579.41V582.237L1095.86 580.904V592.075H1098.89V576.813H1098.64L1092.39 579.41ZM1102.7 579.824H1109L1103.37 592.075H1106.86L1113.59 577.318V577.019H1102.7V579.824ZM1124.3 583.616C1125.22 583.179 1125.98 582.076 1125.98 580.674C1125.98 578.353 1123.94 576.813 1121.27 576.813C1118.6 576.813 1116.56 578.353 1116.56 580.674C1116.56 582.076 1117.32 583.179 1118.24 583.616C1116.6 584.122 1115.41 585.662 1115.41 587.57C1115.41 590.397 1118.01 592.351 1121.27 592.351C1124.53 592.351 1127.11 590.397 1127.11 587.57C1127.11 585.662 1125.94 584.122 1124.3 583.616ZM1121.27 579.41C1122.3 579.41 1123.06 580.145 1123.06 581.019C1123.06 581.892 1122.3 582.605 1121.27 582.605C1120.24 582.605 1119.48 581.892 1119.48 581.019C1119.48 580.145 1120.24 579.41 1121.27 579.41ZM1121.27 589.638C1119.68 589.638 1118.53 588.604 1118.53 587.271C1118.53 585.938 1119.71 584.949 1121.27 584.949C1122.83 584.949 1124 585.915 1124 587.294C1124 588.581 1122.9 589.638 1121.27 589.638Z" fill="url(#paint1_linear_1078_1922)"/>
<path d="M1092.39 579.41V582.237L1095.86 580.904V592.075H1098.89V576.813H1098.64L1092.39 579.41ZM1102.7 579.824H1109L1103.37 592.075H1106.86L1113.59 577.318V577.019H1102.7V579.824ZM1124.3 583.616C1125.22 583.179 1125.98 582.076 1125.98 580.674C1125.98 578.353 1123.94 576.813 1121.27 576.813C1118.6 576.813 1116.56 578.353 1116.56 580.674C1116.56 582.076 1117.32 583.179 1118.24 583.616C1116.6 584.122 1115.41 585.662 1115.41 587.57C1115.41 590.397 1118.01 592.351 1121.27 592.351C1124.53 592.351 1127.11 590.397 1127.11 587.57C1127.11 585.662 1125.94 584.122 1124.3 583.616ZM1121.27 579.41C1122.3 579.41 1123.06 580.145 1123.06 581.019C1123.06 581.892 1122.3 582.605 1121.27 582.605C1120.24 582.605 1119.48 581.892 1119.48 581.019C1119.48 580.145 1120.24 579.41 1121.27 579.41ZM1121.27 589.638C1119.68 589.638 1118.53 588.604 1118.53 587.271C1118.53 585.938 1119.71 584.949 1121.27 584.949C1122.83 584.949 1124 585.915 1124 587.294C1124 588.581 1122.9 589.638 1121.27 589.638Z" fill="white"/>
</g>
<path d="M1152.29 589.164L1149.47 579.384H1148.33L1145.51 589.104L1141.65 577.384H1140.25L1144.91 591.164H1146.15L1148.89 581.604L1151.65 591.164H1152.89L1157.55 577.384H1156.15L1152.29 589.164ZM1164.52 591.164V577.384H1163.2V591.164H1164.52ZM1175.45 591.404C1178.45 591.404 1180.05 589.304 1180.05 587.364C1180.05 585.364 1178.55 584.224 1176.37 583.684L1174.49 583.204C1172.45 582.704 1172.25 581.624 1172.25 580.984C1172.25 579.444 1173.71 578.384 1175.27 578.384C1176.91 578.384 1178.19 579.364 1178.27 580.884H1179.57C1179.49 578.584 1177.65 577.144 1175.31 577.144C1173.03 577.144 1170.93 578.704 1170.93 580.984C1170.93 582.084 1171.33 583.744 1174.19 584.424L1176.05 584.864C1177.41 585.204 1178.73 585.924 1178.73 587.424C1178.73 588.724 1177.65 590.164 1175.45 590.164C1173.51 590.164 1172.25 588.864 1172.13 587.504H1170.83C1170.93 589.504 1172.73 591.404 1175.45 591.404ZM1195.16 583.724H1187.58V577.384H1186.26V591.164H1187.58V584.904H1195.16V591.164H1196.48V577.384H1195.16V583.724ZM1205.05 585.024H1210.77V583.784H1205.05V578.624H1211.61V577.384H1203.75V591.164H1211.83V589.924H1205.05V585.024ZM1221.79 591.404C1224.79 591.404 1226.39 589.304 1226.39 587.364C1226.39 585.364 1224.89 584.224 1222.71 583.684L1220.83 583.204C1218.79 582.704 1218.59 581.624 1218.59 580.984C1218.59 579.444 1220.05 578.384 1221.61 578.384C1223.25 578.384 1224.53 579.364 1224.61 580.884H1225.91C1225.83 578.584 1223.99 577.144 1221.65 577.144C1219.37 577.144 1217.27 578.704 1217.27 580.984C1217.27 582.084 1217.67 583.744 1220.53 584.424L1222.39 584.864C1223.75 585.204 1225.07 585.924 1225.07 587.424C1225.07 588.724 1223.99 590.164 1221.79 590.164C1219.85 590.164 1218.59 588.864 1218.47 587.504H1217.17C1217.27 589.504 1219.07 591.404 1221.79 591.404ZM1254.99 577.384H1253.77L1248.47 588.324L1243.17 577.384H1241.93L1240.23 591.164H1241.51L1242.93 579.704L1247.87 589.744H1249.09L1253.99 579.744L1255.41 591.164H1256.71L1254.99 577.384ZM1273.18 591.164L1267.94 577.384H1266.54L1261.28 591.164H1262.68L1264.06 587.504H1270.42L1271.8 591.164H1273.18ZM1267.24 579.124L1269.96 586.324H1264.52L1267.24 579.124ZM1278.56 577.384V591.164H1283.78C1287.68 591.164 1289.94 588.204 1289.94 584.304C1289.94 580.384 1287.68 577.384 1283.78 577.384H1278.56ZM1279.88 589.924V578.624H1283.78C1286.92 578.624 1288.62 581.104 1288.62 584.304C1288.62 587.484 1286.92 589.924 1283.78 589.924H1279.88ZM1297.57 585.024H1303.29V583.784H1297.57V578.624H1304.13V577.384H1296.27V591.164H1304.35V589.924H1297.57V585.024Z" fill="white"/>
<path d="M77.208 497.904C78.858 497.398 79.298 495.88 79.298 494.758C79.298 492.47 77.56 490.842 74.854 490.842H68.848V506H75.316C78.66 506 80.09 503.756 80.09 501.666C80.09 499.95 79.144 498.234 77.208 497.904ZM76.24 495.198C76.24 496.232 75.646 496.87 74.678 496.87H71.906V493.548H74.678C75.756 493.548 76.24 494.274 76.24 495.198ZM71.906 503.294V499.422H74.92C76.372 499.422 77.01 500.412 77.01 501.358C77.01 502.37 76.306 503.294 74.876 503.294H71.906ZM90.3604 501.16C90.3604 503.008 89.0844 503.58 88.0504 503.58C87.0604 503.58 86.0924 502.832 86.0924 501.226V495.726H83.2104V501.38C83.1884 504.46 84.5964 506.264 87.2804 506.264C88.2924 506.264 89.9204 505.67 90.3604 504.328V506H93.2424V495.726H90.3604V501.16ZM101.009 495.726V491.986H98.1271V495.726H96.2571V497.97H98.1271V506H101.009V497.97H103.187V495.726H101.009ZM109.927 495.726V491.986H107.045V495.726H105.175V497.97H107.045V506H109.927V497.97H112.105V495.726H109.927ZM119.62 506.264C122.546 506.264 125.142 504.108 125.142 500.874C125.142 497.618 122.546 495.462 119.62 495.462C116.694 495.462 114.098 497.618 114.098 500.874C114.098 504.108 116.694 506.264 119.62 506.264ZM119.62 503.58C118.19 503.58 117.024 502.458 117.024 500.874C117.024 499.268 118.19 498.146 119.62 498.146C121.05 498.146 122.216 499.268 122.216 500.874C122.216 502.458 121.05 503.58 119.62 503.58ZM134.364 495.462C133.352 495.462 131.724 496.078 131.284 497.464V495.726H128.402V506H131.284V500.61C131.284 498.74 132.56 498.19 133.594 498.19C134.584 498.19 135.552 498.916 135.552 500.522V506H138.434V500.368C138.456 497.288 137.048 495.462 134.364 495.462ZM145.827 506.264C147.939 506.264 150.139 505.142 150.139 502.986C150.139 502.15 149.831 500.61 147.367 499.95L145.673 499.51C145.101 499.356 144.661 499.114 144.661 498.63C144.661 498.102 145.189 497.728 145.849 497.728C146.531 497.728 147.103 498.102 147.103 498.806H149.853C149.875 496.364 147.675 495.462 145.805 495.462C143.429 495.462 141.779 496.958 141.779 498.542C141.779 499.62 142.131 501.094 144.771 501.798L146.135 502.128C146.905 502.326 147.257 502.546 147.257 502.986C147.257 503.58 146.619 503.998 145.783 503.998C144.771 503.998 144.265 503.36 144.265 502.766H141.559C141.581 505.032 143.671 506.264 145.827 506.264Z" fill="white"/>
<path d="M77.208 885.904C78.858 885.398 79.298 883.88 79.298 882.758C79.298 880.47 77.56 878.842 74.854 878.842H68.848V894H75.316C78.66 894 80.09 891.756 80.09 889.666C80.09 887.95 79.144 886.234 77.208 885.904ZM76.24 883.198C76.24 884.232 75.646 884.87 74.678 884.87H71.906V881.548H74.678C75.756 881.548 76.24 882.274 76.24 883.198ZM71.906 891.294V887.422H74.92C76.372 887.422 77.01 888.412 77.01 889.358C77.01 890.37 76.306 891.294 74.876 891.294H71.906ZM90.3604 889.16C90.3604 891.008 89.0844 891.58 88.0504 891.58C87.0604 891.58 86.0924 890.832 86.0924 889.226V883.726H83.2104V889.38C83.1884 892.46 84.5964 894.264 87.2804 894.264C88.2924 894.264 89.9204 893.67 90.3604 892.328V894H93.2424V883.726H90.3604V889.16ZM101.009 883.726V879.986H98.1271V883.726H96.2571V885.97H98.1271V894H101.009V885.97H103.187V883.726H101.009ZM109.927 883.726V879.986H107.045V883.726H105.175V885.97H107.045V894H109.927V885.97H112.105V883.726H109.927ZM119.62 894.264C122.546 894.264 125.142 892.108 125.142 888.874C125.142 885.618 122.546 883.462 119.62 883.462C116.694 883.462 114.098 885.618 114.098 888.874C114.098 892.108 116.694 894.264 119.62 894.264ZM119.62 891.58C118.19 891.58 117.024 890.458 117.024 888.874C117.024 887.268 118.19 886.146 119.62 886.146C121.05 886.146 122.216 887.268 122.216 888.874C122.216 890.458 121.05 891.58 119.62 891.58ZM134.364 883.462C133.352 883.462 131.724 884.078 131.284 885.464V883.726H128.402V894H131.284V888.61C131.284 886.74 132.56 886.19 133.594 886.19C134.584 886.19 135.552 886.916 135.552 888.522V894H138.434V888.368C138.456 885.288 137.048 883.462 134.364 883.462ZM145.827 894.264C147.939 894.264 150.139 893.142 150.139 890.986C150.139 890.15 149.831 888.61 147.367 887.95L145.673 887.51C145.101 887.356 144.661 887.114 144.661 886.63C144.661 886.102 145.189 885.728 145.849 885.728C146.531 885.728 147.103 886.102 147.103 886.806H149.853C149.875 884.364 147.675 883.462 145.805 883.462C143.429 883.462 141.779 884.958 141.779 886.542C141.779 887.62 142.131 889.094 144.771 889.798L146.135 890.128C146.905 890.326 147.257 890.546 147.257 890.986C147.257 891.58 146.619 891.998 145.783 891.998C144.771 891.998 144.265 891.36 144.265 890.766H141.559C141.581 893.032 143.671 894.264 145.827 894.264ZM155.064 887.048C156.076 887.048 156.89 886.322 156.89 885.288C156.89 884.254 156.076 883.506 155.064 883.506C154.074 883.506 153.238 884.254 153.238 885.288C153.238 886.322 154.074 887.048 155.064 887.048ZM155.064 894.198C156.076 894.198 156.89 893.45 156.89 892.416C156.89 891.404 156.076 890.656 155.064 890.656C154.074 890.656 153.238 891.404 153.238 892.416C153.238 893.45 154.074 894.198 155.064 894.198ZM175.974 885.09H170.32V878.842H167.262V894H170.32V887.84H175.974V894H179.032V878.842H175.974V885.09ZM187.929 894.264C190.855 894.264 193.451 892.108 193.451 888.874C193.451 885.618 190.855 883.462 187.929 883.462C185.003 883.462 182.407 885.618 182.407 888.874C182.407 892.108 185.003 894.264 187.929 894.264ZM187.929 891.58C186.499 891.58 185.333 890.458 185.333 888.874C185.333 887.268 186.499 886.146 187.929 886.146C189.359 886.146 190.525 887.268 190.525 888.874C190.525 890.458 189.359 891.58 187.929 891.58ZM200.743 890.282L198.235 883.726H195.111L199.445 894H202.019L206.353 883.726H203.207L200.743 890.282ZM218.823 888.698C218.823 885.552 216.425 883.462 213.477 883.462C210.551 883.462 208.021 885.552 208.021 888.874C208.021 892.042 210.331 894.264 213.499 894.264C215.303 894.264 217.085 893.494 218.053 892.196L216.381 890.502C215.743 891.228 214.731 891.712 213.675 891.712C212.311 891.712 211.343 891.008 211.035 889.798H218.757C218.801 889.336 218.823 888.984 218.823 888.698ZM211.035 887.928C211.343 886.542 212.355 885.948 213.543 885.948C214.841 885.948 215.831 886.718 215.919 887.928H211.035ZM227.919 883.462C226.643 883.462 225.477 884.21 224.905 885.926V883.726H222.045V894H224.927V890.48C224.927 887.554 225.939 886.168 227.413 886.168C227.765 886.168 228.271 886.212 228.887 886.542L229.547 883.792C229.085 883.55 228.469 883.462 227.919 883.462Z" fill="white"/>
<path d="M711.44 161.842V164.548H715.62V177H718.678V164.548H722.858V161.842H711.44ZM734.069 171.698C734.069 168.552 731.671 166.462 728.723 166.462C725.797 166.462 723.267 168.552 723.267 171.874C723.267 175.042 725.577 177.264 728.745 177.264C730.549 177.264 732.331 176.494 733.299 175.196L731.627 173.502C730.989 174.228 729.977 174.712 728.921 174.712C727.557 174.712 726.589 174.008 726.281 172.798H734.003C734.047 172.336 734.069 171.984 734.069 171.698ZM726.281 170.928C726.589 169.542 727.601 168.948 728.789 168.948C730.087 168.948 731.077 169.718 731.165 170.928H726.281ZM742.779 171.434L746.167 166.726H742.779L741.195 169.102L739.567 166.726H736.157L739.545 171.434L735.475 177H738.863L741.173 173.722L743.439 177H746.805L742.779 171.434ZM753.175 166.726V162.986H750.293V166.726H748.423V168.97H750.293V177H753.175V168.97H755.353V166.726H753.175ZM770.635 166.462C769.469 166.462 768.061 166.924 767.335 167.958V161.138H764.453V177H767.335V175.724C768.061 176.78 769.469 177.264 770.635 177.264C773.275 177.264 775.673 175.152 775.673 171.852C775.673 168.552 773.275 166.462 770.635 166.462ZM770.085 174.58C768.677 174.58 767.423 173.414 767.423 171.852C767.423 170.268 768.743 169.146 770.085 169.146C771.537 169.146 772.725 170.334 772.725 171.852C772.725 173.348 771.537 174.58 770.085 174.58ZM783.84 177.264C786.766 177.264 789.362 175.108 789.362 171.874C789.362 168.618 786.766 166.462 783.84 166.462C780.914 166.462 778.318 168.618 778.318 171.874C778.318 175.108 780.914 177.264 783.84 177.264ZM783.84 174.58C782.41 174.58 781.244 173.458 781.244 171.874C781.244 170.268 782.41 169.146 783.84 169.146C785.27 169.146 786.436 170.268 786.436 171.874C786.436 173.458 785.27 174.58 783.84 174.58ZM798.003 171.434L801.391 166.726H798.003L796.419 169.102L794.791 166.726H791.381L794.769 171.434L790.699 177H794.087L796.397 173.722L798.663 177H802.029L798.003 171.434Z" fill="white"/>
<path d="M71.906 151.842H68.848V167H77.648V164.294H71.906V151.842ZM85.2401 167.264C88.1661 167.264 90.7621 165.108 90.7621 161.874C90.7621 158.618 88.1661 156.462 85.2401 156.462C82.3141 156.462 79.7181 158.618 79.7181 161.874C79.7181 165.108 82.3141 167.264 85.2401 167.264ZM85.2401 164.58C83.8101 164.58 82.6441 163.458 82.6441 161.874C82.6441 160.268 83.8101 159.146 85.2401 159.146C86.6701 159.146 87.8361 160.268 87.8361 161.874C87.8361 163.458 86.6701 164.58 85.2401 164.58ZM101.744 157.958C100.996 156.946 99.6098 156.462 98.4438 156.462C95.8038 156.462 93.4058 158.552 93.4058 161.852C93.4058 165.152 95.8038 167.264 98.4438 167.264C99.5878 167.264 100.996 166.758 101.744 165.746V166.032C101.744 168.694 100.578 169.728 98.7298 169.728C97.6298 169.728 96.5738 169.068 96.1338 168.122L93.7358 169.156C94.6158 171.07 96.5298 172.302 98.7298 172.302C102.36 172.302 104.626 170.212 104.626 165.724V156.726H101.744V157.958ZM98.9938 164.58C97.5418 164.58 96.3318 163.348 96.3318 161.852C96.3318 160.334 97.5418 159.146 98.9938 159.146C100.336 159.146 101.656 160.268 101.656 161.852C101.656 163.414 100.402 164.58 98.9938 164.58ZM113.41 167.264C116.336 167.264 118.932 165.108 118.932 161.874C118.932 158.618 116.336 156.462 113.41 156.462C110.484 156.462 107.888 158.618 107.888 161.874C107.888 165.108 110.484 167.264 113.41 167.264ZM113.41 164.58C111.98 164.58 110.814 163.458 110.814 161.874C110.814 160.268 111.98 159.146 113.41 159.146C114.84 159.146 116.006 160.268 116.006 161.874C116.006 163.458 114.84 164.58 113.41 164.58Z" fill="white"/>
<path d="M718.48 506.264C721.582 506.264 724.288 504.13 724.288 500.654V490.842H721.23V500.456C721.23 502.524 719.91 503.36 718.48 503.36C717.072 503.36 715.752 502.524 715.752 500.456V490.842H712.694V500.654C712.694 504.13 715.4 506.264 718.48 506.264ZM731.849 506V490.842H728.791V506H731.849ZM749.733 506.264C753.847 506.264 756.949 503.69 756.949 498.08H749.315V500.566H753.605C753.605 502.326 751.647 503.514 749.667 503.514C746.895 503.514 744.893 501.138 744.893 498.432C744.893 495.726 746.939 493.416 749.579 493.416C750.899 493.416 752.109 493.988 752.967 494.912L755.189 492.998C753.869 491.524 751.867 490.578 749.579 490.578C745.223 490.578 741.835 494.12 741.835 498.432C741.835 502.722 745.157 506.264 749.733 506.264ZM766.053 506.264C769.155 506.264 771.861 504.13 771.861 500.654V490.842H768.803V500.456C768.803 502.524 767.483 503.36 766.053 503.36C764.645 503.36 763.325 502.524 763.325 500.456V490.842H760.267V500.654C760.267 504.13 762.973 506.264 766.053 506.264ZM779.422 506V490.842H776.364V506H779.422Z" fill="white"/>
<g filter="url(#filter3_b_1078_1922)">
<path d="M978.463 658H742.343C725.033 658 711 672.033 711 689.343V728H978.463V658Z" fill="white" fill-opacity="0.1"/>
</g>
<path fill-rule="evenodd" clip-rule="evenodd" d="M791.546 695.928C791.546 699.847 788.368 703.024 784.449 703.024C780.53 703.024 777.352 699.847 777.352 695.928C777.352 692.008 780.53 688.831 784.449 688.831C788.368 688.831 791.546 692.008 791.546 695.928ZM789.998 702.594C788.494 703.847 786.56 704.601 784.449 704.601C779.659 704.601 775.775 700.718 775.775 695.928C775.775 691.137 779.659 687.254 784.449 687.254C789.239 687.254 793.123 691.137 793.123 695.928C793.123 698.039 792.368 699.975 791.114 701.479L796.438 706.803C796.745 707.111 796.745 707.61 796.438 707.918C796.13 708.226 795.63 708.226 795.322 707.918L789.998 702.594Z" fill="white"/>
<path d="M902.717 701.62H898.016C897.808 701.62 897.609 701.538 897.462 701.391C897.315 701.244 897.232 701.044 897.232 700.837V694.568C897.232 694.36 897.315 694.161 897.462 694.014C897.609 693.867 897.808 693.784 898.016 693.784H902.717L909.77 688.299V707.105L902.717 701.62Z" stroke="white" stroke-width="1.56716" stroke-linecap="round" stroke-linejoin="round"/>
<path d="M913.682 695.352V700.053" stroke="white" stroke-width="1.56716" stroke-linecap="round" stroke-linejoin="round"/>
<path d="M916.816 693.784V701.62" stroke="white" stroke-width="1.56716" stroke-linecap="round" stroke-linejoin="round"/>
<line x1="845.253" y1="678.896" x2="845.253" y2="715.463" stroke="white" stroke-opacity="0.1" stroke-width="1.04478"/>
<g filter="url(#filter4_b_1078_1922)">
<rect x="217" y="767" width="69" height="70" rx="34.5" fill="white" fill-opacity="0.1"/>
<g clip-path="url(#clip0_1078_1922)">
<path d="M260.293 793.279L242.613 810.96M241.907 793.279L260.058 811.43" stroke="white" stroke-width="3.00047" stroke-linecap="round"/>
</g>
</g>
<g filter="url(#filter5_b_1078_1922)">
<rect x="221" y="912" width="69" height="70" rx="34.5" fill="white" fill-opacity="0.1"/>
<rect x="221.5" y="912.5" width="68" height="69" rx="34" stroke="white"/>
<path d="M264.458 938.277L246.778 955.958M246.072 938.277L264.223 956.429" stroke="white" stroke-width="3.00047" stroke-linecap="round"/>
</g>
<g filter="url(#filter6_b_1078_1922)">
<rect x="297" y="767" width="69" height="70" rx="34.5" fill="white" fill-opacity="0.1"/>
<path fill-rule="evenodd" clip-rule="evenodd" d="M336.824 800.226C336.824 804.145 333.647 807.322 329.727 807.322C325.808 807.322 322.631 804.145 322.631 800.226C322.631 796.307 325.808 793.129 329.727 793.129C333.647 793.129 336.824 796.307 336.824 800.226ZM335.277 806.892C333.773 808.145 331.838 808.899 329.727 808.899C324.937 808.899 321.054 805.016 321.054 800.226C321.054 795.436 324.937 791.552 329.727 791.552C334.518 791.552 338.401 795.436 338.401 800.226C338.401 802.338 337.646 804.273 336.392 805.777L341.716 811.101C342.024 811.409 342.024 811.908 341.716 812.216C341.408 812.524 340.909 812.524 340.601 812.216L335.277 806.892Z" fill="white"/>
</g>
<rect x="67" y="548" width="217.364" height="70.9091" rx="35.4545" fill="url(#paint2_linear_1078_1922)"/>
<rect x="67" y="548" width="217.364" height="70.9091" rx="35.4545" fill="black" fill-opacity="0.2"/>
<path d="M113.381 588.655L109.431 575.23H107.106L112.306 592.455H114.481L119.656 575.23H117.331L113.381 588.655ZM123.298 577.93C124.148 577.93 124.848 577.305 124.848 576.48C124.848 575.655 124.148 575.03 123.298 575.03C122.473 575.03 121.773 575.655 121.773 576.48C121.773 577.305 122.473 577.93 123.298 577.93ZM124.398 592.455V580.78H122.223V592.455H124.398ZM139.205 586.58C139.205 582.88 136.73 580.48 133.405 580.48C130.08 580.48 127.405 582.88 127.405 586.58C127.405 590.28 130.08 592.755 133.405 592.755C135.655 592.755 137.755 591.655 138.755 589.63L136.88 588.88C136.205 590.055 134.905 590.705 133.48 590.705C131.48 590.705 129.98 589.63 129.655 587.555H139.155C139.18 587.23 139.205 586.905 139.205 586.58ZM129.68 585.68C130.03 583.58 131.43 582.53 133.405 582.53C135.33 582.53 136.755 583.68 137.03 585.68H129.68ZM153.873 589.08L150.873 580.78H148.748L145.773 589.08L142.798 580.78H140.448L144.898 592.455H146.698L149.798 583.78L153.023 592.455H154.848L159.198 580.78H156.848L153.873 589.08ZM180.054 592.455L175.479 585.98C178.554 585.755 179.979 583.105 179.979 580.605C179.979 577.93 178.529 575.23 174.779 575.23H168.304V592.455H170.579V585.955H172.804L177.329 592.455H180.054ZM174.829 577.33C176.579 577.33 177.704 578.68 177.704 580.605C177.704 582.555 176.704 583.88 174.179 583.88H170.579V577.33H174.829ZM193.843 586.58C193.843 582.88 191.368 580.48 188.043 580.48C184.718 580.48 182.043 582.88 182.043 586.58C182.043 590.28 184.718 592.755 188.043 592.755C190.293 592.755 192.393 591.655 193.393 589.63L191.518 588.88C190.843 590.055 189.543 590.705 188.118 590.705C186.118 590.705 184.618 589.63 184.293 587.555H193.793C193.818 587.23 193.843 586.905 193.843 586.58ZM184.318 585.68C184.668 583.58 186.068 582.53 188.043 582.53C189.968 582.53 191.393 583.68 191.668 585.68H184.318ZM200.233 592.755C202.658 592.755 204.758 591.38 204.758 589.205C204.758 587.88 204.133 586.43 201.708 585.83L199.983 585.405C199.233 585.23 198.483 584.805 198.483 584.005C198.483 583.105 199.233 582.38 200.358 582.38C201.283 582.38 202.208 582.98 202.233 583.88H204.333C204.333 581.53 202.283 580.48 200.308 580.48C197.958 580.48 196.308 582.005 196.308 583.93C196.308 585.805 197.433 586.755 199.383 587.28L200.983 587.655C201.908 587.855 202.583 588.305 202.583 589.18C202.583 590.13 201.708 590.855 200.233 590.855C198.808 590.855 197.933 590.03 197.908 589.03H195.883C195.983 591.43 198.133 592.755 200.233 592.755ZM216.097 587.205C216.072 589.73 214.122 590.705 212.497 590.705C210.872 590.705 209.697 589.455 209.697 587.48V580.78H207.522V587.53C207.497 590.805 209.297 592.755 212.222 592.755C213.522 592.755 215.397 592.105 216.097 590.63V592.455H218.272V580.78H216.097V587.205ZM224.227 592.455V574.43H222.052V592.455H224.227ZM231.084 580.78V576.38H228.909V580.78H226.809V582.655H228.909V592.455H231.084V582.655H233.609V580.78H231.084ZM239.368 592.755C241.793 592.755 243.893 591.38 243.893 589.205C243.893 587.88 243.268 586.43 240.843 585.83L239.118 585.405C238.368 585.23 237.618 584.805 237.618 584.005C237.618 583.105 238.368 582.38 239.493 582.38C240.418 582.38 241.343 582.98 241.368 583.88H243.468C243.468 581.53 241.418 580.48 239.443 580.48C237.093 580.48 235.443 582.005 235.443 583.93C235.443 585.805 236.568 586.755 238.518 587.28L240.118 587.655C241.043 587.855 241.718 588.305 241.718 589.18C241.718 590.13 240.843 590.855 239.368 590.855C237.943 590.855 237.068 590.03 237.043 589.03H235.018C235.118 591.43 237.268 592.755 239.368 592.755Z" fill="white"/>
<path d="M711 349H1145" stroke="#D9D9D9" stroke-width="0.75"/>
<path d="M876.324 295.11C874.938 299.169 872.661 301.545 868.701 301.545C864.84 301.545 862.959 298.278 862.959 293.427V257.688H873.651V256.005H862.959V240.462H862.464C858.504 248.877 852.663 253.926 844.842 257.094V257.688H851.277V295.308C851.277 302.733 855.039 307.485 862.464 307.485C869.988 307.485 874.938 302.634 877.116 295.407L876.324 295.11ZM920.654 288.18C917.783 296.199 912.536 297.783 906.992 297.783C896.795 297.783 889.964 289.962 889.271 276.201H920.951C921.347 261.648 912.833 254.421 902.438 254.421C888.677 254.421 880.361 265.905 880.361 281.844C880.361 298.674 890.162 307.485 901.943 307.485C910.952 307.485 919.07 301.941 921.446 288.378L920.654 288.18ZM900.161 256.797C905.804 256.797 909.962 261.648 909.764 274.122H889.271C889.271 263.529 893.528 256.797 900.161 256.797ZM968.874 298.278L954.816 277.29L964.617 264.222C967.785 259.866 971.547 257.193 975.111 256.599V255.906H957.093V256.5C961.152 256.896 963.033 258.381 963.033 260.757C963.033 262.143 962.34 263.628 960.162 266.499L953.529 275.31L946.401 264.618C945.114 262.737 944.619 261.45 944.619 260.064C944.619 258.183 946.401 256.995 950.361 256.5V255.906H923.631V256.599C927.195 257.094 929.472 258.777 932.541 263.628L945.213 282.735L933.432 298.278C930.264 302.337 927.096 304.614 923.334 305.307V306H941.649V305.307C937.986 305.01 935.61 303.228 935.61 301.05C935.61 299.664 936.402 298.08 938.283 295.704L946.599 284.715L954.915 297.288C956.004 299.07 956.499 300.357 956.499 301.743C956.499 303.921 954.618 305.109 950.757 305.307V306H977.487V305.307C974.22 304.713 971.844 302.733 968.874 298.278ZM1011.19 295.11C1009.81 299.169 1007.53 301.545 1003.57 301.545C999.708 301.545 997.827 298.278 997.827 293.427V257.688H1008.52V256.005H997.827V240.462H997.332C993.372 248.877 987.531 253.926 979.71 257.094V257.688H986.145V295.308C986.145 302.733 989.907 307.485 997.332 307.485C1004.86 307.485 1009.81 302.634 1011.98 295.407L1011.19 295.11Z" fill="white"/>
<g filter="url(#filter7_d_1078_1922)">
<path d="M141.5 200V200C146.914 238.682 177.318 269.086 216 274.5V274.5V274.5C177.318 279.914 146.914 310.318 141.5 349V349V349C136.086 310.318 105.682 279.914 67 274.5V274.5V274.5C105.682 269.086 136.086 238.682 141.5 200V200Z" fill="white"/>
<path d="M141.5 200V200C146.914 238.682 177.318 269.086 216 274.5V274.5V274.5C177.318 279.914 146.914 310.318 141.5 349V349V349C136.086 310.318 105.682 279.914 67 274.5V274.5V274.5C105.682 269.086 136.086 238.682 141.5 200V200Z" fill="url(#paint3_linear_1078_1922)"/>
</g>
<g filter="url(#filter8_d_1078_1922)">
<path d="M369.5 200V200C374.914 238.682 405.318 269.086 444 274.5V274.5V274.5C405.318 279.914 374.914 310.318 369.5 349V349V349C364.086 310.318 333.682 279.914 295 274.5V274.5V274.5C333.682 269.086 364.086 238.682 369.5 200V200Z" fill="white"/>
</g>
<g filter="url(#filter9_b_1078_1922)">
<rect x="377" y="767" width="69" height="70" rx="34.5" fill="white" fill-opacity="0.1"/>
</g>
<path d="M405.836 807.455H401.134C400.926 807.455 400.727 807.373 400.58 807.226C400.433 807.079 400.351 806.879 400.351 806.672V800.403C400.351 800.195 400.433 799.996 400.58 799.849C400.727 799.702 400.926 799.619 401.134 799.619H405.836L412.888 794.134V812.94L405.836 807.455Z" stroke="white" stroke-width="1.56716" stroke-linecap="round" stroke-linejoin="round"/>
<path d="M416.802 801.187V805.888" stroke="white" stroke-width="1.56716" stroke-linecap="round" stroke-linejoin="round"/>
<path d="M419.936 799.619V807.455" stroke="white" stroke-width="1.56716" stroke-linecap="round" stroke-linejoin="round"/>
<g filter="url(#filter10_b_1078_1922)">
<rect x="67" y="767" width="64" height="64" rx="32" fill="white" fill-opacity="0.1"/>
</g>
<path d="M93.3571 800.714L88 795.357L93.3571 790" stroke="white" stroke-width="2.67857" stroke-linecap="round" stroke-linejoin="round"/>
<path d="M93.3571 807.857H103.179C104.836 807.857 106.426 807.198 107.598 806.026C108.77 804.854 109.429 803.265 109.429 801.607V801.607C109.429 800.786 109.267 799.973 108.953 799.215C108.639 798.457 108.178 797.768 107.598 797.188C107.018 796.607 106.329 796.147 105.57 795.833C104.812 795.519 103.999 795.357 103.179 795.357H88" stroke="white" stroke-width="2.67857" stroke-linecap="round" stroke-linejoin="round"/>
<g filter="url(#filter11_b_1078_1922)">
<rect x="67" y="917" width="64" height="64" rx="32" fill="white" fill-opacity="0.1"/>
<rect x="67.5" y="917.5" width="63" height="63" rx="31.5" stroke="white"/>
</g>
<path d="M93.3571 950.714L88 945.357L93.3571 940" stroke="white" stroke-width="2.67857" stroke-linecap="round" stroke-linejoin="round"/>
<path d="M93.3571 957.857H103.179C104.836 957.857 106.426 957.198 107.598 956.026C108.77 954.854 109.429 953.265 109.429 951.607V951.607C109.429 950.786 109.267 949.973 108.953 949.215C108.639 948.457 108.178 947.768 107.598 947.188C107.018 946.607 106.329 946.147 105.57 945.833C104.812 945.519 103.999 945.357 103.179 945.357H88" stroke="white" stroke-width="2.67857" stroke-linecap="round" stroke-linejoin="round"/>
<g filter="url(#filter12_b_1078_1922)">
<rect x="711" y="768" width="509.286" height="62" rx="31" fill="white" fill-opacity="0.1"/>
</g>
<g filter="url(#filter13_dd_1078_1922)">
<path d="M747.061 793.615V796.611L750.739 795.198V807.036H753.954V790.863H753.686L747.061 793.615ZM768.266 801.141V791.082H766.366L757.329 803.041V803.991H765.026V807.036H768.266V803.991H770.702V801.141H768.266ZM765.026 796.927V801.141H761.884L765.026 796.927ZM772.992 793.615V796.611L776.67 795.198V807.036H779.885V790.863H779.617L772.992 793.615Z" fill="white"/>
</g>
<path d="M813.658 805.25L810.535 794.422H809.273L806.151 805.184L801.878 792.208H800.328L805.487 807.464H806.86L809.893 796.88L812.949 807.464H814.322L819.481 792.208H817.931L813.658 805.25ZM827.193 807.464V792.208H825.732V807.464H827.193ZM839.295 807.73C842.617 807.73 844.388 805.405 844.388 803.257C844.388 801.043 842.727 799.781 840.314 799.183L838.232 798.651C835.974 798.098 835.752 796.902 835.752 796.194C835.752 794.489 837.369 793.315 839.096 793.315C840.912 793.315 842.329 794.4 842.417 796.083H843.857C843.768 793.536 841.731 791.942 839.14 791.942C836.616 791.942 834.291 793.669 834.291 796.194C834.291 797.411 834.734 799.249 837.9 800.002L839.96 800.489C841.465 800.866 842.927 801.663 842.927 803.324C842.927 804.763 841.731 806.357 839.295 806.357C837.147 806.357 835.752 804.918 835.62 803.412H834.18C834.291 805.626 836.284 807.73 839.295 807.73ZM861.116 799.227H852.724V792.208H851.262V807.464H852.724V800.534H861.116V807.464H862.577V792.208H861.116V799.227ZM872.073 800.666H878.406V799.294H872.073V793.581H879.336V792.208H870.634V807.464H879.58V806.091H872.073V800.666ZM890.598 807.73C893.92 807.73 895.691 805.405 895.691 803.257C895.691 801.043 894.03 799.781 891.617 799.183L889.535 798.651C887.277 798.098 887.055 796.902 887.055 796.194C887.055 794.489 888.672 793.315 890.399 793.315C892.215 793.315 893.632 794.4 893.72 796.083H895.16C895.071 793.536 893.034 791.942 890.443 791.942C887.919 791.942 885.594 793.669 885.594 796.194C885.594 797.411 886.037 799.249 889.203 800.002L891.263 800.489C892.768 800.866 894.23 801.663 894.23 803.324C894.23 804.763 893.034 806.357 890.598 806.357C888.45 806.357 887.055 804.918 886.923 803.412H885.483C885.594 805.626 887.587 807.73 890.598 807.73ZM927.359 792.208H926.009L920.141 804.32L914.273 792.208H912.9L911.018 807.464H912.435L914.007 794.776L919.476 805.892H920.827L926.252 794.821L927.824 807.464H929.264L927.359 792.208ZM937.861 800.666H944.194V799.294H937.861V793.581H945.124V792.208H936.422V807.464H945.367V806.091H937.861V800.666ZM961.634 804.896L953.84 792.208H952.312V807.464H953.773V794.754L961.59 807.464H963.095V792.208H961.634V804.896ZM969.349 792.208V793.581H974.198V807.464H975.66V793.581H980.531V792.208H969.349ZM988.256 807.464V792.208H986.795V807.464H988.256ZM1002.88 807.73C1007.22 807.73 1010.59 804.187 1010.59 799.869C1010.59 795.529 1007.22 791.942 1002.88 791.942C998.543 791.942 995.177 795.529 995.177 799.869C995.177 804.187 998.543 807.73 1002.88 807.73ZM1002.88 806.357C999.362 806.357 996.639 803.412 996.639 799.869C996.639 796.326 999.362 793.315 1002.88 793.315C1006.4 793.315 1009.13 796.326 1009.13 799.869C1009.13 803.412 1006.4 806.357 1002.88 806.357ZM1026.88 804.896L1019.09 792.208H1017.56V807.464H1019.02V794.754L1026.84 807.464H1028.34V792.208H1026.88V804.896ZM1037.83 800.666H1044.16V799.294H1037.83V793.581H1045.09V792.208H1036.39V807.464H1045.34V806.091H1037.83V800.666ZM1052.28 792.208V807.464H1058.06C1062.38 807.464 1064.88 804.187 1064.88 799.869C1064.88 795.529 1062.38 792.208 1058.06 792.208H1052.28ZM1053.74 806.091V793.581H1058.06C1061.54 793.581 1063.42 796.326 1063.42 799.869C1063.42 803.39 1061.54 806.091 1058.06 806.091H1053.74ZM1081.65 797.788C1081.45 795.241 1082.14 793.337 1083.35 791.61L1082.47 791.3C1080.96 792.85 1080.14 795.264 1080.32 797.788H1081.65ZM1084.55 797.788C1084.35 795.241 1085.04 793.337 1086.25 791.61L1085.37 791.3C1083.86 792.85 1083.04 795.264 1083.22 797.788H1084.55ZM1092.51 792.208V807.464H1094.79V801.818H1098.62C1101.9 801.818 1103.27 799.471 1103.27 797.035C1103.27 794.621 1101.9 792.208 1098.62 792.208H1092.51ZM1094.79 799.736V794.289H1098.57C1100.28 794.289 1100.99 795.684 1100.99 797.035C1100.99 798.386 1100.26 799.736 1098.49 799.736H1094.79ZM1115.03 807.73C1118.07 807.73 1120.68 805.715 1120.68 802.216V792.208H1118.4V802.194C1118.4 804.519 1116.83 805.56 1115.03 805.56C1113.24 805.56 1111.69 804.519 1111.69 802.194V792.208H1109.41V802.216C1109.41 805.715 1112 807.73 1115.03 807.73ZM1128.14 792.208V807.464H1130.42V801.818H1134.25C1137.52 801.818 1138.9 799.471 1138.9 797.035C1138.9 794.621 1137.52 792.208 1134.25 792.208H1128.14ZM1130.42 799.736V794.289H1134.2C1135.91 794.289 1136.62 795.684 1136.62 797.035C1136.62 798.386 1135.89 799.736 1134.11 799.736H1130.42ZM1145.22 792.208V807.464H1147.5V801.818H1151.33C1154.6 801.818 1155.98 799.471 1155.98 797.035C1155.98 794.621 1154.6 792.208 1151.33 792.208H1145.22ZM1147.5 799.736V794.289H1151.28C1152.99 794.289 1153.7 795.684 1153.7 797.035C1153.7 798.386 1152.97 799.736 1151.19 799.736H1147.5ZM1167.02 798.319L1162.77 792.208H1160.06L1165.89 800.467V807.464H1168.17V800.467L1174.04 792.208H1171.33L1167.02 798.319ZM1179.41 797.788C1180.94 796.238 1181.74 793.824 1181.56 791.3H1180.25C1180.43 793.846 1179.74 795.751 1178.53 797.478L1179.41 797.788ZM1182.31 797.788C1183.84 796.238 1184.64 793.824 1184.46 791.3H1183.15C1183.33 793.846 1182.64 795.751 1181.43 797.478L1182.31 797.788Z" fill="white"/>
<path d="M1666.61 88.6582C1668.26 88.0218 1668.82 86.4691 1668.82 84.9418C1668.82 82.1927 1666.99 80.4618 1664.09 80.4618H1657.5V98H1664.65C1667.86 98 1669.77 95.5818 1669.77 93.0618C1669.77 91.1527 1668.67 89.1164 1666.61 88.6582ZM1666.51 85.1709C1666.51 86.6727 1665.72 87.7673 1664.14 87.7673H1659.81V82.6H1664.06C1665.67 82.6 1666.51 83.6691 1666.51 85.1709ZM1659.81 95.8618V89.8036H1664.29C1666.43 89.8036 1667.45 91.28 1667.45 92.8582C1667.45 94.4873 1666.33 95.8618 1664.17 95.8618H1659.81ZM1678.45 85.8073C1676.87 85.8073 1675.72 86.7236 1675.11 88.8109V86.1127H1672.87V98H1675.11V93.6473C1675.11 90.5164 1676.05 87.9455 1678.42 87.9455C1678.88 87.9455 1679.52 88.0473 1680.15 88.3527L1680.51 86.2655C1680.15 86.0364 1679.29 85.8073 1678.45 85.8073ZM1691.69 87.9709C1690.9 86.5709 1689.22 85.8073 1687.43 85.8073C1684.07 85.8073 1681.5 88.5309 1681.5 92.0436C1681.5 95.6836 1684.23 98.3055 1687.33 98.3055C1689.24 98.3055 1690.9 97.3127 1691.69 95.8873V98H1693.9V86.1127H1691.69V87.9709ZM1687.66 96.2182C1685.47 96.2182 1683.74 94.3091 1683.74 92.0436C1683.74 89.8036 1685.47 87.8945 1687.64 87.8945C1689.62 87.8945 1691.69 89.6 1691.69 92.0436C1691.69 94.4618 1689.78 96.2182 1687.66 96.2182ZM1703.94 85.8073C1702.64 85.8073 1700.71 86.4691 1699.99 87.92V86.1127H1697.78V98H1699.99V91.56C1699.99 88.9891 1701.98 87.9964 1703.63 87.9964C1705.29 87.9964 1706.51 89.2691 1706.51 91.2545V98H1708.73V91.1273C1708.75 87.7927 1706.89 85.8073 1703.94 85.8073ZM1721.81 87.9709C1721.02 86.5709 1719.34 85.8073 1717.56 85.8073C1714.3 85.8073 1711.63 88.2764 1711.63 92.0436C1711.63 95.7855 1714.33 98.3055 1717.59 98.3055C1719.29 98.3055 1721.02 97.4909 1721.81 96.1418V98H1724.03V79.6473H1721.81V87.9709ZM1717.77 96.2182C1715.6 96.2182 1713.87 94.3855 1713.87 92.0182C1713.87 89.6255 1715.6 87.8945 1717.77 87.8945C1719.73 87.8945 1721.81 89.4473 1721.81 92.0182C1721.81 94.5636 1719.9 96.2182 1717.77 96.2182ZM1742.52 98.3055C1747.51 98.3055 1750.81 95.3527 1750.81 89.2182H1743.18V91.2291H1748.27C1748.27 94.0291 1745.67 96.1673 1742.52 96.1673C1738.83 96.1673 1735.95 93.0364 1735.95 89.2691C1735.95 85.5018 1738.83 82.2945 1742.52 82.2945C1744.17 82.2945 1745.7 82.9564 1746.82 83.9491L1748.42 82.4473C1746.89 81.0473 1744.83 80.1564 1742.52 80.1564C1737.53 80.1564 1733.63 84.28 1733.63 89.2691C1733.63 94.2327 1737.53 98.3055 1742.52 98.3055ZM1762.19 92.6545C1762.16 95.2255 1760.18 96.2182 1758.52 96.2182C1756.87 96.2182 1755.67 94.9455 1755.67 92.9345V86.1127H1753.46V92.9855C1753.43 96.32 1755.27 98.3055 1758.24 98.3055C1759.57 98.3055 1761.48 97.6436 1762.19 96.1418V98H1764.4V86.1127H1762.19V92.6545ZM1769.35 83.2109C1770.21 83.2109 1770.92 82.5745 1770.92 81.7345C1770.92 80.8945 1770.21 80.2582 1769.35 80.2582C1768.51 80.2582 1767.79 80.8945 1767.79 81.7345C1767.79 82.5745 1768.51 83.2109 1769.35 83.2109ZM1770.47 98V86.1127H1768.25V98H1770.47ZM1783.71 87.9709C1782.92 86.5709 1781.24 85.8073 1779.46 85.8073C1776.2 85.8073 1773.53 88.2764 1773.53 92.0436C1773.53 95.7855 1776.23 98.3055 1779.48 98.3055C1781.19 98.3055 1782.92 97.4909 1783.71 96.1418V98H1785.92V79.6473H1783.71V87.9709ZM1779.66 96.2182C1777.5 96.2182 1775.77 94.3855 1775.77 92.0182C1775.77 89.6255 1777.5 87.8945 1779.66 87.8945C1781.62 87.8945 1783.71 89.4473 1783.71 92.0182C1783.71 94.5636 1781.8 96.2182 1779.66 96.2182ZM1792.02 98V79.6473H1789.8V98H1792.02ZM1796.96 83.2109C1797.83 83.2109 1798.54 82.5745 1798.54 81.7345C1798.54 80.8945 1797.83 80.2582 1796.96 80.2582C1796.12 80.2582 1795.41 80.8945 1795.41 81.7345C1795.41 82.5745 1796.12 83.2109 1796.96 83.2109ZM1798.08 98V86.1127H1795.87V98H1798.08ZM1808.09 85.8073C1806.8 85.8073 1804.86 86.4691 1804.15 87.92V86.1127H1801.93V98H1804.15V91.56C1804.15 88.9891 1806.13 87.9964 1807.79 87.9964C1809.44 87.9964 1810.67 89.2691 1810.67 91.2545V98H1812.88V91.1273C1812.91 87.7927 1811.05 85.8073 1808.09 85.8073ZM1827.8 92.0182C1827.8 88.2509 1825.28 85.8073 1821.9 85.8073C1818.51 85.8073 1815.79 88.2509 1815.79 92.0182C1815.79 95.7855 1818.51 98.3055 1821.9 98.3055C1824.19 98.3055 1826.32 97.1855 1827.34 95.1236L1825.43 94.36C1824.75 95.5564 1823.42 96.2182 1821.97 96.2182C1819.94 96.2182 1818.41 95.1236 1818.08 93.0109H1827.75C1827.78 92.68 1827.8 92.3491 1827.8 92.0182ZM1818.1 91.1018C1818.46 88.9636 1819.88 87.8945 1821.9 87.8945C1823.86 87.8945 1825.31 89.0655 1825.59 91.1018H1818.1ZM1834.31 98.3055C1836.78 98.3055 1838.91 96.9055 1838.91 94.6909C1838.91 93.3418 1838.28 91.8655 1835.81 91.2545L1834.05 90.8218C1833.29 90.6436 1832.52 90.2109 1832.52 89.3964C1832.52 88.48 1833.29 87.7418 1834.43 87.7418C1835.38 87.7418 1836.32 88.3527 1836.34 89.2691H1838.48C1838.48 86.8764 1836.39 85.8073 1834.38 85.8073C1831.99 85.8073 1830.31 87.36 1830.31 89.32C1830.31 91.2291 1831.46 92.1964 1833.44 92.7309L1835.07 93.1127C1836.01 93.3164 1836.7 93.7745 1836.7 94.6655C1836.7 95.6327 1835.81 96.3709 1834.31 96.3709C1832.86 96.3709 1831.96 95.5309 1831.94 94.5127H1829.88C1829.98 96.9564 1832.17 98.3055 1834.31 98.3055Z" fill="white"/>
<path d="M155.73 98.3055C159.191 98.3055 162.119 96.0145 162.119 92.0182V80.4618H159.802V92.0182C159.802 94.7927 157.919 96.0909 155.73 96.0909C153.541 96.0909 151.657 94.7927 151.657 92.0182V80.4618H149.341V92.0182C149.341 96.0145 152.268 98.3055 155.73 98.3055ZM169.112 98V80.4618H166.796V98H169.112ZM182.709 90.4655H189.734V88.3018H182.709V82.6H190.752V80.4618H180.418V98H191.007V95.8618H182.709V90.4655ZM196.466 98V79.6473H194.252V98H196.466ZM211.542 92.0182C211.542 88.2509 209.022 85.8073 205.637 85.8073C202.252 85.8073 199.528 88.2509 199.528 92.0182C199.528 95.7855 202.252 98.3055 205.637 98.3055C207.928 98.3055 210.066 97.1855 211.084 95.1236L209.175 94.36C208.488 95.5564 207.164 96.2182 205.713 96.2182C203.677 96.2182 202.15 95.1236 201.819 93.0109H211.492C211.517 92.68 211.542 92.3491 211.542 92.0182ZM201.844 91.1018C202.201 88.9636 203.626 87.8945 205.637 87.8945C207.597 87.8945 209.048 89.0655 209.328 91.1018H201.844ZM228.662 85.8073C227.466 85.8073 225.608 86.2145 224.513 88.3527C223.826 86.7236 222.324 85.8073 220.593 85.8073C218.913 85.8073 217.361 86.6473 216.775 87.9455V86.1127H214.561V98H216.775V91.56C216.775 89.04 218.455 87.9455 220.135 87.9455C221.713 87.9455 222.808 89.2436 222.808 91.2545V98H225.022V92.0436C225.022 89.3964 226.117 87.92 228.23 87.9455C229.961 87.9455 231.055 89.2691 231.055 91.2545V98H233.27V91.1273C233.27 87.7927 231.641 85.8073 228.662 85.8073ZM248.183 92.0182C248.183 88.2509 245.663 85.8073 242.278 85.8073C238.892 85.8073 236.169 88.2509 236.169 92.0182C236.169 95.7855 238.892 98.3055 242.278 98.3055C244.569 98.3055 246.707 97.1855 247.725 95.1236L245.816 94.36C245.129 95.5564 243.805 96.2182 242.354 96.2182C240.318 96.2182 238.79 95.1236 238.459 93.0109H248.132C248.158 92.68 248.183 92.3491 248.183 92.0182ZM238.485 91.1018C238.841 88.9636 240.267 87.8945 242.278 87.8945C244.238 87.8945 245.689 89.0655 245.969 91.1018H238.485ZM257.361 85.8073C256.063 85.8073 254.129 86.4691 253.416 87.92V86.1127H251.201V98H253.416V91.56C253.416 88.9891 255.401 87.9964 257.056 87.9964C258.71 87.9964 259.932 89.2691 259.932 91.2545V98H262.147V91.1273C262.172 87.7927 260.314 85.8073 257.361 85.8073ZM268.824 86.1127V81.6327H266.61V86.1127H264.472V88.0218H266.61V98H268.824V88.0218H271.395V86.1127H268.824ZM277.26 98.3055C279.729 98.3055 281.867 96.9055 281.867 94.6909C281.867 93.3418 281.23 91.8655 278.761 91.2545L277.005 90.8218C276.241 90.6436 275.478 90.2109 275.478 89.3964C275.478 88.48 276.241 87.7418 277.387 87.7418C278.329 87.7418 279.27 88.3527 279.296 89.2691H281.434C281.434 86.8764 279.347 85.8073 277.336 85.8073C274.943 85.8073 273.263 87.36 273.263 89.32C273.263 91.2291 274.409 92.1964 276.394 92.7309L278.023 93.1127C278.965 93.3164 279.652 93.7745 279.652 94.6655C279.652 95.6327 278.761 96.3709 277.26 96.3709C275.809 96.3709 274.918 95.5309 274.892 94.5127H272.83C272.932 96.9564 275.121 98.3055 277.26 98.3055Z" fill="white"/>
<path d="M126 89H65" stroke="white" stroke-width="3"/>
<circle cx="562" cy="987" r="31.5" fill="white" fill-opacity="0.1" stroke="white"/>
<line x1="550.5" y1="995.5" x2="573.5" y2="995.5" stroke="white" stroke-width="3" stroke-linecap="round"/>
<line x1="550.5" y1="987.5" x2="573.5" y2="987.5" stroke="white" stroke-width="3" stroke-linecap="round"/>
<line x1="550.5" y1="979.5" x2="573.5" y2="979.5" stroke="white" stroke-width="3" stroke-linecap="round"/>
<circle cx="562" cy="898" r="32" fill="white" fill-opacity="0.1"/>
<line x1="550.5" y1="906.5" x2="573.5" y2="906.5" stroke="white" stroke-width="3" stroke-linecap="round"/>
<line x1="550.5" y1="898.5" x2="573.5" y2="898.5" stroke="white" stroke-width="3" stroke-linecap="round"/>
<line x1="550.5" y1="890.5" x2="573.5" y2="890.5" stroke="white" stroke-width="3" stroke-linecap="round"/>
<defs>
<filter id="filter0_b_1078_1922" x="658.761" y="495.761" width="409.552" height="174.478" filterUnits="userSpaceOnUse" color-interpolation-filters="sRGB">
<feFlood flood-opacity="0" result="BackgroundImageFix"/>
<feGaussianBlur in="BackgroundImageFix" stdDeviation="26.1194"/>
<feComposite in2="SourceAlpha" operator="in" result="effect1_backgroundBlur_1078_1922"/>
<feBlend mode="normal" in="SourceGraphic" in2="effect1_backgroundBlur_1078_1922" result="shape"/>
</filter>
<filter id="filter1_b_1078_1922" x="997.761" y="495.761" width="409.552" height="174.478" filterUnits="userSpaceOnUse" color-interpolation-filters="sRGB">
<feFlood flood-opacity="0" result="BackgroundImageFix"/>
<feGaussianBlur in="BackgroundImageFix" stdDeviation="26.1194"/>
<feComposite in2="SourceAlpha" operator="in" result="effect1_backgroundBlur_1078_1922"/>
<feBlend mode="normal" in="SourceGraphic" in2="effect1_backgroundBlur_1078_1922" result="shape"/>
</filter>
<filter id="filter2_d_1078_1922" x="1084.39" y="568.812" width="50.7188" height="31.5381" filterUnits="userSpaceOnUse" color-interpolation-filters="sRGB">
<feFlood flood-opacity="0" result="BackgroundImageFix"/>
<feColorMatrix in="SourceAlpha" type="matrix" values="0 0 0 0 0 0 0 0 0 0 0 0 0 0 0 0 0 0 127 0" result="hardAlpha"/>
<feOffset/>
<feGaussianBlur stdDeviation="4"/>
<feColorMatrix type="matrix" values="0 0 0 0 1 0 0 0 0 1 0 0 0 0 1 0 0 0 0.55 0"/>
<feBlend mode="normal" in2="BackgroundImageFix" result="effect1_dropShadow_1078_1922"/>
<feBlend mode="normal" in="SourceGraphic" in2="effect1_dropShadow_1078_1922" result="shape"/>
</filter>
<filter id="filter3_b_1078_1922" x="658.761" y="605.761" width="371.94" height="174.478" filterUnits="userSpaceOnUse" color-interpolation-filters="sRGB">
<feFlood flood-opacity="0" result="BackgroundImageFix"/>
<feGaussianBlur in="BackgroundImageFix" stdDeviation="26.1194"/>
<feComposite in2="SourceAlpha" operator="in" result="effect1_backgroundBlur_1078_1922"/>
<feBlend mode="normal" in="SourceGraphic" in2="effect1_backgroundBlur_1078_1922" result="shape"/>
</filter>
<filter id="filter4_b_1078_1922" x="193" y="743" width="117" height="118" filterUnits="userSpaceOnUse" color-interpolation-filters="sRGB">
<feFlood flood-opacity="0" result="BackgroundImageFix"/>
<feGaussianBlur in="BackgroundImageFix" stdDeviation="12"/>
<feComposite in2="SourceAlpha" operator="in" result="effect1_backgroundBlur_1078_1922"/>
<feBlend mode="normal" in="SourceGraphic" in2="effect1_backgroundBlur_1078_1922" result="shape"/>
</filter>
<filter id="filter5_b_1078_1922" x="197" y="888" width="117" height="118" filterUnits="userSpaceOnUse" color-interpolation-filters="sRGB">
<feFlood flood-opacity="0" result="BackgroundImageFix"/>
<feGaussianBlur in="BackgroundImageFix" stdDeviation="12"/>
<feComposite in2="SourceAlpha" operator="in" result="effect1_backgroundBlur_1078_1922"/>
<feBlend mode="normal" in="SourceGraphic" in2="effect1_backgroundBlur_1078_1922" result="shape"/>
</filter>
<filter id="filter6_b_1078_1922" x="273" y="743" width="117" height="118" filterUnits="userSpaceOnUse" color-interpolation-filters="sRGB">
<feFlood flood-opacity="0" result="BackgroundImageFix"/>
<feGaussianBlur in="BackgroundImageFix" stdDeviation="12"/>
<feComposite in2="SourceAlpha" operator="in" result="effect1_backgroundBlur_1078_1922"/>
<feBlend mode="normal" in="SourceGraphic" in2="effect1_backgroundBlur_1078_1922" result="shape"/>
</filter>
<filter id="filter7_d_1078_1922" x="17" y="150" width="249" height="249" filterUnits="userSpaceOnUse" color-interpolation-filters="sRGB">
<feFlood flood-opacity="0" result="BackgroundImageFix"/>
<feColorMatrix in="SourceAlpha" type="matrix" values="0 0 0 0 0 0 0 0 0 0 0 0 0 0 0 0 0 0 127 0" result="hardAlpha"/>
<feOffset/>
<feGaussianBlur stdDeviation="25"/>
<feColorMatrix type="matrix" values="0 0 0 0 1 0 0 0 0 1 0 0 0 0 1 0 0 0 1 0"/>
<feBlend mode="normal" in2="BackgroundImageFix" result="effect1_dropShadow_1078_1922"/>
<feBlend mode="normal" in="SourceGraphic" in2="effect1_dropShadow_1078_1922" result="shape"/>
</filter>
<filter id="filter8_d_1078_1922" x="245" y="150" width="249" height="249" filterUnits="userSpaceOnUse" color-interpolation-filters="sRGB">
<feFlood flood-opacity="0" result="BackgroundImageFix"/>
<feColorMatrix in="SourceAlpha" type="matrix" values="0 0 0 0 0 0 0 0 0 0 0 0 0 0 0 0 0 0 127 0" result="hardAlpha"/>
<feOffset/>
<feGaussianBlur stdDeviation="25"/>
<feColorMatrix type="matrix" values="0 0 0 0 1 0 0 0 0 1 0 0 0 0 1 0 0 0 1 0"/>
<feBlend mode="normal" in2="BackgroundImageFix" result="effect1_dropShadow_1078_1922"/>
<feBlend mode="normal" in="SourceGraphic" in2="effect1_dropShadow_1078_1922" result="shape"/>
</filter>
<filter id="filter9_b_1078_1922" x="353" y="743" width="117" height="118" filterUnits="userSpaceOnUse" color-interpolation-filters="sRGB">
<feFlood flood-opacity="0" result="BackgroundImageFix"/>
<feGaussianBlur in="BackgroundImageFix" stdDeviation="12"/>
<feComposite in2="SourceAlpha" operator="in" result="effect1_backgroundBlur_1078_1922"/>
<feBlend mode="normal" in="SourceGraphic" in2="effect1_backgroundBlur_1078_1922" result="shape"/>
</filter>
<filter id="filter10_b_1078_1922" x="9.85714" y="709.857" width="178.286" height="178.286" filterUnits="userSpaceOnUse" color-interpolation-filters="sRGB">
<feFlood flood-opacity="0" result="BackgroundImageFix"/>
<feGaussianBlur in="BackgroundImageFix" stdDeviation="28.5714"/>
<feComposite in2="SourceAlpha" operator="in" result="effect1_backgroundBlur_1078_1922"/>
<feBlend mode="normal" in="SourceGraphic" in2="effect1_backgroundBlur_1078_1922" result="shape"/>
</filter>
<filter id="filter11_b_1078_1922" x="9.85714" y="859.857" width="178.286" height="178.286" filterUnits="userSpaceOnUse" color-interpolation-filters="sRGB">
<feFlood flood-opacity="0" result="BackgroundImageFix"/>
<feGaussianBlur in="BackgroundImageFix" stdDeviation="28.5714"/>
<feComposite in2="SourceAlpha" operator="in" result="effect1_backgroundBlur_1078_1922"/>
<feBlend mode="normal" in="SourceGraphic" in2="effect1_backgroundBlur_1078_1922" result="shape"/>
</filter>
<filter id="filter12_b_1078_1922" x="655.643" y="712.643" width="619.999" height="172.714" filterUnits="userSpaceOnUse" color-interpolation-filters="sRGB">
<feFlood flood-opacity="0" result="BackgroundImageFix"/>
<feGaussianBlur in="BackgroundImageFix" stdDeviation="27.6786"/>
<feComposite in2="SourceAlpha" operator="in" result="effect1_backgroundBlur_1078_1922"/>
<feBlend mode="normal" in="SourceGraphic" in2="effect1_backgroundBlur_1078_1922" result="shape"/>
</filter>
<filter id="filter13_dd_1078_1922" x="719.382" y="764.568" width="88.1814" height="71.5305" filterUnits="userSpaceOnUse" color-interpolation-filters="sRGB">
<feFlood flood-opacity="0" result="BackgroundImageFix"/>
<feColorMatrix in="SourceAlpha" type="matrix" values="0 0 0 0 0 0 0 0 0 0 0 0 0 0 0 0 0 0 127 0" result="hardAlpha"/>
<feOffset dy="4.15179"/>
<feGaussianBlur stdDeviation="3.97879"/>
<feColorMatrix type="matrix" values="0 0 0 0 1 0 0 0 0 1 0 0 0 0 1 0 0 0 0.25 0"/>
<feBlend mode="normal" in2="BackgroundImageFix" result="effect1_dropShadow_1078_1922"/>
<feColorMatrix in="SourceAlpha" type="matrix" values="0 0 0 0 0 0 0 0 0 0 0 0 0 0 0 0 0 0 127 0" result="hardAlpha"/>
<feOffset dy="1.38393"/>
<feGaussianBlur stdDeviation="13.8393"/>
<feColorMatrix type="matrix" values="0 0 0 0 0 0 0 0 0 0 0 0 0 0 0 0 0 0 1 0"/>
<feBlend mode="normal" in2="effect1_dropShadow_1078_1922" result="effect2_dropShadow_1078_1922"/>
<feBlend mode="normal" in="SourceGraphic" in2="effect2_dropShadow_1078_1922" result="shape"/>
</filter>
<linearGradient id="paint0_linear_1078_1922" x1="752.791" y1="573.075" x2="805.791" y2="579.859" gradientUnits="userSpaceOnUse">
<stop stop-color="#F2387C"/>
<stop offset="1" stop-color="#DE41F2"/>
</linearGradient>
<linearGradient id="paint1_linear_1078_1922" x1="1091.79" y1="573.075" x2="1144.79" y2="579.859" gradientUnits="userSpaceOnUse">
<stop stop-color="#F2387C"/>
<stop offset="1" stop-color="#DE41F2"/>
</linearGradient>
<linearGradient id="paint2_linear_1078_1922" x1="67" y1="548" x2="290" y2="583.714" gradientUnits="userSpaceOnUse">
<stop stop-color="#F2387C"/>
<stop offset="1" stop-color="#DE41F2"/>
</linearGradient>
<linearGradient id="paint3_linear_1078_1922" x1="67" y1="200" x2="223.358" y2="208.169" gradientUnits="userSpaceOnUse">
<stop stop-color="#F0D7E0"/>
<stop offset="1" stop-color="#DE41F2"/>
</linearGradient>
<clipPath id="clip0_1078_1922">
<rect width="34" height="33" fill="white" transform="translate(234.5 785.5)"/>
</clipPath>
</defs>
</svg>
