<svg width="1920" height="1080" viewBox="0 0 1920 1080" fill="none" xmlns="http://www.w3.org/2000/svg">
<rect width="1920" height="1080" fill="#02053A"/>
<path d="M1666.61 88.6582C1668.26 88.0218 1668.82 86.4691 1668.82 84.9418C1668.82 82.1927 1666.99 80.4618 1664.09 80.4618H1657.5V98H1664.65C1667.86 98 1669.77 95.5818 1669.77 93.0618C1669.77 91.1527 1668.67 89.1164 1666.61 88.6582ZM1666.51 85.1709C1666.51 86.6727 1665.72 87.7673 1664.14 87.7673H1659.81V82.6H1664.06C1665.67 82.6 1666.51 83.6691 1666.51 85.1709ZM1659.81 95.8618V89.8036H1664.29C1666.43 89.8036 1667.45 91.28 1667.45 92.8582C1667.45 94.4873 1666.33 95.8618 1664.17 95.8618H1659.81ZM1678.45 85.8073C1676.87 85.8073 1675.72 86.7236 1675.11 88.8109V86.1127H1672.87V98H1675.11V93.6473C1675.11 90.5164 1676.05 87.9455 1678.42 87.9455C1678.88 87.9455 1679.52 88.0473 1680.15 88.3527L1680.51 86.2655C1680.15 86.0364 1679.29 85.8073 1678.45 85.8073ZM1691.69 87.9709C1690.9 86.5709 1689.22 85.8073 1687.43 85.8073C1684.07 85.8073 1681.5 88.5309 1681.5 92.0436C1681.5 95.6836 1684.23 98.3055 1687.33 98.3055C1689.24 98.3055 1690.9 97.3127 1691.69 95.8873V98H1693.9V86.1127H1691.69V87.9709ZM1687.66 96.2182C1685.47 96.2182 1683.74 94.3091 1683.74 92.0436C1683.74 89.8036 1685.47 87.8945 1687.64 87.8945C1689.62 87.8945 1691.69 89.6 1691.69 92.0436C1691.69 94.4618 1689.78 96.2182 1687.66 96.2182ZM1703.94 85.8073C1702.64 85.8073 1700.71 86.4691 1699.99 87.92V86.1127H1697.78V98H1699.99V91.56C1699.99 88.9891 1701.98 87.9964 1703.63 87.9964C1705.29 87.9964 1706.51 89.2691 1706.51 91.2545V98H1708.73V91.1273C1708.75 87.7927 1706.89 85.8073 1703.94 85.8073ZM1721.81 87.9709C1721.02 86.5709 1719.34 85.8073 1717.56 85.8073C1714.3 85.8073 1711.63 88.2764 1711.63 92.0436C1711.63 95.7855 1714.33 98.3055 1717.59 98.3055C1719.29 98.3055 1721.02 97.4909 1721.81 96.1418V98H1724.03V79.6473H1721.81V87.9709ZM1717.77 96.2182C1715.6 96.2182 1713.87 94.3855 1713.87 92.0182C1713.87 89.6255 1715.6 87.8945 1717.77 87.8945C1719.73 87.8945 1721.81 89.4473 1721.81 92.0182C1721.81 94.5636 1719.9 96.2182 1717.77 96.2182ZM1742.52 98.3055C1747.51 98.3055 1750.81 95.3527 1750.81 89.2182H1743.18V91.2291H1748.27C1748.27 94.0291 1745.67 96.1673 1742.52 96.1673C1738.83 96.1673 1735.95 93.0364 1735.95 89.2691C1735.95 85.5018 1738.83 82.2945 1742.52 82.2945C1744.17 82.2945 1745.7 82.9564 1746.82 83.9491L1748.42 82.4473C1746.89 81.0473 1744.83 80.1564 1742.52 80.1564C1737.53 80.1564 1733.63 84.28 1733.63 89.2691C1733.63 94.2327 1737.53 98.3055 1742.52 98.3055ZM1762.19 92.6545C1762.16 95.2255 1760.18 96.2182 1758.52 96.2182C1756.87 96.2182 1755.67 94.9455 1755.67 92.9345V86.1127H1753.46V92.9855C1753.43 96.32 1755.27 98.3055 1758.24 98.3055C1759.57 98.3055 1761.48 97.6436 1762.19 96.1418V98H1764.4V86.1127H1762.19V92.6545ZM1769.35 83.2109C1770.21 83.2109 1770.92 82.5745 1770.92 81.7345C1770.92 80.8945 1770.21 80.2582 1769.35 80.2582C1768.51 80.2582 1767.79 80.8945 1767.79 81.7345C1767.79 82.5745 1768.51 83.2109 1769.35 83.2109ZM1770.47 98V86.1127H1768.25V98H1770.47ZM1783.71 87.9709C1782.92 86.5709 1781.24 85.8073 1779.46 85.8073C1776.2 85.8073 1773.53 88.2764 1773.53 92.0436C1773.53 95.7855 1776.23 98.3055 1779.48 98.3055C1781.19 98.3055 1782.92 97.4909 1783.71 96.1418V98H1785.92V79.6473H1783.71V87.9709ZM1779.66 96.2182C1777.5 96.2182 1775.77 94.3855 1775.77 92.0182C1775.77 89.6255 1777.5 87.8945 1779.66 87.8945C1781.62 87.8945 1783.71 89.4473 1783.71 92.0182C1783.71 94.5636 1781.8 96.2182 1779.66 96.2182ZM1792.02 98V79.6473H1789.8V98H1792.02ZM1796.96 83.2109C1797.83 83.2109 1798.54 82.5745 1798.54 81.7345C1798.54 80.8945 1797.83 80.2582 1796.96 80.2582C1796.12 80.2582 1795.41 80.8945 1795.41 81.7345C1795.41 82.5745 1796.12 83.2109 1796.96 83.2109ZM1798.08 98V86.1127H1795.87V98H1798.08ZM1808.09 85.8073C1806.8 85.8073 1804.86 86.4691 1804.15 87.92V86.1127H1801.93V98H1804.15V91.56C1804.15 88.9891 1806.13 87.9964 1807.79 87.9964C1809.44 87.9964 1810.67 89.2691 1810.67 91.2545V98H1812.88V91.1273C1812.91 87.7927 1811.05 85.8073 1808.09 85.8073ZM1827.8 92.0182C1827.8 88.2509 1825.28 85.8073 1821.9 85.8073C1818.51 85.8073 1815.79 88.2509 1815.79 92.0182C1815.79 95.7855 1818.51 98.3055 1821.9 98.3055C1824.19 98.3055 1826.32 97.1855 1827.34 95.1236L1825.43 94.36C1824.75 95.5564 1823.42 96.2182 1821.97 96.2182C1819.94 96.2182 1818.41 95.1236 1818.08 93.0109H1827.75C1827.78 92.68 1827.8 92.3491 1827.8 92.0182ZM1818.1 91.1018C1818.46 88.9636 1819.88 87.8945 1821.9 87.8945C1823.86 87.8945 1825.31 89.0655 1825.59 91.1018H1818.1ZM1834.31 98.3055C1836.78 98.3055 1838.91 96.9055 1838.91 94.6909C1838.91 93.3418 1838.28 91.8655 1835.81 91.2545L1834.05 90.8218C1833.29 90.6436 1832.52 90.2109 1832.52 89.3964C1832.52 88.48 1833.29 87.7418 1834.43 87.7418C1835.38 87.7418 1836.32 88.3527 1836.34 89.2691H1838.48C1838.48 86.8764 1836.39 85.8073 1834.38 85.8073C1831.99 85.8073 1830.31 87.36 1830.31 89.32C1830.31 91.2291 1831.46 92.1964 1833.44 92.7309L1835.07 93.1127C1836.01 93.3164 1836.7 93.7745 1836.7 94.6655C1836.7 95.6327 1835.81 96.3709 1834.31 96.3709C1832.86 96.3709 1831.96 95.5309 1831.94 94.5127H1829.88C1829.98 96.9564 1832.17 98.3055 1834.31 98.3055Z" fill="white"/>
<path d="M146.291 98.3055C148.99 98.3055 151.331 97.16 152.884 95.3273L151.204 93.9018C150.033 95.2764 148.251 96.1673 146.291 96.1673C142.601 96.1673 139.699 93.0109 139.699 89.2691C139.699 85.5018 142.601 82.2945 146.291 82.2945C148.251 82.2945 150.033 83.1855 151.204 84.56L152.884 83.1345C151.331 81.3018 148.99 80.1564 146.291 80.1564C141.328 80.1564 137.382 84.3055 137.382 89.2691C137.382 94.2327 141.328 98.3055 146.291 98.3055ZM160.917 98.3055C164.302 98.3055 167.153 95.8109 167.153 92.0436C167.153 88.2764 164.302 85.8073 160.917 85.8073C157.531 85.8073 154.706 88.2764 154.706 92.0436C154.706 95.8109 157.531 98.3055 160.917 98.3055ZM160.917 96.2182C158.753 96.2182 156.946 94.5127 156.946 92.0436C156.946 89.6 158.753 87.8945 160.917 87.8945C163.106 87.8945 164.939 89.6 164.939 92.0436C164.939 94.5127 163.106 96.2182 160.917 96.2182ZM172.451 98V79.6473H170.236V98H172.451ZM181.698 98.3055C185.084 98.3055 187.934 95.8109 187.934 92.0436C187.934 88.2764 185.084 85.8073 181.698 85.8073C178.313 85.8073 175.487 88.2764 175.487 92.0436C175.487 95.8109 178.313 98.3055 181.698 98.3055ZM181.698 96.2182C179.534 96.2182 177.727 94.5127 177.727 92.0436C177.727 89.6 179.534 87.8945 181.698 87.8945C183.887 87.8945 185.72 89.6 185.72 92.0436C185.72 94.5127 183.887 96.2182 181.698 96.2182ZM196.592 85.8073C195.014 85.8073 193.869 86.7236 193.258 88.8109V86.1127H191.018V98H193.258V93.6473C193.258 90.5164 194.199 87.9455 196.567 87.9455C197.025 87.9455 197.661 88.0473 198.298 88.3527L198.654 86.2655C198.298 86.0364 197.432 85.8073 196.592 85.8073ZM204.2 98.3055C206.669 98.3055 208.807 96.9055 208.807 94.6909C208.807 93.3418 208.17 91.8655 205.701 91.2545L203.945 90.8218C203.181 90.6436 202.418 90.2109 202.418 89.3964C202.418 88.48 203.181 87.7418 204.327 87.7418C205.269 87.7418 206.21 88.3527 206.236 89.2691H208.374C208.374 86.8764 206.287 85.8073 204.276 85.8073C201.883 85.8073 200.203 87.36 200.203 89.32C200.203 91.2291 201.349 92.1964 203.334 92.7309L204.963 93.1127C205.905 93.3164 206.592 93.7745 206.592 94.6655C206.592 95.6327 205.701 96.3709 204.2 96.3709C202.749 96.3709 201.858 95.5309 201.832 94.5127H199.77C199.872 96.9564 202.061 98.3055 204.2 98.3055Z" fill="white"/>
<path d="M126 89H65" stroke="white" stroke-width="3"/>
<rect width="948" height="921" transform="translate(972 159)" fill="black"/>
<rect width="948" height="921" transform="translate(972 159)" fill="#1B1A1A"/>
<rect width="948" height="921" transform="translate(972 159)" fill="#00034C"/>
<rect width="948" height="921" transform="translate(972 159)" fill="url(#paint0_radial_23_18)"/>
<rect width="948" height="921" transform="translate(972 159)" fill="url(#paint1_linear_23_18)"/>
<path d="M1006.76 1018.34L1008.81 1012.83L1010.87 1018.34H1006.76ZM1011.44 1019.85L1012.65 1023H1014.41L1009.71 1010.6H1007.91L1003.2 1023H1004.98L1006.19 1019.85H1011.44ZM1021.61 1019.13C1021.61 1020.93 1020.42 1021.58 1019.23 1021.58C1018.08 1021.58 1017.39 1020.75 1017.39 1019.35V1014.59H1015.76V1019.45C1015.74 1021.81 1016.89 1023.18 1019 1023.18C1019.91 1023.18 1021.1 1022.75 1021.61 1021.74V1023H1023.24V1014.59H1021.61V1019.13ZM1027.61 1019.94C1027.61 1017.71 1028.29 1015.98 1029.91 1015.98C1030.26 1015.98 1030.71 1016.05 1031.16 1016.27L1031.41 1014.74C1031.17 1014.58 1030.54 1014.41 1029.95 1014.41C1028.85 1014.41 1028.04 1015.01 1027.61 1016.48V1014.59H1025.97V1023H1027.61V1019.94ZM1033.94 1018.14C1034.14 1016.74 1035.22 1015.89 1036.61 1015.89C1037.96 1015.89 1038.96 1016.74 1039.16 1018.14H1033.94ZM1040.78 1018.77C1040.78 1016.11 1039 1014.41 1036.61 1014.41C1034.21 1014.41 1032.3 1016.11 1032.3 1018.77C1032.3 1021.43 1034.21 1023.18 1036.61 1023.18C1038.23 1023.18 1039.76 1022.42 1040.48 1020.95C1040.03 1020.77 1039.5 1020.59 1039.07 1020.41C1038.6 1021.24 1037.67 1021.7 1036.66 1021.7C1035.24 1021.7 1034.14 1020.82 1033.94 1019.42H1040.76C1040.78 1019.24 1040.78 1018.97 1040.78 1018.77ZM1042.86 1010.02V1023H1044.5V1010.02H1042.86ZM1048.86 1023H1047.24V1014.59H1048.86V1023ZM1046.92 1011.5C1046.92 1012.11 1047.44 1012.56 1048.05 1012.56C1048.68 1012.56 1049.19 1012.11 1049.19 1011.5C1049.19 1010.89 1048.68 1010.44 1048.05 1010.44C1047.44 1010.44 1046.92 1010.89 1046.92 1011.5ZM1058.26 1023H1059.88V1014.59H1058.26V1015.85C1057.7 1014.9 1056.48 1014.41 1055.31 1014.41C1053 1014.41 1051.04 1016.11 1051.04 1018.79C1051.04 1021.45 1053 1023.18 1055.31 1023.18C1056.48 1023.18 1057.7 1022.66 1058.26 1021.7V1023ZM1058.24 1018.77C1058.24 1020.55 1056.95 1021.58 1055.45 1021.58C1053.94 1021.58 1052.72 1020.43 1052.72 1018.77C1052.72 1017.1 1053.94 1016.02 1055.45 1016.02C1056.8 1016.02 1058.24 1016.97 1058.24 1018.77ZM1075.67 1013.8C1075.67 1011.84 1074.37 1010.6 1072.3 1010.6H1067.62V1023H1072.7C1074.98 1023 1076.33 1021.34 1076.33 1019.42C1076.33 1018.18 1075.49 1016.68 1074.1 1016.39C1075.27 1015.94 1075.67 1014.85 1075.67 1013.8ZM1069.31 1015.75V1012.15H1072.12C1073.24 1012.15 1073.96 1012.78 1073.96 1013.86C1073.96 1014.86 1073.4 1015.75 1072.3 1015.75H1069.31ZM1072.57 1017.22C1073.83 1017.22 1074.61 1018.41 1074.61 1019.4C1074.61 1020.44 1073.85 1021.43 1072.63 1021.43H1069.31V1017.22H1072.57ZM1082.43 1023.18C1084.83 1023.18 1086.84 1021.43 1086.84 1018.77C1086.84 1016.11 1084.83 1014.41 1082.43 1014.41C1080.04 1014.41 1078.04 1016.11 1078.04 1018.77C1078.04 1021.43 1080.04 1023.18 1082.43 1023.18ZM1082.43 1021.6C1080.92 1021.6 1079.66 1020.48 1079.66 1018.77C1079.66 1017.08 1080.92 1016.02 1082.43 1016.02C1083.95 1016.02 1085.21 1017.08 1085.21 1018.77C1085.21 1020.48 1083.95 1021.6 1082.43 1021.6ZM1090.66 1019.94C1090.66 1017.71 1091.35 1015.98 1092.97 1015.98C1093.31 1015.98 1093.76 1016.05 1094.21 1016.27L1094.46 1014.74C1094.23 1014.58 1093.6 1014.41 1093 1014.41C1091.9 1014.41 1091.09 1015.01 1090.66 1016.48V1014.59H1089.02V1023H1090.66V1019.94ZM1096.99 1018.14C1097.19 1016.74 1098.27 1015.89 1099.66 1015.89C1101.01 1015.89 1102.02 1016.74 1102.21 1018.14H1096.99ZM1103.83 1018.77C1103.83 1016.11 1102.05 1014.41 1099.66 1014.41C1097.26 1014.41 1095.36 1016.11 1095.36 1018.77C1095.36 1021.43 1097.26 1023.18 1099.66 1023.18C1101.28 1023.18 1102.81 1022.42 1103.53 1020.95C1103.08 1020.77 1102.56 1020.59 1102.12 1020.41C1101.66 1021.24 1100.72 1021.7 1099.71 1021.7C1098.29 1021.7 1097.19 1020.82 1096.99 1019.42H1103.82C1103.83 1019.24 1103.83 1018.97 1103.83 1018.77ZM1112.58 1023H1114.2V1014.59H1112.58V1015.85C1112.02 1014.9 1110.79 1014.41 1109.62 1014.41C1107.32 1014.41 1105.36 1016.11 1105.36 1018.79C1105.36 1021.45 1107.32 1023.18 1109.62 1023.18C1110.79 1023.18 1112.02 1022.66 1112.58 1021.7V1023ZM1112.56 1018.77C1112.56 1020.55 1111.26 1021.58 1109.77 1021.58C1108.26 1021.58 1107.03 1020.43 1107.03 1018.77C1107.03 1017.1 1108.26 1016.02 1109.77 1016.02C1111.12 1016.02 1112.56 1016.97 1112.56 1018.77ZM1116.94 1010.02V1023H1118.58V1010.02H1116.94ZM1122.94 1023H1121.32V1014.59H1122.94V1023ZM1120.99 1011.5C1120.99 1012.11 1121.51 1012.56 1122.13 1012.56C1122.76 1012.56 1123.26 1012.11 1123.26 1011.5C1123.26 1010.89 1122.76 1010.44 1122.13 1010.44C1121.51 1010.44 1120.99 1010.89 1120.99 1011.5ZM1127.58 1019.29L1128.73 1019.56C1129.35 1019.71 1129.87 1020.01 1129.85 1020.62C1129.83 1021.24 1129.33 1021.67 1128.57 1021.72C1128.03 1021.76 1127.6 1021.65 1127.24 1021.43C1126.84 1021.24 1126.61 1020.84 1126.56 1020.48H1125.06C1125.12 1022.21 1126.68 1023.18 1128.19 1023.18C1129.94 1023.18 1131.45 1022.23 1131.45 1020.66C1131.45 1019.71 1131.02 1018.64 1129.27 1018.21L1128.03 1017.91C1127.6 1017.78 1127.2 1017.6 1127.04 1017.26C1126.95 1017.06 1126.95 1016.86 1127.02 1016.59C1127.15 1016.14 1127.67 1015.84 1128.28 1015.84C1128.93 1015.84 1129.51 1016.16 1129.6 1016.79H1131.16C1131.02 1015.08 1129.67 1014.41 1128.25 1014.41C1126.75 1014.41 1125.46 1015.33 1125.33 1016.56C1125.19 1018.1 1126.05 1018.88 1127.58 1019.29Z" fill="white"/>
<path d="M1006.13 1053L1007.01 1049.92H1009.14L1008.27 1053H1009.71L1010.6 1049.92H1012.52L1012.92 1048.45H1010.99L1011.89 1045.22H1013.82L1014.23 1043.75H1012.31L1013.17 1040.6H1011.71L1010.83 1043.75H1008.72L1009.59 1040.6H1008.13L1007.27 1043.75H1005.36L1004.96 1045.22H1006.83L1005.97 1048.45H1004.06L1003.67 1049.92H1005.57L1004.71 1053H1006.13ZM1008.31 1045.22H1010.42L1009.53 1048.45H1007.43L1008.31 1045.22ZM1023.86 1040.6H1016.65V1053H1018.28V1047.67H1022.71V1046.14H1018.28V1042.11H1023.86V1040.6ZM1031.14 1047.6C1031.92 1046.68 1032.51 1045.48 1032.51 1044.56C1032.51 1042.47 1031.04 1041.08 1028.82 1041.08C1026.81 1041.08 1025.4 1042.27 1025.17 1044.05L1026.57 1044.36C1026.66 1043.3 1027.54 1042.58 1028.82 1042.58C1030.1 1042.58 1030.95 1043.37 1030.95 1044.56C1030.95 1045.1 1030.44 1046.05 1029.7 1046.95L1025.28 1052.3V1053H1032.67V1051.49H1027.9L1031.14 1047.6ZM1040.05 1046.68C1040.96 1046.25 1041.52 1045.33 1041.52 1044.22C1041.52 1042.33 1040.15 1041.08 1038.1 1041.08C1036.77 1041.08 1035.49 1041.77 1034.88 1042.79L1035.98 1043.69C1036.43 1043.01 1037.26 1042.58 1038.07 1042.58C1039.2 1042.58 1039.96 1043.24 1039.96 1044.25C1039.96 1045.31 1039.15 1046.05 1037.9 1046.05H1036.79V1047.4H1038.01C1039.47 1047.4 1040.51 1048.28 1040.51 1049.62C1040.51 1050.86 1039.43 1051.74 1037.96 1051.74C1036.95 1051.74 1036.03 1051.09 1035.49 1050.03L1034.21 1050.77C1034.92 1052.3 1036.34 1053.22 1038.01 1053.22C1040.41 1053.22 1042.1 1051.72 1042.1 1049.56C1042.1 1048.18 1041.27 1047.08 1040.05 1046.68ZM1050.49 1046.18C1051.21 1045.73 1051.7 1044.99 1051.7 1044C1051.7 1042.34 1050.33 1041.08 1048.33 1041.08C1046.32 1041.08 1044.97 1042.34 1044.97 1044C1044.97 1044.99 1045.44 1045.73 1046.16 1046.18C1044.79 1046.7 1043.91 1047.98 1043.91 1049.51C1043.91 1051.69 1045.76 1053.22 1048.33 1053.22C1050.89 1053.22 1052.73 1051.69 1052.73 1049.49C1052.73 1047.98 1051.84 1046.7 1050.49 1046.18ZM1048.33 1042.54C1049.31 1042.54 1050.04 1043.26 1050.04 1044.14C1050.04 1045.03 1049.31 1045.67 1048.33 1045.67C1047.36 1045.67 1046.61 1045.01 1046.61 1044.14C1046.61 1043.26 1047.36 1042.54 1048.33 1042.54ZM1048.33 1051.74C1046.77 1051.74 1045.56 1050.7 1045.56 1049.36C1045.56 1048 1046.82 1046.99 1048.33 1046.99C1049.81 1046.99 1051.07 1047.98 1051.07 1049.38C1051.07 1050.7 1049.95 1051.74 1048.33 1051.74ZM1054.51 1042.72H1059.98L1054.31 1053H1056.16L1062.55 1041.35V1041.23H1054.51V1042.72ZM1069.56 1053.22C1071.47 1053.22 1073.12 1052.41 1074.22 1051.11L1073.03 1050.1C1072.21 1051.07 1070.95 1051.7 1069.56 1051.7C1066.95 1051.7 1064.9 1049.47 1064.9 1046.83C1064.9 1044.16 1066.95 1041.89 1069.56 1041.89C1070.95 1041.89 1072.21 1042.52 1073.03 1043.5L1074.22 1042.49C1073.12 1041.19 1071.47 1040.38 1069.56 1040.38C1066.05 1040.38 1063.26 1043.32 1063.26 1046.83C1063.26 1050.34 1066.05 1053.22 1069.56 1053.22ZM1075.87 1055.9C1077.25 1054.73 1078.08 1052.8 1077.87 1050.73H1076.16C1076.39 1052.93 1075.8 1054.13 1074.79 1055.57L1075.87 1055.9ZM1086.89 1053L1087.77 1049.92H1089.89L1089.03 1053H1090.47L1091.35 1049.92H1093.28L1093.67 1048.45H1091.75L1092.65 1045.22H1094.57L1094.99 1043.75H1093.06L1093.92 1040.6H1092.47L1091.58 1043.75H1089.48L1090.34 1040.6H1088.88L1088.02 1043.75H1086.11L1085.72 1045.22H1087.59L1086.72 1048.45H1084.82L1084.42 1049.92H1086.33L1085.46 1053H1086.89ZM1089.06 1045.22H1091.17L1090.29 1048.45H1088.18L1089.06 1045.22ZM1104.62 1040.6H1097.4V1053H1099.04V1047.67H1103.47V1046.14H1099.04V1042.11H1104.62V1040.6ZM1111.9 1047.6C1112.67 1046.68 1113.27 1045.48 1113.27 1044.56C1113.27 1042.47 1111.79 1041.08 1109.58 1041.08C1107.56 1041.08 1106.16 1042.27 1105.92 1044.05L1107.33 1044.36C1107.42 1043.3 1108.3 1042.58 1109.58 1042.58C1110.85 1042.58 1111.7 1043.37 1111.7 1044.56C1111.7 1045.1 1111.2 1046.05 1110.46 1046.95L1106.03 1052.3V1053H1113.43V1051.49H1108.66L1111.9 1047.6ZM1120.8 1046.68C1121.72 1046.25 1122.28 1045.33 1122.28 1044.22C1122.28 1042.33 1120.91 1041.08 1118.86 1041.08C1117.52 1041.08 1116.25 1041.77 1115.63 1042.79L1116.73 1043.69C1117.18 1043.01 1118.01 1042.58 1118.82 1042.58C1119.95 1042.58 1120.71 1043.24 1120.71 1044.25C1120.71 1045.31 1119.9 1046.05 1118.66 1046.05H1117.54V1047.4H1118.77C1120.22 1047.4 1121.27 1048.28 1121.27 1049.62C1121.27 1050.86 1120.19 1051.74 1118.71 1051.74C1117.7 1051.74 1116.79 1051.09 1116.25 1050.03L1114.97 1050.77C1115.67 1052.3 1117.09 1053.22 1118.77 1053.22C1121.16 1053.22 1122.85 1051.72 1122.85 1049.56C1122.85 1048.18 1122.02 1047.08 1120.8 1046.68ZM1131.25 1046.18C1131.97 1045.73 1132.45 1044.99 1132.45 1044C1132.45 1042.34 1131.09 1041.08 1129.09 1041.08C1127.07 1041.08 1125.72 1042.34 1125.72 1044C1125.72 1044.99 1126.19 1045.73 1126.91 1046.18C1125.54 1046.7 1124.66 1047.98 1124.66 1049.51C1124.66 1051.69 1126.51 1053.22 1129.09 1053.22C1131.64 1053.22 1133.48 1051.69 1133.48 1049.49C1133.48 1047.98 1132.6 1046.7 1131.25 1046.18ZM1129.09 1042.54C1130.06 1042.54 1130.8 1043.26 1130.8 1044.14C1130.8 1045.03 1130.06 1045.67 1129.09 1045.67C1128.12 1045.67 1127.36 1045.01 1127.36 1044.14C1127.36 1043.26 1128.12 1042.54 1129.09 1042.54ZM1129.09 1051.74C1127.52 1051.74 1126.32 1050.7 1126.32 1049.36C1126.32 1048 1127.58 1046.99 1129.09 1046.99C1130.56 1046.99 1131.82 1047.98 1131.82 1049.38C1131.82 1050.7 1130.71 1051.74 1129.09 1051.74ZM1135.26 1042.72H1140.73L1135.06 1053H1136.92L1143.31 1041.35V1041.23H1135.26V1042.72ZM1150.31 1053.22C1152.22 1053.22 1153.88 1052.41 1154.98 1051.11L1153.79 1050.1C1152.96 1051.07 1151.7 1051.7 1150.31 1051.7C1147.7 1051.7 1145.65 1049.47 1145.65 1046.83C1145.65 1044.16 1147.7 1041.89 1150.31 1041.89C1151.7 1041.89 1152.96 1042.52 1153.79 1043.5L1154.98 1042.49C1153.88 1041.19 1152.22 1040.38 1150.31 1040.38C1146.8 1040.38 1144.01 1043.32 1144.01 1046.83C1144.01 1050.34 1146.8 1053.22 1150.31 1053.22ZM1156.62 1055.9C1158.01 1054.73 1158.84 1052.8 1158.62 1050.73H1156.91C1157.14 1052.93 1156.55 1054.13 1155.54 1055.57L1156.62 1055.9ZM1167.64 1053L1168.52 1049.92H1170.65L1169.78 1053H1171.22L1172.1 1049.92H1174.03L1174.43 1048.45H1172.5L1173.4 1045.22H1175.33L1175.74 1043.75H1173.81L1174.68 1040.6H1173.22L1172.34 1043.75H1170.23L1171.1 1040.6H1169.64L1168.77 1043.75H1166.87L1166.47 1045.22H1168.34L1167.48 1048.45H1165.57L1165.17 1049.92H1167.08L1166.22 1053H1167.64ZM1169.82 1045.22H1171.92L1171.04 1048.45H1168.94L1169.82 1045.22ZM1185.37 1040.6H1178.15V1053H1179.79V1047.67H1184.22V1046.14H1179.79V1042.11H1185.37V1040.6ZM1192.65 1047.6C1193.43 1046.68 1194.02 1045.48 1194.02 1044.56C1194.02 1042.47 1192.54 1041.08 1190.33 1041.08C1188.31 1041.08 1186.91 1042.27 1186.68 1044.05L1188.08 1044.36C1188.17 1043.3 1189.05 1042.58 1190.33 1042.58C1191.61 1042.58 1192.45 1043.37 1192.45 1044.56C1192.45 1045.1 1191.95 1046.05 1191.21 1046.95L1186.78 1052.3V1053H1194.18V1051.49H1189.41L1192.65 1047.6ZM1201.55 1046.68C1202.47 1046.25 1203.03 1045.33 1203.03 1044.22C1203.03 1042.33 1201.66 1041.08 1199.61 1041.08C1198.28 1041.08 1197 1041.77 1196.39 1042.79L1197.49 1043.69C1197.94 1043.01 1198.76 1042.58 1199.57 1042.58C1200.71 1042.58 1201.46 1043.24 1201.46 1044.25C1201.46 1045.31 1200.65 1046.05 1199.41 1046.05H1198.3V1047.4H1199.52C1200.98 1047.4 1202.02 1048.28 1202.02 1049.62C1202.02 1050.86 1200.94 1051.74 1199.47 1051.74C1198.46 1051.74 1197.54 1051.09 1197 1050.03L1195.72 1050.77C1196.42 1052.3 1197.85 1053.22 1199.52 1053.22C1201.91 1053.22 1203.61 1051.72 1203.61 1049.56C1203.61 1048.18 1202.78 1047.08 1201.55 1046.68ZM1212 1046.18C1212.72 1045.73 1213.21 1044.99 1213.21 1044C1213.21 1042.34 1211.84 1041.08 1209.84 1041.08C1207.83 1041.08 1206.48 1042.34 1206.48 1044C1206.48 1044.99 1206.94 1045.73 1207.66 1046.18C1206.3 1046.7 1205.41 1047.98 1205.41 1049.51C1205.41 1051.69 1207.27 1053.22 1209.84 1053.22C1212.4 1053.22 1214.23 1051.69 1214.23 1049.49C1214.23 1047.98 1213.35 1046.7 1212 1046.18ZM1209.84 1042.54C1210.81 1042.54 1211.55 1043.26 1211.55 1044.14C1211.55 1045.03 1210.81 1045.67 1209.84 1045.67C1208.87 1045.67 1208.11 1045.01 1208.11 1044.14C1208.11 1043.26 1208.87 1042.54 1209.84 1042.54ZM1209.84 1051.74C1208.28 1051.74 1207.07 1050.7 1207.07 1049.36C1207.07 1048 1208.33 1046.99 1209.84 1046.99C1211.32 1046.99 1212.58 1047.98 1212.58 1049.38C1212.58 1050.7 1211.46 1051.74 1209.84 1051.74ZM1216.02 1042.72H1221.49L1215.82 1053H1217.67L1224.06 1041.35V1041.23H1216.02V1042.72ZM1231.07 1053.22C1232.98 1053.22 1234.63 1052.41 1235.73 1051.11L1234.54 1050.1C1233.71 1051.07 1232.45 1051.7 1231.07 1051.7C1228.46 1051.7 1226.41 1049.47 1226.41 1046.83C1226.41 1044.16 1228.46 1041.89 1231.07 1041.89C1232.45 1041.89 1233.71 1042.52 1234.54 1043.5L1235.73 1042.49C1234.63 1041.19 1232.98 1040.38 1231.07 1040.38C1227.56 1040.38 1224.77 1043.32 1224.77 1046.83C1224.77 1050.34 1227.56 1053.22 1231.07 1053.22ZM1237.38 1055.9C1238.76 1054.73 1239.59 1052.8 1239.37 1050.73H1237.66C1237.9 1052.93 1237.3 1054.13 1236.3 1055.57L1237.38 1055.9ZM1243.84 1053L1244.72 1049.92H1246.85L1245.98 1053H1247.42L1248.3 1049.92H1250.23L1250.63 1048.45H1248.7L1249.6 1045.22H1251.53L1251.94 1043.75H1250.01L1250.88 1040.6H1249.42L1248.54 1043.75H1246.43L1247.3 1040.6H1245.84L1244.97 1043.75H1243.07L1242.67 1045.22H1244.54L1243.68 1048.45H1241.77L1241.37 1049.92H1243.28L1242.42 1053H1243.84ZM1246.02 1045.22H1248.12L1247.24 1048.45H1245.14L1246.02 1045.22ZM1261.57 1040.6H1254.35V1053H1255.99V1047.67H1260.42V1046.14H1255.99V1042.11H1261.57V1040.6ZM1268.85 1047.6C1269.63 1046.68 1270.22 1045.48 1270.22 1044.56C1270.22 1042.47 1268.74 1041.08 1266.53 1041.08C1264.51 1041.08 1263.11 1042.27 1262.88 1044.05L1264.28 1044.36C1264.37 1043.3 1265.25 1042.58 1266.53 1042.58C1267.81 1042.58 1268.65 1043.37 1268.65 1044.56C1268.65 1045.1 1268.15 1046.05 1267.41 1046.95L1262.98 1052.3V1053H1270.38V1051.49H1265.61L1268.85 1047.6ZM1277.76 1046.68C1278.67 1046.25 1279.23 1045.33 1279.23 1044.22C1279.23 1042.33 1277.86 1041.08 1275.81 1041.08C1274.48 1041.08 1273.2 1041.77 1272.59 1042.79L1273.69 1043.69C1274.14 1043.01 1274.97 1042.58 1275.78 1042.58C1276.91 1042.58 1277.67 1043.24 1277.67 1044.25C1277.67 1045.31 1276.86 1046.05 1275.61 1046.05H1274.5V1047.4H1275.72C1277.18 1047.4 1278.22 1048.28 1278.22 1049.62C1278.22 1050.86 1277.14 1051.74 1275.67 1051.74C1274.66 1051.74 1273.74 1051.09 1273.2 1050.03L1271.92 1050.77C1272.63 1052.3 1274.05 1053.22 1275.72 1053.22C1278.12 1053.22 1279.81 1051.72 1279.81 1049.56C1279.81 1048.18 1278.98 1047.08 1277.76 1046.68ZM1288.2 1046.18C1288.92 1045.73 1289.41 1044.99 1289.41 1044C1289.41 1042.34 1288.04 1041.08 1286.04 1041.08C1284.03 1041.08 1282.68 1042.34 1282.68 1044C1282.68 1044.99 1283.15 1045.73 1283.87 1046.18C1282.5 1046.7 1281.62 1047.98 1281.62 1049.51C1281.62 1051.69 1283.47 1053.22 1286.04 1053.22C1288.6 1053.22 1290.44 1051.69 1290.44 1049.49C1290.44 1047.98 1289.55 1046.7 1288.2 1046.18ZM1286.04 1042.54C1287.02 1042.54 1287.75 1043.26 1287.75 1044.14C1287.75 1045.03 1287.02 1045.67 1286.04 1045.67C1285.07 1045.67 1284.32 1045.01 1284.32 1044.14C1284.32 1043.26 1285.07 1042.54 1286.04 1042.54ZM1286.04 1051.74C1284.48 1051.74 1283.27 1050.7 1283.27 1049.36C1283.27 1048 1284.53 1046.99 1286.04 1046.99C1287.52 1046.99 1288.78 1047.98 1288.78 1049.38C1288.78 1050.7 1287.66 1051.74 1286.04 1051.74ZM1292.22 1042.72H1297.69L1292.02 1053H1293.87L1300.26 1041.35V1041.23H1292.22V1042.72ZM1307.27 1053.22C1309.18 1053.22 1310.83 1052.41 1311.93 1051.11L1310.74 1050.1C1309.92 1051.07 1308.66 1051.7 1307.27 1051.7C1304.66 1051.7 1302.61 1049.47 1302.61 1046.83C1302.61 1044.16 1304.66 1041.89 1307.27 1041.89C1308.66 1041.89 1309.92 1042.52 1310.74 1043.5L1311.93 1042.49C1310.83 1041.19 1309.18 1040.38 1307.27 1040.38C1303.76 1040.38 1300.97 1043.32 1300.97 1046.83C1300.97 1050.34 1303.76 1053.22 1307.27 1053.22Z" fill="white"/>
<rect y="159" width="486" height="461" fill="#031473"/>
<rect x="648" y="620" width="324" height="460" fill="#F2387C"/>
<rect x="324" y="620" width="324" height="460" fill="#DE41F2"/>
<path d="M361.328 1012.6H359.852L355.442 1021.8L351.014 1012.6H349.538L348.026 1025H349.628L350.762 1015.55L354.74 1023.65H356.162L360.104 1015.55L361.256 1025H362.858L361.328 1012.6ZM368.936 1025.22C371.33 1025.22 373.346 1023.45 373.346 1020.79C373.346 1018.12 371.33 1016.38 368.936 1016.38C366.542 1016.38 364.544 1018.12 364.544 1020.79C364.544 1023.45 366.542 1025.22 368.936 1025.22ZM368.936 1023.74C367.406 1023.74 366.128 1022.53 366.128 1020.79C366.128 1019.06 367.406 1017.85 368.936 1017.85C370.484 1017.85 371.78 1019.06 371.78 1020.79C371.78 1022.53 370.484 1023.74 368.936 1023.74ZM379.342 1025.22C381.736 1025.22 383.752 1023.45 383.752 1020.79C383.752 1018.12 381.736 1016.38 379.342 1016.38C376.948 1016.38 374.95 1018.12 374.95 1020.79C374.95 1023.45 376.948 1025.22 379.342 1025.22ZM379.342 1023.74C377.812 1023.74 376.534 1022.53 376.534 1020.79C376.534 1019.06 377.812 1017.85 379.342 1017.85C380.89 1017.85 382.186 1019.06 382.186 1020.79C382.186 1022.53 380.89 1023.74 379.342 1023.74ZM390.288 1016.38C389.37 1016.38 388.002 1016.85 387.498 1017.87V1016.59H385.932V1025H387.498V1020.45C387.498 1018.63 388.902 1017.93 390.072 1017.93C391.242 1017.93 392.106 1018.83 392.106 1020.23V1025H393.672V1020.14C393.69 1017.78 392.376 1016.38 390.288 1016.38ZM399.147 1029.19C401.937 1029.19 402.981 1027.34 402.981 1025.18V1012.6H401.343V1025.18C401.343 1026.49 400.749 1027.61 399.147 1027.61C399.003 1027.61 398.265 1027.56 397.995 1027.47L397.833 1029C398.247 1029.09 398.823 1029.19 399.147 1029.19ZM413.804 1020.77C413.804 1018.11 412.022 1016.38 409.628 1016.38C407.234 1016.38 405.308 1018.11 405.308 1020.77C405.308 1023.43 407.234 1025.22 409.628 1025.22C411.248 1025.22 412.76 1024.42 413.48 1022.97L412.13 1022.43C411.644 1023.27 410.708 1023.74 409.682 1023.74C408.242 1023.74 407.162 1022.97 406.928 1021.47H413.768C413.786 1021.24 413.804 1021 413.804 1020.77ZM406.946 1020.12C407.198 1018.61 408.206 1017.85 409.628 1017.85C411.014 1017.85 412.04 1018.68 412.238 1020.12H406.946ZM417.504 1025V1012.02H415.938V1025H417.504ZM421.793 1025V1012.02H420.227V1025H421.793ZM427.684 1022.79L425.146 1016.59H423.454L426.838 1024.75L425.074 1029.09H426.73L431.95 1016.59H430.258L427.684 1022.79Z" fill="white"/>
<path d="M34.052 552.598H32.36V558.07H26.366V552.598H24.692V565H26.366V559.6H32.36V565H34.052V552.598ZM40.7704 565.18C43.1644 565.18 45.1804 563.434 45.1804 560.77C45.1804 558.106 43.1644 556.414 40.7704 556.414C38.3764 556.414 36.3784 558.106 36.3784 560.77C36.3784 563.434 38.3764 565.18 40.7704 565.18ZM40.7704 563.596C39.2584 563.596 37.9984 562.48 37.9984 560.77C37.9984 559.078 39.2584 558.016 40.7704 558.016C42.2824 558.016 43.5424 559.078 43.5424 560.77C43.5424 562.48 42.2824 563.596 40.7704 563.596ZM48.9982 561.94C48.9982 559.708 49.6822 557.98 51.3022 557.98C51.6442 557.98 52.0942 558.052 52.5442 558.268L52.7962 556.738C52.5622 556.576 51.9322 556.414 51.3382 556.414C50.2402 556.414 49.4302 557.008 48.9982 558.484V556.594H47.3602V565H48.9982V561.94ZM56.0818 565H54.4618V556.594H56.0818V565ZM54.1378 553.498C54.1378 554.11 54.6598 554.56 55.2718 554.56C55.9018 554.56 56.4058 554.11 56.4058 553.498C56.4058 552.886 55.9018 552.436 55.2718 552.436C54.6598 552.436 54.1378 552.886 54.1378 553.498ZM65.6071 556.594H58.4971V558.16H63.2131L58.2091 563.65V565H65.6071V563.434H60.5131L65.6071 557.944V556.594ZM71.6024 565.18C73.9964 565.18 76.0124 563.434 76.0124 560.77C76.0124 558.106 73.9964 556.414 71.6024 556.414C69.2084 556.414 67.2104 558.106 67.2104 560.77C67.2104 563.434 69.2084 565.18 71.6024 565.18ZM71.6024 563.596C70.0904 563.596 68.8304 562.48 68.8304 560.77C68.8304 559.078 70.0904 558.016 71.6024 558.016C73.1144 558.016 74.3744 559.078 74.3744 560.77C74.3744 562.48 73.1144 563.596 71.6024 563.596ZM79.8302 560.464C79.8302 558.682 81.0182 558.016 82.2062 558.016C83.3582 558.016 84.0602 558.844 84.0602 560.248V565C84.3122 565 85.4282 565 85.6982 565V560.14C85.6982 557.782 84.5462 556.414 82.4582 556.414C81.5402 556.414 80.3342 556.846 79.8302 557.854V556.594H78.1922V565H79.8302V560.464ZM98.1406 565C101.669 565 103.721 562.336 103.721 558.826C103.721 555.298 101.669 552.598 98.1406 552.598H93.3346V565H98.1406ZM95.0086 563.434V554.164H98.1406C100.715 554.164 102.047 556.216 102.047 558.826C102.047 561.436 100.715 563.434 98.1406 563.434H95.0086ZM112.696 565H114.316V556.594H112.696V557.854C112.138 556.9 110.914 556.414 109.744 556.414C107.44 556.414 105.478 558.106 105.478 560.788C105.478 563.452 107.44 565.18 109.744 565.18C110.914 565.18 112.138 564.658 112.696 563.704V565ZM112.678 560.77C112.678 562.552 111.382 563.578 109.888 563.578C108.376 563.578 107.152 562.426 107.152 560.77C107.152 559.096 108.376 558.016 109.888 558.016C111.238 558.016 112.678 558.97 112.678 560.77ZM126.417 565L129.531 556.594H127.785L125.679 562.48L123.573 556.594H121.989L119.883 562.48L117.777 556.594H116.031L119.235 565H120.567L122.781 558.826L125.067 565H126.417ZM132.916 560.464C132.916 558.682 134.104 558.016 135.292 558.016C136.444 558.016 137.146 558.844 137.146 560.248V565C137.398 565 138.514 565 138.784 565V560.14C138.784 557.782 137.632 556.414 135.544 556.414C134.626 556.414 133.42 556.846 132.916 557.854V556.594H131.278V565H132.916V560.464Z" fill="white"/>
<path d="M350.132 1053L351.014 1049.92H353.138L352.274 1053H353.714L354.596 1049.92H356.522L356.918 1048.45H354.992L355.892 1045.22H357.818L358.232 1043.75H356.306L357.17 1040.6H355.712L354.83 1043.75H352.724L353.588 1040.6H352.13L351.266 1043.75H349.358L348.962 1045.22H350.834L349.97 1048.45H348.062L347.666 1049.92H349.574L348.71 1053H350.132ZM352.31 1045.22H354.416L353.534 1048.45H351.428L352.31 1045.22ZM360.646 1040.6V1053H365.452C368.98 1053 371.05 1050.34 371.05 1046.83C371.05 1043.3 368.98 1040.6 365.452 1040.6H360.646ZM362.284 1051.49V1042.11H365.452C368.062 1042.11 369.412 1044.18 369.412 1046.83C369.412 1049.47 368.062 1051.49 365.452 1051.49H362.284ZM375.327 1047.67H380.295V1046.14H375.327V1042.11H381.015V1040.6H373.707V1053H381.195V1051.49H375.327V1047.67ZM389.898 1049.09V1041.23H389.628L382.32 1050.23V1050.57H388.332V1053H389.898V1050.57H391.572V1049.09H389.898ZM388.332 1045.04V1049.09H384.948L388.332 1045.04ZM392.627 1042.88V1044.4L395.129 1043.37V1053H396.695V1041.08H396.641L392.627 1042.88ZM407.362 1040.6H400.144V1053H401.782V1047.67H406.21V1046.14H401.782V1042.11H407.362V1040.6ZM414.641 1047.6C415.415 1046.68 416.009 1045.48 416.009 1044.56C416.009 1042.47 414.533 1041.08 412.319 1041.08C410.303 1041.08 408.899 1042.27 408.665 1044.05L410.069 1044.36C410.159 1043.3 411.041 1042.58 412.319 1042.58C413.597 1042.58 414.443 1043.37 414.443 1044.56C414.443 1045.1 413.939 1046.05 413.201 1046.95L408.773 1052.3V1053H416.171V1051.49H411.401L414.641 1047.6Z" fill="white"/>
<path d="M26.132 595L27.014 591.922H29.138L28.274 595H29.714L30.596 591.922H32.522L32.918 590.446H30.992L31.892 587.224H33.818L34.232 585.748H32.306L33.17 582.598H31.712L30.83 585.748H28.724L29.588 582.598H28.13L27.266 585.748H25.358L24.962 587.224H26.834L25.97 590.446H24.062L23.666 591.922H25.574L24.71 595H26.132ZM28.31 587.224H30.416L29.534 590.446H27.428L28.31 587.224ZM36.646 582.598V595H41.452C44.98 595 47.05 592.336 47.05 588.826C47.05 585.298 44.98 582.598 41.452 582.598H36.646ZM38.284 593.488V584.11H41.452C44.062 584.11 45.412 586.18 45.412 588.826C45.412 591.472 44.062 593.488 41.452 593.488H38.284ZM51.3265 589.672H56.2945V588.142H51.3265V584.11H57.0145V582.598H49.7065V595H57.1945V593.488H51.3265V589.672ZM65.8975 591.094V583.228H65.6275L58.3195 592.228V592.57H64.3315V595H65.8975V592.57H67.5715V591.094H65.8975ZM64.3315 587.044V591.094H60.9475L64.3315 587.044ZM68.627 584.884V586.396L71.129 585.37V595H72.695V583.084H72.641L68.627 584.884ZM83.362 582.598H76.144V595H77.782V589.672H82.21V588.142H77.782V584.11H83.362V582.598ZM90.6415 589.6C91.4155 588.682 92.0095 587.476 92.0095 586.558C92.0095 584.47 90.5335 583.084 88.3195 583.084C86.3035 583.084 84.8995 584.272 84.6655 586.054L86.0695 586.36C86.1595 585.298 87.0415 584.578 88.3195 584.578C89.5975 584.578 90.4435 585.37 90.4435 586.558C90.4435 587.098 89.9395 588.052 89.2015 588.952L84.7735 594.298V595H92.1715V593.488H87.4015L90.6415 589.6Z" fill="white"/>
<path d="M512.132 605L513.014 601.922H515.138L514.274 605H515.714L516.596 601.922H518.522L518.918 600.446H516.992L517.892 597.224H519.818L520.232 595.748H518.306L519.17 592.598H517.712L516.83 595.748H514.724L515.588 592.598H514.13L513.266 595.748H511.358L510.962 597.224H512.834L511.97 600.446H510.062L509.666 601.922H511.574L510.71 605H512.132ZM514.31 597.224H516.416L515.534 600.446H513.428L514.31 597.224ZM522.646 592.598V605H527.452C530.98 605 533.05 602.336 533.05 598.826C533.05 595.298 530.98 592.598 527.452 592.598H522.646ZM524.284 603.488V594.11H527.452C530.062 594.11 531.412 596.18 531.412 598.826C531.412 601.472 530.062 603.488 527.452 603.488H524.284ZM537.327 599.672H542.295V598.142H537.327V594.11H543.015V592.598H535.707V605H543.195V603.488H537.327V599.672ZM551.898 601.094V593.228H551.628L544.32 602.228V602.57H550.332V605H551.898V602.57H553.572V601.094H551.898ZM550.332 597.044V601.094H546.948L550.332 597.044ZM554.627 594.884V596.396L557.129 595.37V605H558.695V593.084H558.641L554.627 594.884ZM569.362 592.598H562.144V605H563.782V599.672H568.21V598.142H563.782V594.11H569.362V592.598ZM576.641 599.6C577.415 598.682 578.009 597.476 578.009 596.558C578.009 594.47 576.533 593.084 574.319 593.084C572.303 593.084 570.899 594.272 570.665 596.054L572.069 596.36C572.159 595.298 573.041 594.578 574.319 594.578C575.597 594.578 576.443 595.37 576.443 596.558C576.443 597.098 575.939 598.052 575.201 598.952L570.773 604.298V605H578.171V603.488H573.401L576.641 599.6Z" fill="white"/>
<rect y="620" width="324" height="460" fill="#6C2EF2"/>
<rect x="486" y="159" width="486" height="461" fill="#031059"/>
<path d="M30.128 1025.22C33.674 1025.22 36.428 1022.34 36.428 1018.83C36.428 1015.3 33.674 1012.38 30.128 1012.38C26.6 1012.38 23.864 1015.3 23.864 1018.83C23.864 1022.34 26.6 1025.22 30.128 1025.22ZM30.128 1023.7C27.518 1023.7 25.502 1021.47 25.502 1018.83C25.502 1016.16 27.518 1013.89 30.128 1013.89C32.774 1013.89 34.79 1016.16 34.79 1018.83C34.79 1021.47 32.774 1023.7 30.128 1023.7ZM42.5307 1016.38C41.4147 1016.38 40.6047 1017.03 40.1727 1018.5V1016.59H38.5887V1025H40.1727V1021.92C40.1727 1019.71 40.8387 1017.89 42.5127 1017.89C42.8367 1017.89 43.2867 1017.96 43.7367 1018.18L43.9887 1016.7C43.7367 1016.54 43.1247 1016.38 42.5307 1016.38ZM46.3236 1014.54C46.9356 1014.54 47.4396 1014.09 47.4396 1013.5C47.4396 1012.9 46.9356 1012.45 46.3236 1012.45C45.7296 1012.45 45.2256 1012.9 45.2256 1013.5C45.2256 1014.09 45.7296 1014.54 46.3236 1014.54ZM47.1156 1025V1016.59H45.5496V1025H47.1156ZM53.6547 1025.22C56.0487 1025.22 58.0647 1023.45 58.0647 1020.79C58.0647 1018.12 56.0487 1016.38 53.6547 1016.38C51.2607 1016.38 49.2627 1018.12 49.2627 1020.79C49.2627 1023.45 51.2607 1025.22 53.6547 1025.22ZM53.6547 1023.74C52.1247 1023.74 50.8467 1022.53 50.8467 1020.79C50.8467 1019.06 52.1247 1017.85 53.6547 1017.85C55.2027 1017.85 56.4987 1019.06 56.4987 1020.79C56.4987 1022.53 55.2027 1023.74 53.6547 1023.74ZM64.601 1016.38C63.683 1016.38 62.315 1016.85 61.811 1017.87V1016.59H60.245V1025H61.811V1020.45C61.811 1018.63 63.215 1017.93 64.385 1017.93C65.555 1017.93 66.419 1018.83 66.419 1020.23V1025H67.985V1020.14C68.003 1017.78 66.689 1016.38 64.601 1016.38Z" fill="white"/>
<path d="M26.132 1053L27.014 1049.92H29.138L28.274 1053H29.714L30.596 1049.92H32.522L32.918 1048.45H30.992L31.892 1045.22H33.818L34.232 1043.75H32.306L33.17 1040.6H31.712L30.83 1043.75H28.724L29.588 1040.6H28.13L27.266 1043.75H25.358L24.962 1045.22H26.834L25.97 1048.45H24.062L23.666 1049.92H25.574L24.71 1053H26.132ZM28.31 1045.22H30.416L29.534 1048.45H27.428L28.31 1045.22ZM40.444 1045.42C39.184 1045.42 38.176 1046.09 37.636 1046.92C37.51 1044.61 38.878 1042.58 40.696 1042.58C41.578 1042.58 42.442 1042.96 42.928 1044.05L44.35 1043.48C43.558 1041.57 42.082 1041.08 40.732 1041.08C37.006 1041.08 35.926 1044.72 35.926 1047.49C35.926 1051.22 37.402 1053.22 40.3 1053.22C42.874 1053.22 44.476 1051.31 44.476 1049.31C44.476 1047.26 42.838 1045.42 40.444 1045.42ZM40.21 1051.72C38.77 1051.69 37.654 1050.61 37.654 1049.17C37.726 1047.83 38.932 1046.9 40.39 1046.9C41.794 1046.95 42.838 1047.96 42.838 1049.27C42.838 1050.64 41.722 1051.72 40.21 1051.72ZM52.6113 1053.22C54.5193 1053.22 56.1753 1052.41 57.2733 1051.11L56.0853 1050.1C55.2573 1051.07 53.9973 1051.7 52.6113 1051.7C50.0013 1051.7 47.9493 1049.47 47.9493 1046.83C47.9493 1044.16 50.0013 1041.89 52.6113 1041.89C53.9973 1041.89 55.2573 1042.52 56.0853 1043.5L57.2733 1042.49C56.1753 1041.19 54.5193 1040.38 52.6113 1040.38C49.1013 1040.38 46.3113 1043.32 46.3113 1046.83C46.3113 1050.34 49.1013 1053.22 52.6113 1053.22ZM64.6434 1047.6C65.4174 1046.68 66.0114 1045.48 66.0114 1044.56C66.0114 1042.47 64.5354 1041.08 62.3214 1041.08C60.3054 1041.08 58.9014 1042.27 58.6674 1044.05L60.0714 1044.36C60.1614 1043.3 61.0434 1042.58 62.3214 1042.58C63.5994 1042.58 64.4454 1043.37 64.4454 1044.56C64.4454 1045.1 63.9414 1046.05 63.2034 1046.95L58.7754 1052.3V1053H66.1734V1051.49H61.4034L64.6434 1047.6ZM70.4867 1047.67H75.4547V1046.14H70.4867V1042.11H76.1747V1040.6H68.8667V1053H76.3547V1051.49H70.4867V1047.67ZM86.2273 1040.6H79.0093V1053H80.6473V1047.67H85.0753V1046.14H80.6473V1042.11H86.2273V1040.6ZM93.5067 1047.6C94.2807 1046.68 94.8747 1045.48 94.8747 1044.56C94.8747 1042.47 93.3987 1041.08 91.1847 1041.08C89.1687 1041.08 87.7647 1042.27 87.5307 1044.05L88.9347 1044.36C89.0247 1043.3 89.9067 1042.58 91.1847 1042.58C92.4627 1042.58 93.3087 1043.37 93.3087 1044.56C93.3087 1045.1 92.8047 1046.05 92.0667 1046.95L87.6387 1052.3V1053H95.0367V1051.49H90.2667L93.5067 1047.6Z" fill="white"/>
<path d="M521.406 564.706L517.032 555.598H515.502L513.99 568H515.646L516.78 558.676L520.686 566.632H522.162L526.032 558.676L527.166 568H528.822L527.31 555.598H525.78L521.406 564.706ZM537.727 568H539.347V559.594H537.727V560.854C537.169 559.9 535.945 559.414 534.775 559.414C532.471 559.414 530.509 561.106 530.509 563.788C530.509 566.452 532.471 568.18 534.775 568.18C535.945 568.18 537.169 567.658 537.727 566.704V568ZM537.709 563.77C537.709 565.552 536.413 566.578 534.919 566.578C533.407 566.578 532.183 565.426 532.183 563.77C532.183 562.096 533.407 561.016 534.919 561.016C536.269 561.016 537.709 561.97 537.709 563.77ZM543.727 564.94C543.727 562.708 544.411 560.98 546.031 560.98C546.373 560.98 546.823 561.052 547.273 561.268L547.525 559.738C547.291 559.576 546.661 559.414 546.067 559.414C544.969 559.414 544.159 560.008 543.727 561.484V559.594H542.089V568H543.727V564.94ZM550.81 568H549.19V559.594H550.81V568ZM548.866 556.498C548.866 557.11 549.388 557.56 550 557.56C550.63 557.56 551.134 557.11 551.134 556.498C551.134 555.886 550.63 555.436 550 555.436C549.388 555.436 548.866 555.886 548.866 556.498ZM560.21 568H561.83V559.594H560.21V560.854C559.652 559.9 558.428 559.414 557.258 559.414C554.954 559.414 552.992 561.106 552.992 563.788C552.992 566.452 554.954 568.18 557.258 568.18C558.428 568.18 559.652 567.658 560.21 566.704V568ZM560.192 563.77C560.192 565.552 558.896 566.578 557.402 566.578C555.89 566.578 554.666 565.426 554.666 563.77C554.666 562.096 555.89 561.016 557.402 561.016C558.752 561.016 560.192 561.97 560.192 563.77ZM566.209 563.464C566.209 561.682 567.397 561.016 568.585 561.016C569.737 561.016 570.439 561.844 570.439 563.248V568C570.691 568 571.807 568 572.077 568V563.14C572.077 560.782 570.925 559.414 568.837 559.414C567.919 559.414 566.713 559.846 566.209 560.854V559.594H564.571V568H566.209V563.464ZM581.374 568H582.994V559.594H581.374V560.854C580.816 559.9 579.592 559.414 578.422 559.414C576.118 559.414 574.156 561.106 574.156 563.788C574.156 566.452 576.118 568.18 578.422 568.18C579.592 568.18 580.816 567.658 581.374 566.704V568ZM581.356 563.77C581.356 565.552 580.06 566.578 578.566 566.578C577.054 566.578 575.83 565.426 575.83 563.77C575.83 562.096 577.054 561.016 578.566 561.016C579.916 561.016 581.356 561.97 581.356 563.77ZM586.221 559.828C586.941 559.234 587.733 557.722 587.895 555.688H586.401C586.419 557.254 585.915 558.568 585.267 559.486L586.221 559.828ZM591.616 564.292L592.768 564.562C593.38 564.706 593.902 565.012 593.884 565.624C593.866 566.236 593.362 566.668 592.606 566.722C592.066 566.758 591.634 566.65 591.274 566.434C590.878 566.236 590.644 565.84 590.59 565.48H589.096C589.15 567.208 590.716 568.18 592.228 568.18C593.974 568.18 595.486 567.226 595.486 565.66C595.486 564.706 595.054 563.644 593.308 563.212L592.066 562.906C591.634 562.78 591.238 562.6 591.076 562.258C590.986 562.06 590.986 561.862 591.058 561.592C591.184 561.142 591.706 560.836 592.318 560.836C592.966 560.836 593.542 561.16 593.632 561.79H595.198C595.054 560.08 593.704 559.414 592.282 559.414C590.788 559.414 589.492 560.332 589.366 561.556C589.222 563.104 590.086 563.878 591.616 564.292ZM600.902 555.598V557.182H604.664V568H606.356V557.182H610.118V555.598H600.902ZM611.983 564.94C611.983 562.708 612.667 560.98 614.287 560.98C614.629 560.98 615.079 561.052 615.529 561.268L615.781 559.738C615.547 559.576 614.917 559.414 614.323 559.414C613.225 559.414 612.415 560.008 611.983 561.484V559.594H610.345V568H611.983V564.94ZM618.315 563.14C618.513 561.736 619.593 560.89 620.979 560.89C622.329 560.89 623.337 561.736 623.535 563.14H618.315ZM625.155 563.77C625.155 561.106 623.373 559.414 620.979 559.414C618.585 559.414 616.677 561.106 616.677 563.77C616.677 566.434 618.585 568.18 620.979 568.18C622.599 568.18 624.129 567.424 624.849 565.948C624.399 565.768 623.877 565.588 623.445 565.408C622.977 566.236 622.041 566.704 621.033 566.704C619.611 566.704 618.513 565.822 618.315 564.418H625.137C625.155 564.238 625.155 563.968 625.155 563.77ZM628.875 563.464C628.875 561.682 630.063 561.016 631.251 561.016C632.403 561.016 633.105 561.844 633.105 563.248V568C633.357 568 634.473 568 634.743 568V563.14C634.743 560.782 633.591 559.414 631.503 559.414C630.585 559.414 629.379 559.846 628.875 560.854V559.594H627.237V568H628.875V563.464ZM636.822 563.77C636.822 566.434 638.874 568.18 641.268 568.18C642.564 568.18 643.734 567.676 644.526 566.812L643.266 565.768C642.762 566.29 642.042 566.596 641.268 566.596C639.756 566.596 638.442 565.462 638.442 563.77C638.442 562.078 639.756 561.016 641.268 561.016C642.042 561.016 642.762 561.304 643.266 561.808L644.508 560.764C643.716 559.9 642.546 559.414 641.268 559.414C638.874 559.414 636.822 561.106 636.822 563.77ZM648.229 563.464C648.229 561.664 649.633 561.016 650.785 561.016C651.937 561.016 652.765 561.862 652.765 563.248V568C653.035 568 654.133 568 654.403 568V563.14C654.421 560.782 653.107 559.414 651.001 559.414C650.083 559.414 648.733 559.846 648.229 560.854V555.022H646.591V568H648.229V563.464Z" fill="white"/>
<path d="M681.602 1019.98C680.774 1020.95 679.55 1021.56 678.164 1021.56C675.572 1021.56 673.556 1019.45 673.556 1016.83C673.556 1014.2 675.572 1012.07 678.164 1012.07C679.532 1012.07 680.72 1012.69 681.566 1013.6L682.826 1012.56C681.728 1011.26 680.072 1010.45 678.164 1010.45C674.654 1010.45 671.882 1013.3 671.882 1016.83C671.882 1020.34 674.654 1023.18 678.164 1023.18C680.09 1023.18 681.764 1022.35 682.862 1021.04L681.602 1019.98ZM688.489 1023.18C690.883 1023.18 692.899 1021.43 692.899 1018.77C692.899 1016.11 690.883 1014.41 688.489 1014.41C686.095 1014.41 684.097 1016.11 684.097 1018.77C684.097 1021.43 686.095 1023.18 688.489 1023.18ZM688.489 1021.6C686.977 1021.6 685.717 1020.48 685.717 1018.77C685.717 1017.08 686.977 1016.02 688.489 1016.02C690.001 1016.02 691.261 1017.08 691.261 1018.77C691.261 1020.48 690.001 1021.6 688.489 1021.6ZM696.717 1019.94C696.717 1017.71 697.401 1015.98 699.021 1015.98C699.363 1015.98 699.813 1016.05 700.263 1016.27L700.515 1014.74C700.281 1014.58 699.651 1014.41 699.057 1014.41C697.959 1014.41 697.149 1015.01 696.717 1016.48V1014.59H695.079V1023H696.717V1019.94ZM708.63 1023H710.25V1014.59H708.63V1015.85C708.072 1014.9 706.848 1014.41 705.678 1014.41C703.374 1014.41 701.412 1016.11 701.412 1018.79C701.412 1021.45 703.374 1023.18 705.678 1023.18C706.848 1023.18 708.072 1022.66 708.63 1021.7V1023ZM708.612 1018.77C708.612 1020.55 707.316 1021.58 705.822 1021.58C704.31 1021.58 703.086 1020.43 703.086 1018.77C703.086 1017.1 704.31 1016.02 705.822 1016.02C707.172 1016.02 708.612 1016.97 708.612 1018.77ZM712.991 1010.02V1023H714.629V1010.02H712.991Z" fill="white"/>
<path d="M674.132 1053L675.014 1049.92H677.138L676.274 1053H677.714L678.596 1049.92H680.522L680.918 1048.45H678.992L679.892 1045.22H681.818L682.232 1043.75H680.306L681.17 1040.6H679.712L678.83 1043.75H676.724L677.588 1040.6H676.13L675.266 1043.75H673.358L672.962 1045.22H674.834L673.97 1048.45H672.062L671.666 1049.92H673.574L672.71 1053H674.132ZM676.31 1045.22H678.416L677.534 1048.45H675.428L676.31 1045.22ZM691.864 1040.6H684.646V1053H686.284V1047.67H690.712V1046.14H686.284V1042.11H691.864V1040.6ZM699.143 1047.6C699.917 1046.68 700.511 1045.48 700.511 1044.56C700.511 1042.47 699.035 1041.08 696.821 1041.08C694.805 1041.08 693.401 1042.27 693.167 1044.05L694.571 1044.36C694.661 1043.3 695.543 1042.58 696.821 1042.58C698.099 1042.58 698.945 1043.37 698.945 1044.56C698.945 1045.1 698.441 1046.05 697.703 1046.95L693.275 1052.3V1053H700.673V1051.49H695.903L699.143 1047.6ZM708.047 1046.68C708.965 1046.25 709.523 1045.33 709.523 1044.22C709.523 1042.33 708.155 1041.08 706.103 1041.08C704.771 1041.08 703.493 1041.77 702.881 1042.79L703.979 1043.69C704.429 1043.01 705.257 1042.58 706.067 1042.58C707.201 1042.58 707.957 1043.24 707.957 1044.25C707.957 1045.31 707.147 1046.05 705.905 1046.05H704.789V1047.4H706.013C707.471 1047.4 708.515 1048.28 708.515 1049.62C708.515 1050.86 707.435 1051.74 705.959 1051.74C704.951 1051.74 704.033 1051.09 703.493 1050.03L702.215 1050.77C702.917 1052.3 704.339 1053.22 706.013 1053.22C708.407 1053.22 710.099 1051.72 710.099 1049.56C710.099 1048.18 709.271 1047.08 708.047 1046.68ZM718.495 1046.18C719.215 1045.73 719.701 1044.99 719.701 1044C719.701 1042.34 718.333 1041.08 716.335 1041.08C714.319 1041.08 712.969 1042.34 712.969 1044C712.969 1044.99 713.437 1045.73 714.157 1046.18C712.789 1046.7 711.907 1047.98 711.907 1049.51C711.907 1051.69 713.761 1053.22 716.335 1053.22C718.891 1053.22 720.727 1051.69 720.727 1049.49C720.727 1047.98 719.845 1046.7 718.495 1046.18ZM716.335 1042.54C717.307 1042.54 718.045 1043.26 718.045 1044.14C718.045 1045.03 717.307 1045.67 716.335 1045.67C715.363 1045.67 714.607 1045.01 714.607 1044.14C714.607 1043.26 715.363 1042.54 716.335 1042.54ZM716.335 1051.74C714.769 1051.74 713.563 1050.7 713.563 1049.36C713.563 1048 714.823 1046.99 716.335 1046.99C717.811 1046.99 719.071 1047.98 719.071 1049.38C719.071 1050.7 717.955 1051.74 716.335 1051.74ZM722.508 1042.72H727.98L722.31 1053H724.164L730.554 1041.35V1041.23H722.508V1042.72ZM737.56 1053.22C739.468 1053.22 741.124 1052.41 742.222 1051.11L741.034 1050.1C740.206 1051.07 738.946 1051.7 737.56 1051.7C734.95 1051.7 732.898 1049.47 732.898 1046.83C732.898 1044.16 734.95 1041.89 737.56 1041.89C738.946 1041.89 740.206 1042.52 741.034 1043.5L742.222 1042.49C741.124 1041.19 739.468 1040.38 737.56 1040.38C734.05 1040.38 731.26 1043.32 731.26 1046.83C731.26 1050.34 734.05 1053.22 737.56 1053.22Z" fill="white"/>
<path d="M516.132 595L517.014 591.922H519.138L518.274 595H519.714L520.596 591.922H522.522L522.918 590.446H520.992L521.892 587.224H523.818L524.232 585.748H522.306L523.17 582.598H521.712L520.83 585.748H518.724L519.588 582.598H518.13L517.266 585.748H515.358L514.962 587.224H516.834L515.97 590.446H514.062L513.666 591.922H515.574L514.71 595H516.132ZM518.31 587.224H520.416L519.534 590.446H517.428L518.31 587.224ZM526.646 582.598V595H531.452C534.98 595 537.05 592.336 537.05 588.826C537.05 585.298 534.98 582.598 531.452 582.598H526.646ZM528.284 593.488V584.11H531.452C534.062 584.11 535.412 586.18 535.412 588.826C535.412 591.472 534.062 593.488 531.452 593.488H528.284ZM541.327 589.672H546.295V588.142H541.327V584.11H547.015V582.598H539.707V595H547.195V593.488H541.327V589.672ZM555.898 591.094V583.228H555.628L548.32 592.228V592.57H554.332V595H555.898V592.57H557.572V591.094H555.898ZM554.332 587.044V591.094H550.948L554.332 587.044ZM558.627 584.884V586.396L561.129 585.37V595H562.695V583.084H562.641L558.627 584.884ZM573.362 582.598H566.144V595H567.782V589.672H572.21V588.142H567.782V584.11H573.362V582.598ZM580.641 589.6C581.415 588.682 582.009 587.476 582.009 586.558C582.009 584.47 580.533 583.084 578.319 583.084C576.303 583.084 574.899 584.272 574.665 586.054L576.069 586.36C576.159 585.298 577.041 584.578 578.319 584.578C579.597 584.578 580.443 585.37 580.443 586.558C580.443 587.098 579.939 588.052 579.201 588.952L574.773 594.298V595H582.171V593.488H577.401L580.641 589.6Z" fill="white"/>
<defs>
<radialGradient id="paint0_radial_23_18" cx="0" cy="0" r="1" gradientUnits="userSpaceOnUse" gradientTransform="translate(474 460.5) rotate(44.1723) scale(660.86 6652.29)">
<stop stop-color="#F2387C"/>
<stop offset="1" stop-color="#6C2EF2"/>
</radialGradient>
<linearGradient id="paint1_linear_23_18" x1="314.244" y1="203.814" x2="-174.298" y2="810.02" gradientUnits="userSpaceOnUse">
<stop stop-color="#031059"/>
<stop offset="1" stop-color="#031059" stop-opacity="0"/>
</linearGradient>
</defs>
</svg>
