<svg width="1920" height="1080" viewBox="0 0 1920 1080" fill="none" xmlns="http://www.w3.org/2000/svg">
<g clip-path="url(#clip0_1078_1898)">
<rect width="1920" height="1080" fill="#02053A"/>
<path d="M1666.61 88.6582C1668.26 88.0218 1668.82 86.4691 1668.82 84.9418C1668.82 82.1927 1666.99 80.4618 1664.09 80.4618H1657.5V98H1664.65C1667.86 98 1669.77 95.5818 1669.77 93.0618C1669.77 91.1527 1668.67 89.1164 1666.61 88.6582ZM1666.51 85.1709C1666.51 86.6727 1665.72 87.7673 1664.14 87.7673H1659.81V82.6H1664.06C1665.67 82.6 1666.51 83.6691 1666.51 85.1709ZM1659.81 95.8618V89.8036H1664.29C1666.43 89.8036 1667.45 91.28 1667.45 92.8582C1667.45 94.4873 1666.33 95.8618 1664.17 95.8618H1659.81ZM1678.45 85.8073C1676.87 85.8073 1675.72 86.7236 1675.11 88.8109V86.1127H1672.87V98H1675.11V93.6473C1675.11 90.5164 1676.05 87.9455 1678.42 87.9455C1678.88 87.9455 1679.52 88.0473 1680.15 88.3527L1680.51 86.2655C1680.15 86.0364 1679.29 85.8073 1678.45 85.8073ZM1691.69 87.9709C1690.9 86.5709 1689.22 85.8073 1687.43 85.8073C1684.07 85.8073 1681.5 88.5309 1681.5 92.0436C1681.5 95.6836 1684.23 98.3055 1687.33 98.3055C1689.24 98.3055 1690.9 97.3127 1691.69 95.8873V98H1693.9V86.1127H1691.69V87.9709ZM1687.66 96.2182C1685.47 96.2182 1683.74 94.3091 1683.74 92.0436C1683.74 89.8036 1685.47 87.8945 1687.64 87.8945C1689.62 87.8945 1691.69 89.6 1691.69 92.0436C1691.69 94.4618 1689.78 96.2182 1687.66 96.2182ZM1703.94 85.8073C1702.64 85.8073 1700.71 86.4691 1699.99 87.92V86.1127H1697.78V98H1699.99V91.56C1699.99 88.9891 1701.98 87.9964 1703.63 87.9964C1705.29 87.9964 1706.51 89.2691 1706.51 91.2545V98H1708.73V91.1273C1708.75 87.7927 1706.89 85.8073 1703.94 85.8073ZM1721.81 87.9709C1721.02 86.5709 1719.34 85.8073 1717.56 85.8073C1714.3 85.8073 1711.63 88.2764 1711.63 92.0436C1711.63 95.7855 1714.33 98.3055 1717.59 98.3055C1719.29 98.3055 1721.02 97.4909 1721.81 96.1418V98H1724.03V79.6473H1721.81V87.9709ZM1717.77 96.2182C1715.6 96.2182 1713.87 94.3855 1713.87 92.0182C1713.87 89.6255 1715.6 87.8945 1717.77 87.8945C1719.73 87.8945 1721.81 89.4473 1721.81 92.0182C1721.81 94.5636 1719.9 96.2182 1717.77 96.2182ZM1742.52 98.3055C1747.51 98.3055 1750.81 95.3527 1750.81 89.2182H1743.18V91.2291H1748.27C1748.27 94.0291 1745.67 96.1673 1742.52 96.1673C1738.83 96.1673 1735.95 93.0364 1735.95 89.2691C1735.95 85.5018 1738.83 82.2945 1742.52 82.2945C1744.17 82.2945 1745.7 82.9564 1746.82 83.9491L1748.42 82.4473C1746.89 81.0473 1744.83 80.1564 1742.52 80.1564C1737.53 80.1564 1733.63 84.28 1733.63 89.2691C1733.63 94.2327 1737.53 98.3055 1742.52 98.3055ZM1762.19 92.6545C1762.16 95.2255 1760.18 96.2182 1758.52 96.2182C1756.87 96.2182 1755.67 94.9455 1755.67 92.9345V86.1127H1753.46V92.9855C1753.43 96.32 1755.27 98.3055 1758.24 98.3055C1759.57 98.3055 1761.48 97.6436 1762.19 96.1418V98H1764.4V86.1127H1762.19V92.6545ZM1769.35 83.2109C1770.21 83.2109 1770.92 82.5745 1770.92 81.7345C1770.92 80.8945 1770.21 80.2582 1769.35 80.2582C1768.51 80.2582 1767.79 80.8945 1767.79 81.7345C1767.79 82.5745 1768.51 83.2109 1769.35 83.2109ZM1770.47 98V86.1127H1768.25V98H1770.47ZM1783.71 87.9709C1782.92 86.5709 1781.24 85.8073 1779.46 85.8073C1776.2 85.8073 1773.53 88.2764 1773.53 92.0436C1773.53 95.7855 1776.23 98.3055 1779.48 98.3055C1781.19 98.3055 1782.92 97.4909 1783.71 96.1418V98H1785.92V79.6473H1783.71V87.9709ZM1779.66 96.2182C1777.5 96.2182 1775.77 94.3855 1775.77 92.0182C1775.77 89.6255 1777.5 87.8945 1779.66 87.8945C1781.62 87.8945 1783.71 89.4473 1783.71 92.0182C1783.71 94.5636 1781.8 96.2182 1779.66 96.2182ZM1792.02 98V79.6473H1789.8V98H1792.02ZM1796.96 83.2109C1797.83 83.2109 1798.54 82.5745 1798.54 81.7345C1798.54 80.8945 1797.83 80.2582 1796.96 80.2582C1796.12 80.2582 1795.41 80.8945 1795.41 81.7345C1795.41 82.5745 1796.12 83.2109 1796.96 83.2109ZM1798.08 98V86.1127H1795.87V98H1798.08ZM1808.09 85.8073C1806.8 85.8073 1804.86 86.4691 1804.15 87.92V86.1127H1801.93V98H1804.15V91.56C1804.15 88.9891 1806.13 87.9964 1807.79 87.9964C1809.44 87.9964 1810.67 89.2691 1810.67 91.2545V98H1812.88V91.1273C1812.91 87.7927 1811.05 85.8073 1808.09 85.8073ZM1827.8 92.0182C1827.8 88.2509 1825.28 85.8073 1821.9 85.8073C1818.51 85.8073 1815.79 88.2509 1815.79 92.0182C1815.79 95.7855 1818.51 98.3055 1821.9 98.3055C1824.19 98.3055 1826.32 97.1855 1827.34 95.1236L1825.43 94.36C1824.75 95.5564 1823.42 96.2182 1821.97 96.2182C1819.94 96.2182 1818.41 95.1236 1818.08 93.0109H1827.75C1827.78 92.68 1827.8 92.3491 1827.8 92.0182ZM1818.1 91.1018C1818.46 88.9636 1819.88 87.8945 1821.9 87.8945C1823.86 87.8945 1825.31 89.0655 1825.59 91.1018H1818.1ZM1834.31 98.3055C1836.78 98.3055 1838.91 96.9055 1838.91 94.6909C1838.91 93.3418 1838.28 91.8655 1835.81 91.2545L1834.05 90.8218C1833.29 90.6436 1832.52 90.2109 1832.52 89.3964C1832.52 88.48 1833.29 87.7418 1834.43 87.7418C1835.38 87.7418 1836.32 88.3527 1836.34 89.2691H1838.48C1838.48 86.8764 1836.39 85.8073 1834.38 85.8073C1831.99 85.8073 1830.31 87.36 1830.31 89.32C1830.31 91.2291 1831.46 92.1964 1833.44 92.7309L1835.07 93.1127C1836.01 93.3164 1836.7 93.7745 1836.7 94.6655C1836.7 95.6327 1835.81 96.3709 1834.31 96.3709C1832.86 96.3709 1831.96 95.5309 1831.94 94.5127H1829.88C1829.98 96.9564 1832.17 98.3055 1834.31 98.3055Z" fill="white"/>
<path d="M162.29 98L155.621 80.4618H153.178L146.509 98H148.927L150.632 93.4945H158.167L159.872 98H162.29ZM154.399 83.4909L157.403 91.4582H151.396L154.399 83.4909ZM169.825 98.3055C171.683 98.3055 173.312 97.5927 174.356 96.4218L172.956 94.9709C172.218 95.7345 171.149 96.2182 169.901 96.2182C167.559 96.2182 165.676 94.4873 165.676 92.0436C165.676 89.6 167.559 87.8945 169.901 87.8945C171.149 87.8945 172.218 88.3782 172.956 89.1418L174.356 87.6909C173.312 86.5455 171.683 85.8073 169.825 85.8073C166.414 85.8073 163.436 88.2764 163.436 92.0436C163.436 95.8109 166.414 98.3055 169.825 98.3055ZM182.403 98.3055C184.261 98.3055 185.89 97.5927 186.934 96.4218L185.534 94.9709C184.796 95.7345 183.727 96.2182 182.479 96.2182C180.138 96.2182 178.254 94.4873 178.254 92.0436C178.254 89.6 180.138 87.8945 182.479 87.8945C183.727 87.8945 184.796 88.3782 185.534 89.1418L186.934 87.6909C185.89 86.5455 184.261 85.8073 182.403 85.8073C178.992 85.8073 176.014 88.2764 176.014 92.0436C176.014 95.8109 178.992 98.3055 182.403 98.3055ZM200.658 92.0182C200.658 88.2509 198.138 85.8073 194.752 85.8073C191.367 85.8073 188.643 88.2509 188.643 92.0182C188.643 95.7855 191.367 98.3055 194.752 98.3055C197.043 98.3055 199.181 97.1855 200.199 95.1236L198.29 94.36C197.603 95.5564 196.279 96.2182 194.828 96.2182C192.792 96.2182 191.265 95.1236 190.934 93.0109H200.607C200.632 92.68 200.658 92.3491 200.658 92.0182ZM190.959 91.1018C191.316 88.9636 192.741 87.8945 194.752 87.8945C196.712 87.8945 198.163 89.0655 198.443 91.1018H190.959ZM207.163 98.3055C209.632 98.3055 211.77 96.9055 211.77 94.6909C211.77 93.3418 211.134 91.8655 208.665 91.2545L206.908 90.8218C206.145 90.6436 205.381 90.2109 205.381 89.3964C205.381 88.48 206.145 87.7418 207.29 87.7418C208.232 87.7418 209.174 88.3527 209.199 89.2691H211.337C211.337 86.8764 209.25 85.8073 207.239 85.8073C204.847 85.8073 203.167 87.36 203.167 89.32C203.167 91.2291 204.312 92.1964 206.297 92.7309L207.927 93.1127C208.868 93.3164 209.556 93.7745 209.556 94.6655C209.556 95.6327 208.665 96.3709 207.163 96.3709C205.712 96.3709 204.821 95.5309 204.796 94.5127H202.734C202.836 96.9564 205.025 98.3055 207.163 98.3055ZM218.225 98.3055C220.694 98.3055 222.832 96.9055 222.832 94.6909C222.832 93.3418 222.196 91.8655 219.727 91.2545L217.97 90.8218C217.207 90.6436 216.443 90.2109 216.443 89.3964C216.443 88.48 217.207 87.7418 218.352 87.7418C219.294 87.7418 220.236 88.3527 220.261 89.2691H222.399C222.399 86.8764 220.312 85.8073 218.301 85.8073C215.908 85.8073 214.228 87.36 214.228 89.32C214.228 91.2291 215.374 92.1964 217.359 92.7309L218.988 93.1127C219.93 93.3164 220.617 93.7745 220.617 94.6655C220.617 95.6327 219.727 96.3709 218.225 96.3709C216.774 96.3709 215.883 95.5309 215.857 94.5127H213.796C213.897 96.9564 216.087 98.3055 218.225 98.3055ZM226.894 83.2109C227.759 83.2109 228.472 82.5745 228.472 81.7345C228.472 80.8945 227.759 80.2582 226.894 80.2582C226.054 80.2582 225.341 80.8945 225.341 81.7345C225.341 82.5745 226.054 83.2109 226.894 83.2109ZM228.014 98V86.1127H225.799V98H228.014ZM238.33 85.8073C236.548 85.8073 234.868 86.5709 234.079 87.9709V79.6473H231.865V98H234.079V96.1418C234.868 97.4909 236.599 98.3055 238.305 98.3055C241.563 98.3055 244.261 95.7855 244.261 92.0436C244.261 88.2764 241.588 85.8073 238.33 85.8073ZM238.101 96.2182C235.988 96.2182 234.079 94.5636 234.079 92.0182C234.079 89.4473 236.166 87.8945 238.101 87.8945C240.29 87.8945 242.021 89.6255 242.021 92.0182C242.021 94.3855 240.29 96.2182 238.101 96.2182ZM248.446 83.2109C249.311 83.2109 250.024 82.5745 250.024 81.7345C250.024 80.8945 249.311 80.2582 248.446 80.2582C247.606 80.2582 246.893 80.8945 246.893 81.7345C246.893 82.5745 247.606 83.2109 248.446 83.2109ZM249.566 98V86.1127H247.351V98H249.566ZM255.631 98V79.6473H253.416V98H255.631ZM260.576 83.2109C261.442 83.2109 262.154 82.5745 262.154 81.7345C262.154 80.8945 261.442 80.2582 260.576 80.2582C259.736 80.2582 259.024 80.8945 259.024 81.7345C259.024 82.5745 259.736 83.2109 260.576 83.2109ZM261.696 98V86.1127H259.482V98H261.696ZM268.678 86.1127V81.6327H266.463V86.1127H264.325V88.0218H266.463V98H268.678V88.0218H271.249V86.1127H268.678ZM278.205 94.8691L274.616 86.1127H272.224L277.009 97.6436L274.514 103.778H276.856L284.238 86.1127H281.845L278.205 94.8691Z" fill="white"/>
<path d="M126 89H65" stroke="white" stroke-width="3"/>
<rect y="149" width="961" height="459" fill="#000254"/>
<rect x="960" y="149" width="961" height="459" fill="#01032C"/>
<rect y="608" width="961" height="472" fill="#000254"/>
<rect x="960" y="608" width="961" height="472" fill="#01032C"/>
<rect x="331" y="685" width="299" height="299" rx="11" fill="white" fill-opacity="0.2"/>
<rect x="1291" y="685" width="299" height="299" rx="11" fill="white" fill-opacity="0.2"/>
<path d="M440.664 854.952L422.133 803.1H412.824L394.989 853.473C392.727 859.911 390.639 862.434 386.115 863.391V864H402.906V863.391C397.947 862.521 395.598 860.172 397.86 853.56L401.949 841.728H423.612L427.527 853.038C429.789 859.737 428.745 862.347 423.612 863.391V864H448.233V863.391C444.231 862.521 442.752 860.694 440.664 854.952ZM402.732 839.553L412.824 810.234L422.916 839.553H402.732ZM504.555 854.952L486.024 803.1H476.715L458.88 853.473C456.618 859.911 454.53 862.434 450.006 863.391V864H466.797V863.391C461.838 862.521 459.489 860.172 461.751 853.56L465.84 841.728H487.503L491.418 853.038C493.68 859.737 492.636 862.347 487.503 863.391V864H512.124V863.391C508.122 862.521 506.643 860.694 504.555 854.952ZM466.623 839.553L476.715 810.234L486.807 839.553H466.623ZM568.445 854.952L549.914 803.1H540.605L522.77 853.473C520.508 859.911 518.42 862.434 513.896 863.391V864H530.687V863.391C525.728 862.521 523.379 860.172 525.641 853.56L529.73 841.728H551.393L555.308 853.038C557.57 859.737 556.526 862.347 551.393 863.391V864H576.014V863.391C572.012 862.521 570.533 860.694 568.445 854.952ZM530.513 839.553L540.605 810.234L550.697 839.553H530.513Z" fill="white"/>
<path d="M459.783 882.143V884.673L462.313 883.661V895H465.142V879.774L459.783 882.143ZM468.116 882.143V884.673L470.646 883.661V895H473.475V879.774L468.116 882.143ZM476.863 893.482C476.863 894.494 477.691 895.23 478.657 895.23C479.669 895.23 480.497 894.494 480.497 893.482C480.497 892.47 479.669 891.734 478.657 891.734C477.691 891.734 476.863 892.47 476.863 893.482ZM483.199 887.479C483.199 891.757 484.418 895.23 488.788 895.23C493.158 895.23 494.308 891.757 494.308 887.479C494.308 883.155 493.158 879.682 488.788 879.682C484.418 879.682 483.199 883.155 483.199 887.479ZM486.028 887.479C486.028 884.719 486.626 882.442 488.788 882.442C490.904 882.442 491.502 884.719 491.502 887.479C491.502 890.216 490.904 892.47 488.788 892.47C486.626 892.47 486.028 890.216 486.028 887.479ZM496.574 882.143V884.673L499.104 883.661V895H501.933V879.774L496.574 882.143Z" fill="white"/>
<path d="M1400.66 854.952L1382.13 803.1H1372.82L1354.99 853.473C1352.73 859.911 1350.64 862.434 1346.11 863.391V864H1362.91V863.391C1357.95 862.521 1355.6 860.172 1357.86 853.56L1361.95 841.728H1383.61L1387.53 853.038C1389.79 859.737 1388.74 862.347 1383.61 863.391V864H1408.23V863.391C1404.23 862.521 1402.75 860.694 1400.66 854.952ZM1362.73 839.553L1372.82 810.234L1382.92 839.553H1362.73ZM1464.55 854.952L1446.02 803.1H1436.71L1418.88 853.473C1416.62 859.911 1414.53 862.434 1410.01 863.391V864H1426.8V863.391C1421.84 862.521 1419.49 860.172 1421.75 853.56L1425.84 841.728H1447.5L1451.42 853.038C1453.68 859.737 1452.64 862.347 1447.5 863.391V864H1472.12V863.391C1468.12 862.521 1466.64 860.694 1464.55 854.952ZM1426.62 839.553L1436.71 810.234L1446.81 839.553H1426.62ZM1528.45 854.952L1509.91 803.1H1500.61L1482.77 853.473C1480.51 859.911 1478.42 862.434 1473.9 863.391V864H1490.69V863.391C1485.73 862.521 1483.38 860.172 1485.64 853.56L1489.73 841.728H1511.39L1515.31 853.038C1517.57 859.737 1516.53 862.347 1511.39 863.391V864H1536.01V863.391C1532.01 862.521 1530.53 860.694 1528.45 854.952ZM1490.51 839.553L1500.61 810.234L1510.7 839.553H1490.51Z" fill="white"/>
<path d="M1418.38 882.143V884.673L1420.91 883.661V895H1423.74V879.774L1418.38 882.143ZM1426.71 882.143V884.673L1429.24 883.661V895H1432.07V879.774L1426.71 882.143ZM1435.46 893.482C1435.46 894.494 1436.29 895.23 1437.25 895.23C1438.26 895.23 1439.09 894.494 1439.09 893.482C1439.09 892.47 1438.26 891.734 1437.25 891.734C1436.29 891.734 1435.46 892.47 1435.46 893.482ZM1441.52 879.958V882.603H1448.07L1442.12 895H1445.34L1452.54 879.958H1441.52ZM1458.79 888.307C1460.84 888.238 1461.14 889.848 1461.14 890.239C1461.14 891.55 1460.03 892.47 1458.61 892.47C1457.57 892.47 1456.61 891.688 1456.17 890.791C1455.96 890.906 1453.92 891.918 1453.71 892.033C1454.51 893.781 1456.31 895.069 1458.38 895.207C1461.3 895.414 1463.9 893.666 1464.17 890.929C1464.33 889.319 1463.25 887.433 1461.67 886.835C1462.75 886.214 1463.53 885.133 1463.53 883.891C1463.53 881.66 1461.76 879.82 1459.18 879.682C1457.23 879.567 1455.48 880.487 1454.63 881.913L1456.84 883.362C1457.43 882.603 1458.29 882.327 1459.16 882.442C1460.24 882.649 1460.49 883.592 1460.49 884.144C1460.49 884.535 1460.22 885.823 1458.79 885.8H1457.18V888.307H1458.79Z" fill="white"/>
<path d="M440.664 398.952L422.133 347.1H412.824L394.989 397.473C392.727 403.911 390.639 406.434 386.115 407.391V408H402.906V407.391C397.947 406.521 395.598 404.172 397.86 397.56L401.949 385.728H423.612L427.527 397.038C429.789 403.737 428.745 406.347 423.612 407.391V408H448.233V407.391C444.231 406.521 442.752 404.694 440.664 398.952ZM402.732 383.553L412.824 354.234L422.916 383.553H402.732ZM504.555 398.952L486.024 347.1H476.715L458.88 397.473C456.618 403.911 454.53 406.434 450.006 407.391V408H466.797V407.391C461.838 406.521 459.489 404.172 461.751 397.56L465.84 385.728H487.503L491.418 397.038C493.68 403.737 492.636 406.347 487.503 407.391V408H512.124V407.391C508.122 406.521 506.643 404.694 504.555 398.952ZM466.623 383.553L476.715 354.234L486.807 383.553H466.623ZM568.445 398.952L549.914 347.1H540.605L522.77 397.473C520.508 403.911 518.42 406.434 513.896 407.391V408H530.687V407.391C525.728 406.521 523.379 404.172 525.641 397.56L529.73 385.728H551.393L555.308 397.038C557.57 403.737 556.526 406.347 551.393 407.391V408H576.014V407.391C572.012 406.521 570.533 404.694 568.445 398.952ZM530.513 383.553L540.605 354.234L550.697 383.553H530.513Z" fill="white"/>
<path d="M454.853 426.143V428.673L457.383 427.661V439H460.212V423.774L454.853 426.143ZM467.303 427.868C467.303 427.063 467.97 426.304 469.005 426.304C470.04 426.304 470.684 427.063 470.684 427.868C470.684 428.719 470.086 429.501 469.028 429.501C467.947 429.501 467.303 428.742 467.303 427.868ZM466.268 434.032C466.268 432.767 467.349 431.548 468.752 431.548H469.166C470.569 431.548 471.719 432.744 471.719 434.032C471.719 435.412 470.477 436.562 469.005 436.562C467.51 436.562 466.268 435.412 466.268 434.032ZM464.566 427.776C464.566 428.811 465.003 429.708 465.67 430.352C464.336 431.134 463.462 432.468 463.462 434.124C463.462 436.953 465.923 439.23 469.005 439.23C472.064 439.23 474.525 436.953 474.525 434.124C474.525 432.491 473.674 431.134 472.317 430.352C473.007 429.708 473.444 428.834 473.444 427.776C473.444 425.522 471.466 423.682 469.005 423.682C466.521 423.682 464.566 425.522 464.566 427.776ZM477.032 437.482C477.032 438.494 477.86 439.23 478.826 439.23C479.838 439.23 480.666 438.494 480.666 437.482C480.666 436.47 479.838 435.734 478.826 435.734C477.86 435.734 477.032 436.47 477.032 437.482ZM491.026 434.239C491.003 435.527 489.991 436.516 488.726 436.493C487.484 436.493 486.472 435.458 486.472 434.17C486.495 432.905 487.553 431.893 488.818 431.916C490.083 431.939 491.049 432.974 491.026 434.239ZM489.278 429.294C487.691 429.294 486.518 430.237 486.242 430.996C486.104 428.604 487.001 426.327 489.163 426.327C489.945 426.327 490.704 426.718 491.187 427.707L493.786 426.603C492.728 424.303 491.003 423.751 489.255 423.682C483.827 423.521 483.045 429.34 483.413 434.009C483.666 437.183 485.828 439.184 488.588 439.23C491.693 439.253 493.878 437.229 493.924 434.4C493.947 431.203 491.647 429.294 489.278 429.294ZM499.772 433.273L503.107 428.029V433.273H499.772ZM507.914 435.734V433.273H505.913V423.958H503.176L495.678 435.734H503.107V439H505.913V435.734H507.914Z" fill="white"/>
<path d="M1400.66 398.952L1382.13 347.1H1372.82L1354.99 397.473C1352.73 403.911 1350.64 406.434 1346.11 407.391V408H1362.91V407.391C1357.95 406.521 1355.6 404.172 1357.86 397.56L1361.95 385.728H1383.61L1387.53 397.038C1389.79 403.737 1388.74 406.347 1383.61 407.391V408H1408.23V407.391C1404.23 406.521 1402.75 404.694 1400.66 398.952ZM1362.73 383.553L1372.82 354.234L1382.92 383.553H1362.73ZM1464.55 398.952L1446.02 347.1H1436.71L1418.88 397.473C1416.62 403.911 1414.53 406.434 1410.01 407.391V408H1426.8V407.391C1421.84 406.521 1419.49 404.172 1421.75 397.56L1425.84 385.728H1447.5L1451.42 397.038C1453.68 403.737 1452.64 406.347 1447.5 407.391V408H1472.12V407.391C1468.12 406.521 1466.64 404.694 1464.55 398.952ZM1426.62 383.553L1436.71 354.234L1446.81 383.553H1426.62ZM1528.45 398.952L1509.91 347.1H1500.61L1482.77 397.473C1480.51 403.911 1478.42 406.434 1473.9 407.391V408H1490.69V407.391C1485.73 406.521 1483.38 404.172 1485.64 397.56L1489.73 385.728H1511.39L1515.31 397.038C1517.57 403.737 1516.53 406.347 1511.39 407.391V408H1536.01V407.391C1532.01 406.521 1530.53 404.694 1528.45 398.952ZM1490.51 383.553L1500.61 354.234L1510.7 383.553H1490.51Z" fill="white"/>
<path d="M1415.26 426.143V428.673L1417.79 427.661V439H1420.62V423.774L1415.26 426.143ZM1426.86 428.673C1426.88 427.408 1427.89 426.396 1429.16 426.419C1430.4 426.442 1431.41 427.454 1431.41 428.765C1431.39 430.03 1430.33 431.019 1429.06 430.996C1427.8 430.973 1426.81 429.938 1426.86 428.673ZM1428.58 433.618C1430.19 433.618 1431.36 432.698 1431.64 431.916C1431.78 434.331 1430.88 436.585 1428.72 436.585C1427.94 436.585 1427.18 436.194 1426.69 435.205L1424.1 436.309C1425.15 438.609 1426.88 439.161 1428.63 439.23C1434.05 439.414 1434.84 433.595 1434.47 428.903C1434.19 425.729 1432.05 423.751 1429.27 423.705C1426.19 423.659 1424 425.683 1423.96 428.512C1423.93 431.709 1426.23 433.618 1428.58 433.618ZM1436.99 437.482C1436.99 438.494 1437.81 439.23 1438.78 439.23C1439.79 439.23 1440.62 438.494 1440.62 437.482C1440.62 436.47 1439.79 435.734 1438.78 435.734C1437.81 435.734 1436.99 436.47 1436.99 437.482ZM1446.1 428.673C1446.13 427.408 1447.14 426.396 1448.4 426.419C1449.65 426.442 1450.66 427.454 1450.66 428.765C1450.64 430.03 1449.58 431.019 1448.31 430.996C1447.05 430.973 1446.06 429.938 1446.1 428.673ZM1447.83 433.618C1449.44 433.618 1450.61 432.698 1450.89 431.916C1451.03 434.331 1450.13 436.585 1447.97 436.585C1447.19 436.585 1446.43 436.194 1445.94 435.205L1443.34 436.309C1444.4 438.609 1446.13 439.161 1447.88 439.23C1453.3 439.414 1454.09 433.595 1453.72 428.903C1453.44 425.729 1451.3 423.751 1448.52 423.705C1445.44 423.659 1443.25 425.683 1443.21 428.512C1443.18 431.709 1445.48 433.618 1447.83 433.618ZM1464.6 433.848C1464.6 435.228 1463.41 436.447 1461.4 436.447C1460.28 436.447 1459.15 435.688 1458.55 434.584C1458.35 434.699 1456.39 435.941 1456.18 436.056C1457.24 437.965 1459.31 439.23 1461.4 439.23C1465.04 439.23 1467.41 437.022 1467.41 433.848C1467.41 430.582 1465.15 428.834 1462.42 428.834C1461.45 428.834 1460.25 429.11 1459.63 429.639L1460.16 426.557H1466.46V423.958H1457.91L1456.64 431.801L1458.25 432.767C1459.36 431.571 1460.67 431.249 1461.7 431.249C1463.31 431.249 1464.6 432.1 1464.6 433.848Z" fill="white"/>
</g>
<defs>
<clipPath id="clip0_1078_1898">
<rect width="1920" height="1080" fill="white"/>
</clipPath>
</defs>
</svg>
