<svg width="43" height="44" viewBox="0 0 43 44" fill="none" xmlns="http://www.w3.org/2000/svg">
<circle cx="21.236" cy="21.236" r="21.236" transform="matrix(1 0 0 -1 0.283081 43.236)" fill="black"/>
<path d="M12.4729 23.2946H11.6519C11.6034 23.5307 11.5184 23.7382 11.397 23.9169C11.2778 24.0957 11.1322 24.2458 10.96 24.3672C10.7901 24.4908 10.6014 24.5834 10.3939 24.6452C10.1865 24.707 9.97018 24.7379 9.74507 24.7379C9.33457 24.7379 8.96269 24.6342 8.62944 24.4267C8.29839 24.2193 8.03465 23.9136 7.83823 23.5097C7.64401 23.1059 7.54691 22.6104 7.54691 22.0233C7.54691 21.4363 7.64401 20.9408 7.83823 20.5369C8.03465 20.133 8.29839 19.8274 8.62944 19.6199C8.96269 19.4125 9.33457 19.3087 9.74507 19.3087C9.97018 19.3087 10.1865 19.3396 10.3939 19.4014C10.6014 19.4632 10.7901 19.5548 10.96 19.6762C11.1322 19.7998 11.2778 19.951 11.397 20.1297C11.5184 20.3107 11.6034 20.5182 11.6519 20.7521H12.4729C12.4111 20.4056 12.2986 20.0955 12.1352 19.8219C11.9719 19.5482 11.7689 19.3154 11.5261 19.1233C11.2833 18.9335 11.0108 18.789 10.7084 18.6897C10.4083 18.5904 10.0872 18.5407 9.74507 18.5407C9.16684 18.5407 8.65261 18.6819 8.20238 18.9644C7.75216 19.2469 7.39793 19.6486 7.13972 20.1695C6.8815 20.6903 6.75239 21.3083 6.75239 22.0233C6.75239 22.7384 6.8815 23.3564 7.13972 23.8772C7.39793 24.3981 7.75216 24.7997 8.20238 25.0822C8.65261 25.3647 9.16684 25.506 9.74507 25.506C10.0872 25.506 10.4083 25.4563 10.7084 25.357C11.0108 25.2577 11.2833 25.112 11.5261 24.92C11.7689 24.7302 11.9719 24.4985 12.1352 24.2248C12.2986 23.9533 12.4111 23.6433 12.4729 23.2946ZM13.7996 18.6334V25.4133H14.6206V19.3617H17.7722V18.6334H13.7996ZM24.4999 22.0233C24.4999 21.3083 24.3708 20.6903 24.1126 20.1695C23.8544 19.6486 23.5001 19.2469 23.0499 18.9644C22.5997 18.6819 22.0855 18.5407 21.5072 18.5407C20.929 18.5407 20.4148 18.6819 19.9645 18.9644C19.5143 19.2469 19.1601 19.6486 18.9019 20.1695C18.6437 20.6903 18.5145 21.3083 18.5145 22.0233C18.5145 22.7384 18.6437 23.3564 18.9019 23.8772C19.1601 24.3981 19.5143 24.7997 19.9645 25.0822C20.4148 25.3647 20.929 25.506 21.5072 25.506C22.0855 25.506 22.5997 25.3647 23.0499 25.0822C23.5001 24.7997 23.8544 24.3981 24.1126 23.8772C24.3708 23.3564 24.4999 22.7384 24.4999 22.0233ZM23.7054 22.0233C23.7054 22.6104 23.6072 23.1059 23.4108 23.5097C23.2165 23.9136 22.9528 24.2193 22.6196 24.4267C22.2885 24.6342 21.9177 24.7379 21.5072 24.7379C21.0967 24.7379 20.7249 24.6342 20.3916 24.4267C20.0605 24.2193 19.7968 23.9136 19.6004 23.5097C19.4062 23.1059 19.3091 22.6104 19.3091 22.0233C19.3091 21.4363 19.4062 20.9408 19.6004 20.5369C19.7968 20.133 20.0605 19.8274 20.3916 19.6199C20.7249 19.4125 21.0967 19.3087 21.5072 19.3087C21.9177 19.3087 22.2885 19.4125 22.6196 19.6199C22.9528 19.8274 23.2165 20.133 23.4108 20.5369C23.6072 20.9408 23.7054 21.4363 23.7054 22.0233ZM29.5881 23.7183C29.5484 24.0538 29.3873 24.3142 29.1048 24.4996C28.8223 24.685 28.4758 24.7777 28.0653 24.7777C27.7652 24.7777 27.5025 24.7291 27.2774 24.632C27.0545 24.5349 26.8801 24.4014 26.7544 24.2314C26.6308 24.0615 26.569 23.8684 26.569 23.6521C26.569 23.4711 26.612 23.3155 26.6981 23.1853C26.7864 23.0573 26.8989 22.9503 27.0357 22.8642C27.1726 22.7803 27.316 22.7108 27.4661 22.6556C27.6162 22.6027 27.7541 22.5596 27.8799 22.5265L28.5685 22.3411C28.7451 22.2948 28.9415 22.2308 29.1578 22.1491C29.3763 22.0675 29.5848 21.956 29.7834 21.8148C29.9843 21.6757 30.1498 21.497 30.28 21.2785C30.4102 21.06 30.4753 20.7918 30.4753 20.474C30.4753 20.1077 30.3793 19.7766 30.1873 19.4809C29.9975 19.1851 29.7194 18.9501 29.3531 18.7757C28.9889 18.6014 28.5464 18.5142 28.0256 18.5142C27.54 18.5142 27.1196 18.5926 26.7643 18.7493C26.4112 18.906 26.1331 19.1245 25.93 19.4047C25.7292 19.685 25.6155 20.0106 25.5891 20.3813H26.4365C26.4586 20.1253 26.5447 19.9135 26.6948 19.7457C26.847 19.5802 27.0391 19.4566 27.2708 19.3749C27.5047 19.2955 27.7563 19.2558 28.0256 19.2558C28.339 19.2558 28.6204 19.3065 28.8698 19.4081C29.1191 19.5118 29.3167 19.6552 29.4623 19.8384C29.608 20.0238 29.6808 20.2401 29.6808 20.4873C29.6808 20.7124 29.6179 20.8956 29.4921 21.0368C29.3663 21.1781 29.2008 21.2928 28.9956 21.3811C28.7903 21.4694 28.5685 21.5466 28.3301 21.6128L27.4959 21.8512C26.9662 22.0035 26.5469 22.2209 26.2379 22.5034C25.9289 22.7859 25.7744 23.1555 25.7744 23.6124C25.7744 23.992 25.8771 24.323 26.0823 24.6055C26.2898 24.8902 26.5679 25.1109 26.9166 25.2676C27.2675 25.4265 27.6592 25.506 28.0918 25.506C28.5288 25.506 28.9172 25.4276 29.2571 25.2709C29.597 25.1164 29.8662 24.9046 30.0648 24.6353C30.2657 24.3661 30.3716 24.0604 30.3826 23.7183H29.5881ZM31.8252 18.6334V25.4133H35.917V24.685H32.6462V22.3941H35.7051V21.6658H32.6462V19.3617H35.9699V18.6334H31.8252Z" fill="white"/>
</svg>
