<svg width="1322" height="1160" viewBox="0 0 1322 1160" fill="none" xmlns="http://www.w3.org/2000/svg">
<rect x="0.660156" y="0.019043" width="1320.68" height="1159.96" rx="49" fill="#DCE6F9"/>
<path d="M547.782 774.243C545.87 774.243 544.185 773.79 542.726 772.883C541.287 771.976 540.154 770.705 539.326 769.069C538.518 767.413 538.113 765.451 538.113 763.185C538.113 760.918 538.527 758.956 539.355 757.3C540.203 755.645 541.356 754.373 542.815 753.486C544.274 752.579 545.939 752.126 547.812 752.126C549.33 752.126 550.719 752.392 551.981 752.924C553.262 753.456 554.307 754.245 555.115 755.29C555.943 756.315 556.426 757.586 556.564 759.104L553.371 759.636C553.134 758.375 552.553 757.32 551.626 756.472C550.7 755.625 549.428 755.201 547.812 755.201C546.609 755.201 545.515 755.507 544.53 756.118C543.564 756.709 542.795 757.606 542.223 758.808C541.672 759.991 541.396 761.45 541.396 763.185C541.396 764.919 541.672 766.378 542.223 767.561C542.795 768.743 543.564 769.64 544.53 770.251C545.496 770.862 546.59 771.168 547.812 771.168C549.369 771.168 550.631 770.764 551.597 769.956C552.563 769.128 553.174 768.044 553.43 766.703L556.623 767.058C556.249 769.285 555.303 771.04 553.785 772.321C552.267 773.602 550.266 774.243 547.782 774.243ZM569.248 774.243C567.237 774.243 565.473 773.77 563.955 772.824C562.437 771.878 561.245 770.577 560.377 768.921C559.53 767.265 559.106 765.353 559.106 763.185C559.106 761.016 559.53 759.104 560.377 757.448C561.245 755.773 562.437 754.472 563.955 753.545C565.473 752.599 567.237 752.126 569.248 752.126C571.259 752.126 573.023 752.599 574.541 753.545C576.059 754.472 577.241 755.773 578.089 757.448C578.937 759.104 579.36 761.016 579.36 763.185C579.36 765.353 578.937 767.265 578.089 768.921C577.241 770.577 576.059 771.878 574.541 772.824C573.023 773.77 571.259 774.243 569.248 774.243ZM569.248 771.168C570.569 771.168 571.742 770.862 572.767 770.251C573.792 769.621 574.6 768.714 575.191 767.531C575.802 766.329 576.108 764.88 576.108 763.185C576.108 761.489 575.802 760.05 575.191 758.868C574.6 757.665 573.792 756.758 572.767 756.147C571.742 755.516 570.569 755.201 569.248 755.201C567.927 755.201 566.744 755.516 565.7 756.147C564.675 756.758 563.866 757.665 563.275 758.868C562.684 760.05 562.388 761.489 562.388 763.185C562.388 764.88 562.684 766.329 563.275 767.531C563.866 768.714 564.675 769.621 565.7 770.251C566.744 770.862 567.927 771.168 569.248 771.168ZM583.414 773.77V752.599H587.229L596.572 768.122H596.75L596.572 764.072V752.599H599.766V773.77H596.395L586.608 757.448H586.43L586.608 761.529V773.77H583.414ZM609.571 773.77V755.674H603.125V752.599H619.24V755.674H612.794V773.77H609.571ZM622.598 773.77V752.599H636.023V755.674H625.821V761.263H635.106V764.338H625.821V770.695H636.023V773.77H622.598ZM640.328 773.77V752.599H644.142L653.486 768.122H653.663L653.486 764.072V752.599H656.679V773.77H653.309L643.521 757.448H643.344L643.521 761.529V773.77H640.328ZM666.485 773.77V755.674H660.039V752.599H676.153V755.674H669.708V773.77H666.485ZM687.077 773.77V752.599H690.3V773.77H687.077ZM695.394 773.77V752.599H702.431C705.683 752.599 708.187 753.525 709.941 755.378C711.696 757.212 712.573 759.814 712.573 763.185C712.573 766.555 711.696 769.167 709.941 771.02C708.187 772.853 705.683 773.77 702.431 773.77H695.394ZM698.617 770.695H702.342C704.55 770.695 706.265 770.094 707.487 768.891C708.709 767.689 709.32 765.787 709.32 763.185C709.32 760.582 708.709 758.68 707.487 757.478C706.265 756.275 704.55 755.674 702.342 755.674H698.617V770.695ZM716.617 773.77V752.599H730.041V755.674H719.84V761.263H729.124V764.338H719.84V770.695H730.041V773.77H716.617ZM732.306 773.77L739.965 752.599H743.661L751.348 773.77H747.8L745.937 768.329H737.688L735.825 773.77H732.306ZM740.97 758.838L738.723 765.313H744.903L742.655 758.838L741.916 756.413H741.739L740.97 758.838ZM761.128 774.243C758.959 774.243 757.166 773.691 755.746 772.587C754.327 771.464 753.43 769.857 753.056 767.768L756.308 767.058C756.525 768.28 757.037 769.276 757.846 770.044C758.654 770.793 759.758 771.168 761.157 771.168C762.419 771.168 763.444 770.882 764.232 770.311C765.021 769.739 765.415 768.97 765.415 768.004C765.415 766.999 765.06 766.25 764.351 765.757C763.641 765.244 762.488 764.742 760.891 764.249L759.324 763.746C758.437 763.49 757.57 763.135 756.722 762.682C755.894 762.228 755.204 761.627 754.652 760.878C754.1 760.109 753.824 759.124 753.824 757.921C753.824 756.837 754.11 755.861 754.682 754.994C755.253 754.107 756.062 753.407 757.106 752.895C758.171 752.382 759.433 752.126 760.891 752.126C763.119 752.126 764.834 752.668 766.036 753.752C767.239 754.817 767.938 756.167 768.135 757.803L765.06 758.276C764.863 757.33 764.42 756.571 763.73 755.999C763.06 755.428 762.123 755.142 760.921 755.142C759.797 755.142 758.861 755.388 758.112 755.881C757.382 756.374 757.018 757.015 757.018 757.803C757.018 758.592 757.363 759.242 758.053 759.755C758.743 760.247 759.768 760.701 761.128 761.115L762.665 761.588C763.769 761.923 764.775 762.347 765.681 762.859C766.588 763.352 767.308 764.003 767.84 764.811C768.372 765.619 768.638 766.664 768.638 767.945C768.638 769.325 768.293 770.478 767.603 771.405C766.913 772.331 765.997 773.041 764.853 773.533C763.73 774.007 762.488 774.243 761.128 774.243Z" fill="#606367"/>
<path d="M95.7687 873.055V833.717H111.976C115.602 833.717 118.532 834.56 120.767 836.244C123.001 837.893 124.118 840.292 124.118 843.442C124.118 845.493 123.605 847.214 122.58 848.606C121.591 849.998 120.364 851.06 118.899 851.793V852.232C120.913 852.928 122.507 854.064 123.679 855.638C124.887 857.213 125.492 859.136 125.492 861.407C125.492 863.825 124.906 865.912 123.734 867.67C122.598 869.392 121.078 870.729 119.173 871.681C117.269 872.597 115.144 873.055 112.8 873.055H95.7687ZM103.131 849.101H111.756C113.368 849.101 114.632 848.716 115.547 847.947C116.463 847.141 116.921 846.06 116.921 844.705C116.921 843.35 116.481 842.288 115.602 841.519C114.723 840.75 113.515 840.365 111.976 840.365H103.131V849.101ZM103.131 866.352H112.471C114.302 866.352 115.694 865.839 116.646 864.814C117.598 863.751 118.075 862.451 118.075 860.913C118.075 859.374 117.58 858.092 116.591 857.067C115.639 856.005 114.21 855.474 112.306 855.474H103.131V866.352ZM131.69 873.055V844.156H138.448V847.892H138.888C139.51 846.573 140.426 845.474 141.635 844.595C142.843 843.716 144.327 843.277 146.085 843.277C146.781 843.277 147.349 843.313 147.788 843.387C148.228 843.46 148.612 843.533 148.942 843.606V850.749C148.429 850.529 147.843 850.346 147.184 850.199C146.524 850.053 145.774 849.98 144.931 849.98C143.173 849.98 141.726 850.639 140.591 851.957C139.455 853.239 138.888 855.016 138.888 857.287V873.055H131.69ZM165.787 873.934C162.82 873.934 160.238 873.293 158.04 872.011C155.879 870.692 154.194 868.879 152.986 866.572C151.814 864.264 151.228 861.609 151.228 858.605C151.228 855.602 151.814 852.946 152.986 850.639C154.194 848.331 155.879 846.537 158.04 845.255C160.238 843.936 162.82 843.277 165.787 843.277C168.79 843.277 171.372 843.936 173.533 845.255C175.694 846.537 177.361 848.331 178.533 850.639C179.742 852.946 180.346 855.602 180.346 858.605C180.346 861.609 179.742 864.264 178.533 866.572C177.361 868.879 175.694 870.692 173.533 872.011C171.372 873.293 168.79 873.934 165.787 873.934ZM165.787 867.231C167.948 867.231 169.706 866.498 171.061 865.033C172.453 863.568 173.149 861.426 173.149 858.605C173.149 855.785 172.453 853.642 171.061 852.177C169.706 850.712 167.948 849.98 165.787 849.98C163.626 849.98 161.849 850.712 160.458 852.177C159.102 853.642 158.425 855.785 158.425 858.605C158.425 861.426 159.102 863.568 160.458 865.033C161.849 866.498 163.626 867.231 165.787 867.231ZM190.977 873.055L182.626 844.156H190.647L194.987 862.561H195.372L200.427 844.156H207.679L212.788 862.561H213.173L217.513 844.156H225.425L217.019 873.055H209.272L204.108 854.375H203.723L198.668 873.055H190.977ZM240.678 873.934C236.942 873.934 233.994 873.073 231.833 871.352C229.709 869.593 228.408 867.359 227.932 864.649L234.8 863.495C235.093 864.814 235.752 865.839 236.778 866.572C237.803 867.268 239.103 867.616 240.678 867.616C242.034 867.616 243.206 867.377 244.195 866.901C245.22 866.389 245.733 865.601 245.733 864.539C245.733 863.587 245.257 862.817 244.304 862.231C243.352 861.645 242.034 861.206 240.349 860.913L237.052 860.308C234.708 859.869 232.767 858.953 231.229 857.561C229.69 856.17 228.921 854.32 228.921 852.012C228.921 850.291 229.415 848.771 230.404 847.452C231.43 846.134 232.785 845.108 234.47 844.376C236.192 843.643 238.114 843.277 240.239 843.277C247.051 843.277 250.971 845.914 251.996 851.188L245.678 852.177C245.275 851.042 244.616 850.236 243.7 849.76C242.784 849.284 241.686 849.046 240.404 849.046C239.048 849.046 237.95 849.32 237.107 849.87C236.301 850.419 235.898 851.06 235.898 851.793C235.898 852.562 236.228 853.203 236.887 853.716C237.547 854.228 238.609 854.631 240.074 854.924L244.085 855.748C246.905 856.334 249.084 857.305 250.623 858.66C252.161 859.979 252.93 861.902 252.93 864.429C252.93 866.334 252.381 868 251.282 869.429C250.183 870.857 248.7 871.974 246.832 872.78C245 873.549 242.949 873.934 240.678 873.934ZM271.295 873.934C268.402 873.934 265.893 873.311 263.768 872.066C261.644 870.82 259.996 869.044 258.824 866.737C257.652 864.429 257.066 861.719 257.066 858.605C257.066 855.455 257.67 852.745 258.879 850.474C260.124 848.167 261.827 846.39 263.988 845.145C266.149 843.899 268.603 843.277 271.35 843.277C275.929 843.277 279.317 844.522 281.514 847.013C283.749 849.503 284.866 852.873 284.866 857.122C284.866 858.331 284.811 859.374 284.701 860.253H263.988C264.245 862.671 265.069 864.502 266.461 865.748C267.852 866.956 269.556 867.561 271.57 867.561C273.255 867.561 274.61 867.158 275.636 866.352C276.698 865.509 277.467 864.502 277.943 863.33L284.206 865.033C283.327 867.67 281.826 869.813 279.701 871.461C277.614 873.11 274.812 873.934 271.295 873.934ZM271.405 849.101C269.684 849.101 268.2 849.613 266.955 850.639C265.71 851.628 264.831 853.13 264.318 855.144H277.998C277.852 853.313 277.211 851.848 276.075 850.749C274.976 849.65 273.42 849.101 271.405 849.101ZM316.276 873.494C313.455 873.494 311.239 872.67 309.628 871.022C308.016 869.337 307.21 867.03 307.21 864.099V850.309H302.43V844.156H307.21V836.244H314.408V844.156H321V850.309H314.408V863.001C314.408 865.491 315.525 866.737 317.759 866.737C318.455 866.737 319.041 866.645 319.517 866.462C320.03 866.279 320.579 866.022 321.165 865.693V872.56C320.433 872.853 319.664 873.073 318.858 873.22C318.089 873.403 317.228 873.494 316.276 873.494ZM327.211 873.055V844.156H333.969V847.892H334.408C335.031 846.573 335.946 845.474 337.155 844.595C338.364 843.716 339.847 843.277 341.605 843.277C342.301 843.277 342.869 843.313 343.309 843.387C343.748 843.46 344.133 843.533 344.462 843.606V850.749C343.95 850.529 343.363 850.346 342.704 850.199C342.045 850.053 341.294 849.98 340.452 849.98C338.694 849.98 337.247 850.639 336.111 851.957C334.976 853.239 334.408 855.016 334.408 857.287V873.055H327.211ZM360.978 873.934C358.084 873.934 355.575 873.311 353.451 872.066C351.326 870.82 349.678 869.044 348.506 866.737C347.334 864.429 346.748 861.719 346.748 858.605C346.748 855.455 347.352 852.745 348.561 850.474C349.806 848.167 351.509 846.39 353.67 845.145C355.831 843.899 358.285 843.277 361.033 843.277C365.611 843.277 368.999 844.522 371.197 847.013C373.431 849.503 374.548 852.873 374.548 857.122C374.548 858.331 374.493 859.374 374.383 860.253H353.67C353.927 862.671 354.751 864.502 356.143 865.748C357.535 866.956 359.238 867.561 361.252 867.561C362.937 867.561 364.292 867.158 365.318 866.352C366.38 865.509 367.149 864.502 367.625 863.33L373.889 865.033C373.01 867.67 371.508 869.813 369.384 871.461C367.296 873.11 364.494 873.934 360.978 873.934ZM361.087 849.101C359.366 849.101 357.883 849.613 356.637 850.639C355.392 851.628 354.513 853.13 354 855.144H367.68C367.534 853.313 366.893 851.848 365.757 850.749C364.659 849.65 363.102 849.101 361.087 849.101ZM380.583 873.055V844.156H387.341V847.672H387.78C388.622 846.317 389.795 845.255 391.296 844.485C392.798 843.68 394.483 843.277 396.351 843.277C399.684 843.277 402.211 844.284 403.933 846.299C405.654 848.276 406.515 851.06 406.515 854.65V873.055H399.318V855.638C399.318 853.807 398.86 852.415 397.944 851.463C397.065 850.474 395.82 849.98 394.208 849.98C392.23 849.98 390.655 850.712 389.483 852.177C388.348 853.642 387.78 855.455 387.78 857.616V873.055H380.583ZM425.045 873.934C422.665 873.934 420.504 873.348 418.562 872.176C416.621 871.004 415.083 869.282 413.947 867.011C412.812 864.704 412.244 861.902 412.244 858.605C412.244 855.272 412.83 852.47 414.002 850.199C415.174 847.928 416.731 846.207 418.672 845.035C420.65 843.863 422.793 843.277 425.1 843.277C427.261 843.277 429.056 843.68 430.484 844.485C431.95 845.255 433.03 846.28 433.726 847.562H434.166L433.726 843.277V830.421H440.923V873.055H434.166V869.703H433.726C432.957 870.839 431.858 871.828 430.43 872.67C429.001 873.513 427.206 873.934 425.045 873.934ZM426.803 867.231C428.891 867.231 430.631 866.517 432.023 865.088C433.451 863.66 434.166 861.499 434.166 858.605C434.166 855.712 433.451 853.551 432.023 852.122C430.631 850.694 428.891 849.98 426.803 849.98C424.716 849.98 422.958 850.694 421.529 852.122C420.137 853.551 419.441 855.712 419.441 858.605C419.441 861.499 420.137 863.66 421.529 865.088C422.958 866.517 424.716 867.231 426.803 867.231ZM452.337 839.211C451.055 839.211 449.956 838.753 449.04 837.838C448.125 836.922 447.667 835.823 447.667 834.541C447.667 833.259 448.125 832.16 449.04 831.245C449.956 830.329 451.055 829.871 452.337 829.871C453.619 829.871 454.717 830.329 455.633 831.245C456.549 832.16 457.007 833.259 457.007 834.541C457.007 835.823 456.549 836.922 455.633 837.838C454.717 838.753 453.619 839.211 452.337 839.211ZM448.711 873.055V844.156H455.908V873.055H448.711ZM463.672 873.055V844.156H470.43V847.672H470.869C471.712 846.317 472.884 845.255 474.386 844.485C475.887 843.68 477.572 843.277 479.44 843.277C482.773 843.277 485.3 844.284 487.022 846.299C488.743 848.276 489.604 851.06 489.604 854.65V873.055H482.407V855.638C482.407 853.807 481.949 852.415 481.033 851.463C480.154 850.474 478.909 849.98 477.297 849.98C475.32 849.98 473.745 850.712 472.573 852.177C471.437 853.642 470.869 855.455 470.869 857.616V873.055H463.672ZM508.91 885.801C505.028 885.801 501.933 884.922 499.625 883.164C497.354 881.406 495.926 879.171 495.34 876.461L502.537 874.978C502.94 876.296 503.654 877.358 504.68 878.164C505.742 879.007 507.152 879.428 508.91 879.428C511.181 879.428 512.939 878.714 514.185 877.285C515.43 875.857 516.053 873.824 516.053 871.187V868.989H515.613C514.587 870.271 513.415 871.242 512.097 871.901C510.815 872.524 509.148 872.835 507.097 872.835C504.9 872.835 502.867 872.249 500.999 871.077C499.131 869.868 497.629 868.165 496.494 865.967C495.358 863.77 494.79 861.133 494.79 858.056C494.79 854.979 495.358 852.342 496.494 850.144C497.629 847.91 499.131 846.207 500.999 845.035C502.867 843.863 504.9 843.277 507.097 843.277C510.98 843.277 513.818 844.559 515.613 847.123H516.053V844.156H522.92V870.967C522.92 875.545 521.693 879.153 519.239 881.79C516.785 884.464 513.342 885.801 508.91 885.801ZM509.02 866.242C510.961 866.242 512.61 865.546 513.965 864.154C515.357 862.762 516.053 860.73 516.053 858.056C516.053 855.345 515.357 853.313 513.965 851.957C512.61 850.566 510.961 849.87 509.02 849.87C507.116 849.87 505.467 850.566 504.075 851.957C502.684 853.313 501.988 855.345 501.988 858.056C501.988 860.73 502.684 862.762 504.075 864.154C505.467 865.546 507.116 866.242 509.02 866.242ZM554.74 873.934C551.004 873.934 548.055 873.073 545.894 871.352C543.77 869.593 542.47 867.359 541.994 864.649L548.861 863.495C549.154 864.814 549.813 865.839 550.839 866.572C551.865 867.268 553.165 867.616 554.74 867.616C556.095 867.616 557.267 867.377 558.256 866.901C559.282 866.389 559.794 865.601 559.794 864.539C559.794 863.587 559.318 862.817 558.366 862.231C557.414 861.645 556.095 861.206 554.41 860.913L551.114 860.308C548.77 859.869 546.828 858.953 545.29 857.561C543.752 856.17 542.983 854.32 542.983 852.012C542.983 850.291 543.477 848.771 544.466 847.452C545.491 846.134 546.847 845.108 548.532 844.376C550.253 843.643 552.176 843.277 554.3 843.277C561.113 843.277 565.032 845.914 566.058 851.188L559.739 852.177C559.337 851.042 558.677 850.236 557.762 849.76C556.846 849.284 555.747 849.046 554.465 849.046C553.11 849.046 552.011 849.32 551.169 849.87C550.363 850.419 549.96 851.06 549.96 851.793C549.96 852.562 550.29 853.203 550.949 853.716C551.608 854.228 552.67 854.631 554.135 854.924L558.146 855.748C560.966 856.334 563.146 857.305 564.684 858.66C566.222 859.979 566.992 861.902 566.992 864.429C566.992 866.334 566.442 868 565.343 869.429C564.245 870.857 562.761 871.974 560.893 872.78C559.062 873.549 557.011 873.934 554.74 873.934ZM585.357 873.934C582.463 873.934 579.954 873.311 577.83 872.066C575.706 870.82 574.057 869.044 572.885 866.737C571.713 864.429 571.127 861.719 571.127 858.605C571.127 855.455 571.732 852.745 572.94 850.474C574.186 848.167 575.889 846.39 578.05 845.145C580.211 843.899 582.665 843.277 585.412 843.277C589.99 843.277 593.378 844.522 595.576 847.013C597.81 849.503 598.927 852.873 598.927 857.122C598.927 858.331 598.872 859.374 598.762 860.253H578.05C578.306 862.671 579.13 864.502 580.522 865.748C581.914 866.956 583.617 867.561 585.632 867.561C587.316 867.561 588.672 867.158 589.697 866.352C590.759 865.509 591.529 864.502 592.005 863.33L598.268 865.033C597.389 867.67 595.887 869.813 593.763 871.461C591.675 873.11 588.873 873.934 585.357 873.934ZM585.467 849.101C583.745 849.101 582.262 849.613 581.017 850.639C579.771 851.628 578.892 853.13 578.379 855.144H592.06C591.913 853.313 591.272 851.848 590.137 850.749C589.038 849.65 587.481 849.101 585.467 849.101ZM614.076 873.934C610.999 873.934 608.563 873.091 606.769 871.406C604.974 869.722 604.077 867.469 604.077 864.649C604.077 862.708 604.571 861.059 605.56 859.704C606.549 858.312 607.886 857.25 609.571 856.518C611.292 855.785 613.197 855.419 615.285 855.419C616.64 855.419 617.94 855.51 619.185 855.693C620.467 855.84 621.768 856.06 623.086 856.353V854.045C623.086 852.543 622.555 851.335 621.493 850.419C620.431 849.503 618.929 849.046 616.988 849.046C615.559 849.046 614.314 849.412 613.252 850.144C612.19 850.84 611.457 851.829 611.054 853.111L604.791 851.793C605.23 849.851 606.055 848.258 607.263 847.013C608.509 845.767 609.974 844.833 611.658 844.211C613.38 843.588 615.193 843.277 617.098 843.277C621.456 843.277 624.716 844.266 626.877 846.244C629.038 848.221 630.119 851.115 630.119 854.924V873.055H623.086V870.198H622.647C621.804 871.223 620.65 872.102 619.185 872.835C617.72 873.567 616.017 873.934 614.076 873.934ZM615.889 868.33C618.16 868.33 619.918 867.67 621.163 866.352C622.445 864.997 623.086 863.44 623.086 861.682C622.061 861.352 620.962 861.096 619.79 860.913C618.618 860.693 617.464 860.583 616.328 860.583C614.534 860.583 613.233 860.968 612.428 861.737C611.622 862.469 611.219 863.422 611.219 864.594C611.219 865.693 611.658 866.59 612.538 867.286C613.417 867.982 614.534 868.33 615.889 868.33ZM637.577 873.055V844.156H644.334V847.892H644.774C645.397 846.573 646.312 845.474 647.521 844.595C648.73 843.716 650.213 843.277 651.971 843.277C652.667 843.277 653.235 843.313 653.674 843.387C654.114 843.46 654.499 843.533 654.828 843.606V850.749C654.315 850.529 653.729 850.346 653.07 850.199C652.411 850.053 651.66 849.98 650.817 849.98C649.059 849.98 647.613 850.639 646.477 851.957C645.342 853.239 644.774 855.016 644.774 857.287V873.055H637.577ZM671.289 873.934C668.505 873.934 666.051 873.311 663.926 872.066C661.802 870.784 660.136 868.989 658.927 866.682C657.718 864.374 657.114 861.682 657.114 858.605C657.114 855.492 657.718 852.8 658.927 850.529C660.172 848.221 661.875 846.445 664.036 845.2C666.197 843.918 668.706 843.277 671.563 843.277C674.933 843.277 677.808 844.101 680.189 845.749C682.57 847.397 684.053 849.87 684.639 853.166L677.607 854.265C677.24 852.836 676.508 851.756 675.409 851.023C674.31 850.291 672.973 849.925 671.398 849.925C669.494 849.925 667.827 850.675 666.399 852.177C665.007 853.642 664.311 855.785 664.311 858.605C664.311 861.426 664.989 863.587 666.344 865.088C667.736 866.553 669.421 867.286 671.398 867.286C674.622 867.286 676.709 865.656 677.662 862.396L684.584 863.989C683.888 866.883 682.423 869.264 680.189 871.132C677.955 873 674.988 873.934 671.289 873.934ZM690.466 873.055V830.421H697.663V843.277L697.224 848.002H697.663C698.396 846.573 699.549 845.438 701.124 844.595C702.736 843.716 704.476 843.277 706.344 843.277C709.823 843.277 712.46 844.284 714.255 846.299C716.05 848.313 716.947 851.06 716.947 854.54V873.055H709.75V855.693C709.75 853.825 709.274 852.415 708.322 851.463C707.406 850.474 706.087 849.98 704.366 849.98C702.351 849.98 700.721 850.73 699.476 852.232C698.267 853.734 697.663 855.657 697.663 858.001V873.055H690.466ZM736.948 873.934C734.055 873.934 731.546 873.311 729.421 872.066C727.297 870.82 725.649 869.044 724.477 866.737C723.305 864.429 722.719 861.719 722.719 858.605C722.719 855.455 723.323 852.745 724.532 850.474C725.777 848.167 727.48 846.39 729.641 845.145C731.802 843.899 734.256 843.277 737.003 843.277C741.582 843.277 744.97 844.522 747.167 847.013C749.402 849.503 750.519 852.873 750.519 857.122C750.519 858.331 750.464 859.374 750.354 860.253H729.641C729.898 862.671 730.722 864.502 732.114 865.748C733.505 866.956 735.209 867.561 737.223 867.561C738.908 867.561 740.263 867.158 741.289 866.352C742.351 865.509 743.12 864.502 743.596 863.33L749.859 865.033C748.98 867.67 747.479 869.813 745.354 871.461C743.266 873.11 740.465 873.934 736.948 873.934ZM737.058 849.101C735.337 849.101 733.853 849.613 732.608 850.639C731.363 851.628 730.484 853.13 729.971 855.144H743.651C743.505 853.313 742.864 851.848 741.728 850.749C740.629 849.65 739.073 849.101 737.058 849.101ZM767.59 873.934C763.854 873.934 760.906 873.073 758.745 871.352C756.62 869.593 755.32 867.359 754.844 864.649L761.712 863.495C762.005 864.814 762.664 865.839 763.689 866.572C764.715 867.268 766.015 867.616 767.59 867.616C768.945 867.616 770.117 867.377 771.106 866.901C772.132 866.389 772.645 865.601 772.645 864.539C772.645 863.587 772.169 862.817 771.216 862.231C770.264 861.645 768.945 861.206 767.261 860.913L763.964 860.308C761.62 859.869 759.679 858.953 758.14 857.561C756.602 856.17 755.833 854.32 755.833 852.012C755.833 850.291 756.327 848.771 757.316 847.452C758.342 846.134 759.697 845.108 761.382 844.376C763.103 843.643 765.026 843.277 767.151 843.277C773.963 843.277 777.882 845.914 778.908 851.188L772.59 852.177C772.187 851.042 771.528 850.236 770.612 849.76C769.696 849.284 768.597 849.046 767.316 849.046C765.96 849.046 764.861 849.32 764.019 849.87C763.213 850.419 762.81 851.06 762.81 851.793C762.81 852.562 763.14 853.203 763.799 853.716C764.459 854.228 765.521 854.631 766.986 854.924L770.997 855.748C773.817 856.334 775.996 857.305 777.534 858.66C779.073 859.979 779.842 861.902 779.842 864.429C779.842 866.334 779.293 868 778.194 869.429C777.095 870.857 775.612 871.974 773.744 872.78C771.912 873.549 769.861 873.934 767.59 873.934ZM810.787 873.494C807.967 873.494 805.751 872.67 804.14 871.022C802.528 869.337 801.722 867.03 801.722 864.099V850.309H796.942V844.156H801.722V836.244H808.919V844.156H815.512V850.309H808.919V863.001C808.919 865.491 810.037 866.737 812.271 866.737C812.967 866.737 813.553 866.645 814.029 866.462C814.542 866.279 815.091 866.022 815.677 865.693V872.56C814.945 872.853 814.175 873.073 813.37 873.22C812.6 873.403 811.74 873.494 810.787 873.494ZM833.613 873.934C830.646 873.934 828.064 873.293 825.866 872.011C823.705 870.692 822.021 868.879 820.812 866.572C819.64 864.264 819.054 861.609 819.054 858.605C819.054 855.602 819.64 852.946 820.812 850.639C822.021 848.331 823.705 846.537 825.866 845.255C828.064 843.936 830.646 843.277 833.613 843.277C836.617 843.277 839.199 843.936 841.36 845.255C843.521 846.537 845.187 848.331 846.359 850.639C847.568 852.946 848.172 855.602 848.172 858.605C848.172 861.609 847.568 864.264 846.359 866.572C845.187 868.879 843.521 870.692 841.36 872.011C839.199 873.293 836.617 873.934 833.613 873.934ZM833.613 867.231C835.774 867.231 837.532 866.498 838.887 865.033C840.279 863.568 840.975 861.426 840.975 858.605C840.975 855.785 840.279 853.642 838.887 852.177C837.532 850.712 835.774 849.98 833.613 849.98C831.452 849.98 829.676 850.712 828.284 852.177C826.929 853.642 826.251 855.785 826.251 858.605C826.251 861.426 826.929 863.568 828.284 865.033C829.676 866.498 831.452 867.231 833.613 867.231ZM880.099 885.801C876.217 885.801 873.122 884.922 870.814 883.164C868.544 881.406 867.115 879.171 866.529 876.461L873.726 874.978C874.129 876.296 874.843 877.358 875.869 878.164C876.931 879.007 878.341 879.428 880.099 879.428C882.37 879.428 884.128 878.714 885.374 877.285C886.619 875.857 887.242 873.824 887.242 871.187V868.989H886.802C885.777 870.271 884.605 871.242 883.286 871.901C882.004 872.524 880.337 872.835 878.286 872.835C876.089 872.835 874.056 872.249 872.188 871.077C870.32 869.868 868.818 868.165 867.683 865.967C866.547 863.77 865.98 861.133 865.98 858.056C865.98 854.979 866.547 852.342 867.683 850.144C868.818 847.91 870.32 846.207 872.188 845.035C874.056 843.863 876.089 843.277 878.286 843.277C882.169 843.277 885.007 844.559 886.802 847.123H887.242V844.156H894.109V870.967C894.109 875.545 892.882 879.153 890.428 881.79C887.974 884.464 884.531 885.801 880.099 885.801ZM880.209 866.242C882.151 866.242 883.799 865.546 885.154 864.154C886.546 862.762 887.242 860.73 887.242 858.056C887.242 855.345 886.546 853.313 885.154 851.957C883.799 850.566 882.151 849.87 880.209 849.87C878.305 849.87 876.656 850.566 875.265 851.957C873.873 853.313 873.177 855.345 873.177 858.056C873.177 860.73 873.873 862.762 875.265 864.154C876.656 865.546 878.305 866.242 880.209 866.242ZM913.636 873.934C910.743 873.934 908.234 873.311 906.11 872.066C903.985 870.82 902.337 869.044 901.165 866.737C899.993 864.429 899.407 861.719 899.407 858.605C899.407 855.455 900.011 852.745 901.22 850.474C902.465 848.167 904.168 846.39 906.329 845.145C908.49 843.899 910.944 843.277 913.691 843.277C918.27 843.277 921.658 844.522 923.855 847.013C926.09 849.503 927.207 852.873 927.207 857.122C927.207 858.331 927.152 859.374 927.042 860.253H906.329C906.586 862.671 907.41 864.502 908.802 865.748C910.194 866.956 911.897 867.561 913.911 867.561C915.596 867.561 916.951 867.158 917.977 866.352C919.039 865.509 919.808 864.502 920.284 863.33L926.548 865.033C925.668 867.67 924.167 869.813 922.042 871.461C919.955 873.11 917.153 873.934 913.636 873.934ZM913.746 849.101C912.025 849.101 910.541 849.613 909.296 850.639C908.051 851.628 907.172 853.13 906.659 855.144H920.339C920.193 853.313 919.552 851.848 918.416 850.749C917.318 849.65 915.761 849.101 913.746 849.101ZM944.029 873.494C941.209 873.494 938.993 872.67 937.382 871.022C935.77 869.337 934.964 867.03 934.964 864.099V850.309H930.184V844.156H934.964V836.244H942.161V844.156H948.754V850.309H942.161V863.001C942.161 865.491 943.279 866.737 945.513 866.737C946.209 866.737 946.795 866.645 947.271 866.462C947.784 866.279 948.333 866.022 948.919 865.693V872.56C948.187 872.853 947.417 873.073 946.612 873.22C945.842 873.403 944.982 873.494 944.029 873.494ZM971.11 885.471C970.084 885.471 969.132 885.38 968.253 885.197C967.374 885.013 966.641 884.794 966.055 884.537V877.56C966.531 877.816 967.209 878.091 968.088 878.384C969.004 878.714 969.974 878.878 971 878.878C972.172 878.878 973.142 878.567 973.912 877.944C974.717 877.358 975.523 876.205 976.329 874.483L977.373 872.121L965.451 844.156H973.637L981.054 862.451H981.493L988.691 844.156H996.657L982.537 877.395C981.695 879.373 980.761 880.948 979.735 882.12C978.71 883.329 977.501 884.189 976.109 884.702C974.754 885.215 973.088 885.471 971.11 885.471ZM1012.93 873.934C1009.96 873.934 1007.38 873.293 1005.18 872.011C1003.02 870.692 1001.34 868.879 1000.13 866.572C998.957 864.264 998.371 861.609 998.371 858.605C998.371 855.602 998.957 852.946 1000.13 850.639C1001.34 848.331 1003.02 846.537 1005.18 845.255C1007.38 843.936 1009.96 843.277 1012.93 843.277C1015.93 843.277 1018.52 843.936 1020.68 845.255C1022.84 846.537 1024.5 848.331 1025.68 850.639C1026.89 852.946 1027.49 855.602 1027.49 858.605C1027.49 861.609 1026.89 864.264 1025.68 866.572C1024.5 868.879 1022.84 870.692 1020.68 872.011C1018.52 873.293 1015.93 873.934 1012.93 873.934ZM1012.93 867.231C1015.09 867.231 1016.85 866.498 1018.2 865.033C1019.6 863.568 1020.29 861.426 1020.29 858.605C1020.29 855.785 1019.6 853.642 1018.2 852.177C1016.85 850.712 1015.09 849.98 1012.93 849.98C1010.77 849.98 1008.99 850.712 1007.6 852.177C1006.25 853.642 1005.57 855.785 1005.57 858.605C1005.57 861.426 1006.25 863.568 1007.6 865.033C1008.99 866.498 1010.77 867.231 1012.93 867.231ZM1043.17 873.934C1039.84 873.934 1037.31 872.926 1035.59 870.912C1033.86 868.898 1033 866.114 1033 862.561V844.156H1040.2V861.572C1040.2 863.403 1040.64 864.814 1041.52 865.803C1042.44 866.755 1043.7 867.231 1045.31 867.231C1047.29 867.231 1048.85 866.498 1049.98 865.033C1051.15 863.568 1051.74 861.755 1051.74 859.594V844.156H1058.94V873.055H1052.18V869.538H1051.74C1050.93 870.894 1049.76 871.974 1048.22 872.78C1046.72 873.549 1045.04 873.934 1043.17 873.934ZM1066.7 873.055V844.156H1073.46V847.892H1073.9C1074.52 846.573 1075.43 845.474 1076.64 844.595C1077.85 843.716 1079.33 843.277 1081.09 843.277C1081.79 843.277 1082.36 843.313 1082.8 843.387C1083.24 843.46 1083.62 843.533 1083.95 843.606V850.749C1083.44 850.529 1082.85 850.346 1082.19 850.199C1081.53 850.053 1080.78 849.98 1079.94 849.98C1078.18 849.98 1076.73 850.639 1075.6 851.957C1074.46 853.239 1073.9 855.016 1073.9 857.287V873.055H1066.7ZM1103.38 873.055V844.156H1110.14V847.672H1110.58C1111.42 846.317 1112.6 845.255 1114.1 844.485C1115.6 843.68 1117.28 843.277 1119.15 843.277C1122.49 843.277 1125.01 844.284 1126.73 846.299C1128.46 848.276 1129.32 851.06 1129.32 854.65V873.055H1122.12V855.638C1122.12 853.807 1121.66 852.415 1120.75 851.463C1119.87 850.474 1118.62 849.98 1117.01 849.98C1115.03 849.98 1113.46 850.712 1112.28 852.177C1111.15 853.642 1110.58 855.455 1110.58 857.616V873.055H1103.38ZM1149.33 873.934C1146.44 873.934 1143.93 873.311 1141.8 872.066C1139.68 870.82 1138.03 869.044 1136.86 866.737C1135.69 864.429 1135.1 861.719 1135.1 858.605C1135.1 855.455 1135.7 852.745 1136.91 850.474C1138.16 848.167 1139.86 846.39 1142.02 845.145C1144.18 843.899 1146.64 843.277 1149.39 843.277C1153.96 843.277 1157.35 844.522 1159.55 847.013C1161.78 849.503 1162.9 852.873 1162.9 857.122C1162.9 858.331 1162.85 859.374 1162.74 860.253H1142.02C1142.28 862.671 1143.1 864.502 1144.5 865.748C1145.89 866.956 1147.59 867.561 1149.6 867.561C1151.29 867.561 1152.64 867.158 1153.67 866.352C1154.73 865.509 1155.5 864.502 1155.98 863.33L1162.24 865.033C1161.36 867.67 1159.86 869.813 1157.74 871.461C1155.65 873.11 1152.85 873.934 1149.33 873.934ZM1149.44 849.101C1147.72 849.101 1146.24 849.613 1144.99 850.639C1143.74 851.628 1142.87 853.13 1142.35 855.144H1156.03C1155.89 853.313 1155.25 851.848 1154.11 850.749C1153.01 849.65 1151.45 849.101 1149.44 849.101ZM1165.49 873.055L1175.32 858.386L1165.49 844.156H1173.95L1179.5 852.562H1179.83L1184.99 844.156H1193.73L1183.78 858.386L1193.73 873.055H1185.27L1179.72 864.429H1179.39L1173.89 873.055H1165.49ZM1210.08 873.494C1207.26 873.494 1205.05 872.67 1203.44 871.022C1201.82 869.337 1201.02 867.03 1201.02 864.099V850.309H1196.24V844.156H1201.02V836.244H1208.22V844.156H1214.81V850.309H1208.22V863.001C1208.22 865.491 1209.33 866.737 1211.57 866.737C1212.26 866.737 1212.85 866.645 1213.33 866.462C1213.84 866.279 1214.39 866.022 1214.97 865.693V872.56C1214.24 872.853 1213.47 873.073 1212.67 873.22C1211.9 873.403 1211.04 873.494 1210.08 873.494ZM458.466 942.934C456.305 942.934 454.529 942.531 453.137 941.725C451.745 940.883 450.646 939.875 449.841 938.703H449.401V942.055H442.643V899.421H449.841V912.277L449.401 916.562H449.841C450.5 915.463 451.562 914.474 453.027 913.595C454.529 912.716 456.342 912.277 458.466 912.277C460.92 912.277 463.1 912.881 465.004 914.09C466.945 915.262 468.484 916.983 469.619 919.254C470.755 921.525 471.322 924.309 471.322 927.605C471.322 930.865 470.755 933.649 469.619 935.956C468.484 938.227 466.945 939.967 465.004 941.176C463.1 942.348 460.92 942.934 458.466 942.934ZM456.763 936.231C458.851 936.231 460.591 935.498 461.983 934.033C463.411 932.532 464.125 930.389 464.125 927.605C464.125 924.822 463.411 922.697 461.983 921.232C460.591 919.73 458.851 918.98 456.763 918.98C454.675 918.98 452.917 919.73 451.489 921.232C450.097 922.697 449.401 924.822 449.401 927.605C449.401 930.389 450.097 932.532 451.489 934.033C452.917 935.498 454.675 936.231 456.763 936.231ZM480.763 908.211C479.481 908.211 478.382 907.753 477.467 906.838C476.551 905.922 476.093 904.823 476.093 903.541C476.093 902.259 476.551 901.16 477.467 900.245C478.382 899.329 479.481 898.871 480.763 898.871C482.045 898.871 483.144 899.329 484.06 900.245C484.975 901.16 485.433 902.259 485.433 903.541C485.433 904.823 484.975 905.922 484.06 906.838C483.144 907.753 482.045 908.211 480.763 908.211ZM477.137 942.055V913.156H484.334V942.055H477.137ZM503.917 954.801C500.035 954.801 496.94 953.922 494.632 952.164C492.361 950.406 490.933 948.171 490.347 945.461L497.544 943.978C497.947 945.296 498.661 946.358 499.687 947.164C500.749 948.007 502.159 948.428 503.917 948.428C506.188 948.428 507.946 947.714 509.192 946.285C510.437 944.857 511.06 942.824 511.06 940.187V937.989H510.62C509.595 939.271 508.422 940.242 507.104 940.901C505.822 941.524 504.155 941.835 502.104 941.835C499.907 941.835 497.874 941.249 496.006 940.077C494.138 938.868 492.636 937.165 491.501 934.967C490.365 932.77 489.798 930.133 489.798 927.056C489.798 923.979 490.365 921.342 491.501 919.144C492.636 916.91 494.138 915.207 496.006 914.035C497.874 912.863 499.907 912.277 502.104 912.277C505.987 912.277 508.825 913.559 510.62 916.123H511.06V913.156H517.927V939.967C517.927 944.545 516.7 948.153 514.246 950.79C511.792 953.464 508.349 954.801 503.917 954.801ZM504.027 935.242C505.968 935.242 507.617 934.546 508.972 933.154C510.364 931.762 511.06 929.73 511.06 927.056C511.06 924.345 510.364 922.313 508.972 920.957C507.617 919.566 505.968 918.87 504.027 918.87C502.123 918.87 500.474 919.566 499.083 920.957C497.691 922.313 496.995 924.345 496.995 927.056C496.995 929.73 497.691 931.762 499.083 933.154C500.474 934.546 502.123 935.242 504.027 935.242ZM551.45 942.934C548.666 942.934 546.212 942.311 544.088 941.066C541.964 939.784 540.297 937.989 539.088 935.682C537.88 933.374 537.275 930.682 537.275 927.605C537.275 924.492 537.88 921.8 539.088 919.529C540.334 917.221 542.037 915.445 544.198 914.2C546.359 912.918 548.868 912.277 551.725 912.277C555.094 912.277 557.97 913.101 560.35 914.749C562.731 916.397 564.215 918.87 564.801 922.166L557.768 923.265C557.402 921.836 556.669 920.756 555.571 920.023C554.472 919.291 553.135 918.925 551.56 918.925C549.655 918.925 547.989 919.675 546.56 921.177C545.169 922.642 544.473 924.785 544.473 927.605C544.473 930.426 545.15 932.587 546.505 934.088C547.897 935.553 549.582 936.286 551.56 936.286C554.783 936.286 556.871 934.656 557.823 931.396L564.746 932.989C564.05 935.883 562.585 938.264 560.35 940.132C558.116 942 555.149 942.934 551.45 942.934ZM583.215 942.934C580.248 942.934 577.666 942.293 575.469 941.011C573.308 939.692 571.623 937.879 570.414 935.572C569.242 933.264 568.656 930.609 568.656 927.605C568.656 924.602 569.242 921.946 570.414 919.639C571.623 917.331 573.308 915.537 575.469 914.255C577.666 912.936 580.248 912.277 583.215 912.277C586.219 912.277 588.801 912.936 590.962 914.255C593.123 915.537 594.789 917.331 595.962 919.639C597.17 921.946 597.775 924.602 597.775 927.605C597.775 930.609 597.17 933.264 595.962 935.572C594.789 937.879 593.123 939.692 590.962 941.011C588.801 942.293 586.219 942.934 583.215 942.934ZM583.215 936.231C585.376 936.231 587.134 935.498 588.49 934.033C589.881 932.568 590.577 930.426 590.577 927.605C590.577 924.785 589.881 922.642 588.49 921.177C587.134 919.712 585.376 918.98 583.215 918.98C581.054 918.98 579.278 919.712 577.886 921.177C576.531 922.642 575.853 924.785 575.853 927.605C575.853 930.426 576.531 932.568 577.886 934.033C579.278 935.498 581.054 936.231 583.215 936.231ZM603.296 942.055V913.156H610.053V916.672H610.493C611.335 915.317 612.507 914.255 614.009 913.485C615.511 912.68 617.196 912.277 619.064 912.277C622.397 912.277 624.924 913.284 626.646 915.299C628.367 917.276 629.228 920.06 629.228 923.65V942.055H622.031V924.638C622.031 922.807 621.573 921.415 620.657 920.463C619.778 919.474 618.533 918.98 616.921 918.98C614.943 918.98 613.368 919.712 612.196 921.177C611.061 922.642 610.493 924.455 610.493 926.616V942.055H603.296ZM646.913 942.494C644.092 942.494 641.876 941.67 640.265 940.022C638.653 938.337 637.847 936.03 637.847 933.099V919.309H633.068V913.156H637.847V905.244H645.045V913.156H651.638V919.309H645.045V932.001C645.045 934.491 646.162 935.737 648.396 935.737C649.092 935.737 649.678 935.645 650.154 935.462C650.667 935.279 651.216 935.022 651.802 934.693V941.56C651.07 941.853 650.301 942.073 649.495 942.22C648.726 942.403 647.865 942.494 646.913 942.494ZM669.409 942.934C666.515 942.934 664.006 942.311 661.882 941.066C659.757 939.82 658.109 938.044 656.937 935.737C655.765 933.429 655.179 930.719 655.179 927.605C655.179 924.455 655.783 921.745 656.992 919.474C658.237 917.167 659.941 915.39 662.102 914.145C664.263 912.899 666.717 912.277 669.464 912.277C674.042 912.277 677.43 913.522 679.628 916.013C681.862 918.503 682.979 921.873 682.979 926.122C682.979 927.331 682.924 928.374 682.814 929.253H662.102C662.358 931.671 663.182 933.502 664.574 934.748C665.966 935.956 667.669 936.561 669.683 936.561C671.368 936.561 672.724 936.158 673.749 935.352C674.811 934.509 675.58 933.502 676.057 932.33L682.32 934.033C681.441 936.67 679.939 938.813 677.815 940.461C675.727 942.11 672.925 942.934 669.409 942.934ZM669.519 918.101C667.797 918.101 666.314 918.613 665.068 919.639C663.823 920.628 662.944 922.13 662.431 924.144H676.112C675.965 922.313 675.324 920.848 674.189 919.749C673.09 918.65 671.533 918.101 669.519 918.101ZM689.014 942.055V913.156H695.772V916.672H696.211C697.054 915.317 698.226 914.255 699.727 913.485C701.229 912.68 702.914 912.277 704.782 912.277C708.115 912.277 710.642 913.284 712.364 915.299C714.085 917.276 714.946 920.06 714.946 923.65V942.055H707.749V924.638C707.749 922.807 707.291 921.415 706.375 920.463C705.496 919.474 704.251 918.98 702.639 918.98C700.661 918.98 699.086 919.712 697.914 921.177C696.779 922.642 696.211 924.455 696.211 926.616V942.055H689.014ZM732.631 942.494C729.811 942.494 727.595 941.67 725.983 940.022C724.372 938.337 723.566 936.03 723.566 933.099V919.309H718.786V913.156H723.566V905.244H730.763V913.156H737.356V919.309H730.763V932.001C730.763 934.491 731.88 935.737 734.114 935.737C734.81 935.737 735.396 935.645 735.872 935.462C736.385 935.279 736.935 935.022 737.521 934.693V941.56C736.788 941.853 736.019 942.073 735.213 942.22C734.444 942.403 733.583 942.494 732.631 942.494ZM761.03 908.211C759.748 908.211 758.649 907.753 757.733 906.838C756.818 905.922 756.36 904.823 756.36 903.541C756.36 902.259 756.818 901.16 757.733 900.245C758.649 899.329 759.748 898.871 761.03 898.871C762.312 898.871 763.41 899.329 764.326 900.245C765.242 901.16 765.7 902.259 765.7 903.541C765.7 904.823 765.242 905.922 764.326 906.838C763.41 907.753 762.312 908.211 761.03 908.211ZM757.404 942.055V913.156H764.601V942.055H757.404ZM783.14 942.934C780.759 942.934 778.598 942.348 776.657 941.176C774.716 940.004 773.177 938.282 772.042 936.011C770.906 933.704 770.339 930.902 770.339 927.605C770.339 924.272 770.925 921.47 772.097 919.199C773.269 916.928 774.826 915.207 776.767 914.035C778.745 912.863 780.887 912.277 783.195 912.277C785.356 912.277 787.151 912.68 788.579 913.485C790.044 914.255 791.125 915.28 791.821 916.562H792.26L791.821 912.277V899.421H799.018V942.055H792.26V938.703H791.821C791.051 939.839 789.953 940.828 788.524 941.67C787.096 942.513 785.301 942.934 783.14 942.934ZM784.898 936.231C786.986 936.231 788.726 935.517 790.117 934.088C791.546 932.66 792.26 930.499 792.26 927.605C792.26 924.712 791.546 922.551 790.117 921.122C788.726 919.694 786.986 918.98 784.898 918.98C782.81 918.98 781.052 919.694 779.624 921.122C778.232 922.551 777.536 924.712 777.536 927.605C777.536 930.499 778.232 932.66 779.624 934.088C781.052 935.517 782.81 936.231 784.898 936.231ZM819.009 942.934C816.115 942.934 813.606 942.311 811.482 941.066C809.357 939.82 807.709 938.044 806.537 935.737C805.365 933.429 804.779 930.719 804.779 927.605C804.779 924.455 805.383 921.745 806.592 919.474C807.837 917.167 809.54 915.39 811.701 914.145C813.862 912.899 816.316 912.277 819.063 912.277C823.642 912.277 827.03 913.522 829.228 916.013C831.462 918.503 832.579 921.873 832.579 926.122C832.579 927.331 832.524 928.374 832.414 929.253H811.701C811.958 931.671 812.782 933.502 814.174 934.748C815.566 935.956 817.269 936.561 819.283 936.561C820.968 936.561 822.323 936.158 823.349 935.352C824.411 934.509 825.18 933.502 825.656 932.33L831.92 934.033C831.041 936.67 829.539 938.813 827.414 940.461C825.327 942.11 822.525 942.934 819.009 942.934ZM819.118 918.101C817.397 918.101 815.914 918.613 814.668 919.639C813.423 920.628 812.544 922.13 812.031 924.144H825.711C825.565 922.313 824.924 920.848 823.788 919.749C822.69 918.65 821.133 918.101 819.118 918.101ZM847.728 942.934C844.651 942.934 842.215 942.091 840.42 940.406C838.626 938.722 837.728 936.469 837.728 933.649C837.728 931.708 838.223 930.059 839.212 928.704C840.201 927.312 841.538 926.25 843.222 925.518C844.944 924.785 846.848 924.419 848.936 924.419C850.291 924.419 851.592 924.51 852.837 924.693C854.119 924.84 855.419 925.06 856.738 925.353V923.045C856.738 921.543 856.207 920.335 855.145 919.419C854.082 918.503 852.581 918.046 850.639 918.046C849.211 918.046 847.966 918.412 846.903 919.144C845.841 919.84 845.109 920.829 844.706 922.111L838.443 920.793C838.882 918.851 839.706 917.258 840.915 916.013C842.16 914.767 843.625 913.833 845.31 913.211C847.032 912.588 848.845 912.277 850.749 912.277C855.108 912.277 858.368 913.266 860.529 915.244C862.69 917.221 863.77 920.115 863.77 923.924V942.055H856.738V939.198H856.298C855.456 940.223 854.302 941.102 852.837 941.835C851.372 942.567 849.669 942.934 847.728 942.934ZM849.541 937.33C851.811 937.33 853.57 936.67 854.815 935.352C856.097 933.997 856.738 932.44 856.738 930.682C855.712 930.352 854.613 930.096 853.441 929.913C852.269 929.693 851.116 929.583 849.98 929.583C848.185 929.583 846.885 929.968 846.079 930.737C845.274 931.469 844.871 932.422 844.871 933.594C844.871 934.693 845.31 935.59 846.189 936.286C847.068 936.982 848.185 937.33 849.541 937.33ZM875.294 942.384C873.975 942.384 872.84 941.926 871.888 941.011C870.972 940.059 870.514 938.923 870.514 937.604C870.514 936.286 870.972 935.169 871.888 934.253C872.84 933.337 873.975 932.88 875.294 932.88C876.613 932.88 877.73 933.337 878.645 934.253C879.598 935.169 880.074 936.286 880.074 937.604C880.074 938.923 879.598 940.059 878.645 941.011C877.73 941.926 876.613 942.384 875.294 942.384Z" fill="#3D4043"/>
<rect x="463.594" y="1001.96" width="379.621" height="77.5195" rx="38.7598" fill="#B3CBF6"/>
<path d="M523.013 1053.25C520.567 1053.25 518.543 1052.63 516.942 1051.39C515.341 1050.12 514.33 1048.31 513.907 1045.95L517.576 1045.15C517.821 1046.53 518.399 1047.65 519.311 1048.52C520.222 1049.36 521.468 1049.78 523.046 1049.78C524.47 1049.78 525.626 1049.46 526.515 1048.82C527.405 1048.17 527.849 1047.31 527.849 1046.22C527.849 1045.08 527.449 1044.24 526.649 1043.68C525.848 1043.1 524.547 1042.54 522.746 1041.98L520.978 1041.41C519.978 1041.12 518.999 1040.72 518.043 1040.21C517.109 1039.7 516.331 1039.02 515.708 1038.18C515.086 1037.31 514.774 1036.2 514.774 1034.84C514.774 1033.62 515.097 1032.52 515.742 1031.54C516.386 1030.54 517.298 1029.75 518.477 1029.17C519.677 1028.59 521.101 1028.3 522.746 1028.3C525.259 1028.3 527.194 1028.92 528.55 1030.14C529.906 1031.34 530.696 1032.86 530.918 1034.71L527.449 1035.24C527.227 1034.17 526.727 1033.32 525.948 1032.67C525.192 1032.03 524.136 1031.71 522.78 1031.71C521.512 1031.71 520.456 1031.98 519.611 1032.54C518.788 1033.1 518.377 1033.82 518.377 1034.71C518.377 1035.6 518.766 1036.33 519.544 1036.91C520.322 1037.47 521.479 1037.98 523.013 1038.44L524.747 1038.98C525.993 1039.36 527.127 1039.83 528.15 1040.41C529.173 1040.97 529.984 1041.7 530.585 1042.61C531.185 1043.53 531.485 1044.7 531.485 1046.15C531.485 1047.71 531.096 1049.01 530.318 1050.05C529.539 1051.1 528.505 1051.9 527.216 1052.45C525.948 1052.99 524.547 1053.25 523.013 1053.25ZM542.666 1053.25C540.976 1053.25 539.497 1052.86 538.23 1052.09C536.985 1051.29 536.017 1050.2 535.328 1048.82C534.661 1047.42 534.327 1045.8 534.327 1043.98C534.327 1042.11 534.683 1040.48 535.395 1039.08C536.106 1037.68 537.085 1036.59 538.33 1035.81C539.598 1035.03 541.043 1034.64 542.666 1034.64C545.312 1034.64 547.314 1035.39 548.67 1036.88C550.049 1038.37 550.738 1040.4 550.738 1042.98C550.738 1043.63 550.705 1044.2 550.638 1044.71H537.83C537.941 1046.45 538.452 1047.77 539.364 1048.68C540.276 1049.6 541.421 1050.05 542.8 1050.05C544.023 1050.05 544.968 1049.78 545.635 1049.25C546.324 1048.7 546.824 1048.01 547.136 1047.18L550.271 1048.02C549.826 1049.53 548.981 1050.79 547.736 1051.79C546.491 1052.76 544.801 1053.25 542.666 1053.25ZM542.7 1037.68C541.499 1037.68 540.476 1038.04 539.631 1038.78C538.808 1039.51 538.263 1040.59 537.996 1042.01H547.202C547.136 1040.7 546.724 1039.66 545.968 1038.88C545.212 1038.08 544.123 1037.68 542.7 1037.68ZM561.881 1053.25C560.191 1053.25 558.712 1052.86 557.444 1052.09C556.199 1051.29 555.232 1050.2 554.542 1048.82C553.875 1047.42 553.542 1045.8 553.542 1043.98C553.542 1042.11 553.898 1040.48 554.609 1039.08C555.321 1037.68 556.299 1036.59 557.544 1035.81C558.812 1035.03 560.257 1034.64 561.881 1034.64C564.527 1034.64 566.528 1035.39 567.884 1036.88C569.263 1038.37 569.953 1040.4 569.953 1042.98C569.953 1043.63 569.919 1044.2 569.852 1044.71H557.044C557.155 1046.45 557.667 1047.77 558.578 1048.68C559.49 1049.6 560.635 1050.05 562.014 1050.05C563.237 1050.05 564.182 1049.78 564.849 1049.25C565.539 1048.7 566.039 1048.01 566.35 1047.18L569.486 1048.02C569.041 1049.53 568.196 1050.79 566.951 1051.79C565.705 1052.76 564.015 1053.25 561.881 1053.25ZM561.914 1037.68C560.713 1037.68 559.69 1038.04 558.845 1038.78C558.023 1039.51 557.478 1040.59 557.211 1042.01H566.417C566.35 1040.7 565.939 1039.66 565.183 1038.88C564.427 1038.08 563.337 1037.68 561.914 1037.68ZM588.232 1053.25C586.186 1053.25 584.485 1052.76 583.129 1051.79C581.795 1050.81 581.005 1049.47 580.761 1047.78L584.196 1047.22C584.374 1048.06 584.808 1048.75 585.497 1049.28C586.209 1049.82 587.12 1050.09 588.232 1050.09C589.188 1050.09 590.011 1049.9 590.7 1049.52C591.412 1049.12 591.768 1048.54 591.768 1047.78C591.768 1047.09 591.468 1046.54 590.867 1046.12C590.289 1045.69 589.455 1045.38 588.366 1045.18L586.264 1044.78C584.797 1044.51 583.596 1043.97 582.662 1043.15C581.728 1042.32 581.261 1041.2 581.261 1039.78C581.261 1038.76 581.561 1037.87 582.162 1037.11C582.762 1036.33 583.562 1035.73 584.563 1035.31C585.586 1034.86 586.709 1034.64 587.932 1034.64C589.755 1034.64 591.279 1035.03 592.502 1035.81C593.725 1036.59 594.481 1037.8 594.77 1039.44L591.534 1039.95C591.312 1039.1 590.878 1038.51 590.233 1038.18C589.611 1037.82 588.866 1037.64 587.999 1037.64C587.065 1037.64 586.298 1037.83 585.697 1038.21C585.097 1038.59 584.797 1039.08 584.797 1039.68C584.797 1040.26 585.019 1040.73 585.464 1041.11C585.931 1041.47 586.687 1041.76 587.732 1041.98L590.167 1042.48C591.812 1042.81 593.08 1043.39 593.969 1044.21C594.881 1045.04 595.337 1046.19 595.337 1047.68C595.337 1048.82 595.014 1049.81 594.37 1050.65C593.747 1051.47 592.902 1052.12 591.835 1052.59C590.767 1053.03 589.566 1053.25 588.232 1053.25ZM606.169 1053.25C604.479 1053.25 603 1052.86 601.732 1052.09C600.487 1051.29 599.52 1050.2 598.83 1048.82C598.163 1047.42 597.83 1045.8 597.83 1043.98C597.83 1042.11 598.186 1040.48 598.897 1039.08C599.609 1037.68 600.587 1036.59 601.832 1035.81C603.1 1035.03 604.545 1034.64 606.169 1034.64C608.815 1034.64 610.816 1035.39 612.173 1036.88C613.551 1038.37 614.241 1040.4 614.241 1042.98C614.241 1043.63 614.207 1044.2 614.14 1044.71H601.332C601.443 1046.45 601.955 1047.77 602.866 1048.68C603.778 1049.6 604.923 1050.05 606.302 1050.05C607.525 1050.05 608.47 1049.78 609.137 1049.25C609.827 1048.7 610.327 1048.01 610.638 1047.18L613.774 1048.02C613.329 1049.53 612.484 1050.79 611.239 1051.79C609.993 1052.76 608.303 1053.25 606.169 1053.25ZM606.202 1037.68C605.001 1037.68 603.978 1038.04 603.133 1038.78C602.311 1039.51 601.766 1040.59 601.499 1042.01H610.705C610.638 1040.7 610.227 1039.66 609.471 1038.88C608.715 1038.08 607.625 1037.68 606.202 1037.68ZM623.415 1053.25C621.592 1053.25 620.124 1052.75 619.012 1051.75C617.9 1050.75 617.344 1049.41 617.344 1047.72C617.344 1046.54 617.645 1045.55 618.245 1044.75C618.868 1043.93 619.679 1043.3 620.68 1042.88C621.703 1042.46 622.826 1042.25 624.049 1042.25C624.983 1042.25 625.85 1042.3 626.65 1042.41C627.451 1042.52 628.252 1042.69 629.052 1042.91V1041.25C629.052 1040.16 628.674 1039.29 627.918 1038.64C627.162 1037.98 626.161 1037.64 624.916 1037.64C623.915 1037.64 623.059 1037.89 622.348 1038.38C621.658 1038.84 621.18 1039.53 620.913 1040.45L617.745 1039.71C618.1 1038.07 618.945 1036.81 620.28 1035.94C621.636 1035.08 623.193 1034.64 624.949 1034.64C627.418 1034.64 629.297 1035.23 630.586 1036.41C631.876 1037.59 632.521 1039.28 632.521 1041.48V1052.72H629.052V1050.69H628.852C628.34 1051.35 627.629 1051.95 626.717 1052.49C625.828 1053 624.727 1053.25 623.415 1053.25ZM624.216 1050.32C625.683 1050.32 626.851 1049.87 627.718 1048.98C628.607 1048.07 629.052 1046.98 629.052 1045.72C627.562 1045.2 626.083 1044.95 624.616 1044.95C623.46 1044.95 622.559 1045.18 621.914 1045.65C621.269 1046.12 620.947 1046.81 620.947 1047.72C620.947 1048.47 621.247 1049.1 621.847 1049.58C622.47 1050.07 623.259 1050.32 624.216 1050.32ZM637.032 1052.72V1035.18H640.401V1037.54H640.601C640.957 1036.7 641.535 1036.01 642.335 1035.48C643.136 1034.94 644.048 1034.68 645.071 1034.68C645.493 1034.68 645.838 1034.7 646.105 1034.74C646.371 1034.79 646.605 1034.84 646.805 1034.91V1038.54C646.138 1038.23 645.382 1038.08 644.537 1038.08C643.425 1038.08 642.491 1038.52 641.735 1039.41C640.979 1040.3 640.601 1041.41 640.601 1042.75V1052.72H637.032ZM656.549 1053.25C654.881 1053.25 653.413 1052.88 652.146 1052.12C650.901 1051.34 649.922 1050.25 649.211 1048.85C648.521 1047.45 648.177 1045.82 648.177 1043.95C648.177 1042.06 648.532 1040.42 649.244 1039.04C649.978 1037.64 650.978 1036.57 652.246 1035.81C653.536 1035.03 655.014 1034.64 656.682 1034.64C658.772 1034.64 660.485 1035.16 661.819 1036.21C663.175 1037.25 664.009 1038.69 664.32 1040.51L660.851 1041.08C660.629 1040.12 660.151 1039.37 659.417 1038.81C658.706 1038.23 657.772 1037.94 656.615 1037.94C655.237 1037.94 654.08 1038.47 653.146 1039.51C652.213 1040.53 651.746 1042.01 651.746 1043.95C651.746 1045.88 652.201 1047.37 653.113 1048.42C654.047 1049.44 655.214 1049.95 656.615 1049.95C658.817 1049.95 660.24 1048.85 660.885 1046.65L664.254 1047.45C663.831 1049.16 662.975 1050.56 661.685 1051.65C660.396 1052.72 658.683 1053.25 656.549 1053.25ZM667.904 1052.72V1026.84H671.473V1034.91L671.273 1037.54H671.473C671.917 1036.72 672.629 1036.03 673.607 1035.48C674.586 1034.92 675.675 1034.64 676.876 1034.64C678.944 1034.64 680.512 1035.25 681.579 1036.48C682.669 1037.7 683.214 1039.31 683.214 1041.31V1052.72H679.645V1041.78C679.645 1040.56 679.311 1039.61 678.644 1038.94C677.977 1038.28 677.065 1037.94 675.909 1037.94C675.042 1037.94 674.275 1038.18 673.607 1038.64C672.94 1039.09 672.418 1039.7 672.04 1040.48C671.662 1041.23 671.473 1042.09 671.473 1043.05V1052.72H667.904ZM702.609 1052.99C701.074 1052.99 699.851 1052.53 698.94 1051.62C698.028 1050.69 697.572 1049.41 697.572 1047.78V1038.31H694.737V1035.18H697.572V1030.37H701.141V1035.18H705.144V1038.31H701.141V1047.15C701.141 1048.8 701.864 1049.62 703.309 1049.62C703.687 1049.62 704.021 1049.57 704.31 1049.48C704.599 1049.37 704.899 1049.23 705.21 1049.05V1052.52C704.855 1052.65 704.465 1052.76 704.043 1052.85C703.643 1052.94 703.165 1052.99 702.609 1052.99ZM708.837 1052.72V1035.18H712.206V1037.54H712.406C712.762 1036.7 713.34 1036.01 714.14 1035.48C714.941 1034.94 715.852 1034.68 716.875 1034.68C717.298 1034.68 717.642 1034.7 717.909 1034.74C718.176 1034.79 718.41 1034.84 718.61 1034.91V1038.54C717.943 1038.23 717.187 1038.08 716.342 1038.08C715.23 1038.08 714.296 1038.52 713.54 1039.41C712.784 1040.3 712.406 1041.41 712.406 1042.75V1052.72H708.837ZM728.32 1053.25C726.63 1053.25 725.151 1052.86 723.884 1052.09C722.639 1051.29 721.671 1050.2 720.982 1048.82C720.315 1047.42 719.981 1045.8 719.981 1043.98C719.981 1042.11 720.337 1040.48 721.049 1039.08C721.76 1037.68 722.739 1036.59 723.984 1035.81C725.251 1035.03 726.697 1034.64 728.32 1034.64C730.966 1034.64 732.967 1035.39 734.324 1036.88C735.703 1038.37 736.392 1040.4 736.392 1042.98C736.392 1043.63 736.359 1044.2 736.292 1044.71H723.484C723.595 1046.45 724.106 1047.77 725.018 1048.68C725.93 1049.6 727.075 1050.05 728.453 1050.05C729.676 1050.05 730.622 1049.78 731.289 1049.25C731.978 1048.7 732.478 1048.01 732.79 1047.18L735.925 1048.02C735.48 1049.53 734.635 1050.79 733.39 1051.79C732.145 1052.76 730.455 1053.25 728.32 1053.25ZM728.353 1037.68C727.153 1037.68 726.13 1038.04 725.285 1038.78C724.462 1039.51 723.917 1040.59 723.65 1042.01H732.856C732.79 1040.7 732.378 1039.66 731.622 1038.88C730.866 1038.08 729.777 1037.68 728.353 1037.68ZM740.067 1052.72V1035.18H743.436V1037.41H743.636C744.103 1036.59 744.792 1035.92 745.704 1035.41C746.638 1034.9 747.683 1034.64 748.839 1034.64C750.84 1034.64 752.364 1035.24 753.409 1036.44C754.476 1037.62 755.01 1039.24 755.01 1041.31V1052.72H751.408V1041.78C751.408 1040.47 751.085 1039.5 750.44 1038.88C749.795 1038.26 748.939 1037.94 747.872 1037.94C746.56 1037.94 745.526 1038.41 744.77 1039.34C744.014 1040.28 743.636 1041.41 743.636 1042.75V1052.72H740.067ZM766.313 1053.25C764.778 1053.25 763.422 1052.89 762.243 1052.15C761.087 1051.4 760.175 1050.32 759.508 1048.92C758.841 1047.52 758.508 1045.86 758.508 1043.95C758.508 1042.01 758.841 1040.36 759.508 1038.98C760.175 1037.58 761.098 1036.51 762.277 1035.78C763.455 1035.02 764.801 1034.64 766.313 1034.64C767.625 1034.64 768.737 1034.92 769.648 1035.48C770.582 1036.01 771.272 1036.65 771.716 1037.41H771.916L771.716 1034.91V1026.84H775.285V1052.72H771.916V1050.45H771.716C771.249 1051.21 770.549 1051.86 769.615 1052.42C768.703 1052.98 767.603 1053.25 766.313 1053.25ZM766.98 1049.95C768.403 1049.95 769.582 1049.45 770.516 1048.45C771.449 1047.43 771.916 1045.93 771.916 1043.95C771.916 1041.97 771.449 1040.48 770.516 1039.48C769.582 1038.46 768.403 1037.94 766.98 1037.94C765.557 1037.94 764.378 1038.46 763.444 1039.48C762.533 1040.48 762.077 1041.97 762.077 1043.95C762.077 1045.93 762.533 1047.43 763.444 1048.45C764.378 1049.45 765.557 1049.95 766.98 1049.95ZM786.068 1053.25C784.023 1053.25 782.322 1052.76 780.965 1051.79C779.631 1050.81 778.841 1049.47 778.597 1047.78L782.032 1047.22C782.21 1048.06 782.644 1048.75 783.333 1049.28C784.045 1049.82 784.957 1050.09 786.068 1050.09C787.025 1050.09 787.847 1049.9 788.537 1049.52C789.248 1049.12 789.604 1048.54 789.604 1047.78C789.604 1047.09 789.304 1046.54 788.703 1046.12C788.125 1045.69 787.291 1045.38 786.202 1045.18L784.1 1044.78C782.633 1044.51 781.432 1043.97 780.498 1043.15C779.564 1042.32 779.097 1041.2 779.097 1039.78C779.097 1038.76 779.397 1037.87 779.998 1037.11C780.598 1036.33 781.399 1035.73 782.399 1035.31C783.422 1034.86 784.545 1034.64 785.768 1034.64C787.592 1034.64 789.115 1035.03 790.338 1035.81C791.561 1036.59 792.317 1037.8 792.606 1039.44L789.371 1039.95C789.148 1039.1 788.715 1038.51 788.07 1038.18C787.447 1037.82 786.702 1037.64 785.835 1037.64C784.901 1037.64 784.134 1037.83 783.533 1038.21C782.933 1038.59 782.633 1039.08 782.633 1039.68C782.633 1040.26 782.855 1040.73 783.3 1041.11C783.767 1041.47 784.523 1041.76 785.568 1041.98L788.003 1042.48C789.649 1042.81 790.916 1043.39 791.806 1044.21C792.717 1045.04 793.173 1046.19 793.173 1047.68C793.173 1048.82 792.851 1049.81 792.206 1050.65C791.583 1051.47 790.738 1052.12 789.671 1052.59C788.603 1053.03 787.403 1053.25 786.068 1053.25Z" fill="#202124"/>
</svg>
