<svg width="37" height="37" viewBox="0 0 37 37" fill="none" xmlns="http://www.w3.org/2000/svg">
<path d="M26.4297 18.7383C26.4297 14.389 22.9039 10.8633 18.5547 10.8633C14.2054 10.8633 10.6797 14.389 10.6797 18.7383" stroke="#211D4F" stroke-width="6"/>
<path d="M26.4297 18.7384C26.4297 16.5927 25.5715 14.6474 24.1797 13.2271" stroke="#F72E3F" stroke-width="6"/>
<path d="M1.56444 6.63946C1.44017 3.6568 3.82465 1.1709 6.80989 1.1709H30.2995C33.2847 1.1709 35.6692 3.6568 35.5449 6.63946L34.5449 30.6395C34.4278 33.4515 32.114 35.6709 29.2995 35.6709H7.80989C4.99541 35.6709 2.68161 33.4515 2.56445 30.6395L1.56444 6.63946Z" stroke="#211D4F" stroke-width="1.5" stroke-linejoin="round"/>
<path d="M18.7148 18.5078L26.2148 14.7578" stroke="#211D4F" stroke-width="1.5"/>
<circle cx="18.7148" cy="18.5078" r="1.5" fill="#211D4F"/>
</svg>
