<svg width="37" height="38" viewBox="0 0 37 38" fill="none" xmlns="http://www.w3.org/2000/svg">
<path d="M1.78564 27.5786C1.78564 27.5786 1.78565 24.7042 6.85363 22.7375C11.7703 20.8465 10.8626 18.7285 10.8626 18.7285L4.35747 17.2913C4.35747 17.2913 7.38312 12.1477 7.38312 7.00412C7.38312 4.05411 9.80363 1.25537 13.9639 1.25537C18.1242 1.25537 20.9229 3.22205 20.9229 7.00412C20.9229 12.8285 24.0242 17.2913 24.0242 17.2913L17.4434 18.7285C17.4434 18.7285 17.0652 21.149 20.7716 22.7375C26.2178 25.0068 26.2178 27.5786 26.2178 27.5786H1.78564Z" stroke="#211D4F" stroke-width="1.75" stroke-miterlimit="10" stroke-linecap="round" stroke-linejoin="round"/>
<path d="M11.4692 2.01172C11.4692 2.01172 14.041 10.4079 20.9244 7.07968" stroke="#211D4F" stroke-width="1.75" stroke-miterlimit="10" stroke-linecap="round" stroke-linejoin="round"/>
<path d="M10.9378 18.8041C10.9378 16.9887 6.47496 14.19 7.30701 9.27333C7.30701 9.27333 12.375 7.45794 11.4673 2.0874" stroke="#211D4F" stroke-width="1.75" stroke-miterlimit="10" stroke-linecap="round" stroke-linejoin="round"/>
<path d="M17.438 18.8042C17.438 16.9888 21.8252 14.0388 21.0688 9.12207" stroke="#211D4F" stroke-width="1.75" stroke-miterlimit="10" stroke-linecap="round" stroke-linejoin="round"/>
<path d="M25.1874 21.2888C25.571 20.6152 26.5419 20.6153 26.9254 21.2889L31.0363 28.5099L35.165 35.7606C35.5446 36.4272 35.0631 37.2554 34.296 37.2554H26.0565H17.8154C17.0482 37.2554 16.5668 36.4272 16.9464 35.7606L21.075 28.5099L25.1874 21.2888Z" fill="#F72E3F"/>
<path d="M27.0337 34.4175C27.0337 34.9007 26.6419 35.2925 26.1587 35.2925C25.6754 35.2925 25.2837 34.9007 25.2837 34.4175C25.2837 33.9342 25.6754 33.5425 26.1587 33.5425C26.6419 33.5425 27.0337 33.9342 27.0337 34.4175Z" fill="#211D4F"/>
<path d="M26.1587 24.5425L26.1587 32.0425" stroke="#211D4F" stroke-width="1.75"/>
</svg>
