<svg width="39" height="38" viewBox="0 0 39 38" fill="none" xmlns="http://www.w3.org/2000/svg">
<path d="M12.118 21.5237L16.9914 16.6726L9.4707 8.97803L4.4595 13.8652C2.40394 15.9208 2.40395 19.2535 4.45953 21.3091L4.6741 21.5237C6.72967 23.5792 10.0624 23.5792 12.118 21.5237Z" fill="#F72E3F"/>
<path d="M21.519 4.68066L21.3045 4.46609C19.2489 2.41052 15.9161 2.41052 13.8606 4.46609L4.46078 13.8659C2.4052 15.9215 2.4052 19.2542 4.46078 21.3098L4.67535 21.5244C6.73093 23.5799 10.0637 23.5799 12.1193 21.5244L21.519 12.1246C23.5746 10.069 23.5746 6.73624 21.519 4.68066Z" stroke="#211D4F" stroke-width="1.5" stroke-miterlimit="10"/>
<path d="M31.9341 20.8907C28.3481 17.3047 22.4724 17.6776 19.2217 20.6033L31.9292 33.8818C35.518 30.2931 35.5202 24.4767 31.9341 20.8907Z" fill="#F72E3F"/>
<path d="M25.3379 36.7442C30.4107 36.7442 34.523 32.6319 34.523 27.5591C34.523 22.4863 30.4107 18.374 25.3379 18.374C20.2651 18.374 16.1528 22.4863 16.1528 27.5591C16.1528 32.6319 20.2651 36.7442 25.3379 36.7442Z" stroke="#211D4F" stroke-width="1.5" stroke-miterlimit="10"/>
</svg>
