<svg width="38" height="37" viewBox="0 0 38 37" fill="none" xmlns="http://www.w3.org/2000/svg">
<path d="M10.9824 27.7461C3.98242 28.7461 1.05273 30.8052 1.05273 35.8052" stroke="#211D4F" stroke-width="1.75"/>
<path d="M13.5527 11.3047C6.55273 11.3047 4.05273 7.80469 4.05273 0.804688" stroke="#211D4F" stroke-width="1.75"/>
<path d="M8.32858 28.2398C8.15337 28.2869 8.05273 28.3047 8.05273 28.3047C8.05273 28.3047 8.14862 28.2744 8.32858 28.2398C9.5059 27.9232 14.0502 26.2817 14.0502 19.8047C14.0502 19.8047 15.9824 28.2455 18.4824 33.2456C13.7495 27.6522 9.4389 28.0266 8.32858 28.2398Z" fill="#211D4F"/>
<path d="M8.05273 28.3047L7.7889 27.4704C7.34942 27.6094 7.09312 28.0655 7.20293 28.5131C7.31273 28.9608 7.75098 29.2465 8.20489 29.1664L8.05273 28.3047ZM14.0502 19.8047L14.9031 19.6094L13.1752 19.8047H14.0502ZM18.4824 33.2456L17.8145 33.8108L19.265 32.8543L18.4824 33.2456ZM8.05273 28.3047C8.20489 29.1664 8.20495 29.1663 8.20502 29.1663C8.20504 29.1663 8.20511 29.1663 8.20516 29.1663C8.20525 29.1663 8.20534 29.1663 8.20543 29.1663C8.20562 29.1662 8.20581 29.1662 8.20601 29.1662C8.20641 29.1661 8.20684 29.166 8.20729 29.1659C8.20819 29.1658 8.20919 29.1656 8.21029 29.1654C8.21249 29.165 8.21508 29.1645 8.21806 29.164C8.22403 29.1628 8.23156 29.1614 8.24061 29.1596C8.25869 29.1561 8.28282 29.1511 8.31259 29.1446C8.3721 29.1315 8.4543 29.1121 8.5558 29.0848L8.10135 27.3948C8.02765 27.4146 7.97192 27.4277 7.93732 27.4353C7.92003 27.4391 7.90805 27.4415 7.90179 27.4427C7.89866 27.4433 7.89696 27.4437 7.89674 27.4437C7.89663 27.4437 7.89689 27.4437 7.89753 27.4436C7.89785 27.4435 7.89826 27.4434 7.89877 27.4433C7.89902 27.4433 7.8993 27.4432 7.8996 27.4432C7.89975 27.4432 7.89991 27.4431 7.90007 27.4431C7.90016 27.4431 7.90024 27.4431 7.90032 27.4431C7.90036 27.4431 7.90043 27.443 7.90045 27.443C7.90052 27.443 7.90058 27.443 8.05273 28.3047ZM8.5558 29.0848C9.22528 28.9048 10.8138 28.3605 12.2438 26.9569C13.6979 25.5296 14.9252 23.2735 14.9252 19.8047H13.1752C13.1752 22.8129 12.1303 24.6161 11.0179 25.708C9.88149 26.8235 8.60919 27.2583 8.10136 27.3948L8.5558 29.0848ZM14.0502 19.8047C13.1973 19.9999 13.1973 20 13.1973 20.0002C13.1973 20.0002 13.1974 20.0004 13.1974 20.0006C13.1975 20.0009 13.1976 20.0014 13.1977 20.002C13.198 20.0032 13.1984 20.0049 13.1989 20.0071C13.1999 20.0115 13.2014 20.018 13.2033 20.0264C13.2072 20.0432 13.213 20.0679 13.2205 20.1002C13.2357 20.1647 13.258 20.2594 13.2872 20.3813C13.3457 20.6251 13.4319 20.9779 13.5429 21.4165C13.7651 22.2935 14.0874 23.5149 14.4886 24.8945C15.2871 27.6396 16.4128 31.0628 17.6998 33.6369L19.265 32.8543C18.0521 30.4282 16.9617 27.131 16.169 24.4057C15.7747 23.05 15.4577 21.8488 15.2394 20.9869C15.1303 20.556 15.0459 20.2104 14.989 19.973C14.9605 19.8543 14.9389 19.7628 14.9245 19.7012C14.9172 19.6704 14.9118 19.6471 14.9083 19.6317C14.9065 19.624 14.9052 19.6183 14.9043 19.6145C14.9039 19.6127 14.9036 19.6113 14.9034 19.6105C14.9033 19.61 14.9032 19.6097 14.9032 19.6096C14.9031 19.6095 14.9031 19.6094 14.9031 19.6094C14.9031 19.6094 14.9031 19.6094 14.0502 19.8047ZM19.1504 32.6804C14.1882 26.816 9.54411 27.1154 8.16355 27.3805L8.4936 29.0991C9.3337 28.9378 13.3108 28.4883 17.8145 33.8108L19.1504 32.6804ZM8.16355 27.3805C8.05531 27.4013 7.96897 27.4215 7.90607 27.4376C7.87462 27.4456 7.849 27.4527 7.82942 27.4583C7.81962 27.4611 7.81133 27.4635 7.80457 27.4656C7.80119 27.4666 7.79819 27.4675 7.79558 27.4683C7.79427 27.4687 7.79306 27.4691 7.79195 27.4695C7.79139 27.4696 7.79086 27.4698 7.79035 27.47C7.7901 27.47 7.78985 27.4701 7.78961 27.4702C7.78948 27.4702 7.78936 27.4703 7.78925 27.4703C7.78919 27.4703 7.7891 27.4703 7.78907 27.4704C7.78898 27.4704 7.7889 27.4704 8.05273 28.3047C8.31657 29.139 8.31649 29.139 8.3164 29.139C8.31637 29.139 8.31629 29.1391 8.31623 29.1391C8.31612 29.1391 8.31601 29.1391 8.3159 29.1392C8.31568 29.1392 8.31547 29.1393 8.31526 29.1394C8.31484 29.1395 8.31445 29.1396 8.31408 29.1397C8.31334 29.14 8.31269 29.1402 8.31213 29.1404C8.31101 29.1407 8.31025 29.1409 8.30984 29.1411C8.30903 29.1413 8.30963 29.1411 8.31164 29.1405C8.31566 29.1394 8.32526 29.1367 8.34027 29.1328C8.3703 29.1252 8.42189 29.1129 8.4936 29.0991L8.16355 27.3805Z" fill="#211D4F"/>
<path d="M22.0527 17.3051C16.0527 15.9718 14.0527 19.8051 14.0527 19.8051V24.8051C14.0527 26.8051 16.0527 35.3051 25.0527 35.3051C34.0527 35.3051 36.0527 27.3051 36.0527 23.3051V19.8051C28.0527 24.8051 28.0527 18.6384 22.0527 17.3051Z" fill="#F72E3F"/>
<rect x="13.9277" y="1.17969" width="22.25" height="34.25" rx="11.125" stroke="#211D4F" stroke-width="1.75"/>
<path d="M17.4824 31.2459C17.4824 31.2459 14.9824 18.3105 14.9824 21.2459C14.9824 23.7459 13.9824 25.7459 12.4824 27.246C12.4824 27.246 15.4824 28.2459 17.4824 31.2459Z" fill="#F72E3F"/>
</svg>
