<svg width="39" height="37" viewBox="0 0 39 37" fill="none" xmlns="http://www.w3.org/2000/svg">
<path d="M3.89197 3.06408C2.69639 1.98308 0.785566 2.83146 0.785566 4.44328V31.1178C0.785566 32.1447 1.61804 32.9772 2.64494 32.9772H10.6126C11.6395 32.9772 12.4719 32.1447 12.4719 31.1178V11.6473C12.4719 11.1217 12.2495 10.6206 11.8596 10.2681L3.89197 3.06408Z" fill="#F72E3F"/>
<path d="M3.29411 3.61219C2.65763 3.05526 1.66152 3.50727 1.66152 4.353V31.1178C1.66152 31.6615 2.10224 32.1022 2.64589 32.1022H33.2342C34.1432 32.1022 34.5665 30.9755 33.8824 30.377L3.29411 3.61219Z" stroke="#211D4F" stroke-width="1.75"/>
<path d="M17.5583 28.1897L18.3161 26.8772L19.0738 28.1897L22.3769 33.9108L23.1347 35.2233H21.6191H15.013H13.4974L14.2552 33.9108L17.5583 28.1897Z" fill="#211D4F" stroke="#FFCA6A" stroke-width="1.75"/>
</svg>
