<svg width="44" height="38" viewBox="0 0 44 38" fill="none" xmlns="http://www.w3.org/2000/svg">
<path d="M2.65332 17.0381H7.27174" stroke="#211D4F" stroke-width="1.75" stroke-miterlimit="10"/>
<path d="M5.72949 30.0645H8.45318" stroke="#211D4F" stroke-width="1.75" stroke-miterlimit="10"/>
<path d="M7.27051 22.9592H12.7179" stroke="#211D4F" stroke-width="1.75" stroke-miterlimit="10"/>
<path fill-rule="evenodd" clip-rule="evenodd" d="M11.5352 4.84077C11.5352 4.84077 9.87726 0.814453 8.57463 0.814453C7.272 0.814453 5.49568 4.84077 5.49568 4.84077C2.772 3.77498 0.285156 4.01182 0.285156 4.01182C0.285156 4.01182 0.521999 7.8013 2.29831 9.69603C3.60095 10.9987 7.15358 11.3539 8.45621 11.3539C9.75884 11.3539 12.9562 11.2355 14.4957 9.69603C16.272 7.8013 16.5088 4.01182 16.5088 4.01182C16.5088 4.01182 14.1404 3.65656 11.5352 4.84077Z" fill="#211D4F"/>
<path fill-rule="evenodd" clip-rule="evenodd" d="M33.3242 12.1776C33.3242 12.1776 39.1269 12.2961 39.2453 6.25658C39.2453 6.25658 33.3242 6.01974 33.3242 12.1776Z" fill="#211D4F"/>
<path fill-rule="evenodd" clip-rule="evenodd" d="M2.06064 11.354H14.3764C15.5606 11.354 15.6791 12.7751 13.0738 22.9593C11.0606 31.1303 9.63959 36.8145 8.45538 36.8145C7.62643 36.8145 5.73169 31.0119 3.83696 23.0777C2.17906 16.0908 0.994849 11.354 2.06064 11.354Z" stroke="#211D4F" stroke-width="1.75" stroke-miterlimit="10" stroke-linejoin="round"/>
<path fill-rule="evenodd" clip-rule="evenodd" d="M30.8346 17.8619C30.8346 17.8619 33.3214 15.0198 36.8741 15.6119C41.0188 16.3224 43.0319 20.9409 42.7951 24.2567C42.7951 24.2567 42.203 34.7961 30.8346 34.7961C19.4662 34.7961 18.9925 24.7303 18.9925 24.7303C18.4004 19.7567 21.8346 15.7303 25.9793 15.6119C27.6372 15.6119 29.2951 16.3224 30.8346 17.8619Z" fill="#F72E3F" stroke="#211D4F" stroke-width="1.75" stroke-miterlimit="10"/>
<path d="M32.1394 6.25659C32.1394 6.25659 27.4026 10.0461 31.192 17.625" stroke="#211D4F" stroke-width="1.75" stroke-miterlimit="10"/>
<path d="M38.2946 24.375C38.2946 24.375 37.2288 29.704 32.1367 30.1776" stroke="#211D4F" stroke-width="1.75" stroke-miterlimit="10"/>
</svg>
