<svg width="42" height="37" viewBox="0 0 42 37" fill="none" xmlns="http://www.w3.org/2000/svg">
<circle cx="31.5495" cy="9.54902" r="9.51387" fill="#F72E3F"/>
<path d="M31.5955 9.52401C32.9726 9.52401 34.089 8.40765 34.089 7.03056C34.089 5.65347 32.9726 4.53711 31.5955 4.53711C30.2184 4.53711 29.1021 5.65347 29.1021 7.03056C29.1021 8.40765 30.2184 9.52401 31.5955 9.52401Z" stroke="#211D4F" stroke-width="1.75" stroke-miterlimit="10"/>
<path d="M36.5549 16.7925C36.553 15.4361 36.0134 14.1358 35.0543 13.1767C34.0952 12.2175 32.7948 11.6779 31.4385 11.676C30.0808 11.676 28.7787 12.2149 27.8181 13.1742C26.8574 14.1335 26.3168 15.4349 26.3149 16.7925" stroke="#211D4F" stroke-width="1.75" stroke-miterlimit="10"/>
<circle cx="20.5495" cy="27.051" r="8.63887" stroke="#211D4F" stroke-width="1.75"/>
<path d="M20.5955 27.026C21.9726 27.026 23.089 25.9096 23.089 24.5325C23.089 23.1554 21.9726 22.0391 20.5955 22.0391C19.2184 22.0391 18.1021 23.1554 18.1021 24.5325C18.1021 25.9096 19.2184 27.026 20.5955 27.026Z" stroke="#211D4F" stroke-width="1.75" stroke-miterlimit="10"/>
<path d="M25.5549 34.2944C25.553 32.938 25.0134 31.6377 24.0543 30.6786C23.0952 29.7195 21.7948 29.1798 20.4385 29.178C19.0808 29.178 17.7787 29.7168 16.8181 30.6761C15.8574 31.6354 15.3168 32.9368 15.3149 34.2944" stroke="#211D4F" stroke-width="1.75" stroke-miterlimit="10"/>
<circle cx="9.74287" cy="9.54902" r="9.51387" fill="#F72E3F"/>
<path d="M9.78886 9.52401C11.166 9.52401 12.2823 8.40765 12.2823 7.03056C12.2823 5.65347 11.166 4.53711 9.78886 4.53711C8.41177 4.53711 7.29541 5.65347 7.29541 7.03056C7.29541 8.40765 8.41177 9.52401 9.78886 9.52401Z" stroke="#211D4F" stroke-width="1.75" stroke-miterlimit="10"/>
<path d="M14.7483 16.7925C14.7464 15.4361 14.2067 14.1358 13.2476 13.1767C12.2885 12.2175 10.9882 11.6779 9.63181 11.676C8.27419 11.676 6.97208 12.2149 6.01144 13.1742C5.05079 14.1335 4.51017 15.4349 4.5083 16.7925" stroke="#211D4F" stroke-width="1.75" stroke-miterlimit="10"/>
</svg>
